<?xml version="1.0" standalone="no"?>
<!DOCTYPE svg PUBLIC "-//W3C//DTD SVG 1.1//EN" "http://www.w3.org/Graphics/SVG/1.1/DTD/svg11.dtd" >
<svg xmlns="http://www.w3.org/2000/svg" xmlns:xlink="http://www.w3.org/1999/xlink" version="1.1">
<metadata>
Created by FontForge 20170731 at Wed Jul 15 02:04:50 2020
 By Aleksey,,,
Copyright (c) 2012 by Fontfabric LLC. All rights reserved.
</metadata>
<defs>
<font id="PantonNarrowDemo-LightItalic" horiz-adv-x="0" >
  <font-face 
    font-family="Panton Narrow Light Italic Caps"
    font-weight="300"
    font-style="italic"
    font-stretch="semi-condensed"
    units-per-em="2048"
    panose-1="0 0 4 6 0 0 0 0 0 0"
    ascent="1638"
    descent="-410"
    cap-height="1454"
    bbox="-657.45 -518 2221.88 1978.65"
    underline-thickness="102"
    underline-position="-307"
    slope="-10"
    unicode-range="U+0020-F6C3"
  />
<missing-glyph horiz-adv-x="1386" 
d="M244 0q-25 0 -25 27v1400q0 27 25 27h907q27 0 27 -27v-1400q0 -27 -27 -27h-907zM1079 86v1282h-764v-1282h764z" />
    <glyph glyph-name=".notdef" horiz-adv-x="1386" 
d="M244 0q-25 0 -25 27v1400q0 27 25 27h907q27 0 27 -27v-1400q0 -27 -27 -27h-907zM1079 86v1282h-764v-1282h764z" />
    <glyph glyph-name=".null" horiz-adv-x="356" 
 />
    <glyph glyph-name="nonmarkingreturn" horiz-adv-x="682" 
 />
    <glyph glyph-name="space" unicode=" " horiz-adv-x="499" 
 />
    <glyph glyph-name="exclam" unicode="!" horiz-adv-x="452" 
d="M143 309q-22 0 -22 27l192 1159q5 21 25 21h47q29 0 23 -27l-218 -1159q-3 -13 -7 -17t-17 -4h-23zM92 -12q-34 0 -45 13t-4 48l2 10q8 34 21 46t45 12h10q33 0 45 -14.5t6 -47.5l-2 -12q-8 -33 -21 -44t-45 -11h-12z" />
    <glyph glyph-name="quotedbl" unicode="&#x22;" horiz-adv-x="614" 
d="M236 991q-25 0 -19 23l74 422q3 12 7.5 15t18.5 3h41q22 0 19 -24l-92 -420q-3 -12 -8.5 -15.5t-18.5 -3.5h-22zM434 991q-22 0 -16 23l74 422q3 12 7.5 15t18.5 3h39q13 0 17 -5t1 -19l-90 -420q-5 -19 -26 -19h-25z" />
    <glyph glyph-name="numbersign" unicode="#" horiz-adv-x="1335" 
d="M123 0q-23 0 -14 25l174 391h-211q-29 0 -17 24l19 35q6 12 11.5 15.5t18.5 3.5h215l175 387h-211q-29 0 -17 24l19 35q6 12 11 15t19 3h215l154 347q8 20 29 20h45q23 0 14 -27l-154 -340h328l154 347q5 9 7 12.5t6.5 5.5t12.5 2h45q26 0 17 -27l-154 -340h215
q26 0 17 -24l-19 -37q-6 -10 -11 -13t-17 -3h-224l-172 -387h215q13 0 17.5 -6.5t-0.5 -18.5l-19 -35q-8 -12 -12 -15t-16 -3h-222l-176 -396q-6 -12 -11 -16t-17 -4h-45q-24 0 -15 25l174 391h-327l-174 -396q-5 -12 -10.5 -16t-18.5 -4h-43zM735 494l172 387h-325
l-174 -387h327z" />
    <glyph glyph-name="dollar" unicode="$" horiz-adv-x="1189" 
d="M406 -160q-24 0 -17 27l29 145q-155 11 -236.5 98.5t-115.5 249.5q-5 17 -3 26t13 13l45 13q11 3 16.5 -0.5t9.5 -16.5q36 -153 112.5 -229t227.5 -76q202 0 317.5 88t115.5 252q0 63 -25.5 110.5t-74 76.5t-102 46t-124.5 27q-51 8 -87.5 15.5t-80.5 21.5t-74.5 31
t-61.5 44t-49.5 60.5t-30 80.5t-11.5 104q0 185 122 289t343 110l28 145q3 23 27 23h47q25 0 18 -27l-28 -143q156 -13 240 -94.5t116 -233.5q9 -28 -10 -33l-45 -12q-19 -5 -25 12q-31 142 -110.5 211.5t-235.5 69.5q-188 0 -291.5 -81t-103.5 -230q0 -47 9.5 -85t24 -64.5
t40.5 -47.5t49.5 -33.5t61 -23t65 -16t71.5 -11.5q89 -14 156 -36.5t124 -60t87.5 -97.5t30.5 -140q0 -201 -133.5 -311.5t-368.5 -118.5l-29 -145q-3 -23 -26 -23h-47z" />
    <glyph glyph-name="percent" unicode="%" horiz-adv-x="1632" 
d="M416 735q-146 0 -211.5 80t-40.5 221l29 150q23 141 113 220t231 79q144 0 208 -81t39 -222l-26 -152q-25 -139 -114.5 -217t-227.5 -78zM176 0q-13 0 -17.5 9t3.5 20l1210 1405q13 14 20 17t27 3h41q14 0 17 -8.5t-7 -20.5l-1210 -1405q-12 -14 -19 -17t-30 -3h-35z
M420 809q107 0 175 61t87 170l27 144q19 107 -28 167t-151 60q-108 0 -175.5 -61t-88.5 -170l-26 -146q-19 -108 28 -166.5t152 -58.5zM1098 -31q-145 0 -210.5 80t-41.5 221l28 150q25 141 115 220t230 79q144 0 208 -81t39 -222l-26 -152q-25 -139 -113.5 -217t-228.5 -78
zM1102 43q109 0 177 61t87 170l27 144q19 107 -28 167t-151 60q-109 0 -177 -61t-87 -170l-26 -146q-19 -107 27.5 -166t150.5 -59z" />
    <glyph glyph-name="ampersand" unicode="&#x26;" horiz-adv-x="1320" 
d="M352 -29q-138 0 -221.5 86t-83.5 222q0 93 29 170t85 136.5t123 104.5t158 88q-131 163 -131 305q0 179 103.5 289.5t271.5 110.5q132 0 215.5 -74.5t83.5 -200.5q0 -84 -29 -153t-86 -122.5t-122 -93t-156 -79.5l-23 -10l316 -406l162 143q13 13 24 0l25 -30
q15 -15 -2 -29l-164 -147l196 -258q16 -23 -10 -23h-59q-24 0 -35 16l-160 205q-114 -105 -209 -162t-158.5 -72.5t-142.5 -15.5zM561 829q59 26 103.5 49t92 57.5t77.5 71t49.5 86.5t19.5 107q0 94 -62 149.5t-159 55.5q-132 0 -210.5 -89t-78.5 -231q0 -72 33.5 -136.5
t93.5 -139.5zM358 55q102 0 205 47.5t254 182.5l-332 424q-78 -35 -136.5 -72.5t-108.5 -88.5t-76.5 -116.5t-26.5 -144.5q0 -102 61 -167t160 -65z" />
    <glyph glyph-name="quotesingle" unicode="'" horiz-adv-x="415" 
d="M240 991q-25 0 -19 23l74 422q3 12 8 15t19 3h40q22 0 19 -24l-92 -420q-3 -12 -8.5 -15.5t-18.5 -3.5h-22z" />
    <glyph glyph-name="parenleft" unicode="(" horiz-adv-x="489" 
d="M195 -281q-95 65 -129.5 171.5t-2.5 285.5l187 1057q33 181 99.5 282.5t185.5 167.5q7 4 11 4.5t8 -3t5 -5.5t6 -10l17 -31q12 -18 -11 -34q-94 -55 -150 -141t-83 -234l-186 -1059q-25 -156 -2.5 -241t92.5 -140q20 -14 8 -29l-27 -34q-13 -19 -28 -7z" />
    <glyph glyph-name="parenright" unicode=")" horiz-adv-x="485" 
d="M-59 -283q-4 -2 -7.5 -2.5t-6 0t-5 3l-4 4t-4 6t-4.5 6.5l-16 28q-9 22 12 37q93 55 149 141t84 234l185 1059q26 156 3.5 241t-94.5 140q-17 14 -6 28l27 35q13 19 29 6q95 -65 129 -171t2 -285l-187 -1057q-33 -182 -99.5 -284t-186.5 -169z" />
    <glyph glyph-name="asterisk" unicode="*" horiz-adv-x="780" 
d="M549 866q-16 -11 -23 11l-75 178l-142 -189q-9 -15 -22 -2l-23 21q-12 12 -2 24l154 181l-168 61q-19 3 -12 25l14 30q1 3 2.5 4.5t3 2t2.5 1t3.5 0t3.5 -0.5t4.5 -1.5t4.5 -1.5l162 -77l35 231q2 14 18 14h29q15 0 12 -20l-45 -223l191 75q17 8 20 -10l6 -31
q2 -17 -14 -22l-199 -60l91 -182q6 -15 -7 -24z" />
    <glyph glyph-name="plus" unicode="+" horiz-adv-x="1167" 
d="M473 186q-25 0 -22 29l73 414h-374q-27 0 -21 26l6 33q1 15 6 20t19 5h379l73 417q3 14 7.5 18.5t17.5 4.5h37q26 0 20 -29l-73 -411h376q27 0 21 -29l-6 -33q-2 -22 -25 -22h-379l-73 -420q-3 -14 -8.5 -18.5t-18.5 -4.5h-35z" />
    <glyph glyph-name="comma" unicode="," horiz-adv-x="395" 
d="M-76 -248q-25 0 -16 21l133 321q7 18 15 23.5t26 5.5h41q38 0 20 -35l-168 -315q-8 -13 -13.5 -17t-16.5 -4h-21z" />
    <glyph glyph-name="hyphen" unicode="-" horiz-adv-x="858" 
d="M178 664q-26 0 -20 28l6 35q2 14 6.5 18.5t17.5 4.5h486q25 0 22 -29l-6 -33q-3 -15 -8 -19.5t-18 -4.5h-486z" />
    <glyph glyph-name="period" unicode="." horiz-adv-x="403" 
d="M68 -12q-33 0 -45 13.5t-5 47.5l2 10q8 34 21 46t45 12h12q32 0 43.5 -15t5.5 -47l-2 -12q-8 -33 -20.5 -44t-44.5 -11h-12z" />
    <glyph glyph-name="slash" unicode="/" horiz-adv-x="866" 
d="M-29 -123q-28 0 -14 25l840 1532q6 13 12 16.5t20 3.5h43q13 0 18 -7t-1 -17l-838 -1532q-7 -13 -14.5 -17t-22.5 -4h-43z" />
    <glyph glyph-name="zero" unicode="0" horiz-adv-x="1255" 
d="M498 -29q-228 0 -329.5 125t-62.5 344l103 580q37 216 181 339.5t368 123.5q226 0 328 -125t65 -342l-104 -582q-37 -216 -182 -339.5t-367 -123.5zM508 59q181 0 297 101t149 280l103 580q31 176 -49.5 275.5t-257.5 99.5q-183 0 -300 -101t-147 -278l-104 -582
q-31 -178 49 -276.5t260 -98.5z" />
    <glyph glyph-name="one" unicode="1" horiz-adv-x="794" 
d="M375 0q-14 0 -18.5 6.5t-2.5 22.5l232 1310l-365 -188q-23 -11 -31 10l-14 37q-5 12 -2 19t16 14l408 213q23 10 39 10h37q14 0 18 -6.5t2 -22.5l-248 -1402q-3 -14 -9 -18.5t-19 -4.5h-43z" />
    <glyph glyph-name="two" unicode="2" horiz-adv-x="1181" 
d="M39 0q-23 0 -23 31l31 166q14 80 48.5 146t75 110.5t104 85.5t115 65t128.5 55q19 8 57 22q70 27 104 41t90 40.5t83 47.5t63 55.5t52.5 71t28.5 87.5t12 111q0 122 -70.5 191t-196.5 69q-152 0 -257.5 -67.5t-180.5 -205.5q-11 -20 -31 -10l-43 16q-23 9 -8 35
q86 163 213 241.5t314 78.5q169 0 263.5 -92.5t94.5 -247.5q0 -72 -12.5 -131.5t-36 -105.5t-57 -83.5t-76 -68t-93 -56.5t-108 -50.5t-119.5 -49.5q-21 -8 -31 -12q-71 -27 -120.5 -50t-105 -57.5t-91.5 -72t-65 -90.5t-41 -117q-12 -55 -21 -111h770q27 0 21 -29l-7 -34
q-3 -14 -8 -19.5t-16 -5.5h-850z" />
    <glyph glyph-name="three" unicode="3" horiz-adv-x="1196" 
d="M489 -29q-109 0 -187 24t-126 73t-73 115.5t-33 158.5q-3 22 16 29l43 12q26 9 29 -25q13 -154 88 -226.5t246 -72.5q197 0 309 112t112 302q0 105 -59 168.5t-172 63.5h-303q-26 0 -19 28l7 35q1 13 6.5 18t19.5 5h289q146 0 230.5 106.5t84.5 263.5q0 114 -68 174
t-200 60q-162 0 -261.5 -72t-168.5 -231q-10 -18 -33 -9l-37 13q-24 8 -12 39q53 117 118 190.5t165.5 115.5t236.5 42q172 0 264.5 -81t92.5 -228q0 -152 -67.5 -265t-188.5 -155q82 -30 126 -102.5t44 -172.5q0 -231 -140.5 -369.5t-378.5 -138.5z" />
    <glyph glyph-name="four" unicode="4" horiz-adv-x="1208" 
d="M705 0q-29 0 -21 27l70 397h-695q-27 0 -22 27l4 28q2 20 14 35l860 944q16 19 37 19h52q15 0 19 -7.5t1 -25.5l-166 -934h195q23 0 20 -29l-4 -35q-3 -13 -9 -17.5t-20 -4.5h-196l-70 -399q-3 -14 -8 -19.5t-18 -5.5h-43zM768 510l147 831l-755 -831h608z" />
    <glyph glyph-name="five" unicode="5" horiz-adv-x="1169" 
d="M471 -29q-192 0 -293 82t-131 244q-3 22 12 27l45 14q26 10 31 -21q42 -258 344 -258q186 0 306 129.5t120 323.5q0 133 -71 196.5t-246 63.5h-373q-35 0 -25 37l164 602q6 27 15 35t34 8h691q14 0 18 -7t2 -22l-8 -36q-5 -23 -25 -23h-649l-135 -506h309
q110 0 187.5 -23t122.5 -68t65 -105.5t20 -141.5q0 -243 -150 -397t-380 -154z" />
    <glyph glyph-name="six" unicode="6" horiz-adv-x="1241" 
d="M504 -29q-200 0 -303 98.5t-103 278.5q0 19 1 36t4.5 45.5t7.5 52.5t13.5 78.5t17.5 100.5t25 141t32 179q44 248 186.5 375t374.5 127q181 0 278.5 -79t124.5 -235q3 -22 -14 -26l-47 -13q-14 -4 -18.5 1.5t-6.5 21.5q-25 122 -102 182t-219 60q-190 0 -307 -105
t-154 -311l-41 -225q211 80 412 80q202 0 298.5 -78t96.5 -238q0 -248 -151.5 -397.5t-405.5 -149.5zM508 59q213 0 335 123t122 324q0 123 -76.5 182.5t-235.5 59.5q-31 0 -62.5 -2t-57.5 -4.5t-54.5 -7.5t-48.5 -9t-44.5 -10.5t-38.5 -10.5t-35 -11.5t-29 -10t-25 -9.5
t-18 -7q-45 -241 -45 -306q0 -146 79 -223.5t234 -77.5z" />
    <glyph glyph-name="seven" unicode="7" horiz-adv-x="1026" 
d="M207 0q-27 0 -12 29l780 1337h-748q-26 0 -20 29l6 37q7 22 31 22h829q24 0 21 -27l-4 -28q-5 -19 -15 -37l-778 -1342q-9 -13 -16 -16.5t-25 -3.5h-49z" />
    <glyph glyph-name="eight" unicode="8" horiz-adv-x="1230" 
d="M481 -29q-420 0 -420 316q0 161 111 286.5t305 180.5q-123 52 -181.5 129t-57.5 192q2 190 135.5 299t367.5 109q192 0 294 -79t102 -230q0 -152 -100.5 -268t-274.5 -169q145 -59 209.5 -139t64.5 -203q0 -197 -148 -310.5t-407 -113.5zM664 776q170 34 274 138t104 243
q0 119 -77.5 180.5t-227.5 61.5q-185 0 -295 -85t-110 -227q0 -119 82 -195t250 -116zM494 55q201 0 323.5 89.5t122.5 242.5q0 123 -84.5 195.5t-275.5 124.5q-187 -34 -304.5 -146.5t-117.5 -259.5q0 -122 85.5 -184t250.5 -62z" />
    <glyph glyph-name="nine" unicode="9" horiz-adv-x="1241" 
d="M481 -29q-179 0 -278 78t-127 236q-3 21 16 26l45 13q20 5 27 -21q25 -125 103.5 -184.5t217.5 -59.5q192 0 309 104t152 308l41 229q-185 -79 -409 -79q-400 0 -400 323q0 249 148 394t403 145q198 0 305 -98.5t107 -278.5q0 -55 -11 -126t-60 -343q-19 -106 -30 -168
q-46 -247 -186.5 -372.5t-372.5 -125.5zM590 707q200 0 400 77q8 3 11 4q30 155 38 210.5t8 99.5q0 144 -82 220.5t-236 76.5q-213 0 -334 -116.5t-121 -320.5q0 -251 316 -251z" />
    <glyph glyph-name="colon" unicode=":" horiz-adv-x="450" 
d="M293 1063q-33 0 -44.5 13.5t-4.5 47.5l2 13q8 33 21 45t44 12h13q61 0 49 -64l-2 -10q-8 -34 -21 -45.5t-45 -11.5h-12zM139 190q-34 0 -45 13.5t-4 48.5l2 12q6 32 19.5 43.5t44.5 11.5h12q33 0 44.5 -14t6.5 -47l-4 -10q-6 -34 -18.5 -46t-44.5 -12h-13z" />
    <glyph glyph-name="semicolon" unicode=";" horiz-adv-x="526" 
d="M303 860q-34 0 -45.5 13.5t-5.5 48.5l4 10q6 34 18.5 45.5t44.5 11.5h13q33 0 44 -14t5 -47l-2 -10q-8 -34 -21 -46t-45 -12h-10zM2 -248q-25 0 -16 21l133 321q7 18 15.5 23.5t27.5 5.5h39q38 0 20 -35l-168 -315q-6 -12 -12 -16.5t-18 -4.5h-21z" />
    <glyph glyph-name="less" unicode="&#x3c;" horiz-adv-x="1007" 
d="M117 623q-8 6 -11.5 9.5t-6 10t0.5 14.5l4 25q3 15 7.5 21.5t17.5 13.5l758 413q31 16 24 -22l-6 -39q-4 -20 -8.5 -26.5t-19.5 -16.5l-656 -356l-2 -4l524 -361q15 -10 19 -18.5t0 -28.5l-6 -35q-6 -32 -27 -14z" />
    <glyph glyph-name="equal" unicode="=" horiz-adv-x="1204" 
d="M211 829q-29 0 -23 27l7 35q3 15 8.5 19.5t19.5 4.5h821q28 0 25 -28l-6 -35q-3 -14 -8.5 -18.5t-20.5 -4.5h-823zM139 424q-25 0 -22 29l6 34q3 14 8.5 18.5t18.5 4.5h823q30 0 24 -29l-6 -35q-3 -14 -8 -18t-18 -4h-826z" />
    <glyph glyph-name="greater" unicode="&#x3e;" horiz-adv-x="1009" 
d="M102 205q-17 -7 -23 -1.5t-1 23.5l6 37q3 20 7.5 26.5t21.5 16.5l657 357v4l-524 360q-15 10 -19.5 18.5t-1.5 28.5l8 37q3 19 8 22t17 -6l612 -413q12 -8 16 -15t3 -22l-6 -25q-3 -23 -25 -35z" />
    <glyph glyph-name="question" unicode="?" horiz-adv-x="1116" 
d="M416 289q-14 0 -19 6t-2 24q11 60 33 112t45.5 86.5t61.5 70.5t65 56t74 52q40 26 55.5 37t51.5 38t53.5 45.5t45 51.5t42.5 64t30.5 74t24.5 92q26 144 -49 238t-234 94q-282 0 -432 -287q-13 -18 -33 -10l-41 14q-12 4 -14 12t4 25q178 332 522 332q138 0 231.5 -58.5
t129 -155t14.5 -215.5q-13 -73 -39.5 -134.5t-57.5 -104.5t-74.5 -83.5t-80.5 -68t-86 -60.5q-9 -6 -14 -9q-48 -32 -80 -57t-69 -64t-60.5 -88.5t-34.5 -110.5q-1 -11 -6 -14.5t-18 -3.5h-39zM377 -12q-33 0 -44.5 13.5t-4.5 47.5l2 10q8 34 20.5 46t44.5 12h13
q32 0 43.5 -15t5.5 -47q0 -2 -1 -6t-1 -6q-8 -33 -21 -44t-45 -11h-12z" />
    <glyph glyph-name="at" unicode="@" horiz-adv-x="1820" 
d="M737 -270q-368 0 -536 208.5t-101 589.5l27 144q65 377 306 594t603 217q149 0 267 -38.5t197 -109.5t126.5 -172t55.5 -226t-15 -271l-27 -142q-24 -139 -89.5 -238.5t-147.5 -144.5t-172 -45q-103 0 -109 88q-173 -82 -370 -82q-168 0 -236.5 87.5t-40.5 246.5l57 324
q29 160 125 247t261 87q190 0 325 -64q38 -19 49 -38.5t4 -59.5l-120 -688q-16 -78 59 -78q112 0 207 91.5t127 270.5l26 144q39 226 -9.5 392t-189 258.5t-362.5 92.5q-330 0 -551.5 -199t-283.5 -548l-25 -146q-63 -349 86.5 -537t478.5 -188q44 0 89 3t84.5 8t75 10.5
t66 12t51 11t37 9t17.5 4.5q21 6 21 -13l-6 -39q-1 -8 -5 -11.5t-14 -6.5q-1 0 -16.5 -4t-34.5 -8.5t-48.5 -10.5t-64 -11.5t-74 -10t-86.5 -7.5t-94 -3zM764 174q179 0 334 80l119 657q5 28 -0.5 41t-28.5 23q-104 47 -264 47q-135 0 -214.5 -69.5t-101.5 -198.5l-57 -320
q-45 -260 213 -260z" />
    <glyph glyph-name="A" unicode="A" horiz-adv-x="1277" 
d="M-53 0q-13 0 -17 8.5t2 20.5l775 1413q8 14 14.5 18t19.5 4h50q12 0 17.5 -6t8.5 -20l277 -1413q6 -25 -17 -25h-47q-19 0 -26.5 6t-10.5 21l-84 448h-628l-248 -455q-6 -13 -13.5 -16.5t-27.5 -3.5h-45zM893 557l-127 678q-10 75 -10 135h-6q-26 -73 -62 -141l-364 -672
h569z" />
    <glyph glyph-name="B" unicode="B" horiz-adv-x="1292" 
d="M98 0q-16 0 -20 6t-2 23l248 1403q6 22 26 22h490q172 0 258 -74.5t86 -216.5q0 -148 -66.5 -255t-199.5 -158l-3 -2q88 -26 140.5 -95t52.5 -178q0 -214 -130 -344.5t-351 -130.5h-529zM752 782q155 0 245.5 101t92.5 260q2 110 -63.5 166.5t-199.5 56.5h-419l-103 -584
h447zM623 88q179 0 286 108t107 279q0 109 -65.5 167t-186.5 58h-473l-109 -612h441z" />
    <glyph glyph-name="B" unicode="b" horiz-adv-x="1292" 
d="M98 0q-16 0 -20 6t-2 23l248 1403q6 22 26 22h490q172 0 258 -74.5t86 -216.5q0 -148 -66.5 -255t-199.5 -158l-3 -2q88 -26 140.5 -95t52.5 -178q0 -214 -130 -344.5t-351 -130.5h-529zM752 782q155 0 245.5 101t92.5 260q2 110 -63.5 166.5t-199.5 56.5h-419l-103 -584
h447zM623 88q179 0 286 108t107 279q0 109 -65.5 167t-186.5 58h-473l-109 -612h441z" />
    <glyph glyph-name="C" unicode="C" horiz-adv-x="1280" 
d="M539 -29q-246 0 -357 135.5t-69 372.5l88 502q42 237 193.5 369.5t396.5 132.5q216 0 317.5 -89.5t122.5 -273.5q5 -20 -17 -28l-43 -11q-24 -8 -30 19q-15 152 -98 223.5t-259 71.5q-205 0 -329.5 -110t-159.5 -306l-90 -506q-33 -195 54.5 -303.5t287.5 -108.5
q179 0 286.5 77t180.5 235q7 19 35 10l38 -14q25 -11 11 -37q-57 -121 -127.5 -197.5t-178.5 -120t-253 -43.5z" />
    <glyph glyph-name="C" unicode="c" horiz-adv-x="1280" 
d="M539 -29q-246 0 -357 135.5t-69 372.5l88 502q42 237 193.5 369.5t396.5 132.5q216 0 317.5 -89.5t122.5 -273.5q5 -20 -17 -28l-43 -11q-24 -8 -30 19q-15 152 -98 223.5t-259 71.5q-205 0 -329.5 -110t-159.5 -306l-90 -506q-33 -195 54.5 -303.5t287.5 -108.5
q179 0 286.5 77t180.5 235q7 19 35 10l38 -14q25 -11 11 -37q-57 -121 -127.5 -197.5t-178.5 -120t-253 -43.5z" />
    <glyph glyph-name="D" unicode="D" horiz-adv-x="1304" 
d="M98 0q-15 0 -19.5 6t-2.5 23l248 1403q5 22 28 22h383q269 0 384.5 -144t70.5 -399l-66 -372q-45 -253 -210.5 -396t-426.5 -143h-389zM494 88q217 0 358 120t178 335l66 372q39 218 -52 334.5t-315 116.5h-321l-226 -1278h312z" />
    <glyph glyph-name="D" unicode="d" horiz-adv-x="1304" 
d="M98 0q-15 0 -19.5 6t-2.5 23l248 1403q5 22 28 22h383q269 0 384.5 -144t70.5 -399l-66 -372q-45 -253 -210.5 -396t-426.5 -143h-389zM494 88q217 0 358 120t178 335l66 372q39 218 -52 334.5t-315 116.5h-321l-226 -1278h312z" />
    <glyph glyph-name="E" unicode="E" horiz-adv-x="1148" 
d="M96 0q-23 0 -20 27l248 1403q3 14 9.5 19t20.5 5h758q14 0 18.5 -6.5t2.5 -22.5l-7 -36q-3 -13 -8.5 -18t-17.5 -5h-692l-103 -584h606q27 0 21 -26l-6 -39q-6 -25 -27 -25h-610l-107 -604h713q15 0 20.5 -6t2.5 -21l-7 -38q-6 -23 -26 -23h-789z" />
    <glyph glyph-name="E" unicode="e" horiz-adv-x="1148" 
d="M96 0q-23 0 -20 27l248 1403q3 14 9.5 19t20.5 5h758q14 0 18.5 -6.5t2.5 -22.5l-7 -36q-3 -13 -8.5 -18t-17.5 -5h-692l-103 -584h606q27 0 21 -26l-6 -39q-6 -25 -27 -25h-610l-107 -604h713q15 0 20.5 -6t2.5 -21l-7 -38q-6 -23 -26 -23h-789z" />
    <glyph glyph-name="F" unicode="F" horiz-adv-x="1105" 
d="M96 0q-23 0 -20 29l248 1403q3 13 9.5 17.5t20.5 4.5h750q25 0 22 -27l-8 -38q-3 -13 -8 -18t-16 -5h-686l-107 -606h590q14 0 18.5 -6t1.5 -21l-6 -39q-2 -22 -28 -22h-590l-115 -649q-3 -14 -7.5 -18.5t-17.5 -4.5h-51z" />
    <glyph glyph-name="F" unicode="f" horiz-adv-x="1105" 
d="M96 0q-23 0 -20 29l248 1403q3 13 9.5 17.5t20.5 4.5h750q25 0 22 -27l-8 -38q-3 -13 -8 -18t-16 -5h-686l-107 -606h590q14 0 18.5 -6t1.5 -21l-6 -39q-2 -22 -28 -22h-590l-115 -649q-3 -14 -7.5 -18.5t-17.5 -4.5h-51z" />
    <glyph glyph-name="G" unicode="G" horiz-adv-x="1314" 
d="M543 -29q-250 0 -361.5 135.5t-68.5 374.5l88 500q43 244 192.5 373t397.5 129q211 0 315 -87t123 -266q4 -19 1.5 -26t-16.5 -12l-43 -13q-22 -6 -28 21q-12 152 -95.5 223.5t-261.5 71.5q-208 0 -332 -110t-159 -310l-88 -498q-34 -198 53.5 -308t290.5 -110
q200 0 327 108t160 298l33 182h-399q-24 0 -21 29l6 35q5 24 31 24h463q29 0 20 -30l-41 -244q-40 -228 -194 -359t-393 -131z" />
    <glyph glyph-name="G" unicode="g" horiz-adv-x="1314" 
d="M543 -29q-250 0 -361.5 135.5t-68.5 374.5l88 500q43 244 192.5 373t397.5 129q211 0 315 -87t123 -266q4 -19 1.5 -26t-16.5 -12l-43 -13q-22 -6 -28 21q-12 152 -95.5 223.5t-261.5 71.5q-208 0 -332 -110t-159 -310l-88 -498q-34 -198 53.5 -308t290.5 -110
q200 0 327 108t160 298l33 182h-399q-24 0 -21 29l6 35q5 24 31 24h463q29 0 20 -30l-41 -244q-40 -228 -194 -359t-393 -131z" />
    <glyph glyph-name="H" unicode="H" horiz-adv-x="1372" 
d="M98 0q-14 0 -18.5 5.5t-3.5 23.5l248 1401q3 14 9 19t19 5h45q27 0 21 -27l-113 -645h782l115 648q3 15 9 19.5t20 4.5h45q23 0 20 -27l-247 -1400q-3 -15 -8.5 -21t-18.5 -6h-45q-15 0 -20.5 6t-2.5 21l119 665h-784l-119 -669q-3 -23 -25 -23h-47z" />
    <glyph glyph-name="H" unicode="h" horiz-adv-x="1372" 
d="M98 0q-14 0 -18.5 5.5t-3.5 23.5l248 1401q3 14 9 19t19 5h45q27 0 21 -27l-113 -645h782l115 648q3 15 9 19.5t20 4.5h45q23 0 20 -27l-247 -1400q-3 -15 -8.5 -21t-18.5 -6h-45q-15 0 -20.5 6t-2.5 21l119 665h-784l-119 -669q-3 -23 -25 -23h-47z" />
    <glyph glyph-name="I" unicode="I" horiz-adv-x="495" 
d="M96 0q-13 0 -17 7t-1 24l246 1401q4 22 32 22h41q14 0 19.5 -6t1.5 -23l-248 -1400q-3 -25 -27 -25h-47z" />
    <glyph glyph-name="J" unicode="J" horiz-adv-x="1142" 
d="M385 -29q-364 0 -367 410q-7 25 15 31l49 10q12 3 17.5 -1.5t9.5 -21.5q-2 -169 65.5 -253.5t220.5 -84.5q169 0 276 104.5t140 283.5l172 983q5 22 27 22h49q21 0 18 -27l-172 -985q-41 -223 -173.5 -347t-346.5 -124z" />
    <glyph glyph-name="J" unicode="j" horiz-adv-x="1142" 
d="M385 -29q-364 0 -367 410q-7 25 15 31l49 10q12 3 17.5 -1.5t9.5 -21.5q-2 -169 65.5 -253.5t220.5 -84.5q169 0 276 104.5t140 283.5l172 983q5 22 27 22h49q21 0 18 -27l-172 -985q-41 -223 -173.5 -347t-346.5 -124z" />
    <glyph glyph-name="K" unicode="K" horiz-adv-x="1210" 
d="M98 0q-14 0 -18.5 6t-3.5 23l248 1403q5 22 28 22h45q27 0 21 -27l-115 -647h285l542 654q10 13 18.5 16.5t29.5 3.5h51q31 0 14 -29l-565 -665q77 -19 118.5 -72.5t69.5 -152.5l146 -510q7 -25 -17 -25h-51q-18 0 -24 5t-9 20l-131 477q-29 107 -77 149.5t-156 42.5
h-258l-119 -671q-5 -23 -25 -23h-47z" />
    <glyph glyph-name="K" unicode="k" horiz-adv-x="1210" 
d="M98 0q-14 0 -18.5 6t-3.5 23l248 1403q5 22 28 22h45q27 0 21 -27l-115 -647h285l542 654q10 13 18.5 16.5t29.5 3.5h51q31 0 14 -29l-565 -665q77 -19 118.5 -72.5t69.5 -152.5l146 -510q7 -25 -17 -25h-51q-18 0 -24 5t-9 20l-131 477q-29 107 -77 149.5t-156 42.5
h-258l-119 -671q-5 -23 -25 -23h-47z" />
    <glyph glyph-name="L" unicode="L" horiz-adv-x="1042" 
d="M96 0q-23 0 -20 29l248 1403q5 22 28 22h47q25 0 19 -27l-236 -1339h662q28 0 22 -27l-6 -38q-6 -23 -26 -23h-738z" />
    <glyph glyph-name="L" unicode="l" horiz-adv-x="1042" 
d="M96 0q-23 0 -20 29l248 1403q5 22 28 22h47q25 0 19 -27l-236 -1339h662q28 0 22 -27l-6 -38q-6 -23 -26 -23h-738z" />
    <glyph glyph-name="M" unicode="M" horiz-adv-x="1611" 
d="M96 0q-23 0 -20 27l248 1405q3 13 9.5 17.5t20.5 4.5h41q14 0 20 -5.5t11 -18.5l330 -975l671 977q11 14 18.5 18t22.5 4h45q14 0 18.5 -6.5t2.5 -22.5l-248 -1400q-3 -14 -9 -19.5t-20 -5.5h-38q-28 0 -23 27l166 942q28 163 72 336h-4q-144 -227 -189 -291l-450 -645
q-12 -21 -31 -21h-31q-23 0 -31 25l-225 653q-47 132 -86 281h-6q-15 -157 -49 -344l-166 -940q-5 -23 -27 -23h-43z" />
    <glyph glyph-name="M" unicode="m" horiz-adv-x="1611" 
d="M96 0q-23 0 -20 27l248 1405q3 13 9.5 17.5t20.5 4.5h41q14 0 20 -5.5t11 -18.5l330 -975l671 977q11 14 18.5 18t22.5 4h45q14 0 18.5 -6.5t2.5 -22.5l-248 -1400q-3 -14 -9 -19.5t-20 -5.5h-38q-28 0 -23 27l166 942q28 163 72 336h-4q-144 -227 -189 -291l-450 -645
q-12 -21 -31 -21h-31q-23 0 -31 25l-225 653q-47 132 -86 281h-6q-15 -157 -49 -344l-166 -940q-5 -23 -27 -23h-43z" />
    <glyph glyph-name="N" unicode="N" horiz-adv-x="1390" 
d="M96 0q-23 0 -20 27l248 1405q5 22 28 22h49q22 0 27 -16l457 -1010q24 -55 119 -293h4q28 242 51 373l164 926q3 20 30 20h43q25 0 19 -29l-248 -1400q-3 -14 -8 -19.5t-19 -5.5h-49q-18 0 -26 18l-469 1035q-66 155 -105 264h-4q-27 -207 -49 -338l-170 -956
q-5 -23 -29 -23h-43z" />
    <glyph glyph-name="N" unicode="n" horiz-adv-x="1390" 
d="M96 0q-23 0 -20 27l248 1405q5 22 28 22h49q22 0 27 -16l457 -1010q24 -55 119 -293h4q28 242 51 373l164 926q3 20 30 20h43q25 0 19 -29l-248 -1400q-3 -14 -8 -19.5t-19 -5.5h-49q-18 0 -26 18l-469 1035q-66 155 -105 264h-4q-27 -207 -49 -338l-170 -956
q-5 -23 -29 -23h-43z" />
    <glyph glyph-name="O" unicode="O" horiz-adv-x="1333" 
d="M543 -29q-252 0 -362 134t-68 374l88 500q42 239 193.5 371.5t398.5 132.5q248 0 359 -134t69 -374l-88 -500q-40 -240 -192 -372t-398 -132zM547 59q202 0 329 109.5t164 312.5l86 498q35 200 -51.5 308t-286.5 108q-203 0 -331 -111.5t-162 -310.5l-88 -496
q-34 -198 53.5 -308t286.5 -110z" />
    <glyph glyph-name="O" unicode="o" horiz-adv-x="1333" 
d="M543 -29q-252 0 -362 134t-68 374l88 500q42 239 193.5 371.5t398.5 132.5q248 0 359 -134t69 -374l-88 -500q-40 -240 -192 -372t-398 -132zM547 59q202 0 329 109.5t164 312.5l86 498q35 200 -51.5 308t-286.5 108q-203 0 -331 -111.5t-162 -310.5l-88 -496
q-34 -198 53.5 -308t286.5 -110z" />
    <glyph glyph-name="P" unicode="P" horiz-adv-x="1247" 
d="M98 0q-16 0 -20 6t-2 21l248 1405q3 12 9 17t21 5h488q196 0 290.5 -113.5t65.5 -318.5q-26 -212 -159 -334.5t-334 -122.5h-439l-96 -540q-3 -25 -27 -25h-45zM700 655q163 0 270.5 95.5t133.5 267.5q26 165 -46.5 256.5t-228.5 91.5h-421l-125 -711h417z" />
    <glyph glyph-name="P" unicode="p" horiz-adv-x="1247" 
d="M98 0q-16 0 -20 6t-2 21l248 1405q3 12 9 17t21 5h488q196 0 290.5 -113.5t65.5 -318.5q-26 -212 -159 -334.5t-334 -122.5h-439l-96 -540q-3 -25 -27 -25h-45zM700 655q163 0 270.5 95.5t133.5 267.5q26 165 -46.5 256.5t-228.5 91.5h-421l-125 -711h417z" />
    <glyph glyph-name="Q" unicode="Q" horiz-adv-x="1417" 
d="M1104 -127q-21 -15 -33 6l-137 182q-134 -90 -332 -90q-250 0 -359.5 135t-66.5 373l86 500q42 238 195 371t397 133q249 0 360.5 -135t69.5 -373l-88 -500q-42 -233 -184 -360l137 -183q12 -21 -8 -34zM610 59q202 0 330 111.5t162 310.5l88 498q34 198 -54 307
t-286 109q-204 0 -331 -111t-163 -311l-86 -498q-35 -198 52.5 -307t287.5 -109z" />
    <glyph glyph-name="Q" unicode="q" horiz-adv-x="1417" 
d="M1104 -127q-21 -15 -33 6l-137 182q-134 -90 -332 -90q-250 0 -359.5 135t-66.5 373l86 500q42 238 195 371t397 133q249 0 360.5 -135t69.5 -373l-88 -500q-42 -233 -184 -360l137 -183q12 -21 -8 -34zM610 59q202 0 330 111.5t162 310.5l88 498q34 198 -54 307
t-286 109q-204 0 -331 -111t-163 -311l-86 -498q-35 -198 52.5 -307t287.5 -109z" />
    <glyph glyph-name="R" unicode="R" horiz-adv-x="1294" 
d="M96 0q-14 0 -18 7t-2 22l248 1403q3 13 9.5 17.5t20.5 4.5h533q174 0 260 -103.5t61 -289.5q-24 -178 -131.5 -284.5t-273.5 -123.5q50 -24 79.5 -65.5t49.5 -108.5l129 -454q3 -14 -0.5 -19.5t-16.5 -5.5h-45q-20 0 -26.5 5t-9.5 20l-121 421q-30 107 -82.5 151
t-161.5 44h-319l-109 -616q-3 -25 -27 -25h-47zM754 725q145 0 240 88t120 246q23 146 -42 226.5t-204 80.5h-460l-113 -641h459z" />
    <glyph glyph-name="R" unicode="r" horiz-adv-x="1294" 
d="M96 0q-14 0 -18 7t-2 22l248 1403q3 13 9.5 17.5t20.5 4.5h533q174 0 260 -103.5t61 -289.5q-24 -178 -131.5 -284.5t-273.5 -123.5q50 -24 79.5 -65.5t49.5 -108.5l129 -454q3 -14 -0.5 -19.5t-16.5 -5.5h-45q-20 0 -26.5 5t-9.5 20l-121 421q-30 107 -82.5 151
t-161.5 44h-319l-109 -616q-3 -25 -27 -25h-47zM754 725q145 0 240 88t120 246q23 146 -42 226.5t-204 80.5h-460l-113 -641h459z" />
    <glyph glyph-name="S" unicode="S" horiz-adv-x="1257" 
d="M506 -29q-195 0 -305 83t-148 265q-7 17 -5 26t15 13l48 15q12 4 17.5 0.5t10.5 -17.5q33 -155 125 -225t252 -70q201 0 317.5 83t141.5 243q11 69 -3 120t-41 80.5t-82 50.5t-99 30t-119 20q-106 14 -177.5 34.5t-140 61.5t-96 114.5t-12.5 178.5q25 189 167 297.5
t365 108.5q190 0 298.5 -76t154.5 -242q11 -26 -12 -32l-45 -15q-22 -6 -29 12q-40 139 -127.5 201t-245.5 62q-177 0 -292 -83.5t-140 -230.5q-11 -68 4.5 -119.5t44 -81.5t83.5 -52t102.5 -32t121.5 -20q110 -16 179 -36t135.5 -60t91.5 -111.5t10 -175.5
q-28 -204 -173 -312t-392 -108z" />
    <glyph glyph-name="S" unicode="s" horiz-adv-x="1257" 
d="M506 -29q-195 0 -305 83t-148 265q-7 17 -5 26t15 13l48 15q12 4 17.5 0.5t10.5 -17.5q33 -155 125 -225t252 -70q201 0 317.5 83t141.5 243q11 69 -3 120t-41 80.5t-82 50.5t-99 30t-119 20q-106 14 -177.5 34.5t-140 61.5t-96 114.5t-12.5 178.5q25 189 167 297.5
t365 108.5q190 0 298.5 -76t154.5 -242q11 -26 -12 -32l-45 -15q-22 -6 -29 12q-40 139 -127.5 201t-245.5 62q-177 0 -292 -83.5t-140 -230.5q-11 -68 4.5 -119.5t44 -81.5t83.5 -52t102.5 -32t121.5 -20q110 -16 179 -36t135.5 -60t91.5 -111.5t10 -175.5
q-28 -204 -173 -312t-392 -108z" />
    <glyph glyph-name="T" unicode="T" horiz-adv-x="1083" 
d="M393 0q-16 0 -20 6t-2 21l235 1339h-407q-28 0 -23 29l6 37q7 22 31 22h915q24 0 21 -29l-6 -36q-5 -14 -10.5 -18.5t-18.5 -4.5h-412l-237 -1343q-5 -23 -27 -23h-45z" />
    <glyph glyph-name="T" unicode="t" horiz-adv-x="1083" 
d="M393 0q-16 0 -20 6t-2 21l235 1339h-407q-28 0 -23 29l6 37q7 22 31 22h915q24 0 21 -29l-6 -36q-5 -14 -10.5 -18.5t-18.5 -4.5h-412l-237 -1343q-5 -23 -27 -23h-45z" />
    <glyph glyph-name="U" unicode="U" horiz-adv-x="1374" 
d="M557 -29q-248 0 -351 139t-59 386l166 936q3 13 9 17.5t20 4.5h43q26 0 23 -27l-166 -935q-36 -204 44.5 -318.5t276.5 -114.5q202 0 326 115.5t162 321.5l163 936q4 22 29 22h45q24 0 21 -27l-164 -935q-44 -247 -194 -384t-394 -137z" />
    <glyph glyph-name="U" unicode="u" horiz-adv-x="1374" 
d="M557 -29q-248 0 -351 139t-59 386l166 936q3 13 9 17.5t20 4.5h43q26 0 23 -27l-166 -935q-36 -204 44.5 -318.5t276.5 -114.5q202 0 326 115.5t162 321.5l163 936q4 22 29 22h45q24 0 21 -27l-164 -935q-44 -247 -194 -384t-394 -137z" />
    <glyph glyph-name="V" unicode="V" horiz-adv-x="1236" 
d="M467 0q-27 0 -27 25l-258 1407q0 13 3.5 17.5t15.5 4.5h53q16 0 21.5 -6t7.5 -21l209 -1175q11 -86 16 -137h6q48 109 66 141l622 1178q6 13 13 16.5t22 3.5h53q13 0 17 -8t-2 -19l-752 -1407q-10 -20 -35 -20h-51z" />
    <glyph glyph-name="V" unicode="v" horiz-adv-x="1236" 
d="M467 0q-27 0 -27 25l-258 1407q0 13 3.5 17.5t15.5 4.5h53q16 0 21.5 -6t7.5 -21l209 -1175q11 -86 16 -137h6q48 109 66 141l622 1178q6 13 13 16.5t22 3.5h53q13 0 17 -8t-2 -19l-752 -1407q-10 -20 -35 -20h-51z" />
    <glyph glyph-name="W" unicode="W" horiz-adv-x="1796" 
d="M356 0q-28 0 -28 25l-121 1407q-2 14 1.5 18t16.5 4h51q17 0 23 -6t6 -21l88 -1099q8 -74 4 -193h9q31 95 77 195l482 1073q7 13 14 16.5t22 3.5h41q31 0 31 -26l103 -1073q8 -122 8 -189h6q20 69 72 191l479 1108q6 12 12 16t21 4h51q24 0 14 -29l-614 -1405
q-6 -13 -13 -16.5t-22 -3.5h-47q-31 0 -31 25l-102 1079q-9 133 -9 184h-6q-28 -85 -75 -188l-484 -1080q-4 -13 -11.5 -16.5t-23.5 -3.5h-45z" />
    <glyph glyph-name="W" unicode="w" horiz-adv-x="1796" 
d="M356 0q-28 0 -28 25l-121 1407q-2 14 1.5 18t16.5 4h51q17 0 23 -6t6 -21l88 -1099q8 -74 4 -193h9q31 95 77 195l482 1073q7 13 14 16.5t22 3.5h41q31 0 31 -26l103 -1073q8 -122 8 -189h6q20 69 72 191l479 1108q6 12 12 16t21 4h51q24 0 14 -29l-614 -1405
q-6 -13 -13 -16.5t-22 -3.5h-47q-31 0 -31 25l-102 1079q-9 133 -9 184h-6q-28 -85 -75 -188l-484 -1080q-4 -13 -11.5 -16.5t-23.5 -3.5h-45z" />
    <glyph glyph-name="X" unicode="X" horiz-adv-x="1216" 
d="M-49 0q-30 0 -8 33l604 706l-342 693q-7 22 14 22h60q18 0 23.5 -4t10.5 -20l308 -617l524 621q9 13 16 16.5t25 3.5h61q13 0 17.5 -9t-2.5 -18l-590 -686l352 -712q14 -29 -16 -29h-56q-17 0 -23 5t-11 20l-320 641l-545 -643q-13 -23 -41 -23h-61z" />
    <glyph glyph-name="X" unicode="x" horiz-adv-x="1216" 
d="M-49 0q-30 0 -8 33l604 706l-342 693q-7 22 14 22h60q18 0 23.5 -4t10.5 -20l308 -617l524 621q9 13 16 16.5t25 3.5h61q13 0 17.5 -9t-2.5 -18l-590 -686l352 -712q14 -29 -16 -29h-56q-17 0 -23 5t-11 20l-320 641l-545 -643q-13 -23 -41 -23h-61z" />
    <glyph glyph-name="Y" unicode="Y" horiz-adv-x="1249" 
d="M473 0q-23 0 -20 29l102 571l-365 830q-7 24 15 24h53q21 0 27.5 -4.5t11.5 -19.5l321 -740l582 744q9 13 16.5 16.5t28.5 3.5h51q13 0 17 -9t-2 -20l-662 -829l-102 -571q-3 -15 -8.5 -20t-18.5 -5h-47z" />
    <glyph glyph-name="Y" unicode="y" horiz-adv-x="1249" 
d="M473 0q-23 0 -20 29l102 571l-365 830q-7 24 15 24h53q21 0 27.5 -4.5t11.5 -19.5l321 -740l582 744q9 13 16.5 16.5t28.5 3.5h51q13 0 17 -9t-2 -20l-662 -829l-102 -571q-3 -15 -8.5 -20t-18.5 -5h-47z" />
    <glyph glyph-name="Z" unicode="Z" horiz-adv-x="1118" 
d="M-4 0q-26 0 -23 27l7 36q7 24 14 35l1012 1268h-762q-27 0 -21 29l6 37q3 13 9 17.5t20 4.5h852q26 0 20 -29l-6 -32q-7 -25 -12 -33l-1014 -1270h793q26 0 20 -29l-6 -38q-3 -14 -9 -18.5t-19 -4.5h-881z" />
    <glyph glyph-name="Z" unicode="z" horiz-adv-x="1118" 
d="M-4 0q-26 0 -23 27l7 36q7 24 14 35l1012 1268h-762q-27 0 -21 29l6 37q3 13 9 17.5t20 4.5h852q26 0 20 -29l-6 -32q-7 -25 -12 -33l-1014 -1270h793q26 0 20 -29l-6 -38q-3 -14 -9 -18.5t-19 -4.5h-881z" />
    <glyph glyph-name="bracketleft" unicode="[" horiz-adv-x="516" 
d="M16 -326q-26 0 -20 29l352 2001q3 15 8 18.5t21 3.5h233q27 0 21 -26l-6 -35q-3 -13 -7 -15.5t-18 -2.5h-174l-334 -1891h170q27 0 21 -28l-7 -33q-3 -14 -7 -17.5t-17 -3.5h-236z" />
    <glyph glyph-name="backslash" unicode="\" horiz-adv-x="837" 
d="M518 -123q-17 0 -20 23l-271 1536q-3 18 17 18h51q12 0 16 -5t6 -17l271 -1536q3 -19 -17 -19h-53z" />
    <glyph glyph-name="bracketright" unicode="]" horiz-adv-x="518" 
d="M-100 -326q-15 0 -20.5 6t-2.5 21l8 35q3 13 7 16.5t18 3.5h172l334 1891h-168q-15 0 -19.5 5t-1.5 19l6 35q1 13 5 16.5t18 3.5h238q27 0 22 -26l-354 -2005q-3 -14 -7.5 -17.5t-19.5 -3.5h-235z" />
    <glyph glyph-name="asciicircum" unicode="^" horiz-adv-x="1208" 
d="M223 1065q-17 0 -20 9t10 24l500 538q16 19 35 19h28q12 0 18 -5t13 -18l315 -538q5 -11 6.5 -16.5t-3 -9t-15.5 -3.5h-45q-20 0 -27.5 5t-17.5 20l-270 473h-5l-430 -478q-13 -14 -20.5 -17t-28.5 -3h-43z" />
    <glyph glyph-name="underscore" unicode="_" horiz-adv-x="1036" 
d="M-25 -86q-25 0 -22 29l6 34q5 23 29 23h803q25 0 22 -29l-6 -32q-3 -15 -9 -20t-20 -5h-803z" />
    <glyph glyph-name="grave" unicode="`" horiz-adv-x="589" 
d="M184 1427q-23 12 -4 31l27 25q18 18 43 -4l244 -215q23 -15 4 -31l-15 -14q-11 -9 -34 0z" />
    <glyph glyph-name="braceleft" unicode="{" horiz-adv-x="614" 
d="M281 -328q-124 0 -167 63t-18 197l92 517q18 106 -6 155t-112 49h-23q-22 0 -14 23l8 47q1 12 5 16t15 4h19q88 0 133 52.5t63 158.5l93 516q24 135 85 195.5t183 60.5h72q28 0 22 -26l-8 -33q-3 -13 -8 -17.5t-17 -4.5h-69q-77 0 -118 -44.5t-56 -138.5l-95 -522
q-34 -191 -163 -244q112 -46 77 -243l-90 -519q-18 -93 6.5 -136.5t100.5 -43.5h74q22 0 16 -26l-4 -35q-3 -13 -7.5 -17t-17.5 -4h-71z" />
    <glyph glyph-name="bar" unicode="|" horiz-adv-x="434" 
d="M20 -301q-25 0 -22 27l354 2007q3 12 8 16t17 4h37q25 0 22 -27l-354 -2007q-3 -12 -8 -16t-17 -4h-37z" />
    <glyph glyph-name="braceright" unicode="}" horiz-adv-x="614" 
d="M-104 -328q-29 0 -23 29l6 33q3 13 8 16.5t19 3.5h69q144 0 175 183l94 520q18 101 55 159.5t107 83.5q-110 53 -76 244l92 522q15 92 -10 135.5t-101 43.5h-67q-27 0 -21 26l6 35q3 13 7.5 16.5t17.5 3.5h72q122 0 164.5 -63.5t17.5 -196.5l-92 -516
q-20 -104 6.5 -155.5t112.5 -51.5h18q21 0 18 -26l-8 -41q-3 -14 -7 -18.5t-15 -4.5h-19q-85 0 -130.5 -52.5t-65.5 -158.5l-90 -514q-24 -135 -85.5 -195.5t-183.5 -60.5h-71z" />
    <glyph glyph-name="asciitilde" unicode="~" horiz-adv-x="1134" 
d="M719 573q-48 0 -92.5 14t-73.5 31.5t-70.5 31.5t-83.5 14q-54 0 -97.5 -22.5t-94.5 -66.5q-15 -9 -31 10q-1 2 -2 3l-18 26q-16 19 2 35q120 96 233 96q50 0 95 -14.5t73.5 -31.5t69 -31.5t82.5 -14.5q58 0 102.5 22t93.5 66q15 12 27 -6l22 -35q6 -10 5 -16.5t-11 -13.5
q-118 -97 -231 -97z" />
    <glyph glyph-name="uni00A0" unicode="&#xa0;" horiz-adv-x="499" 
 />
    <glyph glyph-name="exclamdown" unicode="&#xa1;" horiz-adv-x="430" 
d="M246 926q-34 0 -45 13.5t-4 49.5l2 10q8 34 20.5 46t44.5 12h12q62 0 50 -62l-2 -12q-8 -34 -21 -45.5t-45 -11.5h-12zM-16 -473q-29 0 -23 27l215 1159q4 13 8.5 16.5t18.5 3.5h22q24 0 21 -24l-191 -1160q-3 -14 -7.5 -18t-16.5 -4h-47z" />
    <glyph glyph-name="cent" unicode="&#xa2;" horiz-adv-x="1075" 
d="M360 -172q-21 0 -18 27l25 118q-166 13 -238 117t-41 279l57 317q30 177 135 279t277 112l27 150q5 14 9.5 18t16.5 4h47q25 0 19 -22l-29 -154q143 -10 212 -80.5t81 -201.5q3 -22 -16 -27l-37 -12q-22 -5 -27 18q-14 121 -73.5 175t-190.5 54q-152 0 -245 -83
t-120 -234l-57 -317q-27 -147 36.5 -230.5t213.5 -83.5q86 0 149 28t106.5 76t90.5 132q7 17 13.5 20t19.5 -2l39 -12q21 -9 8 -41q-71 -139 -161.5 -205.5t-231.5 -73.5l-23 -125q-3 -11 -8 -15.5t-18 -4.5h-48z" />
    <glyph glyph-name="sterling" unicode="&#xa3;" horiz-adv-x="1271" 
d="M6 0q-24 0 -18 29l6 37q1 8 2.5 11.5t4.5 6t9 2.5h41q73 0 122 68.5t63 152.5l61 344h-154q-26 0 -20 29l6 33q1 13 6 17.5t19 4.5h157l68 377q32 173 146 272t313 99q160 0 244.5 -74.5t113.5 -249.5q6 -19 -16 -29l-41 -14q-14 -6 -20 0t-9 25q-27 143 -89.5 198.5
t-184.5 55.5q-161 0 -248 -79.5t-109 -211.5l-67 -369h514q26 0 20 -28l-4 -31q-3 -15 -9 -20t-18 -5h-518l-61 -348q-27 -143 -125 -215l-6 -4q118 4 215 4h565q29 0 23 -29l-7 -36q-3 -14 -8 -18.5t-18 -4.5h-969z" />
    <glyph glyph-name="currency" unicode="&#xa4;" horiz-adv-x="1200" 
d="M514 227q-149 0 -242 103l-127 -117q-14 -14 -30 2l-27 31q-18 18 0 33l129 118q-55 105 -49 228q1 99 41 193.5t108 164.5l-84 115q-13 19 3 35l38 28q18 15 33 -4l78 -108q124 102 285 102q149 0 245 -102l123 114q14 13 29 -2l31 -28q18 -21 -2 -35l-129 -115
q55 -94 49 -229q-1 -97 -41 -193.5t-107 -167.5l84 -112q13 -22 -4 -33l-37 -31q-17 -12 -30 4l-82 109q-132 -106 -285 -103zM522 307q111 0 207.5 68.5t151.5 176.5t55 224q0 130 -76 211.5t-198 81.5q-111 0 -207 -67t-150.5 -174t-54.5 -224q0 -130 75 -213.5t197 -83.5
z" />
    <glyph glyph-name="yen" unicode="&#xa5;" horiz-adv-x="1271" 
d="M487 0q-25 0 -22 29l53 301h-311q-22 0 -19 24l5 27q3 12 7.5 16t16.5 4h315l39 222h-311q-23 0 -20 26l4 25q3 13 6.5 16.5t15.5 3.5h285l-330 736q-3 24 15 24h55q22 0 29 -5t10 -22l305 -702l553 709q10 14 17.5 17t29.5 3h53q12 0 15 -9t-3 -20l-587 -731h270
q27 0 21 -26l-5 -25q-2 -12 -6 -16t-16 -4h-313l-39 -222h307q26 0 20 -26l-4 -25q-3 -12 -7.5 -16t-16.5 -4h-312l-53 -307q-3 -14 -8.5 -18.5t-18.5 -4.5h-45z" />
    <glyph glyph-name="brokenbar" unicode="&#xa6;" horiz-adv-x="454" 
d="M240 883q-26 0 -23 26l145 824q2 20 25 20h37q26 0 20 -27l-145 -823q-3 -12 -7.5 -16t-17.5 -4h-34zM31 -299q-26 0 -23 27l146 823q3 12 7.5 16t16.5 4h37q27 0 21 -26l-146 -824q-2 -12 -6.5 -16t-17.5 -4h-35z" />
    <glyph glyph-name="section" unicode="&#xa7;" horiz-adv-x="1191" 
d="M432 -457q-388 0 -440 353q-3 15 1 22t17 10l47 15q24 3 27 -21q41 -291 365 -291q171 0 267.5 76.5t96.5 212.5q0 114 -73 171.5t-242 76.5q-206 23 -301.5 101.5t-94.5 222.5q2 121 69 205t214 147q-80 34 -121.5 105.5t-38.5 170.5q6 174 130 274.5t335 100.5
q184 0 286 -83.5t136 -262.5q8 -28 -16 -33l-41 -14q-24 -9 -29 20q-23 145 -107 214t-235 69q-168 0 -265 -77.5t-97 -211.5q0 -111 70 -171t224 -77q198 -23 294 -97.5t96 -203.5q-2 -110 -69 -206.5t-187 -159.5q166 -78 163 -271q-1 -180 -130.5 -283.5t-350.5 -103.5z
M664 236q114 47 180.5 132.5t66.5 182.5q0 99 -73.5 154.5t-229.5 74.5q-71 10 -139 21q-265 -93 -268 -301q0 -103 70 -159t225 -79z" />
    <glyph glyph-name="dieresis" unicode="&#xa8;" horiz-adv-x="958" 
d="M387 1278q-26 0 -35.5 11.5t-5.5 37.5l2 14q6 26 16 34.5t37 8.5h13q26 0 36 -11.5t7 -37.5l-2 -14q-4 -26 -15.5 -34.5t-38.5 -8.5h-14zM743 1278q-28 0 -38 11.5t-5 37.5l2 14q6 26 16.5 34.5t37.5 8.5h12q26 0 36 -11.5t7 -37.5l-4 -14q-3 -26 -13.5 -34.5t-37.5 -8.5
h-13z" />
    <glyph glyph-name="copyright" unicode="&#xa9;" horiz-adv-x="1644" 
d="M698 -16q-330 0 -480 195.5t-89 545.5q60 344 276 536.5t543 192.5q326 0 475 -195.5t88 -545.5q-60 -343 -275.5 -536t-537.5 -193zM698 43q299 0 499 180.5t257 501.5q56 315 -78 491.5t-430 176.5q-301 0 -502 -179.5t-258 -500.5q-56 -315 79.5 -492.5t432.5 -177.5z
M745 293q-149 0 -215 80t-41 219l41 244q25 138 112 214t232 76q130 0 193.5 -54t77.5 -161q3 -7 1 -12t-11 -8l-31 -8q-10 -3 -15 -0.5t-6 14.5q-9 87 -57.5 126.5t-151.5 39.5q-236 0 -276 -234l-45 -243q-19 -108 29.5 -168t162.5 -60q102 0 167.5 44.5t107.5 140.5
q5 12 27 4l20 -6q21 -11 10 -31q-51 -108 -131 -162.5t-201 -54.5z" />
    <glyph glyph-name="ordfeminine" unicode="&#xaa;" horiz-adv-x="755" 
d="M375 727q-99 0 -150 42t-51 112q0 209 254 209q83 0 158 -13q12 53 16 113q0 119 -127 119q-53 0 -94 -21.5t-80 -70.5q-10 -8 -22 0l-19 12q-14 14 -2 28q87 115 227 115q99 0 146 -49t41 -141q-3 -49 -51 -320q-9 -45 -24 -65t-52 -39q-71 -31 -170 -31zM377 786
q69 0 123 21q23 9 34 24t17 46l24 143q-54 12 -149 12q-180 0 -180 -145q0 -45 32.5 -73t98.5 -28z" />
    <glyph glyph-name="guillemotleft" unicode="&#xab;" horiz-adv-x="1114" 
d="M455 303q-15 -12 -27 2l-301 414q-14 18 2 31l446 413q18 16 29 0l21 -20q15 -18 0 -31l-412 -379l272 -379q12 -16 0 -28zM866 303q-15 -12 -26 2l-303 414q-13 16 2 31l448 413q16 16 29 0l20 -20q14 -17 -2 -31l-409 -379l270 -379q13 -17 0 -28z" />
    <glyph glyph-name="logicalnot" unicode="&#xac;" horiz-adv-x="1153" 
d="M844 287q-28 0 -25 26l68 377h-694q-26 0 -23 27l6 37q3 12 8.5 16t18.5 4h762q28 0 22 -26l-78 -441q-1 -13 -5.5 -16.5t-18.5 -3.5h-41z" />
    <glyph glyph-name="registered" unicode="&#xae;" horiz-adv-x="987" 
d="M492 659q-163 0 -240.5 99.5t-54.5 279.5q25 191 138 303.5t288 112.5q164 0 241 -99.5t54 -279.5q-23 -190 -137.5 -303t-288.5 -113zM494 702q154 0 255 101t123 276q23 155 -43 243.5t-206 88.5q-155 0 -256.5 -101t-124.5 -276q-22 -156 44.5 -244t207.5 -88z
M391 846q-7 0 -7.5 2.5t-0.5 11.5l70 387q3 21 22 21h135q65 0 97.5 -35t23.5 -98q-7 -52 -38 -85t-79 -42l56 -146q5 -16 -11 -16h-18q-13 0 -18 10l-54 148h-116l-25 -148q-2 -10 -12 -10h-25zM569 1042q102 0 117 93q7 41 -14.5 64.5t-67.5 23.5h-112l-31 -181h108z" />
    <glyph glyph-name="macron" unicode="&#xaf;" horiz-adv-x="784" 
d="M264 1296q-24 0 -20 25l4 22q2 21 28 21h449q29 0 23 -25l-5 -20q-6 -23 -24 -23h-455z" />
    <glyph glyph-name="degree" unicode="&#xb0;" horiz-adv-x="776" 
d="M412 838q-103 0 -161 66t-58 183q0 148 90 247.5t223 99.5q104 0 162.5 -64.5t58.5 -177.5q0 -148 -91.5 -251t-223.5 -103zM418 907q97 0 167 81.5t70 193.5q0 85 -42 133.5t-117 48.5q-97 0 -163.5 -78.5t-66.5 -193.5q0 -86 40.5 -135.5t111.5 -49.5z" />
    <glyph glyph-name="plusminus" unicode="&#xb1;" horiz-adv-x="1300" 
d="M596 479q-28 0 -25 29l47 264h-370q-30 0 -21 27l4 28q1 13 7 18t20 5h375l49 276q1 13 7 18t20 5h30q29 0 23 -29l-49 -270h368q28 0 25 -29l-6 -26q-3 -14 -8.5 -18.5t-20.5 -4.5h-371l-47 -270q-2 -14 -7.5 -18.5t-20.5 -4.5h-29zM160 262q-29 0 -23 29l4 26
q1 15 7 20t20 5h823q28 0 25 -29l-4 -26q-3 -15 -9 -20t-20 -5h-823z" />
    <glyph glyph-name="acute" unicode="&#xb4;" horiz-adv-x="528" 
d="M217 1237q-14 22 4 29l326 217q24 15 37 -6l18 -23q6 -7 4.5 -16t-10.5 -13l-338 -208q-20 -10 -31 4z" />
    <glyph glyph-name="uni00B5" unicode="&#xb5;" horiz-adv-x="1091" 
d="M-18 -451q-22 0 -19 27l256 1452q2 21 29 21h41q24 0 18 -25l-114 -657q-28 -157 24.5 -235.5t192.5 -78.5q170 0 278 51q29 14 40.5 30t16.5 42l150 850q5 23 29 23h39q23 0 20 -25l-156 -879q-7 -45 -23.5 -66t-58.5 -42q-143 -66 -325 -66q-110 0 -180 43t-88 129
l-101 -573q-2 -12 -6 -16.5t-16 -4.5h-47z" />
    <glyph glyph-name="paragraph" unicode="&#xb6;" horiz-adv-x="743" 
d="M168 -182q-24 0 -18 26l212 1198q-74 2 -112 59.5t-23 149.5q17 92 73.5 147.5t133.5 55.5h223q26 0 23 -27l-281 -1589q-3 -12 -7.5 -16t-16.5 -4h-47q-25 0 -19 26l266 1518h-63l-270 -1524q-3 -12 -7.5 -16t-17.5 -4h-49z" />
    <glyph glyph-name="periodcentered" unicode="&#xb7;" horiz-adv-x="456" 
d="M170 481q-33 0 -44.5 14t-4.5 48l2 12q8 33 21 45t44 12h13q61 0 49 -63l-2 -10q-8 -34 -21 -46t-45 -12h-12z" />
    <glyph glyph-name="cedilla" unicode="&#xb8;" horiz-adv-x="524" 
d="M45 -500q-82 0 -141 51q-16 8 -13 25l5 25q4 15 14 8q22 -16 35 -24.5t39.5 -17.5t54.5 -9q71 0 115.5 32.5t48.5 100.5q3 47 -22 72.5t-75 27.5q-29 0 -69 -8q-13 -3 -19.5 6.5t-1.5 20.5l97 190h61l-80 -164q24 6 66 6q62 -4 94 -44t27 -105q-4 -95 -68.5 -144
t-167.5 -49z" />
    <glyph glyph-name="ordmasculine" unicode="&#xba;" horiz-adv-x="763" 
d="M385 729q-116 0 -166 64.5t-29 179.5l29 160q21 114 90 176.5t180 62.5q117 0 167.5 -65t29.5 -179l-27 -159q-21 -115 -90.5 -177.5t-183.5 -62.5zM391 797q81 0 131.5 45.5t65.5 128.5l26 159q14 84 -18.5 129.5t-112.5 45.5q-78 0 -128 -47t-64 -128l-29 -159
q-15 -84 18 -129t111 -45z" />
    <glyph glyph-name="guillemotright" unicode="&#xbb;" horiz-adv-x="1114" 
d="M72 326q-16 16 0 30l411 377l-274 381q-7 10 -7.5 15t7.5 14l31 22q17 14 26 -2l303 -415q14 -17 -2 -33l-446 -410q-11 -9 -16 -8.5t-13 8.5zM492 326q-16 16 0 30l411 377l-274 381q-13 19 2 29l28 22q17 14 27 -2l301 -413q15 -18 -2 -35l-444 -410q-17 -14 -31 0z
" />
    <glyph glyph-name="onequarter" unicode="&#xbc;" horiz-adv-x="1531" 
d="M356 653q-24 0 -18 29l121 682l-217 -113q-19 -13 -29 11l-12 22q-8 22 12 33l260 137q16 8 33 8h22q26 0 19 -26l-133 -760q-3 -13 -9.5 -18t-21.5 -5h-27zM193 0q-15 0 -18.5 8.5t5.5 20.5l1114 1403q12 15 18.5 18.5t26.5 3.5h29q14 0 18 -8.5t-6 -20.5l-1110 -1402
q-12 -15 -20.5 -19t-28.5 -4h-28zM1143 0q-22 0 -19 25l37 204h-364q-24 0 -21 23l4 22q3 16 13 29l446 492q14 14 39 14h35q24 0 18 -29l-86 -485h88q13 0 17 -5.5t2 -19.5l-4 -20q-3 -13 -7.5 -17t-15.5 -4h-92l-37 -209q-5 -20 -25 -20h-28zM1171 295l76 416l-377 -416
h301z" />
    <glyph glyph-name="onehalf" unicode="&#xbd;" horiz-adv-x="1644" 
d="M356 655q-14 0 -18 6.5t-2 22.5l121 682l-217 -113q-9 -5 -16.5 -2t-10.5 13l-12 22q-7 20 12 31l260 139q16 8 35 8h20q22 0 19 -26l-135 -760q-5 -23 -29 -23h-27zM172 0q-14 0 -17.5 8.5t5.5 20.5l1114 1403q12 15 18.5 18.5t26.5 3.5h29q14 0 18 -8.5t-6 -20.5
l-1110 -1402q-12 -15 -20 -19t-27 -4h-31zM918 0q-30 0 -23 31l14 88q18 91 61.5 149.5t123.5 91.5l118 50q42 16 63.5 25.5t55 30t50.5 41t30.5 53.5t13.5 73q0 119 -147 119q-31 0 -58.5 -8.5t-46.5 -18t-38 -29.5t-27.5 -30t-21 -33.5t-13 -26t-8.5 -20.5q-5 -14 -25 -11
l-28 9q-20 7 -11 34q11 25 20 43t34 52t53 55.5t74.5 39t101.5 17.5q108 0 162.5 -48.5t54.5 -135.5q0 -63 -17 -109t-56 -80t-78.5 -55t-106.5 -49l-115 -47q-56 -23 -87.5 -61t-43.5 -103l-12 -65h393q14 0 17.5 -6.5t1.5 -20.5l-4 -25q-5 -20 -25 -20h-450z" />
    <glyph glyph-name="threequarters" unicode="&#xbe;" horiz-adv-x="1624" 
d="M389 641q-121 0 -179.5 57t-64.5 174q0 18 13 21l30 8q21 6 23 -14q7 -93 50 -134.5t130 -41.5q100 0 157.5 54t57.5 146q0 55 -29.5 91t-82.5 36h-121q-24 0 -17 23l6 24q3 13 6.5 17t12.5 4h119q73 0 113 52t40 128q0 59 -37.5 93t-103.5 34q-83 0 -137 -38.5
t-94 -131.5q-10 -18 -31 -10l-21 8q-19 8 -8 35q50 114 119 160.5t180 46.5q95 0 151 -49.5t56 -130.5q0 -89 -33 -145t-104 -85q42 -17 65 -59t23 -96q0 -133 -78 -205t-211 -72zM285 0q-14 0 -18 8.5t5 20.5l1114 1403q12 15 19 18.5t27 3.5h28q14 0 18.5 -8.5t-5.5 -20.5
l-1111 -1402q-12 -15 -20 -19t-27 -4h-30zM1237 0q-21 0 -18 25l34 204h-364q-25 0 -19 23l4 22q0 15 11 29l448 492q14 14 39 14h33q14 0 17.5 -6.5t0.5 -22.5l-86 -485h90q12 0 15.5 -5.5t1.5 -19.5l-4 -20q-3 -13 -7 -17t-14 -4h-92l-37 -209q-5 -20 -24 -20h-29z
M1266 295l73 416l-374 -416h301z" />
    <glyph glyph-name="questiondown" unicode="&#xbf;" horiz-adv-x="1185" 
d="M709 928q-34 0 -45.5 13t-4.5 48q0 2 1.5 5.5t1.5 4.5q8 34 20.5 46t44.5 12h10q33 0 45 -14.5t6 -47.5q-1 -1 -2 -5t-2 -5q-6 -34 -18.5 -45.5t-44.5 -11.5h-12zM414 -471q-138 0 -231 58.5t-128 154t-14 213.5q9 53 25.5 100t34 82.5t46.5 71.5t50.5 58.5t58 52
t58 44.5t61.5 43q5 4 8.5 6.5t7.5 4.5q49 33 80.5 57t69 63t61.5 88.5t35 110.5q1 12 7 15.5t20 3.5h38q12 0 16 -6.5t1 -24.5q-11 -60 -32.5 -112t-44.5 -86.5t-61 -70.5t-65 -56t-74 -52q-112 -74 -157 -117q-117 -110 -146 -284q-26 -145 49 -239.5t234 -94.5
q281 0 432 289q9 11 15 12.5t18 -2.5l41 -14q12 -4 14 -12t-4 -25q-179 -332 -524 -332z" />
    <glyph glyph-name="Agrave" unicode="&#xc0;" horiz-adv-x="1277" 
d="M649 1774q-22 12 -2 32l25 23q8 8 16.5 8.5t13 -1.5t15.5 -9l241 -215q19 -16 5 -33l-15 -12q-12 -15 -33 0zM-53 0q-13 0 -17 8.5t2 20.5l775 1413q8 14 14.5 18t19.5 4h50q12 0 17.5 -6t8.5 -20l277 -1413q6 -25 -17 -25h-47q-19 0 -26.5 6t-10.5 21l-84 448h-628
l-248 -455q-6 -13 -13.5 -16.5t-27.5 -3.5h-45zM893 557l-127 678q-10 75 -10 135h-6q-26 -73 -62 -141l-364 -672h569z" />
    <glyph glyph-name="Agrave" unicode="&#xe0;" horiz-adv-x="1277" 
d="M649 1774q-22 12 -2 32l25 23q8 8 16.5 8.5t13 -1.5t15.5 -9l241 -215q19 -16 5 -33l-15 -12q-12 -15 -33 0zM-53 0q-13 0 -17 8.5t2 20.5l775 1413q8 14 14.5 18t19.5 4h50q12 0 17.5 -6t8.5 -20l277 -1413q6 -25 -17 -25h-47q-19 0 -26.5 6t-10.5 21l-84 448h-628
l-248 -455q-6 -13 -13.5 -16.5t-27.5 -3.5h-45zM893 557l-127 678q-10 75 -10 135h-6q-26 -73 -62 -141l-364 -672h569z" />
    <glyph glyph-name="Aacute" unicode="&#xc1;" horiz-adv-x="1277" 
d="M618 1587q-13 17 7 29l321 217q26 14 41 -6l17 -23q7 -8 5.5 -15.5t-10.5 -12.5l-337 -209q-20 -9 -33 4zM-53 0q-13 0 -17 8.5t2 20.5l775 1413q8 14 14.5 18t19.5 4h50q12 0 17.5 -6t8.5 -20l277 -1413q6 -25 -17 -25h-47q-19 0 -26.5 6t-10.5 21l-84 448h-628
l-248 -455q-6 -13 -13.5 -16.5t-27.5 -3.5h-45zM893 557l-127 678q-10 75 -10 135h-6q-26 -73 -62 -141l-364 -672h569z" />
    <glyph glyph-name="Aacute" unicode="&#xe1;" horiz-adv-x="1277" 
d="M618 1587q-13 17 7 29l321 217q26 14 41 -6l17 -23q7 -8 5.5 -15.5t-10.5 -12.5l-337 -209q-20 -9 -33 4zM-53 0q-13 0 -17 8.5t2 20.5l775 1413q8 14 14.5 18t19.5 4h50q12 0 17.5 -6t8.5 -20l277 -1413q6 -25 -17 -25h-47q-19 0 -26.5 6t-10.5 21l-84 448h-628
l-248 -455q-6 -13 -13.5 -16.5t-27.5 -3.5h-45zM893 557l-127 678q-10 75 -10 135h-6q-26 -73 -62 -141l-364 -672h569z" />
    <glyph glyph-name="Acircumflex" unicode="&#xc2;" horiz-adv-x="1277" 
d="M508 1567q-16 0 -19 7.5t7 14.5l284 234q21 16 39 16h21q24 0 37 -18l200 -236q14 -18 -12 -18h-39q-24 0 -35 16l-166 193l-237 -197q-14 -12 -41 -12h-39zM-53 0q-13 0 -17 8.5t2 20.5l775 1413q8 14 14.5 18t19.5 4h50q12 0 17.5 -6t8.5 -20l277 -1413q6 -25 -17 -25
h-47q-19 0 -26.5 6t-10.5 21l-84 448h-628l-248 -455q-6 -13 -13.5 -16.5t-27.5 -3.5h-45zM893 557l-127 678q-10 75 -10 135h-6q-26 -73 -62 -141l-364 -672h569z" />
    <glyph glyph-name="Acircumflex" unicode="&#xe2;" horiz-adv-x="1277" 
d="M508 1567q-16 0 -19 7.5t7 14.5l284 234q21 16 39 16h21q24 0 37 -18l200 -236q14 -18 -12 -18h-39q-24 0 -35 16l-166 193l-237 -197q-14 -12 -41 -12h-39zM-53 0q-13 0 -17 8.5t2 20.5l775 1413q8 14 14.5 18t19.5 4h50q12 0 17.5 -6t8.5 -20l277 -1413q6 -25 -17 -25
h-47q-19 0 -26.5 6t-10.5 21l-84 448h-628l-248 -455q-6 -13 -13.5 -16.5t-27.5 -3.5h-45zM893 557l-127 678q-10 75 -10 135h-6q-26 -73 -62 -141l-364 -672h569z" />
    <glyph glyph-name="Atilde" unicode="&#xc3;" horiz-adv-x="1277" 
d="M524 1585q-17 0 -14 29q12 84 57 133t111 49q37 0 67.5 -15t50.5 -37t38.5 -43.5t42 -36.5t51.5 -15q44 0 74.5 36.5t39.5 96.5q3 14 15 14h30q18 0 15 -27q-15 -86 -57.5 -135t-108.5 -49q-37 0 -66.5 15t-49.5 37t-39 44t-43.5 37t-53.5 15q-41 0 -74 -36.5t-43 -94.5
q0 -17 -14 -17h-29zM-53 0q-13 0 -17 8.5t2 20.5l775 1413q8 14 14.5 18t19.5 4h50q12 0 17.5 -6t8.5 -20l277 -1413q6 -25 -17 -25h-47q-19 0 -26.5 6t-10.5 21l-84 448h-628l-248 -455q-6 -13 -13.5 -16.5t-27.5 -3.5h-45zM893 557l-127 678q-10 75 -10 135h-6
q-26 -73 -62 -141l-364 -672h569z" />
    <glyph glyph-name="Atilde" unicode="&#xe3;" horiz-adv-x="1277" 
d="M524 1585q-17 0 -14 29q12 84 57 133t111 49q37 0 67.5 -15t50.5 -37t38.5 -43.5t42 -36.5t51.5 -15q44 0 74.5 36.5t39.5 96.5q3 14 15 14h30q18 0 15 -27q-15 -86 -57.5 -135t-108.5 -49q-37 0 -66.5 15t-49.5 37t-39 44t-43.5 37t-53.5 15q-41 0 -74 -36.5t-43 -94.5
q0 -17 -14 -17h-29zM-53 0q-13 0 -17 8.5t2 20.5l775 1413q8 14 14.5 18t19.5 4h50q12 0 17.5 -6t8.5 -20l277 -1413q6 -25 -17 -25h-47q-19 0 -26.5 6t-10.5 21l-84 448h-628l-248 -455q-6 -13 -13.5 -16.5t-27.5 -3.5h-45zM893 557l-127 678q-10 75 -10 135h-6
q-26 -73 -62 -141l-364 -672h569z" />
    <glyph glyph-name="Adieresis" unicode="&#xc4;" horiz-adv-x="1277" 
d="M616 1640q-27 0 -36.5 10.5t-6.5 37.5l5 14q3 26 14 35.5t39 9.5h12q26 0 35 -11t6 -38l-2 -15q-4 -27 -15 -35t-38 -8h-13zM977 1640q-29 0 -38.5 10.5t-4.5 37.5l2 14q5 27 15.5 36t39.5 9h10q26 0 35.5 -11.5t5.5 -37.5l-2 -15q-4 -27 -15 -35t-38 -8h-10zM-53 0
q-13 0 -17 8.5t2 20.5l775 1413q8 14 14.5 18t19.5 4h50q12 0 17.5 -6t8.5 -20l277 -1413q6 -25 -17 -25h-47q-19 0 -26.5 6t-10.5 21l-84 448h-628l-248 -455q-6 -13 -13.5 -16.5t-27.5 -3.5h-45zM893 557l-127 678q-10 75 -10 135h-6q-26 -73 -62 -141l-364 -672h569z" />
    <glyph glyph-name="Adieresis" unicode="&#xe4;" horiz-adv-x="1277" 
d="M616 1640q-27 0 -36.5 10.5t-6.5 37.5l5 14q3 26 14 35.5t39 9.5h12q26 0 35 -11t6 -38l-2 -15q-4 -27 -15 -35t-38 -8h-13zM977 1640q-29 0 -38.5 10.5t-4.5 37.5l2 14q5 27 15.5 36t39.5 9h10q26 0 35.5 -11.5t5.5 -37.5l-2 -15q-4 -27 -15 -35t-38 -8h-10zM-53 0
q-13 0 -17 8.5t2 20.5l775 1413q8 14 14.5 18t19.5 4h50q12 0 17.5 -6t8.5 -20l277 -1413q6 -25 -17 -25h-47q-19 0 -26.5 6t-10.5 21l-84 448h-628l-248 -455q-6 -13 -13.5 -16.5t-27.5 -3.5h-45zM893 557l-127 678q-10 75 -10 135h-6q-26 -73 -62 -141l-364 -672h569z" />
    <glyph glyph-name="Aring" unicode="&#xc5;" horiz-adv-x="1277" 
d="M-49 0q-33 0 -19 29l764 1390q-56 15 -84 63t-18 117q13 89 75 144t150 57q83 0 128.5 -55t33.5 -143q-11 -70 -53 -120t-107 -65l273 -1394q3 -13 -1 -18t-18 -5h-41q-38 0 -41 27l-86 448h-626l-248 -455q-5 -12 -13 -16t-30 -4h-39zM766 1456q64 0 106.5 41t53.5 109
q7 62 -22.5 99.5t-84.5 37.5q-67 0 -112 -40t-54 -108q-11 -62 20.5 -100.5t92.5 -38.5zM893 557l-129 696q-8 74 -8 117h-4q-23 -61 -50 -115l-378 -698h569z" />
    <glyph glyph-name="Aring" unicode="&#xe5;" horiz-adv-x="1277" 
d="M-49 0q-33 0 -19 29l764 1390q-56 15 -84 63t-18 117q13 89 75 144t150 57q83 0 128.5 -55t33.5 -143q-11 -70 -53 -120t-107 -65l273 -1394q3 -13 -1 -18t-18 -5h-41q-38 0 -41 27l-86 448h-626l-248 -455q-5 -12 -13 -16t-30 -4h-39zM766 1456q64 0 106.5 41t53.5 109
q7 62 -22.5 99.5t-84.5 37.5q-67 0 -112 -40t-54 -108q-11 -62 20.5 -100.5t92.5 -38.5zM893 557l-129 696q-8 74 -8 117h-4q-23 -61 -50 -115l-378 -698h569z" />
    <glyph glyph-name="AE" unicode="&#xc6;" horiz-adv-x="1656" 
d="M-82 0q-15 0 -19.5 8t3.5 19l1061 1405q15 22 38 22h619q24 0 18 -29l-6 -36q-3 -23 -24 -23h-547l-103 -586h457q27 0 21 -28l-6 -37q-3 -23 -29 -23h-459l-104 -604h565q26 0 20 -29l-6 -36q-3 -9 -4.5 -12.5t-7 -7t-14.5 -3.5h-633q-31 0 -25 29l64 354h-523
l-264 -363q-10 -13 -17.5 -16.5t-29.5 -3.5h-45zM809 463l154 844l-623 -844h469z" />
    <glyph glyph-name="AE" unicode="&#xe6;" horiz-adv-x="1656" 
d="M-82 0q-15 0 -19.5 8t3.5 19l1061 1405q15 22 38 22h619q24 0 18 -29l-6 -36q-3 -23 -24 -23h-547l-103 -586h457q27 0 21 -28l-6 -37q-3 -23 -29 -23h-459l-104 -604h565q26 0 20 -29l-6 -36q-3 -9 -4.5 -12.5t-7 -7t-14.5 -3.5h-633q-31 0 -25 29l64 354h-523
l-264 -363q-10 -13 -17.5 -16.5t-29.5 -3.5h-45zM809 463l154 844l-623 -844h469z" />
    <glyph glyph-name="Ccedilla" unicode="&#xc7;" horiz-adv-x="1280" 
d="M463 -500q-82 0 -141 51q-17 8 -11 25l2 25q4 15 17 8q64 -51 127 -51q71 0 115.5 32.5t48.5 100.5q3 46 -21.5 72.5t-71.5 27.5q-27 0 -73 -8q-13 -3 -19.5 6.5t-1.5 20.5l82 161q-234 6 -339.5 141.5t-63.5 366.5l88 502q42 237 193.5 369.5t396.5 132.5
q216 0 317.5 -89.5t122.5 -273.5q5 -20 -17 -28l-40 -11q-13 -4 -19.5 0.5t-11.5 18.5q-21 154 -102.5 224.5t-256.5 70.5q-205 0 -329.5 -110t-159.5 -306l-90 -506q-33 -195 54.5 -303.5t287.5 -108.5q179 0 286.5 77t180.5 235q10 18 35 10l38 -14q25 -11 11 -37
q-81 -175 -202 -264.5t-318 -96.5l-66 -135q41 7 76 2q57 -6 86.5 -44t23.5 -101q-4 -95 -68 -144t-167 -49z" />
    <glyph glyph-name="Ccedilla" unicode="&#xe7;" horiz-adv-x="1280" 
d="M463 -500q-82 0 -141 51q-17 8 -11 25l2 25q4 15 17 8q64 -51 127 -51q71 0 115.5 32.5t48.5 100.5q3 46 -21.5 72.5t-71.5 27.5q-27 0 -73 -8q-13 -3 -19.5 6.5t-1.5 20.5l82 161q-234 6 -339.5 141.5t-63.5 366.5l88 502q42 237 193.5 369.5t396.5 132.5
q216 0 317.5 -89.5t122.5 -273.5q5 -20 -17 -28l-40 -11q-13 -4 -19.5 0.5t-11.5 18.5q-21 154 -102.5 224.5t-256.5 70.5q-205 0 -329.5 -110t-159.5 -306l-90 -506q-33 -195 54.5 -303.5t287.5 -108.5q179 0 286.5 77t180.5 235q10 18 35 10l38 -14q25 -11 11 -37
q-81 -175 -202 -264.5t-318 -96.5l-66 -135q41 7 76 2q57 -6 86.5 -44t23.5 -101q-4 -95 -68 -144t-167 -49z" />
    <glyph glyph-name="Egrave" unicode="&#xc8;" horiz-adv-x="1148" 
d="M616 1774q-22 12 -2 32l25 23q8 8 16.5 8.5t13 -1.5t15.5 -9l242 -215q19 -16 4 -33l-15 -12q-12 -15 -32 0zM96 0q-23 0 -20 27l248 1403q3 14 9.5 19t20.5 5h758q14 0 18.5 -6.5t2.5 -22.5l-7 -36q-3 -13 -8.5 -18t-17.5 -5h-692l-103 -584h606q27 0 21 -26l-6 -39
q-6 -25 -27 -25h-610l-107 -604h713q15 0 20.5 -6t2.5 -21l-7 -38q-6 -23 -26 -23h-789z" />
    <glyph glyph-name="Egrave" unicode="&#xe8;" horiz-adv-x="1148" 
d="M616 1774q-22 12 -2 32l25 23q8 8 16.5 8.5t13 -1.5t15.5 -9l242 -215q19 -16 4 -33l-15 -12q-12 -15 -32 0zM96 0q-23 0 -20 27l248 1403q3 14 9.5 19t20.5 5h758q14 0 18.5 -6.5t2.5 -22.5l-7 -36q-3 -13 -8.5 -18t-17.5 -5h-692l-103 -584h606q27 0 21 -26l-6 -39
q-6 -25 -27 -25h-610l-107 -604h713q15 0 20.5 -6t2.5 -21l-7 -38q-6 -23 -26 -23h-789z" />
    <glyph glyph-name="Eacute" unicode="&#xc9;" horiz-adv-x="1148" 
d="M586 1587q-6 8 -4 16t10 13l321 217q26 14 41 -6l17 -23q17 -17 -4 -28l-338 -209q-20 -9 -33 4zM96 0q-23 0 -20 27l248 1403q3 14 9.5 19t20.5 5h758q14 0 18.5 -6.5t2.5 -22.5l-7 -36q-3 -13 -8.5 -18t-17.5 -5h-692l-103 -584h606q27 0 21 -26l-6 -39q-6 -25 -27 -25
h-610l-107 -604h713q15 0 20.5 -6t2.5 -21l-7 -38q-6 -23 -26 -23h-789z" />
    <glyph glyph-name="Eacute" unicode="&#xe9;" horiz-adv-x="1148" 
d="M586 1587q-6 8 -4 16t10 13l321 217q26 14 41 -6l17 -23q17 -17 -4 -28l-338 -209q-20 -9 -33 4zM96 0q-23 0 -20 27l248 1403q3 14 9.5 19t20.5 5h758q14 0 18.5 -6.5t2.5 -22.5l-7 -36q-3 -13 -8.5 -18t-17.5 -5h-692l-103 -584h606q27 0 21 -26l-6 -39q-6 -25 -27 -25
h-610l-107 -604h713q15 0 20.5 -6t2.5 -21l-7 -38q-6 -23 -26 -23h-789z" />
    <glyph glyph-name="Ecircumflex" unicode="&#xca;" horiz-adv-x="1148" 
d="M477 1567q-16 0 -19 7.5t7 14.5l285 234q21 16 38 16h21q14 0 21 -3t16 -15l201 -236q14 -18 -13 -18h-39q-23 0 -34 16l-166 193l-238 -197q-14 -12 -41 -12h-39zM96 0q-23 0 -20 27l248 1403q3 14 9.5 19t20.5 5h758q14 0 18.5 -6.5t2.5 -22.5l-7 -36q-3 -13 -8.5 -18
t-17.5 -5h-692l-103 -584h606q27 0 21 -26l-6 -39q-6 -25 -27 -25h-610l-107 -604h713q15 0 20.5 -6t2.5 -21l-7 -38q-6 -23 -26 -23h-789z" />
    <glyph glyph-name="Ecircumflex" unicode="&#xea;" horiz-adv-x="1148" 
d="M477 1567q-16 0 -19 7.5t7 14.5l285 234q21 16 38 16h21q14 0 21 -3t16 -15l201 -236q14 -18 -13 -18h-39q-23 0 -34 16l-166 193l-238 -197q-14 -12 -41 -12h-39zM96 0q-23 0 -20 27l248 1403q3 14 9.5 19t20.5 5h758q14 0 18.5 -6.5t2.5 -22.5l-7 -36q-3 -13 -8.5 -18
t-17.5 -5h-692l-103 -584h606q27 0 21 -26l-6 -39q-6 -25 -27 -25h-610l-107 -604h713q15 0 20.5 -6t2.5 -21l-7 -38q-6 -23 -26 -23h-789z" />
    <glyph glyph-name="Edieresis" unicode="&#xcb;" horiz-adv-x="1148" 
d="M584 1640q-27 0 -36.5 10.5t-6.5 37.5l4 14q3 26 14 35.5t39 9.5h12q26 0 35 -11t6 -38l-2 -15q-4 -27 -15 -35t-38 -8h-12zM944 1640q-29 0 -38.5 10.5t-4.5 37.5l2 14q5 27 15.5 36t39.5 9h11q26 0 35.5 -11.5t5.5 -37.5l-2 -15q-4 -27 -15.5 -35t-38.5 -8h-10zM96 0
q-23 0 -20 27l248 1403q3 14 9.5 19t20.5 5h758q14 0 18.5 -6.5t2.5 -22.5l-7 -36q-3 -13 -8.5 -18t-17.5 -5h-692l-103 -584h606q27 0 21 -26l-6 -39q-6 -25 -27 -25h-610l-107 -604h713q15 0 20.5 -6t2.5 -21l-7 -38q-6 -23 -26 -23h-789z" />
    <glyph glyph-name="Edieresis" unicode="&#xeb;" horiz-adv-x="1148" 
d="M584 1640q-27 0 -36.5 10.5t-6.5 37.5l4 14q3 26 14 35.5t39 9.5h12q26 0 35 -11t6 -38l-2 -15q-4 -27 -15 -35t-38 -8h-12zM944 1640q-29 0 -38.5 10.5t-4.5 37.5l2 14q5 27 15.5 36t39.5 9h11q26 0 35.5 -11.5t5.5 -37.5l-2 -15q-4 -27 -15.5 -35t-38.5 -8h-10zM96 0
q-23 0 -20 27l248 1403q3 14 9.5 19t20.5 5h758q14 0 18.5 -6.5t2.5 -22.5l-7 -36q-3 -13 -8.5 -18t-17.5 -5h-692l-103 -584h606q27 0 21 -26l-6 -39q-6 -25 -27 -25h-610l-107 -604h713q15 0 20.5 -6t2.5 -21l-7 -38q-6 -23 -26 -23h-789z" />
    <glyph glyph-name="Igrave" unicode="&#xcc;" horiz-adv-x="495" 
d="M258 1774q-22 12 -2 32l25 23q8 8 16.5 8.5t13 -1.5t15.5 -9l241 -215q19 -16 4 -33l-14 -12q-12 -15 -33 0zM96 0q-13 0 -17 7t-1 24l246 1401q4 22 32 22h41q14 0 19.5 -6t1.5 -23l-248 -1400q-3 -25 -27 -25h-47z" />
    <glyph glyph-name="Igrave" unicode="&#xec;" horiz-adv-x="495" 
d="M258 1774q-22 12 -2 32l25 23q8 8 16.5 8.5t13 -1.5t15.5 -9l241 -215q19 -16 4 -33l-14 -12q-12 -15 -33 0zM96 0q-13 0 -17 7t-1 24l246 1401q4 22 32 22h41q14 0 19.5 -6t1.5 -23l-248 -1400q-3 -25 -27 -25h-47z" />
    <glyph glyph-name="Iacute" unicode="&#xcd;" horiz-adv-x="495" 
d="M227 1587q-6 8 -4 16t10 13l322 217q26 14 41 -6l16 -23q17 -17 -4 -28l-338 -209q-19 -9 -32 4zM96 0q-13 0 -17 7t-1 24l246 1401q4 22 32 22h41q14 0 19.5 -6t1.5 -23l-248 -1400q-3 -25 -27 -25h-47z" />
    <glyph glyph-name="Iacute" unicode="&#xed;" horiz-adv-x="495" 
d="M227 1587q-6 8 -4 16t10 13l322 217q26 14 41 -6l16 -23q17 -17 -4 -28l-338 -209q-19 -9 -32 4zM96 0q-13 0 -17 7t-1 24l246 1401q4 22 32 22h41q14 0 19.5 -6t1.5 -23l-248 -1400q-3 -25 -27 -25h-47z" />
    <glyph glyph-name="Icircumflex" unicode="&#xce;" horiz-adv-x="495" 
d="M117 1567q-16 0 -19.5 7.5t6.5 14.5l285 234q21 16 39 16h21q23 0 36 -18l201 -236q14 -18 -12 -18h-39q-24 0 -35 16l-166 193l-237 -197q-14 -12 -41 -12h-39zM96 0q-13 0 -17 7t-1 24l246 1401q4 22 32 22h41q14 0 19.5 -6t1.5 -23l-248 -1400q-3 -25 -27 -25h-47z
" />
    <glyph glyph-name="Icircumflex" unicode="&#xee;" horiz-adv-x="495" 
d="M117 1567q-16 0 -19.5 7.5t6.5 14.5l285 234q21 16 39 16h21q23 0 36 -18l201 -236q14 -18 -12 -18h-39q-24 0 -35 16l-166 193l-237 -197q-14 -12 -41 -12h-39zM96 0q-13 0 -17 7t-1 24l246 1401q4 22 32 22h41q14 0 19.5 -6t1.5 -23l-248 -1400q-3 -25 -27 -25h-47z
" />
    <glyph glyph-name="Idieresis" unicode="&#xcf;" horiz-adv-x="495" 
d="M225 1640q-27 0 -36.5 10.5t-6.5 37.5l4 14q3 26 14.5 35.5t39.5 9.5h12q26 0 35 -11t6 -38l-2 -15q-4 -27 -15 -35t-38 -8h-13zM586 1640q-29 0 -38.5 10.5t-4.5 37.5l2 14q5 27 15.5 36t39.5 9h10q26 0 35.5 -11.5t5.5 -37.5l-2 -15q-4 -27 -15 -35t-38 -8h-10zM96 0
q-13 0 -17 7t-1 24l246 1401q4 22 32 22h41q14 0 19.5 -6t1.5 -23l-248 -1400q-3 -25 -27 -25h-47z" />
    <glyph glyph-name="Idieresis" unicode="&#xef;" horiz-adv-x="495" 
d="M225 1640q-27 0 -36.5 10.5t-6.5 37.5l4 14q3 26 14.5 35.5t39.5 9.5h12q26 0 35 -11t6 -38l-2 -15q-4 -27 -15 -35t-38 -8h-13zM586 1640q-29 0 -38.5 10.5t-4.5 37.5l2 14q5 27 15.5 36t39.5 9h10q26 0 35.5 -11.5t5.5 -37.5l-2 -15q-4 -27 -15 -35t-38 -8h-10zM96 0
q-13 0 -17 7t-1 24l246 1401q4 22 32 22h41q14 0 19.5 -6t1.5 -23l-248 -1400q-3 -25 -27 -25h-47z" />
    <glyph glyph-name="Eth" unicode="&#xd0;" horiz-adv-x="1300" 
d="M92 0q-23 0 -20 29l118 665h-137q-14 0 -17.5 6t-0.5 19l4 31q2 16 22 16h142l116 666q5 22 29 22h383q269 0 384.5 -144t70.5 -399l-66 -372q-45 -253 -212 -396t-427 -143h-389zM492 88q216 0 356.5 120.5t177.5 334.5l66 372q39 218 -52 334.5t-315 116.5h-322
l-106 -600h334q19 0 16 -23l-6 -32q-2 -17 -23 -17h-333l-107 -606h314z" />
    <glyph glyph-name="Eth" unicode="&#xf0;" horiz-adv-x="1300" 
d="M92 0q-23 0 -20 29l118 665h-137q-14 0 -17.5 6t-0.5 19l4 31q2 16 22 16h142l116 666q5 22 29 22h383q269 0 384.5 -144t70.5 -399l-66 -372q-45 -253 -212 -396t-427 -143h-389zM492 88q216 0 356.5 120.5t177.5 334.5l66 372q39 218 -52 334.5t-315 116.5h-322
l-106 -600h334q19 0 16 -23l-6 -32q-2 -17 -23 -17h-333l-107 -606h314z" />
    <glyph glyph-name="Ntilde" unicode="&#xd1;" horiz-adv-x="1390" 
d="M584 1585q-18 0 -15 29q12 84 57 133t111 49q37 0 67.5 -15t50.5 -37t38.5 -43.5t42 -36.5t51.5 -15q44 0 75 37t40 96q3 14 14 14h31q17 0 14 -27q-15 -86 -57.5 -135t-108.5 -49q-37 0 -66.5 15t-49.5 37t-39 44t-43.5 37t-53.5 15q-41 0 -73.5 -36.5t-42.5 -94.5
q0 -17 -15 -17h-28zM96 0q-23 0 -20 27l248 1405q5 22 28 22h49q22 0 27 -16l457 -1010q24 -55 119 -293h4q28 242 51 373l164 926q3 20 30 20h43q25 0 19 -29l-248 -1400q-3 -14 -8 -19.5t-19 -5.5h-49q-18 0 -26 18l-469 1035q-66 155 -105 264h-4q-27 -207 -49 -338
l-170 -956q-5 -23 -29 -23h-43z" />
    <glyph glyph-name="Ntilde" unicode="&#xf1;" horiz-adv-x="1390" 
d="M584 1585q-18 0 -15 29q12 84 57 133t111 49q37 0 67.5 -15t50.5 -37t38.5 -43.5t42 -36.5t51.5 -15q44 0 75 37t40 96q3 14 14 14h31q17 0 14 -27q-15 -86 -57.5 -135t-108.5 -49q-37 0 -66.5 15t-49.5 37t-39 44t-43.5 37t-53.5 15q-41 0 -73.5 -36.5t-42.5 -94.5
q0 -17 -15 -17h-28zM96 0q-23 0 -20 27l248 1405q5 22 28 22h49q22 0 27 -16l457 -1010q24 -55 119 -293h4q28 242 51 373l164 926q3 20 30 20h43q25 0 19 -29l-248 -1400q-3 -14 -8 -19.5t-19 -5.5h-49q-18 0 -26 18l-469 1035q-66 155 -105 264h-4q-27 -207 -49 -338
l-170 -956q-5 -23 -29 -23h-43z" />
    <glyph glyph-name="Ograve" unicode="&#xd2;" horiz-adv-x="1333" 
d="M680 1794q-22 13 -2 33l24 22q17 10 24 9t22 -11l241 -215q19 -16 4 -33l-14 -12q-12 -15 -33 0zM543 -29q-252 0 -362 134t-68 374l88 500q42 239 193.5 371.5t398.5 132.5q248 0 359 -134t69 -374l-88 -500q-40 -240 -192 -372t-398 -132zM547 59q202 0 329 109.5
t164 312.5l86 498q35 200 -51.5 308t-286.5 108q-203 0 -331 -111.5t-162 -310.5l-88 -496q-34 -198 53.5 -308t286.5 -110z" />
    <glyph glyph-name="Ograve" unicode="&#xf2;" horiz-adv-x="1333" 
d="M680 1794q-22 13 -2 33l24 22q17 10 24 9t22 -11l241 -215q19 -16 4 -33l-14 -12q-12 -15 -33 0zM543 -29q-252 0 -362 134t-68 374l88 500q42 239 193.5 371.5t398.5 132.5q248 0 359 -134t69 -374l-88 -500q-40 -240 -192 -372t-398 -132zM547 59q202 0 329 109.5
t164 312.5l86 498q35 200 -51.5 308t-286.5 108q-203 0 -331 -111.5t-162 -310.5l-88 -496q-34 -198 53.5 -308t286.5 -110z" />
    <glyph glyph-name="Oacute" unicode="&#xd3;" horiz-adv-x="1333" 
d="M649 1608q-13 16 6 28l322 217q26 14 41 -6l16 -22q7 -8 6 -16t-10 -13l-338 -209q-20 -9 -33 4zM543 -29q-252 0 -362 134t-68 374l88 500q42 239 193.5 371.5t398.5 132.5q248 0 359 -134t69 -374l-88 -500q-40 -240 -192 -372t-398 -132zM547 59q202 0 329 109.5
t164 312.5l86 498q35 200 -51.5 308t-286.5 108q-203 0 -331 -111.5t-162 -310.5l-88 -496q-34 -198 53.5 -308t286.5 -110z" />
    <glyph glyph-name="Oacute" unicode="&#xf3;" horiz-adv-x="1333" 
d="M649 1608q-13 16 6 28l322 217q26 14 41 -6l16 -22q7 -8 6 -16t-10 -13l-338 -209q-20 -9 -33 4zM543 -29q-252 0 -362 134t-68 374l88 500q42 239 193.5 371.5t398.5 132.5q248 0 359 -134t69 -374l-88 -500q-40 -240 -192 -372t-398 -132zM547 59q202 0 329 109.5
t164 312.5l86 498q35 200 -51.5 308t-286.5 108q-203 0 -331 -111.5t-162 -310.5l-88 -496q-34 -198 53.5 -308t286.5 -110z" />
    <glyph glyph-name="Ocircumflex" unicode="&#xd4;" horiz-adv-x="1333" 
d="M541 1587q-16 0 -19.5 7.5t6.5 15.5l285 233q22 17 39 17h20q23 0 37 -19l201 -235q15 -19 -12 -19h-39q-24 0 -35 17l-166 192l-237 -197q-14 -12 -41 -12h-39zM543 -29q-252 0 -362 134t-68 374l88 500q42 239 193.5 371.5t398.5 132.5q248 0 359 -134t69 -374
l-88 -500q-40 -240 -192 -372t-398 -132zM547 59q202 0 329 109.5t164 312.5l86 498q35 200 -51.5 308t-286.5 108q-203 0 -331 -111.5t-162 -310.5l-88 -496q-34 -198 53.5 -308t286.5 -110z" />
    <glyph glyph-name="Ocircumflex" unicode="&#xf4;" horiz-adv-x="1333" 
d="M541 1587q-16 0 -19.5 7.5t6.5 15.5l285 233q22 17 39 17h20q23 0 37 -19l201 -235q15 -19 -12 -19h-39q-24 0 -35 17l-166 192l-237 -197q-14 -12 -41 -12h-39zM543 -29q-252 0 -362 134t-68 374l88 500q42 239 193.5 371.5t398.5 132.5q248 0 359 -134t69 -374
l-88 -500q-40 -240 -192 -372t-398 -132zM547 59q202 0 329 109.5t164 312.5l86 498q35 200 -51.5 308t-286.5 108q-203 0 -331 -111.5t-162 -310.5l-88 -496q-34 -198 53.5 -308t286.5 -110z" />
    <glyph glyph-name="Otilde" unicode="&#xd5;" horiz-adv-x="1333" 
d="M555 1606q-17 0 -14 28q12 84 57 133.5t111 49.5q37 0 67 -15t50 -37t38.5 -44t42 -37t51.5 -15q44 0 75 37t40 96q3 15 14 15h31q18 0 15 -27q-15 -86 -57.5 -135t-108.5 -49q-37 0 -66.5 15t-49.5 37t-39 43.5t-43.5 36.5t-53.5 15q-41 0 -74 -36.5t-43 -94.5
q0 -16 -14 -16h-29zM543 -29q-252 0 -362 134t-68 374l88 500q42 239 193.5 371.5t398.5 132.5q248 0 359 -134t69 -374l-88 -500q-40 -240 -192 -372t-398 -132zM547 59q202 0 329 109.5t164 312.5l86 498q35 200 -51.5 308t-286.5 108q-203 0 -331 -111.5t-162 -310.5
l-88 -496q-34 -198 53.5 -308t286.5 -110z" />
    <glyph glyph-name="Otilde" unicode="&#xf5;" horiz-adv-x="1333" 
d="M555 1606q-17 0 -14 28q12 84 57 133.5t111 49.5q37 0 67 -15t50 -37t38.5 -44t42 -37t51.5 -15q44 0 75 37t40 96q3 15 14 15h31q18 0 15 -27q-15 -86 -57.5 -135t-108.5 -49q-37 0 -66.5 15t-49.5 37t-39 43.5t-43.5 36.5t-53.5 15q-41 0 -74 -36.5t-43 -94.5
q0 -16 -14 -16h-29zM543 -29q-252 0 -362 134t-68 374l88 500q42 239 193.5 371.5t398.5 132.5q248 0 359 -134t69 -374l-88 -500q-40 -240 -192 -372t-398 -132zM547 59q202 0 329 109.5t164 312.5l86 498q35 200 -51.5 308t-286.5 108q-203 0 -331 -111.5t-162 -310.5
l-88 -496q-34 -198 53.5 -308t286.5 -110z" />
    <glyph glyph-name="Odieresis" unicode="&#xd6;" horiz-adv-x="1333" 
d="M647 1661q-28 0 -37 10.5t-6 36.5l4 14q3 26 14.5 35.5t39.5 9.5h12q26 0 35 -11t6 -38l-2 -14q-4 -27 -15.5 -35t-38.5 -8h-12zM1008 1661q-29 0 -38.5 10.5t-4.5 36.5l2 14q5 27 15.5 36t39.5 9h10q26 0 35.5 -11.5t5.5 -37.5l-2 -14q-4 -27 -15 -35t-38 -8h-10z
M543 -29q-252 0 -362 134t-68 374l88 500q42 239 193.5 371.5t398.5 132.5q248 0 359 -134t69 -374l-88 -500q-40 -240 -192 -372t-398 -132zM547 59q202 0 329 109.5t164 312.5l86 498q35 200 -51.5 308t-286.5 108q-203 0 -331 -111.5t-162 -310.5l-88 -496
q-34 -198 53.5 -308t286.5 -110z" />
    <glyph glyph-name="Odieresis" unicode="&#xf6;" horiz-adv-x="1333" 
d="M647 1661q-28 0 -37 10.5t-6 36.5l4 14q3 26 14.5 35.5t39.5 9.5h12q26 0 35 -11t6 -38l-2 -14q-4 -27 -15.5 -35t-38.5 -8h-12zM1008 1661q-29 0 -38.5 10.5t-4.5 36.5l2 14q5 27 15.5 36t39.5 9h10q26 0 35.5 -11.5t5.5 -37.5l-2 -14q-4 -27 -15 -35t-38 -8h-10z
M543 -29q-252 0 -362 134t-68 374l88 500q42 239 193.5 371.5t398.5 132.5q248 0 359 -134t69 -374l-88 -500q-40 -240 -192 -372t-398 -132zM547 59q202 0 329 109.5t164 312.5l86 498q35 200 -51.5 308t-286.5 108q-203 0 -331 -111.5t-162 -310.5l-88 -496
q-34 -198 53.5 -308t286.5 -110z" />
    <glyph glyph-name="multiply" unicode="&#xd7;" horiz-adv-x="1021" 
d="M754 283q-21 -16 -35 4l-230 319l-342 -321q-12 -9 -17 -8t-17 12l-17 20q-19 16 2 37l346 318l-227 323q-9 13 -10 18.5t10 16.5l27 22q20 17 35 -4l227 -319l344 323q17 17 33 -2l18 -22q16 -20 -4 -35l-346 -321l229 -322q19 -22 2 -37z" />
    <glyph glyph-name="Oslash" unicode="&#xd8;" horiz-adv-x="1333" 
d="M27 -88q-7 0 -9.5 4t0.5 8l154 197q-100 133 -59 358l88 500q42 238 194.5 371t399.5 133q219 0 327 -111l117 154q6 8 21 8h53q16 0 8 -12l-154 -197q94 -137 54 -350l-88 -500q-40 -241 -191 -372.5t-399 -131.5q-208 0 -326 103l-117 -154q-5 -8 -16 -8h-6h-51z
M1065 1294q-87 101 -277 101q-203 0 -331 -111.5t-162 -310.5l-82 -467q-31 -183 33 -289zM549 59q204 0 330.5 111t160.5 311l82 473q31 172 -24 279l-824 -1079q89 -95 275 -95z" />
    <glyph glyph-name="Oslash" unicode="&#xf8;" horiz-adv-x="1333" 
d="M27 -88q-7 0 -9.5 4t0.5 8l154 197q-100 133 -59 358l88 500q42 238 194.5 371t399.5 133q219 0 327 -111l117 154q6 8 21 8h53q16 0 8 -12l-154 -197q94 -137 54 -350l-88 -500q-40 -241 -191 -372.5t-399 -131.5q-208 0 -326 103l-117 -154q-5 -8 -16 -8h-6h-51z
M1065 1294q-87 101 -277 101q-203 0 -331 -111.5t-162 -310.5l-82 -467q-31 -183 33 -289zM549 59q204 0 330.5 111t160.5 311l82 473q31 172 -24 279l-824 -1079q89 -95 275 -95z" />
    <glyph glyph-name="Ugrave" unicode="&#xd9;" horiz-adv-x="1374" 
d="M696 1774q-22 12 -2 32l25 23q8 8 16.5 8.5t13 -1.5t15.5 -9l242 -215q19 -16 4 -33l-15 -12q-12 -15 -32 0zM557 -29q-248 0 -351 139t-59 386l166 936q3 13 9 17.5t20 4.5h43q26 0 23 -27l-166 -935q-36 -204 44.5 -318.5t276.5 -114.5q202 0 326 115.5t162 321.5
l163 936q4 22 29 22h45q24 0 21 -27l-164 -935q-44 -247 -194 -384t-394 -137z" />
    <glyph glyph-name="Ugrave" unicode="&#xf9;" horiz-adv-x="1374" 
d="M696 1774q-22 12 -2 32l25 23q8 8 16.5 8.5t13 -1.5t15.5 -9l242 -215q19 -16 4 -33l-15 -12q-12 -15 -32 0zM557 -29q-248 0 -351 139t-59 386l166 936q3 13 9 17.5t20 4.5h43q26 0 23 -27l-166 -935q-36 -204 44.5 -318.5t276.5 -114.5q202 0 326 115.5t162 321.5
l163 936q4 22 29 22h45q24 0 21 -27l-164 -935q-44 -247 -194 -384t-394 -137z" />
    <glyph glyph-name="Uacute" unicode="&#xda;" horiz-adv-x="1374" 
d="M666 1587q-6 8 -4 16t10 13l321 217q26 14 41 -6l17 -23q17 -17 -4 -28l-338 -209q-20 -9 -33 4zM557 -29q-248 0 -351 139t-59 386l166 936q3 13 9 17.5t20 4.5h43q26 0 23 -27l-166 -935q-36 -204 44.5 -318.5t276.5 -114.5q202 0 326 115.5t162 321.5l163 936
q4 22 29 22h45q24 0 21 -27l-164 -935q-44 -247 -194 -384t-394 -137z" />
    <glyph glyph-name="Uacute" unicode="&#xfa;" horiz-adv-x="1374" 
d="M666 1587q-6 8 -4 16t10 13l321 217q26 14 41 -6l17 -23q17 -17 -4 -28l-338 -209q-20 -9 -33 4zM557 -29q-248 0 -351 139t-59 386l166 936q3 13 9 17.5t20 4.5h43q26 0 23 -27l-166 -935q-36 -204 44.5 -318.5t276.5 -114.5q202 0 326 115.5t162 321.5l163 936
q4 22 29 22h45q24 0 21 -27l-164 -935q-44 -247 -194 -384t-394 -137z" />
    <glyph glyph-name="Ucircumflex" unicode="&#xdb;" horiz-adv-x="1374" 
d="M557 1567q-16 0 -19 7.5t7 14.5l284 234q21 16 39 16h21q14 0 21 -3t16 -15l200 -236q14 -18 -12 -18h-39q-24 0 -35 16l-166 193l-237 -197q-14 -12 -41 -12h-39zM557 -29q-248 0 -351 139t-59 386l166 936q3 13 9 17.5t20 4.5h43q26 0 23 -27l-166 -935
q-36 -204 44.5 -318.5t276.5 -114.5q202 0 326 115.5t162 321.5l163 936q4 22 29 22h45q24 0 21 -27l-164 -935q-44 -247 -194 -384t-394 -137z" />
    <glyph glyph-name="Ucircumflex" unicode="&#xfb;" horiz-adv-x="1374" 
d="M557 1567q-16 0 -19 7.5t7 14.5l284 234q21 16 39 16h21q14 0 21 -3t16 -15l200 -236q14 -18 -12 -18h-39q-24 0 -35 16l-166 193l-237 -197q-14 -12 -41 -12h-39zM557 -29q-248 0 -351 139t-59 386l166 936q3 13 9 17.5t20 4.5h43q26 0 23 -27l-166 -935
q-36 -204 44.5 -318.5t276.5 -114.5q202 0 326 115.5t162 321.5l163 936q4 22 29 22h45q24 0 21 -27l-164 -935q-44 -247 -194 -384t-394 -137z" />
    <glyph glyph-name="Udieresis" unicode="&#xdc;" horiz-adv-x="1374" 
d="M664 1640q-27 0 -36.5 10.5t-6.5 37.5l4 14q3 26 14 35.5t39 9.5h12q26 0 35 -11t6 -38l-2 -15q-4 -27 -15 -35t-38 -8h-12zM1024 1640q-29 0 -38.5 10.5t-4.5 37.5l2 14q5 27 15.5 36t39.5 9h11q26 0 35.5 -11.5t5.5 -37.5l-3 -15q-4 -27 -15 -35t-38 -8h-10zM557 -29
q-248 0 -351 139t-59 386l166 936q3 13 9 17.5t20 4.5h43q26 0 23 -27l-166 -935q-36 -204 44.5 -318.5t276.5 -114.5q202 0 326 115.5t162 321.5l163 936q4 22 29 22h45q24 0 21 -27l-164 -935q-44 -247 -194 -384t-394 -137z" />
    <glyph glyph-name="Udieresis" unicode="&#xfc;" horiz-adv-x="1374" 
d="M664 1640q-27 0 -36.5 10.5t-6.5 37.5l4 14q3 26 14 35.5t39 9.5h12q26 0 35 -11t6 -38l-2 -15q-4 -27 -15 -35t-38 -8h-12zM1024 1640q-29 0 -38.5 10.5t-4.5 37.5l2 14q5 27 15.5 36t39.5 9h11q26 0 35.5 -11.5t5.5 -37.5l-3 -15q-4 -27 -15 -35t-38 -8h-10zM557 -29
q-248 0 -351 139t-59 386l166 936q3 13 9 17.5t20 4.5h43q26 0 23 -27l-166 -935q-36 -204 44.5 -318.5t276.5 -114.5q202 0 326 115.5t162 321.5l163 936q4 22 29 22h45q24 0 21 -27l-164 -935q-44 -247 -194 -384t-394 -137z" />
    <glyph glyph-name="Yacute" unicode="&#xdd;" horiz-adv-x="1249" 
d="M606 1587q-6 8 -4 16t10 13l322 217q26 14 41 -6l16 -23q17 -17 -4 -28l-338 -209q-20 -9 -33 4zM473 0q-23 0 -20 29l102 571l-365 830q-7 24 15 24h53q21 0 27.5 -4.5t11.5 -19.5l321 -740l582 744q9 13 16.5 16.5t28.5 3.5h51q13 0 17 -9t-2 -20l-662 -829l-102 -571
q-3 -15 -8.5 -20t-18.5 -5h-47z" />
    <glyph glyph-name="Yacute" unicode="&#xfd;" horiz-adv-x="1249" 
d="M606 1587q-6 8 -4 16t10 13l322 217q26 14 41 -6l16 -23q17 -17 -4 -28l-338 -209q-20 -9 -33 4zM473 0q-23 0 -20 29l102 571l-365 830q-7 24 15 24h53q21 0 27.5 -4.5t11.5 -19.5l321 -740l582 744q9 13 16.5 16.5t28.5 3.5h51q13 0 17 -9t-2 -20l-662 -829l-102 -571
q-3 -15 -8.5 -20t-18.5 -5h-47z" />
    <glyph glyph-name="Thorn" unicode="&#xde;" horiz-adv-x="1236" 
d="M98 0q-15 0 -19.5 6t-2.5 21l248 1405q3 12 9 17t19 5h47q25 0 19 -29l-39 -225h389q209 0 309 -125t66 -342q-32 -215 -169.5 -337t-344.5 -122h-414l-45 -251q-3 -13 -8.5 -18t-18.5 -5h-45zM631 360q167 0 279.5 102.5t138.5 282.5q26 172 -51 269.5t-246 97.5h-390
l-133 -752h402z" />
    <glyph glyph-name="Thorn" unicode="&#xfe;" horiz-adv-x="1236" 
d="M98 0q-15 0 -19.5 6t-2.5 21l248 1405q3 12 9 17t19 5h47q25 0 19 -29l-39 -225h389q209 0 309 -125t66 -342q-32 -215 -169.5 -337t-344.5 -122h-414l-45 -251q-3 -13 -8.5 -18t-18.5 -5h-45zM631 360q167 0 279.5 102.5t138.5 282.5q26 172 -51 269.5t-246 97.5h-390
l-133 -752h402z" />
    <glyph glyph-name="uni00DF" unicode="&#xdf;" horiz-adv-x="1290" 
d="M1180 1454q25 0 22 -27l-6 -41q-2 -12 -18 -32l-451 -525q88 5 100 5q161 0 238 -104.5t39 -323.5q-38 -214 -169.5 -318t-359.5 -104q-125 0 -253 53q-24 0 -21 26l8 41q0 10 9 17t20 4q74 -33 128 -43t118 -10q185 0 290.5 82.5t137.5 257.5q30 171 -29 255.5
t-184 84.5q-93 0 -164 -11q-12 -1 -18.5 5t-4.5 18l9 39q3 17 16 33l438 530h-667l-238 -1339q-3 -27 -29 -27h-45q-14 0 -18.5 6t-1.5 21l248 1400q3 27 28 27h828z" />
    <glyph glyph-name="uni00DF" unicode="&#x1e9e;" horiz-adv-x="1290" 
d="M1180 1454q25 0 22 -27l-6 -41q-2 -12 -18 -32l-451 -525q88 5 100 5q161 0 238 -104.5t39 -323.5q-38 -214 -169.5 -318t-359.5 -104q-125 0 -253 53q-24 0 -21 26l8 41q0 10 9 17t20 4q74 -33 128 -43t118 -10q185 0 290.5 82.5t137.5 257.5q30 171 -29 255.5
t-184 84.5q-93 0 -164 -11q-12 -1 -18.5 5t-4.5 18l9 39q3 17 16 33l438 530h-667l-238 -1339q-3 -27 -29 -27h-45q-14 0 -18.5 6t-1.5 21l248 1400q3 27 28 27h828z" />
    <glyph glyph-name="divide" unicode="&#xf7;" horiz-adv-x="1191" 
d="M645 1016q-33 0 -44 12.5t-5 44.5l2 12q4 32 17.5 43t46.5 11h8q32 0 43.5 -14t5.5 -46v-10q-6 -32 -19.5 -42.5t-46.5 -10.5h-8zM166 621q-28 0 -25 28l6 35q3 14 8.5 18.5t18.5 4.5h832q28 0 22 -27l-6 -35q-3 -15 -7.5 -19.5t-19.5 -4.5h-829zM500 195q-33 0 -44 13
t-5 46l4 10q4 32 17 42.5t44 10.5h10q32 0 43 -12.5t6 -44.5l-2 -12q-6 -32 -18.5 -42.5t-44.5 -10.5h-10z" />
    <glyph glyph-name="Ydieresis" unicode="&#xff;" horiz-adv-x="1249" 
d="M604 1640q-27 0 -36.5 10.5t-6.5 37.5l4 14q3 26 14 35.5t39 9.5h13q26 0 35 -11t6 -38l-2 -15q-4 -27 -15.5 -35t-38.5 -8h-12zM965 1640q-29 0 -38.5 10.5t-4.5 37.5l2 14q5 27 15.5 36t39.5 9h10q26 0 35.5 -11.5t5.5 -37.5l-2 -15q-4 -27 -15 -35t-38 -8h-10zM473 0
q-23 0 -20 29l102 571l-365 830q-7 24 15 24h53q21 0 27.5 -4.5t11.5 -19.5l321 -740l582 744q9 13 16.5 16.5t28.5 3.5h51q13 0 17 -9t-2 -20l-662 -829l-102 -571q-3 -15 -8.5 -20t-18.5 -5h-47z" />
    <glyph glyph-name="Ydieresis" unicode="&#x178;" horiz-adv-x="1249" 
d="M604 1640q-27 0 -36.5 10.5t-6.5 37.5l4 14q3 26 14 35.5t39 9.5h13q26 0 35 -11t6 -38l-2 -15q-4 -27 -15.5 -35t-38.5 -8h-12zM965 1640q-29 0 -38.5 10.5t-4.5 37.5l2 14q5 27 15.5 36t39.5 9h10q26 0 35.5 -11.5t5.5 -37.5l-2 -15q-4 -27 -15 -35t-38 -8h-10zM473 0
q-23 0 -20 29l102 571l-365 830q-7 24 15 24h53q21 0 27.5 -4.5t11.5 -19.5l321 -740l582 744q9 13 16.5 16.5t28.5 3.5h51q13 0 17 -9t-2 -20l-662 -829l-102 -571q-3 -15 -8.5 -20t-18.5 -5h-47z" />
    <glyph glyph-name="Amacron" unicode="&#x100;" horiz-adv-x="1277" 
d="M575 1651q-24 0 -18 26l2 21q2 20 29 20h450q26 0 21 -24l-2 -21q-5 -22 -27 -22h-455zM-53 0q-13 0 -17 8.5t2 20.5l775 1413q8 14 14.5 18t19.5 4h50q12 0 17.5 -6t8.5 -20l277 -1413q6 -25 -17 -25h-47q-19 0 -26.5 6t-10.5 21l-84 448h-628l-248 -455
q-6 -13 -13.5 -16.5t-27.5 -3.5h-45zM893 557l-127 678q-10 75 -10 135h-6q-26 -73 -62 -141l-364 -672h569z" />
    <glyph glyph-name="Amacron" unicode="&#x101;" horiz-adv-x="1277" 
d="M575 1651q-24 0 -18 26l2 21q2 20 29 20h450q26 0 21 -24l-2 -21q-5 -22 -27 -22h-455zM-53 0q-13 0 -17 8.5t2 20.5l775 1413q8 14 14.5 18t19.5 4h50q12 0 17.5 -6t8.5 -20l277 -1413q6 -25 -17 -25h-47q-19 0 -26.5 6t-10.5 21l-84 448h-628l-248 -455
q-6 -13 -13.5 -16.5t-27.5 -3.5h-45zM893 557l-127 678q-10 75 -10 135h-6q-26 -73 -62 -141l-364 -672h569z" />
    <glyph glyph-name="Abreve" unicode="&#x102;" horiz-adv-x="1277" 
d="M793 1567q-224 0 -236 231q-6 17 8 23l35 8q10 3 15 0.5t8 -14.5q3 -87 48.5 -133t125.5 -46q85 0 142.5 43t96.5 142q10 13 25 8l35 -12q16 -3 8 -25q-87 -225 -311 -225zM-53 0q-13 0 -17 8.5t2 20.5l775 1413q8 14 14.5 18t19.5 4h50q12 0 17.5 -6t8.5 -20l277 -1413
q6 -25 -17 -25h-47q-19 0 -26.5 6t-10.5 21l-84 448h-628l-248 -455q-6 -13 -13.5 -16.5t-27.5 -3.5h-45zM893 557l-127 678q-10 75 -10 135h-6q-26 -73 -62 -141l-364 -672h569z" />
    <glyph glyph-name="Abreve" unicode="&#x103;" horiz-adv-x="1277" 
d="M793 1567q-224 0 -236 231q-6 17 8 23l35 8q10 3 15 0.5t8 -14.5q3 -87 48.5 -133t125.5 -46q85 0 142.5 43t96.5 142q10 13 25 8l35 -12q16 -3 8 -25q-87 -225 -311 -225zM-53 0q-13 0 -17 8.5t2 20.5l775 1413q8 14 14.5 18t19.5 4h50q12 0 17.5 -6t8.5 -20l277 -1413
q6 -25 -17 -25h-47q-19 0 -26.5 6t-10.5 21l-84 448h-628l-248 -455q-6 -13 -13.5 -16.5t-27.5 -3.5h-45zM893 557l-127 678q-10 75 -10 135h-6q-26 -73 -62 -141l-364 -672h569z" />
    <glyph glyph-name="Aogonek" unicode="&#x104;" horiz-adv-x="1277" 
d="M866 -506q-105 0 -116 100q-11 86 60.5 186t207.5 226q-24 7 -27 29l-82 440h-628l-248 -455q-6 -13 -13.5 -16.5t-27.5 -3.5h-45q-13 0 -17 8.5t2 20.5l775 1413q8 14 14.5 18t21.5 4h48q12 0 17.5 -6t8.5 -20l277 -1413q5 -14 -4 -27q-70 -70 -108.5 -111t-80.5 -94
t-59 -94t-13 -78q6 -57 64 -57q63 0 125 59q10 5 14 -6l12 -33q4 -13 -10 -24q-80 -66 -168 -66zM893 557l-127 678q-10 75 -10 135h-6q-26 -73 -62 -141l-364 -672h569z" />
    <glyph glyph-name="Aogonek" unicode="&#x105;" horiz-adv-x="1277" 
d="M866 -506q-105 0 -116 100q-11 86 60.5 186t207.5 226q-24 7 -27 29l-82 440h-628l-248 -455q-6 -13 -13.5 -16.5t-27.5 -3.5h-45q-13 0 -17 8.5t2 20.5l775 1413q8 14 14.5 18t21.5 4h48q12 0 17.5 -6t8.5 -20l277 -1413q5 -14 -4 -27q-70 -70 -108.5 -111t-80.5 -94
t-59 -94t-13 -78q6 -57 64 -57q63 0 125 59q10 5 14 -6l12 -33q4 -13 -10 -24q-80 -66 -168 -66zM893 557l-127 678q-10 75 -10 135h-6q-26 -73 -62 -141l-364 -672h569z" />
    <glyph glyph-name="Cacute" unicode="&#x106;" horiz-adv-x="1280" 
d="M647 1587q-6 8 -4 16t10 13l322 217q26 14 41 -6l16 -23q17 -17 -4 -28l-338 -209q-20 -9 -33 4zM539 -29q-246 0 -357 135.5t-69 372.5l88 502q42 237 193.5 369.5t396.5 132.5q216 0 317.5 -89.5t122.5 -273.5q5 -20 -17 -28l-43 -11q-24 -8 -30 19q-15 152 -98 223.5
t-259 71.5q-205 0 -329.5 -110t-159.5 -306l-90 -506q-33 -195 54.5 -303.5t287.5 -108.5q179 0 286.5 77t180.5 235q7 19 35 10l38 -14q25 -11 11 -37q-57 -121 -127.5 -197.5t-178.5 -120t-253 -43.5z" />
    <glyph glyph-name="Cacute" unicode="&#x107;" horiz-adv-x="1280" 
d="M647 1587q-6 8 -4 16t10 13l322 217q26 14 41 -6l16 -23q17 -17 -4 -28l-338 -209q-20 -9 -33 4zM539 -29q-246 0 -357 135.5t-69 372.5l88 502q42 237 193.5 369.5t396.5 132.5q216 0 317.5 -89.5t122.5 -273.5q5 -20 -17 -28l-43 -11q-24 -8 -30 19q-15 152 -98 223.5
t-259 71.5q-205 0 -329.5 -110t-159.5 -306l-90 -506q-33 -195 54.5 -303.5t287.5 -108.5q179 0 286.5 77t180.5 235q7 19 35 10l38 -14q25 -11 11 -37q-57 -121 -127.5 -197.5t-178.5 -120t-253 -43.5z" />
    <glyph glyph-name="Ccircumflex" unicode="&#x108;" horiz-adv-x="1280" 
d="M539 1567q-16 0 -19.5 7.5t6.5 14.5l285 234q21 16 39 16h20q24 0 37 -18l201 -236q14 -18 -12 -18h-39q-24 0 -35 16l-166 193l-238 -197q-14 -12 -40 -12h-39zM539 -29q-246 0 -357 135.5t-69 372.5l88 502q42 237 193.5 369.5t396.5 132.5q216 0 317.5 -89.5
t122.5 -273.5q5 -20 -17 -28l-43 -11q-24 -8 -30 19q-15 152 -98 223.5t-259 71.5q-205 0 -329.5 -110t-159.5 -306l-90 -506q-33 -195 54.5 -303.5t287.5 -108.5q179 0 286.5 77t180.5 235q7 19 35 10l38 -14q25 -11 11 -37q-57 -121 -127.5 -197.5t-178.5 -120t-253 -43.5
z" />
    <glyph glyph-name="Ccircumflex" unicode="&#x109;" horiz-adv-x="1280" 
d="M539 1567q-16 0 -19.5 7.5t6.5 14.5l285 234q21 16 39 16h20q24 0 37 -18l201 -236q14 -18 -12 -18h-39q-24 0 -35 16l-166 193l-238 -197q-14 -12 -40 -12h-39zM539 -29q-246 0 -357 135.5t-69 372.5l88 502q42 237 193.5 369.5t396.5 132.5q216 0 317.5 -89.5
t122.5 -273.5q5 -20 -17 -28l-43 -11q-24 -8 -30 19q-15 152 -98 223.5t-259 71.5q-205 0 -329.5 -110t-159.5 -306l-90 -506q-33 -195 54.5 -303.5t287.5 -108.5q179 0 286.5 77t180.5 235q7 19 35 10l38 -14q25 -11 11 -37q-57 -121 -127.5 -197.5t-178.5 -120t-253 -43.5
z" />
    <glyph glyph-name="Cdotaccent" unicode="&#x10a;" horiz-adv-x="1280" 
d="M825 1630q-28 0 -37 12t-4 41l2 11q6 28 16 36.5t38 8.5h10q28 0 37.5 -11.5t5.5 -39.5l-2 -11q-6 -28 -17 -37.5t-38 -9.5h-11zM539 -29q-246 0 -357 135.5t-69 372.5l88 502q42 237 193.5 369.5t396.5 132.5q216 0 317.5 -89.5t122.5 -273.5q5 -20 -17 -28l-43 -11
q-24 -8 -30 19q-15 152 -98 223.5t-259 71.5q-205 0 -329.5 -110t-159.5 -306l-90 -506q-33 -195 54.5 -303.5t287.5 -108.5q179 0 286.5 77t180.5 235q7 19 35 10l38 -14q25 -11 11 -37q-57 -121 -127.5 -197.5t-178.5 -120t-253 -43.5z" />
    <glyph glyph-name="Cdotaccent" unicode="&#x10b;" horiz-adv-x="1280" 
d="M825 1630q-28 0 -37 12t-4 41l2 11q6 28 16 36.5t38 8.5h10q28 0 37.5 -11.5t5.5 -39.5l-2 -11q-6 -28 -17 -37.5t-38 -9.5h-11zM539 -29q-246 0 -357 135.5t-69 372.5l88 502q42 237 193.5 369.5t396.5 132.5q216 0 317.5 -89.5t122.5 -273.5q5 -20 -17 -28l-43 -11
q-24 -8 -30 19q-15 152 -98 223.5t-259 71.5q-205 0 -329.5 -110t-159.5 -306l-90 -506q-33 -195 54.5 -303.5t287.5 -108.5q179 0 286.5 77t180.5 235q7 19 35 10l38 -14q25 -11 11 -37q-57 -121 -127.5 -197.5t-178.5 -120t-253 -43.5z" />
    <glyph glyph-name="Ccaron" unicode="&#x10c;" horiz-adv-x="1280" 
d="M811 1565q-14 0 -22 5t-19 19l-197 232q-7 6 -5 12t18 6h39q15 0 20.5 -2.5t13.5 -11.5l166 -197l238 199q17 12 39 12h39q16 0 19 -7.5t-7 -14.5l-281 -230q-4 -3 -10.5 -8t-8.5 -6t-6 -3.5t-7 -3t-7 -1t-10 -0.5h-12zM539 -29q-246 0 -357 135.5t-69 372.5l88 502
q42 237 193.5 369.5t396.5 132.5q216 0 317.5 -89.5t122.5 -273.5q5 -20 -17 -28l-43 -11q-24 -8 -30 19q-15 152 -98 223.5t-259 71.5q-205 0 -329.5 -110t-159.5 -306l-90 -506q-33 -195 54.5 -303.5t287.5 -108.5q179 0 286.5 77t180.5 235q7 19 35 10l38 -14
q25 -11 11 -37q-57 -121 -127.5 -197.5t-178.5 -120t-253 -43.5z" />
    <glyph glyph-name="Ccaron" unicode="&#x10d;" horiz-adv-x="1280" 
d="M811 1565q-14 0 -22 5t-19 19l-197 232q-7 6 -5 12t18 6h39q15 0 20.5 -2.5t13.5 -11.5l166 -197l238 199q17 12 39 12h39q16 0 19 -7.5t-7 -14.5l-281 -230q-4 -3 -10.5 -8t-8.5 -6t-6 -3.5t-7 -3t-7 -1t-10 -0.5h-12zM539 -29q-246 0 -357 135.5t-69 372.5l88 502
q42 237 193.5 369.5t396.5 132.5q216 0 317.5 -89.5t122.5 -273.5q5 -20 -17 -28l-43 -11q-24 -8 -30 19q-15 152 -98 223.5t-259 71.5q-205 0 -329.5 -110t-159.5 -306l-90 -506q-33 -195 54.5 -303.5t287.5 -108.5q179 0 286.5 77t180.5 235q7 19 35 10l38 -14
q25 -11 11 -37q-57 -121 -127.5 -197.5t-178.5 -120t-253 -43.5z" />
    <glyph glyph-name="Dcaron" unicode="&#x10e;" horiz-adv-x="1304" 
d="M770 1565q-14 0 -22 5t-19 19l-197 232q-7 6 -5 12t18 6h39q15 0 20.5 -2.5t13.5 -11.5l166 -197l238 199q17 12 39 12h39q16 0 19 -7.5t-7 -14.5l-281 -230q-4 -3 -10.5 -8t-8.5 -6t-6 -3.5t-7 -3t-7 -1t-10 -0.5h-12zM98 0q-15 0 -19.5 6t-2.5 23l248 1403q5 22 28 22
h383q269 0 384.5 -144t70.5 -399l-66 -372q-45 -253 -210.5 -396t-426.5 -143h-389zM494 88q217 0 358 120t178 335l66 372q39 218 -52 334.5t-315 116.5h-321l-226 -1278h312z" />
    <glyph glyph-name="Dcaron" unicode="&#x10f;" horiz-adv-x="1304" 
d="M770 1565q-14 0 -22 5t-19 19l-197 232q-7 6 -5 12t18 6h39q15 0 20.5 -2.5t13.5 -11.5l166 -197l238 199q17 12 39 12h39q16 0 19 -7.5t-7 -14.5l-281 -230q-4 -3 -10.5 -8t-8.5 -6t-6 -3.5t-7 -3t-7 -1t-10 -0.5h-12zM98 0q-15 0 -19.5 6t-2.5 23l248 1403q5 22 28 22
h383q269 0 384.5 -144t70.5 -399l-66 -372q-45 -253 -210.5 -396t-426.5 -143h-389zM494 88q217 0 358 120t178 335l66 372q39 218 -52 334.5t-315 116.5h-321l-226 -1278h312z" />
    <glyph glyph-name="Dcroat" unicode="&#x110;" horiz-adv-x="1300" 
d="M92 0q-23 0 -20 29l118 665h-137q-14 0 -17.5 6t-0.5 19l4 31q2 16 22 16h142l116 666q5 22 29 22h383q269 0 384.5 -144t70.5 -399l-66 -372q-45 -253 -212 -396t-427 -143h-389zM492 88q216 0 356.5 120.5t177.5 334.5l66 372q39 218 -52 334.5t-315 116.5h-322
l-106 -600h334q19 0 16 -23l-6 -32q-2 -17 -23 -17h-333l-107 -606h314z" />
    <glyph glyph-name="Dcroat" unicode="&#x111;" horiz-adv-x="1300" 
d="M92 0q-23 0 -20 29l118 665h-137q-14 0 -17.5 6t-0.5 19l4 31q2 16 22 16h142l116 666q5 22 29 22h383q269 0 384.5 -144t70.5 -399l-66 -372q-45 -253 -212 -396t-427 -143h-389zM492 88q216 0 356.5 120.5t177.5 334.5l66 372q39 218 -52 334.5t-315 116.5h-322
l-106 -600h334q19 0 16 -23l-6 -32q-2 -17 -23 -17h-333l-107 -606h314z" />
    <glyph glyph-name="Emacron" unicode="&#x112;" horiz-adv-x="1148" 
d="M543 1651q-25 0 -19 26l2 21q2 20 29 20h451q14 0 18.5 -5.5t1.5 -18.5l-2 -21q-6 -22 -27 -22h-454zM96 0q-23 0 -20 27l248 1403q3 14 9.5 19t20.5 5h758q14 0 18.5 -6.5t2.5 -22.5l-7 -36q-3 -13 -8.5 -18t-17.5 -5h-692l-103 -584h606q27 0 21 -26l-6 -39
q-6 -25 -27 -25h-610l-107 -604h713q15 0 20.5 -6t2.5 -21l-7 -38q-6 -23 -26 -23h-789z" />
    <glyph glyph-name="Emacron" unicode="&#x113;" horiz-adv-x="1148" 
d="M543 1651q-25 0 -19 26l2 21q2 20 29 20h451q14 0 18.5 -5.5t1.5 -18.5l-2 -21q-6 -22 -27 -22h-454zM96 0q-23 0 -20 27l248 1403q3 14 9.5 19t20.5 5h758q14 0 18.5 -6.5t2.5 -22.5l-7 -36q-3 -13 -8.5 -18t-17.5 -5h-692l-103 -584h606q27 0 21 -26l-6 -39
q-6 -25 -27 -25h-610l-107 -604h713q15 0 20.5 -6t2.5 -21l-7 -38q-6 -23 -26 -23h-789z" />
    <glyph glyph-name="Ebreve" unicode="&#x114;" horiz-adv-x="1148" 
d="M760 1567q-224 0 -236 231q-6 17 8 23l35 8q10 3 15 0.5t8 -14.5q3 -87 48.5 -133t125.5 -46q85 0 143 43t97 142q10 13 24 8l35 -12q16 -3 8 -25q-87 -225 -311 -225zM96 0q-23 0 -20 27l248 1403q3 14 9.5 19t20.5 5h758q14 0 18.5 -6.5t2.5 -22.5l-7 -36
q-3 -13 -8.5 -18t-17.5 -5h-692l-103 -584h606q27 0 21 -26l-6 -39q-6 -25 -27 -25h-610l-107 -604h713q15 0 20.5 -6t2.5 -21l-7 -38q-6 -23 -26 -23h-789z" />
    <glyph glyph-name="Ebreve" unicode="&#x115;" horiz-adv-x="1148" 
d="M760 1567q-224 0 -236 231q-6 17 8 23l35 8q10 3 15 0.5t8 -14.5q3 -87 48.5 -133t125.5 -46q85 0 143 43t97 142q10 13 24 8l35 -12q16 -3 8 -25q-87 -225 -311 -225zM96 0q-23 0 -20 27l248 1403q3 14 9.5 19t20.5 5h758q14 0 18.5 -6.5t2.5 -22.5l-7 -36
q-3 -13 -8.5 -18t-17.5 -5h-692l-103 -584h606q27 0 21 -26l-6 -39q-6 -25 -27 -25h-610l-107 -604h713q15 0 20.5 -6t2.5 -21l-7 -38q-6 -23 -26 -23h-789z" />
    <glyph glyph-name="Edotaccent" unicode="&#x116;" horiz-adv-x="1148" 
d="M762 1630q-28 0 -37 12t-4 41l2 11q6 28 16 36.5t37 8.5h10q28 0 37.5 -11.5t5.5 -39.5l-2 -11q-6 -28 -17 -37.5t-38 -9.5h-10zM96 0q-23 0 -20 27l248 1403q3 14 9.5 19t20.5 5h758q14 0 18.5 -6.5t2.5 -22.5l-7 -36q-3 -13 -8.5 -18t-17.5 -5h-692l-103 -584h606
q27 0 21 -26l-6 -39q-6 -25 -27 -25h-610l-107 -604h713q15 0 20.5 -6t2.5 -21l-7 -38q-6 -23 -26 -23h-789z" />
    <glyph glyph-name="Edotaccent" unicode="&#x117;" horiz-adv-x="1148" 
d="M762 1630q-28 0 -37 12t-4 41l2 11q6 28 16 36.5t37 8.5h10q28 0 37.5 -11.5t5.5 -39.5l-2 -11q-6 -28 -17 -37.5t-38 -9.5h-10zM96 0q-23 0 -20 27l248 1403q3 14 9.5 19t20.5 5h758q14 0 18.5 -6.5t2.5 -22.5l-7 -36q-3 -13 -8.5 -18t-17.5 -5h-692l-103 -584h606
q27 0 21 -26l-6 -39q-6 -25 -27 -25h-610l-107 -604h713q15 0 20.5 -6t2.5 -21l-7 -38q-6 -23 -26 -23h-789z" />
    <glyph glyph-name="Eogonek" unicode="&#x118;" horiz-adv-x="1148" 
d="M676 -506q-104 0 -115 98q-8 58 33.5 135.5t99 142t131.5 130.5h-729q-23 0 -20 29l248 1403q3 12 9 17t21 5h760q13 0 17.5 -6t1.5 -23l-7 -36q-3 -13 -8 -18t-18 -5h-692l-103 -584h608q25 0 19 -28l-6 -37q-3 -25 -27 -25h-610l-107 -604h713q15 0 20.5 -6t4.5 -21
l-7 -38q-7 -19 -12 -25q-100 -88 -182.5 -198.5t-77.5 -178.5q6 -57 64 -57q65 0 124 59q12 4 17 -8l8 -31q5 -13 -10 -26q-70 -64 -168 -64z" />
    <glyph glyph-name="Eogonek" unicode="&#x119;" horiz-adv-x="1148" 
d="M676 -506q-104 0 -115 98q-8 58 33.5 135.5t99 142t131.5 130.5h-729q-23 0 -20 29l248 1403q3 12 9 17t21 5h760q13 0 17.5 -6t1.5 -23l-7 -36q-3 -13 -8 -18t-18 -5h-692l-103 -584h608q25 0 19 -28l-6 -37q-3 -25 -27 -25h-610l-107 -604h713q15 0 20.5 -6t4.5 -21
l-7 -38q-7 -19 -12 -25q-100 -88 -182.5 -198.5t-77.5 -178.5q6 -57 64 -57q65 0 124 59q12 4 17 -8l8 -31q5 -13 -10 -26q-70 -64 -168 -64z" />
    <glyph glyph-name="Ecaron" unicode="&#x11a;" horiz-adv-x="1148" 
d="M750 1565q-14 0 -22 5t-19 19l-197 232q-18 18 12 18h39q23 0 35 -14l166 -197l237 199q17 12 39 12h39q16 0 19.5 -7.5t-6.5 -14.5l-281 -230q-4 -3 -10.5 -8t-8.5 -6t-6 -3.5t-7 -3t-7 -1t-10 -0.5h-12zM96 0q-23 0 -20 27l248 1403q3 14 9.5 19t20.5 5h758
q14 0 18.5 -6.5t2.5 -22.5l-7 -36q-3 -13 -8.5 -18t-17.5 -5h-692l-103 -584h606q27 0 21 -26l-6 -39q-6 -25 -27 -25h-610l-107 -604h713q15 0 20.5 -6t2.5 -21l-7 -38q-6 -23 -26 -23h-789z" />
    <glyph glyph-name="Ecaron" unicode="&#x11b;" horiz-adv-x="1148" 
d="M750 1565q-14 0 -22 5t-19 19l-197 232q-18 18 12 18h39q23 0 35 -14l166 -197l237 199q17 12 39 12h39q16 0 19.5 -7.5t-6.5 -14.5l-281 -230q-4 -3 -10.5 -8t-8.5 -6t-6 -3.5t-7 -3t-7 -1t-10 -0.5h-12zM96 0q-23 0 -20 27l248 1403q3 14 9.5 19t20.5 5h758
q14 0 18.5 -6.5t2.5 -22.5l-7 -36q-3 -13 -8.5 -18t-17.5 -5h-692l-103 -584h606q27 0 21 -26l-6 -39q-6 -25 -27 -25h-610l-107 -604h713q15 0 20.5 -6t2.5 -21l-7 -38q-6 -23 -26 -23h-789z" />
    <glyph glyph-name="Gcircumflex" unicode="&#x11c;" horiz-adv-x="1314" 
d="M539 1587q-16 0 -19.5 7.5t6.5 15.5l285 233q22 17 39 17h20q23 0 37 -19l201 -235q15 -19 -12 -19h-39q-24 0 -35 17l-166 192l-238 -197q-14 -12 -40 -12h-39zM543 -29q-250 0 -361.5 135.5t-68.5 374.5l88 500q43 244 192.5 373t397.5 129q211 0 315 -87t123 -266
q4 -19 1.5 -26t-16.5 -12l-43 -13q-22 -6 -28 21q-12 152 -95.5 223.5t-261.5 71.5q-208 0 -332 -110t-159 -310l-88 -498q-34 -198 53.5 -308t290.5 -110q200 0 327 108t160 298l33 182h-399q-24 0 -21 29l6 35q5 24 31 24h463q29 0 20 -30l-41 -244q-40 -228 -194 -359
t-393 -131z" />
    <glyph glyph-name="Gcircumflex" unicode="&#x11d;" horiz-adv-x="1314" 
d="M539 1587q-16 0 -19.5 7.5t6.5 15.5l285 233q22 17 39 17h20q23 0 37 -19l201 -235q15 -19 -12 -19h-39q-24 0 -35 17l-166 192l-238 -197q-14 -12 -40 -12h-39zM543 -29q-250 0 -361.5 135.5t-68.5 374.5l88 500q43 244 192.5 373t397.5 129q211 0 315 -87t123 -266
q4 -19 1.5 -26t-16.5 -12l-43 -13q-22 -6 -28 21q-12 152 -95.5 223.5t-261.5 71.5q-208 0 -332 -110t-159 -310l-88 -498q-34 -198 53.5 -308t290.5 -110q200 0 327 108t160 298l33 182h-399q-24 0 -21 29l6 35q5 24 31 24h463q29 0 20 -30l-41 -244q-40 -228 -194 -359
t-393 -131z" />
    <glyph glyph-name="Gbreve" unicode="&#x11e;" horiz-adv-x="1314" 
d="M823 1587q-223 0 -235 232q-6 17 8 22l35 8q10 3 14.5 0.5t7.5 -14.5q3 -87 48.5 -132.5t125.5 -45.5q86 0 143.5 42.5t96.5 141.5q10 13 25 8l34 -12q17 -3 9 -25q-87 -225 -312 -225zM543 -29q-250 0 -361.5 135.5t-68.5 374.5l88 500q43 244 192.5 373t397.5 129
q211 0 315 -87t123 -266q4 -19 1.5 -26t-16.5 -12l-43 -13q-22 -6 -28 21q-12 152 -95.5 223.5t-261.5 71.5q-208 0 -332 -110t-159 -310l-88 -498q-34 -198 53.5 -308t290.5 -110q200 0 327 108t160 298l33 182h-399q-24 0 -21 29l6 35q5 24 31 24h463q29 0 20 -30
l-41 -244q-40 -228 -194 -359t-393 -131z" />
    <glyph glyph-name="Gbreve" unicode="&#x11f;" horiz-adv-x="1314" 
d="M823 1587q-223 0 -235 232q-6 17 8 22l35 8q10 3 14.5 0.5t7.5 -14.5q3 -87 48.5 -132.5t125.5 -45.5q86 0 143.5 42.5t96.5 141.5q10 13 25 8l34 -12q17 -3 9 -25q-87 -225 -312 -225zM543 -29q-250 0 -361.5 135.5t-68.5 374.5l88 500q43 244 192.5 373t397.5 129
q211 0 315 -87t123 -266q4 -19 1.5 -26t-16.5 -12l-43 -13q-22 -6 -28 21q-12 152 -95.5 223.5t-261.5 71.5q-208 0 -332 -110t-159 -310l-88 -498q-34 -198 53.5 -308t290.5 -110q200 0 327 108t160 298l33 182h-399q-24 0 -21 29l6 35q5 24 31 24h463q29 0 20 -30
l-41 -244q-40 -228 -194 -359t-393 -131z" />
    <glyph glyph-name="Gdotaccent" unicode="&#x120;" horiz-adv-x="1314" 
d="M825 1651q-28 0 -37 12t-4 41l2 10q6 28 16 36.5t38 8.5h10q28 0 37.5 -11.5t5.5 -39.5l-2 -10q-6 -28 -17 -37.5t-38 -9.5h-11zM543 -29q-250 0 -361.5 135.5t-68.5 374.5l88 500q43 244 192.5 373t397.5 129q211 0 315 -87t123 -266q4 -19 1.5 -26t-16.5 -12l-43 -13
q-22 -6 -28 21q-12 152 -95.5 223.5t-261.5 71.5q-208 0 -332 -110t-159 -310l-88 -498q-34 -198 53.5 -308t290.5 -110q200 0 327 108t160 298l33 182h-399q-24 0 -21 29l6 35q5 24 31 24h463q29 0 20 -30l-41 -244q-40 -228 -194 -359t-393 -131z" />
    <glyph glyph-name="Gdotaccent" unicode="&#x121;" horiz-adv-x="1314" 
d="M825 1651q-28 0 -37 12t-4 41l2 10q6 28 16 36.5t38 8.5h10q28 0 37.5 -11.5t5.5 -39.5l-2 -10q-6 -28 -17 -37.5t-38 -9.5h-11zM543 -29q-250 0 -361.5 135.5t-68.5 374.5l88 500q43 244 192.5 373t397.5 129q211 0 315 -87t123 -266q4 -19 1.5 -26t-16.5 -12l-43 -13
q-22 -6 -28 21q-12 152 -95.5 223.5t-261.5 71.5q-208 0 -332 -110t-159 -310l-88 -498q-34 -198 53.5 -308t290.5 -110q200 0 327 108t160 298l33 182h-399q-24 0 -21 29l6 35q5 24 31 24h463q29 0 20 -30l-41 -244q-40 -228 -194 -359t-393 -131z" />
    <glyph glyph-name="uni0122" unicode="&#x122;" horiz-adv-x="1314" 
d="M543 -29q-250 0 -361.5 135.5t-68.5 374.5l88 500q43 244 192.5 373t397.5 129q211 0 315 -87t123 -266q4 -19 1.5 -26t-16.5 -12l-43 -13q-22 -6 -28 21q-12 152 -95.5 223.5t-261.5 71.5q-208 0 -332 -110t-159 -310l-88 -498q-34 -198 53.5 -308t290.5 -110
q200 0 327 108t160 298l33 182h-399q-24 0 -21 29l6 35q5 24 31 24h463q29 0 20 -30l-41 -244q-40 -228 -194 -359t-393 -131zM354 -504q-23 0 -16 23l135 299q5 22 31 22h39q34 0 20 -28l-149 -293q-10 -23 -33 -23h-27z" />
    <glyph glyph-name="uni0122" unicode="&#x123;" horiz-adv-x="1314" 
d="M543 -29q-250 0 -361.5 135.5t-68.5 374.5l88 500q43 244 192.5 373t397.5 129q211 0 315 -87t123 -266q4 -19 1.5 -26t-16.5 -12l-43 -13q-22 -6 -28 21q-12 152 -95.5 223.5t-261.5 71.5q-208 0 -332 -110t-159 -310l-88 -498q-34 -198 53.5 -308t290.5 -110
q200 0 327 108t160 298l33 182h-399q-24 0 -21 29l6 35q5 24 31 24h463q29 0 20 -30l-41 -244q-40 -228 -194 -359t-393 -131zM354 -504q-23 0 -16 23l135 299q5 22 31 22h39q34 0 20 -28l-149 -293q-10 -23 -33 -23h-27z" />
    <glyph glyph-name="Hcircumflex" unicode="&#x124;" horiz-adv-x="1372" 
d="M557 1567q-16 0 -19 7.5t7 14.5l284 234q21 16 39 16h21q14 0 21 -3t16 -15l200 -236q14 -18 -12 -18h-39q-24 0 -35 16l-166 193l-237 -197q-14 -12 -41 -12h-39zM98 0q-14 0 -18.5 5.5t-3.5 23.5l248 1401q3 14 9 19t19 5h45q27 0 21 -27l-113 -645h782l115 648
q3 15 9 19.5t20 4.5h45q23 0 20 -27l-247 -1400q-3 -15 -8.5 -21t-18.5 -6h-45q-15 0 -20.5 6t-2.5 21l119 665h-784l-119 -669q-3 -23 -25 -23h-47z" />
    <glyph glyph-name="Hcircumflex" unicode="&#x125;" horiz-adv-x="1372" 
d="M557 1567q-16 0 -19 7.5t7 14.5l284 234q21 16 39 16h21q14 0 21 -3t16 -15l200 -236q14 -18 -12 -18h-39q-24 0 -35 16l-166 193l-237 -197q-14 -12 -41 -12h-39zM98 0q-14 0 -18.5 5.5t-3.5 23.5l248 1401q3 14 9 19t19 5h45q27 0 21 -27l-113 -645h782l115 648
q3 15 9 19.5t20 4.5h45q23 0 20 -27l-247 -1400q-3 -15 -8.5 -21t-18.5 -6h-45q-15 0 -20.5 6t-2.5 21l119 665h-784l-119 -669q-3 -23 -25 -23h-47z" />
    <glyph glyph-name="Hbar" unicode="&#x126;" horiz-adv-x="1376" 
d="M96 0q-13 0 -16.5 6.5t-1.5 22.5l194 1104h-129q-12 0 -15.5 5.5t-0.5 18.5l4 21q1 11 5 14.5t14 3.5h135l41 236q5 22 28 22h45q13 0 18 -6t3 -21l-39 -231h782l41 236q5 22 29 22h45q23 0 20 -29l-41 -229h134q17 0 14 -22l-4 -23q-2 -11 -5.5 -14.5t-13.5 -3.5h-137
l-194 -1110q-5 -23 -29 -23h-47q-25 0 -19 29l117 663h-782l-119 -669q-5 -23 -27 -23h-49zM1090 782l61 351h-782l-64 -351h785z" />
    <glyph glyph-name="Hbar" unicode="&#x127;" horiz-adv-x="1376" 
d="M96 0q-13 0 -16.5 6.5t-1.5 22.5l194 1104h-129q-12 0 -15.5 5.5t-0.5 18.5l4 21q1 11 5 14.5t14 3.5h135l41 236q5 22 28 22h45q13 0 18 -6t3 -21l-39 -231h782l41 236q5 22 29 22h45q23 0 20 -29l-41 -229h134q17 0 14 -22l-4 -23q-2 -11 -5.5 -14.5t-13.5 -3.5h-137
l-194 -1110q-5 -23 -29 -23h-47q-25 0 -19 29l117 663h-782l-119 -669q-5 -23 -27 -23h-49zM1090 782l61 351h-782l-64 -351h785z" />
    <glyph glyph-name="Itilde" unicode="&#x128;" horiz-adv-x="495" 
d="M133 1585q-17 0 -14 29q12 84 57 133t111 49q37 0 67.5 -15t50.5 -37t38.5 -43.5t42 -36.5t51.5 -15q44 0 74.5 36.5t39.5 96.5q3 14 15 14h30q18 0 15 -27q-15 -86 -57.5 -135t-108.5 -49q-37 0 -66.5 15t-49.5 37t-39 44t-43.5 37t-53.5 15q-41 0 -74 -36.5t-43 -94.5
q0 -17 -14 -17h-29zM96 0q-13 0 -17 7t-1 24l246 1401q4 22 32 22h41q14 0 19.5 -6t1.5 -23l-248 -1400q-3 -25 -27 -25h-47z" />
    <glyph glyph-name="Itilde" unicode="&#x129;" horiz-adv-x="495" 
d="M133 1585q-17 0 -14 29q12 84 57 133t111 49q37 0 67.5 -15t50.5 -37t38.5 -43.5t42 -36.5t51.5 -15q44 0 74.5 36.5t39.5 96.5q3 14 15 14h30q18 0 15 -27q-15 -86 -57.5 -135t-108.5 -49q-37 0 -66.5 15t-49.5 37t-39 44t-43.5 37t-53.5 15q-41 0 -74 -36.5t-43 -94.5
q0 -17 -14 -17h-29zM96 0q-13 0 -17 7t-1 24l246 1401q4 22 32 22h41q14 0 19.5 -6t1.5 -23l-248 -1400q-3 -25 -27 -25h-47z" />
    <glyph glyph-name="Imacron" unicode="&#x12a;" horiz-adv-x="495" 
d="M184 1651q-24 0 -18 26l2 21q2 20 29 20h450q26 0 21 -24l-2 -21q-6 -22 -27 -22h-455zM96 0q-13 0 -17 7t-1 24l246 1401q4 22 32 22h41q14 0 19.5 -6t1.5 -23l-248 -1400q-3 -25 -27 -25h-47z" />
    <glyph glyph-name="Imacron" unicode="&#x12b;" horiz-adv-x="495" 
d="M184 1651q-24 0 -18 26l2 21q2 20 29 20h450q26 0 21 -24l-2 -21q-6 -22 -27 -22h-455zM96 0q-13 0 -17 7t-1 24l246 1401q4 22 32 22h41q14 0 19.5 -6t1.5 -23l-248 -1400q-3 -25 -27 -25h-47z" />
    <glyph glyph-name="Ibreve" unicode="&#x12c;" horiz-adv-x="495" 
d="M401 1567q-223 0 -235 231q-6 17 8 23l35 8q10 3 14.5 0.5t7.5 -14.5q3 -87 49 -133t126 -46q85 0 142.5 43t96.5 142q10 13 25 8l35 -12q16 -3 8 -25q-87 -225 -312 -225zM96 0q-13 0 -17 7t-1 24l246 1401q4 22 32 22h41q14 0 19.5 -6t1.5 -23l-248 -1400
q-3 -25 -27 -25h-47z" />
    <glyph glyph-name="Ibreve" unicode="&#x12d;" horiz-adv-x="495" 
d="M401 1567q-223 0 -235 231q-6 17 8 23l35 8q10 3 14.5 0.5t7.5 -14.5q3 -87 49 -133t126 -46q85 0 142.5 43t96.5 142q10 13 25 8l35 -12q16 -3 8 -25q-87 -225 -312 -225zM96 0q-13 0 -17 7t-1 24l246 1401q4 22 32 22h41q14 0 19.5 -6t1.5 -23l-248 -1400
q-3 -25 -27 -25h-47z" />
    <glyph glyph-name="Iogonek" unicode="&#x12e;" horiz-adv-x="495" 
d="M6 -506q-52 0 -82.5 26.5t-34.5 76.5q-14 184 207 405q-16 1 -18 10.5t4 34.5l242 1385q3 13 9.5 17.5t20.5 4.5h43q27 0 21 -29l-246 -1398q-4 -25 -8 -29q-208 -224 -195 -377q2 -57 64 -57q65 0 127 59q8 5 14 -8l10 -31q5 -11 -6 -22q-75 -68 -172 -68z" />
    <glyph glyph-name="Iogonek" unicode="&#x12f;" horiz-adv-x="495" 
d="M6 -506q-52 0 -82.5 26.5t-34.5 76.5q-14 184 207 405q-16 1 -18 10.5t4 34.5l242 1385q3 13 9.5 17.5t20.5 4.5h43q27 0 21 -29l-246 -1398q-4 -25 -8 -29q-208 -224 -195 -377q2 -57 64 -57q65 0 127 59q8 5 14 -8l10 -31q5 -11 -6 -22q-75 -68 -172 -68z" />
    <glyph glyph-name="Idotaccent" unicode="&#x130;" horiz-adv-x="495" 
d="M403 1630q-28 0 -37 12t-4 41l3 11q6 28 16 36.5t37 8.5h10q28 0 37.5 -11.5t5.5 -39.5l-2 -11q-6 -28 -17 -37.5t-38 -9.5h-11zM96 0q-13 0 -17 7t-1 24l246 1401q4 22 32 22h41q14 0 19.5 -6t1.5 -23l-248 -1400q-3 -25 -27 -25h-47z" />
    <glyph glyph-name="IJ" unicode="&#x132;" horiz-adv-x="1574" 
d="M96 0q-13 0 -17 7t-1 24l246 1401q4 22 32 22h41q14 0 19.5 -6t1.5 -23l-248 -1400q-3 -25 -27 -25h-47zM817 -29q-365 0 -368 410q-4 26 16 31l47 10q12 3 18 -1.5t9 -21.5q-2 -169 66.5 -253.5t221.5 -84.5q168 0 275 105t139 283l174 983q2 22 27 22h47q24 0 18 -27
l-172 -985q-41 -223 -173 -347t-345 -124z" />
    <glyph glyph-name="IJ" unicode="&#x133;" horiz-adv-x="1574" 
d="M96 0q-13 0 -17 7t-1 24l246 1401q4 22 32 22h41q14 0 19.5 -6t1.5 -23l-248 -1400q-3 -25 -27 -25h-47zM817 -29q-365 0 -368 410q-4 26 16 31l47 10q12 3 18 -1.5t9 -21.5q-2 -169 66.5 -253.5t221.5 -84.5q168 0 275 105t139 283l174 983q2 22 27 22h47q24 0 18 -27
l-172 -985q-41 -223 -173 -347t-345 -124z" />
    <glyph glyph-name="Jcircumflex" unicode="&#x134;" horiz-adv-x="1142" 
d="M776 1567q-16 0 -19 7.5t7 14.5l285 234q21 16 38 16h21q24 0 37 -18l201 -236q14 -18 -13 -18h-39q-23 0 -34 16l-166 193l-238 -197q-14 -12 -41 -12h-39zM385 -29q-364 0 -367 410q-7 25 15 31l49 10q12 3 17.5 -1.5t9.5 -21.5q-2 -169 65.5 -253.5t220.5 -84.5
q169 0 276 104.5t140 283.5l172 983q5 22 27 22h49q21 0 18 -27l-172 -985q-41 -223 -173.5 -347t-346.5 -124z" />
    <glyph glyph-name="Jcircumflex" unicode="&#x135;" horiz-adv-x="1142" 
d="M776 1567q-16 0 -19 7.5t7 14.5l285 234q21 16 38 16h21q24 0 37 -18l201 -236q14 -18 -13 -18h-39q-23 0 -34 16l-166 193l-238 -197q-14 -12 -41 -12h-39zM385 -29q-364 0 -367 410q-7 25 15 31l49 10q12 3 17.5 -1.5t9.5 -21.5q-2 -169 65.5 -253.5t220.5 -84.5
q169 0 276 104.5t140 283.5l172 983q5 22 27 22h49q21 0 18 -27l-172 -985q-41 -223 -173.5 -347t-346.5 -124z" />
    <glyph glyph-name="uni0136" unicode="&#x136;" horiz-adv-x="1210" 
d="M98 0q-14 0 -18.5 6t-3.5 23l248 1403q5 22 28 22h45q27 0 21 -27l-115 -647h285l542 654q10 13 18.5 16.5t29.5 3.5h51q31 0 14 -29l-565 -665q77 -19 118.5 -72.5t69.5 -152.5l146 -510q7 -25 -17 -25h-51q-18 0 -24 5t-9 20l-131 477q-29 107 -77 149.5t-156 42.5
h-258l-119 -671q-5 -23 -25 -23h-47zM346 -504q-23 0 -16 23l135 299q5 22 31 22h39q34 0 20 -28l-149 -293q-10 -23 -33 -23h-27z" />
    <glyph glyph-name="uni0136" unicode="&#x137;" horiz-adv-x="1210" 
d="M98 0q-14 0 -18.5 6t-3.5 23l248 1403q5 22 28 22h45q27 0 21 -27l-115 -647h285l542 654q10 13 18.5 16.5t29.5 3.5h51q31 0 14 -29l-565 -665q77 -19 118.5 -72.5t69.5 -152.5l146 -510q7 -25 -17 -25h-51q-18 0 -24 5t-9 20l-131 477q-29 107 -77 149.5t-156 42.5
h-258l-119 -671q-5 -23 -25 -23h-47zM346 -504q-23 0 -16 23l135 299q5 22 31 22h39q34 0 20 -28l-149 -293q-10 -23 -33 -23h-27z" />
    <glyph glyph-name="Lacute" unicode="&#x139;" horiz-adv-x="1042" 
d="M227 1587q-6 8 -4 16t10 13l322 217q26 14 41 -6l16 -23q17 -17 -4 -28l-338 -209q-19 -9 -32 4zM96 0q-23 0 -20 29l248 1403q5 22 28 22h47q25 0 19 -27l-236 -1339h662q28 0 22 -27l-6 -38q-6 -23 -26 -23h-738z" />
    <glyph glyph-name="Lacute" unicode="&#x13a;" horiz-adv-x="1042" 
d="M227 1587q-6 8 -4 16t10 13l322 217q26 14 41 -6l16 -23q17 -17 -4 -28l-338 -209q-19 -9 -32 4zM96 0q-23 0 -20 29l248 1403q5 22 28 22h47q25 0 19 -27l-236 -1339h662q28 0 22 -27l-6 -38q-6 -23 -26 -23h-738z" />
    <glyph glyph-name="uni013B" unicode="&#x13b;" horiz-adv-x="1042" 
d="M96 0q-23 0 -20 29l248 1403q5 22 28 22h47q25 0 19 -27l-236 -1339h662q28 0 22 -27l-6 -38q-6 -23 -26 -23h-738zM274 -504q-23 0 -16 23l135 299q5 22 31 22h39q34 0 20 -28l-149 -293q-10 -23 -33 -23h-27z" />
    <glyph glyph-name="uni013B" unicode="&#x13c;" horiz-adv-x="1042" 
d="M96 0q-23 0 -20 29l248 1403q5 22 28 22h47q25 0 19 -27l-236 -1339h662q28 0 22 -27l-6 -38q-6 -23 -26 -23h-738zM274 -504q-23 0 -16 23l135 299q5 22 31 22h39q34 0 20 -28l-149 -293q-10 -23 -33 -23h-27z" />
    <glyph glyph-name="Lcaron" unicode="&#x13d;" horiz-adv-x="1042" 
d="M96 0q-23 0 -20 29l248 1403q5 22 28 22h47q25 0 19 -27l-236 -1339h662q28 0 22 -27l-6 -38q-6 -23 -26 -23h-738zM696 1030q-25 0 -16 25l147 377q6 15 12 18.5t23 3.5h39q35 0 21 -31l-166 -370q-8 -15 -13 -19t-20 -4h-27z" />
    <glyph glyph-name="Lcaron" unicode="&#x13e;" horiz-adv-x="1042" 
d="M96 0q-23 0 -20 29l248 1403q5 22 28 22h47q25 0 19 -27l-236 -1339h662q28 0 22 -27l-6 -38q-6 -23 -26 -23h-738zM696 1030q-25 0 -16 25l147 377q6 15 12 18.5t23 3.5h39q35 0 21 -31l-166 -370q-8 -15 -13 -19t-20 -4h-27z" />
    <glyph glyph-name="Ldot" unicode="&#x13f;" horiz-adv-x="1042" 
d="M96 0q-23 0 -20 29l248 1403q5 22 28 22h47q25 0 19 -27l-236 -1339h662q28 0 22 -27l-6 -38q-6 -23 -26 -23h-738zM676 659q-33 0 -44.5 14t-4.5 48l2 10q8 34 20.5 45.5t44.5 11.5h13q32 0 43.5 -14.5t5.5 -46.5l-2 -10q-8 -34 -21 -46t-45 -12h-12z" />
    <glyph glyph-name="Ldot" unicode="&#x140;" horiz-adv-x="1042" 
d="M96 0q-23 0 -20 29l248 1403q5 22 28 22h47q25 0 19 -27l-236 -1339h662q28 0 22 -27l-6 -38q-6 -23 -26 -23h-738zM676 659q-33 0 -44.5 14t-4.5 48l2 10q8 34 20.5 45.5t44.5 11.5h13q32 0 43.5 -14.5t5.5 -46.5l-2 -10q-8 -34 -21 -46t-45 -12h-12z" />
    <glyph glyph-name="Lslash" unicode="&#x141;" horiz-adv-x="1087" 
d="M129 0q-26 0 -20 27l102 581l-174 -86q-22 -10 -29 10l-10 31q-6 19 10 25l217 104l131 740q3 14 8.5 18t20.5 4h43q27 0 21 -29l-121 -690l475 230q19 10 26 -11l11 -30q6 -14 -11 -25l-516 -246l-100 -565h664q14 0 18.5 -6t1.5 -23l-6 -36q-3 -13 -9 -18t-20 -5h-733z
" />
    <glyph glyph-name="Lslash" unicode="&#x142;" horiz-adv-x="1087" 
d="M129 0q-26 0 -20 27l102 581l-174 -86q-22 -10 -29 10l-10 31q-6 19 10 25l217 104l131 740q3 14 8.5 18t20.5 4h43q27 0 21 -29l-121 -690l475 230q19 10 26 -11l11 -30q6 -14 -11 -25l-516 -246l-100 -565h664q14 0 18.5 -6t1.5 -23l-6 -36q-3 -13 -9 -18t-20 -5h-733z
" />
    <glyph glyph-name="Nacute" unicode="&#x143;" horiz-adv-x="1390" 
d="M676 1587q-6 8 -4 16t10 13l322 217q25 14 40 -6l17 -23q17 -17 -4 -28l-338 -209q-20 -9 -33 4zM96 0q-23 0 -20 27l248 1405q5 22 28 22h49q22 0 27 -16l457 -1010q24 -55 119 -293h4q28 242 51 373l164 926q3 20 30 20h43q25 0 19 -29l-248 -1400q-3 -14 -8 -19.5
t-19 -5.5h-49q-18 0 -26 18l-469 1035q-66 155 -105 264h-4q-27 -207 -49 -338l-170 -956q-5 -23 -29 -23h-43z" />
    <glyph glyph-name="Nacute" unicode="&#x144;" horiz-adv-x="1390" 
d="M676 1587q-6 8 -4 16t10 13l322 217q25 14 40 -6l17 -23q17 -17 -4 -28l-338 -209q-20 -9 -33 4zM96 0q-23 0 -20 27l248 1405q5 22 28 22h49q22 0 27 -16l457 -1010q24 -55 119 -293h4q28 242 51 373l164 926q3 20 30 20h43q25 0 19 -29l-248 -1400q-3 -14 -8 -19.5
t-19 -5.5h-49q-18 0 -26 18l-469 1035q-66 155 -105 264h-4q-27 -207 -49 -338l-170 -956q-5 -23 -29 -23h-43z" />
    <glyph glyph-name="uni0145" unicode="&#x145;" horiz-adv-x="1390" 
d="M96 0q-23 0 -20 27l248 1405q5 22 28 22h49q22 0 27 -16l457 -1010q24 -55 119 -293h4q28 242 51 373l164 926q3 20 30 20h43q25 0 19 -29l-248 -1400q-3 -14 -8 -19.5t-19 -5.5h-49q-18 0 -26 18l-469 1035q-66 155 -105 264h-4q-27 -207 -49 -338l-170 -956
q-5 -23 -29 -23h-43zM383 -504q-23 0 -16 23l135 299q3 13 9.5 17.5t20.5 4.5h39q17 0 22.5 -8t-1.5 -20l-150 -293q-6 -14 -12.5 -18.5t-19.5 -4.5h-27z" />
    <glyph glyph-name="uni0145" unicode="&#x146;" horiz-adv-x="1390" 
d="M96 0q-23 0 -20 27l248 1405q5 22 28 22h49q22 0 27 -16l457 -1010q24 -55 119 -293h4q28 242 51 373l164 926q3 20 30 20h43q25 0 19 -29l-248 -1400q-3 -14 -8 -19.5t-19 -5.5h-49q-18 0 -26 18l-469 1035q-66 155 -105 264h-4q-27 -207 -49 -338l-170 -956
q-5 -23 -29 -23h-43zM383 -504q-23 0 -16 23l135 299q3 13 9.5 17.5t20.5 4.5h39q17 0 22.5 -8t-1.5 -20l-150 -293q-6 -14 -12.5 -18.5t-19.5 -4.5h-27z" />
    <glyph glyph-name="Ncaron" unicode="&#x147;" horiz-adv-x="1390" 
d="M840 1565q-14 0 -22 5t-19 19l-197 232q-18 18 12 18h39q23 0 35 -14l166 -197l238 199q17 12 38 12h39q16 0 19.5 -7.5t-6.5 -14.5l-281 -230q-4 -3 -10.5 -8t-8.5 -6t-6 -3.5t-7 -3t-7 -1t-10 -0.5h-12zM96 0q-23 0 -20 27l248 1405q5 22 28 22h49q22 0 27 -16
l457 -1010q24 -55 119 -293h4q28 242 51 373l164 926q3 20 30 20h43q25 0 19 -29l-248 -1400q-3 -14 -8 -19.5t-19 -5.5h-49q-18 0 -26 18l-469 1035q-66 155 -105 264h-4q-27 -207 -49 -338l-170 -956q-5 -23 -29 -23h-43z" />
    <glyph glyph-name="Ncaron" unicode="&#x148;" horiz-adv-x="1390" 
d="M840 1565q-14 0 -22 5t-19 19l-197 232q-18 18 12 18h39q23 0 35 -14l166 -197l238 199q17 12 38 12h39q16 0 19.5 -7.5t-6.5 -14.5l-281 -230q-4 -3 -10.5 -8t-8.5 -6t-6 -3.5t-7 -3t-7 -1t-10 -0.5h-12zM96 0q-23 0 -20 27l248 1405q5 22 28 22h49q22 0 27 -16
l457 -1010q24 -55 119 -293h4q28 242 51 373l164 926q3 20 30 20h43q25 0 19 -29l-248 -1400q-3 -14 -8 -19.5t-19 -5.5h-49q-18 0 -26 18l-469 1035q-66 155 -105 264h-4q-27 -207 -49 -338l-170 -956q-5 -23 -29 -23h-43z" />
    <glyph glyph-name="Eng" unicode="&#x14a;" horiz-adv-x="1390" 
d="M592 -471q-28 0 -25 27l6 34q3 14 7.5 18.5t15.5 4.5q171 0 254.5 87t114.5 265l6 39l-475 1049q-39 92 -105 264l-4 -2q-31 -232 -49 -336l-170 -956q-5 -23 -29 -23h-43q-23 0 -20 29l248 1403q3 13 8.5 17.5t19.5 4.5h49q22 0 27 -16l457 -1010q21 -46 119 -293h6
q19 190 51 373l162 924q3 13 9 17.5t21 4.5h43q25 0 19 -29l-262 -1478q-37 -215 -142.5 -316.5t-318.5 -101.5z" />
    <glyph glyph-name="Eng" unicode="&#x14b;" horiz-adv-x="1390" 
d="M592 -471q-28 0 -25 27l6 34q3 14 7.5 18.5t15.5 4.5q171 0 254.5 87t114.5 265l6 39l-475 1049q-39 92 -105 264l-4 -2q-31 -232 -49 -336l-170 -956q-5 -23 -29 -23h-43q-23 0 -20 29l248 1403q3 13 8.5 17.5t19.5 4.5h49q22 0 27 -16l457 -1010q21 -46 119 -293h6
q19 190 51 373l162 924q3 13 9 17.5t21 4.5h43q25 0 19 -29l-262 -1478q-37 -215 -142.5 -316.5t-318.5 -101.5z" />
    <glyph glyph-name="Omacron" unicode="&#x14c;" horiz-adv-x="1333" 
d="M606 1671q-24 0 -18 27l2 20q2 21 28 21h451q27 0 21 -25l-3 -20q-6 -23 -26 -23h-455zM543 -29q-252 0 -362 134t-68 374l88 500q42 239 193.5 371.5t398.5 132.5q248 0 359 -134t69 -374l-88 -500q-40 -240 -192 -372t-398 -132zM547 59q202 0 329 109.5t164 312.5
l86 498q35 200 -51.5 308t-286.5 108q-203 0 -331 -111.5t-162 -310.5l-88 -496q-34 -198 53.5 -308t286.5 -110z" />
    <glyph glyph-name="Omacron" unicode="&#x14d;" horiz-adv-x="1333" 
d="M606 1671q-24 0 -18 27l2 20q2 21 28 21h451q27 0 21 -25l-3 -20q-6 -23 -26 -23h-455zM543 -29q-252 0 -362 134t-68 374l88 500q42 239 193.5 371.5t398.5 132.5q248 0 359 -134t69 -374l-88 -500q-40 -240 -192 -372t-398 -132zM547 59q202 0 329 109.5t164 312.5
l86 498q35 200 -51.5 308t-286.5 108q-203 0 -331 -111.5t-162 -310.5l-88 -496q-34 -198 53.5 -308t286.5 -110z" />
    <glyph glyph-name="Obreve" unicode="&#x14e;" horiz-adv-x="1333" 
d="M825 1587q-223 0 -235 232q-6 17 8 22l35 8q10 3 14.5 0.5t7.5 -14.5q3 -87 48.5 -132.5t125.5 -45.5q86 0 143.5 42.5t96.5 141.5q10 13 25 8l34 -12q17 -3 9 -25q-87 -225 -312 -225zM543 -29q-252 0 -362 134t-68 374l88 500q42 239 193.5 371.5t398.5 132.5
q248 0 359 -134t69 -374l-88 -500q-40 -240 -192 -372t-398 -132zM547 59q202 0 329 109.5t164 312.5l86 498q35 200 -51.5 308t-286.5 108q-203 0 -331 -111.5t-162 -310.5l-88 -496q-34 -198 53.5 -308t286.5 -110z" />
    <glyph glyph-name="Obreve" unicode="&#x14f;" horiz-adv-x="1333" 
d="M825 1587q-223 0 -235 232q-6 17 8 22l35 8q10 3 14.5 0.5t7.5 -14.5q3 -87 48.5 -132.5t125.5 -45.5q86 0 143.5 42.5t96.5 141.5q10 13 25 8l34 -12q17 -3 9 -25q-87 -225 -312 -225zM543 -29q-252 0 -362 134t-68 374l88 500q42 239 193.5 371.5t398.5 132.5
q248 0 359 -134t69 -374l-88 -500q-40 -240 -192 -372t-398 -132zM547 59q202 0 329 109.5t164 312.5l86 498q35 200 -51.5 308t-286.5 108q-203 0 -331 -111.5t-162 -310.5l-88 -496q-34 -198 53.5 -308t286.5 -110z" />
    <glyph glyph-name="Ohungarumlaut" unicode="&#x150;" horiz-adv-x="1333" 
d="M578 1589q-24 10 -7 27l226 233q20 20 37 13l30 -13q27 -12 6 -26l-245 -232q-15 -15 -31 -8zM897 1593q-11 3 -13 10.5t5 16.5l229 225q17 20 37 13l33 -11q25 -12 6 -28l-250 -224q-16 -14 -31 -8zM543 -29q-252 0 -362 134t-68 374l88 500q42 239 193.5 371.5
t398.5 132.5q248 0 359 -134t69 -374l-88 -500q-40 -240 -192 -372t-398 -132zM547 59q202 0 329 109.5t164 312.5l86 498q35 200 -51.5 308t-286.5 108q-203 0 -331 -111.5t-162 -310.5l-88 -496q-34 -198 53.5 -308t286.5 -110z" />
    <glyph glyph-name="Ohungarumlaut" unicode="&#x151;" horiz-adv-x="1333" 
d="M578 1589q-24 10 -7 27l226 233q20 20 37 13l30 -13q27 -12 6 -26l-245 -232q-15 -15 -31 -8zM897 1593q-11 3 -13 10.5t5 16.5l229 225q17 20 37 13l33 -11q25 -12 6 -28l-250 -224q-16 -14 -31 -8zM543 -29q-252 0 -362 134t-68 374l88 500q42 239 193.5 371.5
t398.5 132.5q248 0 359 -134t69 -374l-88 -500q-40 -240 -192 -372t-398 -132zM547 59q202 0 329 109.5t164 312.5l86 498q35 200 -51.5 308t-286.5 108q-203 0 -331 -111.5t-162 -310.5l-88 -496q-34 -198 53.5 -308t286.5 -110z" />
    <glyph glyph-name="OE" unicode="&#x152;" horiz-adv-x="1724" 
d="M555 -31q-254 0 -369 136t-73 374l88 500q42 239 199 372.5t411 133.5q121 0 223 -31h652q24 0 18 -29l-6 -36q-3 -13 -8.5 -18t-16.5 -5h-588l-102 -586h498q27 0 22 -26l-6 -39q-3 -23 -24 -23h-506l-105 -604h606q29 0 23 -27l-8 -38q-3 -13 -8 -18t-17 -5h-674
q-124 -31 -229 -31zM561 57q115 0 205 29l231 1282q-85 29 -192 29q-210 0 -343 -112.5t-167 -311.5l-88 -498q-34 -197 58.5 -307.5t295.5 -110.5z" />
    <glyph glyph-name="OE" unicode="&#x153;" horiz-adv-x="1724" 
d="M555 -31q-254 0 -369 136t-73 374l88 500q42 239 199 372.5t411 133.5q121 0 223 -31h652q24 0 18 -29l-6 -36q-3 -13 -8.5 -18t-16.5 -5h-588l-102 -586h498q27 0 22 -26l-6 -39q-3 -23 -24 -23h-506l-105 -604h606q29 0 23 -27l-8 -38q-3 -13 -8 -18t-17 -5h-674
q-124 -31 -229 -31zM561 57q115 0 205 29l231 1282q-85 29 -192 29q-210 0 -343 -112.5t-167 -311.5l-88 -498q-34 -197 58.5 -307.5t295.5 -110.5z" />
    <glyph glyph-name="Racute" unicode="&#x154;" horiz-adv-x="1294" 
d="M612 1587q-6 8 -4 16t10 13l322 217q26 14 41 -6l16 -23q17 -17 -4 -28l-338 -209q-19 -9 -32 4zM96 0q-14 0 -18 7t-2 22l248 1403q3 13 9.5 17.5t20.5 4.5h533q174 0 260 -103.5t61 -289.5q-24 -178 -131.5 -284.5t-273.5 -123.5q50 -24 79.5 -65.5t49.5 -108.5
l129 -454q3 -14 -0.5 -19.5t-16.5 -5.5h-45q-20 0 -26.5 5t-9.5 20l-121 421q-30 107 -82.5 151t-161.5 44h-319l-109 -616q-3 -25 -27 -25h-47zM754 725q145 0 240 88t120 246q23 146 -42 226.5t-204 80.5h-460l-113 -641h459z" />
    <glyph glyph-name="Racute" unicode="&#x155;" horiz-adv-x="1294" 
d="M612 1587q-6 8 -4 16t10 13l322 217q26 14 41 -6l16 -23q17 -17 -4 -28l-338 -209q-19 -9 -32 4zM96 0q-14 0 -18 7t-2 22l248 1403q3 13 9.5 17.5t20.5 4.5h533q174 0 260 -103.5t61 -289.5q-24 -178 -131.5 -284.5t-273.5 -123.5q50 -24 79.5 -65.5t49.5 -108.5
l129 -454q3 -14 -0.5 -19.5t-16.5 -5.5h-45q-20 0 -26.5 5t-9.5 20l-121 421q-30 107 -82.5 151t-161.5 44h-319l-109 -616q-3 -25 -27 -25h-47zM754 725q145 0 240 88t120 246q23 146 -42 226.5t-204 80.5h-460l-113 -641h459z" />
    <glyph glyph-name="uni0156" unicode="&#x156;" horiz-adv-x="1294" 
d="M96 0q-14 0 -18 7t-2 22l248 1403q3 13 9.5 17.5t20.5 4.5h533q174 0 260 -103.5t61 -289.5q-24 -178 -131.5 -284.5t-273.5 -123.5q50 -24 79.5 -65.5t49.5 -108.5l129 -454q3 -14 -0.5 -19.5t-16.5 -5.5h-45q-20 0 -26.5 5t-9.5 20l-121 421q-30 107 -82.5 151
t-161.5 44h-319l-109 -616q-3 -25 -27 -25h-47zM754 725q145 0 240 88t120 246q23 146 -42 226.5t-204 80.5h-460l-113 -641h459zM373 -504q-24 0 -17 23l136 299q3 13 9.5 17.5t20.5 4.5h39q17 0 22.5 -8t-1.5 -20l-150 -293q-10 -23 -33 -23h-26z" />
    <glyph glyph-name="uni0156" unicode="&#x157;" horiz-adv-x="1294" 
d="M96 0q-14 0 -18 7t-2 22l248 1403q3 13 9.5 17.5t20.5 4.5h533q174 0 260 -103.5t61 -289.5q-24 -178 -131.5 -284.5t-273.5 -123.5q50 -24 79.5 -65.5t49.5 -108.5l129 -454q3 -14 -0.5 -19.5t-16.5 -5.5h-45q-20 0 -26.5 5t-9.5 20l-121 421q-30 107 -82.5 151
t-161.5 44h-319l-109 -616q-3 -25 -27 -25h-47zM754 725q145 0 240 88t120 246q23 146 -42 226.5t-204 80.5h-460l-113 -641h459zM373 -504q-24 0 -17 23l136 299q3 13 9.5 17.5t20.5 4.5h39q17 0 22.5 -8t-1.5 -20l-150 -293q-10 -23 -33 -23h-26z" />
    <glyph glyph-name="Rcaron" unicode="&#x158;" horiz-adv-x="1294" 
d="M776 1565q-14 0 -22 5t-19 19l-196 232q-18 18 12 18h39q23 0 35 -14l166 -197l237 199q17 12 39 12h39q16 0 19 -7.5t-7 -14.5l-280 -230q-3 -2 -9 -6.5l-8 -6t-6 -4t-5.5 -3t-5.5 -1.5t-7.5 -1h-8.5h-12zM96 0q-14 0 -18 7t-2 22l248 1403q3 13 9.5 17.5t20.5 4.5h533
q174 0 260 -103.5t61 -289.5q-24 -178 -131.5 -284.5t-273.5 -123.5q50 -24 79.5 -65.5t49.5 -108.5l129 -454q3 -14 -0.5 -19.5t-16.5 -5.5h-45q-20 0 -26.5 5t-9.5 20l-121 421q-30 107 -82.5 151t-161.5 44h-319l-109 -616q-3 -25 -27 -25h-47zM754 725q145 0 240 88
t120 246q23 146 -42 226.5t-204 80.5h-460l-113 -641h459z" />
    <glyph glyph-name="Rcaron" unicode="&#x159;" horiz-adv-x="1294" 
d="M776 1565q-14 0 -22 5t-19 19l-196 232q-18 18 12 18h39q23 0 35 -14l166 -197l237 199q17 12 39 12h39q16 0 19 -7.5t-7 -14.5l-280 -230q-3 -2 -9 -6.5l-8 -6t-6 -4t-5.5 -3t-5.5 -1.5t-7.5 -1h-8.5h-12zM96 0q-14 0 -18 7t-2 22l248 1403q3 13 9.5 17.5t20.5 4.5h533
q174 0 260 -103.5t61 -289.5q-24 -178 -131.5 -284.5t-273.5 -123.5q50 -24 79.5 -65.5t49.5 -108.5l129 -454q3 -14 -0.5 -19.5t-16.5 -5.5h-45q-20 0 -26.5 5t-9.5 20l-121 421q-30 107 -82.5 151t-161.5 44h-319l-109 -616q-3 -25 -27 -25h-47zM754 725q145 0 240 88
t120 246q23 146 -42 226.5t-204 80.5h-460l-113 -641h459z" />
    <glyph glyph-name="Sacute" unicode="&#x15a;" horiz-adv-x="1257" 
d="M614 1606q-13 16 7 28l321 217q26 14 41 -6l16 -22q7 -8 6 -16t-10 -13l-338 -209q-19 -9 -32 4zM506 -29q-195 0 -305 83t-148 265q-7 17 -5 26t15 13l48 15q12 4 17.5 0.5t10.5 -17.5q33 -155 125 -225t252 -70q201 0 317.5 83t141.5 243q11 69 -3 120t-41 80.5
t-82 50.5t-99 30t-119 20q-106 14 -177.5 34.5t-140 61.5t-96 114.5t-12.5 178.5q25 189 167 297.5t365 108.5q190 0 298.5 -76t154.5 -242q11 -26 -12 -32l-45 -15q-22 -6 -29 12q-40 139 -127.5 201t-245.5 62q-177 0 -292 -83.5t-140 -230.5q-11 -68 4.5 -119.5t44 -81.5
t83.5 -52t102.5 -32t121.5 -20q110 -16 179 -36t135.5 -60t91.5 -111.5t10 -175.5q-28 -204 -173 -312t-392 -108z" />
    <glyph glyph-name="Sacute" unicode="&#x15b;" horiz-adv-x="1257" 
d="M614 1606q-13 16 7 28l321 217q26 14 41 -6l16 -22q7 -8 6 -16t-10 -13l-338 -209q-19 -9 -32 4zM506 -29q-195 0 -305 83t-148 265q-7 17 -5 26t15 13l48 15q12 4 17.5 0.5t10.5 -17.5q33 -155 125 -225t252 -70q201 0 317.5 83t141.5 243q11 69 -3 120t-41 80.5
t-82 50.5t-99 30t-119 20q-106 14 -177.5 34.5t-140 61.5t-96 114.5t-12.5 178.5q25 189 167 297.5t365 108.5q190 0 298.5 -76t154.5 -242q11 -26 -12 -32l-45 -15q-22 -6 -29 12q-40 139 -127.5 201t-245.5 62q-177 0 -292 -83.5t-140 -230.5q-11 -68 4.5 -119.5t44 -81.5
t83.5 -52t102.5 -32t121.5 -20q110 -16 179 -36t135.5 -60t91.5 -111.5t10 -175.5q-28 -204 -173 -312t-392 -108z" />
    <glyph glyph-name="Scircumflex" unicode="&#x15c;" horiz-adv-x="1257" 
d="M506 1585q-16 0 -19 7.5t7 15.5l284 233q22 17 39 17h21q22 0 36 -19l201 -235q15 -19 -12 -19h-39q-24 0 -35 17l-166 192l-237 -197q-14 -12 -41 -12h-39zM506 -29q-195 0 -305 83t-148 265q-7 17 -5 26t15 13l48 15q12 4 17.5 0.5t10.5 -17.5q33 -155 125 -225
t252 -70q201 0 317.5 83t141.5 243q11 69 -3 120t-41 80.5t-82 50.5t-99 30t-119 20q-106 14 -177.5 34.5t-140 61.5t-96 114.5t-12.5 178.5q25 189 167 297.5t365 108.5q190 0 298.5 -76t154.5 -242q11 -26 -12 -32l-45 -15q-22 -6 -29 12q-40 139 -127.5 201t-245.5 62
q-177 0 -292 -83.5t-140 -230.5q-11 -68 4.5 -119.5t44 -81.5t83.5 -52t102.5 -32t121.5 -20q110 -16 179 -36t135.5 -60t91.5 -111.5t10 -175.5q-28 -204 -173 -312t-392 -108z" />
    <glyph glyph-name="Scircumflex" unicode="&#x15d;" horiz-adv-x="1257" 
d="M506 1585q-16 0 -19 7.5t7 15.5l284 233q22 17 39 17h21q22 0 36 -19l201 -235q15 -19 -12 -19h-39q-24 0 -35 17l-166 192l-237 -197q-14 -12 -41 -12h-39zM506 -29q-195 0 -305 83t-148 265q-7 17 -5 26t15 13l48 15q12 4 17.5 0.5t10.5 -17.5q33 -155 125 -225
t252 -70q201 0 317.5 83t141.5 243q11 69 -3 120t-41 80.5t-82 50.5t-99 30t-119 20q-106 14 -177.5 34.5t-140 61.5t-96 114.5t-12.5 178.5q25 189 167 297.5t365 108.5q190 0 298.5 -76t154.5 -242q11 -26 -12 -32l-45 -15q-22 -6 -29 12q-40 139 -127.5 201t-245.5 62
q-177 0 -292 -83.5t-140 -230.5q-11 -68 4.5 -119.5t44 -81.5t83.5 -52t102.5 -32t121.5 -20q110 -16 179 -36t135.5 -60t91.5 -111.5t10 -175.5q-28 -204 -173 -312t-392 -108z" />
    <glyph glyph-name="Scedilla" unicode="&#x15e;" horiz-adv-x="1257" 
d="M1190 1165q11 -26 -12 -32l-45 -15q-22 -6 -29 12q-40 139 -127.5 201t-245.5 62q-177 0 -292 -83.5t-140 -230.5q-11 -68 4.5 -119.5t44 -81.5t83.5 -52t102.5 -32t121.5 -20q110 -16 179 -36t135.5 -60t91.5 -111.5t10 -175.5q-26 -191 -154 -298t-346 -120l-73 -153
q33 7 65 4q67 -5 101.5 -43.5t25.5 -102.5q-13 -95 -77.5 -143.5t-166.5 -48.5q-79 0 -139 47q-17 8 -14 29l4 26q0 7 3.5 9.5t8.5 -0.5q58 -54 131 -54q150 0 170 133q7 46 -19 71.5t-77 27.5q-34 0 -76 -11q-12 -3 -17.5 6.5t-0.5 20.5l90 180h-4q-195 0 -305 83t-148 265
q-7 17 -5 26t15 13l48 15q12 4 17.5 0.5t10.5 -17.5q33 -155 125 -225t252 -70q201 0 317.5 83t141.5 243q11 69 -3 120t-41 80.5t-82 50.5t-99 30t-119 20q-106 14 -177.5 34.5t-140 61.5t-96 114.5t-12.5 178.5q25 189 167 297.5t365 108.5q190 0 298.5 -76t154.5 -242z
" />
    <glyph glyph-name="Scedilla" unicode="&#x15f;" horiz-adv-x="1257" 
d="M1190 1165q11 -26 -12 -32l-45 -15q-22 -6 -29 12q-40 139 -127.5 201t-245.5 62q-177 0 -292 -83.5t-140 -230.5q-11 -68 4.5 -119.5t44 -81.5t83.5 -52t102.5 -32t121.5 -20q110 -16 179 -36t135.5 -60t91.5 -111.5t10 -175.5q-26 -191 -154 -298t-346 -120l-73 -153
q33 7 65 4q67 -5 101.5 -43.5t25.5 -102.5q-13 -95 -77.5 -143.5t-166.5 -48.5q-79 0 -139 47q-17 8 -14 29l4 26q0 7 3.5 9.5t8.5 -0.5q58 -54 131 -54q150 0 170 133q7 46 -19 71.5t-77 27.5q-34 0 -76 -11q-12 -3 -17.5 6.5t-0.5 20.5l90 180h-4q-195 0 -305 83t-148 265
q-7 17 -5 26t15 13l48 15q12 4 17.5 0.5t10.5 -17.5q33 -155 125 -225t252 -70q201 0 317.5 83t141.5 243q11 69 -3 120t-41 80.5t-82 50.5t-99 30t-119 20q-106 14 -177.5 34.5t-140 61.5t-96 114.5t-12.5 178.5q25 189 167 297.5t365 108.5q190 0 298.5 -76t154.5 -242z
" />
    <glyph glyph-name="Scaron" unicode="&#x160;" horiz-adv-x="1257" 
d="M778 1583q-22 0 -41 25l-196 231q-8 6 -6 12.5t18 6.5h39q22 0 35 -15l166 -196l237 198q18 13 39 13h39q16 0 19 -8t-7 -15l-280 -229q-5 -3 -10.5 -7.5t-8 -6.5t-6.5 -4t-7 -3t-7 -1.5t-10 -0.5h-13zM506 -29q-195 0 -305 83t-148 265q-7 17 -5 26t15 13l48 15
q12 4 17.5 0.5t10.5 -17.5q33 -155 125 -225t252 -70q201 0 317.5 83t141.5 243q11 69 -3 120t-41 80.5t-82 50.5t-99 30t-119 20q-106 14 -177.5 34.5t-140 61.5t-96 114.5t-12.5 178.5q25 189 167 297.5t365 108.5q190 0 298.5 -76t154.5 -242q11 -26 -12 -32l-45 -15
q-22 -6 -29 12q-40 139 -127.5 201t-245.5 62q-177 0 -292 -83.5t-140 -230.5q-11 -68 4.5 -119.5t44 -81.5t83.5 -52t102.5 -32t121.5 -20q110 -16 179 -36t135.5 -60t91.5 -111.5t10 -175.5q-28 -204 -173 -312t-392 -108z" />
    <glyph glyph-name="Scaron" unicode="&#x161;" horiz-adv-x="1257" 
d="M778 1583q-22 0 -41 25l-196 231q-8 6 -6 12.5t18 6.5h39q22 0 35 -15l166 -196l237 198q18 13 39 13h39q16 0 19 -8t-7 -15l-280 -229q-5 -3 -10.5 -7.5t-8 -6.5t-6.5 -4t-7 -3t-7 -1.5t-10 -0.5h-13zM506 -29q-195 0 -305 83t-148 265q-7 17 -5 26t15 13l48 15
q12 4 17.5 0.5t10.5 -17.5q33 -155 125 -225t252 -70q201 0 317.5 83t141.5 243q11 69 -3 120t-41 80.5t-82 50.5t-99 30t-119 20q-106 14 -177.5 34.5t-140 61.5t-96 114.5t-12.5 178.5q25 189 167 297.5t365 108.5q190 0 298.5 -76t154.5 -242q11 -26 -12 -32l-45 -15
q-22 -6 -29 12q-40 139 -127.5 201t-245.5 62q-177 0 -292 -83.5t-140 -230.5q-11 -68 4.5 -119.5t44 -81.5t83.5 -52t102.5 -32t121.5 -20q110 -16 179 -36t135.5 -60t91.5 -111.5t10 -175.5q-28 -204 -173 -312t-392 -108z" />
    <glyph glyph-name="Tcaron" unicode="&#x164;" horiz-adv-x="1083" 
d="M686 1565q-14 0 -22 5t-19 19l-196 232q-18 18 12 18h39q23 0 35 -14l165 -197l238 199q17 12 39 12h39q16 0 19 -7.5t-7 -14.5l-280 -230q-3 -2 -9 -6.5l-8 -6t-6 -4t-5.5 -3t-5.5 -1.5t-7.5 -1h-8.5h-12zM393 0q-16 0 -20 6t-2 21l235 1339h-407q-28 0 -23 29l6 37
q7 22 31 22h915q24 0 21 -29l-6 -36q-5 -14 -10.5 -18.5t-18.5 -4.5h-412l-237 -1343q-5 -23 -27 -23h-45z" />
    <glyph glyph-name="Tcaron" unicode="&#x165;" horiz-adv-x="1083" 
d="M686 1565q-14 0 -22 5t-19 19l-196 232q-18 18 12 18h39q23 0 35 -14l165 -197l238 199q17 12 39 12h39q16 0 19 -7.5t-7 -14.5l-280 -230q-3 -2 -9 -6.5l-8 -6t-6 -4t-5.5 -3t-5.5 -1.5t-7.5 -1h-8.5h-12zM393 0q-16 0 -20 6t-2 21l235 1339h-407q-28 0 -23 29l6 37
q7 22 31 22h915q24 0 21 -29l-6 -36q-5 -14 -10.5 -18.5t-18.5 -4.5h-412l-237 -1343q-5 -23 -27 -23h-45z" />
    <glyph glyph-name="Tbar" unicode="&#x166;" horiz-adv-x="1069" 
d="M385 0q-26 0 -23 25l111 616h-283q-22 0 -16 25l4 30q5 17 21 17h284l115 653h-399q-28 0 -23 27l6 39q5 22 29 22h903q13 0 17 -6.5t2 -22.5l-7 -36q-3 -13 -8 -18t-18 -5h-406l-114 -653h280q22 0 17 -23l-5 -31q-1 -12 -5 -15t-15 -3h-285l-110 -618q-5 -23 -29 -23
h-43z" />
    <glyph glyph-name="Tbar" unicode="&#x167;" horiz-adv-x="1069" 
d="M385 0q-26 0 -23 25l111 616h-283q-22 0 -16 25l4 30q5 17 21 17h284l115 653h-399q-28 0 -23 27l6 39q5 22 29 22h903q13 0 17 -6.5t2 -22.5l-7 -36q-3 -13 -8 -18t-18 -5h-406l-114 -653h280q22 0 17 -23l-5 -31q-1 -12 -5 -15t-15 -3h-285l-110 -618q-5 -23 -29 -23
h-43z" />
    <glyph glyph-name="Utilde" unicode="&#x168;" horiz-adv-x="1374" 
d="M571 1585q-17 0 -14 29q12 84 57 133t111 49q37 0 67.5 -15t50.5 -37t38.5 -43.5t42 -36.5t51.5 -15q44 0 75 37t40 96q3 14 14 14h31q17 0 14 -27q-15 -86 -57.5 -135t-108.5 -49q-37 0 -66.5 15t-49.5 37t-39 44t-43.5 37t-53.5 15q-41 0 -74 -36.5t-43 -94.5
q0 -17 -14 -17h-29zM557 -29q-248 0 -351 139t-59 386l166 936q3 13 9 17.5t20 4.5h43q26 0 23 -27l-166 -935q-36 -204 44.5 -318.5t276.5 -114.5q202 0 326 115.5t162 321.5l163 936q4 22 29 22h45q24 0 21 -27l-164 -935q-44 -247 -194 -384t-394 -137z" />
    <glyph glyph-name="Utilde" unicode="&#x169;" horiz-adv-x="1374" 
d="M571 1585q-17 0 -14 29q12 84 57 133t111 49q37 0 67.5 -15t50.5 -37t38.5 -43.5t42 -36.5t51.5 -15q44 0 75 37t40 96q3 14 14 14h31q17 0 14 -27q-15 -86 -57.5 -135t-108.5 -49q-37 0 -66.5 15t-49.5 37t-39 44t-43.5 37t-53.5 15q-41 0 -74 -36.5t-43 -94.5
q0 -17 -14 -17h-29zM557 -29q-248 0 -351 139t-59 386l166 936q3 13 9 17.5t20 4.5h43q26 0 23 -27l-166 -935q-36 -204 44.5 -318.5t276.5 -114.5q202 0 326 115.5t162 321.5l163 936q4 22 29 22h45q24 0 21 -27l-164 -935q-44 -247 -194 -384t-394 -137z" />
    <glyph glyph-name="Umacron" unicode="&#x16a;" horiz-adv-x="1374" 
d="M623 1651q-25 0 -19 26l2 21q2 20 29 20h450q26 0 21 -24l-2 -21q-6 -22 -27 -22h-454zM557 -29q-248 0 -351 139t-59 386l166 936q3 13 9 17.5t20 4.5h43q26 0 23 -27l-166 -935q-36 -204 44.5 -318.5t276.5 -114.5q202 0 326 115.5t162 321.5l163 936q4 22 29 22h45
q24 0 21 -27l-164 -935q-44 -247 -194 -384t-394 -137z" />
    <glyph glyph-name="Umacron" unicode="&#x16b;" horiz-adv-x="1374" 
d="M623 1651q-25 0 -19 26l2 21q2 20 29 20h450q26 0 21 -24l-2 -21q-6 -22 -27 -22h-454zM557 -29q-248 0 -351 139t-59 386l166 936q3 13 9 17.5t20 4.5h43q26 0 23 -27l-166 -935q-36 -204 44.5 -318.5t276.5 -114.5q202 0 326 115.5t162 321.5l163 936q4 22 29 22h45
q24 0 21 -27l-164 -935q-44 -247 -194 -384t-394 -137z" />
    <glyph glyph-name="Ubreve" unicode="&#x16c;" horiz-adv-x="1374" 
d="M842 1567q-224 0 -236 231q-6 17 8 23l35 8q10 3 15 0.5t8 -14.5q3 -87 48.5 -133t125.5 -46q85 0 142.5 43t96.5 142q10 13 25 8l35 -12q16 -3 8 -25q-87 -225 -311 -225zM557 -29q-248 0 -351 139t-59 386l166 936q3 13 9 17.5t20 4.5h43q26 0 23 -27l-166 -935
q-36 -204 44.5 -318.5t276.5 -114.5q202 0 326 115.5t162 321.5l163 936q4 22 29 22h45q24 0 21 -27l-164 -935q-44 -247 -194 -384t-394 -137z" />
    <glyph glyph-name="Ubreve" unicode="&#x16d;" horiz-adv-x="1374" 
d="M842 1567q-224 0 -236 231q-6 17 8 23l35 8q10 3 15 0.5t8 -14.5q3 -87 48.5 -133t125.5 -46q85 0 142.5 43t96.5 142q10 13 25 8l35 -12q16 -3 8 -25q-87 -225 -311 -225zM557 -29q-248 0 -351 139t-59 386l166 936q3 13 9 17.5t20 4.5h43q26 0 23 -27l-166 -935
q-36 -204 44.5 -318.5t276.5 -114.5q202 0 326 115.5t162 321.5l163 936q4 22 29 22h45q24 0 21 -27l-164 -935q-44 -247 -194 -384t-394 -137z" />
    <glyph glyph-name="Uring" unicode="&#x16e;" horiz-adv-x="1374" 
d="M842 1546q-83 0 -126.5 51t-31.5 136q10 87 68.5 140.5t142.5 53.5q82 0 124 -51t30 -137q-10 -86 -67.5 -139.5t-139.5 -53.5zM844 1595q60 0 103 40t52 106q10 61 -18.5 98t-85.5 37q-62 0 -107 -39t-55 -104q-9 -62 22 -100t89 -38zM557 -29q-248 0 -351 139t-59 386
l166 936q3 13 9 17.5t20 4.5h43q26 0 23 -27l-166 -935q-36 -204 44.5 -318.5t276.5 -114.5q202 0 326 115.5t162 321.5l163 936q4 22 29 22h45q24 0 21 -27l-164 -935q-44 -247 -194 -384t-394 -137z" />
    <glyph glyph-name="Uring" unicode="&#x16f;" horiz-adv-x="1374" 
d="M842 1546q-83 0 -126.5 51t-31.5 136q10 87 68.5 140.5t142.5 53.5q82 0 124 -51t30 -137q-10 -86 -67.5 -139.5t-139.5 -53.5zM844 1595q60 0 103 40t52 106q10 61 -18.5 98t-85.5 37q-62 0 -107 -39t-55 -104q-9 -62 22 -100t89 -38zM557 -29q-248 0 -351 139t-59 386
l166 936q3 13 9 17.5t20 4.5h43q26 0 23 -27l-166 -935q-36 -204 44.5 -318.5t276.5 -114.5q202 0 326 115.5t162 321.5l163 936q4 22 29 22h45q24 0 21 -27l-164 -935q-44 -247 -194 -384t-394 -137z" />
    <glyph glyph-name="Uhungarumlaut" unicode="&#x170;" horiz-adv-x="1374" 
d="M594 1569q-22 10 -6 26l225 234q19 19 37 12l31 -12q28 -12 6 -27l-246 -231q-15 -15 -31 -8zM913 1573q-24 7 -8 26l230 226q17 19 36 12l33 -10q26 -13 6 -29l-249 -223q-16 -14 -31 -8zM557 -29q-248 0 -351 139t-59 386l166 936q3 13 9 17.5t20 4.5h43q26 0 23 -27
l-166 -935q-36 -204 44.5 -318.5t276.5 -114.5q202 0 326 115.5t162 321.5l163 936q4 22 29 22h45q24 0 21 -27l-164 -935q-44 -247 -194 -384t-394 -137z" />
    <glyph glyph-name="Uhungarumlaut" unicode="&#x171;" horiz-adv-x="1374" 
d="M594 1569q-22 10 -6 26l225 234q19 19 37 12l31 -12q28 -12 6 -27l-246 -231q-15 -15 -31 -8zM913 1573q-24 7 -8 26l230 226q17 19 36 12l33 -10q26 -13 6 -29l-249 -223q-16 -14 -31 -8zM557 -29q-248 0 -351 139t-59 386l166 936q3 13 9 17.5t20 4.5h43q26 0 23 -27
l-166 -935q-36 -204 44.5 -318.5t276.5 -114.5q202 0 326 115.5t162 321.5l163 936q4 22 29 22h45q24 0 21 -27l-164 -935q-44 -247 -194 -384t-394 -137z" />
    <glyph glyph-name="Uogonek" unicode="&#x172;" horiz-adv-x="1374" 
d="M639 -506q-109 0 -117 103q-15 163 250 419q-91 -45 -215 -45q-249 0 -350.5 139.5t-59.5 385.5l166 936q3 13 9 17.5t20 4.5h45q24 0 21 -27l-166 -935q-36 -203 44.5 -318t276.5 -115q204 0 327 115.5t161 321.5l163 936q4 22 27 22h47q24 0 21 -27l-164 -935
q-49 -268 -232 -418q-139 -114 -228 -245t-83 -208q3 -33 19 -45t45 -12q65 0 127 59q7 5 14 -8l10 -33q2 -10 -6 -18q-39 -36 -86.5 -53t-85.5 -17z" />
    <glyph glyph-name="Uogonek" unicode="&#x173;" horiz-adv-x="1374" 
d="M639 -506q-109 0 -117 103q-15 163 250 419q-91 -45 -215 -45q-249 0 -350.5 139.5t-59.5 385.5l166 936q3 13 9 17.5t20 4.5h45q24 0 21 -27l-166 -935q-36 -203 44.5 -318t276.5 -115q204 0 327 115.5t161 321.5l163 936q4 22 27 22h47q24 0 21 -27l-164 -935
q-49 -268 -232 -418q-139 -114 -228 -245t-83 -208q3 -33 19 -45t45 -12q65 0 127 59q7 5 14 -8l10 -33q2 -10 -6 -18q-39 -36 -86.5 -53t-85.5 -17z" />
    <glyph glyph-name="Wcircumflex" unicode="&#x174;" horiz-adv-x="1796" 
d="M772 1567q-16 0 -19 7.5t7 14.5l284 234q21 16 39 16h21q24 0 37 -18l200 -236q14 -18 -12 -18h-39q-24 0 -35 16l-165 193l-238 -197q-14 -12 -41 -12h-39zM356 0q-28 0 -28 25l-121 1407q-2 14 1.5 18t16.5 4h51q17 0 23 -6t6 -21l88 -1099q8 -74 4 -193h9
q31 95 77 195l482 1073q7 13 14 16.5t22 3.5h41q31 0 31 -26l103 -1073q8 -122 8 -189h6q20 69 72 191l479 1108q6 12 12 16t21 4h51q24 0 14 -29l-614 -1405q-6 -13 -13 -16.5t-22 -3.5h-47q-31 0 -31 25l-102 1079q-9 133 -9 184h-6q-28 -85 -75 -188l-484 -1080
q-4 -13 -11.5 -16.5t-23.5 -3.5h-45z" />
    <glyph glyph-name="Wcircumflex" unicode="&#x175;" horiz-adv-x="1796" 
d="M772 1567q-16 0 -19 7.5t7 14.5l284 234q21 16 39 16h21q24 0 37 -18l200 -236q14 -18 -12 -18h-39q-24 0 -35 16l-165 193l-238 -197q-14 -12 -41 -12h-39zM356 0q-28 0 -28 25l-121 1407q-2 14 1.5 18t16.5 4h51q17 0 23 -6t6 -21l88 -1099q8 -74 4 -193h9
q31 95 77 195l482 1073q7 13 14 16.5t22 3.5h41q31 0 31 -26l103 -1073q8 -122 8 -189h6q20 69 72 191l479 1108q6 12 12 16t21 4h51q24 0 14 -29l-614 -1405q-6 -13 -13 -16.5t-22 -3.5h-47q-31 0 -31 25l-102 1079q-9 133 -9 184h-6q-28 -85 -75 -188l-484 -1080
q-4 -13 -11.5 -16.5t-23.5 -3.5h-45z" />
    <glyph glyph-name="Ycircumflex" unicode="&#x176;" horiz-adv-x="1249" 
d="M498 1567q-16 0 -19.5 7.5t6.5 14.5l285 234q21 16 39 16h20q14 0 21 -3t16 -15l201 -236q14 -18 -12 -18h-39q-24 0 -35 16l-166 193l-237 -197q-14 -12 -41 -12h-39zM473 0q-23 0 -20 29l102 571l-365 830q-7 24 15 24h53q21 0 27.5 -4.5t11.5 -19.5l321 -740l582 744
q9 13 16.5 16.5t28.5 3.5h51q13 0 17 -9t-2 -20l-662 -829l-102 -571q-3 -15 -8.5 -20t-18.5 -5h-47z" />
    <glyph glyph-name="Ycircumflex" unicode="&#x177;" horiz-adv-x="1249" 
d="M498 1567q-16 0 -19.5 7.5t6.5 14.5l285 234q21 16 39 16h20q14 0 21 -3t16 -15l201 -236q14 -18 -12 -18h-39q-24 0 -35 16l-166 193l-237 -197q-14 -12 -41 -12h-39zM473 0q-23 0 -20 29l102 571l-365 830q-7 24 15 24h53q21 0 27.5 -4.5t11.5 -19.5l321 -740l582 744
q9 13 16.5 16.5t28.5 3.5h51q13 0 17 -9t-2 -20l-662 -829l-102 -571q-3 -15 -8.5 -20t-18.5 -5h-47z" />
    <glyph glyph-name="Zacute" unicode="&#x179;" horiz-adv-x="1118" 
d="M547 1587q-6 8 -4 16t10 13l321 217q26 14 41 -6l17 -23q17 -17 -4 -28l-338 -209q-20 -9 -33 4zM-4 0q-26 0 -23 27l7 36q7 24 14 35l1012 1268h-762q-27 0 -21 29l6 37q3 13 9 17.5t20 4.5h852q26 0 20 -29l-6 -32q-7 -25 -12 -33l-1014 -1270h793q26 0 20 -29l-6 -38
q-3 -14 -9 -18.5t-19 -4.5h-881z" />
    <glyph glyph-name="Zacute" unicode="&#x17a;" horiz-adv-x="1118" 
d="M547 1587q-6 8 -4 16t10 13l321 217q26 14 41 -6l17 -23q17 -17 -4 -28l-338 -209q-20 -9 -33 4zM-4 0q-26 0 -23 27l7 36q7 24 14 35l1012 1268h-762q-27 0 -21 29l6 37q3 13 9 17.5t20 4.5h852q26 0 20 -29l-6 -32q-7 -25 -12 -33l-1014 -1270h793q26 0 20 -29l-6 -38
q-3 -14 -9 -18.5t-19 -4.5h-881z" />
    <glyph glyph-name="Zdotaccent" unicode="&#x17b;" horiz-adv-x="1118" 
d="M723 1630q-28 0 -37 12t-4 41l2 11q6 28 16 36.5t37 8.5h11q28 0 37.5 -11.5t5.5 -39.5l-3 -11q-6 -28 -17 -37.5t-38 -9.5h-10zM-4 0q-26 0 -23 27l7 36q7 24 14 35l1012 1268h-762q-27 0 -21 29l6 37q3 13 9 17.5t20 4.5h852q26 0 20 -29l-6 -32q-7 -25 -12 -33
l-1014 -1270h793q26 0 20 -29l-6 -38q-3 -14 -9 -18.5t-19 -4.5h-881z" />
    <glyph glyph-name="Zdotaccent" unicode="&#x17c;" horiz-adv-x="1118" 
d="M723 1630q-28 0 -37 12t-4 41l2 11q6 28 16 36.5t37 8.5h11q28 0 37.5 -11.5t5.5 -39.5l-3 -11q-6 -28 -17 -37.5t-38 -9.5h-10zM-4 0q-26 0 -23 27l7 36q7 24 14 35l1012 1268h-762q-27 0 -21 29l6 37q3 13 9 17.5t20 4.5h852q26 0 20 -29l-6 -32q-7 -25 -12 -33
l-1014 -1270h793q26 0 20 -29l-6 -38q-3 -14 -9 -18.5t-19 -4.5h-881z" />
    <glyph glyph-name="Zcaron" unicode="&#x17d;" horiz-adv-x="1118" 
d="M709 1565q-14 0 -22 5t-19 19l-197 232q-18 18 12 18h39q23 0 35 -14l166 -197l238 199q17 12 38 12h39q16 0 19.5 -7.5t-6.5 -14.5l-281 -230q-4 -3 -10.5 -8t-8.5 -6t-6 -3.5t-7 -3t-7 -1t-10 -0.5h-12zM-4 0q-26 0 -23 27l7 36q7 24 14 35l1012 1268h-762
q-27 0 -21 29l6 37q3 13 9 17.5t20 4.5h852q26 0 20 -29l-6 -32q-7 -25 -12 -33l-1014 -1270h793q26 0 20 -29l-6 -38q-3 -14 -9 -18.5t-19 -4.5h-881z" />
    <glyph glyph-name="Zcaron" unicode="&#x17e;" horiz-adv-x="1118" 
d="M709 1565q-14 0 -22 5t-19 19l-197 232q-18 18 12 18h39q23 0 35 -14l166 -197l238 199q17 12 38 12h39q16 0 19.5 -7.5t-6.5 -14.5l-281 -230q-4 -3 -10.5 -8t-8.5 -6t-6 -3.5t-7 -3t-7 -1t-10 -0.5h-12zM-4 0q-26 0 -23 27l7 36q7 24 14 35l1012 1268h-762
q-27 0 -21 29l6 37q3 13 9 17.5t20 4.5h852q26 0 20 -29l-6 -32q-7 -25 -12 -33l-1014 -1270h793q26 0 20 -29l-6 -38q-3 -14 -9 -18.5t-19 -4.5h-881z" />
    <glyph glyph-name="florin" unicode="&#x192;" horiz-adv-x="878" 
d="M-205 -451q-30 0 -24 27l6 35q1 13 5 17.5t15 4.5q281 0 369 332l199 725h-263q-25 0 -22 27l8 37q3 12 7 16t16 4h278l90 338q54 196 163.5 300t297.5 104q29 0 23 -27l-7 -35q-2 -14 -6 -18t-16 -4q-149 0 -235 -84.5t-128 -245.5l-90 -328h277q24 0 18 -26l-4 -35
q-3 -14 -7.5 -18.5t-16.5 -4.5h-293l-201 -735q-105 -406 -459 -406z" />
    <glyph glyph-name="Aringacute" unicode="&#x1fa;" horiz-adv-x="1277" 
d="M698 1780q-18 -7 -24 6l-10 14q-7 14 12 25l319 149q25 11 35 -4l14 -22q7 -7 6 -12t-12 -9zM-49 0q-33 0 -19 29l766 1390q-53 14 -79 55.5t-17 104.5q9 71 65.5 117.5t135.5 46.5q80 0 125 -48t39 -120q-7 -61 -46 -102.5t-100 -55.5l275 -1394q3 -23 -21 -23h-41
q-21 0 -29.5 6.5t-11.5 20.5l-84 448h-630l-246 -455q-6 -13 -14 -16.5t-29 -3.5h-39zM764 1448q61 0 104.5 34.5t49.5 94.5q5 50 -27.5 82.5t-89.5 32.5q-62 0 -103.5 -34t-46.5 -87q-6 -56 24 -89.5t89 -33.5zM893 557l-129 696q-8 74 -8 117h-4q-27 -70 -52 -123
l-376 -690h569z" />
    <glyph glyph-name="Aringacute" unicode="&#x1fb;" horiz-adv-x="1277" 
d="M698 1780q-18 -7 -24 6l-10 14q-7 14 12 25l319 149q25 11 35 -4l14 -22q7 -7 6 -12t-12 -9zM-49 0q-33 0 -19 29l766 1390q-53 14 -79 55.5t-17 104.5q9 71 65.5 117.5t135.5 46.5q80 0 125 -48t39 -120q-7 -61 -46 -102.5t-100 -55.5l275 -1394q3 -23 -21 -23h-41
q-21 0 -29.5 6.5t-11.5 20.5l-84 448h-630l-246 -455q-6 -13 -14 -16.5t-29 -3.5h-39zM764 1448q61 0 104.5 34.5t49.5 94.5q5 50 -27.5 82.5t-89.5 32.5q-62 0 -103.5 -34t-46.5 -87q-6 -56 24 -89.5t89 -33.5zM893 557l-129 696q-8 74 -8 117h-4q-27 -70 -52 -123
l-376 -690h569z" />
    <glyph glyph-name="AEacute" unicode="&#x1fc;" horiz-adv-x="1656" 
d="M1157 1587q-6 8 -4 16t10 13l322 217q26 14 41 -6l16 -23q17 -17 -4 -28l-338 -209q-20 -9 -33 4zM-82 0q-15 0 -19.5 8t3.5 19l1061 1405q15 22 38 22h619q24 0 18 -29l-6 -36q-3 -23 -24 -23h-547l-103 -586h457q27 0 21 -28l-6 -37q-3 -23 -29 -23h-459l-104 -604h565
q26 0 20 -29l-6 -36q-3 -9 -4.5 -12.5t-7 -7t-14.5 -3.5h-633q-31 0 -25 29l64 354h-523l-264 -363q-10 -13 -17.5 -16.5t-29.5 -3.5h-45zM809 463l154 844l-623 -844h469z" />
    <glyph glyph-name="AEacute" unicode="&#x1fd;" horiz-adv-x="1656" 
d="M1157 1587q-6 8 -4 16t10 13l322 217q26 14 41 -6l16 -23q17 -17 -4 -28l-338 -209q-20 -9 -33 4zM-82 0q-15 0 -19.5 8t3.5 19l1061 1405q15 22 38 22h619q24 0 18 -29l-6 -36q-3 -23 -24 -23h-547l-103 -586h457q27 0 21 -28l-6 -37q-3 -23 -29 -23h-459l-104 -604h565
q26 0 20 -29l-6 -36q-3 -9 -4.5 -12.5t-7 -7t-14.5 -3.5h-633q-31 0 -25 29l64 354h-523l-264 -363q-10 -13 -17.5 -16.5t-29.5 -3.5h-45zM809 463l154 844l-623 -844h469z" />
    <glyph glyph-name="Oslashacute" unicode="&#x1fe;" horiz-adv-x="1333" 
d="M655 1608q-13 16 7 28l321 217q26 14 41 -6l16 -22q7 -8 6 -16t-10 -13l-338 -209q-19 -9 -32 4zM27 -88q-7 0 -9.5 4t0.5 8l154 197q-100 133 -59 358l88 500q42 238 194.5 371t399.5 133q219 0 327 -111l117 154q6 8 21 8h53q16 0 8 -12l-154 -197q94 -137 54 -350
l-88 -500q-40 -241 -191 -372.5t-399 -131.5q-208 0 -326 103l-117 -154q-5 -8 -16 -8h-6h-51zM1065 1294q-87 101 -277 101q-203 0 -331 -111.5t-162 -310.5l-82 -467q-31 -183 33 -289zM549 59q204 0 330.5 111t160.5 311l82 473q31 172 -24 279l-824 -1079
q89 -95 275 -95z" />
    <glyph glyph-name="Oslashacute" unicode="&#x1ff;" horiz-adv-x="1333" 
d="M655 1608q-13 16 7 28l321 217q26 14 41 -6l16 -22q7 -8 6 -16t-10 -13l-338 -209q-19 -9 -32 4zM27 -88q-7 0 -9.5 4t0.5 8l154 197q-100 133 -59 358l88 500q42 238 194.5 371t399.5 133q219 0 327 -111l117 154q6 8 21 8h53q16 0 8 -12l-154 -197q94 -137 54 -350
l-88 -500q-40 -241 -191 -372.5t-399 -131.5q-208 0 -326 103l-117 -154q-5 -8 -16 -8h-6h-51zM1065 1294q-87 101 -277 101q-203 0 -331 -111.5t-162 -310.5l-82 -467q-31 -183 33 -289zM549 59q204 0 330.5 111t160.5 311l82 473q31 172 -24 279l-824 -1079
q89 -95 275 -95z" />
    <glyph glyph-name="uni0218" unicode="&#x218;" horiz-adv-x="1257" 
d="M506 -29q-195 0 -305 83t-148 265q-7 17 -5 26t15 13l48 15q12 4 17.5 0.5t10.5 -17.5q33 -155 125 -225t252 -70q201 0 317.5 83t141.5 243q11 69 -3 120t-41 80.5t-82 50.5t-99 30t-119 20q-106 14 -177.5 34.5t-140 61.5t-96 114.5t-12.5 178.5q25 189 167 297.5
t365 108.5q190 0 298.5 -76t154.5 -242q11 -26 -12 -32l-45 -15q-22 -6 -29 12q-40 139 -127.5 201t-245.5 62q-177 0 -292 -83.5t-140 -230.5q-11 -68 4.5 -119.5t44 -81.5t83.5 -52t102.5 -32t121.5 -20q110 -16 179 -36t135.5 -60t91.5 -111.5t10 -175.5
q-28 -204 -173 -312t-392 -108zM348 -518q-22 0 -16 22l135 299q5 23 31 23h39q17 0 22 -8.5t-2 -20.5l-149 -293q-6 -13 -12.5 -17.5t-20.5 -4.5h-27z" />
    <glyph glyph-name="uni0218" unicode="&#x219;" horiz-adv-x="1257" 
d="M506 -29q-195 0 -305 83t-148 265q-7 17 -5 26t15 13l48 15q12 4 17.5 0.5t10.5 -17.5q33 -155 125 -225t252 -70q201 0 317.5 83t141.5 243q11 69 -3 120t-41 80.5t-82 50.5t-99 30t-119 20q-106 14 -177.5 34.5t-140 61.5t-96 114.5t-12.5 178.5q25 189 167 297.5
t365 108.5q190 0 298.5 -76t154.5 -242q11 -26 -12 -32l-45 -15q-22 -6 -29 12q-40 139 -127.5 201t-245.5 62q-177 0 -292 -83.5t-140 -230.5q-11 -68 4.5 -119.5t44 -81.5t83.5 -52t102.5 -32t121.5 -20q110 -16 179 -36t135.5 -60t91.5 -111.5t10 -175.5
q-28 -204 -173 -312t-392 -108zM348 -518q-22 0 -16 22l135 299q5 23 31 23h39q17 0 22 -8.5t-2 -20.5l-149 -293q-6 -13 -12.5 -17.5t-20.5 -4.5h-27z" />
    <glyph glyph-name="uni021A" unicode="&#x21a;" horiz-adv-x="1083" 
d="M393 0q-16 0 -20 6t-2 21l235 1339h-407q-28 0 -23 29l6 37q7 22 31 22h915q24 0 21 -29l-6 -36q-5 -14 -10.5 -18.5t-18.5 -4.5h-412l-237 -1343q-5 -23 -27 -23h-45zM223 -504q-23 0 -16 23l135 299q5 22 31 22h39q34 0 20 -28l-149 -293q-10 -23 -33 -23h-27z" />
    <glyph glyph-name="circumflex" unicode="&#x2c6;" horiz-adv-x="757" 
d="M182 1200q-15 0 -18 8t6 15l285 233q24 19 39 19h20q14 0 21 -4t16 -17l201 -233q7 -7 4 -14t-17 -7h-39q-23 0 -34 17l-166 194l-238 -197q-16 -14 -41 -14h-39z" />
    <glyph glyph-name="caron" unicode="&#x2c7;" horiz-adv-x="743" 
d="M438 1200q-23 0 -43 23l-194 231q-19 19 12 19h39q16 0 21.5 -2.5t11.5 -12.5l168 -196l235 198q15 13 39 13h41q14 0 16.5 -7.5t-4.5 -15.5l-280 -229q-20 -14 -27.5 -17.5t-21.5 -3.5h-13z" />
    <glyph glyph-name="breve" unicode="&#x2d8;" horiz-adv-x="589" 
d="M375 1210q-109 0 -167 55.5t-73 174.5q-3 19 12 22l35 11q18 3 23 -17q11 -93 51 -134.5t123 -41.5t139.5 43.5t97.5 140.5q8 14 23 9l39 -13q14 -5 6 -26q-93 -224 -309 -224z" />
    <glyph glyph-name="dotaccent" unicode="&#x2d9;" horiz-adv-x="505" 
d="M346 1278q-29 0 -38.5 11.5t-4.5 39.5l4 12q5 28 14.5 36.5t38.5 8.5h13q49 0 41 -49l-2 -14q-4 -27 -15.5 -36t-38.5 -9h-12z" />
    <glyph glyph-name="ring" unicode="&#x2da;" horiz-adv-x="524" 
d="M344 1124q-83 0 -126.5 51.5t-33.5 137.5q11 86 68.5 139t142.5 53q80 0 122.5 -50.5t33.5 -135.5q-11 -86 -68 -140.5t-139 -54.5zM348 1176q59 0 101 39.5t51 105.5q9 60 -20 96.5t-85 36.5q-63 0 -106.5 -38.5t-52.5 -102.5q-10 -61 21 -99t91 -38z" />
    <glyph glyph-name="ogonek" unicode="&#x2db;" horiz-adv-x="579" 
d="M68 -506q-49 0 -80 25.5t-37 77.5q-17 148 264 403h76q-125 -117 -194.5 -216.5t-63.5 -162.5q3 -57 63 -57q63 0 125 59q12 8 15 -8l10 -33q4 -10 -10 -24q-75 -64 -168 -64z" />
    <glyph glyph-name="tilde" unicode="&#x2dc;" horiz-adv-x="626" 
d="M139 1233q-17 0 -14 29q29 180 168 180q38 0 69 -15t51.5 -37t39 -44t41.5 -37t49 -15q45 0 75.5 38t38.5 98q2 12 17 12h31q17 0 12 -27q-14 -85 -56.5 -133.5t-109.5 -48.5q-36 0 -66 15t-50.5 36.5t-39.5 43.5t-43 37t-51 15q-97 0 -117 -133q-3 -14 -14 -14h-31z" />
    <glyph glyph-name="hungarumlaut" unicode="&#x2dd;" horiz-adv-x="811" 
d="M256 1206q-23 10 -6 27l225 231q17 20 35 15l33 -13q12 -4 13.5 -12.5t-7.5 -15.5l-244 -230q-18 -15 -33 -8zM575 1206q-23 9 -8 27l228 231q14 20 34 15l33 -13q12 -4 13.5 -12.5t-7.5 -15.5l-243 -230q-21 -15 -33 -8z" />
    <glyph glyph-name="gravecomb" unicode="&#x300;" 
d="M-401 1456q-23 15 -5 33l27 24q8 7 16.5 7.5t12.5 -2t14 -9.5l244 -215q20 -16 4 -32l-14 -13q-10 -13 -35 0z" />
    <glyph glyph-name="acutecomb" unicode="&#x301;" 
d="M-307 1266q-12 17 6 28l324 217q21 13 38 -6l17 -22q15 -23 -4 -29l-340 -209q-20 -10 -31 4z" />
    <glyph glyph-name="uni0302" unicode="&#x302;" 
d="M-569 1233q-10 0 -15 3.5t-4.5 8t6.5 8.5l285 234q20 18 41 18h18q24 0 37 -18l201 -236q14 -18 -12 -18h-39q-26 0 -35 16l-166 193l-237 -197q-14 -12 -41 -12h-39z" />
    <glyph glyph-name="tildecomb" unicode="&#x303;" 
d="M-479 1264q-20 0 -17 28q19 88 58 135.5t110 47.5q38 0 69 -15t51.5 -37t39 -44t41.5 -37t49 -15q48 0 81.5 37.5t33.5 95.5q3 15 16 15h31q15 0 12 -27q-6 -85 -51 -134.5t-115 -49.5q-36 0 -66 15t-50 37t-39 43.5t-43 36.5t-51 15q-49 0 -74 -33.5t-43 -97.5
q-3 -16 -15 -16h-28z" />
    <glyph glyph-name="uni0304" unicode="&#x304;" 
d="M-514 1327q-24 0 -21 27l5 20q2 21 30 21h449q25 0 20 -25l-4 -20q-6 -23 -24 -23h-455z" />
    <glyph glyph-name="uni0306" unicode="&#x306;" 
d="M-211 1241q-226 0 -238 232q-5 16 11 22l35 8q16 5 22 -14q6 -178 174 -178q83 0 137 43t101 141q8 13 24 8l37 -12q17 -3 6 -25q-56 -114 -129.5 -169.5t-179.5 -55.5z" />
    <glyph glyph-name="uni0307" unicode="&#x307;" 
d="M-162 1323q-27 0 -36 12t-3 43l4 17q6 30 16 40.5t36 10.5h30q27 0 36 -13.5t3 -43.5l-2 -15q-6 -31 -16.5 -41t-36.5 -10h-31z" />
    <glyph glyph-name="uni0308" unicode="&#x308;" 
d="M-561 1319q-30 0 -40 12t-3 43l2 10q6 30 17 40t38 10h12q55 0 46 -54l-3 -12q-8 -30 -19 -39.5t-40 -9.5h-10zM-209 1319q-30 0 -39.5 11.5t-3.5 43.5l2 10q6 30 17 40t40 10h11q30 0 40 -12.5t5 -41.5l-2 -12q-6 -29 -18 -39t-40 -10h-12z" />
    <glyph glyph-name="uni030A" unicode="&#x30a;" 
d="M-170 1178q-85 0 -128.5 51t-33.5 137q12 87 70.5 140t142.5 53q80 0 122 -51t32 -136q-11 -87 -67.5 -140.5t-137.5 -53.5zM-166 1229q58 0 99.5 39t52.5 104q9 61 -20.5 98t-86.5 37q-61 0 -105 -39.5t-53 -101.5t22 -99.5t91 -37.5z" />
    <glyph glyph-name="uni030B" unicode="&#x30b;" 
d="M-551 1233q-21 9 -6 27l225 231q17 20 37 12l31 -10q13 -4 15 -13t-9 -16l-244 -229q-18 -15 -30 -8zM-231 1233q-22 9 -7 27l226 231q17 20 35 12l32 -10q12 -4 13.5 -13t-7.5 -16l-243 -229q-21 -15 -33 -8z" />
    <glyph glyph-name="uni030C" unicode="&#x30c;" 
d="M-301 1231q-15 0 -22.5 4t-18.5 18l-197 232q-14 18 13 18h39q16 0 21.5 -2t12.5 -12l166 -197l238 199q12 12 37 12h41q14 0 16.5 -7t-4.5 -13l-281 -230q-15 -12 -19.5 -15t-11 -5t-18.5 -2h-12z" />
    <glyph glyph-name="uni0327" unicode="&#x327;" 
d="M-479 -500q-83 0 -142 51q-15 7 -12 25l4 25q4 15 15 8q22 -16 35 -24.5t39.5 -17.5t54.5 -9q71 0 115 32.5t48 100.5q3 47 -21.5 72.5t-74.5 27.5q-29 0 -69 -8q-13 -3 -19.5 6.5t-1.5 20.5l96 190h62l-80 -164q24 6 65 6q62 -4 94 -44t27 -105q-4 -95 -68 -144
t-167 -49z" />
    <glyph glyph-name="uni0328" unicode="&#x328;" 
d="M-512 -506q-49 0 -80 25.5t-37 77.5q-17 148 264 403h76q-125 -117 -194.5 -216.5t-63.5 -162.5q3 -57 64 -57q63 0 125 59q11 7 14 -8l10 -33q4 -10 -10 -24q-75 -64 -168 -64z" />
    <glyph glyph-name="pi" unicode="&#x3c0;" horiz-adv-x="1220" 
d="M1006 -2q-22 -11 -33 14q-37 65 -49.5 127.5t-12.5 159.5v670h-512v-944q0 -25 -22 -25h-43q-23 0 -23 25v944q-63 -1 -106 -16t-103 -52q-12 -5 -19 -4t-13 12l-17 33q-9 22 10 33q68 42 131.5 58t153.5 16h782q23 0 23 -23v-33q0 -24 -23 -24h-131v-674
q0 -88 10.5 -139t43.5 -105q11 -26 -11 -37z" />
    <glyph glyph-name="uni0401" unicode="&#x401;" horiz-adv-x="1148" 
d="M584 1640q-27 0 -36.5 10.5t-6.5 37.5l4 14q3 26 14 35.5t39 9.5h12q26 0 35 -11t6 -38l-2 -15q-4 -27 -15 -35t-38 -8h-12zM944 1640q-29 0 -38.5 10.5t-4.5 37.5l2 14q5 27 15.5 36t39.5 9h11q26 0 35.5 -11.5t5.5 -37.5l-2 -15q-4 -27 -15.5 -35t-38.5 -8h-10zM96 0
q-23 0 -20 27l248 1403q3 14 9.5 19t20.5 5h758q14 0 18.5 -6.5t2.5 -22.5l-7 -36q-3 -13 -8.5 -18t-17.5 -5h-692l-103 -584h606q27 0 21 -26l-6 -39q-6 -25 -27 -25h-610l-107 -604h713q15 0 20.5 -6t2.5 -21l-7 -38q-6 -23 -26 -23h-789z" />
    <glyph glyph-name="uni0401" unicode="&#x451;" horiz-adv-x="1148" 
d="M584 1640q-27 0 -36.5 10.5t-6.5 37.5l4 14q3 26 14 35.5t39 9.5h12q26 0 35 -11t6 -38l-2 -15q-4 -27 -15 -35t-38 -8h-12zM944 1640q-29 0 -38.5 10.5t-4.5 37.5l2 14q5 27 15.5 36t39.5 9h11q26 0 35.5 -11.5t5.5 -37.5l-2 -15q-4 -27 -15.5 -35t-38.5 -8h-10zM96 0
q-23 0 -20 27l248 1403q3 14 9.5 19t20.5 5h758q14 0 18.5 -6.5t2.5 -22.5l-7 -36q-3 -13 -8.5 -18t-17.5 -5h-692l-103 -584h606q27 0 21 -26l-6 -39q-6 -25 -27 -25h-610l-107 -604h713q15 0 20.5 -6t2.5 -21l-7 -38q-6 -23 -26 -23h-789z" />
    <glyph glyph-name="uni0410" unicode="&#x410;" horiz-adv-x="1277" 
d="M-53 0q-13 0 -17 8.5t2 20.5l775 1413q8 14 14.5 18t19.5 4h50q12 0 17.5 -6t8.5 -20l277 -1413q6 -25 -17 -25h-47q-19 0 -26.5 6t-10.5 21l-84 448h-628l-248 -455q-6 -13 -13.5 -16.5t-27.5 -3.5h-45zM893 557l-127 678q-10 75 -10 135h-6q-26 -73 -62 -141l-364 -672
h569z" />
    <glyph glyph-name="uni0410" unicode="&#x430;" horiz-adv-x="1277" 
d="M-53 0q-13 0 -17 8.5t2 20.5l775 1413q8 14 14.5 18t19.5 4h50q12 0 17.5 -6t8.5 -20l277 -1413q6 -25 -17 -25h-47q-19 0 -26.5 6t-10.5 21l-84 448h-628l-248 -455q-6 -13 -13.5 -16.5t-27.5 -3.5h-45zM893 557l-127 678q-10 75 -10 135h-6q-26 -73 -62 -141l-364 -672
h569z" />
    <glyph glyph-name="uni0411" unicode="&#x411;" horiz-adv-x="1261" 
d="M96 0q-23 0 -20 27l248 1405q3 13 9.5 17.5t20.5 4.5h809q27 0 21 -27l-6 -38q-5 -23 -25 -23h-745l-99 -555h428q194 0 284.5 -79t86.5 -243q-5 -219 -139 -354t-359 -135h-514zM612 88q97 0 174 31.5t125.5 86.5t74.5 124.5t28 148.5q2 128 -70 189t-225 61h-424
l-113 -641h430z" />
    <glyph glyph-name="uni0411" unicode="&#x431;" horiz-adv-x="1261" 
d="M96 0q-23 0 -20 27l248 1405q3 13 9.5 17.5t20.5 4.5h809q27 0 21 -27l-6 -38q-5 -23 -25 -23h-745l-99 -555h428q194 0 284.5 -79t86.5 -243q-5 -219 -139 -354t-359 -135h-514zM612 88q97 0 174 31.5t125.5 86.5t74.5 124.5t28 148.5q2 128 -70 189t-225 61h-424
l-113 -641h430z" />
    <glyph glyph-name="uni0412" unicode="&#x412;" horiz-adv-x="1292" 
d="M98 0q-16 0 -20 6t-2 23l248 1403q6 22 26 22h490q172 0 258 -74.5t86 -216.5q0 -148 -66.5 -255t-199.5 -158l-3 -2q88 -26 140.5 -95t52.5 -178q0 -214 -130 -344.5t-351 -130.5h-529zM752 782q155 0 245.5 101t92.5 260q2 110 -63.5 166.5t-199.5 56.5h-419l-103 -584
h447zM623 88q179 0 286 108t107 279q0 109 -65.5 167t-186.5 58h-473l-109 -612h441z" />
    <glyph glyph-name="uni0412" unicode="&#x432;" horiz-adv-x="1292" 
d="M98 0q-16 0 -20 6t-2 23l248 1403q6 22 26 22h490q172 0 258 -74.5t86 -216.5q0 -148 -66.5 -255t-199.5 -158l-3 -2q88 -26 140.5 -95t52.5 -178q0 -214 -130 -344.5t-351 -130.5h-529zM752 782q155 0 245.5 101t92.5 260q2 110 -63.5 166.5t-199.5 56.5h-419l-103 -584
h447zM623 88q179 0 286 108t107 279q0 109 -65.5 167t-186.5 58h-473l-109 -612h441z" />
    <glyph glyph-name="uni0413" unicode="&#x413;" horiz-adv-x="1024" 
d="M96 0q-23 0 -20 29l248 1403q6 22 26 22h711q23 0 20 -29l-6 -36q-3 -13 -8.5 -18t-17.5 -5h-641l-238 -1343q-5 -23 -27 -23h-47z" />
    <glyph glyph-name="uni0413" unicode="&#x433;" horiz-adv-x="1024" 
d="M96 0q-23 0 -20 29l248 1403q6 22 26 22h711q23 0 20 -29l-6 -36q-3 -13 -8.5 -18t-17.5 -5h-641l-238 -1343q-5 -23 -27 -23h-47z" />
    <glyph glyph-name="uni0414" unicode="&#x414;" horiz-adv-x="1404" 
d="M-100 -313q-24 0 -21 28l64 351q3 13 8.5 17.5t17.5 4.5h80q26 17 46 34t49.5 52t54 78t54.5 114.5t56.5 159.5t56 214t56.5 278l72 412q6 24 28 24h756q26 0 20 -29l-235 -1337h125q28 0 22 -29l-61 -348q-3 -24 -27 -24h-47q-24 0 -18 26l49 287h-1083l-50 -289
q-3 -14 -9 -19t-19 -5h-45zM969 88l223 1278h-617l-63 -354q-43 -240 -88 -412.5t-91 -271.5t-82.5 -150t-82.5 -90h801z" />
    <glyph glyph-name="uni0414" unicode="&#x434;" horiz-adv-x="1404" 
d="M-100 -313q-24 0 -21 28l64 351q3 13 8.5 17.5t17.5 4.5h80q26 17 46 34t49.5 52t54 78t54.5 114.5t56.5 159.5t56 214t56.5 278l72 412q6 24 28 24h756q26 0 20 -29l-235 -1337h125q28 0 22 -29l-61 -348q-3 -24 -27 -24h-47q-24 0 -18 26l49 287h-1083l-50 -289
q-3 -14 -9 -19t-19 -5h-45zM969 88l223 1278h-617l-63 -354q-43 -240 -88 -412.5t-91 -271.5t-82.5 -150t-82.5 -90h801z" />
    <glyph glyph-name="uni0415" unicode="&#x415;" horiz-adv-x="1148" 
d="M96 0q-23 0 -20 27l248 1403q3 14 9.5 19t20.5 5h758q14 0 18.5 -6.5t2.5 -22.5l-7 -36q-3 -13 -8.5 -18t-17.5 -5h-692l-103 -584h606q27 0 21 -26l-6 -39q-6 -25 -27 -25h-610l-107 -604h713q15 0 20.5 -6t2.5 -21l-7 -38q-6 -23 -26 -23h-789z" />
    <glyph glyph-name="uni0415" unicode="&#x435;" horiz-adv-x="1148" 
d="M96 0q-23 0 -20 27l248 1403q3 14 9.5 19t20.5 5h758q14 0 18.5 -6.5t2.5 -22.5l-7 -36q-3 -13 -8.5 -18t-17.5 -5h-692l-103 -584h606q27 0 21 -26l-6 -39q-6 -25 -27 -25h-610l-107 -604h713q15 0 20.5 -6t2.5 -21l-7 -38q-6 -23 -26 -23h-789z" />
    <glyph glyph-name="uni0416" unicode="&#x416;" horiz-adv-x="1822" 
d="M-12 0q-14 0 -17.5 9t4.5 20l332 510q57 86 114 136.5t132 74.5l-309 680q-10 24 14 24h57q16 0 22.5 -4.5t12.5 -19.5l293 -654q27 4 88 4h143l115 652q3 13 9 17.5t18 4.5h47q23 0 20 -27l-114 -647h170q59 0 86 -4l526 658q15 20 43 20h55q14 0 17.5 -9t-4.5 -20
l-551 -677q65 -24 103.5 -75.5t64.5 -137.5l153 -510q7 -25 -16 -25h-47q-20 0 -26 4.5t-9 20.5l-143 477q-22 73 -47.5 111.5t-74.5 59.5t-132 21h-183l-118 -671q-5 -23 -27 -23h-49q-22 0 -19 29l117 665h-143q-114 0 -187 -45.5t-141 -150.5l-307 -478
q-9 -13 -16.5 -16.5t-26.5 -3.5h-49z" />
    <glyph glyph-name="uni0416" unicode="&#x436;" horiz-adv-x="1822" 
d="M-12 0q-14 0 -17.5 9t4.5 20l332 510q57 86 114 136.5t132 74.5l-309 680q-10 24 14 24h57q16 0 22.5 -4.5t12.5 -19.5l293 -654q27 4 88 4h143l115 652q3 13 9 17.5t18 4.5h47q23 0 20 -27l-114 -647h170q59 0 86 -4l526 658q15 20 43 20h55q14 0 17.5 -9t-4.5 -20
l-551 -677q65 -24 103.5 -75.5t64.5 -137.5l153 -510q7 -25 -16 -25h-47q-20 0 -26 4.5t-9 20.5l-143 477q-22 73 -47.5 111.5t-74.5 59.5t-132 21h-183l-118 -671q-5 -23 -27 -23h-49q-22 0 -19 29l117 665h-143q-114 0 -187 -45.5t-141 -150.5l-307 -478
q-9 -13 -16.5 -16.5t-26.5 -3.5h-49z" />
    <glyph glyph-name="uni0417" unicode="&#x417;" horiz-adv-x="1236" 
d="M518 -29q-228 0 -337 93t-132 278q-3 24 19 29l41 14q25 6 28 -20q14 -154 105.5 -230t281.5 -76q208 0 323.5 110t115.5 298q0 108 -59.5 171.5t-174.5 63.5h-342q-14 0 -18 6.5t-4 20.5l6 35q3 15 8.5 19.5t19.5 4.5h334q90 0 161 50.5t108.5 133t37.5 179.5
q0 117 -79.5 180.5t-227.5 63.5q-180 0 -280.5 -70t-173.5 -233q-8 -18 -33 -9l-35 13q-23 9 -12 37q78 181 201 265.5t339 84.5q188 0 292 -83t104 -233q0 -148 -66 -259t-188 -160q84 -26 129 -98t45 -171q0 -238 -142 -373t-395 -135z" />
    <glyph glyph-name="uni0417" unicode="&#x437;" horiz-adv-x="1236" 
d="M518 -29q-228 0 -337 93t-132 278q-3 24 19 29l41 14q25 6 28 -20q14 -154 105.5 -230t281.5 -76q208 0 323.5 110t115.5 298q0 108 -59.5 171.5t-174.5 63.5h-342q-14 0 -18 6.5t-4 20.5l6 35q3 15 8.5 19.5t19.5 4.5h334q90 0 161 50.5t108.5 133t37.5 179.5
q0 117 -79.5 180.5t-227.5 63.5q-180 0 -280.5 -70t-173.5 -233q-8 -18 -33 -9l-35 13q-23 9 -12 37q78 181 201 265.5t339 84.5q188 0 292 -83t104 -233q0 -148 -66 -259t-188 -160q84 -26 129 -98t45 -171q0 -238 -142 -373t-395 -135z" />
    <glyph glyph-name="uni0418" unicode="&#x418;" horiz-adv-x="1396" 
d="M100 0q-23 0 -20 27l244 1405q3 13 8 17.5t18 4.5h49q14 0 18 -6.5t1 -22.5l-152 -874q-60 -318 -84 -416h4q209 285 281 377l747 930q12 12 29 12h49q28 0 25 -27l-246 -1402q-6 -25 -27 -25h-49q-21 0 -18 27l160 905q38 210 82 387h-7q-154 -214 -260 -350l-772 -955
q-10 -14 -26 -14h-54z" />
    <glyph glyph-name="uni0418" unicode="&#x438;" horiz-adv-x="1396" 
d="M100 0q-23 0 -20 27l244 1405q3 13 8 17.5t18 4.5h49q14 0 18 -6.5t1 -22.5l-152 -874q-60 -318 -84 -416h4q209 285 281 377l747 930q12 12 29 12h49q28 0 25 -27l-246 -1402q-6 -25 -27 -25h-49q-21 0 -18 27l160 905q38 210 82 387h-7q-154 -214 -260 -350l-772 -955
q-10 -14 -26 -14h-54z" />
    <glyph glyph-name="uni0419" unicode="&#x419;" horiz-adv-x="1333" 
d="M840 1618q-115 0 -175 54.5t-75 170.5q-6 20 10 23l37 10q19 3 22 -16q14 -92 57 -133t128 -41q90 0 149.5 42.5t102.5 137.5q7 14 24 8l39 -12q16 -3 8 -25q-101 -219 -327 -219zM100 0q-23 0 -20 27l244 1405q3 13 8 17.5t18 4.5h49q14 0 18 -6.5t1 -22.5l-152 -874
q-60 -318 -84 -416h4q209 285 281 377l747 930q12 12 29 12h49q28 0 25 -27l-246 -1402q-6 -25 -27 -25h-49q-21 0 -18 27l160 905q38 210 82 387h-7q-154 -214 -260 -350l-772 -955q-10 -14 -26 -14h-54z" />
    <glyph glyph-name="uni0419" unicode="&#x439;" horiz-adv-x="1333" 
d="M840 1618q-115 0 -175 54.5t-75 170.5q-6 20 10 23l37 10q19 3 22 -16q14 -92 57 -133t128 -41q90 0 149.5 42.5t102.5 137.5q7 14 24 8l39 -12q16 -3 8 -25q-101 -219 -327 -219zM100 0q-23 0 -20 27l244 1405q3 13 8 17.5t18 4.5h49q14 0 18 -6.5t1 -22.5l-152 -874
q-60 -318 -84 -416h4q209 285 281 377l747 930q12 12 29 12h49q28 0 25 -27l-246 -1402q-6 -25 -27 -25h-49q-21 0 -18 27l160 905q38 210 82 387h-7q-154 -214 -260 -350l-772 -955q-10 -14 -26 -14h-54z" />
    <glyph glyph-name="uni041A" unicode="&#x41a;" horiz-adv-x="1210" 
d="M98 0q-14 0 -18.5 6t-3.5 23l248 1403q5 22 28 22h45q27 0 21 -27l-115 -647h285l542 654q10 13 18.5 16.5t29.5 3.5h51q31 0 14 -29l-565 -665q77 -19 118.5 -72.5t69.5 -152.5l146 -510q7 -25 -17 -25h-51q-18 0 -24 5t-9 20l-131 477q-29 107 -77 149.5t-156 42.5
h-258l-119 -671q-5 -23 -25 -23h-47z" />
    <glyph glyph-name="uni041A" unicode="&#x43a;" horiz-adv-x="1210" 
d="M98 0q-14 0 -18.5 6t-3.5 23l248 1403q5 22 28 22h45q27 0 21 -27l-115 -647h285l542 654q10 13 18.5 16.5t29.5 3.5h51q31 0 14 -29l-565 -665q77 -19 118.5 -72.5t69.5 -152.5l146 -510q7 -25 -17 -25h-51q-18 0 -24 5t-9 20l-131 477q-29 107 -77 149.5t-156 42.5
h-258l-119 -671q-5 -23 -25 -23h-47z" />
    <glyph glyph-name="uni041B" unicode="&#x41b;" horiz-adv-x="1302" 
d="M-29 -27q-15 -5 -21 -1.5t-11 16.5l-17 37q-12 23 10 34q37 18 58.5 30t52 34t50 44t45.5 58.5t44 80.5t41 106t42.5 139.5t41 177t43.5 221.5l86 482q3 13 9 17.5t20 4.5h741q24 0 21 -29l-248 -1402q-5 -23 -29 -23h-47q-13 0 -16.5 6.5t-1.5 22.5l235 1337h-604
l-74 -422q-21 -119 -42 -219t-43 -181t-42 -146t-44 -116.5t-44 -89.5t-47 -69t-47.5 -51.5t-51.5 -40t-53 -31t-57 -27.5z" />
    <glyph glyph-name="uni041B" unicode="&#x43b;" horiz-adv-x="1302" 
d="M-29 -27q-15 -5 -21 -1.5t-11 16.5l-17 37q-12 23 10 34q37 18 58.5 30t52 34t50 44t45.5 58.5t44 80.5t41 106t42.5 139.5t41 177t43.5 221.5l86 482q3 13 9 17.5t20 4.5h741q24 0 21 -29l-248 -1402q-5 -23 -29 -23h-47q-13 0 -16.5 6.5t-1.5 22.5l235 1337h-604
l-74 -422q-21 -119 -42 -219t-43 -181t-42 -146t-44 -116.5t-44 -89.5t-47 -69t-47.5 -51.5t-51.5 -40t-53 -31t-57 -27.5z" />
    <glyph glyph-name="uni041C" unicode="&#x41c;" horiz-adv-x="1611" 
d="M96 0q-23 0 -20 27l248 1405q3 13 9.5 17.5t20.5 4.5h41q14 0 20 -5.5t11 -18.5l330 -975l671 977q11 14 18.5 18t22.5 4h45q14 0 18.5 -6.5t2.5 -22.5l-248 -1400q-3 -14 -9 -19.5t-20 -5.5h-38q-28 0 -23 27l166 942q28 163 72 336h-4q-144 -227 -189 -291l-450 -645
q-12 -21 -31 -21h-31q-23 0 -31 25l-225 653q-47 132 -86 281h-6q-15 -157 -49 -344l-166 -940q-5 -23 -27 -23h-43z" />
    <glyph glyph-name="uni041C" unicode="&#x43c;" horiz-adv-x="1611" 
d="M96 0q-23 0 -20 27l248 1405q3 13 9.5 17.5t20.5 4.5h41q14 0 20 -5.5t11 -18.5l330 -975l671 977q11 14 18.5 18t22.5 4h45q14 0 18.5 -6.5t2.5 -22.5l-248 -1400q-3 -14 -9 -19.5t-20 -5.5h-38q-28 0 -23 27l166 942q28 163 72 336h-4q-144 -227 -189 -291l-450 -645
q-12 -21 -31 -21h-31q-23 0 -31 25l-225 653q-47 132 -86 281h-6q-15 -157 -49 -344l-166 -940q-5 -23 -27 -23h-43z" />
    <glyph glyph-name="uni041D" unicode="&#x41d;" horiz-adv-x="1372" 
d="M98 0q-14 0 -18.5 5.5t-3.5 23.5l248 1401q3 14 9 19t19 5h45q27 0 21 -27l-113 -645h782l115 648q3 15 9 19.5t20 4.5h45q23 0 20 -27l-247 -1400q-3 -15 -8.5 -21t-18.5 -6h-45q-15 0 -20.5 6t-2.5 21l119 665h-784l-119 -669q-3 -23 -25 -23h-47z" />
    <glyph glyph-name="uni041D" unicode="&#x43d;" horiz-adv-x="1372" 
d="M98 0q-14 0 -18.5 5.5t-3.5 23.5l248 1401q3 14 9 19t19 5h45q27 0 21 -27l-113 -645h782l115 648q3 15 9 19.5t20 4.5h45q23 0 20 -27l-247 -1400q-3 -15 -8.5 -21t-18.5 -6h-45q-15 0 -20.5 6t-2.5 21l119 665h-784l-119 -669q-3 -23 -25 -23h-47z" />
    <glyph glyph-name="uni041E" unicode="&#x41e;" horiz-adv-x="1333" 
d="M543 -29q-252 0 -362 134t-68 374l88 500q42 239 193.5 371.5t398.5 132.5q248 0 359 -134t69 -374l-88 -500q-40 -240 -192 -372t-398 -132zM547 59q202 0 329 109.5t164 312.5l86 498q35 200 -51.5 308t-286.5 108q-203 0 -331 -111.5t-162 -310.5l-88 -496
q-34 -198 53.5 -308t286.5 -110z" />
    <glyph glyph-name="uni041E" unicode="&#x43e;" horiz-adv-x="1333" 
d="M543 -29q-252 0 -362 134t-68 374l88 500q42 239 193.5 371.5t398.5 132.5q248 0 359 -134t69 -374l-88 -500q-40 -240 -192 -372t-398 -132zM547 59q202 0 329 109.5t164 312.5l86 498q35 200 -51.5 308t-286.5 108q-203 0 -331 -111.5t-162 -310.5l-88 -496
q-34 -198 53.5 -308t286.5 -110z" />
    <glyph glyph-name="uni041F" unicode="&#x41f;" horiz-adv-x="1359" 
d="M96 0q-23 0 -20 29l248 1403q3 13 9.5 17.5t20.5 4.5h910q24 0 18 -29l-248 -1400q-3 -15 -8.5 -20t-19.5 -5h-45q-24 0 -21 29l236 1337h-768l-238 -1341q-3 -15 -9 -20t-18 -5h-47z" />
    <glyph glyph-name="uni041F" unicode="&#x43f;" horiz-adv-x="1359" 
d="M96 0q-23 0 -20 29l248 1403q3 13 9.5 17.5t20.5 4.5h910q24 0 18 -29l-248 -1400q-3 -15 -8.5 -20t-19.5 -5h-45q-24 0 -21 29l236 1337h-768l-238 -1341q-3 -15 -9 -20t-18 -5h-47z" />
    <glyph glyph-name="uni0420" unicode="&#x420;" horiz-adv-x="1247" 
d="M98 0q-16 0 -20 6t-2 21l248 1405q3 12 9 17t21 5h488q196 0 290.5 -113.5t65.5 -318.5q-26 -212 -159 -334.5t-334 -122.5h-439l-96 -540q-3 -25 -27 -25h-45zM700 655q163 0 270.5 95.5t133.5 267.5q26 165 -46.5 256.5t-228.5 91.5h-421l-125 -711h417z" />
    <glyph glyph-name="uni0420" unicode="&#x440;" horiz-adv-x="1247" 
d="M98 0q-16 0 -20 6t-2 21l248 1405q3 12 9 17t21 5h488q196 0 290.5 -113.5t65.5 -318.5q-26 -212 -159 -334.5t-334 -122.5h-439l-96 -540q-3 -25 -27 -25h-45zM700 655q163 0 270.5 95.5t133.5 267.5q26 165 -46.5 256.5t-228.5 91.5h-421l-125 -711h417z" />
    <glyph glyph-name="uni0421" unicode="&#x421;" horiz-adv-x="1280" 
d="M539 -29q-246 0 -357 135.5t-69 372.5l88 502q42 237 193.5 369.5t396.5 132.5q216 0 317.5 -89.5t122.5 -273.5q5 -20 -17 -28l-43 -11q-24 -8 -30 19q-15 152 -98 223.5t-259 71.5q-205 0 -329.5 -110t-159.5 -306l-90 -506q-33 -195 54.5 -303.5t287.5 -108.5
q179 0 286.5 77t180.5 235q7 19 35 10l38 -14q25 -11 11 -37q-57 -121 -127.5 -197.5t-178.5 -120t-253 -43.5z" />
    <glyph glyph-name="uni0421" unicode="&#x441;" horiz-adv-x="1280" 
d="M539 -29q-246 0 -357 135.5t-69 372.5l88 502q42 237 193.5 369.5t396.5 132.5q216 0 317.5 -89.5t122.5 -273.5q5 -20 -17 -28l-43 -11q-24 -8 -30 19q-15 152 -98 223.5t-259 71.5q-205 0 -329.5 -110t-159.5 -306l-90 -506q-33 -195 54.5 -303.5t287.5 -108.5
q179 0 286.5 77t180.5 235q7 19 35 10l38 -14q25 -11 11 -37q-57 -121 -127.5 -197.5t-178.5 -120t-253 -43.5z" />
    <glyph glyph-name="uni0422" unicode="&#x422;" horiz-adv-x="1083" 
d="M393 0q-16 0 -20 6t-2 21l235 1339h-407q-28 0 -23 29l6 37q7 22 31 22h915q24 0 21 -29l-6 -36q-5 -14 -10.5 -18.5t-18.5 -4.5h-412l-237 -1343q-5 -23 -27 -23h-45z" />
    <glyph glyph-name="uni0422" unicode="&#x442;" horiz-adv-x="1083" 
d="M393 0q-16 0 -20 6t-2 21l235 1339h-407q-28 0 -23 29l6 37q7 22 31 22h915q24 0 21 -29l-6 -36q-5 -14 -10.5 -18.5t-18.5 -4.5h-412l-237 -1343q-5 -23 -27 -23h-45z" />
    <glyph glyph-name="uni0423" unicode="&#x423;" horiz-adv-x="1173" 
d="M246 0q-15 0 -19 8t4 19l252 385l-311 1018q-2 12 1 18t15 6h45q21 0 29 -4.5t12 -19.5l275 -918l596 922q9 13 16 16.5t25 3.5h47q27 0 12 -29l-907 -1405q-7 -13 -15 -16.5t-28 -3.5h-49z" />
    <glyph glyph-name="uni0423" unicode="&#x443;" horiz-adv-x="1173" 
d="M246 0q-15 0 -19 8t4 19l252 385l-311 1018q-2 12 1 18t15 6h45q21 0 29 -4.5t12 -19.5l275 -918l596 922q9 13 16 16.5t25 3.5h47q27 0 12 -29l-907 -1405q-7 -13 -15 -16.5t-28 -3.5h-49z" />
    <glyph glyph-name="uni0424" unicode="&#x424;" horiz-adv-x="1665" 
d="M680 -41q-24 0 -18 27l26 147h-129q-250 0 -359.5 138t-66.5 384l27 158q42 247 196.5 382.5t411.5 135.5h131l27 152q3 13 9.5 17.5t20.5 4.5h43q25 0 19 -28l-25 -146h129q263 0 368.5 -136t63.5 -386l-26 -158q-42 -245 -202.5 -381.5t-412.5 -136.5h-131l-28 -151
q-1 -14 -7.5 -18.5t-21.5 -4.5h-45zM700 219l185 1026h-131q-208 0 -337 -114.5t-163 -319.5l-27 -164q-36 -204 53.5 -316t297.5 -112h122zM930 219q204 0 336 115t166 319l28 164q72 428 -350 428h-131l-182 -1026h133z" />
    <glyph glyph-name="uni0424" unicode="&#x444;" horiz-adv-x="1665" 
d="M680 -41q-24 0 -18 27l26 147h-129q-250 0 -359.5 138t-66.5 384l27 158q42 247 196.5 382.5t411.5 135.5h131l27 152q3 13 9.5 17.5t20.5 4.5h43q25 0 19 -28l-25 -146h129q263 0 368.5 -136t63.5 -386l-26 -158q-42 -245 -202.5 -381.5t-412.5 -136.5h-131l-28 -151
q-1 -14 -7.5 -18.5t-21.5 -4.5h-45zM700 219l185 1026h-131q-208 0 -337 -114.5t-163 -319.5l-27 -164q-36 -204 53.5 -316t297.5 -112h122zM930 219q204 0 336 115t166 319l28 164q72 428 -350 428h-131l-182 -1026h133z" />
    <glyph glyph-name="uni0425" unicode="&#x425;" horiz-adv-x="1216" 
d="M-49 0q-30 0 -8 33l604 706l-342 693q-7 22 14 22h60q18 0 23.5 -4t10.5 -20l308 -617l524 621q9 13 16 16.5t25 3.5h61q13 0 17.5 -9t-2.5 -18l-590 -686l352 -712q14 -29 -16 -29h-56q-17 0 -23 5t-11 20l-320 641l-545 -643q-13 -23 -41 -23h-61z" />
    <glyph glyph-name="uni0425" unicode="&#x445;" horiz-adv-x="1216" 
d="M-49 0q-30 0 -8 33l604 706l-342 693q-7 22 14 22h60q18 0 23.5 -4t10.5 -20l308 -617l524 621q9 13 16 16.5t25 3.5h61q13 0 17.5 -9t-2.5 -18l-590 -686l352 -712q14 -29 -16 -29h-56q-17 0 -23 5t-11 20l-320 641l-545 -643q-13 -23 -41 -23h-61z" />
    <glyph glyph-name="uni0426" unicode="&#x426;" horiz-adv-x="1392" 
d="M1067 -313q-15 0 -20 5.5t-3 20.5l50 287h-998q-23 0 -20 29l248 1403q3 13 9.5 17.5t20.5 4.5h43q27 0 21 -29l-236 -1337h774l236 1344q7 22 31 22h45q23 0 20 -29l-237 -1337h125q28 0 22 -29l-61 -348q-3 -24 -29 -24h-41z" />
    <glyph glyph-name="uni0426" unicode="&#x446;" horiz-adv-x="1392" 
d="M1067 -313q-15 0 -20 5.5t-3 20.5l50 287h-998q-23 0 -20 29l248 1403q3 13 9.5 17.5t20.5 4.5h43q27 0 21 -29l-236 -1337h774l236 1344q7 22 31 22h45q23 0 20 -29l-237 -1337h125q28 0 22 -29l-61 -348q-3 -24 -29 -24h-41z" />
    <glyph glyph-name="uni0427" unicode="&#x427;" horiz-adv-x="1257" 
d="M858 0q-26 0 -20 29l102 575q-202 -49 -377 -49q-253 0 -341.5 128t-43.5 378l64 371q5 22 28 22h47q22 0 19 -29l-66 -370q-36 -210 32.5 -310t272.5 -100q187 0 381 51l129 734q5 24 27 24h47q24 0 21 -27l-248 -1400q-3 -16 -8.5 -21.5t-20.5 -5.5h-45z" />
    <glyph glyph-name="uni0427" unicode="&#x447;" horiz-adv-x="1257" 
d="M858 0q-26 0 -20 29l102 575q-202 -49 -377 -49q-253 0 -341.5 128t-43.5 378l64 371q5 22 28 22h47q22 0 19 -29l-66 -370q-36 -210 32.5 -310t272.5 -100q187 0 381 51l129 734q5 24 27 24h47q24 0 21 -27l-248 -1400q-3 -16 -8.5 -21.5t-20.5 -5.5h-45z" />
    <glyph glyph-name="uni0428" unicode="&#x428;" horiz-adv-x="1832" 
d="M96 0q-23 0 -20 29l248 1403q5 22 28 22h45q27 0 21 -29l-236 -1337h576l235 1344q7 22 31 22h45q24 0 18 -29l-235 -1337h575l236 1344q5 22 31 22h43q14 0 18 -6.5t2 -22.5l-248 -1400q-3 -14 -8.5 -19.5t-17.5 -5.5h-1387z" />
    <glyph glyph-name="uni0428" unicode="&#x448;" horiz-adv-x="1832" 
d="M96 0q-23 0 -20 29l248 1403q5 22 28 22h45q27 0 21 -29l-236 -1337h576l235 1344q7 22 31 22h45q24 0 18 -29l-235 -1337h575l236 1344q5 22 31 22h43q14 0 18 -6.5t2 -22.5l-248 -1400q-3 -14 -8.5 -19.5t-17.5 -5.5h-1387z" />
    <glyph glyph-name="uni0429" unicode="&#x429;" horiz-adv-x="1875" 
d="M1544 -313q-27 0 -22 26l51 287h-1473q-25 0 -22 27l248 1405q5 22 28 22h47q24 0 21 -29l-238 -1337h580l235 1344q5 22 29 22h47q13 0 17 -6.5t2 -22.5l-236 -1337h578l235 1344q5 22 29 22h45q14 0 18 -6.5t2 -22.5l-235 -1337h125q28 0 22 -29l-61 -348
q-5 -24 -29 -24h-43z" />
    <glyph glyph-name="uni0429" unicode="&#x449;" horiz-adv-x="1875" 
d="M1544 -313q-27 0 -22 26l51 287h-1473q-25 0 -22 27l248 1405q5 22 28 22h47q24 0 21 -29l-238 -1337h580l235 1344q5 22 29 22h47q13 0 17 -6.5t2 -22.5l-236 -1337h578l235 1344q5 22 29 22h45q14 0 18 -6.5t2 -22.5l-235 -1337h125q28 0 22 -29l-61 -348
q-5 -24 -29 -24h-43z" />
    <glyph glyph-name="uni042A" unicode="&#x42a;" horiz-adv-x="1456" 
d="M283 0q-22 0 -19 29l236 1337h-303q-27 0 -21 27l6 39q3 13 9 17.5t20 4.5h375q26 0 20 -29l-94 -536h375q409 0 409 -344q0 -153 -60 -276t-177 -196t-271 -73h-505zM788 88q187 0 300.5 128.5t113.5 318.5q0 136 -82 200t-250 64h-374l-125 -711h417z" />
    <glyph glyph-name="uni042A" unicode="&#x44a;" horiz-adv-x="1456" 
d="M283 0q-22 0 -19 29l236 1337h-303q-27 0 -21 27l6 39q3 13 9 17.5t20 4.5h375q26 0 20 -29l-94 -536h375q409 0 409 -344q0 -153 -60 -276t-177 -196t-271 -73h-505zM788 88q187 0 300.5 128.5t113.5 318.5q0 136 -82 200t-250 64h-374l-125 -711h417z" />
    <glyph glyph-name="uni042B" unicode="&#x42b;" horiz-adv-x="1703" 
d="M96 0q-14 0 -18 7t-2 22l248 1401q3 14 9 19t19 5h47q14 0 17.5 -7t1.5 -22l-94 -536h374q410 0 410 -344q0 -153 -60 -276t-176 -196t-270 -73h-506zM1305 0q-13 0 -18 6t-3 21l248 1405q4 22 29 22h45q14 0 18.5 -6t1.5 -21l-248 -1404q-6 -23 -24 -23h-49zM600 88
q187 0 300.5 128.5t113.5 318.5q0 136 -82 200t-250 64h-375l-125 -711h418z" />
    <glyph glyph-name="uni042B" unicode="&#x44b;" horiz-adv-x="1703" 
d="M96 0q-14 0 -18 7t-2 22l248 1401q3 14 9 19t19 5h47q14 0 17.5 -7t1.5 -22l-94 -536h374q410 0 410 -344q0 -153 -60 -276t-176 -196t-270 -73h-506zM1305 0q-13 0 -18 6t-3 21l248 1405q4 22 29 22h45q14 0 18.5 -6t1.5 -21l-248 -1404q-6 -23 -24 -23h-49zM600 88
q187 0 300.5 128.5t113.5 318.5q0 136 -82 200t-250 64h-375l-125 -711h418z" />
    <glyph glyph-name="uni042C" unicode="&#x42c;" horiz-adv-x="1247" 
d="M96 0q-14 0 -18 7t-2 22l248 1401q3 14 9.5 19t20.5 5h45q14 0 17.5 -7t1.5 -22l-94 -536h374q207 0 308.5 -85.5t101.5 -258.5q0 -153 -60 -276t-176 -196t-270 -73h-506zM600 88q187 0 300.5 128.5t113.5 318.5q0 135 -82.5 199.5t-249.5 64.5h-375l-125 -711h418z" />
    <glyph glyph-name="uni042C" unicode="&#x44c;" horiz-adv-x="1247" 
d="M96 0q-14 0 -18 7t-2 22l248 1401q3 14 9.5 19t20.5 5h45q14 0 17.5 -7t1.5 -22l-94 -536h374q207 0 308.5 -85.5t101.5 -258.5q0 -153 -60 -276t-176 -196t-270 -73h-506zM600 88q187 0 300.5 128.5t113.5 318.5q0 135 -82.5 199.5t-249.5 64.5h-375l-125 -711h418z" />
    <glyph glyph-name="uni042D" unicode="&#x42d;" horiz-adv-x="1288" 
d="M496 -29q-217 0 -320.5 89.5t-118.5 273.5q-6 20 17 28l45 13q25 6 28 -19q18 -154 98 -225.5t257 -71.5q205 0 331 110t160 306l39 217h-606q-26 0 -20 27l6 37q3 15 8 19.5t18 4.5h611l34 201q34 195 -55 303.5t-287 108.5q-182 0 -290 -77t-179 -235q-6 -13 -13.5 -14
t-20.5 4l-35 14q-26 7 -13 37q57 119 127.5 195.5t178.5 121t254 44.5q246 0 357.5 -135.5t68.5 -372.5l-89 -502q-42 -237 -194 -369.5t-397 -132.5z" />
    <glyph glyph-name="uni042D" unicode="&#x44d;" horiz-adv-x="1288" 
d="M496 -29q-217 0 -320.5 89.5t-118.5 273.5q-6 20 17 28l45 13q25 6 28 -19q18 -154 98 -225.5t257 -71.5q205 0 331 110t160 306l39 217h-606q-26 0 -20 27l6 37q3 15 8 19.5t18 4.5h611l34 201q34 195 -55 303.5t-287 108.5q-182 0 -290 -77t-179 -235q-6 -13 -13.5 -14
t-20.5 4l-35 14q-26 7 -13 37q57 119 127.5 195.5t178.5 121t254 44.5q246 0 357.5 -135.5t68.5 -372.5l-89 -502q-42 -237 -194 -369.5t-397 -132.5z" />
    <glyph glyph-name="uni042E" unicode="&#x42e;" horiz-adv-x="1849" 
d="M1044 -29q-249 0 -359.5 134t-68.5 374l37 213h-364l-119 -669q-5 -23 -29 -23h-45q-23 0 -20 29l248 1403q5 22 28 22h47q25 0 19 -29l-113 -643h363l34 197q43 240 195 372t397 132q250 0 360 -134.5t70 -375.5l-88 -498q-42 -242 -193.5 -373t-398.5 -131zM1049 59
q203 0 330.5 109.5t162.5 312.5l88 498q34 200 -52.5 308t-285.5 108q-204 0 -331.5 -111.5t-163.5 -310.5l-86 -498q-35 -198 52.5 -307t285.5 -109z" />
    <glyph glyph-name="uni042E" unicode="&#x44e;" horiz-adv-x="1849" 
d="M1044 -29q-249 0 -359.5 134t-68.5 374l37 213h-364l-119 -669q-5 -23 -29 -23h-45q-23 0 -20 29l248 1403q5 22 28 22h47q25 0 19 -29l-113 -643h363l34 197q43 240 195 372t397 132q250 0 360 -134.5t70 -375.5l-88 -498q-42 -242 -193.5 -373t-398.5 -131zM1049 59
q203 0 330.5 109.5t162.5 312.5l88 498q34 200 -52.5 308t-285.5 108q-204 0 -331.5 -111.5t-163.5 -310.5l-86 -498q-35 -198 52.5 -307t285.5 -109z" />
    <glyph glyph-name="uni042F" unicode="&#x42f;" horiz-adv-x="1290" 
d="M2 0q-15 0 -18.5 8.5t4.5 20.5l282 454q41 67 85.5 111t103.5 68q-122 19 -195.5 114t-70.5 228q9 450 499 450h502q24 0 20 -29l-247 -1400q-3 -14 -8.5 -19.5t-18.5 -5.5h-47q-24 0 -21 29l107 610h-315q-106 0 -177.5 -46.5t-136.5 -150.5l-258 -422
q-9 -13 -16.5 -16.5t-28.5 -3.5h-45zM995 727l113 639h-418q-395 0 -401 -356q-2 -118 69 -200.5t187 -82.5h450z" />
    <glyph glyph-name="uni042F" unicode="&#x44f;" horiz-adv-x="1290" 
d="M2 0q-15 0 -18.5 8.5t4.5 20.5l282 454q41 67 85.5 111t103.5 68q-122 19 -195.5 114t-70.5 228q9 450 499 450h502q24 0 20 -29l-247 -1400q-3 -14 -8.5 -19.5t-18.5 -5.5h-47q-24 0 -21 29l107 610h-315q-106 0 -177.5 -46.5t-136.5 -150.5l-258 -422
q-9 -13 -16.5 -16.5t-28.5 -3.5h-45zM995 727l113 639h-418q-395 0 -401 -356q-2 -118 69 -200.5t187 -82.5h450z" />
    <glyph glyph-name="Wgrave" unicode="&#x1e80;" horiz-adv-x="1796" 
d="M913 1774q-22 12 -2 32l25 23q8 8 16.5 8.5t13 -1.5t15.5 -9l242 -215q19 -16 4 -33l-15 -12q-12 -15 -32 0zM356 0q-28 0 -28 25l-121 1407q-2 14 1.5 18t16.5 4h51q17 0 23 -6t6 -21l88 -1099q8 -74 4 -193h9q31 95 77 195l482 1073q7 13 14 16.5t22 3.5h41
q31 0 31 -26l103 -1073q8 -122 8 -189h6q20 69 72 191l479 1108q6 12 12 16t21 4h51q24 0 14 -29l-614 -1405q-6 -13 -13 -16.5t-22 -3.5h-47q-31 0 -31 25l-102 1079q-9 133 -9 184h-6q-28 -85 -75 -188l-484 -1080q-4 -13 -11.5 -16.5t-23.5 -3.5h-45z" />
    <glyph glyph-name="Wgrave" unicode="&#x1e81;" horiz-adv-x="1796" 
d="M913 1774q-22 12 -2 32l25 23q8 8 16.5 8.5t13 -1.5t15.5 -9l242 -215q19 -16 4 -33l-15 -12q-12 -15 -32 0zM356 0q-28 0 -28 25l-121 1407q-2 14 1.5 18t16.5 4h51q17 0 23 -6t6 -21l88 -1099q8 -74 4 -193h9q31 95 77 195l482 1073q7 13 14 16.5t22 3.5h41
q31 0 31 -26l103 -1073q8 -122 8 -189h6q20 69 72 191l479 1108q6 12 12 16t21 4h51q24 0 14 -29l-614 -1405q-6 -13 -13 -16.5t-22 -3.5h-47q-31 0 -31 25l-102 1079q-9 133 -9 184h-6q-28 -85 -75 -188l-484 -1080q-4 -13 -11.5 -16.5t-23.5 -3.5h-45z" />
    <glyph glyph-name="Wacute" unicode="&#x1e82;" horiz-adv-x="1796" 
d="M883 1587q-6 8 -4 16t10 13l321 217q26 14 41 -6l17 -23q17 -17 -4 -28l-338 -209q-20 -9 -33 4zM356 0q-28 0 -28 25l-121 1407q-2 14 1.5 18t16.5 4h51q17 0 23 -6t6 -21l88 -1099q8 -74 4 -193h9q31 95 77 195l482 1073q7 13 14 16.5t22 3.5h41q31 0 31 -26l103 -1073
q8 -122 8 -189h6q20 69 72 191l479 1108q6 12 12 16t21 4h51q24 0 14 -29l-614 -1405q-6 -13 -13 -16.5t-22 -3.5h-47q-31 0 -31 25l-102 1079q-9 133 -9 184h-6q-28 -85 -75 -188l-484 -1080q-4 -13 -11.5 -16.5t-23.5 -3.5h-45z" />
    <glyph glyph-name="Wacute" unicode="&#x1e83;" horiz-adv-x="1796" 
d="M883 1587q-6 8 -4 16t10 13l321 217q26 14 41 -6l17 -23q17 -17 -4 -28l-338 -209q-20 -9 -33 4zM356 0q-28 0 -28 25l-121 1407q-2 14 1.5 18t16.5 4h51q17 0 23 -6t6 -21l88 -1099q8 -74 4 -193h9q31 95 77 195l482 1073q7 13 14 16.5t22 3.5h41q31 0 31 -26l103 -1073
q8 -122 8 -189h6q20 69 72 191l479 1108q6 12 12 16t21 4h51q24 0 14 -29l-614 -1405q-6 -13 -13 -16.5t-22 -3.5h-47q-31 0 -31 25l-102 1079q-9 133 -9 184h-6q-28 -85 -75 -188l-484 -1080q-4 -13 -11.5 -16.5t-23.5 -3.5h-45z" />
    <glyph glyph-name="Wdieresis" unicode="&#x1e84;" horiz-adv-x="1796" 
d="M881 1640q-27 0 -36.5 10.5t-6.5 37.5l4 14q3 26 14 35.5t39 9.5h12q26 0 35 -11t6 -38l-2 -15q-4 -27 -15 -35t-38 -8h-12zM1241 1640q-29 0 -38.5 10.5t-4.5 37.5l2 14q5 27 15.5 36t39.5 9h11q26 0 35.5 -11.5t5.5 -37.5l-2 -15q-4 -27 -15.5 -35t-38.5 -8h-10zM356 0
q-28 0 -28 25l-121 1407q-2 14 1.5 18t16.5 4h51q17 0 23 -6t6 -21l88 -1099q8 -74 4 -193h9q31 95 77 195l482 1073q7 13 14 16.5t22 3.5h41q31 0 31 -26l103 -1073q8 -122 8 -189h6q20 69 72 191l479 1108q6 12 12 16t21 4h51q24 0 14 -29l-614 -1405q-6 -13 -13 -16.5
t-22 -3.5h-47q-31 0 -31 25l-102 1079q-9 133 -9 184h-6q-28 -85 -75 -188l-484 -1080q-4 -13 -11.5 -16.5t-23.5 -3.5h-45z" />
    <glyph glyph-name="Wdieresis" unicode="&#x1e85;" horiz-adv-x="1796" 
d="M881 1640q-27 0 -36.5 10.5t-6.5 37.5l4 14q3 26 14 35.5t39 9.5h12q26 0 35 -11t6 -38l-2 -15q-4 -27 -15 -35t-38 -8h-12zM1241 1640q-29 0 -38.5 10.5t-4.5 37.5l2 14q5 27 15.5 36t39.5 9h11q26 0 35.5 -11.5t5.5 -37.5l-2 -15q-4 -27 -15.5 -35t-38.5 -8h-10zM356 0
q-28 0 -28 25l-121 1407q-2 14 1.5 18t16.5 4h51q17 0 23 -6t6 -21l88 -1099q8 -74 4 -193h9q31 95 77 195l482 1073q7 13 14 16.5t22 3.5h41q31 0 31 -26l103 -1073q8 -122 8 -189h6q20 69 72 191l479 1108q6 12 12 16t21 4h51q24 0 14 -29l-614 -1405q-6 -13 -13 -16.5
t-22 -3.5h-47q-31 0 -31 25l-102 1079q-9 133 -9 184h-6q-28 -85 -75 -188l-484 -1080q-4 -13 -11.5 -16.5t-23.5 -3.5h-45z" />
    <glyph glyph-name="Ygrave" unicode="&#x1ef2;" horiz-adv-x="1249" 
d="M637 1774q-22 12 -2 32l24 23q17 10 24 9t22 -11l241 -215q19 -16 4 -33l-14 -12q-12 -15 -33 0zM473 0q-23 0 -20 29l102 571l-365 830q-7 24 15 24h53q21 0 27.5 -4.5t11.5 -19.5l321 -740l582 744q9 13 16.5 16.5t28.5 3.5h51q13 0 17 -9t-2 -20l-662 -829l-102 -571
q-3 -15 -8.5 -20t-18.5 -5h-47z" />
    <glyph glyph-name="Ygrave" unicode="&#x1ef3;" horiz-adv-x="1249" 
d="M637 1774q-22 12 -2 32l24 23q17 10 24 9t22 -11l241 -215q19 -16 4 -33l-14 -12q-12 -15 -33 0zM473 0q-23 0 -20 29l102 571l-365 830q-7 24 15 24h53q21 0 27.5 -4.5t11.5 -19.5l321 -740l582 744q9 13 16.5 16.5t28.5 3.5h51q13 0 17 -9t-2 -20l-662 -829l-102 -571
q-3 -15 -8.5 -20t-18.5 -5h-47z" />
    <glyph glyph-name="endash" unicode="&#x2013;" horiz-adv-x="1169" 
d="M178 668q-26 0 -20 28l6 35q2 14 6.5 18.5t17.5 4.5h795q29 0 23 -29l-7 -33q-1 -15 -6 -19.5t-18 -4.5h-797z" />
    <glyph glyph-name="emdash" unicode="&#x2014;" horiz-adv-x="1579" 
d="M180 668q-28 0 -22 28l6 35q2 14 6.5 18.5t17.5 4.5h1205q28 0 22 -29l-6 -35q-1 -13 -6.5 -17.5t-20.5 -4.5h-1202z" />
    <glyph glyph-name="quoteleft" unicode="&#x2018;" horiz-adv-x="442" 
d="M459 1454q24 0 16 -22l-133 -320q-7 -18 -15 -23.5t-26 -5.5h-41q-19 0 -24 9t4 24l168 318q8 13 13 16.5t17 3.5h21z" />
    <glyph glyph-name="quoteright" unicode="&#x2019;" horiz-adv-x="434" 
d="M199 1083q-26 0 -17 21l133 321q6 18 14.5 23.5t26.5 5.5h41q39 0 21 -35l-168 -315q-13 -21 -31 -21h-20z" />
    <glyph glyph-name="quotesinglbase" unicode="&#x201a;" horiz-adv-x="395" 
d="M-76 -248q-25 0 -16 21l133 321q7 18 15 23.5t26 5.5h41q38 0 20 -35l-168 -315q-8 -13 -13.5 -17t-16.5 -4h-21z" />
    <glyph glyph-name="quotedblleft" unicode="&#x201c;" horiz-adv-x="657" 
d="M467 1454q24 0 16 -22l-135 -320q-6 -18 -14 -23.5t-27 -5.5h-39q-38 0 -22 33l170 318q6 12 11 16t17 4h23zM682 1454q24 0 16 -22l-135 -320q-6 -18 -14 -23.5t-27 -5.5h-39q-39 0 -22 33l170 318q6 12 11 16t17 4h23z" />
    <glyph glyph-name="quotedblright" unicode="&#x201d;" horiz-adv-x="649" 
d="M211 1083q-25 0 -16 21l133 321q7 18 15 23.5t26 5.5h41q38 0 20 -35l-168 -315q-13 -21 -31 -21h-20zM426 1083q-25 0 -16 21l133 321q7 18 15.5 23.5t27.5 5.5h39q38 0 20 -35l-168 -315q-13 -21 -31 -21h-20z" />
    <glyph glyph-name="quotedblbase" unicode="&#x201e;" horiz-adv-x="610" 
d="M-70 -248q-25 0 -16 21l133 321q7 18 15 23.5t26 5.5h41q39 0 21 -35l-168 -315q-13 -21 -31 -21h-21zM145 -248q-25 0 -16 21l133 321q7 18 15 23.5t26 5.5h41q39 0 21 -35l-168 -315q-13 -21 -31 -21h-21z" />
    <glyph glyph-name="dagger" unicode="&#x2020;" horiz-adv-x="1079" 
d="M360 -205q-28 0 -22 29l182 1042h-366q-29 0 -23 27l6 37q3 15 7.5 19.5t19.5 4.5h373l84 478q3 14 8 18t18 4h39q28 0 25 -29l-84 -471h364q29 0 23 -28l-6 -37q-1 -14 -7 -18.5t-20 -4.5h-371l-184 -1048q-1 -13 -7 -18t-20 -5h-39z" />
    <glyph glyph-name="daggerdbl" unicode="&#x2021;" horiz-adv-x="1175" 
d="M408 -205q-29 0 -23 29l82 469h-367q-28 0 -22 26l6 39q1 13 7 18t20 5h372l84 485h-366q-29 0 -23 27l6 37q3 15 7.5 19.5t19.5 4.5h373l84 478q3 14 8 18t18 4h39q28 0 25 -29l-84 -471h364q29 0 23 -28l-6 -37q-1 -14 -7 -18.5t-20 -4.5h-371l-84 -485h365
q28 0 25 -29l-9 -37q-3 -14 -7.5 -18t-18.5 -4h-371l-84 -475q-1 -13 -7 -18t-20 -5h-38z" />
    <glyph glyph-name="bullet" unicode="&#x2022;" horiz-adv-x="622" 
d="M264 430q-49 0 -75.5 32.5t-18.5 82.5q8 46 41 75t82 29q50 0 76.5 -33.5t17.5 -83.5q-8 -45 -42 -73.5t-81 -28.5z" />
    <glyph glyph-name="ellipsis" unicode="&#x2026;" horiz-adv-x="1208" 
d="M74 -12q-33 0 -44.5 13.5t-4.5 47.5l2 10q8 34 20.5 46t44.5 12h12q62 0 50 -62l-2 -12q-8 -33 -21 -44t-45 -11h-12zM477 -12q-34 0 -45 13t-4 48l2 10q8 34 21 46t45 12h10q33 0 45 -14.5t6 -47.5l-4 -12q-6 -32 -19 -43.5t-45 -11.5h-12zM881 -12q-34 0 -46 13t-6 48
l2 10q8 34 21 46t45 12h12q33 0 44 -14.5t5 -47.5l-2 -12q-8 -33 -20.5 -44t-44.5 -11h-10z" />
    <glyph glyph-name="perthousand" unicode="&#x2030;" horiz-adv-x="2375" 
d="M420 735q-148 0 -214.5 80t-41.5 221l26 150q25 141 116 219t235 78q146 0 211.5 -81t40.5 -222l-27 -150q-25 -139 -115 -217t-231 -78zM178 0q-15 0 -19 9t7 20l1227 1405q12 14 19 17t28 3h39q14 0 17.5 -8.5t-5.5 -20.5l-1227 -1405q-12 -14 -19 -17t-30 -3h-37z
M424 809q111 0 179 61t87 170l27 142q19 108 -28 167.5t-154 59.5q-111 0 -179.5 -61t-89.5 -170l-26 -144q-19 -107 29 -166t155 -59zM1114 -29q-147 0 -212 79.5t-40 219.5l27 150q25 141 115 220t231 79q147 0 213 -81t41 -222l-27 -150q-23 -139 -114 -217t-234 -78z
M1841 -29q-147 0 -212 79.5t-40 219.5l27 150q25 141 115 220t231 79q148 0 213.5 -81t38.5 -222l-25 -150q-25 -139 -116 -217t-232 -78zM1118 45q111 0 180.5 60t90.5 169l26 144q17 108 -30 167.5t-154 59.5q-110 0 -178.5 -61t-89.5 -170l-27 -144q-17 -108 30 -166.5
t152 -58.5zM1845 45q111 0 180.5 60t90.5 169l24 144q19 108 -28 167.5t-154 59.5q-111 0 -180 -61t-90 -170l-25 -144q-19 -107 28.5 -166t153.5 -59z" />
    <glyph glyph-name="guilsinglleft" unicode="&#x2039;" horiz-adv-x="653" 
d="M414 303q-17 -13 -27 2l-268 412q-14 21 2 35l414 411q11 9 16.5 9t11.5 -9l21 -20q15 -18 0 -31l-381 -379l241 -379q11 -17 0 -28z" />
    <glyph glyph-name="guilsinglright" unicode="&#x203a;" horiz-adv-x="651" 
d="M72 328q-15 15 0 28l381 379l-244 379q-12 15 4 29l29 22q16 11 26 -2l271 -415q14 -17 -2 -33l-416 -410q-16 -16 -29 0z" />
    <glyph glyph-name="fraction" unicode="&#x2044;" horiz-adv-x="333" 
d="M-420 0q-15 0 -18.5 8.5t6.5 20.5l1114 1403q12 15 18.5 18.5t26.5 3.5h29q14 0 18 -8.5t-6 -20.5l-1110 -1402q-14 -15 -21.5 -19t-27.5 -4h-29z" />
    <glyph glyph-name="Euro" unicode="&#x20ac;" horiz-adv-x="1462" 
d="M702 -29q-246 0 -355.5 128t-70.5 358l13 69h-205q-28 0 -16 27l12 27q6 13 12 16.5t19 3.5h190l41 234h-133q-28 0 -16 24l12 29q6 13 11.5 16.5t19.5 3.5h120l15 86q42 232 195.5 361t400.5 129q182 0 279.5 -63t142.5 -191q7 -13 5 -22t-16 -15l-39 -16q-23 -8 -34 18
q-33 99 -113.5 150t-233.5 51q-206 0 -331.5 -105t-159.5 -293l-14 -90h630q26 0 17 -26l-15 -27q-10 -20 -30 -20h-621l-41 -234h551q29 0 17 -27l-15 -26q-8 -21 -31 -21h-532l-12 -69q-31 -187 59 -292.5t285 -105.5q161 0 262.5 57t169.5 171q15 18 37 8l35 -19
q25 -14 2 -47q-78 -129 -204 -193.5t-315 -64.5z" />
    <glyph glyph-name="uni20BD" unicode="&#x20bd;" horiz-adv-x="1292" 
d="M131 0q-14 0 -18 6t-2 21l47 278h-99q-12 0 -17.5 5.5t-4.5 15.5l4 28q3 15 8.5 19t20.5 4h102l186 1055q3 13 9 17.5t20 4.5h498q168 0 265 -88.5t97 -245.5q0 -228 -137.5 -372t-364.5 -144h-438l-41 -227h678q26 0 23 -23l-4 -26q-3 -15 -8.5 -19t-20.5 -4h-680
l-49 -280q-6 -25 -27 -25h-47zM735 690q188 0 302 117.5t114 300.5q0 121 -74 189.5t-205 68.5h-432l-118 -676h413z" />
    <glyph glyph-name="uni2113" unicode="&#x2113;" horiz-adv-x="862" 
d="M397 -16q-189 0 -204 188q-3 39 2.5 91t27.5 183q-22 -16 -75 -54.5t-78 -57.5q-18 -8 -25 12l-16 35q-11 21 43 55q130 89 170 119l106 606q60 334 303 334q106 0 156.5 -62.5t44.5 -179.5q-6 -178 -135 -361t-398 -382q-44 -248 -45 -277q-3 -88 30 -127.5t106 -39.5
q43 0 110 25.5t72 41.5q16 8 22 -4l23 -37q12 -16 -4 -29q-1 0 -13 -8.5t-25 -16t-35.5 -18t-45.5 -18t-54.5 -13t-62.5 -5.5zM338 625q423 334 432 637q3 157 -121 157q-172 0 -217 -264z" />
    <glyph glyph-name="uni2116" unicode="&#x2116;" horiz-adv-x="2164" 
d="M1688 735q-140 0 -202 80t-36 219l27 152q25 141 111 220t220 79q139 0 201 -81t37 -222l-27 -152q-23 -139 -110 -217t-221 -78zM98 0q-23 0 -20 27l248 1405q3 13 8.5 17.5t19.5 4.5h49q22 0 27 -16l457 -1010q24 -55 119 -293h4q28 242 51 373l164 926q1 12 8 16t22 4
h41q24 0 21 -29l-248 -1400q-6 -25 -27 -25h-51q-19 0 -24 18l-469 1035q-51 115 -105 264h-4q-29 -227 -51 -338l-168 -956q-5 -23 -29 -23h-43zM1692 809q102 0 167.5 60.5t84.5 168.5l26 146q19 107 -25 167t-141 60q-102 0 -167.5 -61t-86.5 -170l-24 -146
q-19 -107 24.5 -166t141.5 -59zM1382 506q-27 0 -24 26l6 31q1 13 8.5 18t22.5 5h522q28 0 22 -29l-6 -29q-2 -14 -6.5 -18t-21.5 -4h-523z" />
    <glyph glyph-name="uni2117" unicode="&#x2117;" horiz-adv-x="1646" 
d="M698 -16q-317 0 -468 183.5t-107 512.5q48 357 267.5 565.5t557.5 208.5q315 0 465 -184t103 -512q-46 -358 -264.5 -566t-553.5 -208zM698 43q309 0 511 193.5t247 523.5q46 299 -89.5 466t-422.5 167q-311 0 -513 -192.5t-247 -522.5q-44 -300 90.5 -467.5
t423.5 -167.5zM530 305q-21 0 -14 23l135 766q1 12 6 16t17 4h264q128 0 189 -71t44 -201q-20 -129 -104.5 -202t-214.5 -73h-229l-43 -243q-3 -19 -21 -19h-29zM856 627q102 0 169.5 56.5t82.5 160.5q17 100 -29.5 153.5t-144.5 53.5h-227l-74 -424h223z" />
    <glyph glyph-name="trademark" unicode="&#x2122;" horiz-adv-x="1271" 
d="M354 907q-11 0 -14.5 5t-1.5 18l78 438h-160q-13 0 -15.5 3t-0.5 15l4 19q1 13 4.5 15.5t15.5 2.5h377q11 0 15 -3.5t1 -16.5l-4 -19q0 -9 -4 -12.5t-16 -3.5h-158l-80 -444q-2 -17 -26 -17h-15zM643 907q-11 0 -13.5 5t-0.5 18l84 475q3 13 6 15.5t16 2.5h10
q17 0 23 -14l137 -313l244 315q15 12 25 12h18q20 0 14 -20l-84 -479q-2 -11 -5.5 -14t-16.5 -3h-19q-11 0 -14.5 5t-1.5 18l51 278q6 46 23 107l-215 -277q-2 -3 -4 -5l-3 -3t-4 -1.5t-4 -0.5h-5h-5h-8q-14 0 -19 12l-120 277q-3 -24 -17 -113l-49 -280q-3 -12 -6 -14.5
t-16 -2.5h-21z" />
    <glyph glyph-name="uni2126" unicode="&#x2126;" horiz-adv-x="1503" 
d="M27 0q-26 0 -23 27l6 41q3 15 8 19.5t19 4.5h354q-248 190 -248 522q0 170 54.5 328t150 278t234.5 191.5t297 71.5q233 0 366 -146t133 -393q0 -262 -130.5 -491.5t-356.5 -360.5h344q12 0 19 -6t6 -16q-1 -6 -4.5 -22t-4.5 -25q-3 -14 -7.5 -18.5t-18.5 -4.5h-471
q-10 0 -16.5 7t-4.5 18l6 32q3 21 17 27q153 69 273.5 200t187.5 299.5t67 344.5q2 214 -107.5 340.5t-302.5 126.5q-113 0 -214.5 -43.5t-178 -119.5t-133 -176.5t-86 -217.5t-29.5 -238q0 -163 71 -300t208 -218q17 -7 14 -25l-6 -37q-3 -20 -22 -20h-471z" />
    <glyph glyph-name="estimated" unicode="&#x212e;" horiz-adv-x="1751" 
d="M883 -31q-154 0 -294.5 60t-242 161.5t-161.5 242t-60 294.5t60 294.5t161.5 242t242 161.5t294.5 60t294 -60t241.5 -161.5t161.5 -242t60 -294.5v-33q0 -16 -7 -23t-25 -7h-1127v-439q189 -141 402 -141q181 0 338 98t241 269q9 15 18 19.5t31 4.5h54q19 0 22.5 -5
t-2.5 -24q-81 -210 -272 -343.5t-430 -133.5zM1284 776v461q-177 141 -401 141q-220 0 -402 -139v-463h803z" />
    <glyph glyph-name="uni2153" unicode="&#x2153;" horiz-adv-x="1685" 
d="M356 655q-14 0 -18 6.5t-2 22.5l121 682l-215 -113q-21 -12 -29 11l-12 22q-10 20 12 33l260 137q16 8 33 8h22q22 0 19 -26l-135 -760q-5 -23 -29 -23h-27zM195 0q-15 0 -19 8.5t6 20.5l1114 1403q12 15 18.5 18.5t26.5 3.5h29q14 0 18 -8.5t-6 -20.5l-1110 -1402
q-14 -15 -21.5 -19t-27.5 -4h-28zM1194 -16q-122 0 -181 57.5t-65 175.5q0 16 13 19l30 8q20 6 25 -15q6 -92 49 -134t131 -42q98 0 155.5 54.5t57.5 148.5q0 55 -29 90t-84 35h-120q-22 0 -15 22l4 25q3 14 7 17.5t14 3.5h119q73 0 113 52t40 130q0 57 -38.5 91t-104.5 34
q-84 0 -137.5 -38.5t-92.5 -131.5q-8 -11 -13 -13t-19 2l-19 9q-22 8 -8 34q50 113 119 160t178 47q95 0 151 -49.5t56 -130.5q0 -173 -137 -229q42 -17 66 -59t24 -97q0 -132 -78.5 -204t-210.5 -72z" />
    <glyph glyph-name="uni2154" unicode="&#x2154;" horiz-adv-x="1732" 
d="M145 655q-29 0 -22 31l14 88q18 92 61.5 150.5t123.5 91.5l118 49q42 16 63.5 25.5t55 30t50.5 41t30.5 53.5t13.5 73q0 119 -147 119q-31 0 -58.5 -8.5t-46.5 -18t-38 -29.5t-27.5 -30t-21 -33.5t-13 -26t-8.5 -20.5q-6 -13 -25 -10l-28 8q-23 9 -11 35q11 25 20 43
t34 52t53 55.5t74.5 39t101.5 17.5q108 0 162.5 -49t54.5 -136q0 -63 -17 -109t-56 -79.5t-78 -54.5t-107 -49l-115 -48q-55 -23 -85.5 -59t-43.5 -100l-14 -70h393q14 0 17.5 -6.5t1.5 -20.5l-4 -24q-5 -21 -25 -21h-451zM297 0q-14 0 -17.5 8.5t5.5 20.5l1116 1403
q11 15 17 18.5t26 3.5h31q14 0 17.5 -8.5t-5.5 -20.5l-1112 -1402q-12 -15 -19.5 -19t-27.5 -4h-31zM1245 -16q-122 0 -181 57.5t-65 175.5q0 16 13 19l30 8q20 6 23 -15q7 -92 50.5 -134t131.5 -42q98 0 155.5 54.5t57.5 148.5q0 55 -28.5 90t-83.5 35h-121q-22 0 -15 22
l5 25q3 14 6.5 17.5t13.5 3.5h119q73 0 113 52t40 130q0 57 -38.5 91t-104.5 34q-83 0 -137 -38.5t-94 -131.5q-11 -19 -31 -11l-21 9q-20 9 -6 34q50 113 119 160t178 47q95 0 151 -49.5t56 -130.5q0 -173 -137 -229q42 -17 66 -59t24 -97q0 -132 -78.5 -204t-210.5 -72z
" />
    <glyph glyph-name="oneeighth" unicode="&#x215b;" horiz-adv-x="1687" 
d="M356 655q-24 0 -18 29l121 682l-217 -113q-18 -12 -29 11l-12 22q-8 22 12 33l258 135q17 10 35 10h22q26 0 19 -26l-133 -760q-3 -13 -9.5 -18t-21.5 -5h-27zM193 0q-15 0 -19 8.5t6 20.5l1114 1403q12 15 18.5 18.5t24.5 3.5h31q14 0 17.5 -8.5t-5.5 -20.5l-1110 -1402
q-14 -15 -21.5 -19t-27.5 -4h-28zM1171 -16q-117 0 -179 47.5t-62 138.5q0 82 51 147t143 99q-107 49 -104 168q3 111 80 176t209 65q110 0 169.5 -47t59.5 -133q0 -76 -48 -139t-130 -94q131 -45 131 -174q0 -119 -85.5 -186.5t-234.5 -67.5zM1278 438q83 20 134.5 74.5
t51.5 122.5q0 62 -42.5 94.5t-121.5 32.5q-95 0 -150.5 -47t-55.5 -129q0 -68 43.5 -102t140.5 -46zM1180 47q107 0 171 50t64 136q0 63 -46 97t-159 51q-91 -17 -147.5 -74t-56.5 -131q0 -62 45 -95.5t129 -33.5z" />
    <glyph glyph-name="threeeighths" unicode="&#x215c;" horiz-adv-x="1759" 
d="M383 641q-121 0 -179.5 57t-64.5 174q0 18 13 21l30 8q21 6 23 -14q7 -93 50 -134.5t130 -41.5q100 0 157.5 54t57.5 146q0 55 -30 91t-83 36h-120q-24 0 -17 23l6 24q3 13 6.5 17t12.5 4h119q73 0 113 52t40 128q0 59 -37.5 93t-103.5 34q-84 0 -138 -38.5t-94 -131.5
q-6 -11 -12 -13t-18 3l-21 8q-19 8 -8 35q50 114 119 160.5t180 46.5q95 0 151 -49.5t56 -130.5q0 -89 -33 -145t-104 -85q42 -17 65 -59t23 -96q0 -133 -78 -205t-211 -72zM289 0q-15 0 -19 8.5t6 20.5l1115 1403q12 15 18.5 18.5t24.5 3.5h30q14 0 18 -8.5t-5 -20.5
l-1112 -1402q-12 -15 -20 -19t-28 -4h-28zM1249 -16q-119 0 -181 47.5t-62 138.5q0 82 51.5 147t142.5 99q-105 48 -102 168q2 111 78.5 176t209.5 65q110 0 169 -46.5t61 -133.5q0 -76 -49 -139t-129 -94q131 -46 131 -174q0 -119 -85.5 -186.5t-234.5 -67.5zM1354 438
q83 20 134.5 74.5t51.5 122.5q0 62 -41.5 94.5t-120.5 32.5q-95 0 -151 -47t-56 -129q0 -68 43 -102t140 -46zM1255 47q108 0 172 50t64 136q0 63 -45.5 97t-157.5 51q-91 -17 -149 -74.5t-58 -130.5q0 -62 45.5 -95.5t128.5 -33.5z" />
    <glyph glyph-name="fiveeighths" unicode="&#x215d;" horiz-adv-x="1712" 
d="M365 645q-118 0 -171 56.5t-61 168.5q-3 23 12 27l29 8q24 6 27 -16q2 -86 40.5 -130t127.5 -44q100 0 160.5 67.5t60.5 165.5q0 133 -166 133h-199q-27 0 -20 29l90 338q5 22 31 22h387q20 0 16 -20l-6 -31q-1 -10 -5.5 -14t-15.5 -4h-346l-69 -254h139q238 0 238 -186
q0 -137 -81.5 -226.5t-217.5 -89.5zM242 0q-14 0 -17.5 8.5t6.5 20.5l1115 1403q10 15 17 18.5t26 3.5h30q14 0 18 -8.5t-5 -20.5l-1113 -1402q-12 -15 -19.5 -19t-27.5 -4h-30zM1200 -16q-118 0 -181 48t-63 138q0 82 52 147t143 99q-105 50 -102 168q2 111 78.5 176
t209.5 65q110 0 170 -47t60 -133q0 -76 -49 -139t-129 -94q131 -46 131 -174q0 -119 -85.5 -186.5t-234.5 -67.5zM1305 438q83 20 134.5 74.5t51.5 122.5q0 62 -41.5 94.5t-120.5 32.5q-95 0 -151 -47t-56 -129q0 -68 43 -102t140 -46zM1206 47q108 0 172 50t64 136
q0 63 -45.5 97t-157.5 51q-91 -17 -149 -74.5t-58 -130.5q0 -62 45.5 -95.5t128.5 -33.5z" />
    <glyph glyph-name="seveneighths" unicode="&#x215e;" horiz-adv-x="1654" 
d="M209 657q-25 0 -10 29l424 709h-385q-22 0 -19 22l6 31q3 12 7.5 15t17.5 3h452q25 0 19 -24l-4 -19q-5 -17 -10 -30l-431 -721q-8 -15 -30 -15h-37zM123 0q-14 0 -17.5 8.5t5.5 20.5l1114 1403q12 15 18.5 18.5t26.5 3.5h28q14 0 18.5 -8.5t-5.5 -20.5l-1110 -1402
q-12 -15 -20 -19t-27 -4h-31zM1141 -16q-119 0 -181.5 47.5t-62.5 138.5q0 82 52 147t143 99q-105 48 -105 168q3 111 80 176t209 65q112 0 170.5 -46.5t58.5 -133.5q1 -76 -47.5 -139t-130.5 -94q131 -45 131 -174q0 -120 -84.5 -187t-232.5 -67zM1245 438q83 20 135 75
t52 122q0 127 -164 127q-95 0 -150 -46.5t-55 -129.5q0 -68 42.5 -102t139.5 -46zM1147 47q107 0 171 50t64 136q0 63 -45 97t-157 51q-91 -17 -149 -74.5t-58 -130.5q0 -62 45.5 -95.5t128.5 -33.5z" />
    <glyph glyph-name="arrowleft" unicode="&#x2190;" horiz-adv-x="1521" 
d="M508 156q-12 -15 -25 4l-387 504q-18 25 2 45l566 503q12 8 16 7t12 -9l21 -24q15 -16 0 -31l-486 -434h1139q21 0 18 -25l-4 -30q-3 -12 -6.5 -15.5t-15.5 -3.5h-1147l332 -438q12 -18 -4 -31z" />
    <glyph glyph-name="arrowup" unicode="&#x2191;" horiz-adv-x="1449" 
d="M580 2q-24 0 -21 25l215 1208l-469 -434q-12 -7 -15.5 -6t-10.5 10l-23 20q-16 15 2 33l555 504q23 20 41 -4l377 -502q7 -12 7.5 -17t-7.5 -16l-29 -22q-16 -14 -28 4l-322 430l-215 -1215q-1 -10 -5.5 -14t-15.5 -4h-36z" />
    <glyph glyph-name="arrowright" unicode="&#x2192;" horiz-adv-x="1509" 
d="M838 158q-19 -19 -31 0l-21 24q-14 17 2 31l486 434h-1141q-24 0 -18 23l4 32q2 11 6 15t16 4h1149l-332 438q-15 18 0 31l31 22q17 14 29 -4l387 -503q16 -26 -4 -46z" />
    <glyph glyph-name="arrowdown" unicode="&#x2193;" horiz-adv-x="1445" 
d="M203 522q-14 17 0 31l26 22q18 12 29 -4l320 -430l215 1215q5 18 22 18h37q22 0 16 -24l-213 -1209l473 434q15 13 27 -2l21 -24q12 -15 -2 -31l-556 -504q-23 -20 -38 4z" />
    <glyph glyph-name="uni2196" unicode="&#x2196;" horiz-adv-x="1443" 
d="M203 182q-16 -16 -29 4l-16 19q-15 15 0 33l942 866h-557q-24 0 -21 24l6 31q3 11 7.5 15t15.5 4h653q17 0 23 -8t4 -27l-127 -713q-1 -11 -5.5 -14.5t-15.5 -3.5h-34q-25 0 -19 24l111 617z" />
    <glyph glyph-name="uni2197" unicode="&#x2197;" horiz-adv-x="1439" 
d="M1081 182q-16 -13 -30 4l-633 867l-111 -621q-2 -12 -6 -16t-16 -4h-35q-23 0 -17 24l125 713q5 18 10.5 23.5t22.5 5.5h653q24 0 21 -25l-6 -29q-2 -13 -5 -16.5t-16 -3.5h-565l633 -871q12 -18 -2 -30z" />
    <glyph glyph-name="uni2198" unicode="&#x2198;" horiz-adv-x="1439" 
d="M381 174q-26 0 -23 25l7 30q3 21 22 21h563l-631 870q-15 16 0 31l25 18q15 15 29 -2l633 -868l110 623q3 12 7 16t16 4h35q22 0 16 -24l-125 -713q-3 -19 -8.5 -25t-22.5 -6h-653z" />
    <glyph glyph-name="uni2199" unicode="&#x2199;" horiz-adv-x="1443" 
d="M219 174q-32 0 -26 35l124 713q3 12 7 16t14 4h35q25 0 18 -27l-110 -616l940 872q15 12 28 -4l17 -20q16 -15 0 -31l-942 -866h557q23 0 20 -27l-6 -28q-3 -13 -7 -17t-16 -4h-653z" />
    <glyph glyph-name="partialdiff" unicode="&#x2202;" horiz-adv-x="1046" 
d="M383 -29q-186 0 -264 101.5t-45 287.5l53 295q32 186 141.5 287.5t280.5 101.5q117 0 185 -47t83 -137q47 301 -42.5 438.5t-350.5 137.5q-16 0 -20.5 5t-2.5 19l5 35q3 14 6.5 18.5t13.5 4.5q320 0 427 -167.5t44 -525.5l-82 -469q-32 -186 -142.5 -285.5t-289.5 -99.5z
M387 53q139 0 226 81t112 226l53 297q26 146 -31.5 226t-193.5 80q-139 0 -226 -82.5t-112 -231.5l-53 -293q-24 -146 33 -224.5t192 -78.5z" />
    <glyph glyph-name="uni2206" unicode="&#x2206;" horiz-adv-x="1226" 
d="M-10 0q-26 0 -23 29l6 30q4 18 19 52l692 1325q9 18 35 18h43q26 0 29 -24l225 -1321q6 -37 4 -54l-6 -32q-3 -14 -8.5 -18.5t-18.5 -4.5h-997zM922 82l-140 889q-10 65 -27 196t-26 191h-6q-109 -245 -186 -391l-455 -885h840z" />
    <glyph glyph-name="product" unicode="&#x220f;" horiz-adv-x="1327" 
d="M117 -205q-29 0 -23 29l271 1542h-125q-29 0 -23 29l6 37q3 14 7.5 18t19.5 4h1079q29 0 23 -29l-6 -36q-3 -14 -7.5 -18.5t-17.5 -4.5h-131l-272 -1548q-1 -13 -7 -18t-20 -5h-45q-27 0 -21 29l271 1542h-635l-273 -1548q-1 -13 -6.5 -18t-19.5 -5h-45z" />
    <glyph glyph-name="summation" unicode="&#x2211;" horiz-adv-x="1128" 
d="M-35 -205q-26 0 -20 29l4 35q9 21 12 26l543 750l-273 729q-6 15 -6 31l6 35q5 15 9.5 19.5t17.5 4.5h838q23 0 20 -31l-6 -34q-3 -14 -8 -18.5t-17 -4.5h-751l262 -704q11 -28 -6 -58l-520 -721h755q27 0 21 -28l-6 -37q-1 -13 -7 -18t-18 -5h-850z" />
    <glyph glyph-name="minus" unicode="&#x2212;" horiz-adv-x="1216" 
d="M174 623q-25 0 -22 28l6 35q3 14 8 18.5t18 4.5h836q28 0 22 -27l-6 -35q-3 -15 -8 -19.5t-18 -4.5h-836z" />
    <glyph glyph-name="uni2215" unicode="&#x2215;" horiz-adv-x="1130" 
d="M-70 0q-14 0 -17 9.5t7 21.5l1192 1401q11 16 18.5 19t30.5 3h39q14 0 17 -10t-7 -21l-1190 -1400q-14 -15 -23 -19t-32 -4h-35z" />
    <glyph glyph-name="uni2219" unicode="&#x2219;" horiz-adv-x="448" 
d="M127 383q-34 0 -45 13t-4 48l2 13q8 33 20.5 44t44.5 11h11q34 0 45.5 -14.5t5.5 -46.5l-4 -11q-6 -34 -19 -45.5t-45 -11.5h-12z" />
    <glyph glyph-name="radical" unicode="&#x221a;" horiz-adv-x="1343" 
d="M567 -217q-23 0 -28 22l-146 1010h-258q-26 0 -20 29l4 33q3 15 8.5 19.5t19.5 4.5h293q23 0 31 -6t8 -21l101 -731q8 -55 14.5 -146t9.5 -114l10 2q12 26 46 119t57 146l614 1363q6 14 13 18.5t26 4.5h47q14 0 19 -7.5t-2 -19.5l-785 -1708q-4 -12 -10.5 -15t-22.5 -3
h-49z" />
    <glyph glyph-name="infinity" unicode="&#x221e;" horiz-adv-x="1458" 
d="M348 279q-109 0 -171.5 61.5t-61.5 179.5q1 164 98 267.5t244 103.5q47 0 88 -17t67.5 -41.5t48.5 -58.5t33.5 -61.5t20.5 -57.5q23 38 53.5 74t73.5 75t98.5 63t112.5 24q115 0 177 -61.5t62 -182.5q0 -161 -96.5 -264.5t-237.5 -103.5q-60 0 -109 23t-80 60.5t-49 72.5
t-28 71q-23 -36 -52.5 -70.5t-73.5 -72t-101 -61t-117 -23.5zM352 358q37 0 72 10.5t64.5 30.5t53.5 40t45 47t33.5 43.5t25.5 37t13 21.5q-1 2 -7.5 24t-14 44.5t-24.5 51.5t-37.5 50.5t-53.5 37t-73 15.5q-111 0 -182.5 -81t-73.5 -200q0 -85 42.5 -128.5t116.5 -43.5z
M965 358q102 0 175.5 79.5t73.5 201.5q0 86 -43.5 129t-121.5 43q-31 0 -62 -9t-55.5 -23t-49 -34.5t-41.5 -39t-34.5 -41t-26.5 -37t-19 -30.5t-11 -17q1 -2 6 -21t11 -36t17 -42t27.5 -45t37.5 -38.5t51 -29t65 -10.5z" />
    <glyph glyph-name="integral" unicode="&#x222b;" horiz-adv-x="718" 
d="M-133 -451q-29 0 -23 27l4 35q3 13 7.5 17.5t15.5 4.5q135 0 204 70.5t95 216.5l217 1231q33 187 125 276t270 89q29 0 23 -27l-6 -35q-1 -13 -6 -17.5t-17 -4.5q-134 0 -202.5 -70.5t-94.5 -216.5l-219 -1231q-32 -186 -124 -275.5t-269 -89.5z" />
    <glyph glyph-name="approxequal" unicode="&#x2248;" horiz-adv-x="1136" 
d="M805 780q-67 -1 -128.5 21.5t-118.5 45.5t-112 23q-100 0 -206 -86q-18 -13 -33 9l-14 24q-16 22 0 41q119 93 245 96q66 0 129 -23.5t120.5 -46.5t113.5 -22q103 3 203 86q6 6 15 4t15 -10l21 -27q17 -21 0 -38q-128 -94 -250 -97zM741 403q-54 0 -104.5 14.5t-84.5 32
t-80.5 32t-92.5 14.5q-56 0 -102 -21.5t-99 -64.5q-16 -11 -33 6l-20 26q-21 21 2 39q66 49 123 73t123 24q67 1 129 -22t119 -46t112 -23q100 0 207 86q20 14 31 -8l18 -24q15 -26 -2 -39q-120 -96 -246 -99z" />
    <glyph glyph-name="notequal" unicode="&#x2260;" horiz-adv-x="1251" 
d="M250 141q-5 0 -7.5 3.5t1.5 11.5l174 268h-260q-26 0 -23 29l6 34q3 14 7.5 18.5t17.5 4.5h309l203 319h-451q-26 0 -20 27l6 35q3 15 7.5 19.5t17.5 4.5h497l172 269q7 10 21 10h43q13 0 4 -12l-172 -267h270q26 0 23 -28l-6 -35q-3 -14 -7.5 -18.5t-17.5 -4.5h-317
l-205 -319h461q26 0 20 -29l-6 -35q-3 -14 -7.5 -18t-17.5 -4h-506l-178 -277q-2 -6 -20 -6h-39z" />
    <glyph glyph-name="lessequal" unicode="&#x2264;" horiz-adv-x="1159" 
d="M238 817q-22 12 -19 35l6 25q5 22 23 32l766 359q14 6 19.5 0t2.5 -23l-6 -37q-3 -20 -7 -25.5t-19 -13.5l-664 -303l-2 -4l551 -307q13 -8 16 -15.5t0 -31.5l-6 -35q-1 -18 -7.5 -21t-19.5 5zM129 178q-14 0 -18.5 7t-1.5 24l4 31q3 15 8 19.5t18 4.5h697q28 0 22 -28
l-6 -35q-3 -15 -7.5 -19t-19.5 -4h-696z" />
    <glyph glyph-name="greaterequal" unicode="&#x2265;" horiz-adv-x="1153" 
d="M195 455q-15 -7 -20.5 -1.5t-2.5 23.5l6 37q4 22 9 28.5t20 12.5l661 307l2 4l-551 305q-13 8 -16 16t0 30l6 32q2 29 23 17l641 -359q19 -13 16 -35l-6 -24q-2 -14 -7 -20.5t-18 -12.5zM147 178q-27 0 -24 29l8 33q1 16 6 20t21 4h696q26 0 20 -31l-4 -30q-3 -15 -8 -20
t-18 -5h-697z" />
    <glyph glyph-name="lozenge" unicode="&#x25ca;" horiz-adv-x="1038" 
d="M379 0q-20 0 -29 23l-246 684q-8 21 7 45l485 682q12 20 31 20h35q20 0 26 -22l244 -684q9 -25 -4 -46l-486 -684q-14 -18 -32 -18h-31zM412 106l436 621l-215 623h-4l-436 -623l215 -621h4z" />
    <glyph glyph-name="uniF6C3" unicode="&#xf6c3;" 
d="M-485 -504q-24 0 -17 23l135 299q5 22 31 22h39q17 0 22.5 -8t-1.5 -20l-150 -293q-10 -23 -33 -23h-26z" />
    <glyph glyph-name="uni0414.loclBGR" horiz-adv-x="1384" 
d="M-111 -313q-13 0 -17.5 5.5t-2.5 20.5l65 350q3 14 9.5 19.5t19.5 5.5h80l715 1342q13 24 39 24h45q25 0 28 -22l244 -1344h86q13 0 16.5 -5.5t0.5 -19.5l-62 -350q-1 -15 -8.5 -20.5t-22.5 -5.5h-43q-13 0 -17 5.5t-1 20.5l49 287h-1100l-49 -287q-3 -26 -29 -26h-45z
M1016 88l-166 952q-42 311 -43 318h-6q-15 -29 -67 -140t-87 -178l-500 -952h869z" />
    <glyph glyph-name="uni041B.loclBGR" horiz-adv-x="1239" 
d="M-53 0q-29 0 -15 25l754 1405q13 24 37 24h47q24 0 27 -22l260 -1407q7 -25 -23 -25h-43q-18 0 -25 4.5t-10 18.5l-180 1021q-10 61 -24.5 173t-18.5 135h-6q-19 -36 -70 -142t-82 -166l-538 -1021q-13 -23 -45 -23h-45z" />
    <glyph glyph-name="uni0424.loclBGR" horiz-adv-x="1712" 
d="M674 -178q-28 0 -23 24l29 154h-131q-252 0 -363.5 144.5t-64.5 390.5l76 413q46 244 202.5 375t409.5 131h131l27 154q5 24 30 24h45q26 0 21 -24l-27 -154h129q251 0 362 -144t66 -390l-77 -414q-45 -243 -201.5 -374.5t-409.5 -131.5h-131l-26 -154q-5 -24 -29 -24
h-45zM696 86l228 1282h-131q-210 0 -337.5 -113t-166.5 -319l-78 -418q-37 -204 54 -318t302 -114h129zM922 86q208 0 335 113t166 319l78 418q39 204 -51 318t-303 114h-129l-230 -1282h134z" />
    <glyph glyph-name="uni0414.ss01" horiz-adv-x="1384" 
d="M-111 -313q-13 0 -17.5 5.5t-2.5 20.5l65 350q3 14 9.5 19.5t19.5 5.5h80l715 1342q13 24 39 24h45q25 0 28 -22l244 -1344h86q13 0 16.5 -5.5t0.5 -19.5l-62 -350q-1 -15 -8.5 -20.5t-22.5 -5.5h-43q-13 0 -17 5.5t-1 20.5l49 287h-1100l-49 -287q-3 -26 -29 -26h-45z
M1016 88l-166 952q-42 311 -43 318h-6q-15 -29 -67 -140t-87 -178l-500 -952h869z" />
    <glyph glyph-name="uni041B.ss01" horiz-adv-x="1239" 
d="M-53 0q-29 0 -15 25l754 1405q13 24 37 24h47q24 0 27 -22l260 -1407q7 -25 -23 -25h-43q-18 0 -25 4.5t-10 18.5l-180 1021q-10 61 -24.5 173t-18.5 135h-6q-19 -36 -70 -142t-82 -166l-538 -1021q-13 -23 -45 -23h-45z" />
    <glyph glyph-name="uni0424.ss01" horiz-adv-x="1712" 
d="M674 -178q-28 0 -23 24l29 154h-131q-252 0 -363.5 144.5t-64.5 390.5l76 413q46 244 202.5 375t409.5 131h131l27 154q5 24 30 24h45q26 0 21 -24l-27 -154h129q251 0 362 -144t66 -390l-77 -414q-45 -243 -201.5 -374.5t-409.5 -131.5h-131l-26 -154q-5 -24 -29 -24
h-45zM696 86l228 1282h-131q-210 0 -337.5 -113t-166.5 -319l-78 -418q-37 -204 54 -318t302 -114h129zM922 86q208 0 335 113t166 319l78 418q39 204 -51 318t-303 114h-129l-230 -1282h134z" />
    <glyph glyph-name="zero.sinf" horiz-adv-x="768" 
d="M248 -260q-129 0 -187 74t-36 200l51 293q23 127 104.5 200t204.5 73q126 0 184.5 -75.5t34.5 -201.5l-51 -293q-23 -128 -103 -199t-202 -71zM252 -186q89 0 148.5 52.5t76.5 145.5l51 293q17 98 -21.5 149.5t-127.5 51.5q-92 0 -151 -52.5t-76 -148.5l-54 -295
q-17 -92 24 -144t130 -52z" />
    <glyph glyph-name="one.sinf" horiz-adv-x="552" 
d="M201 -244q-15 0 -19.5 7t-1.5 24l123 678l-219 -113q-16 -11 -27 10l-12 23q-10 20 12 33l260 137q16 8 33 8h23q21 0 18 -26l-135 -758q-3 -23 -29 -23h-26z" />
    <glyph glyph-name="two.sinf" horiz-adv-x="716" 
d="M-33 -244q-29 0 -22 31l14 88q15 91 59 150t125 92l119 49q41 16 63 26t55 30t50 40.5t30 53.5t13 73q0 119 -147 119q-35 0 -65 -9t-52.5 -27.5t-37.5 -33t-28.5 -40t-16.5 -32t-11 -24.5q-6 -13 -27 -10l-27 8q-22 7 -10 35q8 21 18.5 41.5t34.5 52t52.5 54.5t75 40
t100.5 17q109 0 164 -49.5t55 -135.5q0 -51 -13 -91.5t-33 -67.5t-56.5 -52.5t-69 -41.5t-86.5 -38l-115 -47q-54 -21 -85 -58t-44 -101l-14 -70h391q23 0 20 -27l-6 -24q-1 -12 -6.5 -16.5t-17.5 -4.5h-449z" />
    <glyph glyph-name="three.sinf" horiz-adv-x="733" 
d="M213 -262q-122 0 -180.5 57.5t-63.5 175.5q0 16 13 19l28 8q22 6 25 -14q7 -92 50.5 -134.5t129.5 -42.5q99 0 157 54.5t58 148.5q0 55 -29.5 90t-83.5 35h-122q-22 0 -15 23l4 24q3 13 7.5 17t13.5 4h119q73 0 113 52t40 130q0 57 -37.5 91t-103.5 34q-85 0 -138 -38
t-94 -132q-10 -18 -30 -10l-21 8q-19 8 -8 35q50 114 119 160.5t178 46.5q95 0 151 -50t56 -131q0 -173 -137 -229q42 -17 66 -59t24 -97q0 -133 -78 -204.5t-211 -71.5z" />
    <glyph glyph-name="four.sinf" horiz-adv-x="724" 
d="M313 -246q-21 0 -18 25l37 205h-365q-13 0 -17.5 5t-2.5 17l4 25q3 17 12 26l447 492l5.5 5.5t6 4t5 2.5t5.5 1.5t5 0.5h7h7h32q14 0 18 -5.5t1 -22.5l-86 -486h88q13 0 16.5 -4.5t1.5 -17.5l-4 -23q-3 -13 -6.5 -16.5t-15.5 -3.5h-90l-39 -209q-6 -21 -25 -21h-29z
M342 49l76 418l-377 -418h301z" />
    <glyph glyph-name="five.sinf" horiz-adv-x="716" 
d="M221 -262q-118 0 -171.5 57t-59.5 168q-3 23 12 27l29 8q22 3 24 -16q3 -87 41.5 -131t128.5 -44q99 0 160 68t61 166q0 135 -165 135h-201q-26 0 -19 29l89 336q7 22 32 22h387q23 0 15 -20l-4 -31q-1 -10 -6 -13t-17 -3h-346l-68 -256h138q239 0 239 -187
q0 -137 -81 -226t-218 -89z" />
    <glyph glyph-name="six.sinf" horiz-adv-x="747" 
d="M246 -262q-230 0 -230 219q0 8 0.5 15t1.5 17t2 18.5t3.5 24.5t4.5 29t6.5 38t8.5 45.5t10.5 58t12.5 69.5q54 308 321 308q181 0 227 -152q3 -9 2 -13.5t-10 -8.5l-35 -15q-12 -4 -18 8q-35 111 -168 111q-196 0 -244 -240l-20 -100q119 55 225 55q109 0 163 -47.5
t54 -136.5q0 -145 -83 -224t-234 -79zM252 -190q116 0 175.5 58.5t59.5 160.5q0 61 -39.5 96t-115.5 35q-26 0 -53 -4t-47 -9t-43 -12.5t-34.5 -12.5t-27 -12.5t-16.5 -7.5q-17 -96 -17 -133q3 -159 158 -159z" />
    <glyph glyph-name="seven.sinf" horiz-adv-x="630" 
d="M27 -246q-25 0 -11 29l426 709h-387q-21 0 -18 22l6 31q3 12 8 15t17 3h452q24 0 19 -22l-4 -21q-4 -14 -11 -28l-430 -721q-10 -17 -31 -17h-36z" />
    <glyph glyph-name="eight.sinf" horiz-adv-x="776" 
d="M250 -262q-118 0 -180 47.5t-62 138.5q0 82 51 147t142 99q-106 50 -103 168q2 113 78.5 177.5t210.5 64.5q110 0 169.5 -47t59.5 -132q0 -77 -49 -140.5t-129 -94.5q131 -46 131 -174q0 -118 -85.5 -186t-233.5 -68zM354 193q84 20 135.5 74.5t51.5 123.5
q0 60 -41.5 92.5t-120.5 32.5q-95 0 -151 -46t-56 -130q0 -68 42.5 -100.5t139.5 -46.5zM256 -197q108 0 173 50.5t65 134.5q0 63 -46 96.5t-159 50.5q-90 -15 -147.5 -73t-57.5 -132q0 -61 44.5 -94t127.5 -33z" />
    </font>
</defs>
</svg>
