<?xml version="1.0" standalone="no"?>
<!DOCTYPE svg PUBLIC "-//W3C//DTD SVG 1.1//EN" "http://www.w3.org/Graphics/SVG/1.1/DTD/svg11.dtd" >
<svg xmlns="http://www.w3.org/2000/svg" xmlns:xlink="http://www.w3.org/1999/xlink" version="1.1">
<metadata>
Created by FontForge 20170731 at Wed Jul 15 02:04:48 2020
 By Aleksey,,,
Copyright (c) 2012 by Fontfabric LLC. All rights reserved.
</metadata>
<defs>
<font id="PantonDemo-BlackItalic" horiz-adv-x="0" >
  <font-face 
    font-family="Panton Black Italic Caps"
    font-weight="400"
    font-style="italic"
    font-stretch="normal"
    units-per-em="2048"
    panose-1="0 0 5 0 0 0 0 0 0 0"
    ascent="1638"
    descent="-410"
    cap-height="1454"
    bbox="-713.8 -532 2562.01 2036"
    underline-thickness="102"
    underline-position="-307"
    slope="-10"
    unicode-range="U+0020-F6C3"
  />
<missing-glyph horiz-adv-x="1413" 
d="M1311 86q0 -48 -19.5 -67t-68.5 -19h-1022q-49 0 -68.5 19t-19.5 67v1282q0 48 19.5 67t68.5 19h1022q49 0 68.5 -19t19.5 -67v-1282zM518 1098v-740h387v740h-387z" />
    <glyph glyph-name=".notdef" horiz-adv-x="1413" 
d="M1311 86q0 -48 -19.5 -67t-68.5 -19h-1022q-49 0 -68.5 19t-19.5 67v1282q0 48 19.5 67t68.5 19h1022q49 0 68.5 -19t19.5 -67v-1282zM518 1098v-740h387v740h-387z" />
    <glyph glyph-name=".null" horiz-adv-x="1236" 
 />
    <glyph glyph-name="nonmarkingreturn" horiz-adv-x="682" 
 />
    <glyph glyph-name="space" unicode=" " horiz-adv-x="374" 
 />
    <glyph glyph-name="exclam" unicode="!" horiz-adv-x="589" 
d="M188 477q-44 0 -57.5 16.5t-7.5 61.5l123 883q6 42 26.5 58.5t65.5 16.5h231q45 0 60 -16.5t6 -58.5l-191 -883q-9 -45 -27.5 -61.5t-62.5 -16.5h-166zM131 -16q-91 0 -119.5 34t-13.5 125l12 72q17 91 58 125.5t133 34.5h102q91 0 119.5 -34.5t13.5 -125.5l-12 -72
q-17 -91 -58 -125t-133 -34h-102z" />
    <glyph glyph-name="quotedbl" unicode="&#x22;" horiz-adv-x="845" 
d="M428 979q-13 -43 -30 -54.5t-64 -11.5h-125q-44 0 -55 11.5t-4 54.5l71 405q7 44 23 57t59 13h180q45 0 58.5 -13.5t1.5 -56.5zM799 979q-13 -43 -30 -54.5t-64 -11.5h-125q-46 0 -57.5 11.5t-2.5 54.5l72 405q6 44 21.5 57t60.5 13h180q45 0 58 -13.5t1 -56.5z" />
    <glyph glyph-name="numbersign" unicode="#" horiz-adv-x="1585" 
d="M1554 1104q46 0 55.5 -16.5t-10.5 -59.5l-79 -170q-20 -40 -46.5 -56t-70.5 -16h-119l-94 -198h123q45 0 55.5 -17.5t-10.5 -58.5l-84 -170q-20 -41 -45.5 -57.5t-71.5 -16.5h-119l-90 -190q-21 -42 -45.5 -60t-66.5 -18h-187q-44 0 -54 18.5t11 59.5l88 190h-180
l-88 -190q-22 -42 -47.5 -60t-67.5 -18h-188q-43 0 -53 18.5t12 59.5l90 190h-121q-43 0 -53 17.5t10 60.5l82 170q20 41 45.5 56.5t71.5 15.5h117l94 198h-121q-45 0 -55.5 17.5t10.5 58.5l82 170q20 42 45.5 57t71.5 15h118l93 196q21 42 45.5 60t66.5 18h189
q43 0 52 -18.5t-11 -59.5l-93 -196h181l94 196q21 42 46 60t68 18h187q43 0 53 -18.5t-12 -59.5l-92 -196h118zM762 786l-96 -198h180l96 198h-180z" />
    <glyph glyph-name="dollar" unicode="$" horiz-adv-x="1282" 
d="M915 1559q44 0 58.5 -17t7.5 -61l-12 -70q122 -22 190 -87t101 -171q13 -41 -1.5 -66t-64.5 -45l-199 -81q-44 -19 -64.5 -10t-35.5 53q-20 54 -55.5 77t-110.5 23q-91 0 -134.5 -22t-51.5 -70q-5 -25 6.5 -43t41.5 -30t61.5 -18.5t82.5 -13.5q83 -11 140.5 -23.5
t133 -45.5t118 -80t64.5 -130t3 -192q-30 -168 -145.5 -259t-319.5 -128l-12 -74q-9 -43 -28.5 -60t-63.5 -17h-211q-45 0 -60 17.5t-6 59.5l10 70q-299 47 -342 283q-7 42 10.5 67.5t63.5 40.5l201 68q47 18 71 9t39 -52q14 -51 58 -76t127 -25q100 0 151.5 22t61.5 77
q8 48 -39 70t-144 34q-84 12 -141 24.5t-135.5 45.5t-122 79.5t-67.5 129t-5 190.5q29 161 141.5 253t313.5 126l12 70q7 44 27.5 61t65.5 17h210z" />
    <glyph glyph-name="percent" unicode="%" horiz-adv-x="1857" 
d="M150 1165q28 150 137.5 235t285.5 85t255.5 -85t52.5 -235l-27 -153q-27 -150 -136.5 -234t-285.5 -84t-256 84t-53 234zM1712 1454q42 0 49.5 -25t-22.5 -57l-1178 -1296q-46 -50 -77 -63t-107 -13h-184q-46 0 -53 26t24 60l1182 1296q43 48 71.5 60t98.5 12h196z
M600 1147q12 74 -74 74q-88 0 -100 -74l-20 -115q-16 -76 73 -76t101 76zM1040 440q27 151 136.5 236.5t285.5 85.5t255.5 -85.5t54.5 -236.5l-29 -153q-27 -150 -135.5 -234t-284.5 -84q-177 0 -257 84.5t-52 233.5zM1491 422q12 74 -74 74q-88 0 -100 -74l-21 -115
q-12 -74 74 -74q88 0 100 74z" />
    <glyph glyph-name="ampersand" unicode="&#x26;" horiz-adv-x="1435" 
d="M285 1100q29 168 159 276.5t340 108.5q174 0 274 -110.5t72 -274.5q-22 -120 -89.5 -206t-188.5 -151l-21 -10l107 -143l117 96q60 54 104 0l121 -143q18 -21 13 -42t-36 -48l-133 -111l201 -266q26 -31 12 -53.5t-63 -22.5h-262q-43 0 -65 9t-42 36l-55 72
q-118 -85 -217 -116.5t-213 -31.5q-217 0 -328.5 123t-75.5 332q47 255 316 391q-35 57 -48 134.5t1 150.5zM805 1106q5 38 -15.5 62t-58.5 24q-43 0 -71.5 -26.5t-34.5 -67.5q-8 -33 -0.5 -63.5t34.5 -67.5l46 22q46 24 69 51.5t31 65.5zM508 575q-114 -54 -129 -153
q-10 -60 22 -96.5t95 -36.5q80 0 172 73z" />
    <glyph glyph-name="quotesingle" unicode="'" horiz-adv-x="475" 
d="M428 979q-13 -43 -30 -54.5t-64 -11.5h-125q-44 0 -55 11.5t-4 54.5l71 405q7 44 23 57t59 13h180q45 0 58.5 -13.5t1.5 -56.5z" />
    <glyph glyph-name="parenleft" unicode="(" horiz-adv-x="661" 
d="M190 1190q39 214 140 345t268 200q43 16 63.5 4t32.5 -56l64 -208q12 -39 -1.5 -61t-60.5 -46q-60 -28 -92 -73.5t-45 -123.5l-170 -960q-13 -78 3 -122.5t65 -74.5q39 -24 44.5 -44.5t-20.5 -61.5l-133 -195q-31 -44 -53.5 -55.5t-61.5 4.5q-143 73 -198.5 203
t-16.5 342z" />
    <glyph glyph-name="parenright" unicode=")" horiz-adv-x="663" 
d="M510 260q-39 -215 -140 -346t-268 -199q-43 -17 -63 -5t-33 57l-63 206q-12 41 1 63t60 44q60 30 92 74.5t45 121.5l170 963q13 78 -2.5 121.5t-64.5 75.5q-39 25 -45 45t20 61l133 193q31 44 53.5 55.5t61.5 -4.5q143 -71 197.5 -201t17.5 -344z" />
    <glyph glyph-name="asterisk" unicode="*" horiz-adv-x="722" 
d="M535 1393q35 0 44 -14.5t-4 -45.5l-47 -141l140 65q32 17 46.5 10t20.5 -40l13 -76q5 -29 -8 -45.5t-48 -20.5l-143 -22l82 -100q40 -43 -19 -78l-73 -45q-58 -37 -74 16l-41 123l-86 -123q-37 -60 -78 -22l-59 51q-24 21 -22 37.5t30 40.5l119 100l-138 22q-59 8 -28 68
l37 74q29 60 82 30l114 -65v141q0 60 60 60h80z" />
    <glyph glyph-name="plus" unicode="+" horiz-adv-x="1136" 
d="M1034 838q48 0 63.5 -18.5t6.5 -67.5l-29 -162q-9 -49 -30.5 -67.5t-71.5 -18.5h-258l-45 -260q-9 -49 -31 -67.5t-72 -18.5h-161q-50 0 -65.5 18.5t-6.5 67.5l45 260h-256q-50 0 -65.5 18.5t-6.5 67.5l29 162q7 49 29.5 67.5t72.5 18.5h256l45 258q9 49 31 67.5t72 18.5
h162q50 0 65 -18.5t6 -67.5l-45 -258h260z" />
    <glyph glyph-name="comma" unicode="," horiz-adv-x="536" 
d="M182 -188q-22 -42 -48 -58t-71 -16h-120q-38 0 -49.5 14t-2.5 49l138 467q19 57 45 78t80 21h190q116 0 62 -107z" />
    <glyph glyph-name="hyphen" unicode="-" horiz-adv-x="831" 
d="M698 874q49 0 65 -19.5t7 -66.5l-31 -174q-8 -48 -29.5 -67t-70.5 -19h-473q-49 0 -65.5 19t-8.5 67l31 174q9 48 31 67t71 19h473z" />
    <glyph glyph-name="period" unicode="." horiz-adv-x="544" 
d="M125 -16q-92 0 -121 34t-14 125l16 84q15 90 56.5 125t132.5 35h77q92 0 120.5 -34.5t13.5 -125.5l-15 -84q-17 -91 -57.5 -125t-132.5 -34h-76z" />
    <glyph glyph-name="slash" unicode="/" horiz-adv-x="1026" 
d="M319 -51q-24 -42 -47 -57t-67 -15h-230q-42 0 -52 17.5t11 54.5l789 1433q23 42 47.5 57t69.5 15h229q42 0 50.5 -17t-11.5 -55z" />
    <glyph glyph-name="zero" unicode="0" horiz-adv-x="1335" 
d="M150 975q43 245 217 377.5t452 132.5q272 0 402 -153t86 -400l-80 -451q-43 -246 -215 -379t-449 -133q-274 0 -405 153t-88 404zM909 969q13 76 -26 116.5t-123 40.5q-85 0 -139.5 -40.5t-67.5 -116.5l-84 -482q-15 -76 24.5 -117.5t124.5 -41.5q84 0 138 41.5t67 117.5
z" />
    <glyph glyph-name="one" unicode="1" horiz-adv-x="921" 
d="M854 1454q47 0 63.5 -19.5t8.5 -66.5l-226 -1282q-9 -47 -32 -66.5t-70 -19.5h-231q-49 0 -65 19.5t-7 66.5l151 856l-153 -78q-56 -28 -82.5 -19.5t-42.5 52.5l-68 174q-13 42 1.5 68t62.5 51l440 229q38 22 62.5 28.5t64.5 6.5h123z" />
    <glyph glyph-name="two" unicode="2" horiz-adv-x="1263" 
d="M176 1126q204 359 625 359q251 0 375 -138t88 -348q-20 -114 -61.5 -196.5t-114 -144.5t-160.5 -105.5t-221 -87.5q-27 -9 -70 -20.5t-71 -19.5t-57 -19t-45 -23t-18 -27l-2 -10h590q48 0 63.5 -19.5t6.5 -68.5l-29 -172q-9 -47 -32 -66.5t-70 -19.5h-924q-49 0 -64.5 19
t-7.5 67l33 180q8 46 23 87t32 73.5t45 63.5t50 52.5t59.5 45.5t61.5 38t67.5 33.5t67 29.5t69.5 28q17 7 52 20.5t52 20t47.5 19.5t46.5 21.5t41 23t38.5 26t31 28.5t27.5 33.5t18.5 37.5t12.5 44q10 64 -20.5 99.5t-96.5 35.5q-64 0 -110.5 -31t-94.5 -104
q-30 -48 -52.5 -58.5t-65.5 3.5l-203 82q-42 15 -50 39t17 69z" />
    <glyph glyph-name="three" unicode="3" horiz-adv-x="1290" 
d="M1253 1049q-36 -185 -209 -287q186 -113 142 -352q-76 -441 -625 -441q-476 0 -547 359q-7 44 10 69.5t64 40.5l215 72q47 17 69 5t31 -60q12 -68 55.5 -100.5t127.5 -32.5q162 0 182 120q12 64 -16.5 92.5t-96.5 28.5h-125q-49 0 -64.5 19t-6.5 69l28 168q9 50 31.5 69
t71.5 19h90q63 0 107 27.5t55 85.5q9 59 -20.5 86t-100.5 27q-85 0 -131 -26.5t-86 -96.5q-26 -47 -51.5 -58.5t-69.5 2.5l-186 72q-43 17 -51.5 42t14.5 69q97 177 253.5 262.5t403.5 85.5q240 0 355.5 -121.5t80.5 -314.5z" />
    <glyph glyph-name="four" unicode="4" horiz-adv-x="1353" 
d="M1227 604q49 0 64.5 -19t6.5 -67l-24 -143q-8 -47 -31 -66.5t-72 -19.5h-102l-37 -203q-9 -48 -31 -67t-71 -19h-209q-49 0 -65 19.5t-7 66.5l37 203h-620q-49 0 -64.5 19t-7.5 67l22 135q9 53 21.5 79t48.5 60l756 744q38 36 65.5 48.5t75.5 12.5h203q49 0 64.5 -19
t6.5 -67l-133 -764h103zM801 950l-348 -346h288z" />
    <glyph glyph-name="five" unicode="5" horiz-adv-x="1265" 
d="M1202 1456q50 0 65.5 -19t6.5 -69l-33 -184q-9 -48 -31 -67t-71 -19h-518l-39 -144h141q111 0 197.5 -25.5t140 -70.5t86.5 -107t38 -136t-7 -156q-19 -106 -68.5 -194.5t-128 -155t-190.5 -103.5t-246 -37q-246 0 -378.5 82.5t-166.5 255.5q-9 45 8 69t64 42l233 82
q44 16 66 5.5t32 -56.5q14 -59 55 -88t126 -29q72 0 117.5 39t58.5 114q24 140 -137 140h-428q-53 0 -69 23.5t-1 76.5l168 608q20 70 54.5 96.5t105.5 26.5h749z" />
    <glyph glyph-name="six" unicode="6" horiz-adv-x="1341" 
d="M537 901q108 17 217 17q293 0 411 -117.5t76 -358.5q-41 -234 -217 -353.5t-459 -119.5q-287 0 -413.5 153t-79.5 423l71 411q47 264 220.5 396.5t465.5 132.5q227 0 353.5 -80t160.5 -246q9 -45 -7 -68.5t-64 -41.5l-203 -74q-20 -7 -34 -7.5t-23 1.5t-18 14t-13 20
t-14 29q-21 49 -62.5 71.5t-122.5 22.5q-102 0 -159.5 -45.5t-77.5 -144.5zM463 475q-14 -78 23.5 -119t138.5 -41q103 0 152.5 34t62.5 100q11 67 -26.5 98t-141.5 31q-110 0 -195 -23z" />
    <glyph glyph-name="seven" unicode="7" horiz-adv-x="1171" 
d="M1198 1454q49 0 65.5 -19t8.5 -67l-25 -139q-13 -66 -47 -121l-668 -1032q-31 -48 -62 -62t-112 -14h-225q-45 0 -50.5 23t21.5 63l650 1012h-545q-50 0 -65.5 18.5t-6.5 67.5l33 184q8 48 29.5 67t70.5 19h928z" />
    <glyph glyph-name="eight" unicode="8" horiz-adv-x="1333" 
d="M195 1065q38 204 201.5 312t422.5 108q266 0 388.5 -114t86.5 -314q-32 -173 -194 -293q169 -117 129 -354q-77 -441 -676 -441q-158 0 -269.5 31.5t-171.5 89.5t-80 135t-3 174q21 116 94.5 202t167.5 138q-63 49 -89.5 132t-6.5 194zM895 1038q9 53 -24.5 82t-108.5 29
q-142 0 -164 -111q-9 -53 21.5 -82t101.5 -51l57 -16q102 59 117 149zM813 422q5 33 -2.5 54.5t-43 40.5t-61.5 28t-100 30q-24 7 -37 11q-117 -69 -131 -160q-11 -60 30 -91.5t140 -31.5q185 0 205 119z" />
    <glyph glyph-name="nine" unicode="9" horiz-adv-x="1341" 
d="M834 553q-102 -16 -216 -16q-294 0 -412.5 117t-76.5 358q42 234 217.5 353.5t458.5 119.5q287 0 413.5 -153t79.5 -423l-71 -411q-45 -264 -219 -396.5t-465 -132.5q-229 0 -355.5 80t-160.5 246q-9 45 7 69.5t66 41.5l201 73q20 7 34 7.5t23.5 -2t18 -13.5t13.5 -20
t13 -29q21 -49 62.5 -71.5t122.5 -22.5q103 0 161 45.5t78 144.5zM907 979q14 78 -23.5 119t-138.5 41q-103 0 -152.5 -33.5t-62.5 -99.5q-11 -67 26.5 -98t141.5 -31q111 0 197 22z" />
    <glyph glyph-name="colon" unicode=":" horiz-adv-x="593" 
d="M295 852q-93 0 -122.5 35t-12.5 125l16 82q17 93 57 127t132 34h77q91 0 120.5 -34.5t12.5 -126.5l-14 -82q-17 -91 -57.5 -125.5t-132.5 -34.5h-76zM178 135q-91 0 -120.5 36t-12.5 126l16 82q17 92 57.5 127t131.5 35h78q91 0 120.5 -36t12.5 -126l-17 -82
q-17 -92 -57 -127t-131 -35h-78z" />
    <glyph glyph-name="semicolon" unicode=";" horiz-adv-x="593" 
d="M272 700q-92 0 -121 34.5t-12 125.5l15 84q15 91 56.5 125.5t133.5 34.5h76q92 0 121 -34.5t14 -125.5l-16 -84q-15 -90 -56.5 -125t-132.5 -35h-78zM-25 -262q-38 0 -48 12t-1 47l140 467q18 58 43.5 80.5t78.5 22.5h189q62 0 76 -26.5t-13 -76.5l-223 -448
q-22 -43 -48.5 -60.5t-72.5 -17.5h-121z" />
    <glyph glyph-name="less" unicode="&#x3c;" horiz-adv-x="1019" 
d="M938 1239q55 25 73 9t7 -74l-35 -195q-11 -68 -30.5 -92t-73.5 -49l-357 -160l-4 -8l301 -160q20 -11 30.5 -18t20 -17.5t11.5 -24t1.5 -33t-5.5 -48.5l-37 -207q-11 -58 -35 -74.5t-68 8.5l-641 387q-35 23 -45.5 43.5t-3.5 63.5l27 155q7 42 25.5 64t62.5 45z" />
    <glyph glyph-name="equal" unicode="=" horiz-adv-x="1230" 
d="M1120 1071q49 0 64.5 -19t7.5 -69l-31 -174q-9 -48 -31 -67t-71 -19h-852q-49 0 -64.5 19t-7.5 67l31 174q9 50 31 69t71 19h852zM1040 614q47 0 63 -19.5t7 -66.5l-29 -174q-9 -49 -31.5 -68.5t-70.5 -19.5h-852q-49 0 -65 19t-7 69l31 174q8 47 30.5 66.5t71.5 19.5
h852z" />
    <glyph glyph-name="greater" unicode="&#x3e;" horiz-adv-x="1021" 
d="M199 1174q11 59 33.5 75t68.5 -10l639 -385q37 -23 47.5 -44.5t3.5 -64.5l-26 -155q-9 -42 -27 -63.5t-61 -43.5l-777 -385q-57 -25 -73 -9.5t-7 73.5l39 221q11 67 30.5 91.5t72.5 49.5l360 160v8l-301 160q-45 24 -56 48.5t1 92.5z" />
    <glyph glyph-name="question" unicode="?" horiz-adv-x="1222" 
d="M432 444q-46 0 -61 17.5t-6 64.5q12 70 35 125.5t56 93.5t65 63.5t73 47.5q21 12 66.5 34t68 35.5t52 36.5t46 52.5t23.5 68.5q9 53 -21.5 85t-101.5 32q-84 0 -137 -31t-107 -118q-30 -49 -53.5 -61t-67.5 5l-172 74q-43 19 -50.5 43t18.5 70q63 110 140 180.5
t193 110.5t271 40q254 0 385.5 -121t97.5 -315q-12 -71 -41 -130.5t-63 -97t-81.5 -72t-85.5 -54t-87.5 -44t-75.5 -40.5q-89 -54 -96 -113q-9 -47 -31 -64.5t-68 -17.5h-184zM395 -16q-91 0 -119.5 34t-13.5 125l12 72q17 91 58 125.5t133 34.5h100q92 0 121 -34.5
t14 -125.5l-14 -72q-15 -91 -55.5 -125t-132.5 -34h-103z" />
    <glyph glyph-name="at" unicode="@" horiz-adv-x="1863" 
d="M80 676q32 183 112.5 332t205 255t297 164t380.5 58q278 0 456.5 -101t244 -282t22.5 -426l-26 -154q-37 -209 -163.5 -328.5t-287.5 -119.5q-65 0 -100 17.5t-74 58.5q-167 -52 -369 -52q-196 0 -276 93.5t-49 267.5l49 278q31 176 143.5 269.5t308.5 93.5
q233 0 398 -68q39 -17 48 -36.5t-1 -63.5l-96 -555q-11 -62 57 -62q47 0 87 47.5t60 155.5l29 162q101 571 -498 571q-289 0 -467.5 -150.5t-226.5 -420.5l-29 -162q-46 -269 80 -411t418 -142q97 0 234 14t221 29q42 8 52.5 0t4.5 -43l-20 -112q-6 -39 -21 -53.5t-53 -22.5
q-211 -47 -453 -47q-417 0 -604.5 211t-122.5 581zM1087 836q-52 10 -143 10q-76 0 -113.5 -27t-48.5 -88l-47 -266q-11 -60 17.5 -87.5t103.5 -27.5q119 0 164 15l80 450q0 16 -13 21z" />
    <glyph glyph-name="A" unicode="A" horiz-adv-x="1415" 
d="M-41 0q-46 0 -54.5 21.5t15.5 62.5l701 1298q23 43 47.5 57.5t70.5 14.5h232q45 0 66 -14.5t28 -53.5l246 -1302q15 -84 -76 -84h-211q-77 0 -105.5 18.5t-33.5 67.5l-21 147h-444l-74 -147q-22 -49 -55.5 -67.5t-106.5 -18.5h-225zM827 555l-32 240q-7 72 -5.5 136
t6.5 108l5 44h-19q-26 -147 -92 -286l-119 -242h256z" />
    <glyph glyph-name="A" unicode="a" horiz-adv-x="1415" 
d="M-41 0q-46 0 -54.5 21.5t15.5 62.5l701 1298q23 43 47.5 57.5t70.5 14.5h232q45 0 66 -14.5t28 -53.5l246 -1302q15 -84 -76 -84h-211q-77 0 -105.5 18.5t-33.5 67.5l-21 147h-444l-74 -147q-22 -49 -55.5 -67.5t-106.5 -18.5h-225zM827 555l-32 240q-7 72 -5.5 136
t6.5 108l5 44h-19q-26 -147 -92 -286l-119 -242h256z" />
    <glyph glyph-name="B" unicode="B" horiz-adv-x="1355" 
d="M942 1456q212 0 315 -109.5t70 -293.5q-20 -102 -66 -167t-135 -120l-2 -8q91 -43 128 -139.5t14 -229.5q-34 -191 -187 -290t-379 -99h-614q-49 0 -65 19.5t-7 66.5l226 1282q9 49 31.5 68.5t70.5 19.5h600zM907 1012q9 59 -17.5 86.5t-88.5 27.5h-199l-41 -225h199
q65 0 101 26t46 85zM854 453q20 118 -111 118h-237l-43 -241h237q67 0 104.5 29.5t49.5 93.5z" />
    <glyph glyph-name="B" unicode="b" horiz-adv-x="1355" 
d="M942 1456q212 0 315 -109.5t70 -293.5q-20 -102 -66 -167t-135 -120l-2 -8q91 -43 128 -139.5t14 -229.5q-34 -191 -187 -290t-379 -99h-614q-49 0 -65 19.5t-7 66.5l226 1282q9 49 31.5 68.5t70.5 19.5h600zM907 1012q9 59 -17.5 86.5t-88.5 27.5h-199l-41 -225h199
q65 0 101 26t46 85zM854 453q20 118 -111 118h-237l-43 -241h237q67 0 104.5 29.5t49.5 93.5z" />
    <glyph glyph-name="C" unicode="C" horiz-adv-x="1333" 
d="M131 940q46 264 233 404.5t490 140.5q441 0 510 -365q9 -45 -6 -69t-64 -41l-211 -72q-49 -14 -70.5 -3t-31.5 58q-14 70 -57.5 101.5t-128.5 31.5q-119 0 -181.5 -51.5t-81.5 -159.5l-67 -376q-19 -108 25 -159.5t163 -51.5q161 0 238 133q27 48 51.5 59.5t69.5 -4.5
l209 -82q44 -15 52.5 -40.5t-16.5 -69.5q-194 -355 -661 -355q-297 0 -437 161.5t-93 430.5z" />
    <glyph glyph-name="C" unicode="c" horiz-adv-x="1333" 
d="M131 940q46 264 233 404.5t490 140.5q441 0 510 -365q9 -45 -6 -69t-64 -41l-211 -72q-49 -14 -70.5 -3t-31.5 58q-14 70 -57.5 101.5t-128.5 31.5q-119 0 -181.5 -51.5t-81.5 -159.5l-67 -376q-19 -108 25 -159.5t163 -51.5q161 0 238 133q27 48 51.5 59.5t69.5 -4.5
l209 -82q44 -15 52.5 -40.5t-16.5 -69.5q-194 -355 -661 -355q-297 0 -437 161.5t-93 430.5z" />
    <glyph glyph-name="D" unicode="D" horiz-adv-x="1394" 
d="M840 1454q199 0 329 -77.5t178.5 -213t16.5 -313.5l-55 -307q-46 -265 -230 -404t-489 -139h-504q-49 0 -65 19.5t-7 66.5l226 1282q9 48 31 67t71 19h498zM965 874q39 224 -201 224h-168l-129 -740h168q122 0 189 55.5t89 166.5z" />
    <glyph glyph-name="D" unicode="d" horiz-adv-x="1394" 
d="M840 1454q199 0 329 -77.5t178.5 -213t16.5 -313.5l-55 -307q-46 -265 -230 -404t-489 -139h-504q-49 0 -65 19.5t-7 66.5l226 1282q9 48 31 67t71 19h498zM965 874q39 224 -201 224h-168l-129 -740h168q122 0 189 55.5t89 166.5z" />
    <glyph glyph-name="E" unicode="E" horiz-adv-x="1212" 
d="M1200 1454q49 0 65.5 -19t8.5 -67l-33 -184q-9 -49 -31.5 -67.5t-70.5 -18.5h-543l-31 -185h432q49 0 64.5 -19t7.5 -69l-33 -182q-9 -50 -31 -69t-71 -19h-432l-35 -197h559q48 0 63.5 -18.5t6.5 -67.5l-33 -186q-8 -47 -30.5 -66.5t-71.5 -19.5h-875q-49 0 -65 19.5
t-7 66.5l226 1282q9 48 31 67t71 19h858z" />
    <glyph glyph-name="E" unicode="e" horiz-adv-x="1212" 
d="M1200 1454q49 0 65.5 -19t8.5 -67l-33 -184q-9 -49 -31.5 -67.5t-70.5 -18.5h-543l-31 -185h432q49 0 64.5 -19t7.5 -69l-33 -182q-9 -50 -31 -69t-71 -19h-432l-35 -197h559q48 0 63.5 -18.5t6.5 -67.5l-33 -186q-8 -47 -30.5 -66.5t-71.5 -19.5h-875q-49 0 -65 19.5
t-7 66.5l226 1282q9 48 31 67t71 19h858z" />
    <glyph glyph-name="F" unicode="F" horiz-adv-x="1193" 
d="M1200 1454q49 0 65.5 -19t8.5 -67l-33 -184q-9 -49 -31.5 -67.5t-70.5 -18.5h-543l-41 -240h432q49 0 64.5 -19t7.5 -67l-33 -184q-7 -49 -29.5 -67.5t-72.5 -18.5h-432l-72 -416q-9 -47 -32.5 -66.5t-70.5 -19.5h-231q-49 0 -65 19.5t-7 66.5l226 1282q9 48 31 67t71 19
h858z" />
    <glyph glyph-name="F" unicode="f" horiz-adv-x="1193" 
d="M1200 1454q49 0 65.5 -19t8.5 -67l-33 -184q-9 -49 -31.5 -67.5t-70.5 -18.5h-543l-41 -240h432q49 0 64.5 -19t7.5 -67l-33 -184q-7 -49 -29.5 -67.5t-72.5 -18.5h-432l-72 -416q-9 -47 -32.5 -66.5t-70.5 -19.5h-231q-49 0 -65 19.5t-7 66.5l226 1282q9 48 31 67t71 19
h858z" />
    <glyph glyph-name="G" unicode="G" horiz-adv-x="1390" 
d="M1282 836q50 0 65.5 -19t6.5 -69l-51 -297q-39 -223 -225 -352.5t-484 -129.5q-197 0 -328 77.5t-181 212.5t-19 312l65 371q46 266 231.5 404.5t489.5 138.5q229 0 355.5 -95.5t160.5 -269.5q9 -45 -7 -70t-65 -40l-209 -64q-51 -15 -72 -3.5t-30 58.5
q-14 64 -59.5 94.5t-132.5 30.5q-118 0 -181 -52t-82 -159l-65 -376q-21 -107 23.5 -159t162.5 -52q105 0 170.5 36.5t77.5 102.5l6 41h-196q-49 0 -64.5 19t-7.5 67l27 154q9 50 31 69t71 19h516z" />
    <glyph glyph-name="G" unicode="g" horiz-adv-x="1390" 
d="M1282 836q50 0 65.5 -19t6.5 -69l-51 -297q-39 -223 -225 -352.5t-484 -129.5q-197 0 -328 77.5t-181 212.5t-19 312l65 371q46 266 231.5 404.5t489.5 138.5q229 0 355.5 -95.5t160.5 -269.5q9 -45 -7 -70t-65 -40l-209 -64q-51 -15 -72 -3.5t-30 58.5
q-14 64 -59.5 94.5t-132.5 30.5q-118 0 -181 -52t-82 -159l-65 -376q-21 -107 23.5 -159t162.5 -52q105 0 170.5 36.5t77.5 102.5l6 41h-196q-49 0 -64.5 19t-7.5 67l27 154q9 50 31 69t71 19h516z" />
    <glyph glyph-name="H" unicode="H" horiz-adv-x="1425" 
d="M1378 1454q47 0 63 -19.5t7 -66.5l-225 -1282q-9 -48 -31.5 -67t-71.5 -19h-231q-49 0 -64.5 19t-7.5 67l84 473h-397l-84 -473q-8 -47 -31 -66.5t-72 -19.5h-231q-47 0 -63 19.5t-7 66.5l226 1282q9 48 31 67t71 19h231q49 0 65 -19.5t7 -66.5l-80 -453h398l79 453
q9 48 31.5 67t71.5 19h231z" />
    <glyph glyph-name="H" unicode="h" horiz-adv-x="1425" 
d="M1378 1454q47 0 63 -19.5t7 -66.5l-225 -1282q-9 -48 -31.5 -67t-71.5 -19h-231q-49 0 -64.5 19t-7.5 67l84 473h-397l-84 -473q-8 -47 -31 -66.5t-72 -19.5h-231q-47 0 -63 19.5t-7 66.5l226 1282q9 48 31 67t71 19h231q49 0 65 -19.5t7 -66.5l-80 -453h398l79 453
q9 48 31.5 67t71.5 19h231z" />
    <glyph glyph-name="I" unicode="I" horiz-adv-x="622" 
d="M242 1372q9 46 30 64t66 18h242q46 0 61 -18t6 -64l-227 -1290q-7 -46 -28.5 -64t-67.5 -18h-242q-46 0 -61 18t-7 64z" />
    <glyph glyph-name="I" unicode="i" horiz-adv-x="622" 
d="M242 1372q9 46 30 64t66 18h242q46 0 61 -18t6 -64l-227 -1290q-7 -46 -28.5 -64t-67.5 -18h-242q-46 0 -61 18t-7 64z" />
    <glyph glyph-name="J" unicode="J" horiz-adv-x="1200" 
d="M1165 1454q46 0 61.5 -19t6.5 -65l-158 -899q-44 -253 -199 -377.5t-432 -124.5q-208 0 -329 90t-152 258q-9 44 7 69t65 42l203 68q49 17 72.5 6.5t33.5 -56.5q29 -118 152 -118q150 0 180 176l153 866q9 47 30.5 65.5t70.5 18.5h235z" />
    <glyph glyph-name="J" unicode="j" horiz-adv-x="1200" 
d="M1165 1454q46 0 61.5 -19t6.5 -65l-158 -899q-44 -253 -199 -377.5t-432 -124.5q-208 0 -329 90t-152 258q-9 44 7 69t65 42l203 68q49 17 72.5 6.5t33.5 -56.5q29 -118 152 -118q150 0 180 176l153 866q9 47 30.5 65.5t70.5 18.5h235z" />
    <glyph glyph-name="K" unicode="K" horiz-adv-x="1347" 
d="M1231 100q16 -43 -2.5 -71.5t-67.5 -28.5h-221q-83 0 -115 16.5t-51 69.5l-112 367q-16 55 -42 79.5t-83 24.5h-35l-82 -471q-9 -47 -32.5 -66.5t-70.5 -19.5h-231q-49 0 -65 19.5t-7 66.5l226 1282q9 48 31 67t71 19h231q48 0 64.5 -19.5t7.5 -66.5l-80 -457h45l375 467
q39 49 70 62.5t108 13.5h236q46 0 55 -25t-20 -65l-486 -600q39 -28 62.5 -63t42.5 -89z" />
    <glyph glyph-name="K" unicode="k" horiz-adv-x="1347" 
d="M1231 100q16 -43 -2.5 -71.5t-67.5 -28.5h-221q-83 0 -115 16.5t-51 69.5l-112 367q-16 55 -42 79.5t-83 24.5h-35l-82 -471q-9 -47 -32.5 -66.5t-70.5 -19.5h-231q-49 0 -65 19.5t-7 66.5l226 1282q9 48 31 67t71 19h231q48 0 64.5 -19.5t7.5 -66.5l-80 -457h45l375 467
q39 49 70 62.5t108 13.5h236q46 0 55 -25t-20 -65l-486 -600q39 -28 62.5 -63t42.5 -89z" />
    <glyph glyph-name="L" unicode="L" horiz-adv-x="1118" 
d="M573 1454q49 0 65.5 -19t8.5 -67l-178 -1010h492q50 0 65 -18.5t6 -67.5l-33 -186q-9 -48 -31 -67t-71 -19h-811q-47 0 -63 19.5t-7 66.5l226 1282q7 47 30 66.5t70 19.5h231z" />
    <glyph glyph-name="L" unicode="l" horiz-adv-x="1118" 
d="M573 1454q49 0 65.5 -19t8.5 -67l-178 -1010h492q50 0 65 -18.5t6 -67.5l-33 -186q-9 -48 -31 -67t-71 -19h-811q-47 0 -63 19.5t-7 66.5l226 1282q7 47 30 66.5t70 19.5h231z" />
    <glyph glyph-name="M" unicode="M" horiz-adv-x="1701" 
d="M1653 1454q49 0 64.5 -18.5t6.5 -65.5l-225 -1286q-9 -47 -31.5 -65.5t-70.5 -18.5h-223q-50 0 -65.5 18.5t-6.5 65.5l51 295q22 119 59 234t123 302h-18q-30 -59 -95 -170.5t-104 -169.5l-157 -231q-21 -32 -44 -44.5t-63 -12.5h-131q-41 0 -59.5 11.5t-28.5 45.5
l-80 231q-20 55 -41.5 165t-28.5 175h-18q16 -229 13 -327t-25 -211l-52 -293q-7 -47 -29.5 -65.5t-72.5 -18.5h-215q-48 0 -63.5 18.5t-6.5 65.5l226 1286q9 48 31 66t71 18h191q55 0 76.5 -12t33.5 -51l219 -672l457 670q27 42 50 53.5t75 11.5h207z" />
    <glyph glyph-name="M" unicode="m" horiz-adv-x="1701" 
d="M1653 1454q49 0 64.5 -18.5t6.5 -65.5l-225 -1286q-9 -47 -31.5 -65.5t-70.5 -18.5h-223q-50 0 -65.5 18.5t-6.5 65.5l51 295q22 119 59 234t123 302h-18q-30 -59 -95 -170.5t-104 -169.5l-157 -231q-21 -32 -44 -44.5t-63 -12.5h-131q-41 0 -59.5 11.5t-28.5 45.5
l-80 231q-20 55 -41.5 165t-28.5 175h-18q16 -229 13 -327t-25 -211l-52 -293q-7 -47 -29.5 -65.5t-72.5 -18.5h-215q-48 0 -63.5 18.5t-6.5 65.5l226 1286q9 48 31 66t71 18h191q55 0 76.5 -12t33.5 -51l219 -672l457 670q27 42 50 53.5t75 11.5h207z" />
    <glyph glyph-name="N" unicode="N" horiz-adv-x="1445" 
d="M1395 1454q49 0 65 -19t8 -67l-227 -1282q-8 -47 -30.5 -66.5t-71.5 -19.5h-226q-31 0 -47.5 9.5t-27.5 31.5l-222 487q-46 102 -70.5 193t-41.5 227h-17q10 -130 6.5 -250.5t-30.5 -277.5l-60 -334q-9 -47 -32 -66.5t-70 -19.5h-215q-49 0 -65 19.5t-7 66.5l226 1282
q9 48 31 67t71 19h233q63 0 80 -41l236 -526q62 -136 113 -373h16q-16 121 -21 185t-1 147t22 184l59 338q7 47 30.5 66.5t70.5 19.5h215z" />
    <glyph glyph-name="N" unicode="n" horiz-adv-x="1445" 
d="M1395 1454q49 0 65 -19t8 -67l-227 -1282q-8 -47 -30.5 -66.5t-71.5 -19.5h-226q-31 0 -47.5 9.5t-27.5 31.5l-222 487q-46 102 -70.5 193t-41.5 227h-17q10 -130 6.5 -250.5t-30.5 -277.5l-60 -334q-9 -47 -32 -66.5t-70 -19.5h-215q-49 0 -65 19.5t-7 66.5l226 1282
q9 48 31 67t71 19h233q63 0 80 -41l236 -526q62 -136 113 -373h16q-16 121 -21 185t-1 147t22 184l59 338q7 47 30.5 66.5t70.5 19.5h215z" />
    <glyph glyph-name="O" unicode="O" horiz-adv-x="1404" 
d="M129 932q46 265 232 409t489 144q297 0 437 -164t93 -434l-65 -371q-46 -265 -230.5 -406t-488.5 -141q-298 0 -437 161t-93 431zM983 930q17 96 -32 146t-156 50q-108 0 -175.5 -50t-84.5 -146l-72 -406q-17 -96 32.5 -146t157.5 -50q107 0 174 50t84 146z" />
    <glyph glyph-name="O" unicode="o" horiz-adv-x="1404" 
d="M129 932q46 265 232 409t489 144q297 0 437 -164t93 -434l-65 -371q-46 -265 -230.5 -406t-488.5 -141q-298 0 -437 161t-93 431zM983 930q17 96 -32 146t-156 50q-108 0 -175.5 -50t-84.5 -146l-72 -406q-17 -96 32.5 -146t157.5 -50q107 0 174 50t84 146z" />
    <glyph glyph-name="P" unicode="P" horiz-adv-x="1335" 
d="M907 1454q238 0 355.5 -149t76.5 -394q-42 -237 -201.5 -356t-406.5 -119h-250l-61 -350q-9 -47 -32.5 -66.5t-70.5 -19.5h-231q-49 0 -65 19.5t-7 66.5l226 1282q9 48 31 67t71 19h565zM745 795q72 0 121.5 41t61.5 110q12 68 -22 110t-107 42h-203l-53 -303h202z" />
    <glyph glyph-name="P" unicode="p" horiz-adv-x="1335" 
d="M907 1454q238 0 355.5 -149t76.5 -394q-42 -237 -201.5 -356t-406.5 -119h-250l-61 -350q-9 -47 -32.5 -66.5t-70.5 -19.5h-231q-49 0 -65 19.5t-7 66.5l226 1282q9 48 31 67t71 19h565zM745 795q72 0 121.5 41t61.5 110q12 68 -22 110t-107 42h-203l-53 -303h202z" />
    <glyph glyph-name="Q" unicode="Q" horiz-adv-x="1433" 
d="M129 932q46 265 232 409t489 144q297 0 437 -164t93 -434l-65 -371q-34 -193 -144 -321l82 -123q25 -37 18 -64t-48 -59l-172 -119q-40 -31 -67 -29t-52 39l-103 156q-105 -27 -233 -27q-298 0 -437 161t-93 431zM795 1126q-108 0 -175.5 -50t-84.5 -146l-72 -406
q-17 -96 32.5 -146t157.5 -50q107 0 174 50t84 146l72 406q17 96 -32 146t-156 50z" />
    <glyph glyph-name="Q" unicode="q" horiz-adv-x="1433" 
d="M129 932q46 265 232 409t489 144q297 0 437 -164t93 -434l-65 -371q-34 -193 -144 -321l82 -123q25 -37 18 -64t-48 -59l-172 -119q-40 -31 -67 -29t-52 39l-103 156q-105 -27 -233 -27q-298 0 -437 161t-93 431zM795 1126q-108 0 -175.5 -50t-84.5 -146l-72 -406
q-17 -96 32.5 -146t157.5 -50q107 0 174 50t84 146l72 406q17 96 -32 146t-156 50z" />
    <glyph glyph-name="R" unicode="R" horiz-adv-x="1361" 
d="M926 1454q234 0 349 -137t73 -373q-49 -281 -295 -405q23 -39 41 -88l120 -351q16 -43 -2 -71.5t-67 -28.5h-221q-81 0 -117.5 21.5t-54.5 76.5l-82 281q-17 59 -40.5 81.5t-86.5 22.5h-54l-69 -397q-9 -47 -32.5 -66.5t-70.5 -19.5h-231q-49 0 -65 19.5t-7 66.5
l226 1282q9 48 31 67t71 19h584zM930 963q12 63 -17.5 99t-95.5 36h-221l-47 -273h221q64 0 106.5 37.5t53.5 100.5z" />
    <glyph glyph-name="R" unicode="r" horiz-adv-x="1361" 
d="M926 1454q234 0 349 -137t73 -373q-49 -281 -295 -405q23 -39 41 -88l120 -351q16 -43 -2 -71.5t-67 -28.5h-221q-81 0 -117.5 21.5t-54.5 76.5l-82 281q-17 59 -40.5 81.5t-86.5 22.5h-54l-69 -397q-9 -47 -32.5 -66.5t-70.5 -19.5h-231q-49 0 -65 19.5t-7 66.5
l226 1282q9 48 31 67t71 19h584zM930 963q12 63 -17.5 99t-95.5 36h-221l-47 -273h221q64 0 106.5 37.5t53.5 100.5z" />
    <glyph glyph-name="S" unicode="S" horiz-adv-x="1323" 
d="M139 1061q37 205 205.5 314.5t458.5 109.5q219 0 341.5 -77t170.5 -226q14 -45 1.5 -65.5t-63.5 -41.5l-200 -80q-46 -19 -67 -10t-36 53q-40 107 -190 107q-103 0 -154.5 -26t-60.5 -81q-4 -26 7.5 -45.5t31 -31.5t57 -21.5t69.5 -15t85 -11.5q41 -6 78 -14t79.5 -21
t77.5 -29.5t71 -40t62 -52t49.5 -65t33 -80t13.5 -97t-10 -115.5q-41 -222 -212.5 -326t-477.5 -104q-234 0 -381 80.5t-176 235.5q-9 43 8.5 67.5t65.5 42.5l200 74q47 18 71.5 8.5t41.5 -53.5q35 -109 211 -109q110 0 170 27t72 90q4 24 -5.5 42.5t-27 30.5t-49.5 21.5
t-62 15t-75 11.5q-86 13 -148 28t-140.5 51.5t-123.5 87t-68.5 139t-3.5 202.5z" />
    <glyph glyph-name="S" unicode="s" horiz-adv-x="1323" 
d="M139 1061q37 205 205.5 314.5t458.5 109.5q219 0 341.5 -77t170.5 -226q14 -45 1.5 -65.5t-63.5 -41.5l-200 -80q-46 -19 -67 -10t-36 53q-40 107 -190 107q-103 0 -154.5 -26t-60.5 -81q-4 -26 7.5 -45.5t31 -31.5t57 -21.5t69.5 -15t85 -11.5q41 -6 78 -14t79.5 -21
t77.5 -29.5t71 -40t62 -52t49.5 -65t33 -80t13.5 -97t-10 -115.5q-41 -222 -212.5 -326t-477.5 -104q-234 0 -381 80.5t-176 235.5q-9 43 8.5 67.5t65.5 42.5l200 74q47 18 71.5 8.5t41.5 -53.5q35 -109 211 -109q110 0 170 27t72 90q4 24 -5.5 42.5t-27 30.5t-49.5 21.5
t-62 15t-75 11.5q-86 13 -148 28t-140.5 51.5t-123.5 87t-68.5 139t-3.5 202.5z" />
    <glyph glyph-name="T" unicode="T" horiz-adv-x="1241" 
d="M1274 1454q47 0 63.5 -19.5t8.5 -66.5l-33 -184q-9 -49 -31 -67.5t-72 -18.5h-305l-176 -1012q-9 -47 -32 -66.5t-70 -19.5h-232q-49 0 -64.5 19t-6.5 67l178 1012h-305q-49 0 -64.5 18t-7.5 68l33 184q9 48 31 67t71 19h1014z" />
    <glyph glyph-name="T" unicode="t" horiz-adv-x="1241" 
d="M1274 1454q47 0 63.5 -19.5t8.5 -66.5l-33 -184q-9 -49 -31 -67.5t-72 -18.5h-305l-176 -1012q-9 -47 -32 -66.5t-70 -19.5h-232q-49 0 -64.5 19t-6.5 67l178 1012h-305q-49 0 -64.5 18t-7.5 68l33 184q9 48 31 67t71 19h1014z" />
    <glyph glyph-name="U" unicode="U" horiz-adv-x="1425" 
d="M481 516q-15 -91 30.5 -139.5t150.5 -48.5t166.5 48t76.5 140l152 852q9 48 31 67t71 19h232q47 0 63 -19.5t8 -66.5l-153 -866q-46 -260 -224.5 -396.5t-478.5 -136.5q-119 0 -215 29.5t-160 82.5t-104.5 127.5t-48.5 165t8 193.5l141 801q9 48 31.5 67t71.5 19h231
q47 0 63.5 -19.5t8.5 -66.5z" />
    <glyph glyph-name="U" unicode="u" horiz-adv-x="1425" 
d="M481 516q-15 -91 30.5 -139.5t150.5 -48.5t166.5 48t76.5 140l152 852q9 48 31 67t71 19h232q47 0 63 -19.5t8 -66.5l-153 -866q-46 -260 -224.5 -396.5t-478.5 -136.5q-119 0 -215 29.5t-160 82.5t-104.5 127.5t-48.5 165t8 193.5l141 801q9 48 31.5 67t71.5 19h231
q47 0 63.5 -19.5t8.5 -66.5z" />
    <glyph glyph-name="V" unicode="V" horiz-adv-x="1400" 
d="M1479 1454q46 0 55.5 -21.5t-14.5 -62.5l-680 -1298q-24 -43 -49.5 -57.5t-71.5 -14.5h-256q-44 0 -65.5 14.5t-28.5 53.5l-224 1302q-15 84 74 84h227q75 0 104 -19t32 -67l73 -700q4 -54 4 -120t-2 -106l-2 -39h17q33 140 88 263l323 702q23 49 54.5 67.5t105.5 18.5
h236z" />
    <glyph glyph-name="V" unicode="v" horiz-adv-x="1400" 
d="M1479 1454q46 0 55.5 -21.5t-14.5 -62.5l-680 -1298q-24 -43 -49.5 -57.5t-71.5 -14.5h-256q-44 0 -65.5 14.5t-28.5 53.5l-224 1302q-15 84 74 84h227q75 0 104 -19t32 -67l73 -700q4 -54 4 -120t-2 -106l-2 -39h17q33 140 88 263l323 702q23 49 54.5 67.5t105.5 18.5
h236z" />
    <glyph glyph-name="W" unicode="W" horiz-adv-x="1923" 
d="M1985 1454q44 0 51.5 -20.5t-11.5 -63.5l-540 -1298q-18 -42 -45.5 -57t-73.5 -15h-252q-47 0 -70 15t-24 53l-27 479q-6 178 27 368h-19q-42 -197 -106 -368l-195 -475q-21 -42 -48 -57t-72 -15h-244q-47 0 -69 14.5t-25 53.5l-84 1302q-3 46 10.5 65t58.5 19h248
q57 0 79.5 -15t25.5 -61l-5 -536q0 -73 -12 -190.5t-22 -172.5h14q43 216 102 363l224 536q18 47 45.5 61.5t81.5 14.5h217q51 0 75 -15.5t27 -60.5l29 -536q7 -140 -23 -363h15q39 186 94 363l182 536q17 46 44.5 61t84.5 15h232z" />
    <glyph glyph-name="W" unicode="w" horiz-adv-x="1923" 
d="M1985 1454q44 0 51.5 -20.5t-11.5 -63.5l-540 -1298q-18 -42 -45.5 -57t-73.5 -15h-252q-47 0 -70 15t-24 53l-27 479q-6 178 27 368h-19q-42 -197 -106 -368l-195 -475q-21 -42 -48 -57t-72 -15h-244q-47 0 -69 14.5t-25 53.5l-84 1302q-3 46 10.5 65t58.5 19h248
q57 0 79.5 -15t25.5 -61l-5 -536q0 -73 -12 -190.5t-22 -172.5h14q43 216 102 363l224 536q18 47 45.5 61.5t81.5 14.5h217q51 0 75 -15.5t27 -60.5l29 -536q7 -140 -23 -363h15q39 186 94 363l182 536q17 46 44.5 61t84.5 15h232z" />
    <glyph glyph-name="X" unicode="X" horiz-adv-x="1363" 
d="M1432 1454q42 0 48.5 -24t-22.5 -58l-518 -631l311 -655q20 -34 4 -60t-61 -26h-260q-81 0 -108.5 12.5t-47.5 63.5l-137 338l-246 -338q-39 -49 -71 -62.5t-113 -13.5h-254q-46 0 -53.5 24.5t24.5 61.5l537 655l-289 631q-18 34 -3.5 58t56.5 24h244q79 0 108 -12.5
t50 -59.5l129 -317l237 317q37 49 66.5 60.5t103.5 11.5h265z" />
    <glyph glyph-name="X" unicode="x" horiz-adv-x="1363" 
d="M1432 1454q42 0 48.5 -24t-22.5 -58l-518 -631l311 -655q20 -34 4 -60t-61 -26h-260q-81 0 -108.5 12.5t-47.5 63.5l-137 338l-246 -338q-39 -49 -71 -62.5t-113 -13.5h-254q-46 0 -53.5 24.5t24.5 61.5l537 655l-289 631q-18 34 -3.5 58t56.5 24h244q79 0 108 -12.5
t50 -59.5l129 -317l237 317q37 49 66.5 60.5t103.5 11.5h265z" />
    <glyph glyph-name="Y" unicode="Y" horiz-adv-x="1386" 
d="M1473 1454q45 0 51.5 -25.5t-23.5 -60.5l-614 -805l-84 -477q-8 -47 -31 -66.5t-72 -19.5h-229q-49 0 -65 19.5t-7 66.5l84 477l-329 805q-17 35 -2.5 60.5t59.5 25.5h238q81 0 109.5 -12t47.5 -64l146 -420l301 420q37 52 68.5 64t111.5 12h240z" />
    <glyph glyph-name="Y" unicode="y" horiz-adv-x="1386" 
d="M1473 1454q45 0 51.5 -25.5t-23.5 -60.5l-614 -805l-84 -477q-8 -47 -31 -66.5t-72 -19.5h-229q-49 0 -65 19.5t-7 66.5l84 477l-329 805q-17 35 -2.5 60.5t59.5 25.5h238q81 0 109.5 -12t47.5 -64l146 -420l301 420q37 52 68.5 64t111.5 12h240z" />
    <glyph glyph-name="Z" unicode="Z" horiz-adv-x="1255" 
d="M1249 1454q47 0 63.5 -19.5t8.5 -66.5l-23 -123q-7 -48 -43 -90l-716 -797h528q50 0 65.5 -18.5t6.5 -67.5l-33 -186q-9 -47 -32 -66.5t-70 -19.5h-971q-47 0 -63 19.5t-7 66.5l21 125q8 48 43 86l714 801h-503q-49 0 -64.5 18t-7.5 68l33 184q9 48 31 67t69 19h950z" />
    <glyph glyph-name="Z" unicode="z" horiz-adv-x="1255" 
d="M1249 1454q47 0 63.5 -19.5t8.5 -66.5l-23 -123q-7 -48 -43 -90l-716 -797h528q50 0 65.5 -18.5t6.5 -67.5l-33 -186q-9 -47 -32 -66.5t-70 -19.5h-971q-47 0 -63 19.5t-7 66.5l21 125q8 48 43 86l714 801h-503q-49 0 -64.5 18t-7.5 68l33 184q9 48 31 67t69 19h950z" />
    <glyph glyph-name="bracketleft" unicode="[" horiz-adv-x="731" 
d="M18 -326q-49 0 -61 14t-4 64l336 1897q9 50 26 65t66 15h432q49 0 60.5 -13t3.5 -63l-25 -144q-9 -47 -25 -60t-65 -13h-146l-260 -1467h148q48 0 60 -13t3 -62l-26 -144q-7 -49 -23.5 -62.5t-66.5 -13.5h-433z" />
    <glyph glyph-name="backslash" unicode="\" horiz-adv-x="1005" 
d="M184 1382q-6 38 8 55t56 17h215q44 0 63.5 -15t28.5 -57l283 -1433q8 -37 -7 -54.5t-57 -17.5h-213q-44 0 -64.5 15.5t-29.5 56.5z" />
    <glyph glyph-name="bracketright" unicode="]" horiz-adv-x="733" 
d="M750 1759q49 0 61 -14t4 -64l-336 -1896q-8 -50 -25.5 -65t-66.5 -15h-432q-49 0 -60.5 13t-3.5 63l25 143q9 47 25.5 60.5t64.5 13.5h148l258 1466h-146q-50 0 -61 13.5t-4 62.5l26 143q7 49 23.5 62.5t66.5 13.5h433z" />
    <glyph glyph-name="asciicircum" unicode="^" horiz-adv-x="1308" 
d="M907 1659q49 0 68 -13t51 -57l297 -432q28 -44 13 -68t-72 -24h-215q-71 0 -98.5 12.5t-55.5 57.5l-113 192h-6l-186 -192q-44 -45 -77 -57.5t-105 -12.5h-199q-57 0 -64.5 24.5t35.5 67.5l451 432q43 41 70.5 55.5t74.5 14.5h131z" />
    <glyph glyph-name="underscore" unicode="_" horiz-adv-x="1044" 
d="M817 0q49 0 64.5 -19t7.5 -67l-31 -174q-7 -49 -29.5 -67.5t-72.5 -18.5h-807q-50 0 -65.5 18.5t-6.5 67.5l29 174q9 48 31 67t71 19h809z" />
    <glyph glyph-name="grave" unicode="`" horiz-adv-x="534" 
d="M299 1499q61 56 135 4l256 -172q23 -15 20.5 -31.5t-30.5 -46.5l-72 -67q-18 -19 -39.5 -19t-54.5 13l-348 123q-33 14 -31 32.5t35 48.5z" />
    <glyph glyph-name="braceleft" unicode="{" horiz-adv-x="845" 
d="M924 1729q43 0 57 -17.5t6 -60.5l-31 -174q-7 -43 -27 -59.5t-63 -16.5h-100q-20 0 -36 -14t-19 -33l-68 -381q-31 -181 -205 -277q143 -67 107 -280l-66 -369q-3 -19 9 -33t32 -14h101q43 0 56.5 -16.5t6.5 -59.5l-31 -174q-7 -42 -28 -59t-64 -17h-194q-175 0 -234 68
t-31 223l66 377q31 172 -96 172h-13q-36 0 -47.5 17.5t-5.5 58.5l37 207q8 43 25 61.5t53 18.5h14q126 0 158 170l67 387q28 155 111 225t252 70h201z" />
    <glyph glyph-name="bar" unicode="|" horiz-adv-x="581" 
d="M598 1753q43 0 57.5 -17.5t6.5 -60.5l-336 -1898q-8 -43 -27.5 -60.5t-62.5 -17.5h-213q-44 0 -58 17.5t-6 60.5l334 1898q7 43 28 60.5t64 17.5h213z" />
    <glyph glyph-name="braceright" unicode="}" horiz-adv-x="847" 
d="M-41 -295q-44 0 -58.5 17.5t-6.5 60.5l30 174q7 42 28 59t64 17h101q20 0 36 14t19 33l68 381q31 180 204 276q-145 68 -106 281l65 368q3 19 -9 33.5t-32 14.5h-100q-43 0 -56.5 16t-6.5 59l30 174q7 43 28 59.5t65 16.5h194q175 0 233.5 -68t30.5 -223l-67 -376
q-27 -172 98 -172h12q36 0 48 -17.5t6 -58.5l-37 -207q-8 -42 -25.5 -61t-52.5 -19h-14q-126 0 -158 -170l-70 -387q-27 -155 -109 -225t-251 -70h-201z" />
    <glyph glyph-name="asciitilde" unicode="~" horiz-adv-x="1175" 
d="M129 756q129 104 289 104q71 0 129 -17t105 -34.5t91 -17.5q65 0 121 40q42 30 62.5 29t50.5 -33l108 -120q29 -32 24.5 -60.5t-46.5 -60.5q-134 -105 -289 -105q-72 0 -130 17t-104.5 34t-90.5 17q-65 0 -121 -39q-43 -30 -64 -29.5t-49 33.5l-109 121q-29 32 -24 60.5
t47 60.5z" />
    <glyph glyph-name="uni00A0" unicode="&#xa0;" horiz-adv-x="374" 
 />
    <glyph glyph-name="exclamdown" unicode="&#xa1;" horiz-adv-x="573" 
d="M250 690q-92 0 -121 34t-14 126l14 70q15 92 55 125.5t133 33.5h103q91 0 119.5 -33.5t13.5 -125.5l-12 -70q-17 -92 -58 -126t-133 -34h-100zM-18 -451q-44 0 -59.5 17.5t-6.5 60.5l190 881q9 45 29 62.5t62 17.5h165q44 0 58 -17.5t8 -62.5l-123 -881q-6 -43 -27 -60.5
t-65 -17.5h-231z" />
    <glyph glyph-name="cent" unicode="&#xa2;" horiz-adv-x="1122" 
d="M958 365q44 -14 53 -39.5t-18 -73.5q-124 -205 -346 -260l-14 -84q-7 -44 -27.5 -61t-64.5 -17h-189q-43 0 -56.5 17t-6.5 61l12 76q-107 23 -171 88.5t-79.5 158.5t2.5 211l39 226q32 172 130 271.5t274 137.5l14 92q9 44 29.5 61t64.5 17h187q44 0 58 -17t5 -61
l-16 -94q190 -52 227 -274q8 -46 -6.5 -68t-61.5 -37l-186 -57q-50 -17 -71.5 -5t-30.5 58q-10 46 -35.5 66t-71.5 20q-53 0 -86.5 -29.5t-42.5 -82.5l-47 -267q-18 -110 90 -110q87 0 135 84q26 44 52.5 54.5t68.5 -3.5z" />
    <glyph glyph-name="sterling" unicode="&#xa3;" horiz-adv-x="1382" 
d="M299 1042q35 198 196.5 320.5t411.5 122.5q413 0 490 -350q10 -45 -6 -69t-64 -42l-213 -74q-48 -15 -66 -3.5t-34 59.5q-22 66 -57 93t-97 27t-103 -34.5t-52 -92.5l-33 -182h346q49 0 64.5 -19t7.5 -69l-23 -125q-9 -49 -30.5 -67.5t-71.5 -18.5h-355l-6 -39
q-14 -59 -43.5 -95t-75.5 -65l2 -12q1 0 36.5 7.5t71 14t95.5 12t119 5.5h369q47 0 62.5 -19.5t6.5 -68.5l-28 -172q-9 -47 -32.5 -66.5t-70.5 -19.5h-1065q-49 0 -63.5 19t-5.5 67l30 174q11 71 56 76l10 4q90 26 115 133l8 45h-58q-48 0 -63 18.5t-6 67.5l20 125
q9 49 32 68.5t71 19.5h63z" />
    <glyph glyph-name="currency" unicode="&#xa4;" horiz-adv-x="1331" 
d="M561 1143q108 41 203 41q96 0 186 -41l129 110q37 31 61 31t50 -31l121 -147q26 -31 22 -55.5t-41 -55.5l-127 -108q26 -99 9 -197q-16 -96 -74 -196l90 -109q26 -31 21.5 -55.5t-40.5 -55.5l-172 -147q-37 -31 -61 -31t-49 31l-92 111q-103 -41 -201 -41t-188 41
l-129 -111q-37 -31 -61.5 -31t-49.5 31l-123 147q-26 31 -22 55.5t40 55.5l134 113q-26 95 -9 192q13 94 72 193l-92 112q-26 31 -22 55.5t40 55.5l172 147q37 31 61 31t50 -31zM848 690q12 69 -28 117.5t-109 48.5q-71 0 -128.5 -46.5t-70.5 -119.5q-11 -71 29 -119.5
t110 -48.5q69 0 126.5 49t70.5 119z" />
    <glyph glyph-name="yen" unicode="&#xa5;" horiz-adv-x="1460" 
d="M1495 1454q46 0 53 -25.5t-22 -60.5l-461 -561h106q43 0 57.5 -17.5t6.5 -60.5l-18 -98q-8 -43 -28 -60.5t-63 -17.5h-217l-14 -72h219q42 0 56 -17.5t8 -60.5l-19 -98q-8 -43 -27.5 -60.5t-62.5 -17.5h-209l-24 -141q-9 -48 -31.5 -67t-71.5 -19h-231q-49 0 -64.5 19
t-7.5 67l25 141h-209q-43 0 -57.5 17.5t-6.5 60.5l19 98q6 43 26.5 60.5t63.5 17.5h217l14 72h-219q-43 0 -57 17.5t-6 60.5l16 98q7 43 28 60.5t62 17.5h109l-262 561q-18 35 -3 60.5t60 25.5h231q80 0 109 -12.5t47 -63.5l147 -420l299 420q35 51 68 63.5t113 12.5h231z
" />
    <glyph glyph-name="brokenbar" unicode="&#xa6;" horiz-adv-x="591" 
d="M602 1753q44 0 58 -17.5t6 -60.5l-134 -749q-6 -44 -26 -61t-64 -17h-211q-44 0 -58 17t-7 61l133 749q8 43 28 60.5t64 17.5h211zM399 606q44 0 58.5 -17t7.5 -61l-133 -749q-8 -43 -28 -60.5t-64 -17.5h-211q-44 0 -59 17.5t-7 60.5l133 749q7 44 27 61t63 17h213z" />
    <glyph glyph-name="section" unicode="&#xa7;" horiz-adv-x="1286" 
d="M195 1081q35 191 191 297.5t427 106.5q195 0 298 -76t149 -223q15 -45 0 -70t-68 -47l-156 -61q-47 -21 -71 -11.5t-39 56.5q-21 58 -62 81t-110 23q-147 0 -162 -98q-7 -42 33 -65t123 -40q15 -3 46 -10q79 -17 122 -28t112.5 -42t102.5 -69.5t53.5 -106.5t5.5 -157
q-30 -165 -168 -269q53 -43 75 -125t1 -190q-36 -194 -192.5 -300t-430.5 -106q-219 0 -358.5 79.5t-171.5 232.5q-7 45 12.5 72t69.5 45l172 63q53 18 73.5 6.5t34.5 -63.5q26 -109 195 -109q171 0 190 105q7 40 -29.5 60t-111.5 32q-21 4 -67 11q-85 14 -131.5 23.5
t-121 38t-111 66.5t-59 107.5t-6.5 160.5q34 189 215 289q-116 94 -75 311zM627 641q-24 2 -62 12q-85 -64 -92 -137q-8 -65 34.5 -92t131.5 -39l57 -6q74 59 82 133q7 55 -32.5 83.5t-118.5 45.5z" />
    <glyph glyph-name="dieresis" unicode="&#xa8;" horiz-adv-x="907" 
d="M406 1501q86 0 112.5 -31t11.5 -114l-4 -27q-15 -83 -53 -115t-123 -32h-14q-85 0 -111.5 32t-11.5 115l4 27q15 84 51.5 114.5t122.5 30.5h15zM846 1501q86 0 112 -31t11 -114l-4 -27q-15 -83 -52 -115t-122 -32h-15q-85 0 -112.5 32.5t-12.5 114.5l4 27q15 83 53 114
t123 31h15z" />
    <glyph glyph-name="copyright" unicode="&#xa9;" horiz-adv-x="1601" 
d="M84 721q58 349 282.5 541t571.5 192q345 0 510 -199t108 -538q-60 -349 -282.5 -542t-568.5 -193q-349 0 -514.5 199t-106.5 540zM1366 717q44 256 -79 401.5t-380 145.5q-256 0 -421.5 -142.5t-211.5 -400.5q-47 -259 74 -405t387 -146q255 0 420 144t211 403zM518 821
q23 137 120.5 215t250.5 78q118 0 186.5 -52.5t83.5 -146.5q7 -42 -4.5 -60.5t-48.5 -29.5l-96 -30q-37 -12 -51.5 -4t-20.5 45q-7 33 -28 46t-60 13q-95 0 -107 -76l-36 -207q-6 -37 14.5 -57t64.5 -20q73 0 109 59q20 37 38 46t50 -3l90 -35q34 -12 38.5 -29.5
t-15.5 -58.5q-106 -199 -346 -199q-153 0 -223 82t-46 221z" />
    <glyph glyph-name="ordfeminine" unicode="&#xaa;" horiz-adv-x="729" 
d="M203 1382q100 103 289 103q155 0 208 -70t33 -194l-41 -252q-7 -43 -27 -64t-67 -39q-96 -30 -223 -30q-85 0 -141.5 16t-81.5 44t-34 65.5t1 80.5q12 65 44 104t102 61t184 22q18 0 28 -2l6 33q3 23 -5 31.5t-29 8.5q-24 0 -60 -28q-31 -27 -49 -30.5t-51 11.5l-70 39
q-36 17 -39.5 37.5t23.5 52.5zM414 1075q-21 0 -30.5 -7.5t-12.5 -25.5q-4 -21 2.5 -27.5t27.5 -6.5q11 0 23 1l12 1q2 0 4 4l9 61h-35z" />
    <glyph glyph-name="logicalnot" unicode="&#xac;" horiz-adv-x="1228" 
d="M1094 868q43 0 57.5 -16.5t5.5 -60.5l-80 -453q-7 -44 -27 -61t-63 -17h-223q-43 0 -57 17t-7 61l35 194h-598q-43 0 -56.5 17t-6.5 61l32 181q7 44 27.5 60.5t63.5 16.5h897z" />
    <glyph glyph-name="registered" unicode="&#xae;" horiz-adv-x="942" 
d="M139 1059q34 193 156.5 300t312.5 107q193 0 288.5 -110t61.5 -301q-34 -194 -156.5 -301t-312.5 -107q-192 0 -287.5 110t-62.5 302zM256 1057q-25 -140 40.5 -218.5t209.5 -78.5q137 0 226 78.5t114 218.5q25 138 -41.5 216.5t-204.5 78.5q-140 0 -229.5 -77.5
t-114.5 -217.5zM612 1249q65 0 101 -38.5t24 -100.5q-15 -85 -86 -117l37 -75q29 -54 -41 -54h-39q-24 0 -31.5 5.5t-15.5 25.5l-35 78h-28l-13 -78q-3 -19 -10 -25t-26 -6h-58q-20 0 -25.5 6.5t-0.5 24.5l55 322q5 19 12 25.5t27 6.5h153zM514 1077h64q13 0 23 9t13 22
q3 14 -4 23.5t-20 9.5h-64z" />
    <glyph glyph-name="macron" unicode="&#xaf;" horiz-adv-x="729" 
d="M780 1454q44 0 56.5 -15t5.5 -59l-17 -86q-6 -44 -23.5 -58.5t-62.5 -14.5h-499q-43 0 -55.5 14.5t-6.5 58.5l17 86q7 43 26.5 58.5t59.5 15.5h499z" />
    <glyph glyph-name="degree" unicode="&#xb0;" horiz-adv-x="866" 
d="M913 1137q-28 -167 -156 -278t-294 -111q-169 0 -262.5 110.5t-65.5 278.5q28 171 153 279t294 108t263.5 -108.5t67.5 -278.5zM408 1135q-9 -50 18 -83.5t78 -33.5t90 33.5t47 83.5q9 51 -18 85.5t-76 34.5q-51 0 -90.5 -34.5t-48.5 -85.5z" />
    <glyph glyph-name="plusminus" unicode="&#xb1;" horiz-adv-x="1206" 
d="M1102 1030q49 0 65 -19.5t7 -66.5l-27 -153q-9 -49 -31 -67.5t-72 -18.5h-260l-22 -117q-7 -49 -28.5 -67.5t-71.5 -18.5h-158q-50 0 -65.5 18.5t-8.5 67.5l23 117h-258q-50 0 -66.5 18.5t-7.5 67.5l26 153q9 47 32.5 66.5t70.5 19.5h260l20 119q7 49 30 67.5t73 18.5
h158q50 0 65 -18.5t6 -67.5l-20 -119h260zM1001 444q49 0 65 -19t7 -69l-29 -159q-9 -50 -31 -69t-71 -19h-850q-50 0 -65.5 19.5t-6.5 68.5l27 159q9 49 32 68.5t71 19.5h851z" />
    <glyph glyph-name="acute" unicode="&#xb4;" horiz-adv-x="534" 
d="M477 1503q93 51 135 -4l86 -115q24 -29 19.5 -48.5t-43.5 -32.5l-389 -123q-39 -13 -60.5 -13t-34.5 19l-47 67q-19 29 -14.5 46t33.5 32z" />
    <glyph glyph-name="uni00B5" unicode="&#xb5;" horiz-adv-x="1175" 
d="M1083 1065q43 0 57.5 -17.5t6.5 -60.5l-146 -819q-6 -37 -26 -63t-60 -50q-69 -41 -158.5 -63.5t-174.5 -22.5q-121 0 -207 47l-68 -389q-8 -43 -29 -60.5t-65 -17.5h-223q-44 0 -59 17.5t-7 60.5l242 1360q8 43 28 60.5t64 17.5h223q44 0 59 -17.5t7 -60.5l-101 -561
q-10 -61 15 -88t90 -27q29 0 82 11q15 3 18 18l115 647q8 43 28 60.5t64 17.5h225z" />
    <glyph glyph-name="paragraph" unicode="&#xb6;" horiz-adv-x="1441" 
d="M1391 1454q43 0 57.5 -17.5t5.5 -60.5l-258 -1480q-9 -43 -30 -60.5t-64 -17.5h-178q-44 0 -58 17.5t-6 60.5l211 1202h-104l-211 -1202q-8 -43 -29 -60.5t-65 -17.5h-177q-44 0 -58 17.5t-5 60.5l94 538q-145 3 -247 72.5t-143 189t-15 267.5q39 225 202.5 358
t391.5 133h686z" />
    <glyph glyph-name="periodcentered" unicode="&#xb7;" horiz-adv-x="585" 
d="M219 430q-91 0 -119.5 34.5t-13.5 125.5l14 84q17 91 58 125.5t133 34.5h78q91 0 119.5 -34.5t13.5 -125.5l-17 -84q-15 -91 -55.5 -125.5t-132.5 -34.5h-78z" />
    <glyph glyph-name="cedilla" unicode="&#xb8;" horiz-adv-x="522" 
d="M225 -102h15q90 -1 125.5 -62.5t11.5 -150.5q-19 -72 -74.5 -118t-120 -62.5t-141.5 -16.5q-67 0 -154 33q-29 11 -37.5 24.5t-5.5 38.5l15 86q14 66 71 33q57 -31 109 -31q73 0 80 47q5 23 -13 34t-67 11h-43q-29 0 -32.5 15t16.5 47l106 174h195z" />
    <glyph glyph-name="ordmasculine" unicode="&#xba;" horiz-adv-x="729" 
d="M154 1239q43 246 342 246q145 0 210.5 -73t41.5 -200l-23 -125q-44 -251 -344 -251q-142 0 -208 76.5t-42 201.5zM498 1227q3 19 -7.5 30t-33.5 11q-48 0 -54 -41l-22 -133q-3 -18 6.5 -27.5t32.5 -9.5q45 0 55 37z" />
    <glyph glyph-name="guillemotright" unicode="&#xbb;" horiz-adv-x="1312" 
d="M700 944q-41 47 17 96l135 115q31 28 52.5 27.5t43.5 -27.5l326 -391q23 -28 18.5 -49t-37.5 -49l-471 -404q-56 -53 -98 0l-92 113q-22 29 -18 49.5t36 46.5l281 242zM160 944q-22 25 -18.5 47.5t34.5 48.5l135 115q33 27 54.5 27t42.5 -27l325 -391q23 -28 19.5 -49
t-37.5 -49l-471 -404q-30 -27 -52.5 -27.5t-46.5 27.5l-92 113q-21 30 -16.5 49.5t35.5 46.5l280 242z" />
    <glyph glyph-name="onequarter" unicode="&#xbc;" horiz-adv-x="1882" 
d="M610 1464q59 0 77 -22t9 -76l-110 -629q-8 -45 -30.5 -63.5t-72.5 -18.5h-108q-50 0 -65 18.5t-7 63.5l70 391l-60 -30q-48 -22 -72.5 -15t-39.5 43l-37 82q-13 37 -1 62t52 47l238 123q41 24 100 24h57zM1593 1454q45 0 56 -23.5t-15 -58.5l-952 -1296
q-37 -50 -65.5 -63t-104.5 -13h-135q-47 0 -59.5 25.5t14.5 60.5l954 1296q35 47 62.5 59.5t97.5 12.5h147zM1708 362q41 0 51.5 -12.5t5.5 -48.5l-16 -94q-8 -38 -22.5 -51t-57.5 -13h-22l-13 -71q-8 -38 -25.5 -54t-52.5 -16h-133q-36 0 -46.5 15.5t-4.5 54.5l12 71h-325
q-42 0 -55 16.5t-5 55.5l9 61q8 36 16 52t29 37l397 395q33 31 57 41t70 10h104q50 0 64 -17.5t6 -64.5l-65 -367h22zM1448 498l-137 -136h112z" />
    <glyph glyph-name="onehalf" unicode="&#xbd;" horiz-adv-x="1904" 
d="M614 1464q57 0 75 -22t9 -76l-110 -629q-8 -45 -29.5 -63.5t-71.5 -18.5h-110q-50 0 -65 18.5t-7 63.5l70 391l-60 -30q-48 -22 -72.5 -15t-39.5 43l-37 82q-13 37 -0.5 62t53.5 47l236 123q44 24 100 24h59zM1567 1454q45 0 56 -23.5t-15 -58.5l-953 -1296
q-37 -50 -65.5 -63t-104.5 -13h-137q-45 0 -57.5 25.5t14.5 60.5l955 1296q34 47 61 59.5t98 12.5h148zM1186 631q55 96 142 145t222 49q147 0 220 -75t57 -187q-16 -108 -73 -176.5t-169 -99.5l-94 -27q-44 -7 -47 -20v-2h239q41 0 54.5 -16t5.5 -56l-17 -96
q-6 -39 -23.5 -54.5t-57.5 -15.5h-506q-41 0 -54.5 15.5t-7.5 54.5l13 67q21 117 71.5 176.5t169.5 98.5l115 37q43 14 62.5 31.5t25.5 51.5q3 20 -7 34t-32 14q-44 0 -78 -48q-17 -24 -26 -34t-22.5 -18.5t-27 -7t-34.5 10.5l-97 37q-40 15 -45 40t21 71z" />
    <glyph glyph-name="threequarters" unicode="&#xbe;" horiz-adv-x="1921" 
d="M186 1294q54 96 143.5 143.5t229.5 47.5q148 0 223 -67.5t56 -182.5q-9 -54 -33 -88t-76 -68q94 -62 70 -198q-21 -116 -114.5 -177t-258.5 -61q-146 0 -227.5 46t-96.5 147q-6 38 5 60t45 34l96 33q50 15 68.5 6t31.5 -49q10 -32 35 -43t66 -11q70 0 73 39q6 25 -5.5 36
t-47.5 11h-57q-35 0 -44 11.5t-3 48.5l20 102q6 40 19 52t53 12h41q61 0 69 45q4 22 -9 32.5t-44 10.5q-44 0 -73 -11t-52 -45q-25 -39 -46 -48t-67 9l-69 33q-28 14 -34.5 31.5t13.5 58.5zM1665 1454q45 0 56 -23.5t-15 -58.5l-952 -1296q-37 -50 -65.5 -63t-104.5 -13
h-138q-45 0 -57.5 25.5t14.5 60.5l955 1296q34 47 61.5 59.5t98.5 12.5h147zM1755 360q41 0 51.5 -12.5t5.5 -48.5l-16 -94q-8 -38 -22.5 -51t-57.5 -13h-22l-13 -71q-8 -39 -24.5 -54.5t-52.5 -15.5h-134q-36 0 -46.5 15.5t-4.5 54.5l13 71h-326q-42 0 -54.5 16.5
t-4.5 55.5l8 61q8 35 15.5 50.5t29.5 37.5l397 396q33 32 57 41.5t72 9.5h103q50 0 63.5 -17.5t5.5 -64.5l-65 -367h22zM1495 496l-137 -136h112z" />
    <glyph glyph-name="questiondown" unicode="&#xbf;" horiz-adv-x="1214" 
d="M791 1077q92 0 121 -34t14 -125l-15 -72q-15 -91 -55.5 -125.5t-132.5 -34.5h-102q-91 0 -120 34.5t-14 125.5l13 72q17 91 57.5 125t132.5 34h101zM756 616q45 0 60.5 -17.5t6.5 -63.5q-24 -133 -83 -208t-146 -122q-21 -11 -67 -33.5t-67.5 -36t-51.5 -37t-46.5 -53
t-23.5 -68.5q-9 -53 21.5 -84.5t101.5 -31.5q82 0 135.5 31t108.5 118q31 49 53.5 61t66.5 -5l172 -74q42 -19 50 -43t-17 -70q-63 -110 -140.5 -181t-193.5 -111t-270 -40q-255 0 -386.5 121t-98.5 314q12 72 41 131.5t63 97.5t82 72.5t86 53.5l88 44t76 41q86 52 96 113
q9 47 30.5 64t67.5 17h185z" />
    <glyph glyph-name="Agrave" unicode="&#xc0;" horiz-adv-x="1415" 
d="M778 1872q58 56 137 6l259 -170q26 -16 23.5 -33t-30.5 -45l-69 -69q-19 -19 -41.5 -20.5t-55.5 11.5l-350 115q-23 8 -29 19.5t1.5 26t29.5 36.5zM-41 0q-46 0 -54.5 21.5t15.5 62.5l701 1298q23 43 47.5 57.5t70.5 14.5h232q45 0 66 -14.5t28 -53.5l246 -1302
q15 -84 -76 -84h-211q-77 0 -105.5 18.5t-33.5 67.5l-21 147h-444l-74 -147q-22 -49 -55.5 -67.5t-106.5 -18.5h-225zM827 555l-32 240q-7 72 -5.5 136t6.5 108l5 44h-19q-26 -147 -92 -286l-119 -242h256z" />
    <glyph glyph-name="Agrave" unicode="&#xe0;" horiz-adv-x="1415" 
d="M778 1872q58 56 137 6l259 -170q26 -16 23.5 -33t-30.5 -45l-69 -69q-19 -19 -41.5 -20.5t-55.5 11.5l-350 115q-23 8 -29 19.5t1.5 26t29.5 36.5zM-41 0q-46 0 -54.5 21.5t15.5 62.5l701 1298q23 43 47.5 57.5t70.5 14.5h232q45 0 66 -14.5t28 -53.5l246 -1302
q15 -84 -76 -84h-211q-77 0 -105.5 18.5t-33.5 67.5l-21 147h-444l-74 -147q-22 -49 -55.5 -67.5t-106.5 -18.5h-225zM827 555l-32 240q-7 72 -5.5 136t6.5 108l5 44h-19q-26 -147 -92 -286l-119 -242h256z" />
    <glyph glyph-name="Aacute" unicode="&#xc1;" horiz-adv-x="1415" 
d="M950 1872q92 49 135 -6l82 -119q23 -29 18 -49t-44 -33l-391 -115q-37 -12 -59.5 -10.5t-35.5 21.5l-41 67q-20 29 -16 46t33 32zM-41 0q-46 0 -54.5 21.5t15.5 62.5l701 1298q23 43 47.5 57.5t70.5 14.5h232q45 0 66 -14.5t28 -53.5l246 -1302q15 -84 -76 -84h-211
q-77 0 -105.5 18.5t-33.5 67.5l-21 147h-444l-74 -147q-22 -49 -55.5 -67.5t-106.5 -18.5h-225zM827 555l-32 240q-7 72 -5.5 136t6.5 108l5 44h-19q-26 -147 -92 -286l-119 -242h256z" />
    <glyph glyph-name="Aacute" unicode="&#xe1;" horiz-adv-x="1415" 
d="M950 1872q92 49 135 -6l82 -119q23 -29 18 -49t-44 -33l-391 -115q-37 -12 -59.5 -10.5t-35.5 21.5l-41 67q-20 29 -16 46t33 32zM-41 0q-46 0 -54.5 21.5t15.5 62.5l701 1298q23 43 47.5 57.5t70.5 14.5h232q45 0 66 -14.5t28 -53.5l246 -1302q15 -84 -76 -84h-211
q-77 0 -105.5 18.5t-33.5 67.5l-21 147h-444l-74 -147q-22 -49 -55.5 -67.5t-106.5 -18.5h-225zM827 555l-32 240q-7 72 -5.5 136t6.5 108l5 44h-19q-26 -147 -92 -286l-119 -242h256z" />
    <glyph glyph-name="Acircumflex" unicode="&#xc2;" horiz-adv-x="1415" 
d="M973 1884q55 0 78.5 -10t56.5 -51l172 -209q14 -17 16.5 -32.5t-12.5 -26.5t-47 -11h-166q-64 0 -88.5 7.5t-42.5 35.5l-45 74l-78 -72q-30 -30 -55 -37.5t-84 -7.5h-164q-32 0 -43.5 11t-4 26.5t27.5 32.5l245 209q50 41 77 51t91 10h66zM-41 0q-46 0 -54.5 21.5
t15.5 62.5l701 1298q23 43 47.5 57.5t70.5 14.5h232q45 0 66 -14.5t28 -53.5l246 -1302q15 -84 -76 -84h-211q-77 0 -105.5 18.5t-33.5 67.5l-21 147h-444l-74 -147q-22 -49 -55.5 -67.5t-106.5 -18.5h-225zM827 555l-32 240q-7 72 -5.5 136t6.5 108l5 44h-19
q-26 -147 -92 -286l-119 -242h256z" />
    <glyph glyph-name="Acircumflex" unicode="&#xe2;" horiz-adv-x="1415" 
d="M973 1884q55 0 78.5 -10t56.5 -51l172 -209q14 -17 16.5 -32.5t-12.5 -26.5t-47 -11h-166q-64 0 -88.5 7.5t-42.5 35.5l-45 74l-78 -72q-30 -30 -55 -37.5t-84 -7.5h-164q-32 0 -43.5 11t-4 26.5t27.5 32.5l245 209q50 41 77 51t91 10h66zM-41 0q-46 0 -54.5 21.5
t15.5 62.5l701 1298q23 43 47.5 57.5t70.5 14.5h232q45 0 66 -14.5t28 -53.5l246 -1302q15 -84 -76 -84h-211q-77 0 -105.5 18.5t-33.5 67.5l-21 147h-444l-74 -147q-22 -49 -55.5 -67.5t-106.5 -18.5h-225zM827 555l-32 240q-7 72 -5.5 136t6.5 108l5 44h-19
q-26 -147 -92 -286l-119 -242h256z" />
    <glyph glyph-name="Atilde" unicode="&#xc3;" horiz-adv-x="1415" 
d="M1227 1862q27 0 35.5 -11t3.5 -36q-24 -138 -83 -195t-161 -57q-52 0 -94.5 13.5t-65.5 29.5t-49.5 29.5t-48.5 13.5q-28 0 -37 -45q-6 -41 -47 -41h-125q-48 0 -39 47q23 139 83.5 195.5t156.5 56.5q53 0 97 -13t68 -29t50 -29t47 -13q31 0 39 45q5 22 14.5 30.5
t30.5 8.5h125zM-41 0q-46 0 -54.5 21.5t15.5 62.5l701 1298q23 43 47.5 57.5t70.5 14.5h232q45 0 66 -14.5t28 -53.5l246 -1302q15 -84 -76 -84h-211q-77 0 -105.5 18.5t-33.5 67.5l-21 147h-444l-74 -147q-22 -49 -55.5 -67.5t-106.5 -18.5h-225zM827 555l-32 240
q-7 72 -5.5 136t6.5 108l5 44h-19q-26 -147 -92 -286l-119 -242h256z" />
    <glyph glyph-name="Atilde" unicode="&#xe3;" horiz-adv-x="1415" 
d="M1227 1862q27 0 35.5 -11t3.5 -36q-24 -138 -83 -195t-161 -57q-52 0 -94.5 13.5t-65.5 29.5t-49.5 29.5t-48.5 13.5q-28 0 -37 -45q-6 -41 -47 -41h-125q-48 0 -39 47q23 139 83.5 195.5t156.5 56.5q53 0 97 -13t68 -29t50 -29t47 -13q31 0 39 45q5 22 14.5 30.5
t30.5 8.5h125zM-41 0q-46 0 -54.5 21.5t15.5 62.5l701 1298q23 43 47.5 57.5t70.5 14.5h232q45 0 66 -14.5t28 -53.5l246 -1302q15 -84 -76 -84h-211q-77 0 -105.5 18.5t-33.5 67.5l-21 147h-444l-74 -147q-22 -49 -55.5 -67.5t-106.5 -18.5h-225zM827 555l-32 240
q-7 72 -5.5 136t6.5 108l5 44h-19q-26 -147 -92 -286l-119 -242h256z" />
    <glyph glyph-name="Adieresis" unicode="&#xc4;" horiz-adv-x="1415" 
d="M715 1872q86 0 113.5 -31.5t13.5 -114.5l-6 -26q-13 -82 -52.5 -114t-124.5 -32h-16q-84 0 -109.5 31.5t-11.5 114.5l6 26q14 84 50 115t120 31h17zM1155 1872q85 0 111.5 -31.5t13.5 -114.5l-6 -26q-14 -82 -51.5 -114t-122.5 -32h-15q-85 0 -111.5 31.5t-12.5 114.5
l6 26q14 83 51 114.5t123 31.5h14zM-41 0q-46 0 -54.5 21.5t15.5 62.5l701 1298q23 43 47.5 57.5t70.5 14.5h232q45 0 66 -14.5t28 -53.5l246 -1302q15 -84 -76 -84h-211q-77 0 -105.5 18.5t-33.5 67.5l-21 147h-444l-74 -147q-22 -49 -55.5 -67.5t-106.5 -18.5h-225z
M827 555l-32 240q-7 72 -5.5 136t6.5 108l5 44h-19q-26 -147 -92 -286l-119 -242h256z" />
    <glyph glyph-name="Adieresis" unicode="&#xe4;" horiz-adv-x="1415" 
d="M715 1872q86 0 113.5 -31.5t13.5 -114.5l-6 -26q-13 -82 -52.5 -114t-124.5 -32h-16q-84 0 -109.5 31.5t-11.5 114.5l6 26q14 84 50 115t120 31h17zM1155 1872q85 0 111.5 -31.5t13.5 -114.5l-6 -26q-14 -82 -51.5 -114t-122.5 -32h-15q-85 0 -111.5 31.5t-12.5 114.5
l6 26q14 83 51 114.5t123 31.5h14zM-41 0q-46 0 -54.5 21.5t15.5 62.5l701 1298q23 43 47.5 57.5t70.5 14.5h232q45 0 66 -14.5t28 -53.5l246 -1302q15 -84 -76 -84h-211q-77 0 -105.5 18.5t-33.5 67.5l-21 147h-444l-74 -147q-22 -49 -55.5 -67.5t-106.5 -18.5h-225z
M827 555l-32 240q-7 72 -5.5 136t6.5 108l5 44h-19q-26 -147 -92 -286l-119 -242h256z" />
    <glyph glyph-name="Aring" unicode="&#xc5;" horiz-adv-x="1417" 
d="M543 1526q23 135 127 213t248 78q140 0 213 -79.5t49 -211.5q-21 -123 -113 -199l244 -1243q15 -84 -76 -84h-211q-77 0 -105.5 18.5t-33.5 67.5l-21 147h-444l-74 -147q-22 -49 -55.5 -67.5t-106.5 -18.5h-225q-46 0 -54.5 21.5t15.5 62.5l672 1235q-70 76 -49 207z
M950 1526q7 40 -12 64t-57 24q-43 0 -73 -24t-38 -64q-6 -39 15.5 -63.5t64.5 -24.5q37 0 65.5 24.5t34.5 63.5zM795 795q-7 72 -5.5 136t6.5 108l5 44h-19q-26 -147 -92 -286l-119 -242h256z" />
    <glyph glyph-name="Aring" unicode="&#xe5;" horiz-adv-x="1417" 
d="M543 1526q23 135 127 213t248 78q140 0 213 -79.5t49 -211.5q-21 -123 -113 -199l244 -1243q15 -84 -76 -84h-211q-77 0 -105.5 18.5t-33.5 67.5l-21 147h-444l-74 -147q-22 -49 -55.5 -67.5t-106.5 -18.5h-225q-46 0 -54.5 21.5t15.5 62.5l672 1235q-70 76 -49 207z
M950 1526q7 40 -12 64t-57 24q-43 0 -73 -24t-38 -64q-6 -39 15.5 -63.5t64.5 -24.5q37 0 65.5 24.5t34.5 63.5zM795 795q-7 72 -5.5 136t6.5 108l5 44h-19q-26 -147 -92 -286l-119 -242h256z" />
    <glyph glyph-name="AE" unicode="&#xc6;" horiz-adv-x="1861" 
d="M1677 358q50 0 65.5 -18.5t6.5 -67.5l-33 -186q-9 -48 -31 -67t-71 -19h-694q-49 0 -65 19.5t-7 66.5l22 129h-411l-111 -139q-36 -45 -67 -60.5t-107 -15.5h-223q-47 0 -58 23t17 61l1057 1298q36 44 56.5 58t61.5 14h768q47 0 63.5 -19.5t8.5 -66.5l-33 -184
q-9 -49 -30.5 -67.5t-71.5 -18.5h-401l-31 -185h291q49 0 64.5 -19t6.5 -69l-32 -182q-7 -49 -30 -68.5t-73 -19.5h-291l-34 -197h417zM1016 946l-303 -422h213z" />
    <glyph glyph-name="AE" unicode="&#xe6;" horiz-adv-x="1861" 
d="M1677 358q50 0 65.5 -18.5t6.5 -67.5l-33 -186q-9 -48 -31 -67t-71 -19h-694q-49 0 -65 19.5t-7 66.5l22 129h-411l-111 -139q-36 -45 -67 -60.5t-107 -15.5h-223q-47 0 -58 23t17 61l1057 1298q36 44 56.5 58t61.5 14h768q47 0 63.5 -19.5t8.5 -66.5l-33 -184
q-9 -49 -30.5 -67.5t-71.5 -18.5h-401l-31 -185h291q49 0 64.5 -19t6.5 -69l-32 -182q-7 -49 -30 -68.5t-73 -19.5h-291l-34 -197h417zM1016 946l-303 -422h213z" />
    <glyph glyph-name="Ccedilla" unicode="&#xc7;" horiz-adv-x="1333" 
d="M854 1485q441 0 510 -365q9 -45 -6 -69t-64 -41l-211 -72q-49 -14 -70.5 -3t-31.5 58q-14 70 -57.5 101.5t-128.5 31.5q-119 0 -181.5 -51.5t-81.5 -159.5l-67 -376q-19 -108 25 -159.5t163 -51.5q161 0 238 133q27 48 51.5 59.5t69.5 -4.5l209 -82q44 -15 52.5 -40.5
t-16.5 -69.5q-167 -301 -532 -347l-45 -83h14q90 -1 125.5 -64t11.5 -152q-19 -71 -74.5 -116.5t-119.5 -61.5t-141 -16q-78 0 -154 33q-28 10 -37 24.5t-6 38.5l16 84q10 67 70 35q54 -33 109 -33q71 0 79 47q5 24 -12 34.5t-67 10.5h-43q-56 0 -21 58l96 157
q-263 19 -384 177.5t-76 410.5l65 379q46 264 233 404.5t490 140.5z" />
    <glyph glyph-name="Ccedilla" unicode="&#xe7;" horiz-adv-x="1333" 
d="M854 1485q441 0 510 -365q9 -45 -6 -69t-64 -41l-211 -72q-49 -14 -70.5 -3t-31.5 58q-14 70 -57.5 101.5t-128.5 31.5q-119 0 -181.5 -51.5t-81.5 -159.5l-67 -376q-19 -108 25 -159.5t163 -51.5q161 0 238 133q27 48 51.5 59.5t69.5 -4.5l209 -82q44 -15 52.5 -40.5
t-16.5 -69.5q-167 -301 -532 -347l-45 -83h14q90 -1 125.5 -64t11.5 -152q-19 -71 -74.5 -116.5t-119.5 -61.5t-141 -16q-78 0 -154 33q-28 10 -37 24.5t-6 38.5l16 84q10 67 70 35q54 -33 109 -33q71 0 79 47q5 24 -12 34.5t-67 10.5h-43q-56 0 -21 58l96 157
q-263 19 -384 177.5t-76 410.5l65 379q46 264 233 404.5t490 140.5z" />
    <glyph glyph-name="Egrave" unicode="&#xc8;" horiz-adv-x="1212" 
d="M694 1872q58 56 137 6l259 -170q26 -16 23.5 -33t-30.5 -45l-69 -69q-19 -19 -41 -20.5t-55 11.5l-351 115q-23 8 -29 19.5t1.5 26t29.5 36.5zM1200 1454q49 0 65.5 -19t8.5 -67l-33 -184q-9 -49 -31.5 -67.5t-70.5 -18.5h-543l-31 -185h432q49 0 64.5 -19t7.5 -69
l-33 -182q-9 -50 -31 -69t-71 -19h-432l-35 -197h559q48 0 63.5 -18.5t6.5 -67.5l-33 -186q-8 -47 -30.5 -66.5t-71.5 -19.5h-875q-49 0 -65 19.5t-7 66.5l226 1282q9 48 31 67t71 19h858z" />
    <glyph glyph-name="Egrave" unicode="&#xe8;" horiz-adv-x="1212" 
d="M694 1872q58 56 137 6l259 -170q26 -16 23.5 -33t-30.5 -45l-69 -69q-19 -19 -41 -20.5t-55 11.5l-351 115q-23 8 -29 19.5t1.5 26t29.5 36.5zM1200 1454q49 0 65.5 -19t8.5 -67l-33 -184q-9 -49 -31.5 -67.5t-70.5 -18.5h-543l-31 -185h432q49 0 64.5 -19t7.5 -69
l-33 -182q-9 -50 -31 -69t-71 -19h-432l-35 -197h559q48 0 63.5 -18.5t6.5 -67.5l-33 -186q-8 -47 -30.5 -66.5t-71.5 -19.5h-875q-49 0 -65 19.5t-7 66.5l226 1282q9 48 31 67t71 19h858z" />
    <glyph glyph-name="Eacute" unicode="&#xc9;" horiz-adv-x="1212" 
d="M868 1872q93 49 136 -6l81 -119q23 -29 18 -49t-44 -33l-391 -115q-37 -12 -59.5 -10.5t-35.5 21.5l-41 67q-20 29 -16 46t33 32zM1200 1454q49 0 65.5 -19t8.5 -67l-33 -184q-9 -49 -31.5 -67.5t-70.5 -18.5h-543l-31 -185h432q49 0 64.5 -19t7.5 -69l-33 -182
q-9 -50 -31 -69t-71 -19h-432l-35 -197h559q48 0 63.5 -18.5t6.5 -67.5l-33 -186q-8 -47 -30.5 -66.5t-71.5 -19.5h-875q-49 0 -65 19.5t-7 66.5l226 1282q9 48 31 67t71 19h858z" />
    <glyph glyph-name="Eacute" unicode="&#xe9;" horiz-adv-x="1212" 
d="M868 1872q93 49 136 -6l81 -119q23 -29 18 -49t-44 -33l-391 -115q-37 -12 -59.5 -10.5t-35.5 21.5l-41 67q-20 29 -16 46t33 32zM1200 1454q49 0 65.5 -19t8.5 -67l-33 -184q-9 -49 -31.5 -67.5t-70.5 -18.5h-543l-31 -185h432q49 0 64.5 -19t7.5 -69l-33 -182
q-9 -50 -31 -69t-71 -19h-432l-35 -197h559q48 0 63.5 -18.5t6.5 -67.5l-33 -186q-8 -47 -30.5 -66.5t-71.5 -19.5h-875q-49 0 -65 19.5t-7 66.5l226 1282q9 48 31 67t71 19h858z" />
    <glyph glyph-name="Ecircumflex" unicode="&#xca;" horiz-adv-x="1212" 
d="M891 1884q55 0 78.5 -10t56.5 -51l172 -209q14 -17 16.5 -32.5t-12.5 -26.5t-47 -11h-166q-64 0 -88.5 7.5t-42.5 35.5l-45 74l-78 -72q-30 -30 -55 -37.5t-84 -7.5h-164q-32 0 -43.5 11t-4 26.5t27.5 32.5l245 209q50 41 77 51t91 10h66zM1200 1454q49 0 65.5 -19
t8.5 -67l-33 -184q-9 -49 -31.5 -67.5t-70.5 -18.5h-543l-31 -185h432q49 0 64.5 -19t7.5 -69l-33 -182q-9 -50 -31 -69t-71 -19h-432l-35 -197h559q48 0 63.5 -18.5t6.5 -67.5l-33 -186q-8 -47 -30.5 -66.5t-71.5 -19.5h-875q-49 0 -65 19.5t-7 66.5l226 1282q9 48 31 67
t71 19h858z" />
    <glyph glyph-name="Ecircumflex" unicode="&#xea;" horiz-adv-x="1212" 
d="M891 1884q55 0 78.5 -10t56.5 -51l172 -209q14 -17 16.5 -32.5t-12.5 -26.5t-47 -11h-166q-64 0 -88.5 7.5t-42.5 35.5l-45 74l-78 -72q-30 -30 -55 -37.5t-84 -7.5h-164q-32 0 -43.5 11t-4 26.5t27.5 32.5l245 209q50 41 77 51t91 10h66zM1200 1454q49 0 65.5 -19
t8.5 -67l-33 -184q-9 -49 -31.5 -67.5t-70.5 -18.5h-543l-31 -185h432q49 0 64.5 -19t7.5 -69l-33 -182q-9 -50 -31 -69t-71 -19h-432l-35 -197h559q48 0 63.5 -18.5t6.5 -67.5l-33 -186q-8 -47 -30.5 -66.5t-71.5 -19.5h-875q-49 0 -65 19.5t-7 66.5l226 1282q9 48 31 67
t71 19h858z" />
    <glyph glyph-name="Edieresis" unicode="&#xcb;" horiz-adv-x="1212" 
d="M633 1872q86 0 113.5 -31.5t13.5 -114.5l-6 -26q-13 -82 -52 -114t-124 -32h-17q-84 0 -109.5 31.5t-11.5 114.5l6 26q14 84 50 115t120 31h17zM1073 1872q85 0 111.5 -31.5t13.5 -114.5l-6 -26q-14 -82 -51.5 -114t-122.5 -32h-14q-86 0 -112.5 32t-12.5 114l6 26
q14 83 51 114.5t123 31.5h14zM1200 1454q49 0 65.5 -19t8.5 -67l-33 -184q-9 -49 -31.5 -67.5t-70.5 -18.5h-543l-31 -185h432q49 0 64.5 -19t7.5 -69l-33 -182q-9 -50 -31 -69t-71 -19h-432l-35 -197h559q48 0 63.5 -18.5t6.5 -67.5l-33 -186q-8 -47 -30.5 -66.5
t-71.5 -19.5h-875q-49 0 -65 19.5t-7 66.5l226 1282q9 48 31 67t71 19h858z" />
    <glyph glyph-name="Edieresis" unicode="&#xeb;" horiz-adv-x="1212" 
d="M633 1872q86 0 113.5 -31.5t13.5 -114.5l-6 -26q-13 -82 -52 -114t-124 -32h-17q-84 0 -109.5 31.5t-11.5 114.5l6 26q14 84 50 115t120 31h17zM1073 1872q85 0 111.5 -31.5t13.5 -114.5l-6 -26q-14 -82 -51.5 -114t-122.5 -32h-14q-86 0 -112.5 32t-12.5 114l6 26
q14 83 51 114.5t123 31.5h14zM1200 1454q49 0 65.5 -19t8.5 -67l-33 -184q-9 -49 -31.5 -67.5t-70.5 -18.5h-543l-31 -185h432q49 0 64.5 -19t7.5 -69l-33 -182q-9 -50 -31 -69t-71 -19h-432l-35 -197h559q48 0 63.5 -18.5t6.5 -67.5l-33 -186q-8 -47 -30.5 -66.5
t-71.5 -19.5h-875q-49 0 -65 19.5t-7 66.5l226 1282q9 48 31 67t71 19h858z" />
    <glyph glyph-name="Igrave" unicode="&#xcc;" horiz-adv-x="622" 
d="M383 1872q58 56 137 6l258 -170q26 -16 24 -33t-30 -45l-70 -69q-19 -19 -41 -20.5t-55 11.5l-350 115q-23 8 -29 19.5t1.5 26t29.5 36.5zM242 1372q9 46 30 64t66 18h242q46 0 61 -18t6 -64l-227 -1290q-7 -46 -28.5 -64t-67.5 -18h-242q-46 0 -61 18t-7 64z" />
    <glyph glyph-name="Igrave" unicode="&#xec;" horiz-adv-x="622" 
d="M383 1872q58 56 137 6l258 -170q26 -16 24 -33t-30 -45l-70 -69q-19 -19 -41 -20.5t-55 11.5l-350 115q-23 8 -29 19.5t1.5 26t29.5 36.5zM242 1372q9 46 30 64t66 18h242q46 0 61 -18t6 -64l-227 -1290q-7 -46 -28.5 -64t-67.5 -18h-242q-46 0 -61 18t-7 64z" />
    <glyph glyph-name="Iacute" unicode="&#xcd;" horiz-adv-x="622" 
d="M555 1872q92 49 135 -6l82 -119q23 -29 17.5 -49t-44.5 -33l-391 -115q-37 -12 -59 -10.5t-35 21.5l-41 67q-20 29 -16 46t33 32zM242 1372q9 46 30 64t66 18h242q46 0 61 -18t6 -64l-227 -1290q-7 -46 -28.5 -64t-67.5 -18h-242q-46 0 -61 18t-7 64z" />
    <glyph glyph-name="Iacute" unicode="&#xed;" horiz-adv-x="622" 
d="M555 1872q92 49 135 -6l82 -119q23 -29 17.5 -49t-44.5 -33l-391 -115q-37 -12 -59 -10.5t-35 21.5l-41 67q-20 29 -16 46t33 32zM242 1372q9 46 30 64t66 18h242q46 0 61 -18t6 -64l-227 -1290q-7 -46 -28.5 -64t-67.5 -18h-242q-46 0 -61 18t-7 64z" />
    <glyph glyph-name="Icircumflex" unicode="&#xce;" horiz-adv-x="622" 
d="M578 1884q55 0 78.5 -10t56.5 -51l172 -209q14 -17 16.5 -32.5t-12.5 -26.5t-47 -11h-166q-64 0 -88.5 7.5t-42.5 35.5l-45 74l-78 -72q-30 -30 -55 -37.5t-84 -7.5h-164q-48 0 -50.5 22.5t29.5 47.5l246 209q50 41 77 51t91 10h66zM242 1372q9 46 30 64t66 18h242
q46 0 61 -18t6 -64l-227 -1290q-7 -46 -28.5 -64t-67.5 -18h-242q-46 0 -61 18t-7 64z" />
    <glyph glyph-name="Icircumflex" unicode="&#xee;" horiz-adv-x="622" 
d="M578 1884q55 0 78.5 -10t56.5 -51l172 -209q14 -17 16.5 -32.5t-12.5 -26.5t-47 -11h-166q-64 0 -88.5 7.5t-42.5 35.5l-45 74l-78 -72q-30 -30 -55 -37.5t-84 -7.5h-164q-48 0 -50.5 22.5t29.5 47.5l246 209q50 41 77 51t91 10h66zM242 1372q9 46 30 64t66 18h242
q46 0 61 -18t6 -64l-227 -1290q-7 -46 -28.5 -64t-67.5 -18h-242q-46 0 -61 18t-7 64z" />
    <glyph glyph-name="Idieresis" unicode="&#xcf;" horiz-adv-x="622" 
d="M319 1872q86 0 113.5 -31.5t13.5 -114.5l-6 -26q-13 -82 -52 -114t-124 -32h-16q-84 0 -109.5 31.5t-11.5 114.5l6 26q14 84 50 115t120 31h16zM760 1872q85 0 111.5 -31.5t13.5 -114.5l-6 -26q-14 -82 -51.5 -114t-122.5 -32h-15q-86 0 -112.5 32t-12.5 114l6 26
q14 83 51 114.5t123 31.5h15zM242 1372q9 46 30 64t66 18h242q46 0 61 -18t6 -64l-227 -1290q-7 -46 -28.5 -64t-67.5 -18h-242q-46 0 -61 18t-7 64z" />
    <glyph glyph-name="Idieresis" unicode="&#xef;" horiz-adv-x="622" 
d="M319 1872q86 0 113.5 -31.5t13.5 -114.5l-6 -26q-13 -82 -52 -114t-124 -32h-16q-84 0 -109.5 31.5t-11.5 114.5l6 26q14 84 50 115t120 31h16zM760 1872q85 0 111.5 -31.5t13.5 -114.5l-6 -26q-14 -82 -51.5 -114t-122.5 -32h-15q-86 0 -112.5 32t-12.5 114l6 26
q14 83 51 114.5t123 31.5h15zM242 1372q9 46 30 64t66 18h242q46 0 61 -18t6 -64l-227 -1290q-7 -46 -28.5 -64t-67.5 -18h-242q-46 0 -61 18t-7 64z" />
    <glyph glyph-name="Eth" unicode="&#xd0;" horiz-adv-x="1452" 
d="M897 1454q198 0 328 -76.5t179 -210.5t17 -311l-53 -309q-47 -265 -233.5 -406t-493.5 -141h-500q-49 0 -64 19t-7 67l92 520h-94q-30 0 -38.5 11.5t-2.5 44.5l26 153q6 30 20.5 41.5t41.5 11.5h94l88 500q8 48 29.5 67t70.5 19h500zM1020 874q21 112 -25.5 168
t-173.5 56h-168l-39 -230h168q29 0 37 -11t2 -42l-26 -153q-6 -33 -18 -44.5t-42 -11.5h-168l-43 -248h166q124 0 191 55.5t88 166.5z" />
    <glyph glyph-name="Eth" unicode="&#xf0;" horiz-adv-x="1452" 
d="M897 1454q198 0 328 -76.5t179 -210.5t17 -311l-53 -309q-47 -265 -233.5 -406t-493.5 -141h-500q-49 0 -64 19t-7 67l92 520h-94q-30 0 -38.5 11.5t-2.5 44.5l26 153q6 30 20.5 41.5t41.5 11.5h94l88 500q8 48 29.5 67t70.5 19h500zM1020 874q21 112 -25.5 168
t-173.5 56h-168l-39 -230h168q29 0 37 -11t2 -42l-26 -153q-6 -33 -18 -44.5t-42 -11.5h-168l-43 -248h166q124 0 191 55.5t88 166.5z" />
    <glyph glyph-name="Ntilde" unicode="&#xd1;" horiz-adv-x="1445" 
d="M1245 1862q27 0 35.5 -11t3.5 -36q-24 -138 -83 -195t-161 -57q-52 0 -94.5 13.5t-65.5 29.5t-49.5 29.5t-48.5 13.5q-28 0 -37 -45q-6 -41 -47 -41h-125q-47 0 -38 47q23 139 83 195.5t156 56.5q53 0 97 -13t68 -29t50 -29t47 -13q31 0 39 45q5 22 14.5 30.5t30.5 8.5
h125zM1395 1454q49 0 65 -19t8 -67l-227 -1282q-8 -47 -30.5 -66.5t-71.5 -19.5h-226q-31 0 -47.5 9.5t-27.5 31.5l-222 487q-46 102 -70.5 193t-41.5 227h-17q10 -130 6.5 -250.5t-30.5 -277.5l-60 -334q-9 -47 -32 -66.5t-70 -19.5h-215q-49 0 -65 19.5t-7 66.5l226 1282
q9 48 31 67t71 19h233q63 0 80 -41l236 -526q62 -136 113 -373h16q-16 121 -21 185t-1 147t22 184l59 338q7 47 30.5 66.5t70.5 19.5h215z" />
    <glyph glyph-name="Ntilde" unicode="&#xf1;" horiz-adv-x="1445" 
d="M1245 1862q27 0 35.5 -11t3.5 -36q-24 -138 -83 -195t-161 -57q-52 0 -94.5 13.5t-65.5 29.5t-49.5 29.5t-48.5 13.5q-28 0 -37 -45q-6 -41 -47 -41h-125q-47 0 -38 47q23 139 83 195.5t156 56.5q53 0 97 -13t68 -29t50 -29t47 -13q31 0 39 45q5 22 14.5 30.5t30.5 8.5
h125zM1395 1454q49 0 65 -19t8 -67l-227 -1282q-8 -47 -30.5 -66.5t-71.5 -19.5h-226q-31 0 -47.5 9.5t-27.5 31.5l-222 487q-46 102 -70.5 193t-41.5 227h-17q10 -130 6.5 -250.5t-30.5 -277.5l-60 -334q-9 -47 -32 -66.5t-70 -19.5h-215q-49 0 -65 19.5t-7 66.5l226 1282
q9 48 31 67t71 19h233q63 0 80 -41l236 -526q62 -136 113 -373h16q-16 121 -21 185t-1 147t22 184l59 338q7 47 30.5 66.5t70.5 19.5h215z" />
    <glyph glyph-name="Ograve" unicode="&#xd2;" horiz-adv-x="1404" 
d="M778 1892q58 56 137 6l259 -169q26 -16 23.5 -33t-30.5 -45l-69 -70q-19 -19 -41.5 -20t-55.5 12l-350 115q-23 8 -29 19.5t1.5 25.5t29.5 36zM129 932q46 265 232 409t489 144q297 0 437 -164t93 -434l-65 -371q-46 -265 -230.5 -406t-488.5 -141q-298 0 -437 161
t-93 431zM983 930q17 96 -32 146t-156 50q-108 0 -175.5 -50t-84.5 -146l-72 -406q-17 -96 32.5 -146t157.5 -50q107 0 174 50t84 146z" />
    <glyph glyph-name="Ograve" unicode="&#xf2;" horiz-adv-x="1404" 
d="M778 1892q58 56 137 6l259 -169q26 -16 23.5 -33t-30.5 -45l-69 -70q-19 -19 -41.5 -20t-55.5 12l-350 115q-23 8 -29 19.5t1.5 25.5t29.5 36zM129 932q46 265 232 409t489 144q297 0 437 -164t93 -434l-65 -371q-46 -265 -230.5 -406t-488.5 -141q-298 0 -437 161
t-93 431zM983 930q17 96 -32 146t-156 50q-108 0 -175.5 -50t-84.5 -146l-72 -406q-17 -96 32.5 -146t157.5 -50q107 0 174 50t84 146z" />
    <glyph glyph-name="Oacute" unicode="&#xd3;" horiz-adv-x="1404" 
d="M950 1892q92 49 135 -6l82 -119q23 -29 18 -48.5t-44 -32.5l-391 -115q-37 -12 -59.5 -11t-35.5 21l-41 68q-20 29 -16 45.5t33 31.5zM129 932q46 265 232 409t489 144q297 0 437 -164t93 -434l-65 -371q-46 -265 -230.5 -406t-488.5 -141q-298 0 -437 161t-93 431z
M983 930q17 96 -32 146t-156 50q-108 0 -175.5 -50t-84.5 -146l-72 -406q-17 -96 32.5 -146t157.5 -50q107 0 174 50t84 146z" />
    <glyph glyph-name="Oacute" unicode="&#xf3;" horiz-adv-x="1404" 
d="M950 1892q92 49 135 -6l82 -119q23 -29 18 -48.5t-44 -32.5l-391 -115q-37 -12 -59.5 -11t-35.5 21l-41 68q-20 29 -16 45.5t33 31.5zM129 932q46 265 232 409t489 144q297 0 437 -164t93 -434l-65 -371q-46 -265 -230.5 -406t-488.5 -141q-298 0 -437 161t-93 431z
M983 930q17 96 -32 146t-156 50q-108 0 -175.5 -50t-84.5 -146l-72 -406q-17 -96 32.5 -146t157.5 -50q107 0 174 50t84 146z" />
    <glyph glyph-name="Ocircumflex" unicode="&#xd4;" horiz-adv-x="1404" 
d="M973 1905q55 0 78.5 -10.5t56.5 -51.5l172 -209q14 -17 16.5 -32.5t-12.5 -26t-47 -10.5h-166q-64 0 -88.5 7.5t-42.5 35.5l-45 73l-78 -71q-30 -30 -55 -37.5t-84 -7.5h-164q-32 0 -43.5 10.5t-4 26t27.5 32.5l245 209q50 42 77 52t91 10h66zM129 932q46 265 232 409
t489 144q297 0 437 -164t93 -434l-65 -371q-46 -265 -230.5 -406t-488.5 -141q-298 0 -437 161t-93 431zM983 930q17 96 -32 146t-156 50q-108 0 -175.5 -50t-84.5 -146l-72 -406q-17 -96 32.5 -146t157.5 -50q107 0 174 50t84 146z" />
    <glyph glyph-name="Ocircumflex" unicode="&#xf4;" horiz-adv-x="1404" 
d="M973 1905q55 0 78.5 -10.5t56.5 -51.5l172 -209q14 -17 16.5 -32.5t-12.5 -26t-47 -10.5h-166q-64 0 -88.5 7.5t-42.5 35.5l-45 73l-78 -71q-30 -30 -55 -37.5t-84 -7.5h-164q-32 0 -43.5 10.5t-4 26t27.5 32.5l245 209q50 42 77 52t91 10h66zM129 932q46 265 232 409
t489 144q297 0 437 -164t93 -434l-65 -371q-46 -265 -230.5 -406t-488.5 -141q-298 0 -437 161t-93 431zM983 930q17 96 -32 146t-156 50q-108 0 -175.5 -50t-84.5 -146l-72 -406q-17 -96 32.5 -146t157.5 -50q107 0 174 50t84 146z" />
    <glyph glyph-name="Otilde" unicode="&#xd5;" horiz-adv-x="1404" 
d="M1227 1882q27 0 35.5 -11t3.5 -36q-24 -138 -83 -195t-161 -57q-52 0 -94.5 13.5t-65.5 29.5t-49.5 29.5t-48.5 13.5q-28 0 -37 -45q-6 -41 -47 -41h-125q-48 0 -39 47q23 139 83.5 195.5t156.5 56.5q53 0 97 -13t68 -29t50 -29t47 -13q31 0 39 45q5 22 14.5 30.5
t30.5 8.5h125zM129 932q46 265 232 409t489 144q297 0 437 -164t93 -434l-65 -371q-46 -265 -230.5 -406t-488.5 -141q-298 0 -437 161t-93 431zM983 930q17 96 -32 146t-156 50q-108 0 -175.5 -50t-84.5 -146l-72 -406q-17 -96 32.5 -146t157.5 -50q107 0 174 50t84 146z
" />
    <glyph glyph-name="Otilde" unicode="&#xf5;" horiz-adv-x="1404" 
d="M1227 1882q27 0 35.5 -11t3.5 -36q-24 -138 -83 -195t-161 -57q-52 0 -94.5 13.5t-65.5 29.5t-49.5 29.5t-48.5 13.5q-28 0 -37 -45q-6 -41 -47 -41h-125q-48 0 -39 47q23 139 83.5 195.5t156.5 56.5q53 0 97 -13t68 -29t50 -29t47 -13q31 0 39 45q5 22 14.5 30.5
t30.5 8.5h125zM129 932q46 265 232 409t489 144q297 0 437 -164t93 -434l-65 -371q-46 -265 -230.5 -406t-488.5 -141q-298 0 -437 161t-93 431zM983 930q17 96 -32 146t-156 50q-108 0 -175.5 -50t-84.5 -146l-72 -406q-17 -96 32.5 -146t157.5 -50q107 0 174 50t84 146z
" />
    <glyph glyph-name="Odieresis" unicode="&#xd6;" horiz-adv-x="1404" 
d="M715 1892q86 0 113 -31t14 -114l-6 -27q-13 -81 -52.5 -113t-124.5 -32h-16q-84 0 -109.5 31t-11.5 114l6 27q14 83 49.5 114t120.5 31h17zM1155 1892q85 0 111.5 -31t13.5 -114l-6 -27q-14 -82 -51.5 -113.5t-122.5 -31.5h-15q-85 0 -111.5 31t-12.5 114l6 27
q13 83 50.5 114t123.5 31h14zM129 932q46 265 232 409t489 144q297 0 437 -164t93 -434l-65 -371q-46 -265 -230.5 -406t-488.5 -141q-298 0 -437 161t-93 431zM983 930q17 96 -32 146t-156 50q-108 0 -175.5 -50t-84.5 -146l-72 -406q-17 -96 32.5 -146t157.5 -50
q107 0 174 50t84 146z" />
    <glyph glyph-name="Odieresis" unicode="&#xf6;" horiz-adv-x="1404" 
d="M715 1892q86 0 113 -31t14 -114l-6 -27q-13 -81 -52.5 -113t-124.5 -32h-16q-84 0 -109.5 31t-11.5 114l6 27q14 83 49.5 114t120.5 31h17zM1155 1892q85 0 111.5 -31t13.5 -114l-6 -27q-14 -82 -51.5 -113.5t-122.5 -31.5h-15q-85 0 -111.5 31t-12.5 114l6 27
q13 83 50.5 114t123.5 31h14zM129 932q46 265 232 409t489 144q297 0 437 -164t93 -434l-65 -371q-46 -265 -230.5 -406t-488.5 -141q-298 0 -437 161t-93 431zM983 930q17 96 -32 146t-156 50q-108 0 -175.5 -50t-84.5 -146l-72 -406q-17 -96 32.5 -146t157.5 -50
q107 0 174 50t84 146z" />
    <glyph glyph-name="multiply" unicode="&#xd7;" horiz-adv-x="1101" 
d="M973 449q27 -33 22.5 -58.5t-43.5 -58.5l-139 -119q-38 -32 -63.5 -32t-53.5 32l-178 217l-252 -215q-40 -32 -65 -32t-51 32l-99 119q-26 32 -21.5 57.5t42.5 59.5l250 215l-177 215q-26 34 -21 58.5t44 57.5l139 119q38 32 64.5 32t52.5 -32l176 -215l254 217
q40 32 65.5 32t51.5 -32l100 -119q26 -34 21 -59t-43 -57l-254 -217z" />
    <glyph glyph-name="Oslash" unicode="&#xd8;" horiz-adv-x="1406" 
d="M1507 1542q18 0 21 -11t-10 -26l-195 -233q96 -155 55 -385l-63 -371q-47 -265 -232 -406t-487 -141q-181 0 -305 62l-70 -84q-18 -23 -31 -28t-49 -5h-190q-19 0 -21 12t11 27l182 221q-101 152 -60 387l66 371q46 265 232 409t487 144q187 0 311 -68l76 92
q20 22 32.5 27.5t43.5 5.5h196zM915 1100q-45 26 -122 26q-108 0 -176 -50t-85 -146l-55 -316q-4 -17 -8 -51zM971 877l-439 -527q49 -22 119 -22q109 0 176 50t82 146l56 303z" />
    <glyph glyph-name="Oslash" unicode="&#xf8;" horiz-adv-x="1406" 
d="M1507 1542q18 0 21 -11t-10 -26l-195 -233q96 -155 55 -385l-63 -371q-47 -265 -232 -406t-487 -141q-181 0 -305 62l-70 -84q-18 -23 -31 -28t-49 -5h-190q-19 0 -21 12t11 27l182 221q-101 152 -60 387l66 371q46 265 232 409t487 144q187 0 311 -68l76 92
q20 22 32.5 27.5t43.5 5.5h196zM915 1100q-45 26 -122 26q-108 0 -176 -50t-85 -146l-55 -316q-4 -17 -8 -51zM971 877l-439 -527q49 -22 119 -22q109 0 176 50t82 146l56 303z" />
    <glyph glyph-name="Ugrave" unicode="&#xd9;" horiz-adv-x="1425" 
d="M782 1872q58 56 138 6l258 -170q26 -16 23.5 -33t-30.5 -45l-69 -69q-19 -19 -41 -20.5t-55 11.5l-351 115q-23 8 -29 19.5t1.5 26t29.5 36.5zM481 516q-15 -91 30.5 -139.5t150.5 -48.5t166.5 48t76.5 140l152 852q9 48 31 67t71 19h232q47 0 63 -19.5t8 -66.5
l-153 -866q-46 -260 -224.5 -396.5t-478.5 -136.5q-119 0 -215 29.5t-160 82.5t-104.5 127.5t-48.5 165t8 193.5l141 801q9 48 31.5 67t71.5 19h231q47 0 63.5 -19.5t8.5 -66.5z" />
    <glyph glyph-name="Ugrave" unicode="&#xf9;" horiz-adv-x="1425" 
d="M782 1872q58 56 138 6l258 -170q26 -16 23.5 -33t-30.5 -45l-69 -69q-19 -19 -41 -20.5t-55 11.5l-351 115q-23 8 -29 19.5t1.5 26t29.5 36.5zM481 516q-15 -91 30.5 -139.5t150.5 -48.5t166.5 48t76.5 140l152 852q9 48 31 67t71 19h232q47 0 63 -19.5t8 -66.5
l-153 -866q-46 -260 -224.5 -396.5t-478.5 -136.5q-119 0 -215 29.5t-160 82.5t-104.5 127.5t-48.5 165t8 193.5l141 801q9 48 31.5 67t71.5 19h231q47 0 63.5 -19.5t8.5 -66.5z" />
    <glyph glyph-name="Uacute" unicode="&#xda;" horiz-adv-x="1425" 
d="M956 1872q93 49 136 -6l82 -119q23 -29 17.5 -49t-44.5 -33l-391 -115q-37 -12 -59 -10.5t-35 21.5l-41 67q-14 20 -16.5 33.5t5 24t27.5 20.5zM481 516q-15 -91 30.5 -139.5t150.5 -48.5t166.5 48t76.5 140l152 852q9 48 31 67t71 19h232q47 0 63 -19.5t8 -66.5
l-153 -866q-46 -260 -224.5 -396.5t-478.5 -136.5q-119 0 -215 29.5t-160 82.5t-104.5 127.5t-48.5 165t8 193.5l141 801q9 48 31.5 67t71.5 19h231q47 0 63.5 -19.5t8.5 -66.5z" />
    <glyph glyph-name="Uacute" unicode="&#xfa;" horiz-adv-x="1425" 
d="M956 1872q93 49 136 -6l82 -119q23 -29 17.5 -49t-44.5 -33l-391 -115q-37 -12 -59 -10.5t-35 21.5l-41 67q-14 20 -16.5 33.5t5 24t27.5 20.5zM481 516q-15 -91 30.5 -139.5t150.5 -48.5t166.5 48t76.5 140l152 852q9 48 31 67t71 19h232q47 0 63 -19.5t8 -66.5
l-153 -866q-46 -260 -224.5 -396.5t-478.5 -136.5q-119 0 -215 29.5t-160 82.5t-104.5 127.5t-48.5 165t8 193.5l141 801q9 48 31.5 67t71.5 19h231q47 0 63.5 -19.5t8.5 -66.5z" />
    <glyph glyph-name="Ucircumflex" unicode="&#xdb;" horiz-adv-x="1425" 
d="M979 1884q55 0 78.5 -10t56.5 -51l172 -209q14 -17 16.5 -32.5t-12.5 -26.5t-47 -11h-166q-64 0 -88.5 7.5t-42.5 35.5l-45 74l-78 -72q-30 -30 -55 -37.5t-84 -7.5h-164q-32 0 -43.5 11t-4 26.5t27.5 32.5l245 209q50 41 77 51t91 10h66zM481 516q-15 -91 30.5 -139.5
t150.5 -48.5t166.5 48t76.5 140l152 852q9 48 31 67t71 19h232q47 0 63 -19.5t8 -66.5l-153 -866q-46 -260 -224.5 -396.5t-478.5 -136.5q-119 0 -215 29.5t-160 82.5t-104.5 127.5t-48.5 165t8 193.5l141 801q9 48 31.5 67t71.5 19h231q47 0 63.5 -19.5t8.5 -66.5z" />
    <glyph glyph-name="Ucircumflex" unicode="&#xfb;" horiz-adv-x="1425" 
d="M979 1884q55 0 78.5 -10t56.5 -51l172 -209q14 -17 16.5 -32.5t-12.5 -26.5t-47 -11h-166q-64 0 -88.5 7.5t-42.5 35.5l-45 74l-78 -72q-30 -30 -55 -37.5t-84 -7.5h-164q-32 0 -43.5 11t-4 26.5t27.5 32.5l245 209q50 41 77 51t91 10h66zM481 516q-15 -91 30.5 -139.5
t150.5 -48.5t166.5 48t76.5 140l152 852q9 48 31 67t71 19h232q47 0 63 -19.5t8 -66.5l-153 -866q-46 -260 -224.5 -396.5t-478.5 -136.5q-119 0 -215 29.5t-160 82.5t-104.5 127.5t-48.5 165t8 193.5l141 801q9 48 31.5 67t71.5 19h231q47 0 63.5 -19.5t8.5 -66.5z" />
    <glyph glyph-name="Udieresis" unicode="&#xdc;" horiz-adv-x="1425" 
d="M721 1872q86 0 113.5 -31.5t13.5 -114.5l-6 -26q-13 -82 -52 -114t-124 -32h-17q-84 0 -109.5 31.5t-11.5 114.5l7 26q14 84 50 115t120 31h16zM1161 1872q85 0 111.5 -31.5t13.5 -114.5l-6 -26q-14 -82 -51.5 -114t-122.5 -32h-14q-86 0 -112.5 32t-12.5 114l6 26
q14 83 51 114.5t123 31.5h14zM481 516q-15 -91 30.5 -139.5t150.5 -48.5t166.5 48t76.5 140l152 852q9 48 31 67t71 19h232q47 0 63 -19.5t8 -66.5l-153 -866q-46 -260 -224.5 -396.5t-478.5 -136.5q-119 0 -215 29.5t-160 82.5t-104.5 127.5t-48.5 165t8 193.5l141 801
q9 48 31.5 67t71.5 19h231q47 0 63.5 -19.5t8.5 -66.5z" />
    <glyph glyph-name="Udieresis" unicode="&#xfc;" horiz-adv-x="1425" 
d="M721 1872q86 0 113.5 -31.5t13.5 -114.5l-6 -26q-13 -82 -52 -114t-124 -32h-17q-84 0 -109.5 31.5t-11.5 114.5l7 26q14 84 50 115t120 31h16zM1161 1872q85 0 111.5 -31.5t13.5 -114.5l-6 -26q-14 -82 -51.5 -114t-122.5 -32h-14q-86 0 -112.5 32t-12.5 114l6 26
q14 83 51 114.5t123 31.5h14zM481 516q-15 -91 30.5 -139.5t150.5 -48.5t166.5 48t76.5 140l152 852q9 48 31 67t71 19h232q47 0 63 -19.5t8 -66.5l-153 -866q-46 -260 -224.5 -396.5t-478.5 -136.5q-119 0 -215 29.5t-160 82.5t-104.5 127.5t-48.5 165t8 193.5l141 801
q9 48 31.5 67t71.5 19h231q47 0 63.5 -19.5t8.5 -66.5z" />
    <glyph glyph-name="Yacute" unicode="&#xdd;" horiz-adv-x="1386" 
d="M944 1872q92 49 135 -6l82 -119q23 -29 18 -49t-44 -33l-392 -115q-37 -12 -59 -10.5t-35 21.5l-41 67q-20 29 -16 46t33 32zM1473 1454q45 0 51.5 -25.5t-23.5 -60.5l-614 -805l-84 -477q-8 -47 -31 -66.5t-72 -19.5h-229q-49 0 -65 19.5t-7 66.5l84 477l-329 805
q-17 35 -2.5 60.5t59.5 25.5h238q81 0 109.5 -12t47.5 -64l146 -420l301 420q37 52 68.5 64t111.5 12h240z" />
    <glyph glyph-name="Yacute" unicode="&#xfd;" horiz-adv-x="1386" 
d="M944 1872q92 49 135 -6l82 -119q23 -29 18 -49t-44 -33l-392 -115q-37 -12 -59 -10.5t-35 21.5l-41 67q-20 29 -16 46t33 32zM1473 1454q45 0 51.5 -25.5t-23.5 -60.5l-614 -805l-84 -477q-8 -47 -31 -66.5t-72 -19.5h-229q-49 0 -65 19.5t-7 66.5l84 477l-329 805
q-17 35 -2.5 60.5t59.5 25.5h238q81 0 109.5 -12t47.5 -64l146 -420l301 420q37 52 68.5 64t111.5 12h240z" />
    <glyph glyph-name="Thorn" unicode="&#xde;" horiz-adv-x="1312" 
d="M848 1270q246 0 367.5 -154t76.5 -403q-42 -243 -211.5 -375.5t-421.5 -132.5h-221l-20 -119q-9 -48 -31.5 -67t-71.5 -19h-229q-49 0 -65 19.5t-7 66.5l226 1282q9 48 31 67t71 19h229q49 0 65 -19.5t7 -66.5l-16 -98h221zM672 563q80 0 136.5 49t70.5 125
q12 75 -27 124.5t-119 49.5h-170l-61 -348h170z" />
    <glyph glyph-name="Thorn" unicode="&#xfe;" horiz-adv-x="1312" 
d="M848 1270q246 0 367.5 -154t76.5 -403q-42 -243 -211.5 -375.5t-421.5 -132.5h-221l-20 -119q-9 -48 -31.5 -67t-71.5 -19h-229q-49 0 -65 19.5t-7 66.5l226 1282q9 48 31 67t71 19h229q49 0 65 -19.5t7 -66.5l-16 -98h221zM672 563q80 0 136.5 49t70.5 125
q12 75 -27 124.5t-119 49.5h-170l-61 -348h170z" />
    <glyph glyph-name="uni00DF" unicode="&#xdf;" horiz-adv-x="1359" 
d="M1284 1454q49 0 64.5 -21t7.5 -65l-23 -133q-11 -48 -61 -113l-205 -250q273 -78 209 -442q-76 -430 -582 -430h-125q-38 0 -57.5 23t-13.5 63l28 158q6 35 36 60.5t67 25.5h84q60 0 96 32t49 105q21 119 -86 119h-61q-80 0 -66 86l23 121q10 49 49 98l182 235h-295
l-184 -1040q-6 -40 -33.5 -63t-67.5 -23h-233q-47 0 -63 19.5t-7 66.5l226 1278q9 52 30.5 71t71.5 19h940z" />
    <glyph glyph-name="uni00DF" unicode="&#x1e9e;" horiz-adv-x="1359" 
d="M1284 1454q49 0 64.5 -21t7.5 -65l-23 -133q-11 -48 -61 -113l-205 -250q273 -78 209 -442q-76 -430 -582 -430h-125q-38 0 -57.5 23t-13.5 63l28 158q6 35 36 60.5t67 25.5h84q60 0 96 32t49 105q21 119 -86 119h-61q-80 0 -66 86l23 121q10 49 49 98l182 235h-295
l-184 -1040q-6 -40 -33.5 -63t-67.5 -23h-233q-47 0 -63 19.5t-7 66.5l226 1278q9 52 30.5 71t71.5 19h940z" />
    <glyph glyph-name="divide" unicode="&#xf7;" horiz-adv-x="1142" 
d="M733 1239q88 0 115 -33.5t12 -122.5l-4 -20q-14 -88 -53.5 -122t-128.5 -34h-103q-87 0 -114 33.5t-13 122.5l5 20q15 89 54 122.5t128 33.5h102zM1038 842q48 0 63.5 -19.5t6.5 -68.5l-31 -174q-7 -47 -30 -66.5t-70 -19.5h-852q-49 0 -65 19.5t-7 66.5l31 174
q7 49 29.5 68.5t72.5 19.5h852zM590 428q88 0 115 -33.5t12 -122.5l-2 -22q-17 -88 -56.5 -122t-128.5 -34h-100q-89 0 -116.5 34t-10.5 122l2 22q15 88 54.5 122t127.5 34h103z" />
    <glyph glyph-name="Ydieresis" unicode="&#xff;" horiz-adv-x="1386" 
d="M709 1872q86 0 113.5 -31.5t13.5 -114.5l-7 -26q-13 -82 -52 -114t-124 -32h-16q-84 0 -109.5 31.5t-11.5 114.5l6 26q14 84 50 115t120 31h17zM1149 1872q85 0 111.5 -31.5t13.5 -114.5l-6 -26q-14 -82 -51.5 -114t-122.5 -32h-15q-86 0 -112.5 32t-12.5 114l7 26
q14 83 51 114.5t123 31.5h14zM1473 1454q45 0 51.5 -25.5t-23.5 -60.5l-614 -805l-84 -477q-8 -47 -31 -66.5t-72 -19.5h-229q-49 0 -65 19.5t-7 66.5l84 477l-329 805q-17 35 -2.5 60.5t59.5 25.5h238q81 0 109.5 -12t47.5 -64l146 -420l301 420q37 52 68.5 64t111.5 12
h240z" />
    <glyph glyph-name="Ydieresis" unicode="&#x178;" horiz-adv-x="1386" 
d="M709 1872q86 0 113.5 -31.5t13.5 -114.5l-7 -26q-13 -82 -52 -114t-124 -32h-16q-84 0 -109.5 31.5t-11.5 114.5l6 26q14 84 50 115t120 31h17zM1149 1872q85 0 111.5 -31.5t13.5 -114.5l-6 -26q-14 -82 -51.5 -114t-122.5 -32h-15q-86 0 -112.5 32t-12.5 114l7 26
q14 83 51 114.5t123 31.5h14zM1473 1454q45 0 51.5 -25.5t-23.5 -60.5l-614 -805l-84 -477q-8 -47 -31 -66.5t-72 -19.5h-229q-49 0 -65 19.5t-7 66.5l84 477l-329 805q-17 35 -2.5 60.5t59.5 25.5h238q81 0 109.5 -12t47.5 -64l146 -420l301 420q37 52 68.5 64t111.5 12
h240z" />
    <glyph glyph-name="Amacron" unicode="&#x100;" horiz-adv-x="1415" 
d="M1169 1827q45 0 58 -15t6 -59l-16 -86q-7 -44 -25.5 -59t-63.5 -15h-497q-43 0 -56 15t-4 59l15 86q7 43 26 58.5t60 15.5h497zM-41 0q-46 0 -54.5 21.5t15.5 62.5l701 1298q23 43 47.5 57.5t70.5 14.5h232q45 0 66 -14.5t28 -53.5l246 -1302q15 -84 -76 -84h-211
q-77 0 -105.5 18.5t-33.5 67.5l-21 147h-444l-74 -147q-22 -49 -55.5 -67.5t-106.5 -18.5h-225zM827 555l-32 240q-7 72 -5.5 136t6.5 108l5 44h-19q-26 -147 -92 -286l-119 -242h256z" />
    <glyph glyph-name="Amacron" unicode="&#x101;" horiz-adv-x="1415" 
d="M1169 1827q45 0 58 -15t6 -59l-16 -86q-7 -44 -25.5 -59t-63.5 -15h-497q-43 0 -56 15t-4 59l15 86q7 43 26 58.5t60 15.5h497zM-41 0q-46 0 -54.5 21.5t15.5 62.5l701 1298q23 43 47.5 57.5t70.5 14.5h232q45 0 66 -14.5t28 -53.5l246 -1302q15 -84 -76 -84h-211
q-77 0 -105.5 18.5t-33.5 67.5l-21 147h-444l-74 -147q-22 -49 -55.5 -67.5t-106.5 -18.5h-225zM827 555l-32 240q-7 72 -5.5 136t6.5 108l5 44h-19q-26 -147 -92 -286l-119 -242h256z" />
    <glyph glyph-name="Abreve" unicode="&#x102;" horiz-adv-x="1415" 
d="M1272 1761q-59 -105 -162.5 -161t-239.5 -56q-133 0 -216 56.5t-105 160.5q-6 29 4.5 44.5t42.5 27.5l145 51q35 12 48 7.5t24 -31.5q27 -68 102 -68q71 0 121 68q20 26 34.5 30.5t45.5 -4.5l133 -53q28 -10 33 -26.5t-10 -45.5zM-41 0q-46 0 -54.5 21.5t15.5 62.5
l701 1298q23 43 47.5 57.5t70.5 14.5h232q45 0 66 -14.5t28 -53.5l246 -1302q15 -84 -76 -84h-211q-77 0 -105.5 18.5t-33.5 67.5l-21 147h-444l-74 -147q-22 -49 -55.5 -67.5t-106.5 -18.5h-225zM827 555l-32 240q-7 72 -5.5 136t6.5 108l5 44h-19q-26 -147 -92 -286
l-119 -242h256z" />
    <glyph glyph-name="Abreve" unicode="&#x103;" horiz-adv-x="1415" 
d="M1272 1761q-59 -105 -162.5 -161t-239.5 -56q-133 0 -216 56.5t-105 160.5q-6 29 4.5 44.5t42.5 27.5l145 51q35 12 48 7.5t24 -31.5q27 -68 102 -68q71 0 121 68q20 26 34.5 30.5t45.5 -4.5l133 -53q28 -10 33 -26.5t-10 -45.5zM-41 0q-46 0 -54.5 21.5t15.5 62.5
l701 1298q23 43 47.5 57.5t70.5 14.5h232q45 0 66 -14.5t28 -53.5l246 -1302q15 -84 -76 -84h-211q-77 0 -105.5 18.5t-33.5 67.5l-21 147h-444l-74 -147q-22 -49 -55.5 -67.5t-106.5 -18.5h-225zM827 555l-32 240q-7 72 -5.5 136t6.5 108l5 44h-19q-26 -147 -92 -286
l-119 -242h256z" />
    <glyph glyph-name="Aogonek" unicode="&#x104;" horiz-adv-x="1415" 
d="M971 1454q45 0 66 -14.5t28 -53.5l246 -1302q9 -48 -21 -72q-88 -77 -129 -142.5t-41 -105.5q0 -38 31 -38q21 0 39 10q38 24 47 -12l27 -103q8 -40 -23 -59q-97 -66 -242 -66q-81 0 -136 34.5t-58 115.5q-3 172 219 354q-80 1 -107 19t-32 67l-21 147h-444l-74 -147
q-22 -49 -55.5 -67.5t-106.5 -18.5h-225q-46 0 -54.5 21.5t15.5 62.5l701 1298q23 43 47.5 57.5t70.5 14.5h232zM795 795q-7 72 -5.5 136t6.5 108l5 44h-19q-26 -147 -92 -286l-119 -242h256z" />
    <glyph glyph-name="Aogonek" unicode="&#x105;" horiz-adv-x="1415" 
d="M971 1454q45 0 66 -14.5t28 -53.5l246 -1302q9 -48 -21 -72q-88 -77 -129 -142.5t-41 -105.5q0 -38 31 -38q21 0 39 10q38 24 47 -12l27 -103q8 -40 -23 -59q-97 -66 -242 -66q-81 0 -136 34.5t-58 115.5q-3 172 219 354q-80 1 -107 19t-32 67l-21 147h-444l-74 -147
q-22 -49 -55.5 -67.5t-106.5 -18.5h-225q-46 0 -54.5 21.5t15.5 62.5l701 1298q23 43 47.5 57.5t70.5 14.5h232zM795 795q-7 72 -5.5 136t6.5 108l5 44h-19q-26 -147 -92 -286l-119 -242h256z" />
    <glyph glyph-name="Cacute" unicode="&#x106;" horiz-adv-x="1333" 
d="M950 1872q92 49 135 -6l82 -119q23 -29 18 -49t-44 -33l-391 -115q-37 -12 -59.5 -10.5t-35.5 21.5l-41 67q-20 29 -16 46t33 32zM131 940q46 264 233 404.5t490 140.5q441 0 510 -365q9 -45 -6 -69t-64 -41l-211 -72q-49 -14 -70.5 -3t-31.5 58q-14 70 -57.5 101.5
t-128.5 31.5q-119 0 -181.5 -51.5t-81.5 -159.5l-67 -376q-19 -108 25 -159.5t163 -51.5q161 0 238 133q27 48 51.5 59.5t69.5 -4.5l209 -82q44 -15 52.5 -40.5t-16.5 -69.5q-194 -355 -661 -355q-297 0 -437 161.5t-93 430.5z" />
    <glyph glyph-name="Cacute" unicode="&#x107;" horiz-adv-x="1333" 
d="M950 1872q92 49 135 -6l82 -119q23 -29 18 -49t-44 -33l-391 -115q-37 -12 -59.5 -10.5t-35.5 21.5l-41 67q-20 29 -16 46t33 32zM131 940q46 264 233 404.5t490 140.5q441 0 510 -365q9 -45 -6 -69t-64 -41l-211 -72q-49 -14 -70.5 -3t-31.5 58q-14 70 -57.5 101.5
t-128.5 31.5q-119 0 -181.5 -51.5t-81.5 -159.5l-67 -376q-19 -108 25 -159.5t163 -51.5q161 0 238 133q27 48 51.5 59.5t69.5 -4.5l209 -82q44 -15 52.5 -40.5t-16.5 -69.5q-194 -355 -661 -355q-297 0 -437 161.5t-93 430.5z" />
    <glyph glyph-name="Ccircumflex" unicode="&#x108;" horiz-adv-x="1333" 
d="M973 1884q55 0 78.5 -10t56.5 -51l172 -209q14 -17 16.5 -32.5t-12.5 -26.5t-47 -11h-166q-64 0 -88.5 7.5t-42.5 35.5l-45 74l-78 -72q-30 -30 -55 -37.5t-84 -7.5h-164q-32 0 -43.5 11t-4 26.5t27.5 32.5l245 209q50 41 77 51t91 10h66zM131 940q46 264 233 404.5
t490 140.5q441 0 510 -365q9 -45 -6 -69t-64 -41l-211 -72q-49 -14 -70.5 -3t-31.5 58q-14 70 -57.5 101.5t-128.5 31.5q-119 0 -181.5 -51.5t-81.5 -159.5l-67 -376q-19 -108 25 -159.5t163 -51.5q161 0 238 133q27 48 51.5 59.5t69.5 -4.5l209 -82q44 -15 52.5 -40.5
t-16.5 -69.5q-194 -355 -661 -355q-297 0 -437 161.5t-93 430.5z" />
    <glyph glyph-name="Ccircumflex" unicode="&#x109;" horiz-adv-x="1333" 
d="M973 1884q55 0 78.5 -10t56.5 -51l172 -209q14 -17 16.5 -32.5t-12.5 -26.5t-47 -11h-166q-64 0 -88.5 7.5t-42.5 35.5l-45 74l-78 -72q-30 -30 -55 -37.5t-84 -7.5h-164q-32 0 -43.5 11t-4 26.5t27.5 32.5l245 209q50 41 77 51t91 10h66zM131 940q46 264 233 404.5
t490 140.5q441 0 510 -365q9 -45 -6 -69t-64 -41l-211 -72q-49 -14 -70.5 -3t-31.5 58q-14 70 -57.5 101.5t-128.5 31.5q-119 0 -181.5 -51.5t-81.5 -159.5l-67 -376q-19 -108 25 -159.5t163 -51.5q161 0 238 133q27 48 51.5 59.5t69.5 -4.5l209 -82q44 -15 52.5 -40.5
t-16.5 -69.5q-194 -355 -661 -355q-297 0 -437 161.5t-93 430.5z" />
    <glyph glyph-name="Cdotaccent" unicode="&#x10a;" horiz-adv-x="1333" 
d="M936 1874q89 0 115 -32t12 -122l-4 -16q-15 -89 -53 -121.5t-127 -32.5h-13q-89 0 -115.5 32.5t-11.5 121.5l4 16q15 89 53.5 121.5t127.5 32.5h12zM131 940q46 264 233 404.5t490 140.5q441 0 510 -365q9 -45 -6 -69t-64 -41l-211 -72q-49 -14 -70.5 -3t-31.5 58
q-14 70 -57.5 101.5t-128.5 31.5q-119 0 -181.5 -51.5t-81.5 -159.5l-67 -376q-19 -108 25 -159.5t163 -51.5q161 0 238 133q27 48 51.5 59.5t69.5 -4.5l209 -82q44 -15 52.5 -40.5t-16.5 -69.5q-194 -355 -661 -355q-297 0 -437 161.5t-93 430.5z" />
    <glyph glyph-name="Cdotaccent" unicode="&#x10b;" horiz-adv-x="1333" 
d="M936 1874q89 0 115 -32t12 -122l-4 -16q-15 -89 -53 -121.5t-127 -32.5h-13q-89 0 -115.5 32.5t-11.5 121.5l4 16q15 89 53.5 121.5t127.5 32.5h12zM131 940q46 264 233 404.5t490 140.5q441 0 510 -365q9 -45 -6 -69t-64 -41l-211 -72q-49 -14 -70.5 -3t-31.5 58
q-14 70 -57.5 101.5t-128.5 31.5q-119 0 -181.5 -51.5t-81.5 -159.5l-67 -376q-19 -108 25 -159.5t163 -51.5q161 0 238 133q27 48 51.5 59.5t69.5 -4.5l209 -82q44 -15 52.5 -40.5t-16.5 -69.5q-194 -355 -661 -355q-297 0 -437 161.5t-93 430.5z" />
    <glyph glyph-name="Ccaron" unicode="&#x10c;" horiz-adv-x="1333" 
d="M1288 1884q32 0 42 -11.5t2 -27.5t-29 -33l-242 -208q-49 -41 -75.5 -50.5t-88.5 -9.5h-55q-60 0 -83.5 10t-56.5 50l-170 208q-13 18 -16.5 33.5t9.5 27t44 11.5h172q62 0 84.5 -8t42.5 -37l52 -70l71 70q30 29 57 37t87 8h153zM131 940q46 264 233 404.5t490 140.5
q441 0 510 -365q9 -45 -6 -69t-64 -41l-211 -72q-49 -14 -70.5 -3t-31.5 58q-14 70 -57.5 101.5t-128.5 31.5q-119 0 -181.5 -51.5t-81.5 -159.5l-67 -376q-19 -108 25 -159.5t163 -51.5q161 0 238 133q27 48 51.5 59.5t69.5 -4.5l209 -82q44 -15 52.5 -40.5t-16.5 -69.5
q-194 -355 -661 -355q-297 0 -437 161.5t-93 430.5z" />
    <glyph glyph-name="Ccaron" unicode="&#x10d;" horiz-adv-x="1333" 
d="M1288 1884q32 0 42 -11.5t2 -27.5t-29 -33l-242 -208q-49 -41 -75.5 -50.5t-88.5 -9.5h-55q-60 0 -83.5 10t-56.5 50l-170 208q-13 18 -16.5 33.5t9.5 27t44 11.5h172q62 0 84.5 -8t42.5 -37l52 -70l71 70q30 29 57 37t87 8h153zM131 940q46 264 233 404.5t490 140.5
q441 0 510 -365q9 -45 -6 -69t-64 -41l-211 -72q-49 -14 -70.5 -3t-31.5 58q-14 70 -57.5 101.5t-128.5 31.5q-119 0 -181.5 -51.5t-81.5 -159.5l-67 -376q-19 -108 25 -159.5t163 -51.5q161 0 238 133q27 48 51.5 59.5t69.5 -4.5l209 -82q44 -15 52.5 -40.5t-16.5 -69.5
q-194 -355 -661 -355q-297 0 -437 161.5t-93 430.5z" />
    <glyph glyph-name="Dcaron" unicode="&#x10e;" horiz-adv-x="1394" 
d="M1233 1884q32 0 42 -11.5t1.5 -27.5t-29.5 -33l-241 -208q-49 -41 -75.5 -50.5t-88.5 -9.5h-56q-60 0 -83 9.5t-56 50.5l-170 208q-13 18 -16.5 33.5t9.5 27t44 11.5h172q62 0 84.5 -8t42.5 -37l51 -70l72 70q30 29 56.5 37t86.5 8h154zM840 1454q199 0 329 -77.5
t178.5 -213t16.5 -313.5l-55 -307q-46 -265 -230 -404t-489 -139h-504q-49 0 -65 19.5t-7 66.5l226 1282q9 48 31 67t71 19h498zM965 874q39 224 -201 224h-168l-129 -740h168q122 0 189 55.5t89 166.5z" />
    <glyph glyph-name="Dcaron" unicode="&#x10f;" horiz-adv-x="1394" 
d="M1233 1884q32 0 42 -11.5t1.5 -27.5t-29.5 -33l-241 -208q-49 -41 -75.5 -50.5t-88.5 -9.5h-56q-60 0 -83 9.5t-56 50.5l-170 208q-13 18 -16.5 33.5t9.5 27t44 11.5h172q62 0 84.5 -8t42.5 -37l51 -70l72 70q30 29 56.5 37t86.5 8h154zM840 1454q199 0 329 -77.5
t178.5 -213t16.5 -313.5l-55 -307q-46 -265 -230 -404t-489 -139h-504q-49 0 -65 19.5t-7 66.5l226 1282q9 48 31 67t71 19h498zM965 874q39 224 -201 224h-168l-129 -740h168q122 0 189 55.5t89 166.5z" />
    <glyph glyph-name="Dcroat" unicode="&#x110;" horiz-adv-x="1452" 
d="M897 1454q198 0 328 -76.5t179 -210.5t17 -311l-53 -309q-47 -265 -233.5 -406t-493.5 -141h-500q-49 0 -64 19t-7 67l92 520h-94q-30 0 -38.5 11.5t-2.5 44.5l26 153q6 30 20.5 41.5t41.5 11.5h94l88 500q8 48 29.5 67t70.5 19h500zM1020 874q21 112 -25.5 168
t-173.5 56h-168l-39 -230h168q29 0 37 -11t2 -42l-26 -153q-6 -33 -18 -44.5t-42 -11.5h-168l-43 -248h166q124 0 191 55.5t88 166.5z" />
    <glyph glyph-name="Dcroat" unicode="&#x111;" horiz-adv-x="1452" 
d="M897 1454q198 0 328 -76.5t179 -210.5t17 -311l-53 -309q-47 -265 -233.5 -406t-493.5 -141h-500q-49 0 -64 19t-7 67l92 520h-94q-30 0 -38.5 11.5t-2.5 44.5l26 153q6 30 20.5 41.5t41.5 11.5h94l88 500q8 48 29.5 67t70.5 19h500zM1020 874q21 112 -25.5 168
t-173.5 56h-168l-39 -230h168q29 0 37 -11t2 -42l-26 -153q-6 -33 -18 -44.5t-42 -11.5h-168l-43 -248h166q124 0 191 55.5t88 166.5z" />
    <glyph glyph-name="Emacron" unicode="&#x112;" horiz-adv-x="1212" 
d="M1085 1827q45 0 58 -15t6 -59l-16 -86q-7 -44 -25.5 -59t-63.5 -15h-497q-43 0 -56 15t-4 59l15 86q7 43 26 58.5t60 15.5h497zM1200 1454q49 0 65.5 -19t8.5 -67l-33 -184q-9 -49 -31.5 -67.5t-70.5 -18.5h-543l-31 -185h432q49 0 64.5 -19t7.5 -69l-33 -182
q-9 -50 -31 -69t-71 -19h-432l-35 -197h559q48 0 63.5 -18.5t6.5 -67.5l-33 -186q-8 -47 -30.5 -66.5t-71.5 -19.5h-875q-49 0 -65 19.5t-7 66.5l226 1282q9 48 31 67t71 19h858z" />
    <glyph glyph-name="Emacron" unicode="&#x113;" horiz-adv-x="1212" 
d="M1085 1827q45 0 58 -15t6 -59l-16 -86q-7 -44 -25.5 -59t-63.5 -15h-497q-43 0 -56 15t-4 59l15 86q7 43 26 58.5t60 15.5h497zM1200 1454q49 0 65.5 -19t8.5 -67l-33 -184q-9 -49 -31.5 -67.5t-70.5 -18.5h-543l-31 -185h432q49 0 64.5 -19t7.5 -69l-33 -182
q-9 -50 -31 -69t-71 -19h-432l-35 -197h559q48 0 63.5 -18.5t6.5 -67.5l-33 -186q-8 -47 -30.5 -66.5t-71.5 -19.5h-875q-49 0 -65 19.5t-7 66.5l226 1282q9 48 31 67t71 19h858z" />
    <glyph glyph-name="Ebreve" unicode="&#x114;" horiz-adv-x="1212" 
d="M1190 1761q-59 -105 -162.5 -161t-239.5 -56q-133 0 -216 56.5t-105 160.5q-6 29 4.5 44.5t42.5 27.5l145 51q35 12 48 7.5t24 -31.5q27 -68 103 -68q70 0 120 68q20 26 34.5 30.5t45.5 -4.5l133 -53q28 -10 33 -26.5t-10 -45.5zM1200 1454q49 0 65.5 -19t8.5 -67
l-33 -184q-9 -49 -31.5 -67.5t-70.5 -18.5h-543l-31 -185h432q49 0 64.5 -19t7.5 -69l-33 -182q-9 -50 -31 -69t-71 -19h-432l-35 -197h559q48 0 63.5 -18.5t6.5 -67.5l-33 -186q-8 -47 -30.5 -66.5t-71.5 -19.5h-875q-49 0 -65 19.5t-7 66.5l226 1282q9 48 31 67t71 19h858
z" />
    <glyph glyph-name="Ebreve" unicode="&#x115;" horiz-adv-x="1212" 
d="M1190 1761q-59 -105 -162.5 -161t-239.5 -56q-133 0 -216 56.5t-105 160.5q-6 29 4.5 44.5t42.5 27.5l145 51q35 12 48 7.5t24 -31.5q27 -68 103 -68q70 0 120 68q20 26 34.5 30.5t45.5 -4.5l133 -53q28 -10 33 -26.5t-10 -45.5zM1200 1454q49 0 65.5 -19t8.5 -67
l-33 -184q-9 -49 -31.5 -67.5t-70.5 -18.5h-543l-31 -185h432q49 0 64.5 -19t7.5 -69l-33 -182q-9 -50 -31 -69t-71 -19h-432l-35 -197h559q48 0 63.5 -18.5t6.5 -67.5l-33 -186q-8 -47 -30.5 -66.5t-71.5 -19.5h-875q-49 0 -65 19.5t-7 66.5l226 1282q9 48 31 67t71 19h858
z" />
    <glyph glyph-name="Edotaccent" unicode="&#x116;" horiz-adv-x="1212" 
d="M852 1874q89 0 115 -32t12 -122l-4 -16q-15 -89 -53 -121.5t-127 -32.5h-13q-89 0 -115.5 32.5t-11.5 121.5l4 16q15 89 53.5 121.5t127.5 32.5h12zM1200 1454q49 0 65.5 -19t8.5 -67l-33 -184q-9 -49 -31.5 -67.5t-70.5 -18.5h-543l-31 -185h432q49 0 64.5 -19t7.5 -69
l-33 -182q-9 -50 -31 -69t-71 -19h-432l-35 -197h559q48 0 63.5 -18.5t6.5 -67.5l-33 -186q-8 -47 -30.5 -66.5t-71.5 -19.5h-875q-49 0 -65 19.5t-7 66.5l226 1282q9 48 31 67t71 19h858z" />
    <glyph glyph-name="Edotaccent" unicode="&#x117;" horiz-adv-x="1212" 
d="M852 1874q89 0 115 -32t12 -122l-4 -16q-15 -89 -53 -121.5t-127 -32.5h-13q-89 0 -115.5 32.5t-11.5 121.5l4 16q15 89 53.5 121.5t127.5 32.5h12zM1200 1454q49 0 65.5 -19t8.5 -67l-33 -184q-9 -49 -31.5 -67.5t-70.5 -18.5h-543l-31 -185h432q49 0 64.5 -19t7.5 -69
l-33 -182q-9 -50 -31 -69t-71 -19h-432l-35 -197h559q48 0 63.5 -18.5t6.5 -67.5l-33 -186q-8 -47 -30.5 -66.5t-71.5 -19.5h-875q-49 0 -65 19.5t-7 66.5l226 1282q9 48 31 67t71 19h858z" />
    <glyph glyph-name="Eogonek" unicode="&#x118;" horiz-adv-x="1212" 
d="M1200 1454q49 0 65.5 -19t8.5 -67l-33 -184q-9 -49 -31.5 -67.5t-70.5 -18.5h-543l-31 -185h432q49 0 64.5 -19t7.5 -69l-33 -182q-9 -50 -31 -69t-71 -19h-432l-35 -197h559q48 0 63.5 -18.5t6.5 -67.5l-33 -186q-4 -29 -13 -44t-30 -30q-165 -140 -170 -248
q0 -38 31 -38q21 0 39 10q38 24 47 -12l26 -103q8 -41 -22 -59q-97 -66 -242 -66q-81 0 -136 34.5t-58 115.5q-3 173 225 354h-674q-49 0 -65 19.5t-7 66.5l226 1282q9 48 31 67t71 19h858z" />
    <glyph glyph-name="Eogonek" unicode="&#x119;" horiz-adv-x="1212" 
d="M1200 1454q49 0 65.5 -19t8.5 -67l-33 -184q-9 -49 -31.5 -67.5t-70.5 -18.5h-543l-31 -185h432q49 0 64.5 -19t7.5 -69l-33 -182q-9 -50 -31 -69t-71 -19h-432l-35 -197h559q48 0 63.5 -18.5t6.5 -67.5l-33 -186q-4 -29 -13 -44t-30 -30q-165 -140 -170 -248
q0 -38 31 -38q21 0 39 10q38 24 47 -12l26 -103q8 -41 -22 -59q-97 -66 -242 -66q-81 0 -136 34.5t-58 115.5q-3 173 225 354h-674q-49 0 -65 19.5t-7 66.5l226 1282q9 48 31 67t71 19h858z" />
    <glyph glyph-name="Ecaron" unicode="&#x11a;" horiz-adv-x="1212" 
d="M1206 1884q32 0 42 -11.5t2 -27.5t-29 -33l-242 -208q-49 -41 -75.5 -50.5t-88.5 -9.5h-55q-60 0 -83 9.5t-56 50.5l-170 208q-14 18 -17 33.5t9.5 27t43.5 11.5h172q62 0 84.5 -8t42.5 -37l52 -70l71 70q30 29 57 37t87 8h153zM1200 1454q49 0 65.5 -19t8.5 -67
l-33 -184q-9 -49 -31.5 -67.5t-70.5 -18.5h-543l-31 -185h432q49 0 64.5 -19t7.5 -69l-33 -182q-9 -50 -31 -69t-71 -19h-432l-35 -197h559q48 0 63.5 -18.5t6.5 -67.5l-33 -186q-8 -47 -30.5 -66.5t-71.5 -19.5h-875q-49 0 -65 19.5t-7 66.5l226 1282q9 48 31 67t71 19h858
z" />
    <glyph glyph-name="Ecaron" unicode="&#x11b;" horiz-adv-x="1212" 
d="M1206 1884q32 0 42 -11.5t2 -27.5t-29 -33l-242 -208q-49 -41 -75.5 -50.5t-88.5 -9.5h-55q-60 0 -83 9.5t-56 50.5l-170 208q-14 18 -17 33.5t9.5 27t43.5 11.5h172q62 0 84.5 -8t42.5 -37l52 -70l71 70q30 29 57 37t87 8h153zM1200 1454q49 0 65.5 -19t8.5 -67
l-33 -184q-9 -49 -31.5 -67.5t-70.5 -18.5h-543l-31 -185h432q49 0 64.5 -19t7.5 -69l-33 -182q-9 -50 -31 -69t-71 -19h-432l-35 -197h559q48 0 63.5 -18.5t6.5 -67.5l-33 -186q-8 -47 -30.5 -66.5t-71.5 -19.5h-875q-49 0 -65 19.5t-7 66.5l226 1282q9 48 31 67t71 19h858
z" />
    <glyph glyph-name="Gcircumflex" unicode="&#x11c;" horiz-adv-x="1390" 
d="M973 1905q55 0 78.5 -10.5t56.5 -51.5l172 -209q14 -17 16.5 -32.5t-12.5 -26t-47 -10.5h-166q-64 0 -88.5 7.5t-42.5 35.5l-45 73l-78 -71q-30 -30 -55 -37.5t-84 -7.5h-164q-32 0 -43.5 10.5t-4 26t27.5 32.5l245 209q50 42 77 52t91 10h66zM1282 836q50 0 65.5 -19
t6.5 -69l-51 -297q-39 -223 -225 -352.5t-484 -129.5q-197 0 -328 77.5t-181 212.5t-19 312l65 371q46 266 231.5 404.5t489.5 138.5q229 0 355.5 -95.5t160.5 -269.5q9 -45 -7 -70t-65 -40l-209 -64q-51 -15 -72 -3.5t-30 58.5q-14 64 -59.5 94.5t-132.5 30.5
q-118 0 -181 -52t-82 -159l-65 -376q-21 -107 23.5 -159t162.5 -52q105 0 170.5 36.5t77.5 102.5l6 41h-196q-49 0 -64.5 19t-7.5 67l27 154q9 50 31 69t71 19h516z" />
    <glyph glyph-name="Gcircumflex" unicode="&#x11d;" horiz-adv-x="1390" 
d="M973 1905q55 0 78.5 -10.5t56.5 -51.5l172 -209q14 -17 16.5 -32.5t-12.5 -26t-47 -10.5h-166q-64 0 -88.5 7.5t-42.5 35.5l-45 73l-78 -71q-30 -30 -55 -37.5t-84 -7.5h-164q-32 0 -43.5 10.5t-4 26t27.5 32.5l245 209q50 42 77 52t91 10h66zM1282 836q50 0 65.5 -19
t6.5 -69l-51 -297q-39 -223 -225 -352.5t-484 -129.5q-197 0 -328 77.5t-181 212.5t-19 312l65 371q46 266 231.5 404.5t489.5 138.5q229 0 355.5 -95.5t160.5 -269.5q9 -45 -7 -70t-65 -40l-209 -64q-51 -15 -72 -3.5t-30 58.5q-14 64 -59.5 94.5t-132.5 30.5
q-118 0 -181 -52t-82 -159l-65 -376q-21 -107 23.5 -159t162.5 -52q105 0 170.5 36.5t77.5 102.5l6 41h-196q-49 0 -64.5 19t-7.5 67l27 154q9 50 31 69t71 19h516z" />
    <glyph glyph-name="Gbreve" unicode="&#x11e;" horiz-adv-x="1390" 
d="M1272 1782q-59 -105 -162.5 -161t-239.5 -56q-133 0 -216 56.5t-105 160.5q-6 28 4.5 43.5t42.5 27.5l145 52q35 11 48 6.5t24 -31.5q27 -68 102 -68q71 0 121 68q20 26 34.5 31t45.5 -4l133 -54q28 -11 33 -26.5t-10 -44.5zM1282 836q50 0 65.5 -19t6.5 -69l-51 -297
q-39 -223 -225 -352.5t-484 -129.5q-197 0 -328 77.5t-181 212.5t-19 312l65 371q46 266 231.5 404.5t489.5 138.5q229 0 355.5 -95.5t160.5 -269.5q9 -45 -7 -70t-65 -40l-209 -64q-51 -15 -72 -3.5t-30 58.5q-14 64 -59.5 94.5t-132.5 30.5q-118 0 -181 -52t-82 -159
l-65 -376q-21 -107 23.5 -159t162.5 -52q105 0 170.5 36.5t77.5 102.5l6 41h-196q-49 0 -64.5 19t-7.5 67l27 154q9 50 31 69t71 19h516z" />
    <glyph glyph-name="Gbreve" unicode="&#x11f;" horiz-adv-x="1390" 
d="M1272 1782q-59 -105 -162.5 -161t-239.5 -56q-133 0 -216 56.5t-105 160.5q-6 28 4.5 43.5t42.5 27.5l145 52q35 11 48 6.5t24 -31.5q27 -68 102 -68q71 0 121 68q20 26 34.5 31t45.5 -4l133 -54q28 -11 33 -26.5t-10 -44.5zM1282 836q50 0 65.5 -19t6.5 -69l-51 -297
q-39 -223 -225 -352.5t-484 -129.5q-197 0 -328 77.5t-181 212.5t-19 312l65 371q46 266 231.5 404.5t489.5 138.5q229 0 355.5 -95.5t160.5 -269.5q9 -45 -7 -70t-65 -40l-209 -64q-51 -15 -72 -3.5t-30 58.5q-14 64 -59.5 94.5t-132.5 30.5q-118 0 -181 -52t-82 -159
l-65 -376q-21 -107 23.5 -159t162.5 -52q105 0 170.5 36.5t77.5 102.5l6 41h-196q-49 0 -64.5 19t-7.5 67l27 154q9 50 31 69t71 19h516z" />
    <glyph glyph-name="Gdotaccent" unicode="&#x120;" horiz-adv-x="1390" 
d="M934 1894q89 0 115 -31.5t12 -121.5l-4 -17q-15 -89 -53 -121t-127 -32h-13q-89 0 -115.5 32t-11.5 121l4 17q15 89 53 121t128 32h12zM1282 836q50 0 65.5 -19t6.5 -69l-51 -297q-39 -223 -225 -352.5t-484 -129.5q-197 0 -328 77.5t-181 212.5t-19 312l65 371
q46 266 231.5 404.5t489.5 138.5q229 0 355.5 -95.5t160.5 -269.5q9 -45 -7 -70t-65 -40l-209 -64q-51 -15 -72 -3.5t-30 58.5q-14 64 -59.5 94.5t-132.5 30.5q-118 0 -181 -52t-82 -159l-65 -376q-21 -107 23.5 -159t162.5 -52q105 0 170.5 36.5t77.5 102.5l6 41h-196
q-49 0 -64.5 19t-7.5 67l27 154q9 50 31 69t71 19h516z" />
    <glyph glyph-name="Gdotaccent" unicode="&#x121;" horiz-adv-x="1390" 
d="M934 1894q89 0 115 -31.5t12 -121.5l-4 -17q-15 -89 -53 -121t-127 -32h-13q-89 0 -115.5 32t-11.5 121l4 17q15 89 53 121t128 32h12zM1282 836q50 0 65.5 -19t6.5 -69l-51 -297q-39 -223 -225 -352.5t-484 -129.5q-197 0 -328 77.5t-181 212.5t-19 312l65 371
q46 266 231.5 404.5t489.5 138.5q229 0 355.5 -95.5t160.5 -269.5q9 -45 -7 -70t-65 -40l-209 -64q-51 -15 -72 -3.5t-30 58.5q-14 64 -59.5 94.5t-132.5 30.5q-118 0 -181 -52t-82 -159l-65 -376q-21 -107 23.5 -159t162.5 -52q105 0 170.5 36.5t77.5 102.5l6 41h-196
q-49 0 -64.5 19t-7.5 67l27 154q9 50 31 69t71 19h516z" />
    <glyph glyph-name="uni0122" unicode="&#x122;" horiz-adv-x="1390" 
d="M1282 836q50 0 65.5 -19t6.5 -69l-51 -297q-39 -223 -225 -352.5t-484 -129.5q-197 0 -328 77.5t-181 212.5t-19 312l65 371q46 266 231.5 404.5t489.5 138.5q229 0 355.5 -95.5t160.5 -269.5q9 -45 -7 -70t-65 -40l-209 -64q-51 -15 -72 -3.5t-30 58.5
q-14 64 -59.5 94.5t-132.5 30.5q-118 0 -181 -52t-82 -159l-65 -376q-21 -107 23.5 -159t162.5 -52q105 0 170.5 36.5t77.5 102.5l6 41h-196q-49 0 -64.5 19t-7.5 67l27 154q9 50 31 69t71 19h516zM610 -465q-20 -37 -42 -52t-62 -15h-131q-32 0 -41.5 13.5t0.5 47.5l84 287
q12 46 35.5 66t68.5 20h183q102 0 55 -86z" />
    <glyph glyph-name="uni0122" unicode="&#x123;" horiz-adv-x="1390" 
d="M1282 836q50 0 65.5 -19t6.5 -69l-51 -297q-39 -223 -225 -352.5t-484 -129.5q-197 0 -328 77.5t-181 212.5t-19 312l65 371q46 266 231.5 404.5t489.5 138.5q229 0 355.5 -95.5t160.5 -269.5q9 -45 -7 -70t-65 -40l-209 -64q-51 -15 -72 -3.5t-30 58.5
q-14 64 -59.5 94.5t-132.5 30.5q-118 0 -181 -52t-82 -159l-65 -376q-21 -107 23.5 -159t162.5 -52q105 0 170.5 36.5t77.5 102.5l6 41h-196q-49 0 -64.5 19t-7.5 67l27 154q9 50 31 69t71 19h516zM610 -465q-20 -37 -42 -52t-62 -15h-131q-32 0 -41.5 13.5t0.5 47.5l84 287
q12 46 35.5 66t68.5 20h183q102 0 55 -86z" />
    <glyph glyph-name="Hcircumflex" unicode="&#x124;" horiz-adv-x="1425" 
d="M979 1884q55 0 78.5 -10t56.5 -51l172 -209q14 -17 16.5 -32.5t-12.5 -26.5t-47 -11h-166q-64 0 -88.5 7.5t-42.5 35.5l-45 74l-78 -72q-30 -30 -55 -37.5t-84 -7.5h-164q-32 0 -43.5 11t-4 26.5t27.5 32.5l245 209q50 41 77 51t91 10h66zM1378 1454q47 0 63 -19.5
t7 -66.5l-225 -1282q-9 -48 -31.5 -67t-71.5 -19h-231q-49 0 -64.5 19t-7.5 67l84 473h-397l-84 -473q-8 -47 -31 -66.5t-72 -19.5h-231q-47 0 -63 19.5t-7 66.5l226 1282q9 48 31 67t71 19h231q49 0 65 -19.5t7 -66.5l-80 -453h398l79 453q9 48 31.5 67t71.5 19h231z" />
    <glyph glyph-name="Hcircumflex" unicode="&#x125;" horiz-adv-x="1425" 
d="M979 1884q55 0 78.5 -10t56.5 -51l172 -209q14 -17 16.5 -32.5t-12.5 -26.5t-47 -11h-166q-64 0 -88.5 7.5t-42.5 35.5l-45 74l-78 -72q-30 -30 -55 -37.5t-84 -7.5h-164q-32 0 -43.5 11t-4 26.5t27.5 32.5l245 209q50 41 77 51t91 10h66zM1378 1454q47 0 63 -19.5
t7 -66.5l-225 -1282q-9 -48 -31.5 -67t-71.5 -19h-231q-49 0 -64.5 19t-7.5 67l84 473h-397l-84 -473q-8 -47 -31 -66.5t-72 -19.5h-231q-47 0 -63 19.5t-7 66.5l226 1282q9 48 31 67t71 19h231q49 0 65 -19.5t7 -66.5l-80 -453h398l79 453q9 48 31.5 67t71.5 19h231z" />
    <glyph glyph-name="Hbar" unicode="&#x126;" horiz-adv-x="1482" 
d="M1538 1288q29 0 37 -11t2 -42l-21 -111q-4 -32 -15.5 -42.5t-41.5 -10.5h-78l-172 -985q-9 -47 -32 -66.5t-70 -19.5h-232q-49 0 -64.5 19t-6.5 67l82 473h-398l-82 -473q-9 -48 -31 -67t-71 -19h-231q-49 0 -64.5 19t-7.5 67l174 985h-76q-29 0 -37 10.5t-2 42.5l19 111
q6 30 20 41.5t41 11.5h74l14 80q9 48 31.5 67t71.5 19h231q47 0 63 -19.5t7 -66.5l-13 -80h398l12 80q9 47 32 66.5t70 19.5h232q49 0 65 -19.5t7 -66.5l-15 -80h78zM621 1071l-29 -156h397l29 156h-397z" />
    <glyph glyph-name="Hbar" unicode="&#x127;" horiz-adv-x="1482" 
d="M1538 1288q29 0 37 -11t2 -42l-21 -111q-4 -32 -15.5 -42.5t-41.5 -10.5h-78l-172 -985q-9 -47 -32 -66.5t-70 -19.5h-232q-49 0 -64.5 19t-6.5 67l82 473h-398l-82 -473q-9 -48 -31 -67t-71 -19h-231q-49 0 -64.5 19t-7.5 67l174 985h-76q-29 0 -37 10.5t-2 42.5l19 111
q6 30 20 41.5t41 11.5h74l14 80q9 48 31.5 67t71.5 19h231q47 0 63 -19.5t7 -66.5l-13 -80h398l12 80q9 47 32 66.5t70 19.5h232q49 0 65 -19.5t7 -66.5l-15 -80h78zM621 1071l-29 -156h397l29 156h-397z" />
    <glyph glyph-name="Itilde" unicode="&#x128;" horiz-adv-x="622" 
d="M831 1862q27 0 35.5 -11t3.5 -36q-24 -138 -82.5 -195t-160.5 -57q-52 0 -94.5 13.5t-65.5 29.5t-49.5 29.5t-48.5 13.5q-28 0 -37 -45q-6 -41 -47 -41h-125q-48 0 -39 47q23 139 83 195.5t156 56.5q53 0 97.5 -13t68 -29t50 -29t47.5 -13q31 0 39 45q5 22 14.5 30.5
t30.5 8.5h124zM242 1372q9 46 30 64t66 18h242q46 0 61 -18t6 -64l-227 -1290q-7 -46 -28.5 -64t-67.5 -18h-242q-46 0 -61 18t-7 64z" />
    <glyph glyph-name="Itilde" unicode="&#x129;" horiz-adv-x="622" 
d="M831 1862q27 0 35.5 -11t3.5 -36q-24 -138 -82.5 -195t-160.5 -57q-52 0 -94.5 13.5t-65.5 29.5t-49.5 29.5t-48.5 13.5q-28 0 -37 -45q-6 -41 -47 -41h-125q-48 0 -39 47q23 139 83 195.5t156 56.5q53 0 97.5 -13t68 -29t50 -29t47.5 -13q31 0 39 45q5 22 14.5 30.5
t30.5 8.5h124zM242 1372q9 46 30 64t66 18h242q46 0 61 -18t6 -64l-227 -1290q-7 -46 -28.5 -64t-67.5 -18h-242q-46 0 -61 18t-7 64z" />
    <glyph glyph-name="Imacron" unicode="&#x12a;" horiz-adv-x="622" 
d="M774 1827q45 0 58 -15t6 -59l-17 -86q-7 -44 -25.5 -59t-62.5 -15h-497q-43 0 -56 15t-4 59l14 86q7 43 26 58.5t60 15.5h498zM242 1372q9 46 30 64t66 18h242q46 0 61 -18t6 -64l-227 -1290q-7 -46 -28.5 -64t-67.5 -18h-242q-46 0 -61 18t-7 64z" />
    <glyph glyph-name="Imacron" unicode="&#x12b;" horiz-adv-x="622" 
d="M774 1827q45 0 58 -15t6 -59l-17 -86q-7 -44 -25.5 -59t-62.5 -15h-497q-43 0 -56 15t-4 59l14 86q7 43 26 58.5t60 15.5h498zM242 1372q9 46 30 64t66 18h242q46 0 61 -18t6 -64l-227 -1290q-7 -46 -28.5 -64t-67.5 -18h-242q-46 0 -61 18t-7 64z" />
    <glyph glyph-name="Ibreve" unicode="&#x12c;" horiz-adv-x="622" 
d="M877 1761q-59 -105 -162.5 -161t-239.5 -56q-133 0 -216 56.5t-105 160.5q-6 29 4.5 44.5t42.5 27.5l145 51q35 12 48 7.5t24 -31.5q27 -68 102 -68q71 0 121 68q20 26 34.5 30.5t45.5 -4.5l133 -53q28 -10 33 -26.5t-10 -45.5zM242 1372q9 46 30 64t66 18h242
q46 0 61 -18t6 -64l-227 -1290q-7 -46 -28.5 -64t-67.5 -18h-242q-46 0 -61 18t-7 64z" />
    <glyph glyph-name="Ibreve" unicode="&#x12d;" horiz-adv-x="622" 
d="M877 1761q-59 -105 -162.5 -161t-239.5 -56q-133 0 -216 56.5t-105 160.5q-6 29 4.5 44.5t42.5 27.5l145 51q35 12 48 7.5t24 -31.5q27 -68 102 -68q71 0 121 68q20 26 34.5 30.5t45.5 -4.5l133 -53q28 -10 33 -26.5t-10 -45.5zM242 1372q9 46 30 64t66 18h242
q46 0 61 -18t6 -64l-227 -1290q-7 -46 -28.5 -64t-67.5 -18h-242q-46 0 -61 18t-7 64z" />
    <glyph glyph-name="Iogonek" unicode="&#x12e;" horiz-adv-x="622" 
d="M360 -371q10 -40 -20 -61q-106 -72 -242 -72q-38 0 -70 7t-60.5 23t-45.5 46t-18 72q-3 173 207 356q-69 0 -87 20t-8 72l226 1280q9 46 30 64t66 18h242q46 0 61 -18t6 -64l-227 -1290q-8 -49 -39 -74q-60 -52 -98 -103.5t-50.5 -83.5t-13.5 -59q0 -36 31 -36
q22 0 39 10q38 24 47 -12z" />
    <glyph glyph-name="Iogonek" unicode="&#x12f;" horiz-adv-x="622" 
d="M360 -371q10 -40 -20 -61q-106 -72 -242 -72q-38 0 -70 7t-60.5 23t-45.5 46t-18 72q-3 173 207 356q-69 0 -87 20t-8 72l226 1280q9 46 30 64t66 18h242q46 0 61 -18t6 -64l-227 -1290q-8 -49 -39 -74q-60 -52 -98 -103.5t-50.5 -83.5t-13.5 -59q0 -36 31 -36
q22 0 39 10q38 24 47 -12z" />
    <glyph glyph-name="Idotaccent" unicode="&#x130;" horiz-adv-x="622" 
d="M541 1874q89 0 115 -32t12 -122l-4 -16q-15 -89 -53.5 -121.5t-127.5 -32.5h-12q-89 0 -115.5 32.5t-11.5 121.5l4 16q15 89 53 121.5t127 32.5h13zM242 1372q9 46 30 64t66 18h242q46 0 61 -18t6 -64l-227 -1290q-7 -46 -28.5 -64t-67.5 -18h-242q-46 0 -61 18t-7 64z
" />
    <glyph glyph-name="IJ" unicode="&#x132;" horiz-adv-x="1822" 
d="M242 1372q9 46 30 64t66 18h242q46 0 61 -18t6 -64l-227 -1290q-7 -46 -28.5 -64t-67.5 -18h-242q-46 0 -61 18t-7 64zM1788 1454q46 0 61 -19t6 -65l-157 -899q-44 -253 -199 -377.5t-432 -124.5q-208 0 -329 90t-152 258q-9 45 6.5 69.5t64.5 41.5l203 68q49 17 73 6.5
t34 -56.5q29 -118 151 -118q150 0 180 176l154 866q9 47 30.5 65.5t69.5 18.5h236z" />
    <glyph glyph-name="IJ" unicode="&#x133;" horiz-adv-x="1822" 
d="M242 1372q9 46 30 64t66 18h242q46 0 61 -18t6 -64l-227 -1290q-7 -46 -28.5 -64t-67.5 -18h-242q-46 0 -61 18t-7 64zM1788 1454q46 0 61 -19t6 -65l-157 -899q-44 -253 -199 -377.5t-432 -124.5q-208 0 -329 90t-152 258q-9 45 6.5 69.5t64.5 41.5l203 68q49 17 73 6.5
t34 -56.5q29 -118 151 -118q150 0 180 176l154 866q9 47 30.5 65.5t69.5 18.5h236z" />
    <glyph glyph-name="Jcircumflex" unicode="&#x134;" horiz-adv-x="1200" 
d="M1165 1884q55 0 78.5 -10t56.5 -51l173 -209q14 -17 16.5 -32.5t-12.5 -26.5t-47 -11h-166q-64 0 -88.5 7.5t-42.5 35.5l-46 74l-77 -72q-30 -30 -55.5 -37.5t-84.5 -7.5h-163q-48 0 -50.5 22.5t29.5 47.5l246 209q50 41 77 51t91 10h65zM1165 1454q46 0 61.5 -19
t6.5 -65l-158 -899q-44 -253 -199 -377.5t-432 -124.5q-208 0 -329 90t-152 258q-9 44 7 69t65 42l203 68q49 17 72.5 6.5t33.5 -56.5q29 -118 152 -118q150 0 180 176l153 866q9 47 30.5 65.5t70.5 18.5h235z" />
    <glyph glyph-name="Jcircumflex" unicode="&#x135;" horiz-adv-x="1200" 
d="M1165 1884q55 0 78.5 -10t56.5 -51l173 -209q14 -17 16.5 -32.5t-12.5 -26.5t-47 -11h-166q-64 0 -88.5 7.5t-42.5 35.5l-46 74l-77 -72q-30 -30 -55.5 -37.5t-84.5 -7.5h-163q-48 0 -50.5 22.5t29.5 47.5l246 209q50 41 77 51t91 10h65zM1165 1454q46 0 61.5 -19
t6.5 -65l-158 -899q-44 -253 -199 -377.5t-432 -124.5q-208 0 -329 90t-152 258q-9 44 7 69t65 42l203 68q49 17 72.5 6.5t33.5 -56.5q29 -118 152 -118q150 0 180 176l153 866q9 47 30.5 65.5t70.5 18.5h235z" />
    <glyph glyph-name="uni0136" unicode="&#x136;" horiz-adv-x="1347" 
d="M1231 100q16 -43 -2.5 -71.5t-67.5 -28.5h-221q-83 0 -115 16.5t-51 69.5l-112 367q-16 55 -42 79.5t-83 24.5h-35l-82 -471q-9 -47 -32.5 -66.5t-70.5 -19.5h-231q-49 0 -65 19.5t-7 66.5l226 1282q9 48 31 67t71 19h231q48 0 64.5 -19.5t7.5 -66.5l-80 -457h45l375 467
q39 49 70 62.5t108 13.5h236q46 0 55 -25t-20 -65l-486 -600q39 -28 62.5 -63t42.5 -89zM578 -465q-19 -37 -42 -52t-63 -15h-131q-32 0 -41.5 13.5t0.5 47.5l84 287q12 46 35.5 66t68.5 20h183q102 0 55 -86z" />
    <glyph glyph-name="uni0136" unicode="&#x137;" horiz-adv-x="1347" 
d="M1231 100q16 -43 -2.5 -71.5t-67.5 -28.5h-221q-83 0 -115 16.5t-51 69.5l-112 367q-16 55 -42 79.5t-83 24.5h-35l-82 -471q-9 -47 -32.5 -66.5t-70.5 -19.5h-231q-49 0 -65 19.5t-7 66.5l226 1282q9 48 31 67t71 19h231q48 0 64.5 -19.5t7.5 -66.5l-80 -457h45l375 467
q39 49 70 62.5t108 13.5h236q46 0 55 -25t-20 -65l-486 -600q39 -28 62.5 -63t42.5 -89zM578 -465q-19 -37 -42 -52t-63 -15h-131q-32 0 -41.5 13.5t0.5 47.5l84 287q12 46 35.5 66t68.5 20h183q102 0 55 -86z" />
    <glyph glyph-name="Lacute" unicode="&#x139;" horiz-adv-x="1118" 
d="M555 1872q92 49 135 -6l82 -119q23 -29 17.5 -49t-44.5 -33l-391 -115q-37 -12 -59 -10.5t-35 21.5l-41 67q-20 29 -16 46t33 32zM573 1454q49 0 65.5 -19t8.5 -67l-178 -1010h492q50 0 65 -18.5t6 -67.5l-33 -186q-9 -48 -31 -67t-71 -19h-811q-47 0 -63 19.5t-7 66.5
l226 1282q7 47 30 66.5t70 19.5h231z" />
    <glyph glyph-name="Lacute" unicode="&#x13a;" horiz-adv-x="1118" 
d="M555 1872q92 49 135 -6l82 -119q23 -29 17.5 -49t-44.5 -33l-391 -115q-37 -12 -59 -10.5t-35 21.5l-41 67q-20 29 -16 46t33 32zM573 1454q49 0 65.5 -19t8.5 -67l-178 -1010h492q50 0 65 -18.5t6 -67.5l-33 -186q-9 -48 -31 -67t-71 -19h-811q-47 0 -63 19.5t-7 66.5
l226 1282q7 47 30 66.5t70 19.5h231z" />
    <glyph glyph-name="uni013B" unicode="&#x13b;" horiz-adv-x="1118" 
d="M573 1454q49 0 65.5 -19t8.5 -67l-178 -1010h492q50 0 65 -18.5t6 -67.5l-33 -186q-9 -48 -31 -67t-71 -19h-811q-47 0 -63 19.5t-7 66.5l226 1282q7 47 30 66.5t70 19.5h231zM469 -465q-20 -37 -42 -52t-62 -15h-132q-32 0 -41 13.5t1 47.5l83 287q12 46 36 66t69 20
h182q102 0 55 -86z" />
    <glyph glyph-name="uni013B" unicode="&#x13c;" horiz-adv-x="1118" 
d="M573 1454q49 0 65.5 -19t8.5 -67l-178 -1010h492q50 0 65 -18.5t6 -67.5l-33 -186q-9 -48 -31 -67t-71 -19h-811q-47 0 -63 19.5t-7 66.5l226 1282q7 47 30 66.5t70 19.5h231zM469 -465q-20 -37 -42 -52t-62 -15h-132q-32 0 -41 13.5t1 47.5l83 287q12 46 36 66t69 20
h182q102 0 55 -86z" />
    <glyph glyph-name="Lcaron" unicode="&#x13d;" horiz-adv-x="1134" 
d="M582 1454q49 0 65 -19t8 -67l-178 -1010h492q50 0 65 -18.5t6 -67.5l-32 -186q-9 -48 -31.5 -67t-71.5 -19h-811q-47 0 -62.5 19.5t-6.5 66.5l225 1282q7 47 30 66.5t70 19.5h232zM1008 1051q-23 -41 -43.5 -55.5t-63.5 -14.5h-119q-32 0 -40 11t1 42l97 340q15 46 37 63
t67 17h184q53 0 65.5 -20t-9.5 -60z" />
    <glyph glyph-name="Lcaron" unicode="&#x13e;" horiz-adv-x="1134" 
d="M582 1454q49 0 65 -19t8 -67l-178 -1010h492q50 0 65 -18.5t6 -67.5l-32 -186q-9 -48 -31.5 -67t-71.5 -19h-811q-47 0 -62.5 19.5t-6.5 66.5l225 1282q7 47 30 66.5t70 19.5h232zM1008 1051q-23 -41 -43.5 -55.5t-63.5 -14.5h-119q-32 0 -40 11t1 42l97 340q15 46 37 63
t67 17h184q53 0 65.5 -20t-9.5 -60z" />
    <glyph glyph-name="Ldot" unicode="&#x13f;" horiz-adv-x="1124" 
d="M573 1454q49 0 65.5 -19t8.5 -67l-178 -1010h492q50 0 65 -18.5t6 -67.5l-33 -186q-9 -48 -31 -67t-71 -19h-811q-47 0 -63 19.5t-7 66.5l226 1282q7 47 30 66.5t70 19.5h231zM803 643q-88 0 -115 33t-12 119l14 77q15 86 53.5 119t124.5 33h74q86 0 113 -33t12 -119
l-14 -77q-15 -86 -54 -119t-125 -33h-71z" />
    <glyph glyph-name="Ldot" unicode="&#x140;" horiz-adv-x="1124" 
d="M573 1454q49 0 65.5 -19t8.5 -67l-178 -1010h492q50 0 65 -18.5t6 -67.5l-33 -186q-9 -48 -31 -67t-71 -19h-811q-47 0 -63 19.5t-7 66.5l226 1282q7 47 30 66.5t70 19.5h231zM803 643q-88 0 -115 33t-12 119l14 77q15 86 53.5 119t124.5 33h74q86 0 113 -33t12 -119
l-14 -77q-15 -86 -54 -119t-125 -33h-71z" />
    <glyph glyph-name="Lslash" unicode="&#x141;" horiz-adv-x="1204" 
d="M1049 358q50 0 65 -18.5t6 -67.5l-33 -186q-9 -48 -31 -67t-71 -19h-811q-47 0 -63 19.5t-7 66.5l74 422l-88 -35q-37 -16 -53.5 -9.5t-26.5 34.5l-30 104q-16 52 36 74l205 86l109 606q7 47 30 66.5t70 19.5h232q49 0 65 -19t8 -67l-76 -426l248 102q39 14 55.5 7.5
t24.5 -33.5l33 -105q15 -49 -39 -71l-367 -152l-57 -332h492z" />
    <glyph glyph-name="Lslash" unicode="&#x142;" horiz-adv-x="1204" 
d="M1049 358q50 0 65 -18.5t6 -67.5l-33 -186q-9 -48 -31 -67t-71 -19h-811q-47 0 -63 19.5t-7 66.5l74 422l-88 -35q-37 -16 -53.5 -9.5t-26.5 34.5l-30 104q-16 52 36 74l205 86l109 606q7 47 30 66.5t70 19.5h232q49 0 65 -19t8 -67l-76 -426l248 102q39 14 55.5 7.5
t24.5 -33.5l33 -105q15 -49 -39 -71l-367 -152l-57 -332h492z" />
    <glyph glyph-name="Nacute" unicode="&#x143;" horiz-adv-x="1445" 
d="M969 1872q92 49 135 -6l82 -119q23 -29 17.5 -49t-44.5 -33l-391 -115q-37 -12 -59 -10.5t-35 21.5l-41 67q-14 20 -16.5 33.5t5 24t27.5 20.5zM1395 1454q49 0 65 -19t8 -67l-227 -1282q-8 -47 -30.5 -66.5t-71.5 -19.5h-226q-31 0 -47.5 9.5t-27.5 31.5l-222 487
q-46 102 -70.5 193t-41.5 227h-17q10 -130 6.5 -250.5t-30.5 -277.5l-60 -334q-9 -47 -32 -66.5t-70 -19.5h-215q-49 0 -65 19.5t-7 66.5l226 1282q9 48 31 67t71 19h233q63 0 80 -41l236 -526q62 -136 113 -373h16q-16 121 -21 185t-1 147t22 184l59 338q7 47 30.5 66.5
t70.5 19.5h215z" />
    <glyph glyph-name="Nacute" unicode="&#x144;" horiz-adv-x="1445" 
d="M969 1872q92 49 135 -6l82 -119q23 -29 17.5 -49t-44.5 -33l-391 -115q-37 -12 -59 -10.5t-35 21.5l-41 67q-14 20 -16.5 33.5t5 24t27.5 20.5zM1395 1454q49 0 65 -19t8 -67l-227 -1282q-8 -47 -30.5 -66.5t-71.5 -19.5h-226q-31 0 -47.5 9.5t-27.5 31.5l-222 487
q-46 102 -70.5 193t-41.5 227h-17q10 -130 6.5 -250.5t-30.5 -277.5l-60 -334q-9 -47 -32 -66.5t-70 -19.5h-215q-49 0 -65 19.5t-7 66.5l226 1282q9 48 31 67t71 19h233q63 0 80 -41l236 -526q62 -136 113 -373h16q-16 121 -21 185t-1 147t22 184l59 338q7 47 30.5 66.5
t70.5 19.5h215z" />
    <glyph glyph-name="uni0145" unicode="&#x145;" horiz-adv-x="1445" 
d="M1395 1454q49 0 65 -19t8 -67l-227 -1282q-8 -47 -30.5 -66.5t-71.5 -19.5h-226q-31 0 -47.5 9.5t-27.5 31.5l-222 487q-46 102 -70.5 193t-41.5 227h-17q10 -130 6.5 -250.5t-30.5 -277.5l-60 -334q-9 -47 -32 -66.5t-70 -19.5h-215q-49 0 -65 19.5t-7 66.5l226 1282
q9 48 31 67t71 19h233q63 0 80 -41l236 -526q62 -136 113 -373h16q-16 121 -21 185t-1 147t22 184l59 338q7 47 30.5 66.5t70.5 19.5h215zM633 -465q-19 -37 -42 -52t-63 -15h-131q-32 0 -41.5 13.5t0.5 47.5l84 287q12 46 36 66t69 20h182q102 0 55 -86z" />
    <glyph glyph-name="uni0145" unicode="&#x146;" horiz-adv-x="1445" 
d="M1395 1454q49 0 65 -19t8 -67l-227 -1282q-8 -47 -30.5 -66.5t-71.5 -19.5h-226q-31 0 -47.5 9.5t-27.5 31.5l-222 487q-46 102 -70.5 193t-41.5 227h-17q10 -130 6.5 -250.5t-30.5 -277.5l-60 -334q-9 -47 -32 -66.5t-70 -19.5h-215q-49 0 -65 19.5t-7 66.5l226 1282
q9 48 31 67t71 19h233q63 0 80 -41l236 -526q62 -136 113 -373h16q-16 121 -21 185t-1 147t22 184l59 338q7 47 30.5 66.5t70.5 19.5h215zM633 -465q-19 -37 -42 -52t-63 -15h-131q-32 0 -41.5 13.5t0.5 47.5l84 287q12 46 36 66t69 20h182q102 0 55 -86z" />
    <glyph glyph-name="Ncaron" unicode="&#x147;" horiz-adv-x="1445" 
d="M1309 1884q32 0 42 -11.5t1.5 -27.5t-29.5 -33l-242 -208q-49 -41 -75 -50.5t-88 -9.5h-56q-60 0 -83 9.5t-56 50.5l-170 208q-13 18 -16.5 33.5t9.5 27t44 11.5h172q62 0 84.5 -8t42.5 -37l51 -70l72 70q30 29 56.5 37t86.5 8h154zM1395 1454q49 0 65 -19t8 -67
l-227 -1282q-8 -47 -30.5 -66.5t-71.5 -19.5h-226q-31 0 -47.5 9.5t-27.5 31.5l-222 487q-46 102 -70.5 193t-41.5 227h-17q10 -130 6.5 -250.5t-30.5 -277.5l-60 -334q-9 -47 -32 -66.5t-70 -19.5h-215q-49 0 -65 19.5t-7 66.5l226 1282q9 48 31 67t71 19h233q63 0 80 -41
l236 -526q62 -136 113 -373h16q-16 121 -21 185t-1 147t22 184l59 338q7 47 30.5 66.5t70.5 19.5h215z" />
    <glyph glyph-name="Ncaron" unicode="&#x148;" horiz-adv-x="1445" 
d="M1309 1884q32 0 42 -11.5t1.5 -27.5t-29.5 -33l-242 -208q-49 -41 -75 -50.5t-88 -9.5h-56q-60 0 -83 9.5t-56 50.5l-170 208q-13 18 -16.5 33.5t9.5 27t44 11.5h172q62 0 84.5 -8t42.5 -37l51 -70l72 70q30 29 56.5 37t86.5 8h154zM1395 1454q49 0 65 -19t8 -67
l-227 -1282q-8 -47 -30.5 -66.5t-71.5 -19.5h-226q-31 0 -47.5 9.5t-27.5 31.5l-222 487q-46 102 -70.5 193t-41.5 227h-17q10 -130 6.5 -250.5t-30.5 -277.5l-60 -334q-9 -47 -32 -66.5t-70 -19.5h-215q-49 0 -65 19.5t-7 66.5l226 1282q9 48 31 67t71 19h233q63 0 80 -41
l236 -526q62 -136 113 -373h16q-16 121 -21 185t-1 147t22 184l59 338q7 47 30.5 66.5t70.5 19.5h215z" />
    <glyph glyph-name="Eng" unicode="&#x14a;" horiz-adv-x="1445" 
d="M1395 1454q49 0 65 -19t8 -67l-245 -1388q-41 -232 -189.5 -341.5t-410.5 -109.5q-45 0 -60 18t-6 62l31 174q7 46 27.5 63t66.5 17q72 0 109.5 35.5t50.5 105.5l2 19l-234 505q-46 99 -66.5 184.5t-39.5 235.5h-17q10 -130 6.5 -250.5t-30.5 -277.5l-60 -334
q-9 -47 -32 -66.5t-70 -19.5h-215q-49 0 -65 19.5t-7 66.5l226 1282q9 48 31 67t71 19h231q33 0 50 -9.5t28 -31.5l244 -526q23 -49 39.5 -98t23.5 -80.5t19.5 -93.5t21.5 -101h17q-16 121 -21 185t-1 147t22 184l59 338q9 48 31.5 67t71.5 19h217z" />
    <glyph glyph-name="Eng" unicode="&#x14b;" horiz-adv-x="1445" 
d="M1395 1454q49 0 65 -19t8 -67l-245 -1388q-41 -232 -189.5 -341.5t-410.5 -109.5q-45 0 -60 18t-6 62l31 174q7 46 27.5 63t66.5 17q72 0 109.5 35.5t50.5 105.5l2 19l-234 505q-46 99 -66.5 184.5t-39.5 235.5h-17q10 -130 6.5 -250.5t-30.5 -277.5l-60 -334
q-9 -47 -32 -66.5t-70 -19.5h-215q-49 0 -65 19.5t-7 66.5l226 1282q9 48 31 67t71 19h231q33 0 50 -9.5t28 -31.5l244 -526q23 -49 39.5 -98t23.5 -80.5t19.5 -93.5t21.5 -101h17q-16 121 -21 185t-1 147t22 184l59 338q9 48 31.5 67t71.5 19h217z" />
    <glyph glyph-name="Omacron" unicode="&#x14c;" horiz-adv-x="1404" 
d="M1169 1847q45 0 58 -14.5t6 -58.5l-16 -86q-7 -44 -25.5 -59t-63.5 -15h-497q-43 0 -56 15t-4 59l15 86q7 43 26 58t60 15h497zM129 932q46 265 232 409t489 144q297 0 437 -164t93 -434l-65 -371q-46 -265 -230.5 -406t-488.5 -141q-298 0 -437 161t-93 431zM983 930
q17 96 -32 146t-156 50q-108 0 -175.5 -50t-84.5 -146l-72 -406q-17 -96 32.5 -146t157.5 -50q107 0 174 50t84 146z" />
    <glyph glyph-name="Omacron" unicode="&#x14d;" horiz-adv-x="1404" 
d="M1169 1847q45 0 58 -14.5t6 -58.5l-16 -86q-7 -44 -25.5 -59t-63.5 -15h-497q-43 0 -56 15t-4 59l15 86q7 43 26 58t60 15h497zM129 932q46 265 232 409t489 144q297 0 437 -164t93 -434l-65 -371q-46 -265 -230.5 -406t-488.5 -141q-298 0 -437 161t-93 431zM983 930
q17 96 -32 146t-156 50q-108 0 -175.5 -50t-84.5 -146l-72 -406q-17 -96 32.5 -146t157.5 -50q107 0 174 50t84 146z" />
    <glyph glyph-name="Obreve" unicode="&#x14e;" horiz-adv-x="1404" 
d="M1272 1782q-59 -105 -162.5 -161t-239.5 -56q-133 0 -216 56.5t-105 160.5q-6 28 4.5 43.5t42.5 27.5l145 52q35 11 48 6.5t24 -31.5q27 -68 102 -68q71 0 121 68q20 26 34.5 31t45.5 -4l133 -54q28 -11 33 -26.5t-10 -44.5zM129 932q46 265 232 409t489 144
q297 0 437 -164t93 -434l-65 -371q-46 -265 -230.5 -406t-488.5 -141q-298 0 -437 161t-93 431zM983 930q17 96 -32 146t-156 50q-108 0 -175.5 -50t-84.5 -146l-72 -406q-17 -96 32.5 -146t157.5 -50q107 0 174 50t84 146z" />
    <glyph glyph-name="Obreve" unicode="&#x14f;" horiz-adv-x="1404" 
d="M1272 1782q-59 -105 -162.5 -161t-239.5 -56q-133 0 -216 56.5t-105 160.5q-6 28 4.5 43.5t42.5 27.5l145 52q35 11 48 6.5t24 -31.5q27 -68 102 -68q71 0 121 68q20 26 34.5 31t45.5 -4l133 -54q28 -11 33 -26.5t-10 -44.5zM129 932q46 265 232 409t489 144
q297 0 437 -164t93 -434l-65 -371q-46 -265 -230.5 -406t-488.5 -141q-298 0 -437 161t-93 431zM983 930q17 96 -32 146t-156 50q-108 0 -175.5 -50t-84.5 -146l-72 -406q-17 -96 32.5 -146t157.5 -50q107 0 174 50t84 146z" />
    <glyph glyph-name="Ohungarumlaut" unicode="&#x150;" horiz-adv-x="1404" 
d="M526 1585q-35 7 -36 29.5t24 48.5l180 195q61 70 144 53l131 -31q39 -9 40.5 -34.5t-34.5 -51.5l-264 -195q-33 -25 -51.5 -31t-45.5 1zM922 1583q-36 7 -37 30.5t26 47.5l191 197q35 37 67.5 49t73.5 0l135 -37q26 -8 36 -22.5t2 -32t-32 -33.5l-282 -189
q-31 -24 -49.5 -30t-44.5 0zM129 932q46 265 232 409t489 144q297 0 437 -164t93 -434l-65 -371q-46 -265 -230.5 -406t-488.5 -141q-298 0 -437 161t-93 431zM983 930q17 96 -32 146t-156 50q-108 0 -175.5 -50t-84.5 -146l-72 -406q-17 -96 32.5 -146t157.5 -50
q107 0 174 50t84 146z" />
    <glyph glyph-name="Ohungarumlaut" unicode="&#x151;" horiz-adv-x="1404" 
d="M526 1585q-35 7 -36 29.5t24 48.5l180 195q61 70 144 53l131 -31q39 -9 40.5 -34.5t-34.5 -51.5l-264 -195q-33 -25 -51.5 -31t-45.5 1zM922 1583q-36 7 -37 30.5t26 47.5l191 197q35 37 67.5 49t73.5 0l135 -37q26 -8 36 -22.5t2 -32t-32 -33.5l-282 -189
q-31 -24 -49.5 -30t-44.5 0zM129 932q46 265 232 409t489 144q297 0 437 -164t93 -434l-65 -371q-46 -265 -230.5 -406t-488.5 -141q-298 0 -437 161t-93 431zM983 930q17 96 -32 146t-156 50q-108 0 -175.5 -50t-84.5 -146l-72 -406q-17 -96 32.5 -146t157.5 -50
q107 0 174 50t84 146z" />
    <glyph glyph-name="OE" unicode="&#x152;" horiz-adv-x="1818" 
d="M1630 358q50 0 65.5 -18.5t6.5 -67.5l-33 -186q-9 -48 -31 -67t-71 -19h-721q-102 -31 -258 -31q-296 0 -433 163.5t-92 434.5l66 371q46 264 234 405.5t491 141.5q128 0 233 -31h719q49 0 65 -19.5t7 -66.5l-33 -184q-7 -49 -29.5 -67.5t-72.5 -18.5h-430l-31 -185h322
q47 0 62.5 -19.5t6.5 -68.5l-33 -182q-7 -49 -29.5 -68.5t-70.5 -19.5h-321l-35 -197h446zM461 524q-17 -96 32.5 -146t157.5 -50q71 0 127 24l133 752q-52 22 -118 22q-108 0 -176 -50t-85 -146z" />
    <glyph glyph-name="OE" unicode="&#x153;" horiz-adv-x="1818" 
d="M1630 358q50 0 65.5 -18.5t6.5 -67.5l-33 -186q-9 -48 -31 -67t-71 -19h-721q-102 -31 -258 -31q-296 0 -433 163.5t-92 434.5l66 371q46 264 234 405.5t491 141.5q128 0 233 -31h719q49 0 65 -19.5t7 -66.5l-33 -184q-7 -49 -29.5 -67.5t-72.5 -18.5h-430l-31 -185h322
q47 0 62.5 -19.5t6.5 -68.5l-33 -182q-7 -49 -29.5 -68.5t-70.5 -19.5h-321l-35 -197h446zM461 524q-17 -96 32.5 -146t157.5 -50q71 0 127 24l133 752q-52 22 -118 22q-108 0 -176 -50t-85 -146z" />
    <glyph glyph-name="Racute" unicode="&#x154;" horiz-adv-x="1361" 
d="M899 1872q92 49 135 -6l82 -119q23 -29 18 -49t-44 -33l-392 -115q-37 -12 -59 -10.5t-35 21.5l-41 67q-20 29 -16 46t33 32zM926 1454q234 0 349 -137t73 -373q-49 -281 -295 -405q23 -39 41 -88l120 -351q16 -43 -2 -71.5t-67 -28.5h-221q-81 0 -117.5 21.5t-54.5 76.5
l-82 281q-17 59 -40.5 81.5t-86.5 22.5h-54l-69 -397q-9 -47 -32.5 -66.5t-70.5 -19.5h-231q-49 0 -65 19.5t-7 66.5l226 1282q9 48 31 67t71 19h584zM930 963q12 63 -17.5 99t-95.5 36h-221l-47 -273h221q64 0 106.5 37.5t53.5 100.5z" />
    <glyph glyph-name="Racute" unicode="&#x155;" horiz-adv-x="1361" 
d="M899 1872q92 49 135 -6l82 -119q23 -29 18 -49t-44 -33l-392 -115q-37 -12 -59 -10.5t-35 21.5l-41 67q-20 29 -16 46t33 32zM926 1454q234 0 349 -137t73 -373q-49 -281 -295 -405q23 -39 41 -88l120 -351q16 -43 -2 -71.5t-67 -28.5h-221q-81 0 -117.5 21.5t-54.5 76.5
l-82 281q-17 59 -40.5 81.5t-86.5 22.5h-54l-69 -397q-9 -47 -32.5 -66.5t-70.5 -19.5h-231q-49 0 -65 19.5t-7 66.5l226 1282q9 48 31 67t71 19h584zM930 963q12 63 -17.5 99t-95.5 36h-221l-47 -273h221q64 0 106.5 37.5t53.5 100.5z" />
    <glyph glyph-name="uni0156" unicode="&#x156;" horiz-adv-x="1361" 
d="M926 1454q234 0 349 -137t73 -373q-49 -281 -295 -405q23 -39 41 -88l120 -351q16 -43 -2 -71.5t-67 -28.5h-221q-81 0 -117.5 21.5t-54.5 76.5l-82 281q-17 59 -40.5 81.5t-86.5 22.5h-54l-69 -397q-9 -47 -32.5 -66.5t-70.5 -19.5h-231q-49 0 -65 19.5t-7 66.5
l226 1282q9 48 31 67t71 19h584zM930 963q12 63 -17.5 99t-95.5 36h-221l-47 -273h221q64 0 106.5 37.5t53.5 100.5zM590 -465q-19 -37 -42 -52t-63 -15h-131q-32 0 -41.5 13.5t0.5 47.5l84 287q12 46 36 66t69 20h182q102 0 55 -86z" />
    <glyph glyph-name="uni0156" unicode="&#x157;" horiz-adv-x="1361" 
d="M926 1454q234 0 349 -137t73 -373q-49 -281 -295 -405q23 -39 41 -88l120 -351q16 -43 -2 -71.5t-67 -28.5h-221q-81 0 -117.5 21.5t-54.5 76.5l-82 281q-17 59 -40.5 81.5t-86.5 22.5h-54l-69 -397q-9 -47 -32.5 -66.5t-70.5 -19.5h-231q-49 0 -65 19.5t-7 66.5
l226 1282q9 48 31 67t71 19h584zM930 963q12 63 -17.5 99t-95.5 36h-221l-47 -273h221q64 0 106.5 37.5t53.5 100.5zM590 -465q-19 -37 -42 -52t-63 -15h-131q-32 0 -41.5 13.5t0.5 47.5l84 287q12 46 36 66t69 20h182q102 0 55 -86z" />
    <glyph glyph-name="Rcaron" unicode="&#x158;" horiz-adv-x="1361" 
d="M1239 1884q32 0 42 -11.5t1.5 -27.5t-29.5 -33l-241 -208q-49 -41 -75.5 -50.5t-88.5 -9.5h-55q-60 0 -83.5 10t-56.5 50l-170 208q-13 18 -16.5 33.5t9.5 27t44 11.5h172q62 0 84.5 -8t42.5 -37l51 -70l72 70q30 29 56.5 37t86.5 8h154zM926 1454q234 0 349 -137
t73 -373q-49 -281 -295 -405q23 -39 41 -88l120 -351q16 -43 -2 -71.5t-67 -28.5h-221q-81 0 -117.5 21.5t-54.5 76.5l-82 281q-17 59 -40.5 81.5t-86.5 22.5h-54l-69 -397q-9 -47 -32.5 -66.5t-70.5 -19.5h-231q-49 0 -65 19.5t-7 66.5l226 1282q9 48 31 67t71 19h584z
M930 963q12 63 -17.5 99t-95.5 36h-221l-47 -273h221q64 0 106.5 37.5t53.5 100.5z" />
    <glyph glyph-name="Rcaron" unicode="&#x159;" horiz-adv-x="1361" 
d="M1239 1884q32 0 42 -11.5t1.5 -27.5t-29.5 -33l-241 -208q-49 -41 -75.5 -50.5t-88.5 -9.5h-55q-60 0 -83.5 10t-56.5 50l-170 208q-13 18 -16.5 33.5t9.5 27t44 11.5h172q62 0 84.5 -8t42.5 -37l51 -70l72 70q30 29 56.5 37t86.5 8h154zM926 1454q234 0 349 -137
t73 -373q-49 -281 -295 -405q23 -39 41 -88l120 -351q16 -43 -2 -71.5t-67 -28.5h-221q-81 0 -117.5 21.5t-54.5 76.5l-82 281q-17 59 -40.5 81.5t-86.5 22.5h-54l-69 -397q-9 -47 -32.5 -66.5t-70.5 -19.5h-231q-49 0 -65 19.5t-7 66.5l226 1282q9 48 31 67t71 19h584z
M930 963q12 63 -17.5 99t-95.5 36h-221l-47 -273h221q64 0 106.5 37.5t53.5 100.5z" />
    <glyph glyph-name="Sacute" unicode="&#x15a;" horiz-adv-x="1323" 
d="M911 1892q93 49 136 -6l81 -119q23 -29 18 -48.5t-44 -32.5l-391 -115q-37 -12 -59.5 -11t-35.5 21l-41 68q-20 29 -16 45.5t33 31.5zM139 1061q37 205 205.5 314.5t458.5 109.5q219 0 341.5 -77t170.5 -226q14 -45 1.5 -65.5t-63.5 -41.5l-200 -80q-46 -19 -67 -10
t-36 53q-40 107 -190 107q-103 0 -154.5 -26t-60.5 -81q-4 -26 7.5 -45.5t31 -31.5t57 -21.5t69.5 -15t85 -11.5q41 -6 78 -14t79.5 -21t77.5 -29.5t71 -40t62 -52t49.5 -65t33 -80t13.5 -97t-10 -115.5q-41 -222 -212.5 -326t-477.5 -104q-234 0 -381 80.5t-176 235.5
q-9 43 8.5 67.5t65.5 42.5l200 74q47 18 71.5 8.5t41.5 -53.5q35 -109 211 -109q110 0 170 27t72 90q4 24 -5.5 42.5t-27 30.5t-49.5 21.5t-62 15t-75 11.5q-86 13 -148 28t-140.5 51.5t-123.5 87t-68.5 139t-3.5 202.5z" />
    <glyph glyph-name="Sacute" unicode="&#x15b;" horiz-adv-x="1323" 
d="M911 1892q93 49 136 -6l81 -119q23 -29 18 -48.5t-44 -32.5l-391 -115q-37 -12 -59.5 -11t-35.5 21l-41 68q-20 29 -16 45.5t33 31.5zM139 1061q37 205 205.5 314.5t458.5 109.5q219 0 341.5 -77t170.5 -226q14 -45 1.5 -65.5t-63.5 -41.5l-200 -80q-46 -19 -67 -10
t-36 53q-40 107 -190 107q-103 0 -154.5 -26t-60.5 -81q-4 -26 7.5 -45.5t31 -31.5t57 -21.5t69.5 -15t85 -11.5q41 -6 78 -14t79.5 -21t77.5 -29.5t71 -40t62 -52t49.5 -65t33 -80t13.5 -97t-10 -115.5q-41 -222 -212.5 -326t-477.5 -104q-234 0 -381 80.5t-176 235.5
q-9 43 8.5 67.5t65.5 42.5l200 74q47 18 71.5 8.5t41.5 -53.5q35 -109 211 -109q110 0 170 27t72 90q4 24 -5.5 42.5t-27 30.5t-49.5 21.5t-62 15t-75 11.5q-86 13 -148 28t-140.5 51.5t-123.5 87t-68.5 139t-3.5 202.5z" />
    <glyph glyph-name="Scircumflex" unicode="&#x15c;" horiz-adv-x="1323" 
d="M934 1905q55 0 78.5 -10.5t56.5 -51.5l172 -209q14 -17 16.5 -32.5t-12.5 -26t-47 -10.5h-166q-64 0 -88.5 7.5t-42.5 35.5l-45 73l-78 -71q-30 -30 -55 -37.5t-84 -7.5h-164q-32 0 -43.5 10.5t-4 26t27.5 32.5l245 209q50 42 77 52t91 10h66zM139 1061
q37 205 205.5 314.5t458.5 109.5q219 0 341.5 -77t170.5 -226q14 -45 1.5 -65.5t-63.5 -41.5l-200 -80q-46 -19 -67 -10t-36 53q-40 107 -190 107q-103 0 -154.5 -26t-60.5 -81q-4 -26 7.5 -45.5t31 -31.5t57 -21.5t69.5 -15t85 -11.5q41 -6 78 -14t79.5 -21t77.5 -29.5
t71 -40t62 -52t49.5 -65t33 -80t13.5 -97t-10 -115.5q-41 -222 -212.5 -326t-477.5 -104q-234 0 -381 80.5t-176 235.5q-9 43 8.5 67.5t65.5 42.5l200 74q47 18 71.5 8.5t41.5 -53.5q35 -109 211 -109q110 0 170 27t72 90q4 24 -5.5 42.5t-27 30.5t-49.5 21.5t-62 15
t-75 11.5q-86 13 -148 28t-140.5 51.5t-123.5 87t-68.5 139t-3.5 202.5z" />
    <glyph glyph-name="Scircumflex" unicode="&#x15d;" horiz-adv-x="1323" 
d="M934 1905q55 0 78.5 -10.5t56.5 -51.5l172 -209q14 -17 16.5 -32.5t-12.5 -26t-47 -10.5h-166q-64 0 -88.5 7.5t-42.5 35.5l-45 73l-78 -71q-30 -30 -55 -37.5t-84 -7.5h-164q-32 0 -43.5 10.5t-4 26t27.5 32.5l245 209q50 42 77 52t91 10h66zM139 1061
q37 205 205.5 314.5t458.5 109.5q219 0 341.5 -77t170.5 -226q14 -45 1.5 -65.5t-63.5 -41.5l-200 -80q-46 -19 -67 -10t-36 53q-40 107 -190 107q-103 0 -154.5 -26t-60.5 -81q-4 -26 7.5 -45.5t31 -31.5t57 -21.5t69.5 -15t85 -11.5q41 -6 78 -14t79.5 -21t77.5 -29.5
t71 -40t62 -52t49.5 -65t33 -80t13.5 -97t-10 -115.5q-41 -222 -212.5 -326t-477.5 -104q-234 0 -381 80.5t-176 235.5q-9 43 8.5 67.5t65.5 42.5l200 74q47 18 71.5 8.5t41.5 -53.5q35 -109 211 -109q110 0 170 27t72 90q4 24 -5.5 42.5t-27 30.5t-49.5 21.5t-62 15
t-75 11.5q-86 13 -148 28t-140.5 51.5t-123.5 87t-68.5 139t-3.5 202.5z" />
    <glyph glyph-name="Scedilla" unicode="&#x15e;" horiz-adv-x="1323" 
d="M760 1145q-103 0 -154.5 -26t-60.5 -81q-4 -26 7.5 -45.5t31 -31.5t57 -21.5t69.5 -15t85 -11.5q41 -6 78 -14t79.5 -21t77.5 -29.5t71 -40t62 -52t49.5 -65t33 -80t13.5 -97t-10 -115.5q-36 -196 -174 -300t-379 -124l-37 -69h19q85 -1 121 -59.5t12 -143.5
q-22 -77 -79 -124.5t-121.5 -64t-143.5 -16.5q-87 0 -150 23q-28 12 -37 25.5t-6 37.5l17 86q10 67 69 33q57 -31 109 -31q68 0 78 47q3 24 -12.5 34t-65.5 11h-43q-29 0 -32.5 15t16.5 47l88 145q-208 9 -338.5 89t-157.5 225q-9 43 8.5 67.5t65.5 42.5l200 74
q47 18 71.5 8.5t41.5 -53.5q35 -109 211 -109q110 0 170 27t72 90q4 24 -5.5 42.5t-27 30.5t-49.5 21.5t-62 15t-75 11.5q-86 13 -148 28t-140.5 51.5t-123.5 87t-68.5 139t-3.5 202.5q37 205 205.5 314.5t458.5 109.5q219 0 341.5 -77t170.5 -226q14 -45 1.5 -65.5
t-63.5 -41.5l-200 -80q-46 -19 -67 -10t-36 53q-40 107 -190 107z" />
    <glyph glyph-name="Scedilla" unicode="&#x15f;" horiz-adv-x="1323" 
d="M760 1145q-103 0 -154.5 -26t-60.5 -81q-4 -26 7.5 -45.5t31 -31.5t57 -21.5t69.5 -15t85 -11.5q41 -6 78 -14t79.5 -21t77.5 -29.5t71 -40t62 -52t49.5 -65t33 -80t13.5 -97t-10 -115.5q-36 -196 -174 -300t-379 -124l-37 -69h19q85 -1 121 -59.5t12 -143.5
q-22 -77 -79 -124.5t-121.5 -64t-143.5 -16.5q-87 0 -150 23q-28 12 -37 25.5t-6 37.5l17 86q10 67 69 33q57 -31 109 -31q68 0 78 47q3 24 -12.5 34t-65.5 11h-43q-29 0 -32.5 15t16.5 47l88 145q-208 9 -338.5 89t-157.5 225q-9 43 8.5 67.5t65.5 42.5l200 74
q47 18 71.5 8.5t41.5 -53.5q35 -109 211 -109q110 0 170 27t72 90q4 24 -5.5 42.5t-27 30.5t-49.5 21.5t-62 15t-75 11.5q-86 13 -148 28t-140.5 51.5t-123.5 87t-68.5 139t-3.5 202.5q37 205 205.5 314.5t458.5 109.5q219 0 341.5 -77t170.5 -226q14 -45 1.5 -65.5
t-63.5 -41.5l-200 -80q-46 -19 -67 -10t-36 53q-40 107 -190 107z" />
    <glyph glyph-name="Scaron" unicode="&#x160;" horiz-adv-x="1323" 
d="M1249 1905q32 0 42 -11.5t2 -27.5t-29 -33l-242 -209q-49 -41 -75 -50t-89 -9h-55q-60 0 -83 9.5t-56 49.5l-170 209q-14 18 -17 33.5t9.5 27t43.5 11.5h172q62 0 84.5 -8t42.5 -37l52 -70l71 70q30 29 57 37t87 8h153zM139 1061q37 205 205.5 314.5t458.5 109.5
q219 0 341.5 -77t170.5 -226q14 -45 1.5 -65.5t-63.5 -41.5l-200 -80q-46 -19 -67 -10t-36 53q-40 107 -190 107q-103 0 -154.5 -26t-60.5 -81q-4 -26 7.5 -45.5t31 -31.5t57 -21.5t69.5 -15t85 -11.5q41 -6 78 -14t79.5 -21t77.5 -29.5t71 -40t62 -52t49.5 -65t33 -80
t13.5 -97t-10 -115.5q-41 -222 -212.5 -326t-477.5 -104q-234 0 -381 80.5t-176 235.5q-9 43 8.5 67.5t65.5 42.5l200 74q47 18 71.5 8.5t41.5 -53.5q35 -109 211 -109q110 0 170 27t72 90q4 24 -5.5 42.5t-27 30.5t-49.5 21.5t-62 15t-75 11.5q-86 13 -148 28t-140.5 51.5
t-123.5 87t-68.5 139t-3.5 202.5z" />
    <glyph glyph-name="Scaron" unicode="&#x161;" horiz-adv-x="1323" 
d="M1249 1905q32 0 42 -11.5t2 -27.5t-29 -33l-242 -209q-49 -41 -75 -50t-89 -9h-55q-60 0 -83 9.5t-56 49.5l-170 209q-14 18 -17 33.5t9.5 27t43.5 11.5h172q62 0 84.5 -8t42.5 -37l52 -70l71 70q30 29 57 37t87 8h153zM139 1061q37 205 205.5 314.5t458.5 109.5
q219 0 341.5 -77t170.5 -226q14 -45 1.5 -65.5t-63.5 -41.5l-200 -80q-46 -19 -67 -10t-36 53q-40 107 -190 107q-103 0 -154.5 -26t-60.5 -81q-4 -26 7.5 -45.5t31 -31.5t57 -21.5t69.5 -15t85 -11.5q41 -6 78 -14t79.5 -21t77.5 -29.5t71 -40t62 -52t49.5 -65t33 -80
t13.5 -97t-10 -115.5q-41 -222 -212.5 -326t-477.5 -104q-234 0 -381 80.5t-176 235.5q-9 43 8.5 67.5t65.5 42.5l200 74q47 18 71.5 8.5t41.5 -53.5q35 -109 211 -109q110 0 170 27t72 90q4 24 -5.5 42.5t-27 30.5t-49.5 21.5t-62 15t-75 11.5q-86 13 -148 28t-140.5 51.5
t-123.5 87t-68.5 139t-3.5 202.5z" />
    <glyph glyph-name="uni0163" unicode="&#x163;" horiz-adv-x="1241" 
d="M1274 1454q47 0 63.5 -19.5t8.5 -66.5l-33 -184q-9 -49 -31 -67.5t-72 -18.5h-305l-176 -1012q-9 -47 -32 -66.5t-70 -19.5h-232q-49 0 -64.5 19t-6.5 67l178 1012h-305q-49 0 -64.5 18t-7.5 68l33 184q9 48 31 67t71 19h1014zM500 -465q-19 -37 -42 -52t-63 -15h-131
q-32 0 -41.5 13.5t0.5 47.5l84 287q12 46 36 66t69 20h182q102 0 55 -86z" />
    <glyph glyph-name="uni0163" unicode="&#x21a;" horiz-adv-x="1241" 
d="M1274 1454q47 0 63.5 -19.5t8.5 -66.5l-33 -184q-9 -49 -31 -67.5t-72 -18.5h-305l-176 -1012q-9 -47 -32 -66.5t-70 -19.5h-232q-49 0 -64.5 19t-6.5 67l178 1012h-305q-49 0 -64.5 18t-7.5 68l33 184q9 48 31 67t71 19h1014zM500 -465q-19 -37 -42 -52t-63 -15h-131
q-32 0 -41.5 13.5t0.5 47.5l84 287q12 46 36 66t69 20h182q102 0 55 -86z" />
    <glyph glyph-name="Tcaron" unicode="&#x164;" horiz-adv-x="1241" 
d="M1202 1884q32 0 42 -11.5t2 -27.5t-29 -33l-242 -208q-49 -41 -75.5 -50.5t-88.5 -9.5h-55q-60 0 -83.5 10t-56.5 50l-170 208q-13 18 -16.5 33.5t9.5 27t44 11.5h172q62 0 84.5 -8t42.5 -37l52 -70l71 70q30 29 57 37t87 8h153zM1274 1454q47 0 63.5 -19.5t8.5 -66.5
l-33 -184q-9 -49 -31 -67.5t-72 -18.5h-305l-176 -1012q-9 -47 -32 -66.5t-70 -19.5h-232q-49 0 -64.5 19t-6.5 67l178 1012h-305q-49 0 -64.5 18t-7.5 68l33 184q9 48 31 67t71 19h1014z" />
    <glyph glyph-name="Tcaron" unicode="&#x165;" horiz-adv-x="1241" 
d="M1202 1884q32 0 42 -11.5t2 -27.5t-29 -33l-242 -208q-49 -41 -75.5 -50.5t-88.5 -9.5h-55q-60 0 -83.5 10t-56.5 50l-170 208q-13 18 -16.5 33.5t9.5 27t44 11.5h172q62 0 84.5 -8t42.5 -37l52 -70l71 70q30 29 57 37t87 8h153zM1274 1454q47 0 63.5 -19.5t8.5 -66.5
l-33 -184q-9 -49 -31 -67.5t-72 -18.5h-305l-176 -1012q-9 -47 -32 -66.5t-70 -19.5h-232q-49 0 -64.5 19t-6.5 67l178 1012h-305q-49 0 -64.5 18t-7.5 68l33 184q9 48 31 67t71 19h1014z" />
    <glyph glyph-name="Tbar" unicode="&#x166;" horiz-adv-x="1267" 
d="M1286 1454q49 0 65 -19.5t7 -66.5l-33 -184q-7 -49 -29.5 -67.5t-72.5 -18.5h-303l-60 -336h197q29 0 37 -11t2 -42l-23 -138q-6 -32 -18.5 -42.5t-42.5 -10.5h-195l-76 -432q-9 -48 -31 -67t-71 -19h-231q-49 0 -64.5 19t-7.5 67l76 432h-195q-30 0 -38.5 10.5
t-2.5 42.5l23 138q6 30 20 41.5t41 11.5h195l59 336h-305q-48 0 -63.5 18.5t-6.5 67.5l31 184q9 48 31 67t71 19h1014z" />
    <glyph glyph-name="Tbar" unicode="&#x167;" horiz-adv-x="1267" 
d="M1286 1454q49 0 65 -19.5t7 -66.5l-33 -184q-7 -49 -29.5 -67.5t-72.5 -18.5h-303l-60 -336h197q29 0 37 -11t2 -42l-23 -138q-6 -32 -18.5 -42.5t-42.5 -10.5h-195l-76 -432q-9 -48 -31 -67t-71 -19h-231q-49 0 -64.5 19t-7.5 67l76 432h-195q-30 0 -38.5 10.5
t-2.5 42.5l23 138q6 30 20 41.5t41 11.5h195l59 336h-305q-48 0 -63.5 18.5t-6.5 67.5l31 184q9 48 31 67t71 19h1014z" />
    <glyph glyph-name="Utilde" unicode="&#x168;" horiz-adv-x="1425" 
d="M1231 1862q27 0 35.5 -11t3.5 -36q-24 -138 -83 -195t-161 -57q-52 0 -94.5 13.5t-65.5 29.5t-49.5 29.5t-48.5 13.5q-28 0 -37 -45q-6 -41 -47 -41h-125q-48 0 -39 47q23 139 83.5 195.5t156.5 56.5q53 0 97 -13t68 -29t50 -29t47 -13q31 0 39 45q5 22 14.5 30.5
t30.5 8.5h125zM481 516q-15 -91 30.5 -139.5t150.5 -48.5t166.5 48t76.5 140l152 852q9 48 31 67t71 19h232q47 0 63 -19.5t8 -66.5l-153 -866q-46 -260 -224.5 -396.5t-478.5 -136.5q-119 0 -215 29.5t-160 82.5t-104.5 127.5t-48.5 165t8 193.5l141 801q9 48 31.5 67
t71.5 19h231q47 0 63.5 -19.5t8.5 -66.5z" />
    <glyph glyph-name="Utilde" unicode="&#x169;" horiz-adv-x="1425" 
d="M1231 1862q27 0 35.5 -11t3.5 -36q-24 -138 -83 -195t-161 -57q-52 0 -94.5 13.5t-65.5 29.5t-49.5 29.5t-48.5 13.5q-28 0 -37 -45q-6 -41 -47 -41h-125q-48 0 -39 47q23 139 83.5 195.5t156.5 56.5q53 0 97 -13t68 -29t50 -29t47 -13q31 0 39 45q5 22 14.5 30.5
t30.5 8.5h125zM481 516q-15 -91 30.5 -139.5t150.5 -48.5t166.5 48t76.5 140l152 852q9 48 31 67t71 19h232q47 0 63 -19.5t8 -66.5l-153 -866q-46 -260 -224.5 -396.5t-478.5 -136.5q-119 0 -215 29.5t-160 82.5t-104.5 127.5t-48.5 165t8 193.5l141 801q9 48 31.5 67
t71.5 19h231q47 0 63.5 -19.5t8.5 -66.5z" />
    <glyph glyph-name="Umacron" unicode="&#x16a;" horiz-adv-x="1425" 
d="M1174 1827q45 0 57.5 -15t5.5 -59l-16 -86q-7 -44 -25.5 -59t-62.5 -15h-498q-43 0 -56 15t-4 59l15 86q7 43 26 58.5t60 15.5h498zM481 516q-15 -91 30.5 -139.5t150.5 -48.5t166.5 48t76.5 140l152 852q9 48 31 67t71 19h232q47 0 63 -19.5t8 -66.5l-153 -866
q-46 -260 -224.5 -396.5t-478.5 -136.5q-119 0 -215 29.5t-160 82.5t-104.5 127.5t-48.5 165t8 193.5l141 801q9 48 31.5 67t71.5 19h231q47 0 63.5 -19.5t8.5 -66.5z" />
    <glyph glyph-name="Umacron" unicode="&#x16b;" horiz-adv-x="1425" 
d="M1174 1827q45 0 57.5 -15t5.5 -59l-16 -86q-7 -44 -25.5 -59t-62.5 -15h-498q-43 0 -56 15t-4 59l15 86q7 43 26 58.5t60 15.5h498zM481 516q-15 -91 30.5 -139.5t150.5 -48.5t166.5 48t76.5 140l152 852q9 48 31 67t71 19h232q47 0 63 -19.5t8 -66.5l-153 -866
q-46 -260 -224.5 -396.5t-478.5 -136.5q-119 0 -215 29.5t-160 82.5t-104.5 127.5t-48.5 165t8 193.5l141 801q9 48 31.5 67t71.5 19h231q47 0 63.5 -19.5t8.5 -66.5z" />
    <glyph glyph-name="Ubreve" unicode="&#x16c;" horiz-adv-x="1425" 
d="M1278 1761q-59 -105 -162 -161t-239 -56q-133 0 -216.5 56.5t-105.5 160.5q-6 29 4.5 44.5t42.5 27.5l146 51q35 12 47.5 7.5t23.5 -31.5q27 -68 103 -68q70 0 120 68q20 26 34.5 30.5t45.5 -4.5l133 -53q28 -10 33 -26.5t-10 -45.5zM481 516q-15 -91 30.5 -139.5
t150.5 -48.5t166.5 48t76.5 140l152 852q9 48 31 67t71 19h232q47 0 63 -19.5t8 -66.5l-153 -866q-46 -260 -224.5 -396.5t-478.5 -136.5q-119 0 -215 29.5t-160 82.5t-104.5 127.5t-48.5 165t8 193.5l141 801q9 48 31.5 67t71.5 19h231q47 0 63.5 -19.5t8.5 -66.5z" />
    <glyph glyph-name="Ubreve" unicode="&#x16d;" horiz-adv-x="1425" 
d="M1278 1761q-59 -105 -162 -161t-239 -56q-133 0 -216.5 56.5t-105.5 160.5q-6 29 4.5 44.5t42.5 27.5l146 51q35 12 47.5 7.5t23.5 -31.5q27 -68 103 -68q70 0 120 68q20 26 34.5 30.5t45.5 -4.5l133 -53q28 -10 33 -26.5t-10 -45.5zM481 516q-15 -91 30.5 -139.5
t150.5 -48.5t166.5 48t76.5 140l152 852q9 48 31 67t71 19h232q47 0 63 -19.5t8 -66.5l-153 -866q-46 -260 -224.5 -396.5t-478.5 -136.5q-119 0 -215 29.5t-160 82.5t-104.5 127.5t-48.5 165t8 193.5l141 801q9 48 31.5 67t71.5 19h231q47 0 63.5 -19.5t8.5 -66.5z" />
    <glyph glyph-name="Uring" unicode="&#x16e;" horiz-adv-x="1425" 
d="M649 1765q20 112 105 176t204 64q117 0 178 -65.5t42 -174.5q-20 -109 -103.5 -173t-200.5 -64q-118 0 -180.5 63.5t-44.5 173.5zM987 1765q6 33 -10 53.5t-47 20.5q-37 0 -61.5 -20t-30.5 -54q-5 -31 13 -51t54 -20q31 0 54.5 19.5t27.5 51.5zM481 516
q-15 -91 30.5 -139.5t150.5 -48.5t166.5 48t76.5 140l152 852q9 48 31 67t71 19h232q47 0 63 -19.5t8 -66.5l-153 -866q-46 -260 -224.5 -396.5t-478.5 -136.5q-119 0 -215 29.5t-160 82.5t-104.5 127.5t-48.5 165t8 193.5l141 801q9 48 31.5 67t71.5 19h231
q47 0 63.5 -19.5t8.5 -66.5z" />
    <glyph glyph-name="Uring" unicode="&#x16f;" horiz-adv-x="1425" 
d="M649 1765q20 112 105 176t204 64q117 0 178 -65.5t42 -174.5q-20 -109 -103.5 -173t-200.5 -64q-118 0 -180.5 63.5t-44.5 173.5zM987 1765q6 33 -10 53.5t-47 20.5q-37 0 -61.5 -20t-30.5 -54q-5 -31 13 -51t54 -20q31 0 54.5 19.5t27.5 51.5zM481 516
q-15 -91 30.5 -139.5t150.5 -48.5t166.5 48t76.5 140l152 852q9 48 31 67t71 19h232q47 0 63 -19.5t8 -66.5l-153 -866q-46 -260 -224.5 -396.5t-478.5 -136.5q-119 0 -215 29.5t-160 82.5t-104.5 127.5t-48.5 165t8 193.5l141 801q9 48 31.5 67t71.5 19h231
q47 0 63.5 -19.5t8.5 -66.5z" />
    <glyph glyph-name="Uhungarumlaut" unicode="&#x170;" horiz-adv-x="1425" 
d="M530 1565q-68 14 -12 77l180 195q61 70 144 53l131 -30q39 -9 40.5 -34.5t-34.5 -51.5l-264 -195q-33 -25 -51.5 -31.5t-45.5 0.5zM926 1563q-36 7 -37 30t26 47l191 197q35 37 67.5 49t73.5 0l135 -37q26 -8 36 -22.5t2.5 -32t-31.5 -33.5l-283 -188
q-32 -24 -50.5 -30.5t-43.5 -0.5zM481 516q-15 -91 30.5 -139.5t150.5 -48.5t166.5 48t76.5 140l152 852q9 48 31 67t71 19h232q47 0 63 -19.5t8 -66.5l-153 -866q-46 -260 -224.5 -396.5t-478.5 -136.5q-119 0 -215 29.5t-160 82.5t-104.5 127.5t-48.5 165t8 193.5l141 801
q9 48 31.5 67t71.5 19h231q47 0 63.5 -19.5t8.5 -66.5z" />
    <glyph glyph-name="Uhungarumlaut" unicode="&#x171;" horiz-adv-x="1425" 
d="M530 1565q-68 14 -12 77l180 195q61 70 144 53l131 -30q39 -9 40.5 -34.5t-34.5 -51.5l-264 -195q-33 -25 -51.5 -31.5t-45.5 0.5zM926 1563q-36 7 -37 30t26 47l191 197q35 37 67.5 49t73.5 0l135 -37q26 -8 36 -22.5t2.5 -32t-31.5 -33.5l-283 -188
q-32 -24 -50.5 -30.5t-43.5 -0.5zM481 516q-15 -91 30.5 -139.5t150.5 -48.5t166.5 48t76.5 140l152 852q9 48 31 67t71 19h232q47 0 63 -19.5t8 -66.5l-153 -866q-46 -260 -224.5 -396.5t-478.5 -136.5q-119 0 -215 29.5t-160 82.5t-104.5 127.5t-48.5 165t8 193.5l141 801
q9 48 31.5 67t71.5 19h231q47 0 63.5 -19.5t8.5 -66.5z" />
    <glyph glyph-name="Uogonek" unicode="&#x172;" horiz-adv-x="1425" 
d="M1391 1454q47 0 63 -19.5t8 -66.5l-153 -866q-24 -133 -81 -229t-157 -177q-71 -58 -122.5 -114t-76 -98t-35 -71t-10.5 -49q-1 -17 7.5 -27.5t23.5 -10.5q22 0 39 10q38 24 47 -12l27 -103q8 -37 -23 -59q-97 -66 -241 -66q-38 0 -70.5 7.5t-61 23.5t-45.5 46.5
t-18 72.5q-3 162 190 327q-33 -4 -96 -4q-119 0 -215 29.5t-160 82.5t-104.5 127.5t-48.5 165t8 193.5l141 801q9 48 31.5 67t71.5 19h231q47 0 63.5 -19.5t8.5 -66.5l-152 -852q-15 -91 30.5 -139.5t150.5 -48.5t166.5 48t76.5 140l152 852q9 48 31 67t71 19h232z" />
    <glyph glyph-name="Uogonek" unicode="&#x173;" horiz-adv-x="1425" 
d="M1391 1454q47 0 63 -19.5t8 -66.5l-153 -866q-24 -133 -81 -229t-157 -177q-71 -58 -122.5 -114t-76 -98t-35 -71t-10.5 -49q-1 -17 7.5 -27.5t23.5 -10.5q22 0 39 10q38 24 47 -12l27 -103q8 -37 -23 -59q-97 -66 -241 -66q-38 0 -70.5 7.5t-61 23.5t-45.5 46.5
t-18 72.5q-3 162 190 327q-33 -4 -96 -4q-119 0 -215 29.5t-160 82.5t-104.5 127.5t-48.5 165t8 193.5l141 801q9 48 31.5 67t71.5 19h231q47 0 63.5 -19.5t8.5 -66.5l-152 -852q-15 -91 30.5 -139.5t150.5 -48.5t166.5 48t76.5 140l152 852q9 48 31 67t71 19h232z" />
    <glyph glyph-name="Wcircumflex" unicode="&#x174;" horiz-adv-x="1923" 
d="M1235 1884q55 0 78.5 -10t56.5 -51l172 -209q14 -17 16.5 -32.5t-12.5 -26.5t-47 -11h-166q-64 0 -88.5 7.5t-42.5 35.5l-45 74l-78 -72q-30 -30 -55 -37.5t-84 -7.5h-164q-32 0 -43.5 11t-4 26.5t27.5 32.5l245 209q50 41 77 51t91 10h66zM1985 1454q44 0 51.5 -20.5
t-11.5 -63.5l-540 -1298q-18 -42 -45.5 -57t-73.5 -15h-252q-47 0 -70 15t-24 53l-27 479q-6 178 27 368h-19q-42 -197 -106 -368l-195 -475q-21 -42 -48 -57t-72 -15h-244q-47 0 -69 14.5t-25 53.5l-84 1302q-3 46 10.5 65t58.5 19h248q57 0 79.5 -15t25.5 -61l-5 -536
q0 -73 -12 -190.5t-22 -172.5h14q43 216 102 363l224 536q18 47 45.5 61.5t81.5 14.5h217q51 0 75 -15.5t27 -60.5l29 -536q7 -140 -23 -363h15q39 186 94 363l182 536q17 46 44.5 61t84.5 15h232z" />
    <glyph glyph-name="Wcircumflex" unicode="&#x175;" horiz-adv-x="1923" 
d="M1235 1884q55 0 78.5 -10t56.5 -51l172 -209q14 -17 16.5 -32.5t-12.5 -26.5t-47 -11h-166q-64 0 -88.5 7.5t-42.5 35.5l-45 74l-78 -72q-30 -30 -55 -37.5t-84 -7.5h-164q-32 0 -43.5 11t-4 26.5t27.5 32.5l245 209q50 41 77 51t91 10h66zM1985 1454q44 0 51.5 -20.5
t-11.5 -63.5l-540 -1298q-18 -42 -45.5 -57t-73.5 -15h-252q-47 0 -70 15t-24 53l-27 479q-6 178 27 368h-19q-42 -197 -106 -368l-195 -475q-21 -42 -48 -57t-72 -15h-244q-47 0 -69 14.5t-25 53.5l-84 1302q-3 46 10.5 65t58.5 19h248q57 0 79.5 -15t25.5 -61l-5 -536
q0 -73 -12 -190.5t-22 -172.5h14q43 216 102 363l224 536q18 47 45.5 61.5t81.5 14.5h217q51 0 75 -15.5t27 -60.5l29 -536q7 -140 -23 -363h15q39 186 94 363l182 536q17 46 44.5 61t84.5 15h232z" />
    <glyph glyph-name="Ycircumflex" unicode="&#x176;" horiz-adv-x="1386" 
d="M967 1884q55 0 78.5 -10t56.5 -51l172 -209q14 -17 16.5 -32.5t-12.5 -26.5t-47 -11h-166q-64 0 -88.5 7.5t-42.5 35.5l-45 74l-78 -72q-30 -30 -55 -37.5t-84 -7.5h-164q-48 0 -50.5 22.5t29.5 47.5l246 209q50 41 77 51t91 10h66zM1473 1454q45 0 51.5 -25.5
t-23.5 -60.5l-614 -805l-84 -477q-8 -47 -31 -66.5t-72 -19.5h-229q-49 0 -65 19.5t-7 66.5l84 477l-329 805q-17 35 -2.5 60.5t59.5 25.5h238q81 0 109.5 -12t47.5 -64l146 -420l301 420q37 52 68.5 64t111.5 12h240z" />
    <glyph glyph-name="Ycircumflex" unicode="&#x177;" horiz-adv-x="1386" 
d="M967 1884q55 0 78.5 -10t56.5 -51l172 -209q14 -17 16.5 -32.5t-12.5 -26.5t-47 -11h-166q-64 0 -88.5 7.5t-42.5 35.5l-45 74l-78 -72q-30 -30 -55 -37.5t-84 -7.5h-164q-48 0 -50.5 22.5t29.5 47.5l246 209q50 41 77 51t91 10h66zM1473 1454q45 0 51.5 -25.5
t-23.5 -60.5l-614 -805l-84 -477q-8 -47 -31 -66.5t-72 -19.5h-229q-49 0 -65 19.5t-7 66.5l84 477l-329 805q-17 35 -2.5 60.5t59.5 25.5h238q81 0 109.5 -12t47.5 -64l146 -420l301 420q37 52 68.5 64t111.5 12h240z" />
    <glyph glyph-name="Zacute" unicode="&#x179;" horiz-adv-x="1255" 
d="M883 1872q92 49 135 -6l82 -119q23 -29 17.5 -49t-44.5 -33l-391 -115q-37 -12 -59 -10.5t-35 21.5l-41 67q-14 20 -16.5 33.5t5 24t27.5 20.5zM1249 1454q47 0 63.5 -19.5t8.5 -66.5l-23 -123q-7 -48 -43 -90l-716 -797h528q50 0 65.5 -18.5t6.5 -67.5l-33 -186
q-9 -47 -32 -66.5t-70 -19.5h-971q-47 0 -63 19.5t-7 66.5l21 125q8 48 43 86l714 801h-503q-49 0 -64.5 18t-7.5 68l33 184q9 48 31 67t69 19h950z" />
    <glyph glyph-name="Zacute" unicode="&#x17a;" horiz-adv-x="1255" 
d="M883 1872q92 49 135 -6l82 -119q23 -29 17.5 -49t-44.5 -33l-391 -115q-37 -12 -59 -10.5t-35 21.5l-41 67q-14 20 -16.5 33.5t5 24t27.5 20.5zM1249 1454q47 0 63.5 -19.5t8.5 -66.5l-23 -123q-7 -48 -43 -90l-716 -797h528q50 0 65.5 -18.5t6.5 -67.5l-33 -186
q-9 -47 -32 -66.5t-70 -19.5h-971q-47 0 -63 19.5t-7 66.5l21 125q8 48 43 86l714 801h-503q-49 0 -64.5 18t-7.5 68l33 184q9 48 31 67t69 19h950z" />
    <glyph glyph-name="Zdotaccent" unicode="&#x17b;" horiz-adv-x="1255" 
d="M868 1874q89 0 115 -32t12 -122l-4 -16q-15 -89 -53 -121.5t-127 -32.5h-12q-89 0 -115.5 32.5t-11.5 121.5l4 16q15 89 53 121.5t127 32.5h12zM1249 1454q47 0 63.5 -19.5t8.5 -66.5l-23 -123q-7 -48 -43 -90l-716 -797h528q50 0 65.5 -18.5t6.5 -67.5l-33 -186
q-9 -47 -32 -66.5t-70 -19.5h-971q-47 0 -63 19.5t-7 66.5l21 125q8 48 43 86l714 801h-503q-49 0 -64.5 18t-7.5 68l33 184q9 48 31 67t69 19h950z" />
    <glyph glyph-name="Zdotaccent" unicode="&#x17c;" horiz-adv-x="1255" 
d="M868 1874q89 0 115 -32t12 -122l-4 -16q-15 -89 -53 -121.5t-127 -32.5h-12q-89 0 -115.5 32.5t-11.5 121.5l4 16q15 89 53 121.5t127 32.5h12zM1249 1454q47 0 63.5 -19.5t8.5 -66.5l-23 -123q-7 -48 -43 -90l-716 -797h528q50 0 65.5 -18.5t6.5 -67.5l-33 -186
q-9 -47 -32 -66.5t-70 -19.5h-971q-47 0 -63 19.5t-7 66.5l21 125q8 48 43 86l714 801h-503q-49 0 -64.5 18t-7.5 68l33 184q9 48 31 67t69 19h950z" />
    <glyph glyph-name="Zcaron" unicode="&#x17d;" horiz-adv-x="1255" 
d="M1221 1884q32 0 42 -11.5t1.5 -27.5t-29.5 -33l-242 -208q-49 -41 -75.5 -50.5t-88.5 -9.5h-55q-60 0 -83 9.5t-56 50.5l-170 208q-13 18 -16.5 33.5t9.5 27t44 11.5h172q62 0 84.5 -8t42.5 -37l51 -70l72 70q30 29 56.5 37t86.5 8h154zM1249 1454q47 0 63.5 -19.5
t8.5 -66.5l-23 -123q-7 -48 -43 -90l-716 -797h528q50 0 65.5 -18.5t6.5 -67.5l-33 -186q-9 -47 -32 -66.5t-70 -19.5h-971q-47 0 -63 19.5t-7 66.5l21 125q8 48 43 86l714 801h-503q-49 0 -64.5 18t-7.5 68l33 184q9 48 31 67t69 19h950z" />
    <glyph glyph-name="Zcaron" unicode="&#x17e;" horiz-adv-x="1255" 
d="M1221 1884q32 0 42 -11.5t1.5 -27.5t-29.5 -33l-242 -208q-49 -41 -75.5 -50.5t-88.5 -9.5h-55q-60 0 -83 9.5t-56 50.5l-170 208q-13 18 -16.5 33.5t9.5 27t44 11.5h172q62 0 84.5 -8t42.5 -37l51 -70l72 70q30 29 56.5 37t86.5 8h154zM1249 1454q47 0 63.5 -19.5
t8.5 -66.5l-23 -123q-7 -48 -43 -90l-716 -797h528q50 0 65.5 -18.5t6.5 -67.5l-33 -186q-9 -47 -32 -66.5t-70 -19.5h-971q-47 0 -63 19.5t-7 66.5l21 125q8 48 43 86l714 801h-503q-49 0 -64.5 18t-7.5 68l33 184q9 48 31 67t69 19h950z" />
    <glyph glyph-name="florin" unicode="&#x192;" horiz-adv-x="950" 
d="M348 1049q88 467 598 467q45 0 61 -17.5t13 -62.5l-16 -174q-3 -45 -22 -62.5t-64 -17.5q-91 0 -133 -36.5t-60 -123.5l-29 -154h154q44 0 59.5 -17.5t12.5 -62.5l-17 -178q-3 -43 -22 -60.5t-62 -17.5h-188l-96 -499q-44 -232 -193.5 -358t-406.5 -126q-44 0 -59.5 17.5
t-12.5 62.5l16 174q3 45 22 62.5t64 17.5q90 0 132.5 38.5t58.5 121.5l94 489h-135q-43 0 -59 17.5t-13 60.5l16 178q5 45 23.5 62.5t62.5 17.5h168z" />
    <glyph glyph-name="Aringacute" unicode="&#x1fa;" horiz-adv-x="1415" 
d="M989 2017q89 38 127 0l78 -92q22 -23 17 -37.5t-40 -21.5l-360 -86q-36 -8 -56.5 -7.5t-31.5 13.5l-45 61q-17 21 -7 38t40 28zM563 1493q22 123 116.5 187.5t229.5 64.5q131 0 201 -74t49 -198q-14 -89 -100 -150l250 -1239q18 -84 -74 -84h-215q-76 0 -105 19t-34 67
l-19 147h-444l-74 -147q-24 -49 -57.5 -67.5t-106.5 -18.5h-221q-91 0 -41 84l690 1239q-29 28 -41.5 75.5t-3.5 94.5zM944 1481q7 38 -11 61t-54 23q-41 0 -69 -23t-36 -61q-5 -36 15.5 -60t60.5 -24q34 0 61 23t33 61zM791 795q-6 72 -4 136t7 108l5 44h-21
q-24 -147 -90 -286l-119 -242h256z" />
    <glyph glyph-name="Aringacute" unicode="&#x1fb;" horiz-adv-x="1415" 
d="M989 2017q89 38 127 0l78 -92q22 -23 17 -37.5t-40 -21.5l-360 -86q-36 -8 -56.5 -7.5t-31.5 13.5l-45 61q-17 21 -7 38t40 28zM563 1493q22 123 116.5 187.5t229.5 64.5q131 0 201 -74t49 -198q-14 -89 -100 -150l250 -1239q18 -84 -74 -84h-215q-76 0 -105 19t-34 67
l-19 147h-444l-74 -147q-24 -49 -57.5 -67.5t-106.5 -18.5h-221q-91 0 -41 84l690 1239q-29 28 -41.5 75.5t-3.5 94.5zM944 1481q7 38 -11 61t-54 23q-41 0 -69 -23t-36 -61q-5 -36 15.5 -60t60.5 -24q34 0 61 23t33 61zM791 795q-6 72 -4 136t7 108l5 44h-21
q-24 -147 -90 -286l-119 -242h256z" />
    <glyph glyph-name="AEacute" unicode="&#x1fc;" horiz-adv-x="1861" 
d="M1565 1872q92 49 135 -6l82 -119q23 -29 17.5 -49t-44.5 -33l-391 -115q-37 -12 -59 -10.5t-35 21.5l-41 67q-14 20 -16.5 33.5t5 24t27.5 20.5zM1677 358q50 0 65.5 -18.5t6.5 -67.5l-33 -186q-9 -48 -31 -67t-71 -19h-694q-49 0 -65 19.5t-7 66.5l22 129h-411
l-111 -139q-36 -45 -67 -60.5t-107 -15.5h-223q-47 0 -58 23t17 61l1057 1298q36 44 56.5 58t61.5 14h768q47 0 63.5 -19.5t8.5 -66.5l-33 -184q-9 -49 -30.5 -67.5t-71.5 -18.5h-401l-31 -185h291q49 0 64.5 -19t6.5 -69l-32 -182q-7 -49 -30 -68.5t-73 -19.5h-291
l-34 -197h417zM1016 946l-303 -422h213z" />
    <glyph glyph-name="AEacute" unicode="&#x1fd;" horiz-adv-x="1861" 
d="M1565 1872q92 49 135 -6l82 -119q23 -29 17.5 -49t-44.5 -33l-391 -115q-37 -12 -59 -10.5t-35 21.5l-41 67q-14 20 -16.5 33.5t5 24t27.5 20.5zM1677 358q50 0 65.5 -18.5t6.5 -67.5l-33 -186q-9 -48 -31 -67t-71 -19h-694q-49 0 -65 19.5t-7 66.5l22 129h-411
l-111 -139q-36 -45 -67 -60.5t-107 -15.5h-223q-47 0 -58 23t17 61l1057 1298q36 44 56.5 58t61.5 14h768q47 0 63.5 -19.5t8.5 -66.5l-33 -184q-9 -49 -30.5 -67.5t-71.5 -18.5h-401l-31 -185h291q49 0 64.5 -19t6.5 -69l-32 -182q-7 -49 -30 -68.5t-73 -19.5h-291
l-34 -197h417zM1016 946l-303 -422h213z" />
    <glyph glyph-name="Oslashacute" unicode="&#x1fe;" horiz-adv-x="1406" 
d="M950 1892q92 49 135 -6l82 -119q23 -29 18 -48.5t-44 -32.5l-391 -115q-37 -12 -59.5 -11t-35.5 21l-41 68q-20 29 -16 45.5t33 31.5zM1507 1542q18 0 21 -11t-10 -26l-195 -233q96 -155 55 -385l-63 -371q-47 -265 -232 -406t-487 -141q-181 0 -305 62l-70 -84
q-18 -23 -31 -28t-49 -5h-190q-19 0 -21 12t11 27l182 221q-101 152 -60 387l66 371q46 265 232 409t487 144q187 0 311 -68l76 92q20 22 32.5 27.5t43.5 5.5h196zM915 1100q-45 26 -122 26q-108 0 -176 -50t-85 -146l-55 -316q-4 -17 -8 -51zM971 877l-439 -527
q49 -22 119 -22q109 0 176 50t82 146l56 303z" />
    <glyph glyph-name="Oslashacute" unicode="&#x1ff;" horiz-adv-x="1406" 
d="M950 1892q92 49 135 -6l82 -119q23 -29 18 -48.5t-44 -32.5l-391 -115q-37 -12 -59.5 -11t-35.5 21l-41 68q-20 29 -16 45.5t33 31.5zM1507 1542q18 0 21 -11t-10 -26l-195 -233q96 -155 55 -385l-63 -371q-47 -265 -232 -406t-487 -141q-181 0 -305 62l-70 -84
q-18 -23 -31 -28t-49 -5h-190q-19 0 -21 12t11 27l182 221q-101 152 -60 387l66 371q46 265 232 409t487 144q187 0 311 -68l76 92q20 22 32.5 27.5t43.5 5.5h196zM915 1100q-45 26 -122 26q-108 0 -176 -50t-85 -146l-55 -316q-4 -17 -8 -51zM971 877l-439 -527
q49 -22 119 -22q109 0 176 50t82 146l56 303z" />
    <glyph glyph-name="uni0218" unicode="&#x218;" horiz-adv-x="1323" 
d="M139 1061q37 205 205.5 314.5t458.5 109.5q219 0 341.5 -77t170.5 -226q14 -45 1.5 -65.5t-63.5 -41.5l-200 -80q-46 -19 -67 -10t-36 53q-40 107 -190 107q-103 0 -154.5 -26t-60.5 -81q-4 -26 7.5 -45.5t31 -31.5t57 -21.5t69.5 -15t85 -11.5q41 -6 78 -14t79.5 -21
t77.5 -29.5t71 -40t62 -52t49.5 -65t33 -80t13.5 -97t-10 -115.5q-41 -222 -212.5 -326t-477.5 -104q-234 0 -381 80.5t-176 235.5q-9 43 8.5 67.5t65.5 42.5l200 74q47 18 71.5 8.5t41.5 -53.5q35 -109 211 -109q110 0 170 27t72 90q4 24 -5.5 42.5t-27 30.5t-49.5 21.5
t-62 15t-75 11.5q-86 13 -148 28t-140.5 51.5t-123.5 87t-68.5 139t-3.5 202.5zM567 -465q-20 -37 -42 -52t-62 -15h-131q-32 0 -41.5 13.5t0.5 47.5l84 287q12 46 35.5 66t68.5 20h183q102 0 55 -86z" />
    <glyph glyph-name="uni0218" unicode="&#x219;" horiz-adv-x="1323" 
d="M139 1061q37 205 205.5 314.5t458.5 109.5q219 0 341.5 -77t170.5 -226q14 -45 1.5 -65.5t-63.5 -41.5l-200 -80q-46 -19 -67 -10t-36 53q-40 107 -190 107q-103 0 -154.5 -26t-60.5 -81q-4 -26 7.5 -45.5t31 -31.5t57 -21.5t69.5 -15t85 -11.5q41 -6 78 -14t79.5 -21
t77.5 -29.5t71 -40t62 -52t49.5 -65t33 -80t13.5 -97t-10 -115.5q-41 -222 -212.5 -326t-477.5 -104q-234 0 -381 80.5t-176 235.5q-9 43 8.5 67.5t65.5 42.5l200 74q47 18 71.5 8.5t41.5 -53.5q35 -109 211 -109q110 0 170 27t72 90q4 24 -5.5 42.5t-27 30.5t-49.5 21.5
t-62 15t-75 11.5q-86 13 -148 28t-140.5 51.5t-123.5 87t-68.5 139t-3.5 202.5zM567 -465q-20 -37 -42 -52t-62 -15h-131q-32 0 -41.5 13.5t0.5 47.5l84 287q12 46 35.5 66t68.5 20h183q102 0 55 -86z" />
    <glyph glyph-name="circumflex" unicode="&#x2c6;" horiz-adv-x="829" 
d="M614 1516q56 0 79 -10.5t57 -51.5l174 -209q23 -25 13 -47t-58 -22h-158q-63 0 -86.5 7.5t-40.5 35.5l-47 73l-76 -71q-30 -30 -55.5 -37.5t-85.5 -7.5h-166q-31 0 -42 10.5t-3.5 26t26.5 32.5l246 209q50 42 77 52t91 10h55z" />
    <glyph glyph-name="caron" unicode="&#x2c7;" horiz-adv-x="864" 
d="M963 1513q31 0 40.5 -10.5t1.5 -25.5t-28 -33l-244 -209q-46 -42 -73.5 -51.5t-90.5 -9.5h-55q-59 0 -81.5 10t-57.5 51l-168 209q-25 25 -18 47t53 22h168q61 0 83.5 -7.5t41.5 -35.5l51 -71l73 69q30 29 57 37t85 8h162z" />
    <glyph glyph-name="breve" unicode="&#x2d8;" horiz-adv-x="595" 
d="M803 1393q-59 -106 -161.5 -161.5t-238.5 -55.5q-134 0 -218.5 56t-104.5 161q-7 29 3.5 44t43.5 27l139 49q35 12 49 7t25 -31q26 -66 102 -66q74 0 125 68q21 25 34.5 30t41.5 -5l135 -52q28 -12 33.5 -27t-8.5 -44z" />
    <glyph glyph-name="dotaccent" unicode="&#x2d9;" horiz-adv-x="458" 
d="M408 1507q90 0 116 -31.5t11 -121.5l-5 -17q-15 -89 -52 -121t-126 -32h-12q-89 0 -116 32t-13 121l4 17q15 89 53 121t127 32h13z" />
    <glyph glyph-name="ring" unicode="&#x2da;" horiz-adv-x="499" 
d="M129 1348q20 113 104.5 175t204.5 62q116 0 177.5 -64t41.5 -173q-20 -108 -103 -171t-200 -63q-118 0 -180.5 62t-44.5 172zM467 1348q6 33 -10 52t-49 19q-36 0 -60.5 -19t-30.5 -52q-5 -31 13 -49.5t53 -18.5q33 0 56.5 18t27.5 50z" />
    <glyph glyph-name="ogonek" unicode="&#x2db;" horiz-adv-x="524" 
d="M350 8q-160 -147 -164 -244q0 -38 31 -38q21 0 39 10q19 12 31.5 8.5t15.5 -20.5l27 -103q8 -40 -23 -59q-97 -66 -241 -66q-38 0 -70 7.5t-60.5 23.5t-45 46.5t-17.5 72.5q-5 168 223 356z" />
    <glyph glyph-name="tilde" unicode="&#x2dc;" horiz-adv-x="632" 
d="M793 1497q28 0 37 -11.5t4 -35.5q-25 -140 -84 -196t-162 -56q-52 0 -94.5 13t-65.5 29t-48.5 29t-47.5 13q-31 0 -39 -45q-5 -39 -45 -39h-127q-26 0 -34 10.5t-5 36.5q25 138 85.5 195t156.5 57q53 0 97 -13.5t67.5 -29.5t49.5 -29.5t48 -13.5q30 0 39 45q3 22 13 31.5
t32 9.5h123z" />
    <glyph glyph-name="hungarumlaut" unicode="&#x2dd;" horiz-adv-x="817" 
d="M178 1188q-69 14 -12 78l178 194q34 37 66.5 49.5t76.5 3.5l131 -28q26 -7 36 -20.5t2.5 -31.5t-29.5 -36l-265 -195q-39 -26 -56 -32t-42 1zM571 1186q-24 5 -31.5 17.5t-1.5 28.5t23 34l191 194q34 38 67 49.5t76 -0.5l135 -36q39 -12 40.5 -38t-34.5 -51l-282 -186
q-34 -25 -53 -31.5t-44 0.5z" />
    <glyph glyph-name="gravecomb" unicode="&#x300;" 
d="M-236 1499q62 57 136 4l256 -172q23 -16 20 -32t-31 -46l-71 -67q-18 -19 -39.5 -19t-54.5 13l-349 123q-33 14 -31 32.5t35 48.5z" />
    <glyph glyph-name="acutecomb" unicode="&#x301;" 
d="M-57 1503q93 51 135 -4l86 -115q24 -29 19 -48.5t-44 -32.5l-389 -123q-39 -13 -60 -13t-34 19l-47 67q-19 29 -15 46t33 32z" />
    <glyph glyph-name="uni0302" unicode="&#x302;" 
d="M-215 1516q56 0 78.5 -10.5t56.5 -51.5l174 -209q23 -25 13 -47t-58 -22h-158q-63 0 -86.5 7.5t-40.5 35.5l-47 73l-75 -71q-30 -30 -56 -37.5t-86 -7.5h-166q-31 0 -41.5 10.5t-3.5 26t27 32.5l246 209q50 42 77 52t91 10h55z" />
    <glyph glyph-name="tildecomb" unicode="&#x303;" 
d="M160 1497q28 0 37 -11.5t4 -35.5q-25 -140 -84 -196t-162 -56q-52 0 -94.5 13t-65.5 29t-48.5 29t-47.5 13q-31 0 -39 -45q-5 -39 -45 -39h-127q-26 0 -34 10.5t-5 36.5q25 138 85.5 195t156.5 57q53 0 97 -13.5t67.5 -29.5t49.5 -29.5t48 -13.5q30 0 39 45q3 22 13 31.5
t32 9.5h123z" />
    <glyph glyph-name="uni0304" unicode="&#x304;" 
d="M51 1454q44 0 56.5 -15t5.5 -59l-17 -86q-6 -44 -23.5 -58.5t-62.5 -14.5h-499q-43 0 -55.5 14.5t-6.5 58.5l16 86q7 43 26.5 58.5t59.5 15.5h500z" />
    <glyph glyph-name="uni0306" unicode="&#x306;" 
d="M207 1393q-59 -106 -161.5 -161.5t-238.5 -55.5q-134 0 -218.5 56t-104.5 161q-7 29 3.5 44t43.5 27l139 49q35 12 49 7t25 -31q26 -66 102 -66q74 0 125 68q21 25 34.5 30t41.5 -5l135 -52q28 -12 33.5 -27t-8.5 -44z" />
    <glyph glyph-name="uni0307" unicode="&#x307;" 
d="M-168 1159q-85 0 -111 32.5t-14 119.5l4 22q12 86 52 119t128 33h101q86 0 111.5 -32t13.5 -120l-4 -22q-12 -86 -51.5 -119t-127.5 -33h-102z" />
    <glyph glyph-name="uni0308" unicode="&#x308;" 
d="M-571 1182q-85 0 -111.5 32t-11.5 115l4 27q15 84 51.5 114.5t122.5 30.5h14q86 0 113 -31t12 -114l-4 -27q-15 -83 -53 -115t-123 -32h-14zM-131 1182q-85 0 -112.5 32.5t-12.5 114.5l4 27q15 83 53 114t123 31h15q86 0 111.5 -30.5t10.5 -114.5l-4 -27
q-15 -83 -52 -115t-122 -32h-14z" />
    <glyph glyph-name="uni030A" unicode="&#x30a;" 
d="M-371 1348q20 113 105 175t205 62q116 0 177.5 -64t41.5 -173q-20 -108 -103 -171t-200 -63q-118 0 -181 62t-45 172zM-33 1348q6 33 -10 52t-49 19q-36 0 -60 -19t-30 -52q-5 -31 12.5 -49.5t52.5 -18.5q33 0 56.5 18t27.5 50z" />
    <glyph glyph-name="uni030B" unicode="&#x30b;" 
d="M-639 1188q-69 14 -12 78l178 194q34 37 66.5 49.5t76.5 3.5l131 -28q26 -7 36 -20.5t2.5 -31.5t-29.5 -36l-265 -195q-39 -26 -56 -32t-42 1zM-246 1186q-24 5 -31.5 17.5t-1.5 28.5t23 34l190 194q34 37 67 49t77 0l135 -36q39 -12 40.5 -38t-34.5 -51l-282 -186
q-34 -25 -53 -31.5t-44 0.5z" />
    <glyph glyph-name="uni030C" unicode="&#x30c;" 
d="M98 1513q31 0 41 -10.5t2 -25.5t-28 -33l-244 -209q-46 -42 -73.5 -51.5t-90.5 -9.5h-55q-59 0 -81.5 10t-57.5 51l-168 209q-25 25 -18.5 47t52.5 22h168q61 0 83.5 -7.5t41.5 -35.5l51 -71l74 69q30 29 57 37t85 8h161z" />
    <glyph glyph-name="uni0327" unicode="&#x327;" 
d="M-297 -102h14q90 -1 126 -62.5t12 -150.5q-19 -72 -74.5 -118t-120 -62.5t-141.5 -16.5q-67 0 -154 33q-29 11 -37.5 24.5t-5.5 38.5l14 86q14 67 72 33q57 -31 109 -31q73 0 80 47q5 23 -13 34t-67 11h-43q-56 0 -17 62l107 174h194z" />
    <glyph glyph-name="uni0328" unicode="&#x328;" 
d="M-174 8q-160 -147 -164 -244q0 -38 31 -38q21 0 39 10q19 12 31.5 8.5t15.5 -20.5l26 -103q8 -41 -22 -59q-97 -66 -242 -66q-38 0 -70 7.5t-60 23.5t-44.5 46.5t-17.5 72.5q-5 168 223 356z" />
    <glyph glyph-name="pi" unicode="&#x3c0;" horiz-adv-x="1394" 
d="M1350 1065q44 0 57.5 -16.5t5.5 -61.5l-31 -174q-8 -43 -28 -61.5t-64 -18.5h-43l-65 -371q-10 -62 -10 -91.5t14 -73.5q12 -43 -2 -70t-64 -45l-213 -82q-47 -19 -69.5 -11t-32.5 50q-22 81 -23 150.5t15 150.5l69 393h-204l-115 -655q-7 -43 -28 -60.5t-64 -17.5h-226
q-43 0 -57 17.5t-6 60.5l115 655q-27 0 -91 -24q-41 -17 -64 -10.5t-32 44.5l-43 160q-11 40 1 62t54 41q85 33 155.5 46t172.5 13h916z" />
    <glyph glyph-name="uni0401" unicode="&#x401;" horiz-adv-x="1212" 
d="M633 1872q86 0 113.5 -31.5t13.5 -114.5l-6 -26q-13 -82 -52 -114t-124 -32h-17q-84 0 -109.5 31.5t-11.5 114.5l6 26q14 84 50 115t120 31h17zM1073 1872q85 0 111.5 -31.5t13.5 -114.5l-6 -26q-14 -82 -51.5 -114t-122.5 -32h-14q-86 0 -112.5 32t-12.5 114l6 26
q14 83 51 114.5t123 31.5h14zM1200 1454q49 0 65.5 -19t8.5 -67l-33 -184q-9 -49 -31.5 -67.5t-70.5 -18.5h-543l-31 -185h432q49 0 64.5 -19t7.5 -69l-33 -182q-9 -50 -31 -69t-71 -19h-432l-35 -197h559q48 0 63.5 -18.5t6.5 -67.5l-33 -186q-8 -47 -30.5 -66.5
t-71.5 -19.5h-875q-49 0 -65 19.5t-7 66.5l226 1282q9 48 31 67t71 19h858z" />
    <glyph glyph-name="uni0401" unicode="&#x451;" horiz-adv-x="1212" 
d="M633 1872q86 0 113.5 -31.5t13.5 -114.5l-6 -26q-13 -82 -52 -114t-124 -32h-17q-84 0 -109.5 31.5t-11.5 114.5l6 26q14 84 50 115t120 31h17zM1073 1872q85 0 111.5 -31.5t13.5 -114.5l-6 -26q-14 -82 -51.5 -114t-122.5 -32h-14q-86 0 -112.5 32t-12.5 114l6 26
q14 83 51 114.5t123 31.5h14zM1200 1454q49 0 65.5 -19t8.5 -67l-33 -184q-9 -49 -31.5 -67.5t-70.5 -18.5h-543l-31 -185h432q49 0 64.5 -19t7.5 -69l-33 -182q-9 -50 -31 -69t-71 -19h-432l-35 -197h559q48 0 63.5 -18.5t6.5 -67.5l-33 -186q-8 -47 -30.5 -66.5
t-71.5 -19.5h-875q-49 0 -65 19.5t-7 66.5l226 1282q9 48 31 67t71 19h858z" />
    <glyph glyph-name="uni0410" unicode="&#x410;" horiz-adv-x="1415" 
d="M-41 0q-46 0 -54.5 21.5t15.5 62.5l701 1298q23 43 47.5 57.5t70.5 14.5h232q45 0 66 -14.5t28 -53.5l246 -1302q15 -84 -76 -84h-211q-77 0 -105.5 18.5t-33.5 67.5l-21 147h-444l-74 -147q-22 -49 -55.5 -67.5t-106.5 -18.5h-225zM827 555l-32 240q-7 72 -5.5 136
t6.5 108l5 44h-19q-26 -147 -92 -286l-119 -242h256z" />
    <glyph glyph-name="uni0410" unicode="&#x430;" horiz-adv-x="1415" 
d="M-41 0q-46 0 -54.5 21.5t15.5 62.5l701 1298q23 43 47.5 57.5t70.5 14.5h232q45 0 66 -14.5t28 -53.5l246 -1302q15 -84 -76 -84h-211q-77 0 -105.5 18.5t-33.5 67.5l-21 147h-444l-74 -147q-22 -49 -55.5 -67.5t-106.5 -18.5h-225zM827 555l-32 240q-7 72 -5.5 136
t6.5 108l5 44h-19q-26 -147 -92 -286l-119 -242h256z" />
    <glyph glyph-name="uni0411" unicode="&#x411;" horiz-adv-x="1320" 
d="M1247 1454q47 0 63 -19.5t7 -66.5l-27 -160q-9 -48 -31 -67t-71 -19h-586l-31 -182h267q219 0 336 -137t77 -354q-36 -215 -183 -332t-368 -117h-616q-45 0 -61 18.5t-7 63.5l226 1286q9 48 31 67t71 19h903zM844 471q12 66 -20.5 100.5t-104.5 34.5h-207l-49 -272h209
q73 0 117.5 35t54.5 102z" />
    <glyph glyph-name="uni0411" unicode="&#x431;" horiz-adv-x="1320" 
d="M1247 1454q47 0 63 -19.5t7 -66.5l-27 -160q-9 -48 -31 -67t-71 -19h-586l-31 -182h267q219 0 336 -137t77 -354q-36 -215 -183 -332t-368 -117h-616q-45 0 -61 18.5t-7 63.5l226 1286q9 48 31 67t71 19h903zM844 471q12 66 -20.5 100.5t-104.5 34.5h-207l-49 -272h209
q73 0 117.5 35t54.5 102z" />
    <glyph glyph-name="uni0412" unicode="&#x412;" horiz-adv-x="1355" 
d="M942 1456q212 0 315 -109.5t70 -293.5q-20 -102 -66 -167t-135 -120l-2 -8q91 -43 128 -139.5t14 -229.5q-34 -191 -187 -290t-379 -99h-614q-49 0 -65 19.5t-7 66.5l226 1282q9 49 31.5 68.5t70.5 19.5h600zM907 1012q9 59 -17.5 86.5t-88.5 27.5h-199l-41 -225h199
q65 0 101 26t46 85zM854 453q20 118 -111 118h-237l-43 -241h237q67 0 104.5 29.5t49.5 93.5z" />
    <glyph glyph-name="uni0412" unicode="&#x432;" horiz-adv-x="1355" 
d="M942 1456q212 0 315 -109.5t70 -293.5q-20 -102 -66 -167t-135 -120l-2 -8q91 -43 128 -139.5t14 -229.5q-34 -191 -187 -290t-379 -99h-614q-49 0 -65 19.5t-7 66.5l226 1282q9 49 31.5 68.5t70.5 19.5h600zM907 1012q9 59 -17.5 86.5t-88.5 27.5h-199l-41 -225h199
q65 0 101 26t46 85zM854 453q20 118 -111 118h-237l-43 -241h237q67 0 104.5 29.5t49.5 93.5z" />
    <glyph glyph-name="uni0413" unicode="&#x413;" horiz-adv-x="1099" 
d="M1128 1454q49 0 65.5 -19t8.5 -67l-33 -184q-9 -49 -31.5 -67.5t-70.5 -18.5h-471l-176 -1012q-9 -47 -32.5 -66.5t-70.5 -19.5h-231q-49 0 -65 19.5t-7 66.5l226 1282q9 48 31 67t71 19h786z" />
    <glyph glyph-name="uni0413" unicode="&#x433;" horiz-adv-x="1099" 
d="M1128 1454q49 0 65.5 -19t8.5 -67l-33 -184q-9 -49 -31.5 -67.5t-70.5 -18.5h-471l-176 -1012q-9 -47 -32.5 -66.5t-70.5 -19.5h-231q-49 0 -65 19.5t-7 66.5l226 1282q9 48 31 67t71 19h786z" />
    <glyph glyph-name="uni0414" unicode="&#x414;" horiz-adv-x="1626" 
d="M1464 1454q49 0 65 -19.5t7 -66.5l-178 -1010h98q50 0 65.5 -18.5t6.5 -67.5l-88 -499q-8 -47 -31 -66.5t-72 -19.5h-225q-47 0 -63 19.5t-7 66.5l39 227h-751l-39 -227q-9 -48 -31.5 -67t-71.5 -19h-225q-49 0 -64.5 19t-7.5 67l89 499q9 49 30.5 67.5t71.5 18.5h45
q96 71 158 191.5t102 351.5l82 467q7 47 30 66.5t70 19.5h895zM811 1096l-33 -193q-63 -352 -190 -545h366l129 738h-272z" />
    <glyph glyph-name="uni0414" unicode="&#x434;" horiz-adv-x="1626" 
d="M1464 1454q49 0 65 -19.5t7 -66.5l-178 -1010h98q50 0 65.5 -18.5t6.5 -67.5l-88 -499q-8 -47 -31 -66.5t-72 -19.5h-225q-47 0 -63 19.5t-7 66.5l39 227h-751l-39 -227q-9 -48 -31.5 -67t-71.5 -19h-225q-49 0 -64.5 19t-7.5 67l89 499q9 49 30.5 67.5t71.5 18.5h45
q96 71 158 191.5t102 351.5l82 467q7 47 30 66.5t70 19.5h895zM811 1096l-33 -193q-63 -352 -190 -545h366l129 738h-272z" />
    <glyph glyph-name="uni0415" unicode="&#x415;" horiz-adv-x="1212" 
d="M1200 1454q49 0 65.5 -19t8.5 -67l-33 -184q-9 -49 -31.5 -67.5t-70.5 -18.5h-543l-31 -185h432q49 0 64.5 -19t7.5 -69l-33 -182q-9 -50 -31 -69t-71 -19h-432l-35 -197h559q48 0 63.5 -18.5t6.5 -67.5l-33 -186q-8 -47 -30.5 -66.5t-71.5 -19.5h-875q-49 0 -65 19.5
t-7 66.5l226 1282q9 48 31 67t71 19h858z" />
    <glyph glyph-name="uni0415" unicode="&#x435;" horiz-adv-x="1212" 
d="M1200 1454q49 0 65.5 -19t8.5 -67l-33 -184q-9 -49 -31.5 -67.5t-70.5 -18.5h-543l-31 -185h432q49 0 64.5 -19t7.5 -69l-33 -182q-9 -50 -31 -69t-71 -19h-432l-35 -197h559q48 0 63.5 -18.5t6.5 -67.5l-33 -186q-8 -47 -30.5 -66.5t-71.5 -19.5h-875q-49 0 -65 19.5
t-7 66.5l226 1282q9 48 31 67t71 19h858z" />
    <glyph glyph-name="uni0416" unicode="&#x416;" horiz-adv-x="2013" 
d="M2060 1454q45 0 53.5 -25t-20.5 -65l-434 -614q36 -49 67 -138l166 -512q14 -44 -3.5 -72t-67.5 -28h-217q-84 0 -117.5 16.5t-46.5 69.5l-103 377q-14 53 -38 73.5t-82 20.5h-17l-84 -471q-9 -48 -31 -67t-71 -19h-232q-49 0 -64 19t-7 67l84 471h-15q-57 0 -87 -20
t-64 -74l-238 -377q-33 -53 -72.5 -69.5t-121.5 -16.5h-222q-51 0 -59 29.5t23 70.5l348 512q67 93 119 138l-222 614q-14 42 2.5 66t61.5 24h233q79 0 105 -13t43 -63l164 -467q16 2 49 2h14l82 455q8 48 29.5 67t70.5 19h232q49 0 64.5 -19t6.5 -67l-79 -455h16
q29 0 45 -2l324 467q33 50 64.5 63t111.5 13h237z" />
    <glyph glyph-name="uni0416" unicode="&#x436;" horiz-adv-x="2013" 
d="M2060 1454q45 0 53.5 -25t-20.5 -65l-434 -614q36 -49 67 -138l166 -512q14 -44 -3.5 -72t-67.5 -28h-217q-84 0 -117.5 16.5t-46.5 69.5l-103 377q-14 53 -38 73.5t-82 20.5h-17l-84 -471q-9 -48 -31 -67t-71 -19h-232q-49 0 -64 19t-7 67l84 471h-15q-57 0 -87 -20
t-64 -74l-238 -377q-33 -53 -72.5 -69.5t-121.5 -16.5h-222q-51 0 -59 29.5t23 70.5l348 512q67 93 119 138l-222 614q-14 42 2.5 66t61.5 24h233q79 0 105 -13t43 -63l164 -467q16 2 49 2h14l82 455q8 48 29.5 67t70.5 19h232q49 0 64.5 -19t6.5 -67l-79 -455h16
q29 0 45 -2l324 467q33 50 64.5 63t111.5 13h237z" />
    <glyph glyph-name="uni0417" unicode="&#x417;" horiz-adv-x="1337" 
d="M1305 1034q-20 -102 -69.5 -165t-139.5 -107q197 -106 147 -361q-40 -217 -199.5 -324.5t-453.5 -107.5q-264 0 -413.5 92.5t-182.5 266.5q-7 44 10 69.5t64 40.5l213 72q47 17 69 5t31 -60q24 -133 233 -133q105 0 153 28.5t60 91.5q10 63 -16 92t-94 29h-195
q-49 0 -65 19t-8 69l30 168q9 50 31.5 69t71.5 19h161q65 0 100.5 26.5t45.5 86.5q10 59 -24 86t-115 27q-194 0 -271 -134q-26 -47 -51.5 -58.5t-69.5 3.5l-184 72q-42 17 -50 41.5t15 68.5q98 177 266.5 268t428.5 91q261 0 386 -121.5t85 -329.5z" />
    <glyph glyph-name="uni0417" unicode="&#x437;" horiz-adv-x="1337" 
d="M1305 1034q-20 -102 -69.5 -165t-139.5 -107q197 -106 147 -361q-40 -217 -199.5 -324.5t-453.5 -107.5q-264 0 -413.5 92.5t-182.5 266.5q-7 44 10 69.5t64 40.5l213 72q47 17 69 5t31 -60q24 -133 233 -133q105 0 153 28.5t60 91.5q10 63 -16 92t-94 29h-195
q-49 0 -65 19t-8 69l30 168q9 50 31.5 69t71.5 19h161q65 0 100.5 26.5t45.5 86.5q10 59 -24 86t-115 27q-194 0 -271 -134q-26 -47 -51.5 -58.5t-69.5 3.5l-184 72q-42 17 -50 41.5t15 68.5q98 177 266.5 268t428.5 91q261 0 386 -121.5t85 -329.5z" />
    <glyph glyph-name="uni0418" unicode="&#x418;" horiz-adv-x="1454" 
d="M1407 1454q49 0 65 -19.5t7 -66.5l-228 -1282q-7 -47 -30 -66.5t-70 -19.5h-231q-49 0 -64.5 19t-7.5 69l63 350q8 49 15.5 86t19 76.5t17 60.5t23 64.5t23.5 59.5t32 75.5t36 83.5h-16q-83 -153 -131 -229t-135 -193l-367 -481q-19 -23 -39 -32t-55 -9h-248
q-47 0 -63 19.5t-7 66.5l226 1280q9 49 30.5 67.5t69.5 18.5h231q50 0 66.5 -18.5t7.5 -67.5l-63 -348q-29 -166 -57.5 -254.5t-106.5 -253.5h14q73 129 100.5 176.5t71 113t99.5 138.5l364 475q17 23 37 32t55 9h246z" />
    <glyph glyph-name="uni0418" unicode="&#x438;" horiz-adv-x="1454" 
d="M1407 1454q49 0 65 -19.5t7 -66.5l-228 -1282q-7 -47 -30 -66.5t-70 -19.5h-231q-49 0 -64.5 19t-7.5 69l63 350q8 49 15.5 86t19 76.5t17 60.5t23 64.5t23.5 59.5t32 75.5t36 83.5h-16q-83 -153 -131 -229t-135 -193l-367 -481q-19 -23 -39 -32t-55 -9h-248
q-47 0 -63 19.5t-7 66.5l226 1280q9 49 30.5 67.5t69.5 18.5h231q50 0 66.5 -18.5t7.5 -67.5l-63 -348q-29 -166 -57.5 -254.5t-106.5 -253.5h14q73 129 100.5 176.5t71 113t99.5 138.5l364 475q17 23 37 32t55 9h246z" />
    <glyph glyph-name="uni0419" unicode="&#x419;" horiz-adv-x="1454" 
d="M1296 1761q-59 -105 -162 -161t-239 -56q-133 0 -216.5 56.5t-105.5 160.5q-6 28 5 44t43 28l145 51q35 12 48 7.5t24 -31.5q27 -68 102 -68q71 0 121 68q20 26 34.5 30.5t45.5 -4.5l133 -53q28 -10 32.5 -26.5t-10.5 -45.5zM1407 1454q49 0 65 -19.5t7 -66.5l-228 -1282
q-7 -47 -30 -66.5t-70 -19.5h-231q-49 0 -64.5 19t-7.5 69l63 350q8 49 15.5 86t19 76.5t17 60.5t23 64.5t23.5 59.5t32 75.5t36 83.5h-16q-83 -153 -131 -229t-135 -193l-367 -481q-19 -23 -39 -32t-55 -9h-248q-47 0 -63 19.5t-7 66.5l226 1280q9 49 30.5 67.5t69.5 18.5
h231q50 0 66.5 -18.5t7.5 -67.5l-63 -348q-29 -166 -57.5 -254.5t-106.5 -253.5h14q73 129 100.5 176.5t71 113t99.5 138.5l364 475q17 23 37 32t55 9h246z" />
    <glyph glyph-name="uni0419" unicode="&#x439;" horiz-adv-x="1454" 
d="M1296 1761q-59 -105 -162 -161t-239 -56q-133 0 -216.5 56.5t-105.5 160.5q-6 28 5 44t43 28l145 51q35 12 48 7.5t24 -31.5q27 -68 102 -68q71 0 121 68q20 26 34.5 30.5t45.5 -4.5l133 -53q28 -10 32.5 -26.5t-10.5 -45.5zM1407 1454q49 0 65 -19.5t7 -66.5l-228 -1282
q-7 -47 -30 -66.5t-70 -19.5h-231q-49 0 -64.5 19t-7.5 69l63 350q8 49 15.5 86t19 76.5t17 60.5t23 64.5t23.5 59.5t32 75.5t36 83.5h-16q-83 -153 -131 -229t-135 -193l-367 -481q-19 -23 -39 -32t-55 -9h-248q-47 0 -63 19.5t-7 66.5l226 1280q9 49 30.5 67.5t69.5 18.5
h231q50 0 66.5 -18.5t7.5 -67.5l-63 -348q-29 -166 -57.5 -254.5t-106.5 -253.5h14q73 129 100.5 176.5t71 113t99.5 138.5l364 475q17 23 37 32t55 9h246z" />
    <glyph glyph-name="uni041A" unicode="&#x41a;" horiz-adv-x="1347" 
d="M1231 100q16 -43 -2.5 -71.5t-67.5 -28.5h-221q-83 0 -115 16.5t-51 69.5l-112 367q-16 55 -42 79.5t-83 24.5h-35l-82 -471q-9 -47 -32.5 -66.5t-70.5 -19.5h-231q-49 0 -65 19.5t-7 66.5l226 1282q9 48 31 67t71 19h231q48 0 64.5 -19.5t7.5 -66.5l-80 -457h45l375 467
q39 49 70 62.5t108 13.5h236q46 0 55 -25t-20 -65l-486 -600q39 -28 62.5 -63t42.5 -89z" />
    <glyph glyph-name="uni041A" unicode="&#x43a;" horiz-adv-x="1347" 
d="M1231 100q16 -43 -2.5 -71.5t-67.5 -28.5h-221q-83 0 -115 16.5t-51 69.5l-112 367q-16 55 -42 79.5t-83 24.5h-35l-82 -471q-9 -47 -32.5 -66.5t-70.5 -19.5h-231q-49 0 -65 19.5t-7 66.5l226 1282q9 48 31 67t71 19h231q48 0 64.5 -19.5t7.5 -66.5l-80 -457h45l375 467
q39 49 70 62.5t108 13.5h236q46 0 55 -25t-20 -65l-486 -600q39 -28 62.5 -63t42.5 -89z" />
    <glyph glyph-name="uni041B" unicode="&#x41b;" horiz-adv-x="1439" 
d="M1391 1454q49 0 64.5 -19t6.5 -67l-225 -1282q-9 -48 -31 -67t-71 -19h-232q-49 0 -64.5 19t-7.5 67l179 1010h-246l-35 -193q-30 -175 -76.5 -313.5t-99 -233t-122 -168t-137 -118.5t-153.5 -84q-50 -22 -71 -12.5t-37 53.5l-84 196q-15 40 -0.5 66t63.5 51q46 25 79 50
t71.5 68.5t67 100t55.5 143.5t47 199l84 467q8 48 29.5 67t70.5 19h875z" />
    <glyph glyph-name="uni041B" unicode="&#x43b;" horiz-adv-x="1439" 
d="M1391 1454q49 0 64.5 -19t6.5 -67l-225 -1282q-9 -48 -31 -67t-71 -19h-232q-49 0 -64.5 19t-7.5 67l179 1010h-246l-35 -193q-30 -175 -76.5 -313.5t-99 -233t-122 -168t-137 -118.5t-153.5 -84q-50 -22 -71 -12.5t-37 53.5l-84 196q-15 40 -0.5 66t63.5 51q46 25 79 50
t71.5 68.5t67 100t55.5 143.5t47 199l84 467q8 48 29.5 67t70.5 19h875z" />
    <glyph glyph-name="uni041C" unicode="&#x41c;" horiz-adv-x="1701" 
d="M1653 1454q49 0 64.5 -18.5t6.5 -65.5l-225 -1286q-9 -47 -31.5 -65.5t-70.5 -18.5h-223q-50 0 -65.5 18.5t-6.5 65.5l51 295q22 119 59 234t123 302h-18q-30 -59 -95 -170.5t-104 -169.5l-157 -231q-21 -32 -44 -44.5t-63 -12.5h-131q-41 0 -59.5 11.5t-28.5 45.5
l-80 231q-20 55 -41.5 165t-28.5 175h-18q16 -229 13 -327t-25 -211l-52 -293q-7 -47 -29.5 -65.5t-72.5 -18.5h-215q-48 0 -63.5 18.5t-6.5 65.5l226 1286q9 48 31 66t71 18h191q55 0 76.5 -12t33.5 -51l219 -672l457 670q27 42 50 53.5t75 11.5h207z" />
    <glyph glyph-name="uni041C" unicode="&#x43c;" horiz-adv-x="1701" 
d="M1653 1454q49 0 64.5 -18.5t6.5 -65.5l-225 -1286q-9 -47 -31.5 -65.5t-70.5 -18.5h-223q-50 0 -65.5 18.5t-6.5 65.5l51 295q22 119 59 234t123 302h-18q-30 -59 -95 -170.5t-104 -169.5l-157 -231q-21 -32 -44 -44.5t-63 -12.5h-131q-41 0 -59.5 11.5t-28.5 45.5
l-80 231q-20 55 -41.5 165t-28.5 175h-18q16 -229 13 -327t-25 -211l-52 -293q-7 -47 -29.5 -65.5t-72.5 -18.5h-215q-48 0 -63.5 18.5t-6.5 65.5l226 1286q9 48 31 66t71 18h191q55 0 76.5 -12t33.5 -51l219 -672l457 670q27 42 50 53.5t75 11.5h207z" />
    <glyph glyph-name="uni041D" unicode="&#x41d;" horiz-adv-x="1425" 
d="M1378 1454q47 0 63 -19.5t7 -66.5l-225 -1282q-9 -48 -31.5 -67t-71.5 -19h-231q-49 0 -64.5 19t-7.5 67l84 473h-397l-84 -473q-8 -47 -31 -66.5t-72 -19.5h-231q-47 0 -63 19.5t-7 66.5l226 1282q9 48 31 67t71 19h231q49 0 65 -19.5t7 -66.5l-80 -453h398l79 453
q9 48 31.5 67t71.5 19h231z" />
    <glyph glyph-name="uni041D" unicode="&#x43d;" horiz-adv-x="1425" 
d="M1378 1454q47 0 63 -19.5t7 -66.5l-225 -1282q-9 -48 -31.5 -67t-71.5 -19h-231q-49 0 -64.5 19t-7.5 67l84 473h-397l-84 -473q-8 -47 -31 -66.5t-72 -19.5h-231q-47 0 -63 19.5t-7 66.5l226 1282q9 48 31 67t71 19h231q49 0 65 -19.5t7 -66.5l-80 -453h398l79 453
q9 48 31.5 67t71.5 19h231z" />
    <glyph glyph-name="uni041E" unicode="&#x41e;" horiz-adv-x="1404" 
d="M129 932q46 265 232 409t489 144q297 0 437 -164t93 -434l-65 -371q-46 -265 -230.5 -406t-488.5 -141q-298 0 -437 161t-93 431zM983 930q17 96 -32 146t-156 50q-108 0 -175.5 -50t-84.5 -146l-72 -406q-17 -96 32.5 -146t157.5 -50q107 0 174 50t84 146z" />
    <glyph glyph-name="uni041E" unicode="&#x43e;" horiz-adv-x="1404" 
d="M129 932q46 265 232 409t489 144q297 0 437 -164t93 -434l-65 -371q-46 -265 -230.5 -406t-488.5 -141q-298 0 -437 161t-93 431zM983 930q17 96 -32 146t-156 50q-108 0 -175.5 -50t-84.5 -146l-72 -406q-17 -96 32.5 -146t157.5 -50q107 0 174 50t84 146z" />
    <glyph glyph-name="uni041F" unicode="&#x41f;" horiz-adv-x="1415" 
d="M1364 1454q49 0 65.5 -19t8.5 -67l-228 -1282q-8 -47 -30.5 -66.5t-71.5 -19.5h-231q-47 0 -63 19.5t-7 66.5l178 1012h-389l-176 -1012q-9 -47 -32.5 -66.5t-70.5 -19.5h-231q-49 0 -65 19.5t-7 66.5l226 1282q9 48 31 67t71 19h1022z" />
    <glyph glyph-name="uni041F" unicode="&#x43f;" horiz-adv-x="1415" 
d="M1364 1454q49 0 65.5 -19t8.5 -67l-228 -1282q-8 -47 -30.5 -66.5t-71.5 -19.5h-231q-47 0 -63 19.5t-7 66.5l178 1012h-389l-176 -1012q-9 -47 -32.5 -66.5t-70.5 -19.5h-231q-49 0 -65 19.5t-7 66.5l226 1282q9 48 31 67t71 19h1022z" />
    <glyph glyph-name="uni0420" unicode="&#x420;" horiz-adv-x="1335" 
d="M907 1454q238 0 355.5 -149t76.5 -394q-42 -237 -201.5 -356t-406.5 -119h-250l-61 -350q-9 -47 -32.5 -66.5t-70.5 -19.5h-231q-49 0 -65 19.5t-7 66.5l226 1282q9 48 31 67t71 19h565zM745 795q72 0 121.5 41t61.5 110q12 68 -22 110t-107 42h-203l-53 -303h202z" />
    <glyph glyph-name="uni0420" unicode="&#x440;" horiz-adv-x="1335" 
d="M907 1454q238 0 355.5 -149t76.5 -394q-42 -237 -201.5 -356t-406.5 -119h-250l-61 -350q-9 -47 -32.5 -66.5t-70.5 -19.5h-231q-49 0 -65 19.5t-7 66.5l226 1282q9 48 31 67t71 19h565zM745 795q72 0 121.5 41t61.5 110q12 68 -22 110t-107 42h-203l-53 -303h202z" />
    <glyph glyph-name="uni0421" unicode="&#x421;" horiz-adv-x="1333" 
d="M131 940q46 264 233 404.5t490 140.5q441 0 510 -365q9 -45 -6 -69t-64 -41l-211 -72q-49 -14 -70.5 -3t-31.5 58q-14 70 -57.5 101.5t-128.5 31.5q-119 0 -181.5 -51.5t-81.5 -159.5l-67 -376q-19 -108 25 -159.5t163 -51.5q161 0 238 133q27 48 51.5 59.5t69.5 -4.5
l209 -82q44 -15 52.5 -40.5t-16.5 -69.5q-194 -355 -661 -355q-297 0 -437 161.5t-93 430.5z" />
    <glyph glyph-name="uni0421" unicode="&#x441;" horiz-adv-x="1333" 
d="M131 940q46 264 233 404.5t490 140.5q441 0 510 -365q9 -45 -6 -69t-64 -41l-211 -72q-49 -14 -70.5 -3t-31.5 58q-14 70 -57.5 101.5t-128.5 31.5q-119 0 -181.5 -51.5t-81.5 -159.5l-67 -376q-19 -108 25 -159.5t163 -51.5q161 0 238 133q27 48 51.5 59.5t69.5 -4.5
l209 -82q44 -15 52.5 -40.5t-16.5 -69.5q-194 -355 -661 -355q-297 0 -437 161.5t-93 430.5z" />
    <glyph glyph-name="uni0422" unicode="&#x422;" horiz-adv-x="1241" 
d="M1274 1454q47 0 63.5 -19.5t8.5 -66.5l-33 -184q-9 -49 -31 -67.5t-72 -18.5h-305l-176 -1012q-9 -47 -32 -66.5t-70 -19.5h-232q-49 0 -64.5 19t-6.5 67l178 1012h-305q-49 0 -64.5 18t-7.5 68l33 184q9 48 31 67t71 19h1014z" />
    <glyph glyph-name="uni0422" unicode="&#x442;" horiz-adv-x="1241" 
d="M1274 1454q47 0 63.5 -19.5t8.5 -66.5l-33 -184q-9 -49 -31 -67.5t-72 -18.5h-305l-176 -1012q-9 -47 -32 -66.5t-70 -19.5h-232q-49 0 -64.5 19t-6.5 67l178 1012h-305q-49 0 -64.5 18t-7.5 68l33 184q9 48 31 67t71 19h1014z" />
    <glyph glyph-name="uni0423" unicode="&#x423;" horiz-adv-x="1296" 
d="M1376 1454q43 0 49 -21.5t-20 -64.5l-770 -1292q-29 -47 -58.5 -61.5t-97.5 -14.5h-264q-83 0 -29 86l220 352l-273 930q-12 44 2.5 65t59.5 21h241q77 0 104 -12.5t40 -63.5l120 -456l271 456q29 51 54.5 63.5t96.5 12.5h254z" />
    <glyph glyph-name="uni0423" unicode="&#x443;" horiz-adv-x="1296" 
d="M1376 1454q43 0 49 -21.5t-20 -64.5l-770 -1292q-29 -47 -58.5 -61.5t-97.5 -14.5h-264q-83 0 -29 86l220 352l-273 930q-12 44 2.5 65t59.5 21h241q77 0 104 -12.5t40 -63.5l120 -456l271 456q29 51 54.5 63.5t96.5 12.5h254z" />
    <glyph glyph-name="uni0424" unicode="&#x424;" horiz-adv-x="1773" 
d="M1163 1505q49 0 65 -19.5t7 -66.5l-14 -88h55q281 0 407.5 -150.5t83.5 -412.5l-18 -109q-46 -258 -219 -392t-459 -134h-61l-17 -88q-9 -49 -31.5 -68.5t-70.5 -19.5h-232q-47 0 -62.5 19.5t-6.5 68.5l16 88h-63q-281 0 -406 151t-80 414l19 111q46 257 218.5 389.5
t459.5 132.5h63l14 88q9 48 31.5 67t71.5 19h229zM711 985q-189 0 -224 -182l-24 -141q-30 -181 160 -181h43l88 504h-43zM1360 803q17 90 -23.5 136t-136.5 46h-43l-88 -504h43q193 0 223 181z" />
    <glyph glyph-name="uni0424" unicode="&#x444;" horiz-adv-x="1773" 
d="M1163 1505q49 0 65 -19.5t7 -66.5l-14 -88h55q281 0 407.5 -150.5t83.5 -412.5l-18 -109q-46 -258 -219 -392t-459 -134h-61l-17 -88q-9 -49 -31.5 -68.5t-70.5 -19.5h-232q-47 0 -62.5 19.5t-6.5 68.5l16 88h-63q-281 0 -406 151t-80 414l19 111q46 257 218.5 389.5
t459.5 132.5h63l14 88q9 48 31.5 67t71.5 19h229zM711 985q-189 0 -224 -182l-24 -141q-30 -181 160 -181h43l88 504h-43zM1360 803q17 90 -23.5 136t-136.5 46h-43l-88 -504h43q193 0 223 181z" />
    <glyph glyph-name="uni0425" unicode="&#x425;" horiz-adv-x="1363" 
d="M1432 1454q42 0 48.5 -24t-22.5 -58l-518 -631l311 -655q20 -34 4 -60t-61 -26h-260q-81 0 -108.5 12.5t-47.5 63.5l-137 338l-246 -338q-39 -49 -71 -62.5t-113 -13.5h-254q-46 0 -53.5 24.5t24.5 61.5l537 655l-289 631q-18 34 -3.5 58t56.5 24h244q79 0 108 -12.5
t50 -59.5l129 -317l237 317q37 49 66.5 60.5t103.5 11.5h265z" />
    <glyph glyph-name="uni0425" unicode="&#x445;" horiz-adv-x="1363" 
d="M1432 1454q42 0 48.5 -24t-22.5 -58l-518 -631l311 -655q20 -34 4 -60t-61 -26h-260q-81 0 -108.5 12.5t-47.5 63.5l-137 338l-246 -338q-39 -49 -71 -62.5t-113 -13.5h-254q-46 0 -53.5 24.5t24.5 61.5l537 655l-289 631q-18 34 -3.5 58t56.5 24h244q79 0 108 -12.5
t50 -59.5l129 -317l237 317q37 49 66.5 60.5t103.5 11.5h265z" />
    <glyph glyph-name="uni0426" unicode="&#x426;" horiz-adv-x="1509" 
d="M1337 358q50 0 65.5 -18.5t6.5 -67.5l-88 -499q-9 -50 -31 -69t-71 -19h-211q-49 0 -64.5 19t-7.5 69l41 227h-891q-49 0 -65 19.5t-7 66.5l226 1282q9 48 31 67t71 19h231q47 0 63.5 -19.5t8.5 -66.5l-178 -1010h383l176 1010q9 48 31 67t71 19h232q47 0 63.5 -19.5
t8.5 -66.5l-179 -1010h84z" />
    <glyph glyph-name="uni0426" unicode="&#x446;" horiz-adv-x="1509" 
d="M1337 358q50 0 65.5 -18.5t6.5 -67.5l-88 -499q-9 -50 -31 -69t-71 -19h-211q-49 0 -64.5 19t-7.5 69l41 227h-891q-49 0 -65 19.5t-7 66.5l226 1282q9 48 31 67t71 19h231q47 0 63.5 -19.5t8.5 -66.5l-178 -1010h383l176 1010q9 48 31 67t71 19h232q47 0 63.5 -19.5
t8.5 -66.5l-179 -1010h84z" />
    <glyph glyph-name="uni0427" unicode="&#x427;" horiz-adv-x="1353" 
d="M1305 1454q47 0 63 -19.5t8 -66.5l-225 -1282q-9 -47 -32 -66.5t-70 -19.5h-232q-49 0 -65 19.5t-7 66.5l70 399q-86 -12 -211 -12q-300 0 -409.5 152.5t-57.5 443.5l53 299q8 48 30 67t71 19h231q49 0 65 -19.5t7 -66.5l-57 -328q-19 -104 23.5 -146t168.5 -42
q86 0 154 14l88 502q9 48 31 67t71 19h232z" />
    <glyph glyph-name="uni0427" unicode="&#x447;" horiz-adv-x="1353" 
d="M1305 1454q47 0 63 -19.5t8 -66.5l-225 -1282q-9 -47 -32 -66.5t-70 -19.5h-232q-49 0 -65 19.5t-7 66.5l70 399q-86 -12 -211 -12q-300 0 -409.5 152.5t-57.5 443.5l53 299q8 48 30 67t71 19h231q49 0 65 -19.5t7 -66.5l-57 -328q-19 -104 23.5 -146t168.5 -42
q86 0 154 14l88 502q9 48 31 67t71 19h232z" />
    <glyph glyph-name="uni0428" unicode="&#x428;" horiz-adv-x="1957" 
d="M1907 1454q49 0 65 -19t8 -67l-227 -1282q-8 -47 -30.5 -66.5t-71.5 -19.5h-1565q-49 0 -65 19.5t-7 66.5l226 1282q9 48 31 67t71 19h231q47 0 63.5 -19.5t8.5 -66.5l-178 -1010h262l178 1010q9 48 31.5 67t71.5 19h229q49 0 65.5 -19t8.5 -67l-178 -1010h262l178 1010
q7 47 30 66.5t70 19.5h232z" />
    <glyph glyph-name="uni0428" unicode="&#x448;" horiz-adv-x="1957" 
d="M1907 1454q49 0 65 -19t8 -67l-227 -1282q-8 -47 -30.5 -66.5t-71.5 -19.5h-1565q-49 0 -65 19.5t-7 66.5l226 1282q9 48 31 67t71 19h231q47 0 63.5 -19.5t8.5 -66.5l-178 -1010h262l178 1010q9 48 31.5 67t71.5 19h229q49 0 65.5 -19t8.5 -67l-178 -1010h262l178 1010
q7 47 30 66.5t70 19.5h232z" />
    <glyph glyph-name="uni0429" unicode="&#x429;" horiz-adv-x="2058" 
d="M1886 358q48 0 63.5 -18.5t6.5 -67.5l-88 -501q-7 -49 -30 -67.5t-73 -18.5h-209q-50 0 -65 18.5t-6 67.5l39 229h-1438q-49 0 -65 19.5t-7 66.5l226 1282q9 48 31 67t71 19h231q47 0 63.5 -19.5t8.5 -66.5l-178 -1010h262l178 1010q9 48 31.5 67t71.5 19h229
q49 0 65.5 -19t8.5 -67l-178 -1010h262l178 1010q7 47 30 66.5t70 19.5h232q49 0 65 -19t8 -67l-178 -1010h84z" />
    <glyph glyph-name="uni0429" unicode="&#x449;" horiz-adv-x="2058" 
d="M1886 358q48 0 63.5 -18.5t6.5 -67.5l-88 -501q-7 -49 -30 -67.5t-73 -18.5h-209q-50 0 -65 18.5t-6 67.5l39 229h-1438q-49 0 -65 19.5t-7 66.5l226 1282q9 48 31 67t71 19h231q47 0 63.5 -19.5t8.5 -66.5l-178 -1010h262l178 1010q9 48 31.5 67t71.5 19h229
q49 0 65.5 -19t8.5 -67l-178 -1010h262l178 1010q7 47 30 66.5t70 19.5h232q49 0 65 -19t8 -67l-178 -1010h84z" />
    <glyph glyph-name="uni042A" unicode="&#x42a;" horiz-adv-x="1605" 
d="M1087 1018q241 0 366.5 -147t84.5 -388q-43 -240 -200 -361.5t-402 -121.5h-580q-47 0 -62.5 19.5t-6.5 66.5l176 1010h-266q-49 0 -64.5 19t-7.5 67l33 186q9 48 31 67t71 19h584q49 0 65.5 -19t8.5 -67l-64 -350h233zM940 358q73 0 121 41t59 111q12 68 -21 108.5
t-104 40.5h-202l-56 -301h203z" />
    <glyph glyph-name="uni042A" unicode="&#x44a;" horiz-adv-x="1605" 
d="M1087 1018q241 0 366.5 -147t84.5 -388q-43 -240 -200 -361.5t-402 -121.5h-580q-47 0 -62.5 19.5t-6.5 66.5l176 1010h-266q-49 0 -64.5 19t-7.5 67l33 186q9 48 31 67t71 19h584q49 0 65.5 -19t8.5 -67l-64 -350h233zM940 358q73 0 121 41t59 111q12 68 -21 108.5
t-104 40.5h-202l-56 -301h203z" />
    <glyph glyph-name="uni042B" unicode="&#x42b;" horiz-adv-x="1951" 
d="M1262 487q-42 -240 -198.5 -363.5t-399.5 -123.5h-578q-49 0 -65 19.5t-7 66.5l226 1282q9 48 31 67t71 19h231q47 0 63.5 -19.5t8.5 -66.5l-61 -350h235q241 0 363 -144.5t80 -386.5zM1571 1372q9 46 30 64t66 18h242q46 0 61 -18t6 -64l-227 -1290q-7 -46 -28.5 -64
t-67.5 -18h-242q-46 0 -61 18t-7 64zM850 510q12 68 -22 108.5t-105 40.5h-203l-53 -301h201q73 0 121.5 41t60.5 111z" />
    <glyph glyph-name="uni042B" unicode="&#x44b;" horiz-adv-x="1951" 
d="M1262 487q-42 -240 -198.5 -363.5t-399.5 -123.5h-578q-49 0 -65 19.5t-7 66.5l226 1282q9 48 31 67t71 19h231q47 0 63.5 -19.5t8.5 -66.5l-61 -350h235q241 0 363 -144.5t80 -386.5zM1571 1372q9 46 30 64t66 18h242q46 0 61 -18t6 -64l-227 -1290q-7 -46 -28.5 -64
t-67.5 -18h-242q-46 0 -61 18t-7 64zM850 510q12 68 -22 108.5t-105 40.5h-203l-53 -301h201q73 0 121.5 41t60.5 111z" />
    <glyph glyph-name="uni042C" unicode="&#x42c;" horiz-adv-x="1329" 
d="M1262 487q-42 -240 -198.5 -363.5t-399.5 -123.5h-578q-49 0 -65 19.5t-7 66.5l226 1282q9 48 31 67t71 19h231q47 0 63.5 -19.5t8.5 -66.5l-61 -350h235q241 0 363 -144.5t80 -386.5zM850 510q12 68 -22 108.5t-105 40.5h-203l-53 -301h201q73 0 121.5 41t60.5 111z" />
    <glyph glyph-name="uni042C" unicode="&#x44c;" horiz-adv-x="1329" 
d="M1262 487q-42 -240 -198.5 -363.5t-399.5 -123.5h-578q-49 0 -65 19.5t-7 66.5l226 1282q9 48 31 67t71 19h231q47 0 63.5 -19.5t8.5 -66.5l-61 -350h235q241 0 363 -144.5t80 -386.5zM850 510q12 68 -22 108.5t-105 40.5h-203l-53 -301h201q73 0 121.5 41t60.5 111z" />
    <glyph glyph-name="uni042D" unicode="&#x42d;" horiz-adv-x="1345" 
d="M137 1126q199 359 660 359q296 0 433.5 -164t90.5 -434l-64 -371q-47 -266 -229 -406.5t-483 -140.5q-234 0 -374.5 93t-174.5 266q-7 44 10 69.5t64 40.5l215 72q47 17 69 5t31 -60q12 -65 66 -99t141 -34q225 0 260 196l6 43h-340q-49 0 -65 19.5t-7 68.5l29 172
q9 49 32 67.5t71 18.5h342l6 37q17 93 -32 141t-159 48q-183 0 -260 -134q-25 -46 -50 -57t-69 4l-184 70q-43 17 -51 41.5t16 68.5z" />
    <glyph glyph-name="uni042D" unicode="&#x44d;" horiz-adv-x="1345" 
d="M137 1126q199 359 660 359q296 0 433.5 -164t90.5 -434l-64 -371q-47 -266 -229 -406.5t-483 -140.5q-234 0 -374.5 93t-174.5 266q-7 44 10 69.5t64 40.5l215 72q47 17 69 5t31 -60q12 -65 66 -99t141 -34q225 0 260 196l6 43h-340q-49 0 -65 19.5t-7 68.5l29 172
q9 49 32 67.5t71 18.5h342l6 37q17 93 -32 141t-159 48q-183 0 -260 -134q-25 -46 -50 -57t-69 4l-184 70q-43 17 -51 41.5t16 68.5z" />
    <glyph glyph-name="uni042E" unicode="&#x42e;" horiz-adv-x="1992" 
d="M758 963q41 246 227.5 384t472.5 138q291 0 424 -161.5t86 -432.5l-65 -371q-46 -265 -228 -408t-479 -143q-284 0 -422.5 148t-95.5 399l8 43h-182l-84 -473q-8 -47 -31 -66.5t-72 -19.5h-231q-47 0 -63 19.5t-7 66.5l226 1282q7 47 30 66.5t70 19.5h231q49 0 65.5 -19
t8.5 -67l-80 -453h183zM1571 932q17 96 -27.5 145t-146.5 49q-101 0 -163 -49t-79 -145l-72 -410q-19 -96 26 -145t146 -49q206 0 244 194z" />
    <glyph glyph-name="uni042E" unicode="&#x44e;" horiz-adv-x="1992" 
d="M758 963q41 246 227.5 384t472.5 138q291 0 424 -161.5t86 -432.5l-65 -371q-46 -265 -228 -408t-479 -143q-284 0 -422.5 148t-95.5 399l8 43h-182l-84 -473q-8 -47 -31 -66.5t-72 -19.5h-231q-47 0 -63 19.5t-7 66.5l226 1282q7 47 30 66.5t70 19.5h231q49 0 65.5 -19
t8.5 -67l-80 -453h183zM1571 932q17 96 -27.5 145t-146.5 49q-101 0 -163 -49t-79 -145l-72 -410q-19 -96 26 -145t146 -49q206 0 244 194z" />
    <glyph glyph-name="uni042F" unicode="&#x42f;" horiz-adv-x="1361" 
d="M137 991q42 230 197.5 346.5t394.5 116.5h584q49 0 64.5 -19t6.5 -67l-225 -1282q-9 -48 -31 -67t-71 -19h-232q-49 0 -64 19t-7 67l69 397h-53q-71 0 -107.5 -21.5t-72.5 -82.5l-172 -293q-31 -54 -70.5 -70t-124.5 -16h-221q-50 0 -58 27t23 73l230 351q62 94 84 118
q-92 59 -130 167.5t-14 254.5zM711 1098q-65 0 -106.5 -35.5t-53.5 -99.5q-11 -63 19 -97.5t96 -34.5h219l47 267h-221z" />
    <glyph glyph-name="uni042F" unicode="&#x44f;" horiz-adv-x="1361" 
d="M137 991q42 230 197.5 346.5t394.5 116.5h584q49 0 64.5 -19t6.5 -67l-225 -1282q-9 -48 -31 -67t-71 -19h-232q-49 0 -64 19t-7 67l69 397h-53q-71 0 -107.5 -21.5t-72.5 -82.5l-172 -293q-31 -54 -70.5 -70t-124.5 -16h-221q-50 0 -58 27t23 73l230 351q62 94 84 118
q-92 59 -130 167.5t-14 254.5zM711 1098q-65 0 -106.5 -35.5t-53.5 -99.5q-11 -63 19 -97.5t96 -34.5h219l47 267h-221z" />
    <glyph glyph-name="Wgrave" unicode="&#x1e80;" horiz-adv-x="1923" 
d="M1040 1872q58 56 138 6l258 -170q26 -16 24 -33t-30 -45l-70 -69q-19 -19 -41 -20.5t-55 11.5l-351 115q-23 8 -29 19.5t1.5 26t29.5 36.5zM1985 1454q44 0 51.5 -20.5t-11.5 -63.5l-540 -1298q-18 -42 -45.5 -57t-73.5 -15h-252q-47 0 -70 15t-24 53l-27 479
q-6 178 27 368h-19q-42 -197 -106 -368l-195 -475q-21 -42 -48 -57t-72 -15h-244q-47 0 -69 14.5t-25 53.5l-84 1302q-3 46 10.5 65t58.5 19h248q57 0 79.5 -15t25.5 -61l-5 -536q0 -73 -12 -190.5t-22 -172.5h14q43 216 102 363l224 536q18 47 45.5 61.5t81.5 14.5h217
q51 0 75 -15.5t27 -60.5l29 -536q7 -140 -23 -363h15q39 186 94 363l182 536q17 46 44.5 61t84.5 15h232z" />
    <glyph glyph-name="Wgrave" unicode="&#x1e81;" horiz-adv-x="1923" 
d="M1040 1872q58 56 138 6l258 -170q26 -16 24 -33t-30 -45l-70 -69q-19 -19 -41 -20.5t-55 11.5l-351 115q-23 8 -29 19.5t1.5 26t29.5 36.5zM1985 1454q44 0 51.5 -20.5t-11.5 -63.5l-540 -1298q-18 -42 -45.5 -57t-73.5 -15h-252q-47 0 -70 15t-24 53l-27 479
q-6 178 27 368h-19q-42 -197 -106 -368l-195 -475q-21 -42 -48 -57t-72 -15h-244q-47 0 -69 14.5t-25 53.5l-84 1302q-3 46 10.5 65t58.5 19h248q57 0 79.5 -15t25.5 -61l-5 -536q0 -73 -12 -190.5t-22 -172.5h14q43 216 102 363l224 536q18 47 45.5 61.5t81.5 14.5h217
q51 0 75 -15.5t27 -60.5l29 -536q7 -140 -23 -363h15q39 186 94 363l182 536q17 46 44.5 61t84.5 15h232z" />
    <glyph glyph-name="Wacute" unicode="&#x1e82;" horiz-adv-x="1923" 
d="M1214 1872q93 49 136 -6l82 -119q23 -29 17.5 -49t-44.5 -33l-391 -115q-37 -12 -59 -10.5t-35 21.5l-41 67q-14 20 -16.5 33.5t5 24t27.5 20.5zM1985 1454q44 0 51.5 -20.5t-11.5 -63.5l-540 -1298q-18 -42 -45.5 -57t-73.5 -15h-252q-47 0 -70 15t-24 53l-27 479
q-6 178 27 368h-19q-42 -197 -106 -368l-195 -475q-21 -42 -48 -57t-72 -15h-244q-47 0 -69 14.5t-25 53.5l-84 1302q-3 46 10.5 65t58.5 19h248q57 0 79.5 -15t25.5 -61l-5 -536q0 -73 -12 -190.5t-22 -172.5h14q43 216 102 363l224 536q18 47 45.5 61.5t81.5 14.5h217
q51 0 75 -15.5t27 -60.5l29 -536q7 -140 -23 -363h15q39 186 94 363l182 536q17 46 44.5 61t84.5 15h232z" />
    <glyph glyph-name="Wacute" unicode="&#x1e83;" horiz-adv-x="1923" 
d="M1214 1872q93 49 136 -6l82 -119q23 -29 17.5 -49t-44.5 -33l-391 -115q-37 -12 -59 -10.5t-35 21.5l-41 67q-14 20 -16.5 33.5t5 24t27.5 20.5zM1985 1454q44 0 51.5 -20.5t-11.5 -63.5l-540 -1298q-18 -42 -45.5 -57t-73.5 -15h-252q-47 0 -70 15t-24 53l-27 479
q-6 178 27 368h-19q-42 -197 -106 -368l-195 -475q-21 -42 -48 -57t-72 -15h-244q-47 0 -69 14.5t-25 53.5l-84 1302q-3 46 10.5 65t58.5 19h248q57 0 79.5 -15t25.5 -61l-5 -536q0 -73 -12 -190.5t-22 -172.5h14q43 216 102 363l224 536q18 47 45.5 61.5t81.5 14.5h217
q51 0 75 -15.5t27 -60.5l29 -536q7 -140 -23 -363h15q39 186 94 363l182 536q17 46 44.5 61t84.5 15h232z" />
    <glyph glyph-name="Wdieresis" unicode="&#x1e84;" horiz-adv-x="1923" 
d="M979 1872q86 0 113.5 -31.5t13.5 -114.5l-6 -26q-13 -82 -52 -114t-124 -32h-17q-84 0 -109.5 31.5t-11.5 114.5l7 26q14 84 50 115t120 31h16zM1419 1872q85 0 111.5 -31.5t13.5 -114.5l-6 -26q-14 -82 -51.5 -114t-122.5 -32h-14q-86 0 -112.5 32t-12.5 114l6 26
q14 83 51 114.5t123 31.5h14zM1985 1454q44 0 51.5 -20.5t-11.5 -63.5l-540 -1298q-18 -42 -45.5 -57t-73.5 -15h-252q-47 0 -70 15t-24 53l-27 479q-6 178 27 368h-19q-42 -197 -106 -368l-195 -475q-21 -42 -48 -57t-72 -15h-244q-47 0 -69 14.5t-25 53.5l-84 1302
q-3 46 10.5 65t58.5 19h248q57 0 79.5 -15t25.5 -61l-5 -536q0 -73 -12 -190.5t-22 -172.5h14q43 216 102 363l224 536q18 47 45.5 61.5t81.5 14.5h217q51 0 75 -15.5t27 -60.5l29 -536q7 -140 -23 -363h15q39 186 94 363l182 536q17 46 44.5 61t84.5 15h232z" />
    <glyph glyph-name="Wdieresis" unicode="&#x1e85;" horiz-adv-x="1923" 
d="M979 1872q86 0 113.5 -31.5t13.5 -114.5l-6 -26q-13 -82 -52 -114t-124 -32h-17q-84 0 -109.5 31.5t-11.5 114.5l7 26q14 84 50 115t120 31h16zM1419 1872q85 0 111.5 -31.5t13.5 -114.5l-6 -26q-14 -82 -51.5 -114t-122.5 -32h-14q-86 0 -112.5 32t-12.5 114l6 26
q14 83 51 114.5t123 31.5h14zM1985 1454q44 0 51.5 -20.5t-11.5 -63.5l-540 -1298q-18 -42 -45.5 -57t-73.5 -15h-252q-47 0 -70 15t-24 53l-27 479q-6 178 27 368h-19q-42 -197 -106 -368l-195 -475q-21 -42 -48 -57t-72 -15h-244q-47 0 -69 14.5t-25 53.5l-84 1302
q-3 46 10.5 65t58.5 19h248q57 0 79.5 -15t25.5 -61l-5 -536q0 -73 -12 -190.5t-22 -172.5h14q43 216 102 363l224 536q18 47 45.5 61.5t81.5 14.5h217q51 0 75 -15.5t27 -60.5l29 -536q7 -140 -23 -363h15q39 186 94 363l182 536q17 46 44.5 61t84.5 15h232z" />
    <glyph glyph-name="Ygrave" unicode="&#x1ef2;" horiz-adv-x="1386" 
d="M772 1872q58 56 137 6l258 -170q26 -16 24 -33t-30 -45l-69 -69q-19 -19 -41.5 -20.5t-55.5 11.5l-350 115q-23 8 -29 19.5t1.5 26t29.5 36.5zM1473 1454q45 0 51.5 -25.5t-23.5 -60.5l-614 -805l-84 -477q-8 -47 -31 -66.5t-72 -19.5h-229q-49 0 -65 19.5t-7 66.5
l84 477l-329 805q-17 35 -2.5 60.5t59.5 25.5h238q81 0 109.5 -12t47.5 -64l146 -420l301 420q37 52 68.5 64t111.5 12h240z" />
    <glyph glyph-name="Ygrave" unicode="&#x1ef3;" horiz-adv-x="1386" 
d="M772 1872q58 56 137 6l258 -170q26 -16 24 -33t-30 -45l-69 -69q-19 -19 -41.5 -20.5t-55.5 11.5l-350 115q-23 8 -29 19.5t1.5 26t29.5 36.5zM1473 1454q45 0 51.5 -25.5t-23.5 -60.5l-614 -805l-84 -477q-8 -47 -31 -66.5t-72 -19.5h-229q-49 0 -65 19.5t-7 66.5
l84 477l-329 805q-17 35 -2.5 60.5t59.5 25.5h238q81 0 109.5 -12t47.5 -64l146 -420l301 420q37 52 68.5 64t111.5 12h240z" />
    <glyph glyph-name="endash" unicode="&#x2013;" horiz-adv-x="1165" 
d="M1030 866q49 0 64.5 -19t7.5 -67l-29 -174q-9 -47 -32 -66.5t-70 -19.5h-809q-49 0 -65 19.5t-7 66.5l31 174q7 47 30 66.5t70 19.5h809z" />
    <glyph glyph-name="emdash" unicode="&#x2014;" horiz-adv-x="1599" 
d="M1466 868q49 0 64.5 -19t7.5 -69l-33 -176q-8 -47 -30.5 -66.5t-71.5 -19.5h-1241q-49 0 -64.5 19t-7.5 67l33 176q7 49 29.5 68.5t70.5 19.5h1243z" />
    <glyph glyph-name="quoteleft" unicode="&#x2018;" horiz-adv-x="538" 
d="M336 1384q20 41 45.5 57.5t71.5 16.5h122q38 0 49 -14t1 -49l-138 -467q-17 -57 -42.5 -78t-79.5 -21h-193q-60 0 -73 28.5t14 78.5z" />
    <glyph glyph-name="quoteright" unicode="&#x2019;" horiz-adv-x="532" 
d="M389 901q-22 -40 -48 -56t-71 -16h-120q-38 0 -50 14t-2 48l138 467q19 58 45 79t79 21h191q115 0 61 -108z" />
    <glyph glyph-name="quotesinglbase" unicode="&#x201a;" horiz-adv-x="479" 
d="M217 -238q-11 -43 -32.5 -60t-65.5 -17h-127q-44 0 -58 17t-6 60l68 385q8 43 28 60.5t64 17.5h178q44 0 60 -18t4 -60z" />
    <glyph glyph-name="quotedblleft" unicode="&#x201c;" horiz-adv-x="964" 
d="M340 1393q22 42 47 57.5t70 15.5h123q38 0 49 -14t2 -49l-139 -467q-17 -57 -43 -77.5t-80 -20.5h-193q-115 0 -59 106zM766 1393q20 41 45.5 57t71.5 16h123q38 0 49 -14t0 -49l-137 -467q-17 -57 -43 -77.5t-80 -20.5h-193q-115 0 -59 106z" />
    <glyph glyph-name="quotedblright" unicode="&#x201d;" horiz-adv-x="960" 
d="M387 887q-22 -42 -48 -58t-71 -16h-123q-37 0 -48 14.5t-1 49.5l137 466q17 56 43.5 77.5t79.5 21.5h193q114 0 61 -107zM811 887q-20 -41 -45.5 -57.5t-71.5 -16.5h-123q-38 0 -49 14.5t0 49.5l137 466q17 56 43.5 77.5t79.5 21.5h193q115 0 59 -107z" />
    <glyph glyph-name="quotedblbase" unicode="&#x201e;" horiz-adv-x="962" 
d="M184 -188q-22 -42 -47.5 -58t-70.5 -16h-121q-38 0 -49.5 14t-1.5 49l137 467q17 57 43 78t80 21h192q60 0 74 -28.5t-12 -78.5zM608 -188q-20 -42 -45.5 -58t-70.5 -16h-123q-38 0 -49 14t-1 49l138 467q17 57 43 78t80 21h192q60 0 73 -28.5t-14 -78.5z" />
    <glyph glyph-name="dagger" unicode="&#x2020;" horiz-adv-x="1118" 
d="M1063 1087q49 0 64.5 -19t7.5 -69l-33 -184q-9 -49 -32 -67.5t-73 -18.5h-229l-147 -848q-9 -48 -31.5 -67t-71.5 -19h-209q-49 0 -64.5 19t-6.5 67l147 848h-229q-50 0 -65.5 18.5t-6.5 67.5l33 184q9 49 31.5 68.5t70.5 19.5h232l49 281q9 50 31 69t71 19h209
q50 0 65.5 -19t6.5 -69l-49 -281h229z" />
    <glyph glyph-name="daggerdbl" unicode="&#x2021;" horiz-adv-x="1163" 
d="M831 1456q49 0 65 -19t7 -69l-49 -281h229q49 0 64.5 -19t7.5 -69l-33 -184q-9 -49 -31.5 -67.5t-72.5 -18.5h-230l-36 -209h231q50 0 65.5 -18.5t6.5 -67.5l-33 -184q-7 -49 -29.5 -68.5t-72.5 -19.5h-230l-49 -281q-9 -48 -31 -67t-71 -19h-209q-49 0 -65 19.5t-7 66.5
l49 281h-229q-50 0 -65.5 19t-6.5 69l33 184q7 49 28.5 67.5t71.5 18.5h230l37 209h-230q-50 0 -65.5 18.5t-6.5 67.5l33 184q9 50 31.5 69t71.5 19h231l49 281q9 50 31.5 69t71.5 19h208z" />
    <glyph glyph-name="bullet" unicode="&#x2022;" horiz-adv-x="819" 
d="M342 233q-130 0 -200.5 89t-47.5 219q23 131 124.5 218t232.5 87q130 0 200 -87t47 -218q-23 -130 -125 -219t-231 -89z" />
    <glyph glyph-name="ellipsis" unicode="&#x2026;" horiz-adv-x="1640" 
d="M125 -16q-92 0 -121 34t-12 125l14 84q15 90 56.5 125t134.5 35h75q92 0 121.5 -34.5t14.5 -125.5l-17 -84q-15 -90 -56 -124.5t-132 -34.5h-78zM674 -16q-92 0 -121 34t-12 125l14 84q15 91 56 125.5t132 34.5h78q92 0 121 -34.5t12 -125.5l-14 -84q-17 -91 -57 -125
t-131 -34h-78zM1223 -16q-92 0 -121 34t-12 125l14 84q15 91 56 125.5t132 34.5h78q92 0 120 -34.5t13 -125.5l-14 -84q-17 -91 -57.5 -125t-131.5 -34h-77z" />
    <glyph glyph-name="perthousand" unicode="&#x2030;" horiz-adv-x="2639" 
d="M152 1165q27 150 136 235t285 85t256 -85t52 -235l-27 -153q-27 -150 -135.5 -234t-284.5 -84t-256 84t-53 234zM1712 1454q42 0 50.5 -25t-21.5 -57l-1180 -1296q-46 -50 -76.5 -63t-105.5 -13h-186q-45 0 -52 26t23 60l1182 1296q43 47 72 59.5t98 12.5h196zM600 1147
q15 74 -72 74q-90 0 -102 -74l-18 -115q-16 -76 73 -76q85 0 101 76zM1042 440q25 151 134.5 236.5t285.5 85.5t256.5 -85.5t53.5 -236.5l-27 -153q-28 -150 -137 -234t-285 -84t-256 84t-53 234zM1825 440q27 151 136.5 236.5t285.5 85.5t255 -85t54 -237l-29 -153
q-27 -150 -135.5 -234t-284.5 -84t-256 84t-53 234zM1493 422q5 37 -14 55.5t-62 18.5q-88 0 -100 -74l-21 -115q-6 -37 12.5 -55.5t63.5 -18.5q86 0 101 74zM2275 422q12 74 -73 74q-89 0 -101 -74l-20 -115q-12 -74 73 -74q89 0 101 74z" />
    <glyph glyph-name="guilsinglleft" unicode="&#x2039;" horiz-adv-x="776" 
d="M651 506q23 -27 19 -48.5t-35 -49.5l-133 -117q-31 -28 -52.5 -27.5t-43.5 27.5l-326 391q-23 28 -19 49t37 49l469 402q30 27 52.5 27t46.5 -27l92 -109q22 -28 18.5 -48t-35.5 -48l-280 -240z" />
    <glyph glyph-name="guilsinglright" unicode="&#x203a;" horiz-adv-x="774" 
d="M160 940q-22 26 -18.5 48t34.5 50l133 117q33 28 55 27.5t44 -27.5l325 -391q22 -28 18 -49t-36 -49l-469 -402q-30 -27 -52.5 -27t-46.5 27l-94 109q-23 28 -18.5 48t37.5 48l280 240z" />
    <glyph glyph-name="fraction" unicode="&#x2044;" horiz-adv-x="548" 
d="M573 1382q34 47 61.5 59.5t98.5 12.5h195q45 0 56 -23.5t-13 -58.5l-953 -1296q-39 -50 -67 -63t-103 -13h-186q-45 0 -57.5 25.5t14.5 60.5z" />
    <glyph glyph-name="Euro" unicode="&#x20ac;" horiz-adv-x="1564" 
d="M375 1010q40 231 225 353t469 122q383 0 492 -275q18 -44 3 -73.5t-67 -49.5l-180 -65q-49 -17 -70 -10.5t-43 37.5q-1 1 -12 13t-22.5 20.5t-32.5 20t-52.5 17.5t-70.5 6q-95 0 -158.5 -33.5t-75.5 -95.5l-2 -10h338q38 0 47.5 -15t-8.5 -52l-45 -101q-19 -36 -41 -49.5
t-61 -13.5h-281l-14 -76h260q39 0 48 -15.5t-9 -52.5l-47 -100q-17 -35 -40.5 -49t-64.5 -14h-170l-4 -15q-11 -63 32 -90t124 -27q142 0 235 93q30 33 54.5 39.5t70.5 -13.5l187 -78q89 -41 26 -127q-89 -128 -242.5 -195t-355.5 -67q-139 0 -245.5 25t-182.5 78
t-107 141.5t-10 208.5l4 27h-202q-38 0 -46 15t7 52l47 100q19 37 40 50.5t62 13.5h129l15 76h-109q-38 0 -47 15t6 50l49 103q17 36 39 49.5t62 13.5h41z" />
    <glyph glyph-name="uni20BD" unicode="&#x20bd;" horiz-adv-x="1445" 
d="M575 395h521q43 0 57 -18t6 -62l-14 -79q-7 -44 -27.5 -61t-64.5 -17h-521l-12 -72q-8 -47 -30.5 -66.5t-71.5 -19.5h-232q-47 0 -62.5 19.5t-6.5 66.5l12 72h-74q-44 0 -58 17t-7 61l14 79q9 44 29 62t63 18h74l172 973q9 48 31 67t69 19h596q229 0 340 -138.5
t70 -369.5q-73 -428 -574 -428h-276zM653 840h209q149 0 170 135q27 133 -125 133h-207z" />
    <glyph glyph-name="uni2113" unicode="&#x2113;" horiz-adv-x="1021" 
d="M319 1061q17 98 52 174.5t79 125t99 80.5t110 45t115 13q173 0 243 -96.5t40 -265.5q-14 -83 -44 -159t-87.5 -162t-156 -177.5t-234.5 -183.5l-9 -52q-9 -53 12 -77.5t62 -24.5q47 0 88 35q55 39 80 -6l100 -150q32 -45 -18 -84q-137 -108 -326 -108q-72 0 -127.5 11.5
t-102 39.5t-71.5 80.5t-26 128.5v10q-4 -2 -13.5 -6.5t-11.5 -5.5q-25 -13 -41.5 -15t-28 6t-20.5 29l-62 154q-14 26 -6 52.5t37 43.5q104 56 193 111zM743 1139q12 61 -24 61q-54 0 -78 -141l-31 -172q113 115 133 252z" />
    </font>
</defs>
</svg>
