<?xml version="1.0" standalone="no"?>
<!DOCTYPE svg PUBLIC "-//W3C//DTD SVG 1.1//EN" "http://www.w3.org/Graphics/SVG/1.1/DTD/svg11.dtd" >
<svg xmlns="http://www.w3.org/2000/svg" xmlns:xlink="http://www.w3.org/1999/xlink" version="1.1">
<metadata>
Created by FontForge 20170731 at Wed Jul 15 02:04:51 2020
 By Aleksey,,,
Copyright (c) 2018 by Fontfabric LLC. All rights reserved.
</metadata>
<defs>
<font id="PantonDemo-Light" horiz-adv-x="0" >
  <font-face 
    font-family="Panton Light Caps"
    font-weight="290"
    font-stretch="normal"
    units-per-em="2048"
    panose-1="0 0 3 0 0 0 0 0 0 0"
    ascent="1638"
    descent="-410"
    cap-height="1454"
    bbox="-746.692 -518 2372 1962.53"
    underline-thickness="102"
    underline-position="-307"
    unicode-range="U+0020-25CA"
  />
<missing-glyph horiz-adv-x="1468" 
d="M246 0q-15 0 -21 6t-6 21v1400q0 15 6 21t21 6h987q27 0 27 -27v-1400q0 -27 -27 -27h-987zM1165 88v1278h-852v-1278h852z" />
    <glyph glyph-name=".notdef" horiz-adv-x="1468" 
d="M246 0q-15 0 -21 6t-6 21v1400q0 15 6 21t21 6h987q27 0 27 -27v-1400q0 -27 -27 -27h-987zM1165 88v1278h-852v-1278h852z" />
    <glyph glyph-name=".null" horiz-adv-x="356" 
 />
    <glyph glyph-name="nonmarkingreturn" horiz-adv-x="682" 
 />
    <glyph glyph-name="space" unicode=" " horiz-adv-x="499" 
 />
    <glyph glyph-name="exclam" unicode="!" horiz-adv-x="452" 
d="M215 309q-25 0 -25 25l-12 1157q0 25 25 25h47q24 0 24 -25l-12 -1157q-2 -14 -6.5 -19.5t-17.5 -5.5h-23zM221 -12q-35 0 -47 11.5t-12 47.5v10q0 34 12.5 47t46.5 13h10q35 0 47.5 -13t12.5 -47v-10q0 -35 -12.5 -47t-47.5 -12h-10z" />
    <glyph glyph-name="quotedbl" unicode="&#x22;" horiz-adv-x="614" 
d="M205 991q-13 0 -18 4.5t-5 16.5v420q0 13 4.5 17.5t18.5 4.5h39q14 0 18.5 -4.5t3.5 -17.5l-16 -420q0 -12 -5 -16.5t-18 -4.5h-22zM401 991q-22 0 -22 21v420q0 13 5 17.5t17 4.5h41q14 0 18.5 -4.5t4.5 -17.5l-16 -420q0 -21 -23 -21h-25z" />
    <glyph glyph-name="numbersign" unicode="#" horiz-adv-x="1425" 
d="M262 0q-26 0 -18 25l116 389h-235q-25 0 -19 22l13 37q5 14 11.5 18.5t21.5 4.5h233l115 383h-236q-26 0 -18 22l12 37q5 23 31 23h235l103 339q3 14 9 19.5t21 5.5h39q27 0 19 -25l-103 -339h359l102 339q8 25 29 25h41q15 0 19 -5.5t-1 -19.5l-100 -339h239
q25 0 17 -25l-10 -37q-7 -20 -31 -20h-240l-114 -383h239q25 0 19 -25l-13 -37q-5 -20 -30 -20h-240l-117 -389q-8 -25 -30 -25h-41q-25 0 -17 25l115 389h-358l-117 -389q-3 -14 -9.5 -19.5t-19.5 -5.5h-41zM831 496l115 383h-358l-115 -383h358z" />
    <glyph glyph-name="dollar" unicode="$" horiz-adv-x="1271" 
d="M606 -160q-13 0 -17.5 5.5t-4.5 19.5v145q-180 10 -287.5 99.5t-175.5 255.5q-10 26 16 38l37 13q13 5 21 1.5t14 -18.5q33 -76 68 -128.5t84.5 -93.5t117 -61t156.5 -20q407 0 407 307q0 68 -25 118t-51 76t-94 45.5t-100 24.5t-123 15q-4 1 -7.5 1.5t-6.5 0.5
q-63 7 -102.5 12.5t-96 17.5t-92.5 28t-76.5 43t-63.5 62t-38.5 86t-15.5 114q0 186 109 288.5t325 108.5v145q0 14 4.5 19.5t17.5 5.5h41q25 0 25 -25v-145q119 -7 204.5 -48t140.5 -106.5t107 -171.5q11 -26 -14 -37l-37 -14q-13 -7 -21.5 -5t-15.5 15q-37 74 -72.5 122.5
t-84.5 86.5t-114.5 55t-154.5 17q-364 0 -364 -311q0 -37 7.5 -68.5t19 -55.5t32.5 -43.5t40 -33t51 -24.5t56 -17.5t63.5 -12.5t64.5 -9t69 -7q92 -10 144 -18t127 -33t115.5 -61t71 -102t30.5 -156q0 -185 -117 -286t-348 -110v-145q0 -25 -25 -25h-41z" />
    <glyph glyph-name="percent" unicode="%" horiz-adv-x="1720" 
d="M428 735q-153 0 -235 78.5t-82 218.5v152q0 141 82 221t235 80q152 0 233.5 -80t81.5 -221v-152q0 -140 -81.5 -218.5t-233.5 -78.5zM309 0q-15 0 -18.5 8t4.5 19l1034 1405q10 15 18 18.5t29 3.5h37q15 0 18 -7.5t-6 -19.5l-1032 -1404q-12 -15 -21 -19t-32 -4h-31z
M428 809q115 0 177.5 60t62.5 167v146q0 108 -62.5 168.5t-177.5 60.5q-116 0 -178 -60.5t-62 -168.5v-146q0 -107 62 -167t178 -60zM1292 -31q-153 0 -234 78.5t-81 218.5v152q0 142 81 221.5t234 79.5t235.5 -80t82.5 -221v-152q0 -140 -82.5 -218.5t-235.5 -78.5z
M1292 43q116 0 178 60t62 167v146q0 108 -62 168.5t-178 60.5t-177.5 -60.5t-61.5 -168.5v-146q0 -107 61.5 -167t177.5 -60z" />
    <glyph glyph-name="ampersand" unicode="&#x26;" horiz-adv-x="1402" 
d="M506 -29q-161 0 -273 110t-112 273q0 69 18.5 127.5t47.5 100t75 78.5t90 61.5t103 50.5q-46 46 -75.5 80t-63 82.5t-50 100.5t-16.5 108q0 138 99 239t259 101q152 0 253.5 -99.5t101.5 -236.5q0 -143 -81.5 -227t-269.5 -162l-20 -8l424 -408l149 141q15 18 33 0
l29 -28q15 -15 -2 -31l-150 -143l262 -256q12 -11 9.5 -18t-19.5 -7h-55q-23 0 -39 16l-217 209q-117 -107 -206 -163.5t-154 -73.5t-150 -17zM573 829q47 20 72.5 31.5t63.5 31t58.5 35.5t45.5 40t37 49t20.5 58.5t8.5 72.5q0 103 -77 180.5t-194 77.5q-120 0 -196 -78
t-76 -184q0 -41 12 -80.5t27.5 -68.5t46.5 -66.5t50.5 -57.5t59.5 -59zM510 55q106 0 200.5 47t245.5 183l-444 428q-73 -31 -122.5 -61t-93 -72.5t-64.5 -99t-21 -128.5q0 -125 88 -211t211 -86z" />
    <glyph glyph-name="quotesingle" unicode="'" horiz-adv-x="415" 
d="M193 991q-23 0 -23 21v420q0 13 5 17.5t18 4.5h40q14 0 18.5 -4.5t4.5 -17.5l-16 -420q0 -21 -23 -21h-24z" />
    <glyph glyph-name="parenleft" unicode="(" horiz-adv-x="557" 
d="M446 -283q-72 43 -119 81t-88 91.5t-60 124t-19 162.5v1047q0 73 13.5 133.5t36.5 105.5t61 85.5t78 70t97 63.5q19 10 31 -14l17 -33q5 -12 2.5 -18t-15.5 -14q-60 -38 -96.5 -68t-71 -73.5t-50 -100t-15.5 -131.5v-1059q0 -75 15.5 -131.5t50 -100.5t71 -74t96.5 -69
q23 -14 13 -31l-17 -34q-11 -23 -31 -13z" />
    <glyph glyph-name="parenright" unicode=")" horiz-adv-x="557" 
d="M113 -283q-21 -11 -33 13l-17 34q-10 17 13 31q61 39 97.5 69t71.5 74t50.5 100.5t15.5 131.5v1059q0 75 -15.5 131.5t-50 100t-72 73.5t-97.5 68q-12 8 -14.5 14t1.5 18l17 33q12 24 33 14q71 -43 118 -81.5t87.5 -92t59.5 -123.5t19 -161v-1047q0 -92 -19 -162.5
t-59.5 -124t-87 -91.5t-118.5 -81z" />
    <glyph glyph-name="asterisk" unicode="*" horiz-adv-x="858" 
d="M250 883q-15 10 -4 24l149 183l-223 61q-21 3 -14 20l10 31q5 16 22 8l218 -82l-11 234q-3 16 15 16h32q18 0 15 -16l-10 -234l219 82q19 5 24 -10l8 -29q6 -19 -12 -22l-227 -59l147 -185q14 -11 -2 -24l-26 -19q-14 -11 -23 6l-129 197l-129 -197q-8 -17 -25 -6z" />
    <glyph glyph-name="plus" unicode="+" horiz-adv-x="1249" 
d="M608 186q-15 0 -20.5 6t-5.5 21v416h-416q-25 0 -25 24v33q0 27 25 27h416v413q0 15 5.5 21t20.5 6h33q25 0 25 -27v-413h415q27 0 27 -27v-33q0 -13 -6 -18.5t-21 -5.5h-415v-416q0 -27 -25 -27h-33z" />
    <glyph glyph-name="comma" unicode="," horiz-adv-x="395" 
d="M90 -248q-12 0 -15 4t-1 15l78 321q3 18 12 24.5t29 6.5h34q37 0 25 -31l-113 -317q-6 -23 -28 -23h-21z" />
    <glyph glyph-name="hyphen" unicode="-" horiz-adv-x="937" 
d="M188 664q-24 0 -24 26v35q0 25 24 25h560q15 0 20.5 -5.5t5.5 -19.5v-35q0 -26 -26 -26h-560z" />
    <glyph glyph-name="period" unicode="." horiz-adv-x="403" 
d="M197 -12q-36 0 -48 11.5t-12 47.5v10q0 34 12.5 47t47.5 13h10q34 0 46.5 -13t12.5 -47v-10q0 -35 -12.5 -47t-46.5 -12h-10z" />
    <glyph glyph-name="slash" unicode="/" horiz-adv-x="866" 
d="M121 -123q-27 0 -17 23l568 1532q7 22 33 22h43q25 0 16 -22l-567 -1532q-8 -23 -33 -23h-43z" />
    <glyph glyph-name="zero" unicode="0" horiz-adv-x="1349" 
d="M676 -29q-248 0 -384 124t-136 341v582q0 216 136 340.5t384 124.5q246 0 382 -124.5t136 -340.5v-582q0 -217 -135.5 -341t-382.5 -124zM676 59q203 0 312.5 99.5t109.5 277.5v582q0 177 -110 277t-312 100q-203 0 -313.5 -100t-110.5 -277v-582q0 -178 110 -277.5
t314 -99.5z" />
    <glyph glyph-name="one" unicode="1" horiz-adv-x="974" 
d="M686 0q-15 0 -21 6t-6 21v1312l-505 -280q-13 -8 -21.5 -5.5t-15.5 15.5l-21 35q-15 21 10 33l549 307q17 10 37 10h35q15 0 21 -6t6 -21v-1400q0 -15 -6 -21t-21 -6h-41z" />
    <glyph glyph-name="two" unicode="2" horiz-adv-x="1263" 
d="M168 0q-27 0 -27 27v147q0 57 13.5 106t33 86t56 71.5t68 57t83.5 48t87.5 40.5t95.5 38q171 66 228 96q150 80 195 199q23 60 23 135q0 145 -100.5 244.5t-257.5 99.5q-162 0 -264.5 -68t-165.5 -209q-12 -24 -33 -14l-43 14q-25 10 -15 33q72 167 197.5 249.5
t325.5 82.5q201 0 327.5 -124.5t126.5 -303.5q0 -52 -9 -97.5t-22 -82t-39 -71t-49 -59.5t-63.5 -51.5t-70.5 -44.5t-82.5 -41.5t-87 -37.5t-95.5 -38q-52 -20 -79 -31t-72.5 -32t-70 -37.5t-56 -43.5t-47.5 -54t-27.5 -64.5t-11.5 -79.5v-102h850q26 0 26 -25v-36
q0 -27 -26 -27h-922z" />
    <glyph glyph-name="three" unicode="3" horiz-adv-x="1277" 
d="M657 -29q-156 0 -261.5 44t-164.5 121.5t-96 199.5q-8 24 19 33l39 14q23 10 32 -16q48 -161 143 -234.5t289 -73.5q196 0 291.5 87.5t95.5 248.5q0 142 -79 224.5t-226 82.5h-340q-24 0 -24 25v35q0 15 5 20.5t19 5.5h330q137 0 207 81.5t70 203.5q0 156 -88.5 239
t-260.5 83q-127 0 -210 -33.5t-130 -96.5t-79 -169q-8 -23 -33 -15l-39 13q-27 9 -19 34q36 120 95 195.5t161.5 117.5t253.5 42q217 0 329 -105.5t112 -298.5q0 -113 -49 -201t-148 -126q118 -36 179 -130t61 -227q0 -200 -120.5 -312t-363.5 -112z" />
    <glyph glyph-name="four" unicode="4" horiz-adv-x="1292" 
d="M895 0q-25 0 -25 27v397h-757q-15 0 -21 6t-6 21v26q0 23 8 33l760 946q18 21 37 21h41q17 0 23 -6t6 -23v-938h213q15 0 20.5 -6t5.5 -21v-32q0 -15 -5.5 -21t-20.5 -6h-213v-397q0 -15 -6 -21t-21 -6h-39zM870 510v833l-671 -833h671z" />
    <glyph glyph-name="five" unicode="5" horiz-adv-x="1253" 
d="M645 -31q-211 0 -338 81t-184 239q-9 25 14 33l43 16q22 8 33 -19q45 -130 150 -196t282 -66t281 105t104 264q0 152 -95 249t-271 97h-451q-19 0 -26 8t-5 27l62 602q3 26 13.5 35.5t35.5 9.5h758q15 0 20.5 -6t5.5 -21v-36q0 -14 -5.5 -19.5t-20.5 -5.5h-717l-51 -506
h385q115 0 204.5 -34t145 -94t84 -137.5t28.5 -168.5q0 -93 -33.5 -176t-94.5 -145.5t-153.5 -99t-203.5 -36.5z" />
    <glyph glyph-name="six" unicode="6" horiz-adv-x="1323" 
d="M672 -29q-251 0 -384.5 135t-133.5 375v492q0 250 132 380t386 130q195 0 316 -77.5t179 -231.5q10 -22 -16 -33l-39 -15q-13 -4 -20 0.5t-13 18.5q-51 125 -149.5 187.5t-257.5 62.5q-207 0 -314.5 -106.5t-107.5 -313.5v-215q198 76 440 76q255 0 377.5 -106.5
t122.5 -326.5q0 -204 -137.5 -318t-380.5 -114zM672 59q202 0 312 89.5t110 254.5q0 176 -98.5 261.5t-309.5 85.5q-109 0 -213 -19t-149 -35t-74 -30v-187q0 -199 108 -309.5t314 -110.5z" />
    <glyph glyph-name="seven" unicode="7" horiz-adv-x="1107" 
d="M344 0q-24 0 -14 27l614 1339h-829q-25 0 -25 25v36q0 27 25 27h911q15 0 21 -6t6 -21v-24q0 -13 -9 -37l-612 -1343q-6 -15 -14.5 -19t-32.5 -4h-41z" />
    <glyph glyph-name="eight" unicode="8" horiz-adv-x="1312" 
d="M655 -29q-520 0 -520 365q0 79 28.5 145.5t67.5 108t95 76t96.5 50.5t85.5 29q-74 25 -128 53.5t-102.5 71.5t-74 105t-25.5 141q0 177 126 272t351 95q237 0 359.5 -92t122.5 -269q0 -74 -24 -135.5t-57.5 -100.5t-81.5 -70.5t-85 -47t-78 -27.5q66 -21 114 -40.5
t98.5 -52t82 -71.5t52 -96t20.5 -127q0 -180 -126 -281.5t-397 -101.5zM702 774q342 78 342 340q0 140 -99.5 212.5t-289.5 72.5q-182 0 -281.5 -73.5t-99.5 -211.5q0 -46 12.5 -85t29.5 -67t51 -53.5t61 -41t76 -33t79.5 -26.5t86.5 -24zM655 55q424 0 424 299
q0 82 -28 138.5t-99.5 96t-122.5 57t-167 49.5q-33 9 -50 14q-22 -4 -40.5 -8.5t-60 -19t-74.5 -31t-73.5 -46t-68 -64.5t-46 -86t-18.5 -110q0 -140 100.5 -214.5t323.5 -74.5z" />
    <glyph glyph-name="nine" unicode="9" horiz-adv-x="1323" 
d="M651 -29q-378 0 -495 310q-5 14 -1.5 20t17.5 12l39 15q13 4 20 -0.5t13 -18.5q51 -125 149.5 -187.5t257.5 -62.5q207 0 314.5 106.5t107.5 313.5v215q-198 -76 -440 -76q-255 0 -377.5 106.5t-122.5 326.5q0 204 137.5 318t380.5 114q251 0 384.5 -135t133.5 -375v-492
q0 -250 -132 -380t-386 -130zM637 705q109 0 213 19t149.5 34.5t73.5 29.5v187q0 199 -108 309.5t-314 110.5q-202 0 -312 -89.5t-110 -254.5q0 -176 98.5 -261t309.5 -85z" />
    <glyph glyph-name="colon" unicode=":" horiz-adv-x="450" 
d="M219 1063q-34 0 -46.5 12t-12.5 47v13q0 34 12.5 46.5t46.5 12.5h10q35 0 47.5 -12.5t12.5 -46.5v-13q0 -34 -12.5 -46.5t-47.5 -12.5h-10zM219 190q-34 0 -46.5 12.5t-12.5 47.5v10q0 35 12.5 47t46.5 12h10q35 0 47.5 -12t12.5 -47v-10q0 -35 -12.5 -47.5t-47.5 -12.5
h-10z" />
    <glyph glyph-name="semicolon" unicode=";" horiz-adv-x="526" 
d="M250 860q-34 0 -47 12.5t-13 47.5v10q0 35 13 47t47 12h10q35 0 47 -12t12 -47v-10q0 -35 -12 -47.5t-47 -12.5h-10zM135 -248q-19 0 -16 19l78 321q4 18 13 24.5t28 6.5h34q37 0 25 -31l-111 -317q-5 -13 -11 -18t-19 -5h-21z" />
    <glyph glyph-name="less" unicode="&#x3c;" horiz-adv-x="1095" 
d="M135 621q-14 8 -18 13.5t-4 20.5v25q0 15 4.5 22t17.5 13l766 413q31 19 31 -18v-35q0 -20 -5 -27.5t-22 -17.5l-676 -358v-4l674 -361q18 -8 23.5 -15t5.5 -28v-39q0 -37 -31 -18z" />
    <glyph glyph-name="equal" unicode="=" horiz-adv-x="1298" 
d="M190 829q-24 0 -24 25v35q0 15 5 20.5t19 5.5h916q15 0 21 -5.5t6 -20.5v-35q0 -25 -27 -25h-916zM190 424q-13 0 -18.5 6t-5.5 21v32q0 15 5.5 21t18.5 6h916q15 0 21 -6t6 -21v-32q0 -15 -6 -21t-21 -6h-916z" />
    <glyph glyph-name="greater" unicode="&#x3e;" horiz-adv-x="1095" 
d="M195 207q-31 -19 -31 18v35q0 21 5 28t24 17l673 359v4l-673 360q-19 10 -24 16.5t-5 28.5v37q0 36 31 20l766 -415q13 -6 17.5 -13t4.5 -22v-25q0 -13 -4 -19.5t-18 -14.5z" />
    <glyph glyph-name="question" unicode="?" horiz-adv-x="1198" 
d="M532 289q-14 0 -19 4.5t-5 19.5q0 62 14 114t33.5 87t55 71t62 56t72.5 51q42 28 63.5 44t57 45.5t54.5 57t40 66t30 85.5t9 102q0 146 -103.5 242t-285.5 96q-316 0 -424 -281q-6 -14 -12 -17.5t-20 1.5l-39 12q-26 9 -15 33q128 338 510 338q222 0 353 -120.5
t131 -301.5q0 -45 -6.5 -86t-14.5 -73t-26.5 -65t-31 -54t-39.5 -48t-40.5 -40t-46.5 -37t-44 -31.5t-46 -30.5q-50 -34 -79.5 -58t-64 -63t-51 -87.5t-16.5 -107.5q0 -14 -5.5 -19t-19.5 -5h-31zM543 -12q-35 0 -47.5 11.5t-12.5 47.5v10q0 34 13 47t47 13h10q35 0 47 -13
t12 -47v-10q0 -35 -12 -47t-47 -12h-10z" />
    <glyph glyph-name="at" unicode="@" horiz-adv-x="1908" 
d="M948 -270q-386 0 -599.5 207.5t-213.5 588.5v142q0 379 215.5 597t597.5 218q196 0 351.5 -59t257 -166.5t155 -257.5t53.5 -332v-142q0 -105 -30 -189t-80.5 -135.5t-113.5 -78.5t-134 -27q-55 0 -85 21t-44 67q-161 -82 -383 -82q-175 0 -261.5 86t-86.5 246v324
q0 160 87 248t261 88q213 0 358 -62q42 -18 57 -37.5t15 -60.5v-688q0 -80 82 -80q55 0 104.5 21t90.5 62.5t65.5 113t24.5 163.5v144q0 226 -84 392.5t-253 259.5t-407 93q-347 0 -543 -198.5t-196 -546.5v-144q0 -351 194.5 -540t544.5 -189q53 0 108.5 4t99.5 10
t87.5 13.5t69.5 13.5t49 11.5t24 5.5q17 3 17 -9v-39q0 -11 -3.5 -15t-13.5 -7q-220 -55 -438 -55zM903 174q197 0 342 80v659q0 26 -8.5 37.5t-34.5 22.5q-112 47 -299 47q-278 0 -278 -264v-320q0 -262 278 -262z" />
    <glyph glyph-name="A" unicode="A" horiz-adv-x="1359" 
d="M76 0q-30 0 -19 25l568 1415q8 24 34 24h39q27 0 35 -24l567 -1415q14 -25 -18 -25h-37q-23 0 -32.5 4.5t-14.5 18.5l-180 452h-680l-180 -452q-6 -14 -15 -18.5t-32 -4.5h-35zM989 555l-291 725q-5 18 -9 37.5t-6.5 35.5t-2.5 17h-6q0 -2 -2 -17.5t-6 -34.5t-9 -36
l-290 -727h622z" />
    <glyph glyph-name="A" unicode="a" horiz-adv-x="1359" 
d="M76 0q-30 0 -19 25l568 1415q8 24 34 24h39q27 0 35 -24l567 -1415q14 -25 -18 -25h-37q-23 0 -32.5 4.5t-14.5 18.5l-180 452h-680l-180 -452q-6 -14 -15 -18.5t-32 -4.5h-35zM989 555l-291 725q-5 18 -9 37.5t-6.5 35.5t-2.5 17h-6q0 -2 -2 -17.5t-6 -34.5t-9 -36
l-290 -727h622z" />
    <glyph glyph-name="B" unicode="B" horiz-adv-x="1374" 
d="M225 0q-13 0 -18.5 6t-5.5 21v1400q0 15 5.5 21t18.5 6h584q183 0 283 -95t100 -272q0 -260 -211 -335v-4q127 -28 194.5 -119.5t67.5 -241.5q0 -185 -108.5 -286t-298.5 -101h-611zM799 784q144 0 220.5 74t76.5 219q0 142 -76 215.5t-221 73.5h-504v-582h504zM831 88
q150 0 231 78.5t81 228.5q0 147 -81 225t-231 78h-536v-610h536z" />
    <glyph glyph-name="B" unicode="b" horiz-adv-x="1374" 
d="M225 0q-13 0 -18.5 6t-5.5 21v1400q0 15 5.5 21t18.5 6h584q183 0 283 -95t100 -272q0 -260 -211 -335v-4q127 -28 194.5 -119.5t67.5 -241.5q0 -185 -108.5 -286t-298.5 -101h-611zM799 784q144 0 220.5 74t76.5 219q0 142 -76 215.5t-221 73.5h-504v-582h504zM831 88
q150 0 231 78.5t81 228.5q0 147 -81 225t-231 78h-536v-610h536z" />
    <glyph glyph-name="C" unicode="C" horiz-adv-x="1361" 
d="M709 -29q-264 0 -408.5 134.5t-144.5 371.5v502q0 237 142.5 370.5t410.5 133.5q230 0 356.5 -88.5t179.5 -268.5q5 -15 1.5 -21.5t-17.5 -12.5l-39 -13q-13 -4 -21 -0.5t-14 17.5q-45 156 -148.5 227.5t-297.5 71.5q-224 0 -340.5 -109.5t-116.5 -304.5v-506
q0 -195 118 -305.5t339 -110.5q197 0 300.5 75.5t151.5 234.5q8 24 33 16l39 -14q26 -9 18 -35q-55 -182 -181 -273.5t-361 -91.5z" />
    <glyph glyph-name="C" unicode="c" horiz-adv-x="1361" 
d="M709 -29q-264 0 -408.5 134.5t-144.5 371.5v502q0 237 142.5 370.5t410.5 133.5q230 0 356.5 -88.5t179.5 -268.5q5 -15 1.5 -21.5t-17.5 -12.5l-39 -13q-13 -4 -21 -0.5t-14 17.5q-45 156 -148.5 227.5t-297.5 71.5q-224 0 -340.5 -109.5t-116.5 -304.5v-506
q0 -195 118 -305.5t339 -110.5q197 0 300.5 75.5t151.5 234.5q8 24 33 16l39 -14q26 -9 18 -35q-55 -182 -181 -273.5t-361 -91.5z" />
    <glyph glyph-name="D" unicode="D" horiz-adv-x="1386" 
d="M225 0q-13 0 -18.5 6t-5.5 21v1400q0 15 5.5 21t18.5 6h420q283 0 438.5 -144t155.5 -397v-372q0 -253 -155.5 -397t-438.5 -144h-420zM645 88q240 0 370 119t130 334v372q0 215 -129.5 334t-370.5 119h-350v-1278h350z" />
    <glyph glyph-name="D" unicode="d" horiz-adv-x="1386" 
d="M225 0q-13 0 -18.5 6t-5.5 21v1400q0 15 5.5 21t18.5 6h420q283 0 438.5 -144t155.5 -397v-372q0 -253 -155.5 -397t-438.5 -144h-420zM645 88q240 0 370 119t130 334v372q0 215 -129.5 334t-370.5 119h-350v-1278h350z" />
    <glyph glyph-name="E" unicode="E" horiz-adv-x="1230" 
d="M225 0q-13 0 -18.5 6t-5.5 21v1400q0 15 5.5 21t18.5 6h838q27 0 27 -27v-36q0 -25 -27 -25h-768v-584h678q26 0 26 -26v-37q0 -15 -5.5 -21t-20.5 -6h-678v-604h797q24 0 24 -25v-36q0 -15 -5.5 -21t-18.5 -6h-867z" />
    <glyph glyph-name="E" unicode="e" horiz-adv-x="1230" 
d="M225 0q-13 0 -18.5 6t-5.5 21v1400q0 15 5.5 21t18.5 6h838q27 0 27 -27v-36q0 -25 -27 -25h-768v-584h678q26 0 26 -26v-37q0 -15 -5.5 -21t-20.5 -6h-678v-604h797q24 0 24 -25v-36q0 -15 -5.5 -21t-18.5 -6h-867z" />
    <glyph glyph-name="F" unicode="F" horiz-adv-x="1191" 
d="M225 0q-13 0 -18.5 6t-5.5 21v1400q0 15 5.5 21t18.5 6h838q27 0 27 -27v-36q0 -25 -27 -25h-768v-606h668q26 0 26 -27v-37q0 -24 -26 -24h-668v-645q0 -27 -25 -27h-45z" />
    <glyph glyph-name="F" unicode="f" horiz-adv-x="1191" 
d="M225 0q-13 0 -18.5 6t-5.5 21v1400q0 15 5.5 21t18.5 6h838q27 0 27 -27v-36q0 -25 -27 -25h-768v-606h668q26 0 26 -27v-37q0 -24 -26 -24h-668v-645q0 -27 -25 -27h-45z" />
    <glyph glyph-name="G" unicode="G" horiz-adv-x="1398" 
d="M709 -29q-267 0 -410 135t-143 373v500q0 237 142.5 370.5t410.5 133.5q230 0 356.5 -88.5t179.5 -268.5q5 -15 1.5 -21.5t-17.5 -12.5l-39 -13q-13 -5 -21 -1.5t-14 18.5q-45 156 -148.5 227.5t-297.5 71.5q-225 0 -341 -109t-116 -305v-502q0 -199 117.5 -309.5
t339.5 -110.5q219 0 337.5 108.5t118.5 297.5v178h-438q-25 0 -25 27v37q0 26 25 26h506q27 0 27 -28v-240q0 -228 -143.5 -361t-407.5 -133z" />
    <glyph glyph-name="G" unicode="g" horiz-adv-x="1398" 
d="M709 -29q-267 0 -410 135t-143 373v500q0 237 142.5 370.5t410.5 133.5q230 0 356.5 -88.5t179.5 -268.5q5 -15 1.5 -21.5t-17.5 -12.5l-39 -13q-13 -5 -21 -1.5t-14 18.5q-45 156 -148.5 227.5t-297.5 71.5q-225 0 -341 -109t-116 -305v-502q0 -199 117.5 -309.5
t339.5 -110.5q219 0 337.5 108.5t118.5 297.5v178h-438q-25 0 -25 27v37q0 26 25 26h506q27 0 27 -28v-240q0 -228 -143.5 -361t-407.5 -133z" />
    <glyph glyph-name="H" unicode="H" horiz-adv-x="1454" 
d="M225 0q-13 0 -18.5 6t-5.5 21v1400q0 15 5.5 21t18.5 6h45q25 0 25 -27v-645h864v645q0 15 6 21t21 6h43q26 0 26 -27v-1400q0 -27 -26 -27h-43q-15 0 -21 6t-6 21v665h-864v-665q0 -27 -25 -27h-45z" />
    <glyph glyph-name="H" unicode="h" horiz-adv-x="1454" 
d="M225 0q-13 0 -18.5 6t-5.5 21v1400q0 15 5.5 21t18.5 6h45q25 0 25 -27v-645h864v645q0 15 6 21t21 6h43q26 0 26 -27v-1400q0 -27 -26 -27h-43q-15 0 -21 6t-6 21v665h-864v-665q0 -27 -25 -27h-45z" />
    <glyph glyph-name="I" unicode="I" horiz-adv-x="495" 
d="M225 0q-13 0 -18.5 6t-5.5 21v1400q0 15 5.5 21t18.5 6h45q25 0 25 -27v-1400q0 -27 -25 -27h-45z" />
    <glyph glyph-name="I" unicode="i" horiz-adv-x="495" 
d="M225 0q-13 0 -18.5 6t-5.5 21v1400q0 15 5.5 21t18.5 6h45q25 0 25 -27v-1400q0 -27 -25 -27h-45z" />
    <glyph glyph-name="J" unicode="J" horiz-adv-x="1224" 
d="M553 -31q-396 0 -475 404q-9 27 16 35l39 14q27 9 35 -16q32 -173 123 -260t262 -87q187 0 287 102t100 283v986q0 13 6 18.5t21 5.5h43q15 0 20.5 -5t5.5 -19v-986q0 -221 -125.5 -348t-357.5 -127z" />
    <glyph glyph-name="J" unicode="j" horiz-adv-x="1224" 
d="M553 -31q-396 0 -475 404q-9 27 16 35l39 14q27 9 35 -16q32 -173 123 -260t262 -87q187 0 287 102t100 283v986q0 13 6 18.5t21 5.5h43q15 0 20.5 -5t5.5 -19v-986q0 -221 -125.5 -348t-357.5 -127z" />
    <glyph glyph-name="K" unicode="K" horiz-adv-x="1292" 
d="M225 0q-13 0 -18.5 6t-5.5 21v1400q0 15 5.5 21t18.5 6h45q25 0 25 -27v-647h305l483 652q11 14 21 18t33 4h45q33 0 14 -27l-498 -665q92 -21 152.5 -75t107.5 -150l261 -510q6 -11 2 -19t-17 -8h-41q-24 0 -34.5 4.5t-18.5 18.5l-238 477q-37 71 -76 111.5t-97.5 61.5
t-143.5 21h-260v-667q0 -27 -25 -27h-45z" />
    <glyph glyph-name="K" unicode="k" horiz-adv-x="1292" 
d="M225 0q-13 0 -18.5 6t-5.5 21v1400q0 15 5.5 21t18.5 6h45q25 0 25 -27v-647h305l483 652q11 14 21 18t33 4h45q33 0 14 -27l-498 -665q92 -21 152.5 -75t107.5 -150l261 -510q6 -11 2 -19t-17 -8h-41q-24 0 -34.5 4.5t-18.5 18.5l-238 477q-37 71 -76 111.5t-97.5 61.5
t-143.5 21h-260v-667q0 -27 -25 -27h-45z" />
    <glyph glyph-name="L" unicode="L" horiz-adv-x="1124" 
d="M225 0q-13 0 -18.5 6t-5.5 21v1400q0 15 5.5 21t18.5 6h45q25 0 25 -27v-1339h745q25 0 25 -25v-36q0 -27 -25 -27h-815z" />
    <glyph glyph-name="L" unicode="l" horiz-adv-x="1124" 
d="M225 0q-13 0 -18.5 6t-5.5 21v1400q0 15 5.5 21t18.5 6h45q25 0 25 -27v-1339h745q25 0 25 -25v-36q0 -27 -25 -27h-815z" />
    <glyph glyph-name="M" unicode="M" horiz-adv-x="1693" 
d="M225 0q-13 0 -18.5 6t-5.5 21v1400q0 15 5.5 21t18.5 6h35q16 0 23.5 -4.5t15.5 -17.5l549 -969l543 967q13 24 39 24h36q15 0 21 -6t6 -21v-1400q0 -15 -6 -21t-21 -6h-39q-15 0 -20.5 6t-5.5 21l2 938q0 175 14 342h-6q-66 -141 -151 -291l-365 -647q-14 -23 -33 -23
h-28q-13 0 -20 4.5t-15 18.5l-369 655q-60 100 -147 285h-4q12 -181 12 -344v-938q0 -15 -6 -21t-21 -6h-39z" />
    <glyph glyph-name="M" unicode="m" horiz-adv-x="1693" 
d="M225 0q-13 0 -18.5 6t-5.5 21v1400q0 15 5.5 21t18.5 6h35q16 0 23.5 -4.5t15.5 -17.5l549 -969l543 967q13 24 39 24h36q15 0 21 -6t6 -21v-1400q0 -15 -6 -21t-21 -6h-39q-15 0 -20.5 6t-5.5 21l2 938q0 175 14 342h-6q-66 -141 -151 -291l-365 -647q-14 -23 -33 -23
h-28q-13 0 -20 4.5t-15 18.5l-369 655q-60 100 -147 285h-4q12 -181 12 -344v-938q0 -15 -6 -21t-21 -6h-39z" />
    <glyph glyph-name="N" unicode="N" horiz-adv-x="1472" 
d="M225 0q-13 0 -18.5 6t-5.5 21v1400q0 15 5.5 21t18.5 6h43q15 0 29 -14l707 -1010q40 -57 101.5 -158t84.5 -133h6q0 37 -7 163.5t-7 203.5v924q0 14 5 19t19 5h41q15 0 21 -6t6 -21v-1400q0 -15 -6 -21t-21 -6h-41q-19 0 -30 16l-725 1037q-36 51 -91.5 145t-74.5 121
h-4q0 -33 6 -150t6 -188v-954q0 -15 -6 -21t-21 -6h-41z" />
    <glyph glyph-name="N" unicode="n" horiz-adv-x="1472" 
d="M225 0q-13 0 -18.5 6t-5.5 21v1400q0 15 5.5 21t18.5 6h43q15 0 29 -14l707 -1010q40 -57 101.5 -158t84.5 -133h6q0 37 -7 163.5t-7 203.5v924q0 14 5 19t19 5h41q15 0 21 -6t6 -21v-1400q0 -15 -6 -21t-21 -6h-41q-19 0 -30 16l-725 1037q-36 51 -91.5 145t-74.5 121
h-4q0 -33 6 -150t6 -188v-954q0 -15 -6 -21t-21 -6h-41z" />
    <glyph glyph-name="O" unicode="O" horiz-adv-x="1415" 
d="M709 -29q-267 0 -410 134t-143 372v500q0 238 143 372t410 134q265 0 408 -134t143 -372v-500q0 -238 -143 -372t-408 -134zM709 59q220 0 338 110.5t118 309.5v496q0 199 -118 309.5t-338 110.5q-222 0 -339.5 -110.5t-117.5 -309.5v-496q0 -199 117.5 -309.5
t339.5 -110.5z" />
    <glyph glyph-name="O" unicode="o" horiz-adv-x="1415" 
d="M709 -29q-267 0 -410 134t-143 372v500q0 238 143 372t410 134q265 0 408 -134t143 -372v-500q0 -238 -143 -372t-408 -134zM709 59q220 0 338 110.5t118 309.5v496q0 199 -118 309.5t-338 110.5q-222 0 -339.5 -110.5t-117.5 -309.5v-496q0 -199 117.5 -309.5
t339.5 -110.5z" />
    <glyph glyph-name="P" unicode="P" horiz-adv-x="1329" 
d="M225 0q-13 0 -18.5 6t-5.5 21v1400q0 15 5.5 21t18.5 6h553q209 0 331 -118.5t122 -327.5q0 -206 -122.5 -324.5t-330.5 -118.5h-483v-538q0 -27 -25 -27h-45zM768 655q169 0 265.5 93t96.5 260q0 168 -96.5 263t-265.5 95h-473v-711h473z" />
    <glyph glyph-name="P" unicode="p" horiz-adv-x="1329" 
d="M225 0q-13 0 -18.5 6t-5.5 21v1400q0 15 5.5 21t18.5 6h553q209 0 331 -118.5t122 -327.5q0 -206 -122.5 -324.5t-330.5 -118.5h-483v-538q0 -27 -25 -27h-45zM768 655q169 0 265.5 93t96.5 260q0 168 -96.5 263t-265.5 95h-473v-711h473z" />
    <glyph glyph-name="Q" unicode="Q" horiz-adv-x="1437" 
d="M1061 68q-132 -97 -352 -97q-267 0 -410 134t-143 372v500q0 238 143 372t410 134q265 0 408 -134t143 -372v-500q0 -226 -127 -356l161 -193q16 -19 -2 -37l-28 -22q-20 -17 -37 2zM709 59q220 0 338 110.5t118 309.5v496q0 199 -118 309.5t-338 110.5
q-222 0 -339.5 -110.5t-117.5 -309.5v-496q0 -199 117.5 -309.5t339.5 -110.5z" />
    <glyph glyph-name="Q" unicode="q" horiz-adv-x="1437" 
d="M1061 68q-132 -97 -352 -97q-267 0 -410 134t-143 372v500q0 238 143 372t410 134q265 0 408 -134t143 -372v-500q0 -226 -127 -356l161 -193q16 -19 -2 -37l-28 -22q-20 -17 -37 2zM709 59q220 0 338 110.5t118 309.5v496q0 199 -118 309.5t-338 110.5
q-222 0 -339.5 -110.5t-117.5 -309.5v-496q0 -199 117.5 -309.5t339.5 -110.5z" />
    <glyph glyph-name="R" unicode="R" horiz-adv-x="1376" 
d="M225 0q-13 0 -18.5 6t-5.5 21v1400q0 15 5.5 21t18.5 6h588q196 0 307 -108t111 -302q0 -175 -97.5 -278t-265.5 -117q57 -24 96 -63.5t72 -104.5l232 -454q8 -11 4 -19t-19 -8h-41q-24 0 -33.5 4.5t-17.5 18.5l-211 421q-53 105 -122.5 150t-194.5 45h-338v-612
q0 -27 -25 -27h-45zM805 727q155 0 240 82t85 235q0 154 -84.5 238t-240.5 84h-510v-639h510z" />
    <glyph glyph-name="R" unicode="r" horiz-adv-x="1376" 
d="M225 0q-13 0 -18.5 6t-5.5 21v1400q0 15 5.5 21t18.5 6h588q196 0 307 -108t111 -302q0 -175 -97.5 -278t-265.5 -117q57 -24 96 -63.5t72 -104.5l232 -454q8 -11 4 -19t-19 -8h-41q-24 0 -33.5 4.5t-17.5 18.5l-211 421q-53 105 -122.5 150t-194.5 45h-338v-612
q0 -27 -25 -27h-45zM805 727q155 0 240 82t85 235q0 154 -84.5 238t-240.5 84h-510v-639h510z" />
    <glyph glyph-name="S" unicode="S" horiz-adv-x="1339" 
d="M670 -29q-213 0 -345 87t-206 272q-11 26 16 37l39 14q13 5 20 2t13 -18q68 -156 180.5 -230t282.5 -74q446 0 446 324q0 40 -8 73.5t-20.5 59t-35.5 47t-43.5 36t-55 27.5t-60 20.5t-68 15t-70 11t-73.5 9.5q-52 6 -86.5 11t-84 14.5t-82.5 19.5t-74.5 26.5t-69 36
t-56 48t-45 62t-27 77.5t-10.5 96q0 189 136 298.5t379 109.5q203 0 329 -76.5t207 -241.5q14 -26 -14 -35l-39 -18q-13 -5 -20.5 -3t-14.5 15q-71 140 -175.5 204.5t-272.5 64.5q-198 0 -308 -82t-110 -230q0 -51 14 -92t35.5 -69.5t59 -51.5t71.5 -37t87 -25.5t92 -17
t99 -12.5q49 -6 83 -10.5t81 -13.5t79 -19t71 -26.5t65.5 -36t53 -47.5t42 -61.5t25.5 -77.5t10 -95q0 -201 -138.5 -309.5t-403.5 -108.5z" />
    <glyph glyph-name="S" unicode="s" horiz-adv-x="1339" 
d="M670 -29q-213 0 -345 87t-206 272q-11 26 16 37l39 14q13 5 20 2t13 -18q68 -156 180.5 -230t282.5 -74q446 0 446 324q0 40 -8 73.5t-20.5 59t-35.5 47t-43.5 36t-55 27.5t-60 20.5t-68 15t-70 11t-73.5 9.5q-52 6 -86.5 11t-84 14.5t-82.5 19.5t-74.5 26.5t-69 36
t-56 48t-45 62t-27 77.5t-10.5 96q0 189 136 298.5t379 109.5q203 0 329 -76.5t207 -241.5q14 -26 -14 -35l-39 -18q-13 -5 -20.5 -3t-14.5 15q-71 140 -175.5 204.5t-272.5 64.5q-198 0 -308 -82t-110 -230q0 -51 14 -92t35.5 -69.5t59 -51.5t71.5 -37t87 -25.5t92 -17
t99 -12.5q49 -6 83 -10.5t81 -13.5t79 -19t71 -26.5t65.5 -36t53 -47.5t42 -61.5t25.5 -77.5t10 -95q0 -201 -138.5 -309.5t-403.5 -108.5z" />
    <glyph glyph-name="T" unicode="T" horiz-adv-x="1181" 
d="M569 0q-13 0 -18.5 6t-5.5 21v1339h-461q-25 0 -25 25v36q0 27 25 27h1014q13 0 18.5 -6t5.5 -21v-36q0 -25 -24 -25h-459v-1339q0 -15 -6 -21t-21 -6h-43z" />
    <glyph glyph-name="T" unicode="t" horiz-adv-x="1181" 
d="M569 0q-13 0 -18.5 6t-5.5 21v1339h-461q-25 0 -25 25v36q0 27 25 27h1014q13 0 18.5 -6t5.5 -21v-36q0 -25 -24 -25h-459v-1339q0 -15 -6 -21t-21 -6h-43z" />
    <glyph glyph-name="U" unicode="U" horiz-adv-x="1456" 
d="M727 -31q-265 0 -402 139.5t-137 383.5v935q0 27 25 27h45q25 0 25 -27v-935q0 -203 112.5 -319t331.5 -116q220 0 332 115.5t112 319.5v935q0 27 27 27h43q15 0 21 -6t6 -21v-935q0 -244 -138 -383.5t-403 -139.5z" />
    <glyph glyph-name="U" unicode="u" horiz-adv-x="1456" 
d="M727 -31q-265 0 -402 139.5t-137 383.5v935q0 27 25 27h45q25 0 25 -27v-935q0 -203 112.5 -319t331.5 -116q220 0 332 115.5t112 319.5v935q0 27 27 27h43q15 0 21 -6t6 -21v-935q0 -244 -138 -383.5t-403 -139.5z" />
    <glyph glyph-name="V" unicode="V" horiz-adv-x="1318" 
d="M639 0q-27 0 -33 23l-549 1407q-5 11 0.5 17.5t18.5 6.5h39q23 0 31.5 -4t13.5 -18l452 -1178q12 -30 28 -80t19 -57h5q7 15 22 65t23 72l452 1178q4 13 13.5 17.5t31.5 4.5h39q27 0 17 -24l-547 -1405q-8 -25 -35 -25h-41z" />
    <glyph glyph-name="V" unicode="v" horiz-adv-x="1318" 
d="M639 0q-27 0 -33 23l-549 1407q-5 11 0.5 17.5t18.5 6.5h39q23 0 31.5 -4t13.5 -18l452 -1178q12 -30 28 -80t19 -57h5q7 15 22 65t23 72l452 1178q4 13 13.5 17.5t31.5 4.5h39q27 0 17 -24l-547 -1405q-8 -25 -35 -25h-41z" />
    <glyph glyph-name="W" unicode="W" horiz-adv-x="1847" 
d="M496 0q-27 0 -35 23l-379 1407q-9 24 16 24h52q17 0 24 -4.5t10 -17.5l293 -1102q7 -30 21 -100.5t20 -94.5h4q13 68 43 193l305 1071q7 24 37 24h41q30 0 35 -24l303 -1073q20 -66 45 -191h6q7 43 37 189l293 1108q3 13 10 17.5t25 4.5h47q22 0 16 -24l-381 -1405
q-5 -25 -34 -25h-41q-27 0 -35 23l-303 1079q-21 76 -43 186h-6q-14 -73 -45 -186l-306 -1077q-5 -25 -34 -25h-41z" />
    <glyph glyph-name="W" unicode="w" horiz-adv-x="1847" 
d="M496 0q-27 0 -35 23l-379 1407q-9 24 16 24h52q17 0 24 -4.5t10 -17.5l293 -1102q7 -30 21 -100.5t20 -94.5h4q13 68 43 193l305 1071q7 24 37 24h41q30 0 35 -24l303 -1073q20 -66 45 -191h6q7 43 37 189l293 1108q3 13 10 17.5t25 4.5h47q22 0 16 -24l-381 -1405
q-5 -25 -34 -25h-41q-27 0 -35 23l-303 1079q-21 76 -43 186h-6q-14 -73 -45 -186l-306 -1077q-5 -25 -34 -25h-41z" />
    <glyph glyph-name="X" unicode="X" horiz-adv-x="1306" 
d="M80 0q-16 0 -19 9.5t7 21.5l524 706l-510 693q-6 9 -2.5 16.5t16.5 7.5h51q22 0 30.5 -4t19.5 -18l456 -619l457 619q11 14 19 18t28 4h53q13 0 17 -7.5t-2 -16.5l-512 -691l526 -708q9 -12 7 -21.5t-17 -9.5h-55q-22 0 -31 4t-19 19l-475 643l-471 -643q-9 -15 -17 -19
t-30 -4h-51z" />
    <glyph glyph-name="X" unicode="x" horiz-adv-x="1306" 
d="M80 0q-16 0 -19 9.5t7 21.5l524 706l-510 693q-6 9 -2.5 16.5t16.5 7.5h51q22 0 30.5 -4t19.5 -18l456 -619l457 619q11 14 19 18t28 4h53q13 0 17 -7.5t-2 -16.5l-512 -691l526 -708q9 -12 7 -21.5t-17 -9.5h-55q-22 0 -31 4t-19 19l-475 643l-471 -643q-9 -15 -17 -19
t-30 -4h-51z" />
    <glyph glyph-name="Y" unicode="Y" horiz-adv-x="1331" 
d="M643 0q-25 0 -25 27v573l-552 827q-6 11 -2.5 19t16.5 8h53q24 0 32 -3.5t17 -18.5l486 -736l485 736q9 15 17 18.5t32 3.5h51q13 0 17 -8t-2 -19l-555 -831v-569q0 -27 -25 -27h-45z" />
    <glyph glyph-name="Y" unicode="y" horiz-adv-x="1331" 
d="M643 0q-25 0 -25 27v573l-552 827q-6 11 -2.5 19t16.5 8h53q24 0 32 -3.5t17 -18.5l486 -736l485 736q9 15 17 18.5t32 3.5h51q13 0 17 -8t-2 -19l-555 -831v-569q0 -27 -25 -27h-45z" />
    <glyph glyph-name="Z" unicode="Z" horiz-adv-x="1200" 
d="M123 0q-25 0 -25 27v34q0 19 11 35l860 1270h-838q-25 0 -25 25v36q0 27 25 27h930q15 0 20.5 -6t5.5 -21v-32q0 -21 -10 -33l-862 -1272h870q27 0 27 -27v-36q0 -27 -27 -27h-962z" />
    <glyph glyph-name="Z" unicode="z" horiz-adv-x="1200" 
d="M123 0q-25 0 -25 27v34q0 19 11 35l860 1270h-838q-25 0 -25 25v36q0 27 25 27h930q15 0 20.5 -6t5.5 -21v-32q0 -21 -10 -33l-862 -1272h870q27 0 27 -27v-36q0 -27 -27 -27h-962z" />
    <glyph glyph-name="bracketleft" unicode="[" horiz-adv-x="589" 
d="M199 -326q-14 0 -18.5 5t-4.5 20v2003q0 15 4.5 19.5t18.5 4.5h309q14 0 18 -4t4 -18v-35q0 -13 -4 -17.5t-18 -4.5h-246v-1891h246q14 0 18 -4.5t4 -19.5v-35q0 -14 -4.5 -18.5t-17.5 -4.5h-309z" />
    <glyph glyph-name="backslash" unicode="\" horiz-adv-x="866" 
d="M705 -123q-15 0 -21.5 4.5t-11.5 18.5l-570 1532q-9 22 17 22h45q26 0 33 -22l567 -1532q10 -23 -16 -23h-43z" />
    <glyph glyph-name="bracketright" unicode="]" horiz-adv-x="589" 
d="M82 -326q-14 0 -18.5 5t-4.5 18v35q0 15 4.5 19.5t18.5 4.5h248v1891h-248q-14 0 -18.5 4.5t-4.5 17.5v35q0 13 4.5 17.5t18.5 4.5h309q15 0 20 -4.5t5 -19.5v-2003q0 -15 -5 -20t-20 -5h-309z" />
    <glyph glyph-name="asciicircum" unicode="^" horiz-adv-x="1282" 
d="M162 1065q-37 0 -12 31l440 542q18 21 35 21h24q12 0 18 -4.5t15 -16.5l448 -542q25 -31 -12 -31h-41q-21 0 -28.5 4t-20.5 18l-389 478h-6l-383 -478q-12 -15 -19.5 -18.5t-29.5 -3.5h-39z" />
    <glyph glyph-name="underscore" unicode="_" horiz-adv-x="1110" 
d="M117 -86q-25 0 -25 27v32q0 27 25 27h874q15 0 21 -6t6 -21v-32q0 -15 -6 -21t-21 -6h-874z" />
    <glyph glyph-name="grave" unicode="`" horiz-adv-x="589" 
d="M92 1425q-24 8 -4 31l18 23q16 16 48 2l346 -219q18 -11 2 -27l-15 -16q-10 -12 -32 -5z" />
    <glyph glyph-name="braceleft" unicode="{" horiz-adv-x="690" 
d="M520 -328q-135 0 -192.5 61.5t-57.5 196.5v514q0 105 -42.5 157t-143.5 52h-23q-20 0 -20 25v41q0 24 20 24h23q100 0 143 52.5t43 156.5v516q0 135 57.5 196.5t192.5 61.5h92q23 0 23 -24v-33q0 -24 -23 -24h-90q-90 0 -129 -44t-39 -137v-522q0 -189 -133 -244
q70 -24 101.5 -84t31.5 -159v-521q0 -92 39 -136t129 -44h90q23 0 23 -24v-33q0 -25 -23 -25h-92z" />
    <glyph glyph-name="bar" unicode="|" horiz-adv-x="434" 
d="M199 -301q-13 0 -18 5.5t-5 19.5v2005q0 14 5 19t18 5h37q22 0 22 -24v-2005q0 -25 -22 -25h-37z" />
    <glyph glyph-name="braceright" unicode="}" horiz-adv-x="690" 
d="M80 -328q-25 0 -25 25v33q0 24 25 24h88q90 0 129 44t39 136v521q0 100 31.5 159.5t103.5 83.5q-135 54 -135 244v522q0 93 -39 137t-129 44h-88q-25 0 -25 24v33q0 24 25 24h90q136 0 194 -62t58 -196v-516q0 -105 42 -157t144 -52h21q20 0 20 -24v-41q0 -25 -20 -25
h-21q-102 0 -144 -51.5t-42 -157.5v-514q0 -134 -58 -196t-194 -62h-90z" />
    <glyph glyph-name="asciitilde" unicode="~" horiz-adv-x="1216" 
d="M803 573q-54 0 -107.5 14t-90 31.5t-85.5 31.5t-96 14q-56 0 -98.5 -20t-89.5 -62q-18 -15 -35 2l-25 22q-20 20 0 37q57 51 113 76.5t127 25.5q68 0 133.5 -23t126.5 -46t119 -23q101 0 190 82q11 9 17.5 9.5t17.5 -9.5l24 -24q18 -19 0 -37q-112 -101 -241 -101z" />
    <glyph glyph-name="uni00A0" unicode="&#xa0;" horiz-adv-x="499" 
 />
    <glyph glyph-name="exclamdown" unicode="&#xa1;" horiz-adv-x="430" 
d="M219 1057q35 0 47.5 -13t12.5 -47v-12q0 -34 -12.5 -46.5t-47.5 -12.5h-10q-34 0 -46.5 12.5t-12.5 46.5v12q0 35 12.5 47.5t46.5 12.5h10zM225 733q14 0 18.5 -4.5t4.5 -17.5l14 -1160q0 -13 -5 -18.5t-19 -5.5h-48q-14 0 -19 5.5t-5 18.5l12 1160q0 13 5.5 17.5
t19.5 4.5h22z" />
    <glyph glyph-name="cent" unicode="&#xa2;" horiz-adv-x="1157" 
d="M561 -172q-22 0 -22 25v120q-189 10 -289 114.5t-100 281.5v313q0 175 99 279t290 114v150q0 24 22 24h43q25 0 25 -24v-150q164 -7 253 -76t128 -200q8 -26 -17 -35l-35 -12q-23 -8 -32 16q-36 121 -114.5 176t-227.5 55q-170 0 -258 -82.5t-88 -230.5v-319
q0 -148 89.5 -232t256.5 -84q145 0 227.5 59t118.5 185q6 14 13 17t22 -1l34 -12q25 -9 17 -33q-42 -139 -136 -211.5t-251 -81.5v-120q0 -25 -25 -25h-43z" />
    <glyph glyph-name="sterling" unicode="&#xa3;" horiz-adv-x="1353" 
d="M135 0q-13 0 -18.5 6t-5.5 21v36q0 23 16 23h43q56 3 94 38.5t53 82t15 98.5v346h-174q-25 0 -25 27v33q0 24 25 24h174v375q0 166 105.5 269.5t318.5 103.5q173 0 281.5 -73.5t168.5 -244.5q8 -24 -16 -32l-39 -15q-15 -5 -22 -1.5t-13 18.5q-52 145 -136 202.5
t-222 57.5q-168 0 -248 -79t-80 -208v-373h565q15 0 21 -5.5t6 -18.5v-33q0 -15 -6 -21t-21 -6h-565v-344q0 -149 -102 -221v-4q198 6 237 6h615q15 0 20.5 -5.5t5.5 -19.5v-36q0 -15 -5.5 -21t-20.5 -6h-1045z" />
    <glyph glyph-name="currency" unicode="&#xa4;" horiz-adv-x="1282" 
d="M172 244q-19 16 0 32l115 117q-111 124 -111 295q0 167 107 293l-115 117q-16 16 0 32l29 29q16 16 32 0l117 -115q125 109 295 109q166 0 291 -106l115 114q17 20 34 0l27 -26q18 -17 0 -35l-113 -115q111 -131 111 -297q0 -161 -107 -291l115 -114q18 -17 0 -35
l-29 -29q-17 -17 -34 0l-115 115q-131 -111 -295 -111q-163 0 -293 107l-115 -115q-17 -17 -34 0zM641 307q159 0 270 112t111 271q0 160 -110.5 269.5t-270.5 109.5t-270.5 -109.5t-110.5 -269.5q0 -161 110.5 -272t270.5 -111z" />
    <glyph glyph-name="yen" unicode="&#xa5;" horiz-adv-x="1353" 
d="M655 0q-15 0 -20.5 6t-5.5 21v303h-340q-23 0 -23 22v25q0 24 23 24h340v222h-340q-23 0 -23 22v25q0 24 23 24h305l-498 733q-5 11 -1.5 19t16.5 8h49q24 0 33 -3.5t16 -18.5l471 -707l469 707q7 15 16 18.5t33 3.5h45q13 0 16.5 -8t-2.5 -19l-495 -733h299q22 0 22 -24
v-25q0 -22 -22 -22h-338v-222h338q22 0 22 -24v-25q0 -22 -22 -22h-336v-303q0 -27 -27 -27h-43z" />
    <glyph glyph-name="brokenbar" unicode="&#xa6;" horiz-adv-x="454" 
d="M209 883q-25 0 -25 24v822q0 24 25 24h37q22 0 22 -24v-822q0 -24 -22 -24h-37zM209 -299q-25 0 -25 25v821q0 24 25 24h37q22 0 22 -24v-821q0 -25 -22 -25h-37z" />
    <glyph glyph-name="section" unicode="&#xa7;" horiz-adv-x="1273" 
d="M645 -457q-387 0 -506 348q-8 25 17 35l39 15q13 5 20.5 1.5t13.5 -20.5q99 -291 416 -291q197 0 295 72.5t98 198.5q0 41 -8 75t-27 59t-38.5 43.5t-53.5 32.5t-59.5 22.5t-70.5 15.5t-72.5 10t-77.5 8q-49 5 -78.5 9t-75.5 11.5t-75.5 16t-67.5 22.5t-62.5 31t-50.5 42
t-40.5 55t-24 69t-9.5 86q0 68 23 125t61.5 94.5t74 60.5t75.5 41q-223 71 -223 306q0 165 115.5 261.5t351.5 96.5q373 0 495 -344q11 -24 -14 -35l-37 -16q-24 -11 -37 16q-104 289 -407 289q-190 0 -280.5 -71t-90.5 -197q0 -36 7.5 -67t19 -54.5t33 -43t40.5 -33
t50.5 -24.5t55 -18t62.5 -13.5t63.5 -9.5t67.5 -8q55 -6 97 -12.5t92.5 -19.5t87.5 -29t74 -42t60 -59t37.5 -79.5t14.5 -102.5q0 -197 -205 -315q105 -34 163.5 -105t58.5 -200q0 -164 -123 -261.5t-365 -97.5zM813 236q19 8 38 18.5t52.5 35.5t57.5 54t42.5 75t18.5 97
q0 59 -22.5 103.5t-57 71.5t-89 45.5t-103.5 27t-115 14.5q-97 11 -156 21q-235 -77 -235 -279q0 -45 12 -81t30.5 -61t50.5 -45t62.5 -32t75.5 -21.5t80.5 -14t87.5 -9.5q98 -7 170 -20z" />
    <glyph glyph-name="dieresis" unicode="&#xa8;" horiz-adv-x="962" 
d="M272 1278q-27 0 -37 9.5t-10 35.5v14q0 26 10.5 36.5t36.5 10.5h13q28 0 37.5 -10t9.5 -37v-14q0 -27 -9 -36t-38 -9h-13zM666 1278q-29 0 -39.5 9.5t-10.5 35.5v14q0 27 10.5 37t39.5 10h10q26 0 36.5 -10.5t10.5 -36.5v-14q0 -26 -10 -35.5t-37 -9.5h-10z" />
    <glyph glyph-name="copyright" unicode="&#xa9;" horiz-adv-x="1726" 
d="M864 -16q-347 0 -541 194t-194 541t194 541t541 194q346 0 539.5 -194t193.5 -541t-193.5 -541t-539.5 -194zM864 43q318 0 495 179t177 497t-177 496t-495 178t-496 -178t-178 -496t178 -497t496 -179zM856 293q-153 0 -237 79t-84 216v243q0 139 82.5 217t238.5 78
q135 0 209 -52t104 -156q8 -18 -10 -27l-26 -8q-20 -6 -25 10q-28 93 -83.5 131.5t-170.5 38.5q-126 0 -189 -59t-63 -170v-246q0 -109 64 -169.5t188 -60.5q109 0 169 43t87 136q7 17 29 12l22 -8q21 -6 13 -25q-64 -223 -318 -223z" />
    <glyph glyph-name="ordfeminine" unicode="&#xaa;" horiz-adv-x="827" 
d="M406 727q-140 0 -199.5 44t-59.5 132q0 92 60.5 139.5t202.5 47.5q105 0 186 -13v45q0 93 -40.5 140t-139.5 47q-120 0 -189 -97q-8 -10 -26 -4l-21 11q-14 7 -16 14.5t6 17.5q81 121 248 121q137 0 193.5 -65t56.5 -189v-254q0 -46 -13.5 -66.5t-54.5 -39.5
q-67 -31 -194 -31zM403 786q93 0 152 23q25 11 33 23t8 42v146q-81 12 -190 12q-104 0 -145.5 -32t-41.5 -95q0 -59 43.5 -89t140.5 -30z" />
    <glyph glyph-name="guillemotleft" unicode="&#xab;" horiz-adv-x="1193" 
d="M115 717q-13 16 0 31l422 423q16 14 30 0l27 -26q15 -18 0 -33l-377 -379l375 -375q18 -15 0 -30l-27 -29q-17 -17 -33 0zM575 717q-9 9 -9 15.5t9 15.5l422 423q15 15 31 0l27 -26q15 -18 0 -33l-379 -379l377 -375q18 -15 0 -30l-27 -29q-18 -15 -33 0z" />
    <glyph glyph-name="logicalnot" unicode="&#xac;" horiz-adv-x="1245" 
d="M1012 287q-25 0 -25 22v381h-790q-23 0 -23 25v35q0 24 23 24h856q13 0 18.5 -5t5.5 -19v-441q0 -22 -24 -22h-41z" />
    <glyph glyph-name="registered" unicode="&#xae;" horiz-adv-x="1062" 
d="M535 659q-189 0 -294.5 105t-105.5 293t105.5 292.5t294.5 104.5q186 0 290.5 -105t104.5 -292t-104.5 -292.5t-290.5 -105.5zM537 702q164 0 257 94t93 261t-92.5 259.5t-257.5 92.5q-168 0 -262.5 -92.5t-94.5 -259.5t95 -261t262 -94zM383 846q-12 0 -12 12v391
q0 19 18 19h189q67 0 105 -35.5t38 -99.5q0 -52 -26 -84t-72 -41l84 -144q11 -18 -11 -18h-20q-16 0 -21 10l-82 145h-155v-143q0 -12 -12 -12h-23zM578 1044q45 0 70.5 23t25.5 66q0 42 -25.5 66t-70.5 24h-160v-179h160z" />
    <glyph glyph-name="macron" unicode="&#xaf;" horiz-adv-x="784" 
d="M145 1296q-13 0 -17.5 5t-4.5 18v22q0 13 5 18t17 5h488q12 0 17 -5t5 -18v-22q0 -23 -22 -23h-488z" />
    <glyph glyph-name="degree" unicode="&#xb0;" horiz-adv-x="847" 
d="M426 838q-126 0 -213.5 87t-87.5 212q0 126 87.5 211.5t213.5 85.5q124 0 210.5 -86t86.5 -211q0 -122 -88 -210.5t-209 -88.5zM426 913q90 0 155.5 66.5t65.5 157.5q0 92 -65 157.5t-156 65.5q-94 0 -159.5 -65.5t-65.5 -157.5q0 -94 65.5 -159t159.5 -65z" />
    <glyph glyph-name="plusminus" unicode="&#xb1;" horiz-adv-x="1413" 
d="M692 479q-13 0 -18.5 6t-5.5 21v266h-418q-27 0 -27 25v26q0 15 6 21t21 6h418v272q0 15 5.5 21t18.5 6h31q15 0 21 -6t6 -21v-272h415q25 0 25 -27v-26q0 -25 -25 -25h-415v-266q0 -15 -6 -21t-21 -6h-31zM250 262q-27 0 -27 27v26q0 27 27 27h915q25 0 25 -27v-26
q0 -27 -25 -27h-915z" />
    <glyph glyph-name="acute" unicode="&#xb4;" horiz-adv-x="589" 
d="M141 1214q-22 -8 -32 5l-15 16q-14 17 4 27l346 219q30 15 45 -2l21 -23q17 -23 -4 -31z" />
    <glyph glyph-name="uni00B5" unicode="&#xb5;" horiz-adv-x="1173" 
d="M188 -451q-22 0 -22 25v1452q0 23 24 23h39q25 0 25 -23v-657q0 -320 319 -320q172 0 306 55q27 12 35 27.5t8 42.5v852q0 23 24 23h41q23 0 23 -23v-879q0 -46 -15 -68t-61 -42q-169 -68 -356 -68q-247 0 -326 174l2 -569q0 -25 -25 -25h-41z" />
    <glyph glyph-name="paragraph" unicode="&#xb6;" horiz-adv-x="800" 
d="M362 -182q-14 0 -19 5t-5 19v1200q-91 2 -147 58t-56 145q0 95 57.5 152t151.5 57h244q14 0 19 -5t5 -19v-1588q0 -14 -5 -19t-19 -5h-37q-23 0 -23 24v1520h-106v-1520q0 -24 -25 -24h-35z" />
    <glyph glyph-name="periodcentered" unicode="&#xb7;" horiz-adv-x="456" 
d="M223 481q-34 0 -46.5 12.5t-12.5 47.5v12q0 34 12.5 46.5t46.5 12.5h10q34 0 47 -12.5t13 -46.5v-12q0 -34 -13 -47t-47 -13h-10z" />
    <glyph glyph-name="cedilla" unicode="&#xb8;" horiz-adv-x="577" 
d="M285 -504q-98 0 -172 45q-19 11 -19 33v27q0 7 4 10t11 -2q69 -53 165 -53q77 0 119.5 35.5t42.5 99.5q0 97 -139 100q-43 0 -78 -12q-15 -3 -19.5 4t1.5 24l71 193h60l-60 -166q24 6 64 6q83 0 131 -41.5t47 -111.5q-4 -93 -66 -142t-163 -49z" />
    <glyph glyph-name="ordmasculine" unicode="&#xba;" horiz-adv-x="835" 
d="M416 729q-131 0 -200 63.5t-69 178.5v159q0 114 69.5 178t199.5 64q133 0 202.5 -64t69.5 -178v-159q0 -116 -69.5 -179t-202.5 -63zM416 797q97 0 147.5 44.5t50.5 127.5v164q0 81 -50.5 126.5t-147.5 45.5q-93 0 -144 -46t-51 -126v-164q0 -82 51 -127t144 -45z" />
    <glyph glyph-name="guillemotright" unicode="&#xbb;" horiz-adv-x="1193" 
d="M201 299q-17 -17 -33 0l-29 29q-15 15 0 30l377 375l-377 379q-15 15 0 33l25 26q17 14 33 0l421 -423q13 -15 0 -31zM659 299q-15 -15 -32 0l-27 29q-15 15 0 30l377 375l-377 379q-18 15 0 33l25 26q16 14 30 0l422 -423q9 -9 9 -15.5t-9 -15.5z" />
    <glyph glyph-name="onequarter" unicode="&#xbc;" horiz-adv-x="1656" 
d="M455 655q-27 0 -27 25v690l-281 -156q-22 -11 -34 9l-13 20q-10 23 11 35l319 180q16 8 35 8h14q15 0 21 -5.5t6 -18.5v-762q0 -25 -27 -25h-24zM293 0q-31 0 -14 27l1034 1403q11 15 19 19.5t28 4.5h35q15 0 19 -7.5t-5 -19.5l-1032 -1402q-11 -16 -20 -20.5t-33 -4.5
h-31zM1376 0q-13 0 -17.5 4.5t-4.5 18.5v206h-410q-13 0 -17.5 4.5t-4.5 18.5v18q0 21 8 31l405 496q11 16 35 16h35q15 0 20 -5t5 -22v-491h102q13 0 17.5 -4.5t4.5 -16.5v-22q0 -14 -4.5 -18.5t-17.5 -4.5h-102v-206q0 -13 -5.5 -18t-17.5 -5h-31zM1354 295v420l-342 -420
h342z" />
    <glyph glyph-name="onehalf" unicode="&#xbd;" horiz-adv-x="1789" 
d="M453 659q-27 0 -27 25v690l-281 -155q-22 -13 -34 8l-11 20q-13 23 11 35l319 180q13 8 33 8h14q15 0 21 -5.5t6 -20.5v-760q0 -25 -27 -25h-24zM291 0q-14 0 -17.5 7.5t5.5 19.5l1032 1403q13 16 20.5 20t28.5 4h35q15 0 19 -7.5t-5 -19.5l-1032 -1402
q-13 -16 -21.5 -20.5t-31.5 -4.5h-33zM1135 0q-29 0 -29 27v88q0 94 37.5 151.5t122.5 89.5l123 47q8 3 37 14t38 14.5t32.5 14.5t31.5 18t23.5 21t21.5 27.5t11 32.5t5 41q0 77 -49 123.5t-143 46.5q-38 0 -69.5 -9.5t-52.5 -25t-37.5 -33t-26 -37t-15.5 -34.5t-9 -27
l-3 -12q-6 -14 -12.5 -18t-20.5 -1l-25 8q-28 7 -16 33l4 13q4 13 7.5 22t11.5 27t16 31.5t21.5 32t28.5 31.5t36 27.5t44.5 23.5t53.5 15t64 6q131 0 201.5 -67t70.5 -174q0 -33 -7.5 -61.5t-17.5 -48.5t-32 -39t-37.5 -30t-48 -25t-50 -20.5t-55.5 -19.5l-123 -45
q-118 -41 -118 -162v-65h458q25 0 25 -25v-24q0 -23 -25 -23h-503z" />
    <glyph glyph-name="threequarters" unicode="&#xbe;" horiz-adv-x="1738" 
d="M430 643q-130 0 -203 55t-106 166q-4 17 -1.5 23.5t13.5 9.5l27 10q14 4 20.5 0.5t12.5 -18.5q28 -95 81 -135.5t156 -40.5q99 0 151 45t52 121q0 66 -40 111.5t-104 45.5h-145q-15 0 -20 5t-5 20v20q0 17 5 22t20 5h139q65 0 97 40.5t32 102.5q0 75 -47 120.5t-131 45.5
q-97 0 -153 -42.5t-84 -135.5q-8 -30 -37 -18l-21 6q-22 9 -14 35q34 117 107 171t200 54q120 0 187 -62t67 -165q0 -133 -102 -183q125 -57 125 -207q0 -105 -71 -166t-208 -61zM381 0q-15 0 -18 7.5t6 19.5l1032 1403q11 15 19 19.5t28 4.5h37q14 0 17.5 -7.5t-5.5 -19.5
l-1030 -1402q-13 -16 -22 -20.5t-33 -4.5h-31zM1460 0q-12 0 -16 4.5t-4 18.5v206h-412q-13 0 -17.5 4.5t-4.5 18.5v18q0 21 8 31l405 496q11 16 37 16h33q15 0 19.5 -5t4.5 -22v-491h103q14 0 18 -4t4 -17v-22q0 -14 -4 -18.5t-18 -4.5h-103v-206q0 -14 -4.5 -18.5
t-17.5 -4.5h-31zM1440 295v420l-344 -420h344z" />
    <glyph glyph-name="questiondown" unicode="&#xbf;" horiz-adv-x="1185" 
d="M643 1057q34 0 46.5 -12t12.5 -48v-10q0 -35 -12.5 -47t-46.5 -12h-10q-35 0 -47.5 12t-12.5 47v10q0 35 12.5 47.5t47.5 12.5h10zM653 756q14 0 19.5 -5t5.5 -20q0 -62 -14.5 -114t-33.5 -87t-55 -71t-62.5 -56t-72.5 -51q-39 -27 -54.5 -38t-49.5 -38t-49.5 -45.5
t-39 -51t-34 -63t-19 -73t-8.5 -90.5q0 -147 104 -243.5t285 -96.5q315 0 424 283q10 24 33 16l39 -12q25 -8 14 -33q-127 -338 -510 -338q-222 0 -352.5 120.5t-130.5 301.5q0 77 19 143t39.5 105.5t69.5 86.5t71 63.5t82 56.5q3 3 4.5 4l4.5 3t5 3q50 34 79.5 58t64 62.5
t51 87t16.5 107.5q0 15 5.5 20t19.5 5h30z" />
    <glyph glyph-name="Agrave" unicode="&#xc0;" horiz-adv-x="1359" 
d="M473 1776q-21 10 -4 30l20 23q16 19 46 4l354 -209q17 -11 2 -29l-14 -16q-11 -13 -33 -2zM76 0q-30 0 -19 25l568 1415q8 24 34 24h39q27 0 35 -24l567 -1415q14 -25 -18 -25h-37q-23 0 -32.5 4.5t-14.5 18.5l-180 452h-680l-180 -452q-6 -14 -15 -18.5t-32 -4.5h-35z
M989 555l-291 725q-5 18 -9 37.5t-6.5 35.5t-2.5 17h-6q0 -2 -2 -17.5t-6 -34.5t-9 -36l-290 -727h622z" />
    <glyph glyph-name="Agrave" unicode="&#xe0;" horiz-adv-x="1359" 
d="M473 1776q-21 10 -4 30l20 23q16 19 46 4l354 -209q17 -11 2 -29l-14 -16q-11 -13 -33 -2zM76 0q-30 0 -19 25l568 1415q8 24 34 24h39q27 0 35 -24l567 -1415q14 -25 -18 -25h-37q-23 0 -32.5 4.5t-14.5 18.5l-180 452h-680l-180 -452q-6 -14 -15 -18.5t-32 -4.5h-35z
M989 555l-291 725q-5 18 -9 37.5t-6.5 35.5t-2.5 17h-6q0 -2 -2 -17.5t-6 -34.5t-9 -36l-290 -727h622z" />
    <glyph glyph-name="Aacute" unicode="&#xc1;" horiz-adv-x="1359" 
d="M520 1567q-23 -8 -33 2l-14 16q-14 19 4 29l346 219q31 15 45 -4l21 -23q17 -20 -4 -30zM76 0q-30 0 -19 25l568 1415q8 24 34 24h39q27 0 35 -24l567 -1415q14 -25 -18 -25h-37q-23 0 -32.5 4.5t-14.5 18.5l-180 452h-680l-180 -452q-6 -14 -15 -18.5t-32 -4.5h-35z
M989 555l-291 725q-5 18 -9 37.5t-6.5 35.5t-2.5 17h-6q0 -2 -2 -17.5t-6 -34.5t-9 -36l-290 -727h622z" />
    <glyph glyph-name="Aacute" unicode="&#xe1;" horiz-adv-x="1359" 
d="M520 1567q-23 -8 -33 2l-14 16q-14 19 4 29l346 219q31 15 45 -4l21 -23q17 -20 -4 -30zM76 0q-30 0 -19 25l568 1415q8 24 34 24h39q27 0 35 -24l567 -1415q14 -25 -18 -25h-37q-23 0 -32.5 4.5t-14.5 18.5l-180 452h-680l-180 -452q-6 -14 -15 -18.5t-32 -4.5h-35z
M989 555l-291 725q-5 18 -9 37.5t-6.5 35.5t-2.5 17h-6q0 -2 -2 -17.5t-6 -34.5t-9 -36l-290 -727h622z" />
    <glyph glyph-name="Acircumflex" unicode="&#xc2;" horiz-adv-x="1359" 
d="M365 1565q-16 0 -19 6.5t6 13.5l273 230q17 17 24.5 20.5t24.5 3.5h12q15 0 22.5 -3.5t24.5 -20.5l273 -230q9 -7 6 -13.5t-19 -6.5h-39q-27 0 -41 14l-235 195l-236 -195q-16 -14 -41 -14h-36zM76 0q-30 0 -19 25l568 1415q8 24 34 24h39q27 0 35 -24l567 -1415
q14 -25 -18 -25h-37q-23 0 -32.5 4.5t-14.5 18.5l-180 452h-680l-180 -452q-6 -14 -15 -18.5t-32 -4.5h-35zM989 555l-291 725q-5 18 -9 37.5t-6.5 35.5t-2.5 17h-6q0 -2 -2 -17.5t-6 -34.5t-9 -36l-290 -727h622z" />
    <glyph glyph-name="Acircumflex" unicode="&#xe2;" horiz-adv-x="1359" 
d="M365 1565q-16 0 -19 6.5t6 13.5l273 230q17 17 24.5 20.5t24.5 3.5h12q15 0 22.5 -3.5t24.5 -20.5l273 -230q9 -7 6 -13.5t-19 -6.5h-39q-27 0 -41 14l-235 195l-236 -195q-16 -14 -41 -14h-36zM76 0q-30 0 -19 25l568 1415q8 24 34 24h39q27 0 35 -24l567 -1415
q14 -25 -18 -25h-37q-23 0 -32.5 4.5t-14.5 18.5l-180 452h-680l-180 -452q-6 -14 -15 -18.5t-32 -4.5h-35zM989 555l-291 725q-5 18 -9 37.5t-6.5 35.5t-2.5 17h-6q0 -2 -2 -17.5t-6 -34.5t-9 -36l-290 -727h622z" />
    <glyph glyph-name="Atilde" unicode="&#xc3;" horiz-adv-x="1359" 
d="M377 1583q-17 0 -17 16q0 93 39.5 143t114.5 50q41 0 78.5 -15t65.5 -37t54.5 -43.5t57.5 -36.5t64 -15q49 0 73.5 35t24.5 96q0 9 3 12.5t13 3.5h27q16 0 16 -16q0 -193 -151 -193q-40 0 -76.5 15t-64.5 37t-55 44t-59 37t-65 15q-46 0 -72 -36t-26 -96q0 -16 -16 -16
h-29zM76 0q-30 0 -19 25l568 1415q8 24 34 24h39q27 0 35 -24l567 -1415q14 -25 -18 -25h-37q-23 0 -32.5 4.5t-14.5 18.5l-180 452h-680l-180 -452q-6 -14 -15 -18.5t-32 -4.5h-35zM989 555l-291 725q-5 18 -9 37.5t-6.5 35.5t-2.5 17h-6q0 -2 -2 -17.5t-6 -34.5t-9 -36
l-290 -727h622z" />
    <glyph glyph-name="Atilde" unicode="&#xe3;" horiz-adv-x="1359" 
d="M377 1583q-17 0 -17 16q0 93 39.5 143t114.5 50q41 0 78.5 -15t65.5 -37t54.5 -43.5t57.5 -36.5t64 -15q49 0 73.5 35t24.5 96q0 9 3 12.5t13 3.5h27q16 0 16 -16q0 -193 -151 -193q-40 0 -76.5 15t-64.5 37t-55 44t-59 37t-65 15q-46 0 -72 -36t-26 -96q0 -16 -16 -16
h-29zM76 0q-30 0 -19 25l568 1415q8 24 34 24h39q27 0 35 -24l567 -1415q14 -25 -18 -25h-37q-23 0 -32.5 4.5t-14.5 18.5l-180 452h-680l-180 -452q-6 -14 -15 -18.5t-32 -4.5h-35zM989 555l-291 725q-5 18 -9 37.5t-6.5 35.5t-2.5 17h-6q0 -2 -2 -17.5t-6 -34.5t-9 -36
l-290 -727h622z" />
    <glyph glyph-name="Adieresis" unicode="&#xc4;" horiz-adv-x="1359" 
d="M477 1640q-26 0 -36.5 10t-10.5 36v14q0 26 10.5 36.5t36.5 10.5h12q29 0 38.5 -10t9.5 -37v-14q0 -27 -9.5 -36.5t-38.5 -9.5h-12zM870 1640q-29 0 -39 9.5t-10 36.5v14q0 27 10 37t39 10h11q26 0 36.5 -10.5t10.5 -36.5v-14q0 -26 -10.5 -36t-36.5 -10h-11zM76 0
q-30 0 -19 25l568 1415q8 24 34 24h39q27 0 35 -24l567 -1415q14 -25 -18 -25h-37q-23 0 -32.5 4.5t-14.5 18.5l-180 452h-680l-180 -452q-6 -14 -15 -18.5t-32 -4.5h-35zM989 555l-291 725q-5 18 -9 37.5t-6.5 35.5t-2.5 17h-6q0 -2 -2 -17.5t-6 -34.5t-9 -36l-290 -727
h622z" />
    <glyph glyph-name="Adieresis" unicode="&#xe4;" horiz-adv-x="1359" 
d="M477 1640q-26 0 -36.5 10t-10.5 36v14q0 26 10.5 36.5t36.5 10.5h12q29 0 38.5 -10t9.5 -37v-14q0 -27 -9.5 -36.5t-38.5 -9.5h-12zM870 1640q-29 0 -39 9.5t-10 36.5v14q0 27 10 37t39 10h11q26 0 36.5 -10.5t10.5 -36.5v-14q0 -26 -10.5 -36t-36.5 -10h-11zM76 0
q-30 0 -19 25l568 1415q8 24 34 24h39q27 0 35 -24l567 -1415q14 -25 -18 -25h-37q-23 0 -32.5 4.5t-14.5 18.5l-180 452h-680l-180 -452q-6 -14 -15 -18.5t-32 -4.5h-35zM989 555l-291 725q-5 18 -9 37.5t-6.5 35.5t-2.5 17h-6q0 -2 -2 -17.5t-6 -34.5t-9 -36l-290 -727
h622z" />
    <glyph glyph-name="Aring" unicode="&#xc5;" horiz-adv-x="1359" 
d="M76 0q-30 0 -19 25l561 1398q-69 14 -108 63t-39 124q0 92 57.5 147t153.5 55q94 0 149.5 -55t55.5 -147q0 -76 -38.5 -125.5t-107.5 -63.5l559 -1396q14 -25 -18 -25h-37q-23 0 -32.5 4.5t-14.5 18.5l-180 452h-680l-180 -452q-6 -14 -15 -18.5t-32 -4.5h-35zM682 1464
q67 0 107 40t40 106t-40 105.5t-107 39.5q-70 0 -111 -39.5t-41 -105.5t41 -106t111 -40zM989 555l-291 725q-5 18 -9 37.5t-6.5 35.5t-2.5 17h-6q0 -2 -2 -17.5t-6 -34.5t-9 -36l-290 -727h622z" />
    <glyph glyph-name="Aring" unicode="&#xe5;" horiz-adv-x="1359" 
d="M76 0q-30 0 -19 25l561 1398q-69 14 -108 63t-39 124q0 92 57.5 147t153.5 55q94 0 149.5 -55t55.5 -147q0 -76 -38.5 -125.5t-107.5 -63.5l559 -1396q14 -25 -18 -25h-37q-23 0 -32.5 4.5t-14.5 18.5l-180 452h-680l-180 -452q-6 -14 -15 -18.5t-32 -4.5h-35zM682 1464
q67 0 107 40t40 106t-40 105.5t-107 39.5q-70 0 -111 -39.5t-41 -105.5t41 -106t111 -40zM989 555l-291 725q-5 18 -9 37.5t-6.5 35.5t-2.5 17h-6q0 -2 -2 -17.5t-6 -34.5t-9 -36l-290 -727h622z" />
    <glyph glyph-name="AE" unicode="&#xc6;" horiz-adv-x="1738" 
d="M45 0q-32 0 -18 25l856 1405q7 15 14 19.5t21 4.5h653q13 0 18.5 -6t5.5 -21v-36q0 -25 -24 -25h-580v-586h490q14 0 19 -5.5t5 -20.5v-37q0 -25 -24 -25h-490v-604h606q27 0 27 -25v-36q0 -15 -6 -21t-21 -6h-671q-15 0 -21 6t-6 21v356h-551l-217 -360
q-8 -13 -16.5 -18t-30.5 -5h-39zM899 463v835l-502 -835h502z" />
    <glyph glyph-name="AE" unicode="&#xe6;" horiz-adv-x="1738" 
d="M45 0q-32 0 -18 25l856 1405q7 15 14 19.5t21 4.5h653q13 0 18.5 -6t5.5 -21v-36q0 -25 -24 -25h-580v-586h490q14 0 19 -5.5t5 -20.5v-37q0 -25 -24 -25h-490v-604h606q27 0 27 -25v-36q0 -15 -6 -21t-21 -6h-671q-15 0 -21 6t-6 21v356h-551l-217 -360
q-8 -13 -16.5 -18t-30.5 -5h-39zM899 463v835l-502 -835h502z" />
    <glyph glyph-name="Ccedilla" unicode="&#xc7;" horiz-adv-x="1361" 
d="M680 -504q-93 0 -172 45q-19 11 -19 33v27q0 7 3.5 10t11.5 -2q69 -53 168 -53q75 0 117 35.5t42 99.5q0 97 -139 100q-44 0 -78 -12q-15 -3 -19.5 4t1.5 24l63 164q-242 12 -372.5 145.5t-130.5 360.5v502q0 237 142.5 370.5t410.5 133.5q230 0 356.5 -88.5
t179.5 -268.5q5 -15 1.5 -21.5t-17.5 -12.5l-39 -13q-13 -4 -21 -0.5t-14 17.5q-45 156 -148.5 227.5t-297.5 71.5q-224 0 -340.5 -109.5t-116.5 -304.5v-506q0 -195 118 -305.5t339 -110.5q197 0 300.5 75.5t151.5 234.5q8 24 33 16l39 -14q26 -9 18 -35
q-36 -119 -96.5 -196t-169 -122t-266.5 -47l-51 -137q27 6 65 6q82 0 129.5 -41.5t46.5 -111.5q-3 -93 -65.5 -142t-163.5 -49z" />
    <glyph glyph-name="Ccedilla" unicode="&#xe7;" horiz-adv-x="1361" 
d="M680 -504q-93 0 -172 45q-19 11 -19 33v27q0 7 3.5 10t11.5 -2q69 -53 168 -53q75 0 117 35.5t42 99.5q0 97 -139 100q-44 0 -78 -12q-15 -3 -19.5 4t1.5 24l63 164q-242 12 -372.5 145.5t-130.5 360.5v502q0 237 142.5 370.5t410.5 133.5q230 0 356.5 -88.5
t179.5 -268.5q5 -15 1.5 -21.5t-17.5 -12.5l-39 -13q-13 -4 -21 -0.5t-14 17.5q-45 156 -148.5 227.5t-297.5 71.5q-224 0 -340.5 -109.5t-116.5 -304.5v-506q0 -195 118 -305.5t339 -110.5q197 0 300.5 75.5t151.5 234.5q8 24 33 16l39 -14q26 -9 18 -35
q-36 -119 -96.5 -196t-169 -122t-266.5 -47l-51 -137q27 6 65 6q82 0 129.5 -41.5t46.5 -111.5q-3 -93 -65.5 -142t-163.5 -49z" />
    <glyph glyph-name="Egrave" unicode="&#xc8;" horiz-adv-x="1230" 
d="M438 1776q-21 10 -4 30l21 23q16 18 45 4l354 -209q17 -11 2 -29l-14 -16q-11 -13 -33 -2zM225 0q-13 0 -18.5 6t-5.5 21v1400q0 15 5.5 21t18.5 6h838q27 0 27 -27v-36q0 -25 -27 -25h-768v-584h678q26 0 26 -26v-37q0 -15 -5.5 -21t-20.5 -6h-678v-604h797q24 0 24 -25
v-36q0 -15 -5.5 -21t-18.5 -6h-867z" />
    <glyph glyph-name="Egrave" unicode="&#xe8;" horiz-adv-x="1230" 
d="M438 1776q-21 10 -4 30l21 23q16 18 45 4l354 -209q17 -11 2 -29l-14 -16q-11 -13 -33 -2zM225 0q-13 0 -18.5 6t-5.5 21v1400q0 15 5.5 21t18.5 6h838q27 0 27 -27v-36q0 -25 -27 -25h-768v-584h678q26 0 26 -26v-37q0 -15 -5.5 -21t-20.5 -6h-678v-604h797q24 0 24 -25
v-36q0 -15 -5.5 -21t-18.5 -6h-867z" />
    <glyph glyph-name="Eacute" unicode="&#xc9;" horiz-adv-x="1230" 
d="M485 1567q-22 -8 -32 2l-15 16q-14 19 4 29l346 219q31 16 46 -4l20 -23q17 -20 -4 -30zM225 0q-13 0 -18.5 6t-5.5 21v1400q0 15 5.5 21t18.5 6h838q27 0 27 -27v-36q0 -25 -27 -25h-768v-584h678q26 0 26 -26v-37q0 -15 -5.5 -21t-20.5 -6h-678v-604h797q24 0 24 -25
v-36q0 -15 -5.5 -21t-18.5 -6h-867z" />
    <glyph glyph-name="Eacute" unicode="&#xe9;" horiz-adv-x="1230" 
d="M485 1567q-22 -8 -32 2l-15 16q-14 19 4 29l346 219q31 16 46 -4l20 -23q17 -20 -4 -30zM225 0q-13 0 -18.5 6t-5.5 21v1400q0 15 5.5 21t18.5 6h838q27 0 27 -27v-36q0 -25 -27 -25h-768v-584h678q26 0 26 -26v-37q0 -15 -5.5 -21t-20.5 -6h-678v-604h797q24 0 24 -25
v-36q0 -15 -5.5 -21t-18.5 -6h-867z" />
    <glyph glyph-name="Ecircumflex" unicode="&#xca;" horiz-adv-x="1230" 
d="M332 1565q-16 0 -19 6.5t6 13.5l273 230q17 17 24.5 20.5t24.5 3.5h12q15 0 22.5 -3.5t24.5 -20.5l273 -230q20 -20 -12 -20h-39q-27 0 -41 14l-236 195l-235 -195q-16 -14 -41 -14h-37zM225 0q-13 0 -18.5 6t-5.5 21v1400q0 15 5.5 21t18.5 6h838q27 0 27 -27v-36
q0 -25 -27 -25h-768v-584h678q26 0 26 -26v-37q0 -15 -5.5 -21t-20.5 -6h-678v-604h797q24 0 24 -25v-36q0 -15 -5.5 -21t-18.5 -6h-867z" />
    <glyph glyph-name="Ecircumflex" unicode="&#xea;" horiz-adv-x="1230" 
d="M332 1565q-16 0 -19 6.5t6 13.5l273 230q17 17 24.5 20.5t24.5 3.5h12q15 0 22.5 -3.5t24.5 -20.5l273 -230q20 -20 -12 -20h-39q-27 0 -41 14l-236 195l-235 -195q-16 -14 -41 -14h-37zM225 0q-13 0 -18.5 6t-5.5 21v1400q0 15 5.5 21t18.5 6h838q27 0 27 -27v-36
q0 -25 -27 -25h-768v-584h678q26 0 26 -26v-37q0 -15 -5.5 -21t-20.5 -6h-678v-604h797q24 0 24 -25v-36q0 -15 -5.5 -21t-18.5 -6h-867z" />
    <glyph glyph-name="Edieresis" unicode="&#xcb;" horiz-adv-x="1230" 
d="M442 1640q-26 0 -36.5 10t-10.5 36v14q0 26 10.5 36.5t36.5 10.5h13q28 0 37.5 -10t9.5 -37v-14q0 -27 -9 -36.5t-38 -9.5h-13zM836 1640q-29 0 -39.5 10t-10.5 36v14q0 27 10.5 37t39.5 10h10q26 0 36.5 -10.5t10.5 -36.5v-14q0 -26 -10.5 -36t-36.5 -10h-10zM225 0
q-13 0 -18.5 6t-5.5 21v1400q0 15 5.5 21t18.5 6h838q27 0 27 -27v-36q0 -25 -27 -25h-768v-584h678q26 0 26 -26v-37q0 -15 -5.5 -21t-20.5 -6h-678v-604h797q24 0 24 -25v-36q0 -15 -5.5 -21t-18.5 -6h-867z" />
    <glyph glyph-name="Edieresis" unicode="&#xeb;" horiz-adv-x="1230" 
d="M442 1640q-26 0 -36.5 10t-10.5 36v14q0 26 10.5 36.5t36.5 10.5h13q28 0 37.5 -10t9.5 -37v-14q0 -27 -9 -36.5t-38 -9.5h-13zM836 1640q-29 0 -39.5 10t-10.5 36v14q0 27 10.5 37t39.5 10h10q26 0 36.5 -10.5t10.5 -36.5v-14q0 -26 -10.5 -36t-36.5 -10h-10zM225 0
q-13 0 -18.5 6t-5.5 21v1400q0 15 5.5 21t18.5 6h838q27 0 27 -27v-36q0 -25 -27 -25h-768v-584h678q26 0 26 -26v-37q0 -15 -5.5 -21t-20.5 -6h-678v-604h797q24 0 24 -25v-36q0 -15 -5.5 -21t-18.5 -6h-867z" />
    <glyph glyph-name="Igrave" unicode="&#xcc;" horiz-adv-x="495" 
d="M41 1776q-21 10 -4 30l20 23q16 18 45 4l355 -209q17 -11 2 -29l-15 -16q-10 -13 -32 -2zM225 0q-13 0 -18.5 6t-5.5 21v1400q0 15 5.5 21t18.5 6h45q25 0 25 -27v-1400q0 -27 -25 -27h-45z" />
    <glyph glyph-name="Igrave" unicode="&#xec;" horiz-adv-x="495" 
d="M41 1776q-21 10 -4 30l20 23q16 18 45 4l355 -209q17 -11 2 -29l-15 -16q-10 -13 -32 -2zM225 0q-13 0 -18.5 6t-5.5 21v1400q0 15 5.5 21t18.5 6h45q25 0 25 -27v-1400q0 -27 -25 -27h-45z" />
    <glyph glyph-name="Iacute" unicode="&#xcd;" horiz-adv-x="495" 
d="M88 1567q-23 -8 -33 2l-14 16q-14 19 4 29l346 219q31 15 45 -4l21 -23q17 -20 -4 -30zM225 0q-13 0 -18.5 6t-5.5 21v1400q0 15 5.5 21t18.5 6h45q25 0 25 -27v-1400q0 -27 -25 -27h-45z" />
    <glyph glyph-name="Iacute" unicode="&#xed;" horiz-adv-x="495" 
d="M88 1567q-23 -8 -33 2l-14 16q-14 19 4 29l346 219q31 15 45 -4l21 -23q17 -20 -4 -30zM225 0q-13 0 -18.5 6t-5.5 21v1400q0 15 5.5 21t18.5 6h45q25 0 25 -27v-1400q0 -27 -25 -27h-45z" />
    <glyph glyph-name="Icircumflex" unicode="&#xce;" horiz-adv-x="495" 
d="M-68 1565q-32 0 -12 20l273 230q17 17 24.5 20.5t24.5 3.5h12q15 0 22.5 -3.5t24.5 -20.5l272 -230q20 -20 -12 -20h-39q-27 0 -41 14l-235 195l-236 -195q-16 -14 -41 -14h-37zM225 0q-13 0 -18.5 6t-5.5 21v1400q0 15 5.5 21t18.5 6h45q25 0 25 -27v-1400
q0 -27 -25 -27h-45z" />
    <glyph glyph-name="Icircumflex" unicode="&#xee;" horiz-adv-x="495" 
d="M-68 1565q-32 0 -12 20l273 230q17 17 24.5 20.5t24.5 3.5h12q15 0 22.5 -3.5t24.5 -20.5l272 -230q20 -20 -12 -20h-39q-27 0 -41 14l-235 195l-236 -195q-16 -14 -41 -14h-37zM225 0q-13 0 -18.5 6t-5.5 21v1400q0 15 5.5 21t18.5 6h45q25 0 25 -27v-1400
q0 -27 -25 -27h-45z" />
    <glyph glyph-name="Idieresis" unicode="&#xcf;" horiz-adv-x="495" 
d="M45 1640q-26 0 -36.5 10t-10.5 36v14q0 26 10.5 36.5t36.5 10.5h12q28 0 37.5 -10t9.5 -37v-14q0 -27 -9 -36.5t-38 -9.5h-12zM438 1640q-29 0 -39 9.5t-10 36.5v14q0 27 10 37t39 10h11q26 0 36.5 -10.5t10.5 -36.5v-14q0 -26 -10.5 -36t-36.5 -10h-11zM225 0
q-13 0 -18.5 6t-5.5 21v1400q0 15 5.5 21t18.5 6h45q25 0 25 -27v-1400q0 -27 -25 -27h-45z" />
    <glyph glyph-name="Idieresis" unicode="&#xef;" horiz-adv-x="495" 
d="M45 1640q-26 0 -36.5 10t-10.5 36v14q0 26 10.5 36.5t36.5 10.5h12q28 0 37.5 -10t9.5 -37v-14q0 -27 -9 -36.5t-38 -9.5h-12zM438 1640q-29 0 -39 9.5t-10 36.5v14q0 27 10 37t39 10h11q26 0 36.5 -10.5t10.5 -36.5v-14q0 -26 -10.5 -36t-36.5 -10h-11zM225 0
q-13 0 -18.5 6t-5.5 21v1400q0 15 5.5 21t18.5 6h45q25 0 25 -27v-1400q0 -27 -25 -27h-45z" />
    <glyph glyph-name="Eth" unicode="&#xd0;" horiz-adv-x="1406" 
d="M246 0q-15 0 -21 6t-6 21v671h-164q-12 0 -16 4.5t-4 16.5v26q0 12 4 16.5t16 4.5h164v661q0 15 6 21t21 6h418q283 0 438 -144t155 -397v-372q0 -253 -155 -397t-438 -144h-418zM666 88q238 0 367.5 119t129.5 334v372q0 215 -128.5 334t-368.5 119h-353v-600h394
q10 0 14 -4.5t4 -16.5v-26q0 -12 -4 -16.5t-14 -4.5h-394v-610h353z" />
    <glyph glyph-name="Eth" unicode="&#xf0;" horiz-adv-x="1406" 
d="M246 0q-15 0 -21 6t-6 21v671h-164q-12 0 -16 4.5t-4 16.5v26q0 12 4 16.5t16 4.5h164v661q0 15 6 21t21 6h418q283 0 438 -144t155 -397v-372q0 -253 -155 -397t-438 -144h-418zM666 88q238 0 367.5 119t129.5 334v372q0 215 -128.5 334t-368.5 119h-353v-600h394
q10 0 14 -4.5t4 -16.5v-26q0 -12 -4 -16.5t-14 -4.5h-394v-610h353z" />
    <glyph glyph-name="Ntilde" unicode="&#xd1;" horiz-adv-x="1472" 
d="M434 1583q-16 0 -16 16q0 93 39 143t114 50q41 0 78.5 -15t65.5 -37t54.5 -43.5t57.5 -36.5t64 -15q49 0 73.5 35t24.5 96q0 9 3.5 12.5t13.5 3.5h26q17 0 17 -16q0 -193 -152 -193q-40 0 -76.5 15t-64.5 37t-54.5 44t-58.5 37t-65 15q-46 0 -72.5 -36t-26.5 -96
q0 -16 -16 -16h-29zM225 0q-13 0 -18.5 6t-5.5 21v1400q0 15 5.5 21t18.5 6h43q15 0 29 -14l707 -1010q40 -57 101.5 -158t84.5 -133h6q0 37 -7 163.5t-7 203.5v924q0 14 5 19t19 5h41q15 0 21 -6t6 -21v-1400q0 -15 -6 -21t-21 -6h-41q-19 0 -30 16l-725 1037
q-36 51 -91.5 145t-74.5 121h-4q0 -33 6 -150t6 -188v-954q0 -15 -6 -21t-21 -6h-41z" />
    <glyph glyph-name="Ntilde" unicode="&#xf1;" horiz-adv-x="1472" 
d="M434 1583q-16 0 -16 16q0 93 39 143t114 50q41 0 78.5 -15t65.5 -37t54.5 -43.5t57.5 -36.5t64 -15q49 0 73.5 35t24.5 96q0 9 3.5 12.5t13.5 3.5h26q17 0 17 -16q0 -193 -152 -193q-40 0 -76.5 15t-64.5 37t-54.5 44t-58.5 37t-65 15q-46 0 -72.5 -36t-26.5 -96
q0 -16 -16 -16h-29zM225 0q-13 0 -18.5 6t-5.5 21v1400q0 15 5.5 21t18.5 6h43q15 0 29 -14l707 -1010q40 -57 101.5 -158t84.5 -133h6q0 37 -7 163.5t-7 203.5v924q0 14 5 19t19 5h41q15 0 21 -6t6 -21v-1400q0 -15 -6 -21t-21 -6h-41q-19 0 -30 16l-725 1037
q-36 51 -91.5 145t-74.5 121h-4q0 -33 6 -150t6 -188v-954q0 -15 -6 -21t-21 -6h-41z" />
    <glyph glyph-name="Ograve" unicode="&#xd2;" horiz-adv-x="1415" 
d="M502 1796q-21 11 -4 31l20 22q16 18 45 4l355 -208q17 -11 2 -29l-15 -17q-11 -13 -33 -2zM709 -29q-267 0 -410 134t-143 372v500q0 238 143 372t410 134q265 0 408 -134t143 -372v-500q0 -238 -143 -372t-408 -134zM709 59q220 0 338 110.5t118 309.5v496
q0 199 -118 309.5t-338 110.5q-222 0 -339.5 -110.5t-117.5 -309.5v-496q0 -199 117.5 -309.5t339.5 -110.5z" />
    <glyph glyph-name="Ograve" unicode="&#xf2;" horiz-adv-x="1415" 
d="M502 1796q-21 11 -4 31l20 22q16 18 45 4l355 -208q17 -11 2 -29l-15 -17q-11 -13 -33 -2zM709 -29q-267 0 -410 134t-143 372v500q0 238 143 372t410 134q265 0 408 -134t143 -372v-500q0 -238 -143 -372t-408 -134zM709 59q220 0 338 110.5t118 309.5v496
q0 199 -118 309.5t-338 110.5q-222 0 -339.5 -110.5t-117.5 -309.5v-496q0 -199 117.5 -309.5t339.5 -110.5z" />
    <glyph glyph-name="Oacute" unicode="&#xd3;" horiz-adv-x="1415" 
d="M549 1587q-23 -8 -33 2l-14 17q-8 10 -7 16t11 12l346 219q31 15 45 -4l21 -22q17 -20 -5 -31zM709 -29q-267 0 -410 134t-143 372v500q0 238 143 372t410 134q265 0 408 -134t143 -372v-500q0 -238 -143 -372t-408 -134zM709 59q220 0 338 110.5t118 309.5v496
q0 199 -118 309.5t-338 110.5q-222 0 -339.5 -110.5t-117.5 -309.5v-496q0 -199 117.5 -309.5t339.5 -110.5z" />
    <glyph glyph-name="Oacute" unicode="&#xf3;" horiz-adv-x="1415" 
d="M549 1587q-23 -8 -33 2l-14 17q-8 10 -7 16t11 12l346 219q31 15 45 -4l21 -22q17 -20 -5 -31zM709 -29q-267 0 -410 134t-143 372v500q0 238 143 372t410 134q265 0 408 -134t143 -372v-500q0 -238 -143 -372t-408 -134zM709 59q220 0 338 110.5t118 309.5v496
q0 199 -118 309.5t-338 110.5q-222 0 -339.5 -110.5t-117.5 -309.5v-496q0 -199 117.5 -309.5t339.5 -110.5z" />
    <glyph glyph-name="Ocircumflex" unicode="&#xd4;" horiz-adv-x="1415" 
d="M395 1585q-16 0 -18.5 6.5t6.5 14.5l272 229q17 17 25 21t25 4h12q15 0 22.5 -4t24.5 -21l272 -229q9 -8 6.5 -14.5t-18.5 -6.5h-39q-27 0 -41 14l-235 195l-236 -195q-16 -14 -41 -14h-37zM709 -29q-267 0 -410 134t-143 372v500q0 238 143 372t410 134q265 0 408 -134
t143 -372v-500q0 -238 -143 -372t-408 -134zM709 59q220 0 338 110.5t118 309.5v496q0 199 -118 309.5t-338 110.5q-222 0 -339.5 -110.5t-117.5 -309.5v-496q0 -199 117.5 -309.5t339.5 -110.5z" />
    <glyph glyph-name="Ocircumflex" unicode="&#xf4;" horiz-adv-x="1415" 
d="M395 1585q-16 0 -18.5 6.5t6.5 14.5l272 229q17 17 25 21t25 4h12q15 0 22.5 -4t24.5 -21l272 -229q9 -8 6.5 -14.5t-18.5 -6.5h-39q-27 0 -41 14l-235 195l-236 -195q-16 -14 -41 -14h-37zM709 -29q-267 0 -410 134t-143 372v500q0 238 143 372t410 134q265 0 408 -134
t143 -372v-500q0 -238 -143 -372t-408 -134zM709 59q220 0 338 110.5t118 309.5v496q0 199 -118 309.5t-338 110.5q-222 0 -339.5 -110.5t-117.5 -309.5v-496q0 -199 117.5 -309.5t339.5 -110.5z" />
    <glyph glyph-name="Otilde" unicode="&#xd5;" horiz-adv-x="1415" 
d="M406 1604q-17 0 -17 16q0 93 39.5 142.5t114.5 49.5q41 0 78.5 -15t65 -37t54 -43.5t57.5 -36.5t64 -15q49 0 74 35t25 96q0 9 3 12.5t13 3.5h27q16 0 16 -16q0 -192 -152 -192q-49 0 -94 23t-74.5 50.5t-70 50.5t-80.5 23q-46 0 -72 -35.5t-26 -95.5q0 -16 -17 -16h-28z
M709 -29q-267 0 -410 134t-143 372v500q0 238 143 372t410 134q265 0 408 -134t143 -372v-500q0 -238 -143 -372t-408 -134zM709 59q220 0 338 110.5t118 309.5v496q0 199 -118 309.5t-338 110.5q-222 0 -339.5 -110.5t-117.5 -309.5v-496q0 -199 117.5 -309.5t339.5 -110.5
z" />
    <glyph glyph-name="Otilde" unicode="&#xf5;" horiz-adv-x="1415" 
d="M406 1604q-17 0 -17 16q0 93 39.5 142.5t114.5 49.5q41 0 78.5 -15t65 -37t54 -43.5t57.5 -36.5t64 -15q49 0 74 35t25 96q0 9 3 12.5t13 3.5h27q16 0 16 -16q0 -192 -152 -192q-49 0 -94 23t-74.5 50.5t-70 50.5t-80.5 23q-46 0 -72 -35.5t-26 -95.5q0 -16 -17 -16h-28z
M709 -29q-267 0 -410 134t-143 372v500q0 238 143 372t410 134q265 0 408 -134t143 -372v-500q0 -238 -143 -372t-408 -134zM709 59q220 0 338 110.5t118 309.5v496q0 199 -118 309.5t-338 110.5q-222 0 -339.5 -110.5t-117.5 -309.5v-496q0 -199 117.5 -309.5t339.5 -110.5
z" />
    <glyph glyph-name="Odieresis" unicode="&#xd6;" horiz-adv-x="1415" 
d="M506 1661q-27 0 -37 9.5t-10 35.5v14q0 26 10.5 36.5t36.5 10.5h12q28 0 37.5 -10t9.5 -37v-14q0 -27 -9 -36t-38 -9h-12zM899 1661q-29 0 -39 9.5t-10 35.5v14q0 27 10 37t39 10h10q26 0 36.5 -10.5t10.5 -36.5v-14q0 -26 -10 -35.5t-37 -9.5h-10zM709 -29
q-267 0 -410 134t-143 372v500q0 238 143 372t410 134q265 0 408 -134t143 -372v-500q0 -238 -143 -372t-408 -134zM709 59q220 0 338 110.5t118 309.5v496q0 199 -118 309.5t-338 110.5q-222 0 -339.5 -110.5t-117.5 -309.5v-496q0 -199 117.5 -309.5t339.5 -110.5z" />
    <glyph glyph-name="Odieresis" unicode="&#xf6;" horiz-adv-x="1415" 
d="M506 1661q-27 0 -37 9.5t-10 35.5v14q0 26 10.5 36.5t36.5 10.5h12q28 0 37.5 -10t9.5 -37v-14q0 -27 -9 -36t-38 -9h-12zM899 1661q-29 0 -39 9.5t-10 35.5v14q0 27 10 37t39 10h10q26 0 36.5 -10.5t10.5 -36.5v-14q0 -26 -10 -35.5t-37 -9.5h-10zM709 -29
q-267 0 -410 134t-143 372v500q0 238 143 372t410 134q265 0 408 -134t143 -372v-500q0 -238 -143 -372t-408 -134zM709 59q220 0 338 110.5t118 309.5v496q0 199 -118 309.5t-338 110.5q-222 0 -339.5 -110.5t-117.5 -309.5v-496q0 -199 117.5 -309.5t339.5 -110.5z" />
    <glyph glyph-name="multiply" unicode="&#xd7;" horiz-adv-x="1097" 
d="M547 606l-320 -319q-19 -19 -37 0l-20 20q-19 16 0 37l319 320l-319 323q-10 11 -10 19t10 18l20 20q10 10 18 10t19 -10l320 -323l323 323q10 10 18 10t19 -10l21 -20q10 -10 10 -18t-10 -19l-324 -323l324 -320q10 -12 10 -20t-10 -19l-21 -20q-19 -19 -37 0z" />
    <glyph glyph-name="Oslash" unicode="&#xd8;" horiz-adv-x="1415" 
d="M172 -88q-13 0 -6 10l123 193q-133 130 -133 362v500q0 238 143 372t410 134q245 0 381 -115l100 158q6 8 20 8h54q13 0 6 -10l-129 -201q119 -131 119 -346v-500q0 -238 -143 -372t-408 -134q-229 0 -367 101l-96 -150q-4 -7 -7.5 -8.5t-15.5 -1.5h-51zM1040 1288
q-119 107 -331 107q-222 0 -339.5 -110.5t-117.5 -309.5v-496q0 -173 96 -274zM709 59q220 0 338 110.5t118 309.5v496q0 159 -82 256l-690 -1079q120 -93 316 -93z" />
    <glyph glyph-name="Oslash" unicode="&#xf8;" horiz-adv-x="1415" 
d="M172 -88q-13 0 -6 10l123 193q-133 130 -133 362v500q0 238 143 372t410 134q245 0 381 -115l100 158q6 8 20 8h54q13 0 6 -10l-129 -201q119 -131 119 -346v-500q0 -238 -143 -372t-408 -134q-229 0 -367 101l-96 -150q-4 -7 -7.5 -8.5t-15.5 -1.5h-51zM1040 1288
q-119 107 -331 107q-222 0 -339.5 -110.5t-117.5 -309.5v-496q0 -173 96 -274zM709 59q220 0 338 110.5t118 309.5v496q0 159 -82 256l-690 -1079q120 -93 316 -93z" />
    <glyph glyph-name="Ugrave" unicode="&#xd9;" horiz-adv-x="1456" 
d="M520 1776q-21 10 -4 30l21 23q16 18 45 4l354 -209q17 -11 2 -29l-14 -16q-11 -13 -33 -2zM727 -31q-265 0 -402 139.5t-137 383.5v935q0 27 25 27h45q25 0 25 -27v-935q0 -203 112.5 -319t331.5 -116q220 0 332 115.5t112 319.5v935q0 27 27 27h43q15 0 21 -6t6 -21
v-935q0 -244 -138 -383.5t-403 -139.5z" />
    <glyph glyph-name="Ugrave" unicode="&#xf9;" horiz-adv-x="1456" 
d="M520 1776q-21 10 -4 30l21 23q16 18 45 4l354 -209q17 -11 2 -29l-14 -16q-11 -13 -33 -2zM727 -31q-265 0 -402 139.5t-137 383.5v935q0 27 25 27h45q25 0 25 -27v-935q0 -203 112.5 -319t331.5 -116q220 0 332 115.5t112 319.5v935q0 27 27 27h43q15 0 21 -6t6 -21
v-935q0 -244 -138 -383.5t-403 -139.5z" />
    <glyph glyph-name="Uacute" unicode="&#xda;" horiz-adv-x="1456" 
d="M567 1567q-22 -8 -32 2l-15 16q-14 19 4 29l346 219q31 15 45 -4l21 -23q17 -20 -4 -30zM727 -31q-265 0 -402 139.5t-137 383.5v935q0 27 25 27h45q25 0 25 -27v-935q0 -203 112.5 -319t331.5 -116q220 0 332 115.5t112 319.5v935q0 27 27 27h43q15 0 21 -6t6 -21v-935
q0 -244 -138 -383.5t-403 -139.5z" />
    <glyph glyph-name="Uacute" unicode="&#xfa;" horiz-adv-x="1456" 
d="M567 1567q-22 -8 -32 2l-15 16q-14 19 4 29l346 219q31 15 45 -4l21 -23q17 -20 -4 -30zM727 -31q-265 0 -402 139.5t-137 383.5v935q0 27 25 27h45q25 0 25 -27v-935q0 -203 112.5 -319t331.5 -116q220 0 332 115.5t112 319.5v935q0 27 27 27h43q15 0 21 -6t6 -21v-935
q0 -244 -138 -383.5t-403 -139.5z" />
    <glyph glyph-name="Ucircumflex" unicode="&#xdb;" horiz-adv-x="1456" 
d="M414 1565q-16 0 -19 6.5t6 13.5l273 230q17 17 24.5 20.5t24.5 3.5h12q15 0 22.5 -3.5t24.5 -20.5l273 -230q9 -7 6 -13.5t-19 -6.5h-38q-27 0 -41 14l-236 195l-235 -195q-16 -14 -41 -14h-37zM727 -31q-265 0 -402 139.5t-137 383.5v935q0 27 25 27h45q25 0 25 -27
v-935q0 -203 112.5 -319t331.5 -116q220 0 332 115.5t112 319.5v935q0 27 27 27h43q15 0 21 -6t6 -21v-935q0 -244 -138 -383.5t-403 -139.5z" />
    <glyph glyph-name="Ucircumflex" unicode="&#xfb;" horiz-adv-x="1456" 
d="M414 1565q-16 0 -19 6.5t6 13.5l273 230q17 17 24.5 20.5t24.5 3.5h12q15 0 22.5 -3.5t24.5 -20.5l273 -230q9 -7 6 -13.5t-19 -6.5h-38q-27 0 -41 14l-236 195l-235 -195q-16 -14 -41 -14h-37zM727 -31q-265 0 -402 139.5t-137 383.5v935q0 27 25 27h45q25 0 25 -27
v-935q0 -203 112.5 -319t331.5 -116q220 0 332 115.5t112 319.5v935q0 27 27 27h43q15 0 21 -6t6 -21v-935q0 -244 -138 -383.5t-403 -139.5z" />
    <glyph glyph-name="Udieresis" unicode="&#xdc;" horiz-adv-x="1456" 
d="M524 1640q-26 0 -36.5 10t-10.5 36v14q0 26 10.5 36.5t36.5 10.5h13q28 0 37.5 -10t9.5 -37v-14q0 -27 -9 -36.5t-38 -9.5h-13zM918 1640q-29 0 -39.5 10t-10.5 36v14q0 27 10.5 37t39.5 10h10q26 0 36.5 -10.5t10.5 -36.5v-14q0 -26 -10.5 -36t-36.5 -10h-10zM727 -31
q-265 0 -402 139.5t-137 383.5v935q0 27 25 27h45q25 0 25 -27v-935q0 -203 112.5 -319t331.5 -116q220 0 332 115.5t112 319.5v935q0 27 27 27h43q15 0 21 -6t6 -21v-935q0 -244 -138 -383.5t-403 -139.5z" />
    <glyph glyph-name="Udieresis" unicode="&#xfc;" horiz-adv-x="1456" 
d="M524 1640q-26 0 -36.5 10t-10.5 36v14q0 26 10.5 36.5t36.5 10.5h13q28 0 37.5 -10t9.5 -37v-14q0 -27 -9 -36.5t-38 -9.5h-13zM918 1640q-29 0 -39.5 10t-10.5 36v14q0 27 10.5 37t39.5 10h10q26 0 36.5 -10.5t10.5 -36.5v-14q0 -26 -10.5 -36t-36.5 -10h-10zM727 -31
q-265 0 -402 139.5t-137 383.5v935q0 27 25 27h45q25 0 25 -27v-935q0 -203 112.5 -319t331.5 -116q220 0 332 115.5t112 319.5v935q0 27 27 27h43q15 0 21 -6t6 -21v-935q0 -244 -138 -383.5t-403 -139.5z" />
    <glyph glyph-name="Yacute" unicode="&#xdd;" horiz-adv-x="1331" 
d="M508 1567q-23 -8 -33 2l-14 16q-14 19 4 29l346 219q31 15 45 -4l21 -23q17 -19 -5 -30zM643 0q-25 0 -25 27v573l-552 827q-6 11 -2.5 19t16.5 8h53q24 0 32 -3.5t17 -18.5l486 -736l485 736q9 15 17 18.5t32 3.5h51q13 0 17 -8t-2 -19l-555 -831v-569q0 -27 -25 -27
h-45z" />
    <glyph glyph-name="Yacute" unicode="&#xfd;" horiz-adv-x="1331" 
d="M508 1567q-23 -8 -33 2l-14 16q-14 19 4 29l346 219q31 15 45 -4l21 -23q17 -19 -5 -30zM643 0q-25 0 -25 27v573l-552 827q-6 11 -2.5 19t16.5 8h53q24 0 32 -3.5t17 -18.5l486 -736l485 736q9 15 17 18.5t32 3.5h51q13 0 17 -8t-2 -19l-555 -831v-569q0 -27 -25 -27
h-45z" />
    <glyph glyph-name="Thorn" unicode="&#xde;" horiz-adv-x="1325" 
d="M225 0q-13 0 -18.5 6t-5.5 21v1400q0 15 5.5 21t18.5 6h45q25 0 25 -27v-225h463q216 0 344.5 -125.5t128.5 -341.5q0 -215 -128 -339t-345 -124h-463v-245q0 -27 -25 -27h-45zM748 360q177 0 279.5 101t102.5 274q0 175 -102.5 276t-279.5 101h-453v-752h453z" />
    <glyph glyph-name="Thorn" unicode="&#xfe;" horiz-adv-x="1325" 
d="M225 0q-13 0 -18.5 6t-5.5 21v1400q0 15 5.5 21t18.5 6h45q25 0 25 -27v-225h463q216 0 344.5 -125.5t128.5 -341.5q0 -215 -128 -339t-345 -124h-463v-245q0 -27 -25 -27h-45zM748 360q177 0 279.5 101t102.5 274q0 175 -102.5 276t-279.5 101h-453v-752h453z" />
    <glyph glyph-name="uni00DF" unicode="&#xdf;" horiz-adv-x="1374" 
d="M813 831q216 0 323 -100t107 -321q0 -217 -119.5 -321.5t-365.5 -104.5q-90 0 -161 10t-153 43q-26 0 -26 26v41q0 10 7.5 17t18.5 6q60 -26 119.5 -38t91 -13.5t99.5 -1.5q206 0 297.5 81.5t91.5 262.5q0 170 -82.5 251t-255.5 81q-95 0 -166 -11q-12 -1 -19.5 6
t-7.5 19v37q0 17 13 33l417 532h-747v-1339q0 -27 -25 -27h-45q-13 0 -18.5 6t-5.5 21v1400q0 15 5.5 21t18.5 6h908q24 0 24 -27v-41q0 -17 -12 -32l-416 -527q27 4 84 4z" />
    <glyph glyph-name="uni00DF" unicode="&#x1e9e;" horiz-adv-x="1374" 
d="M813 831q216 0 323 -100t107 -321q0 -217 -119.5 -321.5t-365.5 -104.5q-90 0 -161 10t-153 43q-26 0 -26 26v41q0 10 7.5 17t18.5 6q60 -26 119.5 -38t91 -13.5t99.5 -1.5q206 0 297.5 81.5t91.5 262.5q0 170 -82.5 251t-255.5 81q-95 0 -166 -11q-12 -1 -19.5 6
t-7.5 19v37q0 17 13 33l417 532h-747v-1339q0 -27 -25 -27h-45q-13 0 -18.5 6t-5.5 21v1400q0 15 5.5 21t18.5 6h908q24 0 24 -27v-41q0 -17 -12 -32l-416 -527q27 4 84 4z" />
    <glyph glyph-name="divide" unicode="&#xf7;" horiz-adv-x="1273" 
d="M633 1016q-33 0 -45.5 11t-12.5 44v12q0 31 13 43.5t45 12.5h10q31 0 43 -12.5t12 -43.5v-12q0 -32 -12 -43.5t-43 -11.5h-10zM180 621q-24 0 -24 26v35q0 25 24 25h914q24 0 24 -25v-35q0 -26 -24 -26h-914zM633 195q-33 0 -45.5 11.5t-12.5 43.5v12q0 32 12.5 43.5
t45.5 11.5h10q31 0 43 -11.5t12 -43.5v-12q0 -31 -12 -43t-43 -12h-10z" />
    <glyph glyph-name="Ydieresis" unicode="&#xff;" horiz-adv-x="1331" 
d="M465 1640q-26 0 -36.5 10t-10.5 36v14q0 26 10.5 36.5t36.5 10.5h12q28 0 37.5 -10t9.5 -37v-14q0 -27 -9 -36.5t-38 -9.5h-12zM858 1640q-29 0 -39 9.5t-10 36.5v14q0 27 10 37t39 10h10q26 0 36.5 -10.5t10.5 -36.5v-14q0 -26 -10.5 -36t-36.5 -10h-10zM643 0
q-25 0 -25 27v573l-552 827q-6 11 -2.5 19t16.5 8h53q24 0 32 -3.5t17 -18.5l486 -736l485 736q9 15 17 18.5t32 3.5h51q13 0 17 -8t-2 -19l-555 -831v-569q0 -27 -25 -27h-45z" />
    <glyph glyph-name="Ydieresis" unicode="&#x178;" horiz-adv-x="1331" 
d="M465 1640q-26 0 -36.5 10t-10.5 36v14q0 26 10.5 36.5t36.5 10.5h12q28 0 37.5 -10t9.5 -37v-14q0 -27 -9 -36.5t-38 -9.5h-12zM858 1640q-29 0 -39 9.5t-10 36.5v14q0 27 10 37t39 10h10q26 0 36.5 -10.5t10.5 -36.5v-14q0 -26 -10.5 -36t-36.5 -10h-10zM643 0
q-25 0 -25 27v573l-552 827q-6 11 -2.5 19t16.5 8h53q24 0 32 -3.5t17 -18.5l486 -736l485 736q9 15 17 18.5t32 3.5h51q13 0 17 -8t-2 -19l-555 -831v-569q0 -27 -25 -27h-45z" />
    <glyph glyph-name="Amacron" unicode="&#x100;" horiz-adv-x="1359" 
d="M436 1651q-13 0 -17.5 5t-4.5 19v21q0 13 5 17.5t17 4.5h488q12 0 17 -4.5t5 -17.5v-21q0 -24 -22 -24h-488zM76 0q-30 0 -19 25l568 1415q8 24 34 24h39q27 0 35 -24l567 -1415q14 -25 -18 -25h-37q-23 0 -32.5 4.5t-14.5 18.5l-180 452h-680l-180 -452
q-6 -14 -15 -18.5t-32 -4.5h-35zM989 555l-291 725q-5 18 -9 37.5t-6.5 35.5t-2.5 17h-6q0 -2 -2 -17.5t-6 -34.5t-9 -36l-290 -727h622z" />
    <glyph glyph-name="Amacron" unicode="&#x101;" horiz-adv-x="1359" 
d="M436 1651q-13 0 -17.5 5t-4.5 19v21q0 13 5 17.5t17 4.5h488q12 0 17 -4.5t5 -17.5v-21q0 -24 -22 -24h-488zM76 0q-30 0 -19 25l568 1415q8 24 34 24h39q27 0 35 -24l567 -1415q14 -25 -18 -25h-37q-23 0 -32.5 4.5t-14.5 18.5l-180 452h-680l-180 -452
q-6 -14 -15 -18.5t-32 -4.5h-35zM989 555l-291 725q-5 18 -9 37.5t-6.5 35.5t-2.5 17h-6q0 -2 -2 -17.5t-6 -34.5t-9 -36l-290 -727h622z" />
    <glyph glyph-name="Abreve" unicode="&#x102;" horiz-adv-x="1359" 
d="M680 1565q-244 0 -307 229q-6 17 10 23l35 12q19 5 24 -10q26 -95 83.5 -140t154.5 -45q96 0 154 45t84 140q5 15 22 10l35 -12q18 -6 12 -23q-34 -117 -109 -173t-198 -56zM76 0q-30 0 -19 25l568 1415q8 24 34 24h39q27 0 35 -24l567 -1415q14 -25 -18 -25h-37
q-23 0 -32.5 4.5t-14.5 18.5l-180 452h-680l-180 -452q-6 -14 -15 -18.5t-32 -4.5h-35zM989 555l-291 725q-5 18 -9 37.5t-6.5 35.5t-2.5 17h-6q0 -2 -2 -17.5t-6 -34.5t-9 -36l-290 -727h622z" />
    <glyph glyph-name="Abreve" unicode="&#x103;" horiz-adv-x="1359" 
d="M680 1565q-244 0 -307 229q-6 17 10 23l35 12q19 5 24 -10q26 -95 83.5 -140t154.5 -45q96 0 154 45t84 140q5 15 22 10l35 -12q18 -6 12 -23q-34 -117 -109 -173t-198 -56zM76 0q-30 0 -19 25l568 1415q8 24 34 24h39q27 0 35 -24l567 -1415q14 -25 -18 -25h-37
q-23 0 -32.5 4.5t-14.5 18.5l-180 452h-680l-180 -452q-6 -14 -15 -18.5t-32 -4.5h-35zM989 555l-291 725q-5 18 -9 37.5t-6.5 35.5t-2.5 17h-6q0 -2 -2 -17.5t-6 -34.5t-9 -36l-290 -727h622z" />
    <glyph glyph-name="Aogonek" unicode="&#x104;" horiz-adv-x="1357" 
d="M1149 -506q-50 0 -90 25.5t-53 70.5q-29 85 29.5 200t193.5 220q-17 0 -23.5 5.5t-11.5 19.5l-176 440h-680l-180 -452q-5 -14 -14.5 -18.5t-32.5 -4.5h-35q-30 0 -19 25l568 1415q8 24 34 24h41q27 0 35 -24l563 -1409q10 -19 -2 -31q-118 -93 -177.5 -200t-35.5 -171
q10 -31 35 -48t53 -17q83 0 134 57q12 9 18 -4l10 -31q5 -11 -4 -20q-72 -72 -180 -72zM989 555l-172 442q-26 67 -70 192.5t-65 176.5h-6q-22 -54 -66.5 -182t-66.5 -187l-176 -442h622z" />
    <glyph glyph-name="Aogonek" unicode="&#x105;" horiz-adv-x="1357" 
d="M1149 -506q-50 0 -90 25.5t-53 70.5q-29 85 29.5 200t193.5 220q-17 0 -23.5 5.5t-11.5 19.5l-176 440h-680l-180 -452q-5 -14 -14.5 -18.5t-32.5 -4.5h-35q-30 0 -19 25l568 1415q8 24 34 24h41q27 0 35 -24l563 -1409q10 -19 -2 -31q-118 -93 -177.5 -200t-35.5 -171
q10 -31 35 -48t53 -17q83 0 134 57q12 9 18 -4l10 -31q5 -11 -4 -20q-72 -72 -180 -72zM989 555l-172 442q-26 67 -70 192.5t-65 176.5h-6q-22 -54 -66.5 -182t-66.5 -187l-176 -442h622z" />
    <glyph glyph-name="Cacute" unicode="&#x106;" horiz-adv-x="1361" 
d="M551 1567q-23 -8 -33 2l-14 16q-14 19 4 29l346 219q31 15 45 -4l21 -23q16 -19 -5 -30zM709 -29q-264 0 -408.5 134.5t-144.5 371.5v502q0 237 142.5 370.5t410.5 133.5q230 0 356.5 -88.5t179.5 -268.5q5 -15 1.5 -21.5t-17.5 -12.5l-39 -13q-13 -4 -21 -0.5t-14 17.5
q-45 156 -148.5 227.5t-297.5 71.5q-224 0 -340.5 -109.5t-116.5 -304.5v-506q0 -195 118 -305.5t339 -110.5q197 0 300.5 75.5t151.5 234.5q8 24 33 16l39 -14q26 -9 18 -35q-55 -182 -181 -273.5t-361 -91.5z" />
    <glyph glyph-name="Cacute" unicode="&#x107;" horiz-adv-x="1361" 
d="M551 1567q-23 -8 -33 2l-14 16q-14 19 4 29l346 219q31 15 45 -4l21 -23q16 -19 -5 -30zM709 -29q-264 0 -408.5 134.5t-144.5 371.5v502q0 237 142.5 370.5t410.5 133.5q230 0 356.5 -88.5t179.5 -268.5q5 -15 1.5 -21.5t-17.5 -12.5l-39 -13q-13 -4 -21 -0.5t-14 17.5
q-45 156 -148.5 227.5t-297.5 71.5q-224 0 -340.5 -109.5t-116.5 -304.5v-506q0 -195 118 -305.5t339 -110.5q197 0 300.5 75.5t151.5 234.5q8 24 33 16l39 -14q26 -9 18 -35q-55 -182 -181 -273.5t-361 -91.5z" />
    <glyph glyph-name="Ccircumflex" unicode="&#x108;" horiz-adv-x="1361" 
d="M397 1565q-32 0 -12 20l272 230q17 17 24.5 20.5t25.5 3.5h12q15 0 22.5 -3.5t24.5 -20.5l272 -230q20 -20 -12 -20h-39q-27 0 -41 14l-235 195l-236 -195q-16 -14 -41 -14h-37zM709 -29q-264 0 -408.5 134.5t-144.5 371.5v502q0 237 142.5 370.5t410.5 133.5
q230 0 356.5 -88.5t179.5 -268.5q5 -15 1.5 -21.5t-17.5 -12.5l-39 -13q-13 -4 -21 -0.5t-14 17.5q-45 156 -148.5 227.5t-297.5 71.5q-224 0 -340.5 -109.5t-116.5 -304.5v-506q0 -195 118 -305.5t339 -110.5q197 0 300.5 75.5t151.5 234.5q8 24 33 16l39 -14q26 -9 18 -35
q-55 -182 -181 -273.5t-361 -91.5z" />
    <glyph glyph-name="Ccircumflex" unicode="&#x109;" horiz-adv-x="1361" 
d="M397 1565q-32 0 -12 20l272 230q17 17 24.5 20.5t25.5 3.5h12q15 0 22.5 -3.5t24.5 -20.5l272 -230q20 -20 -12 -20h-39q-27 0 -41 14l-235 195l-236 -195q-16 -14 -41 -14h-37zM709 -29q-264 0 -408.5 134.5t-144.5 371.5v502q0 237 142.5 370.5t410.5 133.5
q230 0 356.5 -88.5t179.5 -268.5q5 -15 1.5 -21.5t-17.5 -12.5l-39 -13q-13 -4 -21 -0.5t-14 17.5q-45 156 -148.5 227.5t-297.5 71.5q-224 0 -340.5 -109.5t-116.5 -304.5v-506q0 -195 118 -305.5t339 -110.5q197 0 300.5 75.5t151.5 234.5q8 24 33 16l39 -14q26 -9 18 -35
q-55 -182 -181 -273.5t-361 -91.5z" />
    <glyph glyph-name="Cdotaccent" unicode="&#x10a;" horiz-adv-x="1361" 
d="M705 1630q-28 0 -38 10t-10 39v11q0 29 10 39t38 10h10q28 0 38.5 -10t10.5 -39v-11q0 -28 -10.5 -38.5t-38.5 -10.5h-10zM709 -29q-264 0 -408.5 134.5t-144.5 371.5v502q0 237 142.5 370.5t410.5 133.5q230 0 356.5 -88.5t179.5 -268.5q5 -15 1.5 -21.5t-17.5 -12.5
l-39 -13q-13 -4 -21 -0.5t-14 17.5q-45 156 -148.5 227.5t-297.5 71.5q-224 0 -340.5 -109.5t-116.5 -304.5v-506q0 -195 118 -305.5t339 -110.5q197 0 300.5 75.5t151.5 234.5q8 24 33 16l39 -14q26 -9 18 -35q-55 -182 -181 -273.5t-361 -91.5z" />
    <glyph glyph-name="Cdotaccent" unicode="&#x10b;" horiz-adv-x="1361" 
d="M705 1630q-28 0 -38 10t-10 39v11q0 29 10 39t38 10h10q28 0 38.5 -10t10.5 -39v-11q0 -28 -10.5 -38.5t-38.5 -10.5h-10zM709 -29q-264 0 -408.5 134.5t-144.5 371.5v502q0 237 142.5 370.5t410.5 133.5q230 0 356.5 -88.5t179.5 -268.5q5 -15 1.5 -21.5t-17.5 -12.5
l-39 -13q-13 -4 -21 -0.5t-14 17.5q-45 156 -148.5 227.5t-297.5 71.5q-224 0 -340.5 -109.5t-116.5 -304.5v-506q0 -195 118 -305.5t339 -110.5q197 0 300.5 75.5t151.5 234.5q8 24 33 16l39 -14q26 -9 18 -35q-55 -182 -181 -273.5t-361 -91.5z" />
    <glyph glyph-name="Ccaron" unicode="&#x10c;" horiz-adv-x="1361" 
d="M705 1565q-18 0 -25.5 3.5t-24.5 20.5l-270 228q-9 6 -7.5 14t17.5 8h37q25 0 41 -14l236 -195l235 195q14 14 41 14h39q16 0 17.5 -7.5t-7.5 -14.5l-270 -228q-17 -17 -24.5 -20.5t-22.5 -3.5h-12zM709 -29q-264 0 -408.5 134.5t-144.5 371.5v502q0 237 142.5 370.5
t410.5 133.5q230 0 356.5 -88.5t179.5 -268.5q5 -15 1.5 -21.5t-17.5 -12.5l-39 -13q-13 -4 -21 -0.5t-14 17.5q-45 156 -148.5 227.5t-297.5 71.5q-224 0 -340.5 -109.5t-116.5 -304.5v-506q0 -195 118 -305.5t339 -110.5q197 0 300.5 75.5t151.5 234.5q8 24 33 16l39 -14
q26 -9 18 -35q-55 -182 -181 -273.5t-361 -91.5z" />
    <glyph glyph-name="Ccaron" unicode="&#x10d;" horiz-adv-x="1361" 
d="M705 1565q-18 0 -25.5 3.5t-24.5 20.5l-270 228q-9 6 -7.5 14t17.5 8h37q25 0 41 -14l236 -195l235 195q14 14 41 14h39q16 0 17.5 -7.5t-7.5 -14.5l-270 -228q-17 -17 -24.5 -20.5t-22.5 -3.5h-12zM709 -29q-264 0 -408.5 134.5t-144.5 371.5v502q0 237 142.5 370.5
t410.5 133.5q230 0 356.5 -88.5t179.5 -268.5q5 -15 1.5 -21.5t-17.5 -12.5l-39 -13q-13 -4 -21 -0.5t-14 17.5q-45 156 -148.5 227.5t-297.5 71.5q-224 0 -340.5 -109.5t-116.5 -304.5v-506q0 -195 118 -305.5t339 -110.5q197 0 300.5 75.5t151.5 234.5q8 24 33 16l39 -14
q26 -9 18 -35q-55 -182 -181 -273.5t-361 -91.5z" />
    <glyph glyph-name="Dcaron" unicode="&#x10e;" horiz-adv-x="1386" 
d="M657 1565q-17 0 -24.5 3.5t-24.5 20.5l-270 228q-9 6 -7.5 14t17.5 8h37q25 0 41 -14l236 -195l235 195q14 14 41 14h39q16 0 17.5 -7.5t-7.5 -14.5l-270 -228q-17 -17 -24.5 -20.5t-22.5 -3.5h-13zM225 0q-13 0 -18.5 6t-5.5 21v1400q0 15 5.5 21t18.5 6h420
q283 0 438.5 -144t155.5 -397v-372q0 -253 -155.5 -397t-438.5 -144h-420zM645 88q240 0 370 119t130 334v372q0 215 -129.5 334t-370.5 119h-350v-1278h350z" />
    <glyph glyph-name="Dcaron" unicode="&#x10f;" horiz-adv-x="1386" 
d="M657 1565q-17 0 -24.5 3.5t-24.5 20.5l-270 228q-9 6 -7.5 14t17.5 8h37q25 0 41 -14l236 -195l235 195q14 14 41 14h39q16 0 17.5 -7.5t-7.5 -14.5l-270 -228q-17 -17 -24.5 -20.5t-22.5 -3.5h-13zM225 0q-13 0 -18.5 6t-5.5 21v1400q0 15 5.5 21t18.5 6h420
q283 0 438.5 -144t155.5 -397v-372q0 -253 -155.5 -397t-438.5 -144h-420zM645 88q240 0 370 119t130 334v372q0 215 -129.5 334t-370.5 119h-350v-1278h350z" />
    <glyph glyph-name="Dcroat" unicode="&#x110;" horiz-adv-x="1406" 
d="M246 0q-15 0 -21 6t-6 21v671h-164q-12 0 -16 4.5t-4 16.5v26q0 12 4 16.5t16 4.5h164v661q0 15 6 21t21 6h418q283 0 438 -144t155 -397v-372q0 -253 -155 -397t-438 -144h-418zM666 88q238 0 367.5 119t129.5 334v372q0 215 -128.5 334t-368.5 119h-353v-600h394
q10 0 14 -4.5t4 -16.5v-26q0 -12 -4 -16.5t-14 -4.5h-394v-610h353z" />
    <glyph glyph-name="Dcroat" unicode="&#x111;" horiz-adv-x="1406" 
d="M246 0q-15 0 -21 6t-6 21v671h-164q-12 0 -16 4.5t-4 16.5v26q0 12 4 16.5t16 4.5h164v661q0 15 6 21t21 6h418q283 0 438 -144t155 -397v-372q0 -253 -155 -397t-438 -144h-418zM666 88q238 0 367.5 119t129.5 334v372q0 215 -128.5 334t-368.5 119h-353v-600h394
q10 0 14 -4.5t4 -16.5v-26q0 -12 -4 -16.5t-14 -4.5h-394v-610h353z" />
    <glyph glyph-name="Emacron" unicode="&#x112;" horiz-adv-x="1230" 
d="M401 1651q-13 0 -17.5 5t-4.5 19v21q0 13 5 17.5t17 4.5h488q12 0 17 -4.5t5 -17.5v-21q0 -24 -22 -24h-488zM225 0q-13 0 -18.5 6t-5.5 21v1400q0 15 5.5 21t18.5 6h838q27 0 27 -27v-36q0 -25 -27 -25h-768v-584h678q26 0 26 -26v-37q0 -15 -5.5 -21t-20.5 -6h-678
v-604h797q24 0 24 -25v-36q0 -15 -5.5 -21t-18.5 -6h-867z" />
    <glyph glyph-name="Emacron" unicode="&#x113;" horiz-adv-x="1230" 
d="M401 1651q-13 0 -17.5 5t-4.5 19v21q0 13 5 17.5t17 4.5h488q12 0 17 -4.5t5 -17.5v-21q0 -24 -22 -24h-488zM225 0q-13 0 -18.5 6t-5.5 21v1400q0 15 5.5 21t18.5 6h838q27 0 27 -27v-36q0 -25 -27 -25h-768v-584h678q26 0 26 -26v-37q0 -15 -5.5 -21t-20.5 -6h-678
v-604h797q24 0 24 -25v-36q0 -15 -5.5 -21t-18.5 -6h-867z" />
    <glyph glyph-name="Ebreve" unicode="&#x114;" horiz-adv-x="1230" 
d="M645 1565q-244 0 -307 229q-6 17 10 23l35 12q20 6 25 -10q26 -95 83 -140t154 -45q96 0 154 45t84 140q5 15 22 10l35 -12q18 -6 12 -23q-34 -117 -109 -173t-198 -56zM225 0q-13 0 -18.5 6t-5.5 21v1400q0 15 5.5 21t18.5 6h838q27 0 27 -27v-36q0 -25 -27 -25h-768
v-584h678q26 0 26 -26v-37q0 -15 -5.5 -21t-20.5 -6h-678v-604h797q24 0 24 -25v-36q0 -15 -5.5 -21t-18.5 -6h-867z" />
    <glyph glyph-name="Ebreve" unicode="&#x115;" horiz-adv-x="1230" 
d="M645 1565q-244 0 -307 229q-6 17 10 23l35 12q20 6 25 -10q26 -95 83 -140t154 -45q96 0 154 45t84 140q5 15 22 10l35 -12q18 -6 12 -23q-34 -117 -109 -173t-198 -56zM225 0q-13 0 -18.5 6t-5.5 21v1400q0 15 5.5 21t18.5 6h838q27 0 27 -27v-36q0 -25 -27 -25h-768
v-584h678q26 0 26 -26v-37q0 -15 -5.5 -21t-20.5 -6h-678v-604h797q24 0 24 -25v-36q0 -15 -5.5 -21t-18.5 -6h-867z" />
    <glyph glyph-name="Edotaccent" unicode="&#x116;" horiz-adv-x="1230" 
d="M639 1630q-28 0 -37.5 10t-9.5 39v11q0 29 9.5 39t37.5 10h10q28 0 38.5 -10t10.5 -39v-11q0 -28 -10.5 -38.5t-38.5 -10.5h-10zM225 0q-13 0 -18.5 6t-5.5 21v1400q0 15 5.5 21t18.5 6h838q27 0 27 -27v-36q0 -25 -27 -25h-768v-584h678q26 0 26 -26v-37q0 -15 -5.5 -21
t-20.5 -6h-678v-604h797q24 0 24 -25v-36q0 -15 -5.5 -21t-18.5 -6h-867z" />
    <glyph glyph-name="Edotaccent" unicode="&#x117;" horiz-adv-x="1230" 
d="M639 1630q-28 0 -37.5 10t-9.5 39v11q0 29 9.5 39t37.5 10h10q28 0 38.5 -10t10.5 -39v-11q0 -28 -10.5 -38.5t-38.5 -10.5h-10zM225 0q-13 0 -18.5 6t-5.5 21v1400q0 15 5.5 21t18.5 6h838q27 0 27 -27v-36q0 -25 -27 -25h-768v-584h678q26 0 26 -26v-37q0 -15 -5.5 -21
t-20.5 -6h-678v-604h797q24 0 24 -25v-36q0 -15 -5.5 -21t-18.5 -6h-867z" />
    <glyph glyph-name="Eogonek" unicode="&#x118;" horiz-adv-x="1230" 
d="M942 -506q-112 0 -145 98q-28 84 32.5 194t198.5 214h-803q-13 0 -18.5 6t-5.5 21v1400q0 15 5.5 21t18.5 6h838q27 0 27 -27v-36q0 -25 -27 -25h-768v-586h678q15 0 20.5 -5.5t5.5 -20.5v-37q0 -14 -5.5 -19.5t-20.5 -5.5h-678v-604h797q24 0 24 -25v-36q0 -15 -8 -23
q-130 -103 -193 -205.5t-38 -171.5q20 -61 92 -61q76 0 127 57q13 7 16 -6l12 -29q5 -11 -4 -20q-77 -74 -178 -74z" />
    <glyph glyph-name="Eogonek" unicode="&#x119;" horiz-adv-x="1230" 
d="M942 -506q-112 0 -145 98q-28 84 32.5 194t198.5 214h-803q-13 0 -18.5 6t-5.5 21v1400q0 15 5.5 21t18.5 6h838q27 0 27 -27v-36q0 -25 -27 -25h-768v-586h678q15 0 20.5 -5.5t5.5 -20.5v-37q0 -14 -5.5 -19.5t-20.5 -5.5h-678v-604h797q24 0 24 -25v-36q0 -15 -8 -23
q-130 -103 -193 -205.5t-38 -171.5q20 -61 92 -61q76 0 127 57q13 7 16 -6l12 -29q5 -11 -4 -20q-77 -74 -178 -74z" />
    <glyph glyph-name="Ecaron" unicode="&#x11a;" horiz-adv-x="1230" 
d="M639 1565q-17 0 -24.5 3.5t-24.5 20.5l-271 228q-9 6 -7 14t18 8h37q25 0 41 -14l235 -195l236 195q14 14 41 14h38q16 0 18 -7.5t-7 -14.5l-271 -228q-17 -17 -24.5 -20.5t-22.5 -3.5h-12zM225 0q-13 0 -18.5 6t-5.5 21v1400q0 15 5.5 21t18.5 6h838q27 0 27 -27v-36
q0 -25 -27 -25h-768v-584h678q26 0 26 -26v-37q0 -15 -5.5 -21t-20.5 -6h-678v-604h797q24 0 24 -25v-36q0 -15 -5.5 -21t-18.5 -6h-867z" />
    <glyph glyph-name="Ecaron" unicode="&#x11b;" horiz-adv-x="1230" 
d="M639 1565q-17 0 -24.5 3.5t-24.5 20.5l-271 228q-9 6 -7 14t18 8h37q25 0 41 -14l235 -195l236 195q14 14 41 14h38q16 0 18 -7.5t-7 -14.5l-271 -228q-17 -17 -24.5 -20.5t-22.5 -3.5h-12zM225 0q-13 0 -18.5 6t-5.5 21v1400q0 15 5.5 21t18.5 6h838q27 0 27 -27v-36
q0 -25 -27 -25h-768v-584h678q26 0 26 -26v-37q0 -15 -5.5 -21t-20.5 -6h-678v-604h797q24 0 24 -25v-36q0 -15 -5.5 -21t-18.5 -6h-867z" />
    <glyph glyph-name="Gcircumflex" unicode="&#x11c;" horiz-adv-x="1398" 
d="M393 1585q-16 0 -18.5 6.5t6.5 14.5l272 229q17 17 24.5 21t24.5 4h13q15 0 22.5 -4t24.5 -21l272 -229q9 -8 6.5 -14.5t-18.5 -6.5h-39q-27 0 -41 14l-235 195l-236 -195q-16 -14 -41 -14h-37zM709 -29q-267 0 -410 135t-143 373v500q0 237 142.5 370.5t410.5 133.5
q230 0 356.5 -88.5t179.5 -268.5q5 -15 1.5 -21.5t-17.5 -12.5l-39 -13q-13 -5 -21 -1.5t-14 18.5q-45 156 -148.5 227.5t-297.5 71.5q-225 0 -341 -109t-116 -305v-502q0 -199 117.5 -309.5t339.5 -110.5q219 0 337.5 108.5t118.5 297.5v178h-438q-25 0 -25 27v37
q0 26 25 26h506q27 0 27 -28v-240q0 -228 -143.5 -361t-407.5 -133z" />
    <glyph glyph-name="Gcircumflex" unicode="&#x11d;" horiz-adv-x="1398" 
d="M393 1585q-16 0 -18.5 6.5t6.5 14.5l272 229q17 17 24.5 21t24.5 4h13q15 0 22.5 -4t24.5 -21l272 -229q9 -8 6.5 -14.5t-18.5 -6.5h-39q-27 0 -41 14l-235 195l-236 -195q-16 -14 -41 -14h-37zM709 -29q-267 0 -410 135t-143 373v500q0 237 142.5 370.5t410.5 133.5
q230 0 356.5 -88.5t179.5 -268.5q5 -15 1.5 -21.5t-17.5 -12.5l-39 -13q-13 -5 -21 -1.5t-14 18.5q-45 156 -148.5 227.5t-297.5 71.5q-225 0 -341 -109t-116 -305v-502q0 -199 117.5 -309.5t339.5 -110.5q219 0 337.5 108.5t118.5 297.5v178h-438q-25 0 -25 27v37
q0 26 25 26h506q27 0 27 -28v-240q0 -228 -143.5 -361t-407.5 -133z" />
    <glyph glyph-name="Gbreve" unicode="&#x11e;" horiz-adv-x="1398" 
d="M709 1585q-245 0 -308 230q-5 16 11 22l34 12q20 6 25 -10q26 -95 83.5 -139.5t154.5 -44.5q96 0 153.5 44.5t83.5 139.5q5 15 23 10l35 -12q17 -6 12 -22q-34 -117 -109 -173.5t-198 -56.5zM709 -29q-267 0 -410 135t-143 373v500q0 237 142.5 370.5t410.5 133.5
q230 0 356.5 -88.5t179.5 -268.5q5 -15 1.5 -21.5t-17.5 -12.5l-39 -13q-13 -5 -21 -1.5t-14 18.5q-45 156 -148.5 227.5t-297.5 71.5q-225 0 -341 -109t-116 -305v-502q0 -199 117.5 -309.5t339.5 -110.5q219 0 337.5 108.5t118.5 297.5v178h-438q-25 0 -25 27v37
q0 26 25 26h506q27 0 27 -28v-240q0 -228 -143.5 -361t-407.5 -133z" />
    <glyph glyph-name="Gbreve" unicode="&#x11f;" horiz-adv-x="1398" 
d="M709 1585q-245 0 -308 230q-5 16 11 22l34 12q20 6 25 -10q26 -95 83.5 -139.5t154.5 -44.5q96 0 153.5 44.5t83.5 139.5q5 15 23 10l35 -12q17 -6 12 -22q-34 -117 -109 -173.5t-198 -56.5zM709 -29q-267 0 -410 135t-143 373v500q0 237 142.5 370.5t410.5 133.5
q230 0 356.5 -88.5t179.5 -268.5q5 -15 1.5 -21.5t-17.5 -12.5l-39 -13q-13 -5 -21 -1.5t-14 18.5q-45 156 -148.5 227.5t-297.5 71.5q-225 0 -341 -109t-116 -305v-502q0 -199 117.5 -309.5t339.5 -110.5q219 0 337.5 108.5t118.5 297.5v178h-438q-25 0 -25 27v37
q0 26 25 26h506q27 0 27 -28v-240q0 -228 -143.5 -361t-407.5 -133z" />
    <glyph glyph-name="Gdotaccent" unicode="&#x120;" horiz-adv-x="1398" 
d="M702 1651q-28 0 -37.5 10t-9.5 39v10q0 29 9.5 39t37.5 10h11q28 0 38.5 -10t10.5 -39v-10q0 -28 -10.5 -38.5t-38.5 -10.5h-11zM709 -29q-267 0 -410 135t-143 373v500q0 237 142.5 370.5t410.5 133.5q230 0 356.5 -88.5t179.5 -268.5q5 -15 1.5 -21.5t-17.5 -12.5
l-39 -13q-13 -5 -21 -1.5t-14 18.5q-45 156 -148.5 227.5t-297.5 71.5q-225 0 -341 -109t-116 -305v-502q0 -199 117.5 -309.5t339.5 -110.5q219 0 337.5 108.5t118.5 297.5v178h-438q-25 0 -25 27v37q0 26 25 26h506q27 0 27 -28v-240q0 -228 -143.5 -361t-407.5 -133z" />
    <glyph glyph-name="Gdotaccent" unicode="&#x121;" horiz-adv-x="1398" 
d="M702 1651q-28 0 -37.5 10t-9.5 39v10q0 29 9.5 39t37.5 10h11q28 0 38.5 -10t10.5 -39v-10q0 -28 -10.5 -38.5t-38.5 -10.5h-11zM709 -29q-267 0 -410 135t-143 373v500q0 237 142.5 370.5t410.5 133.5q230 0 356.5 -88.5t179.5 -268.5q5 -15 1.5 -21.5t-17.5 -12.5
l-39 -13q-13 -5 -21 -1.5t-14 18.5q-45 156 -148.5 227.5t-297.5 71.5q-225 0 -341 -109t-116 -305v-502q0 -199 117.5 -309.5t339.5 -110.5q219 0 337.5 108.5t118.5 297.5v178h-438q-25 0 -25 27v37q0 26 25 26h506q27 0 27 -28v-240q0 -228 -143.5 -361t-407.5 -133z" />
    <glyph glyph-name="uni0122" unicode="&#x122;" horiz-adv-x="1398" 
d="M709 -29q-267 0 -410 135t-143 373v500q0 237 142.5 370.5t410.5 133.5q230 0 356.5 -88.5t179.5 -268.5q5 -15 1.5 -21.5t-17.5 -12.5l-39 -13q-13 -5 -21 -1.5t-14 18.5q-45 156 -148.5 227.5t-297.5 71.5q-225 0 -341 -109t-116 -305v-502q0 -199 117.5 -309.5
t339.5 -110.5q219 0 337.5 108.5t118.5 297.5v178h-438q-25 0 -25 27v37q0 26 25 26h506q27 0 27 -28v-240q0 -228 -143.5 -361t-407.5 -133zM641 -504q-21 0 -18 21l82 299q1 14 7.5 19t22.5 5h37q32 0 23 -26l-97 -293q-8 -25 -30 -25h-27z" />
    <glyph glyph-name="uni0122" unicode="&#x123;" horiz-adv-x="1398" 
d="M709 -29q-267 0 -410 135t-143 373v500q0 237 142.5 370.5t410.5 133.5q230 0 356.5 -88.5t179.5 -268.5q5 -15 1.5 -21.5t-17.5 -12.5l-39 -13q-13 -5 -21 -1.5t-14 18.5q-45 156 -148.5 227.5t-297.5 71.5q-225 0 -341 -109t-116 -305v-502q0 -199 117.5 -309.5
t339.5 -110.5q219 0 337.5 108.5t118.5 297.5v178h-438q-25 0 -25 27v37q0 26 25 26h506q27 0 27 -28v-240q0 -228 -143.5 -361t-407.5 -133zM641 -504q-21 0 -18 21l82 299q1 14 7.5 19t22.5 5h37q32 0 23 -26l-97 -293q-8 -25 -30 -25h-27z" />
    <glyph glyph-name="Hcircumflex" unicode="&#x124;" horiz-adv-x="1454" 
d="M414 1565q-16 0 -19 6.5t6 13.5l273 230q17 17 24.5 20.5t24.5 3.5h12q15 0 22.5 -3.5t24.5 -20.5l273 -230q9 -7 6 -13.5t-19 -6.5h-38q-27 0 -41 14l-236 195l-235 -195q-16 -14 -41 -14h-37zM225 0q-13 0 -18.5 6t-5.5 21v1400q0 15 5.5 21t18.5 6h45q25 0 25 -27
v-645h864v645q0 15 6 21t21 6h43q26 0 26 -27v-1400q0 -27 -26 -27h-43q-15 0 -21 6t-6 21v665h-864v-665q0 -27 -25 -27h-45z" />
    <glyph glyph-name="Hcircumflex" unicode="&#x125;" horiz-adv-x="1454" 
d="M414 1565q-16 0 -19 6.5t6 13.5l273 230q17 17 24.5 20.5t24.5 3.5h12q15 0 22.5 -3.5t24.5 -20.5l273 -230q9 -7 6 -13.5t-19 -6.5h-38q-27 0 -41 14l-236 195l-235 -195q-16 -14 -41 -14h-37zM225 0q-13 0 -18.5 6t-5.5 21v1400q0 15 5.5 21t18.5 6h45q25 0 25 -27
v-645h864v645q0 15 6 21t21 6h43q26 0 26 -27v-1400q0 -27 -26 -27h-43q-15 0 -21 6t-6 21v665h-864v-665q0 -27 -25 -27h-45z" />
    <glyph glyph-name="Hbar" unicode="&#x126;" horiz-adv-x="1468" 
d="M231 0q-13 0 -18.5 6t-5.5 21v1106h-137q-11 0 -15 4.5t-4 17.5v21q0 20 19 20h137v231q0 15 5.5 21t18.5 6h45q25 0 25 -27v-231h864v231q0 15 6 21t21 6h43q15 0 21 -6t6 -21v-231h137q12 0 16 -4t4 -16v-21q0 -13 -4 -17.5t-16 -4.5h-137v-1106q0 -15 -6 -21t-21 -6
h-43q-15 0 -21 6t-6 21v665h-864v-665q0 -27 -25 -27h-45zM1165 782v351h-864v-351h864z" />
    <glyph glyph-name="Hbar" unicode="&#x127;" horiz-adv-x="1468" 
d="M231 0q-13 0 -18.5 6t-5.5 21v1106h-137q-11 0 -15 4.5t-4 17.5v21q0 20 19 20h137v231q0 15 5.5 21t18.5 6h45q25 0 25 -27v-231h864v231q0 15 6 21t21 6h43q15 0 21 -6t6 -21v-231h137q12 0 16 -4t4 -16v-21q0 -13 -4 -17.5t-16 -4.5h-137v-1106q0 -15 -6 -21t-21 -6
h-43q-15 0 -21 6t-6 21v665h-864v-665q0 -27 -25 -27h-45zM1165 782v351h-864v-351h864z" />
    <glyph glyph-name="Itilde" unicode="&#x128;" horiz-adv-x="495" 
d="M-55 1583q-17 0 -17 16q0 93 39.5 143t114.5 50q41 0 78.5 -15t65 -37t54 -43.5t57.5 -36.5t64 -15q49 0 74 35t25 96q0 9 3 12.5t13 3.5h27q16 0 16 -16q0 -193 -151 -193q-40 0 -76.5 15t-64.5 37t-55 44t-59 37t-65 15q-46 0 -72 -36t-26 -96q0 -16 -17 -16h-28z
M225 0q-13 0 -18.5 6t-5.5 21v1400q0 15 5.5 21t18.5 6h45q25 0 25 -27v-1400q0 -27 -25 -27h-45z" />
    <glyph glyph-name="Itilde" unicode="&#x129;" horiz-adv-x="495" 
d="M-55 1583q-17 0 -17 16q0 93 39.5 143t114.5 50q41 0 78.5 -15t65 -37t54 -43.5t57.5 -36.5t64 -15q49 0 74 35t25 96q0 9 3 12.5t13 3.5h27q16 0 16 -16q0 -193 -151 -193q-40 0 -76.5 15t-64.5 37t-55 44t-59 37t-65 15q-46 0 -72 -36t-26 -96q0 -16 -17 -16h-28z
M225 0q-13 0 -18.5 6t-5.5 21v1400q0 15 5.5 21t18.5 6h45q25 0 25 -27v-1400q0 -27 -25 -27h-45z" />
    <glyph glyph-name="Imacron" unicode="&#x12a;" horiz-adv-x="495" 
d="M4 1651q-13 0 -17.5 5t-4.5 19v21q0 13 5 17.5t17 4.5h488q12 0 17 -4.5t5 -17.5v-21q0 -24 -22 -24h-488zM225 0q-13 0 -18.5 6t-5.5 21v1400q0 15 5.5 21t18.5 6h45q25 0 25 -27v-1400q0 -27 -25 -27h-45z" />
    <glyph glyph-name="Imacron" unicode="&#x12b;" horiz-adv-x="495" 
d="M4 1651q-13 0 -17.5 5t-4.5 19v21q0 13 5 17.5t17 4.5h488q12 0 17 -4.5t5 -17.5v-21q0 -24 -22 -24h-488zM225 0q-13 0 -18.5 6t-5.5 21v1400q0 15 5.5 21t18.5 6h45q25 0 25 -27v-1400q0 -27 -25 -27h-45z" />
    <glyph glyph-name="Ibreve" unicode="&#x12c;" horiz-adv-x="495" 
d="M248 1565q-244 0 -307 229q-6 17 10 23l35 12q19 5 24 -10q26 -95 83.5 -140t154.5 -45q95 0 153 45t84 140q5 15 23 10l35 -12q18 -6 12 -23q-34 -117 -109 -173t-198 -56zM225 0q-13 0 -18.5 6t-5.5 21v1400q0 15 5.5 21t18.5 6h45q25 0 25 -27v-1400q0 -27 -25 -27
h-45z" />
    <glyph glyph-name="Ibreve" unicode="&#x12d;" horiz-adv-x="495" 
d="M248 1565q-244 0 -307 229q-6 17 10 23l35 12q19 5 24 -10q26 -95 83.5 -140t154.5 -45q95 0 153 45t84 140q5 15 23 10l35 -12q18 -6 12 -23q-34 -117 -109 -173t-198 -56zM225 0q-13 0 -18.5 6t-5.5 21v1400q0 15 5.5 21t18.5 6h45q25 0 25 -27v-1400q0 -27 -25 -27
h-45z" />
    <glyph glyph-name="Iogonek" unicode="&#x12e;" horiz-adv-x="495" 
d="M233 -506q-114 0 -145 96q-52 153 135 412q-22 0 -22 25v1400q0 15 5.5 21t18.5 6h45q25 0 25 -27v-1400q0 -14 -6 -23q-172 -243 -121 -375q10 -32 35.5 -47.5t56.5 -15.5q75 0 129 57q12 8 17 -6l10 -29q5 -13 -2 -20q-77 -74 -181 -74z" />
    <glyph glyph-name="Iogonek" unicode="&#x12f;" horiz-adv-x="495" 
d="M233 -506q-114 0 -145 96q-52 153 135 412q-22 0 -22 25v1400q0 15 5.5 21t18.5 6h45q25 0 25 -27v-1400q0 -14 -6 -23q-172 -243 -121 -375q10 -32 35.5 -47.5t56.5 -15.5q75 0 129 57q12 8 17 -6l10 -29q5 -13 -2 -20q-77 -74 -181 -74z" />
    <glyph glyph-name="Idotaccent" unicode="&#x130;" horiz-adv-x="495" 
d="M242 1630q-28 0 -37.5 10t-9.5 39v11q0 29 9.5 39t37.5 10h10q28 0 38.5 -10t10.5 -39v-11q0 -28 -10.5 -38.5t-38.5 -10.5h-10zM225 0q-13 0 -18.5 6t-5.5 21v1400q0 15 5.5 21t18.5 6h45q25 0 25 -27v-1400q0 -27 -25 -27h-45z" />
    <glyph glyph-name="IJ" unicode="&#x132;" horiz-adv-x="1720" 
d="M225 0q-13 0 -18.5 6t-5.5 21v1400q0 15 5.5 21t18.5 6h45q25 0 25 -27v-1400q0 -27 -25 -27h-45zM1049 -31q-397 0 -476 404q-9 26 17 35l39 14q27 9 35 -16q32 -173 123 -260t262 -87q187 0 287 102t100 283v986q0 14 5.5 19t20.5 5h43q15 0 21 -5.5t6 -18.5v-986
q0 -221 -125.5 -348t-357.5 -127z" />
    <glyph glyph-name="IJ" unicode="&#x133;" horiz-adv-x="1720" 
d="M225 0q-13 0 -18.5 6t-5.5 21v1400q0 15 5.5 21t18.5 6h45q25 0 25 -27v-1400q0 -27 -25 -27h-45zM1049 -31q-397 0 -476 404q-9 26 17 35l39 14q27 9 35 -16q32 -173 123 -260t262 -87q187 0 287 102t100 283v986q0 14 5.5 19t20.5 5h43q15 0 21 -5.5t6 -18.5v-986
q0 -221 -125.5 -348t-357.5 -127z" />
    <glyph glyph-name="Jcircumflex" unicode="&#x134;" horiz-adv-x="1224" 
d="M674 1565q-32 0 -12 20l272 230q17 17 24.5 20.5t24.5 3.5h12q15 0 22.5 -3.5t24.5 -20.5l273 -230q20 -20 -12 -20h-39q-27 0 -41 14l-236 195l-235 -195q-16 -14 -41 -14h-37zM553 -31q-396 0 -475 404q-9 27 16 35l39 14q27 9 35 -16q32 -173 123 -260t262 -87
q187 0 287 102t100 283v986q0 13 6 18.5t21 5.5h43q15 0 20.5 -5t5.5 -19v-986q0 -221 -125.5 -348t-357.5 -127z" />
    <glyph glyph-name="Jcircumflex" unicode="&#x135;" horiz-adv-x="1224" 
d="M674 1565q-32 0 -12 20l272 230q17 17 24.5 20.5t24.5 3.5h12q15 0 22.5 -3.5t24.5 -20.5l273 -230q20 -20 -12 -20h-39q-27 0 -41 14l-236 195l-235 -195q-16 -14 -41 -14h-37zM553 -31q-396 0 -475 404q-9 27 16 35l39 14q27 9 35 -16q32 -173 123 -260t262 -87
q187 0 287 102t100 283v986q0 13 6 18.5t21 5.5h43q15 0 20.5 -5t5.5 -19v-986q0 -221 -125.5 -348t-357.5 -127z" />
    <glyph glyph-name="uni0136" unicode="&#x136;" horiz-adv-x="1292" 
d="M225 0q-13 0 -18.5 6t-5.5 21v1400q0 15 5.5 21t18.5 6h45q25 0 25 -27v-647h305l483 652q11 14 21 18t33 4h45q33 0 14 -27l-498 -665q92 -21 152.5 -75t107.5 -150l261 -510q6 -11 2 -19t-17 -8h-41q-24 0 -34.5 4.5t-18.5 18.5l-238 477q-37 71 -76 111.5t-97.5 61.5
t-143.5 21h-260v-667q0 -27 -25 -27h-45zM600 -504q-21 0 -18 21l82 299q1 14 7.5 19t22.5 5h37q32 0 23 -26l-97 -293q-8 -25 -30 -25h-27z" />
    <glyph glyph-name="uni0136" unicode="&#x137;" horiz-adv-x="1292" 
d="M225 0q-13 0 -18.5 6t-5.5 21v1400q0 15 5.5 21t18.5 6h45q25 0 25 -27v-647h305l483 652q11 14 21 18t33 4h45q33 0 14 -27l-498 -665q92 -21 152.5 -75t107.5 -150l261 -510q6 -11 2 -19t-17 -8h-41q-24 0 -34.5 4.5t-18.5 18.5l-238 477q-37 71 -76 111.5t-97.5 61.5
t-143.5 21h-260v-667q0 -27 -25 -27h-45zM600 -504q-21 0 -18 21l82 299q1 14 7.5 19t22.5 5h37q32 0 23 -26l-97 -293q-8 -25 -30 -25h-27z" />
    <glyph glyph-name="Lacute" unicode="&#x139;" horiz-adv-x="1124" 
d="M88 1567q-23 -8 -33 2l-14 16q-14 19 4 29l346 219q31 15 45 -4l21 -23q17 -20 -4 -30zM225 0q-13 0 -18.5 6t-5.5 21v1400q0 15 5.5 21t18.5 6h45q25 0 25 -27v-1339h745q25 0 25 -25v-36q0 -27 -25 -27h-815z" />
    <glyph glyph-name="Lacute" unicode="&#x13a;" horiz-adv-x="1124" 
d="M88 1567q-23 -8 -33 2l-14 16q-14 19 4 29l346 219q31 15 45 -4l21 -23q17 -20 -4 -30zM225 0q-13 0 -18.5 6t-5.5 21v1400q0 15 5.5 21t18.5 6h45q25 0 25 -27v-1339h745q25 0 25 -25v-36q0 -27 -25 -27h-815z" />
    <glyph glyph-name="uni013B" unicode="&#x13b;" horiz-adv-x="1124" 
d="M225 0q-13 0 -18.5 6t-5.5 21v1400q0 15 5.5 21t18.5 6h45q25 0 25 -27v-1339h745q25 0 25 -25v-36q0 -27 -25 -27h-815zM530 -504q-21 0 -18 21l82 299q1 14 8 19t23 5h37q31 0 22 -26l-96 -293q-8 -25 -31 -25h-27z" />
    <glyph glyph-name="uni013B" unicode="&#x13c;" horiz-adv-x="1124" 
d="M225 0q-13 0 -18.5 6t-5.5 21v1400q0 15 5.5 21t18.5 6h45q25 0 25 -27v-1339h745q25 0 25 -25v-36q0 -27 -25 -27h-815zM530 -504q-21 0 -18 21l82 299q1 14 8 19t23 5h37q31 0 22 -26l-96 -293q-8 -25 -31 -25h-27z" />
    <glyph glyph-name="Lcaron" unicode="&#x13d;" horiz-adv-x="1126" 
d="M291 0q-15 0 -21 6t-6 21v1400q0 15 6 21t21 6h43q13 0 18.5 -6t5.5 -21v-1339h746q26 0 26 -25v-36q0 -27 -26 -27h-813zM715 999q-20 0 -17 21l84 410q1 15 7.5 19.5t21.5 4.5h37q31 0 22 -27l-102 -403q-5 -14 -10.5 -19.5t-18.5 -5.5h-24z" />
    <glyph glyph-name="Lcaron" unicode="&#x13e;" horiz-adv-x="1126" 
d="M291 0q-15 0 -21 6t-6 21v1400q0 15 6 21t21 6h43q13 0 18.5 -6t5.5 -21v-1339h746q26 0 26 -25v-36q0 -27 -26 -27h-813zM715 999q-20 0 -17 21l84 410q1 15 7.5 19.5t21.5 4.5h37q31 0 22 -27l-102 -403q-5 -14 -10.5 -19.5t-18.5 -5.5h-24z" />
    <glyph glyph-name="Ldot" unicode="&#x13f;" horiz-adv-x="1126" 
d="M225 0q-13 0 -18.5 6t-5.5 21v1400q0 15 5.5 21t18.5 6h45q25 0 25 -27v-1339h745q25 0 25 -25v-36q0 -27 -25 -27h-815zM784 659q-36 0 -47.5 11.5t-11.5 48.5v10q0 35 12 47t47 12h11q34 0 46.5 -12t12.5 -47v-10q0 -35 -12.5 -47.5t-46.5 -12.5h-11z" />
    <glyph glyph-name="Ldot" unicode="&#x140;" horiz-adv-x="1126" 
d="M225 0q-13 0 -18.5 6t-5.5 21v1400q0 15 5.5 21t18.5 6h45q25 0 25 -27v-1339h745q25 0 25 -25v-36q0 -27 -25 -27h-815zM784 659q-36 0 -47.5 11.5t-11.5 48.5v10q0 35 12 47t47 12h11q34 0 46.5 -12t12.5 -47v-10q0 -35 -12.5 -47.5t-46.5 -12.5h-11z" />
    <glyph glyph-name="Lslash" unicode="&#x141;" horiz-adv-x="1177" 
d="M279 0q-15 0 -21 6t-6 21v583l-184 -90q-18 -9 -27 10l-14 29q-10 20 8 27l217 106v735q0 15 6 21t21 6h43q15 0 20.5 -6t5.5 -21v-692l481 234q19 10 31 -8l12 -29q9 -18 -8 -27l-516 -250v-567h744q15 0 20.5 -5.5t5.5 -19.5v-36q0 -15 -5.5 -21t-20.5 -6h-813z" />
    <glyph glyph-name="Lslash" unicode="&#x142;" horiz-adv-x="1177" 
d="M279 0q-15 0 -21 6t-6 21v583l-184 -90q-18 -9 -27 10l-14 29q-10 20 8 27l217 106v735q0 15 6 21t21 6h43q15 0 20.5 -6t5.5 -21v-692l481 234q19 10 31 -8l12 -29q9 -18 -8 -27l-516 -250v-567h744q15 0 20.5 -5.5t5.5 -19.5v-36q0 -15 -5.5 -21t-20.5 -6h-813z" />
    <glyph glyph-name="Nacute" unicode="&#x143;" horiz-adv-x="1472" 
d="M578 1567q-23 -8 -33 2l-15 16q-13 19 5 29l346 219q31 15 45 -4l20 -23q17 -20 -4 -30zM225 0q-13 0 -18.5 6t-5.5 21v1400q0 15 5.5 21t18.5 6h43q15 0 29 -14l707 -1010q40 -57 101.5 -158t84.5 -133h6q0 37 -7 163.5t-7 203.5v924q0 14 5 19t19 5h41q15 0 21 -6
t6 -21v-1400q0 -15 -6 -21t-21 -6h-41q-19 0 -30 16l-725 1037q-36 51 -91.5 145t-74.5 121h-4q0 -33 6 -150t6 -188v-954q0 -15 -6 -21t-21 -6h-41z" />
    <glyph glyph-name="Nacute" unicode="&#x144;" horiz-adv-x="1472" 
d="M578 1567q-23 -8 -33 2l-15 16q-13 19 5 29l346 219q31 15 45 -4l20 -23q17 -20 -4 -30zM225 0q-13 0 -18.5 6t-5.5 21v1400q0 15 5.5 21t18.5 6h43q15 0 29 -14l707 -1010q40 -57 101.5 -158t84.5 -133h6q0 37 -7 163.5t-7 203.5v924q0 14 5 19t19 5h41q15 0 21 -6
t6 -21v-1400q0 -15 -6 -21t-21 -6h-41q-19 0 -30 16l-725 1037q-36 51 -91.5 145t-74.5 121h-4q0 -33 6 -150t6 -188v-954q0 -15 -6 -21t-21 -6h-41z" />
    <glyph glyph-name="uni0145" unicode="&#x145;" horiz-adv-x="1472" 
d="M225 0q-13 0 -18.5 6t-5.5 21v1400q0 15 5.5 21t18.5 6h43q15 0 29 -14l707 -1010q40 -57 101.5 -158t84.5 -133h6q0 37 -7 163.5t-7 203.5v924q0 14 5 19t19 5h41q15 0 21 -6t6 -21v-1400q0 -15 -6 -21t-21 -6h-41q-19 0 -30 16l-725 1037q-36 51 -91.5 145t-74.5 121
h-4q0 -33 6 -150t6 -188v-954q0 -15 -6 -21t-21 -6h-41zM641 -504q-21 0 -18 21l82 299q1 14 7.5 19t22.5 5h37q32 0 23 -26l-97 -293q-8 -25 -30 -25h-27z" />
    <glyph glyph-name="uni0145" unicode="&#x146;" horiz-adv-x="1472" 
d="M225 0q-13 0 -18.5 6t-5.5 21v1400q0 15 5.5 21t18.5 6h43q15 0 29 -14l707 -1010q40 -57 101.5 -158t84.5 -133h6q0 37 -7 163.5t-7 203.5v924q0 14 5 19t19 5h41q15 0 21 -6t6 -21v-1400q0 -15 -6 -21t-21 -6h-41q-19 0 -30 16l-725 1037q-36 51 -91.5 145t-74.5 121
h-4q0 -33 6 -150t6 -188v-954q0 -15 -6 -21t-21 -6h-41zM641 -504q-21 0 -18 21l82 299q1 14 7.5 19t22.5 5h37q32 0 23 -26l-97 -293q-8 -25 -30 -25h-27z" />
    <glyph glyph-name="Ncaron" unicode="&#x147;" horiz-adv-x="1472" 
d="M731 1565q-17 0 -24.5 3.5t-24.5 20.5l-270 228q-9 6 -7.5 14t17.5 8h37q25 0 41 -14l235 -195l236 195q14 14 41 14h39q16 0 17.5 -7.5t-7.5 -14.5l-270 -228q-17 -17 -24.5 -20.5t-23.5 -3.5h-12zM225 0q-13 0 -18.5 6t-5.5 21v1400q0 15 5.5 21t18.5 6h43q15 0 29 -14
l707 -1010q40 -57 101.5 -158t84.5 -133h6q0 37 -7 163.5t-7 203.5v924q0 14 5 19t19 5h41q15 0 21 -6t6 -21v-1400q0 -15 -6 -21t-21 -6h-41q-19 0 -30 16l-725 1037q-36 51 -91.5 145t-74.5 121h-4q0 -33 6 -150t6 -188v-954q0 -15 -6 -21t-21 -6h-41z" />
    <glyph glyph-name="Ncaron" unicode="&#x148;" horiz-adv-x="1472" 
d="M731 1565q-17 0 -24.5 3.5t-24.5 20.5l-270 228q-9 6 -7.5 14t17.5 8h37q25 0 41 -14l235 -195l236 195q14 14 41 14h39q16 0 17.5 -7.5t-7.5 -14.5l-270 -228q-17 -17 -24.5 -20.5t-23.5 -3.5h-12zM225 0q-13 0 -18.5 6t-5.5 21v1400q0 15 5.5 21t18.5 6h43q15 0 29 -14
l707 -1010q40 -57 101.5 -158t84.5 -133h6q0 37 -7 163.5t-7 203.5v924q0 14 5 19t19 5h41q15 0 21 -6t6 -21v-1400q0 -15 -6 -21t-21 -6h-41q-19 0 -30 16l-725 1037q-36 51 -91.5 145t-74.5 121h-4q0 -33 6 -150t6 -188v-954q0 -15 -6 -21t-21 -6h-41z" />
    <glyph glyph-name="Eng" unicode="&#x14a;" horiz-adv-x="1472" 
d="M819 -471q-24 0 -24 25v34q0 25 24 25q174 0 268.5 96.5t94.5 267.5v33l-731 1043q-36 51 -91.5 145t-74.5 121h-4q0 -28 6 -132.5t6 -170.5v-989q0 -15 -6 -21t-21 -6h-41q-13 0 -18.5 6t-5.5 21v1400q0 15 5.5 21t18.5 6h43q15 0 29 -14l707 -1010q40 -57 101.5 -158
t84.5 -133h6q0 37 -7 163.5t-7 203.5v924q0 14 5 19t19 5h41q15 0 21 -6t6 -21v-1454q0 -211 -118.5 -327.5t-336.5 -116.5z" />
    <glyph glyph-name="Eng" unicode="&#x14b;" horiz-adv-x="1472" 
d="M819 -471q-24 0 -24 25v34q0 25 24 25q174 0 268.5 96.5t94.5 267.5v33l-731 1043q-36 51 -91.5 145t-74.5 121h-4q0 -28 6 -132.5t6 -170.5v-989q0 -15 -6 -21t-21 -6h-41q-13 0 -18.5 6t-5.5 21v1400q0 15 5.5 21t18.5 6h43q15 0 29 -14l707 -1010q40 -57 101.5 -158
t84.5 -133h6q0 37 -7 163.5t-7 203.5v924q0 14 5 19t19 5h41q15 0 21 -6t6 -21v-1454q0 -211 -118.5 -327.5t-336.5 -116.5z" />
    <glyph glyph-name="Omacron" unicode="&#x14c;" horiz-adv-x="1415" 
d="M465 1671q-13 0 -18 5.5t-5 19.5v20q0 13 5.5 18t17.5 5h487q12 0 17.5 -5t5.5 -18v-20q0 -25 -23 -25h-487zM709 -29q-267 0 -410 134t-143 372v500q0 238 143 372t410 134q265 0 408 -134t143 -372v-500q0 -238 -143 -372t-408 -134zM709 59q220 0 338 110.5t118 309.5
v496q0 199 -118 309.5t-338 110.5q-222 0 -339.5 -110.5t-117.5 -309.5v-496q0 -199 117.5 -309.5t339.5 -110.5z" />
    <glyph glyph-name="Omacron" unicode="&#x14d;" horiz-adv-x="1415" 
d="M465 1671q-13 0 -18 5.5t-5 19.5v20q0 13 5.5 18t17.5 5h487q12 0 17.5 -5t5.5 -18v-20q0 -25 -23 -25h-487zM709 -29q-267 0 -410 134t-143 372v500q0 238 143 372t410 134q265 0 408 -134t143 -372v-500q0 -238 -143 -372t-408 -134zM709 59q220 0 338 110.5t118 309.5
v496q0 199 -118 309.5t-338 110.5q-222 0 -339.5 -110.5t-117.5 -309.5v-496q0 -199 117.5 -309.5t339.5 -110.5z" />
    <glyph glyph-name="Obreve" unicode="&#x14e;" horiz-adv-x="1415" 
d="M711 1585q-245 0 -308 230q-5 16 11 22l35 12q19 5 24 -10q26 -95 83.5 -139.5t154.5 -44.5q96 0 153.5 44.5t83.5 139.5q5 15 23 10l35 -12q17 -6 12 -22q-34 -117 -109 -173.5t-198 -56.5zM709 -29q-267 0 -410 134t-143 372v500q0 238 143 372t410 134q265 0 408 -134
t143 -372v-500q0 -238 -143 -372t-408 -134zM709 59q220 0 338 110.5t118 309.5v496q0 199 -118 309.5t-338 110.5q-222 0 -339.5 -110.5t-117.5 -309.5v-496q0 -199 117.5 -309.5t339.5 -110.5z" />
    <glyph glyph-name="Obreve" unicode="&#x14f;" horiz-adv-x="1415" 
d="M711 1585q-245 0 -308 230q-5 16 11 22l35 12q19 5 24 -10q26 -95 83.5 -139.5t154.5 -44.5q96 0 153.5 44.5t83.5 139.5q5 15 23 10l35 -12q17 -6 12 -22q-34 -117 -109 -173.5t-198 -56.5zM709 -29q-267 0 -410 134t-143 372v500q0 238 143 372t410 134q265 0 408 -134
t143 -372v-500q0 -238 -143 -372t-408 -134zM709 59q220 0 338 110.5t118 309.5v496q0 199 -118 309.5t-338 110.5q-222 0 -339.5 -110.5t-117.5 -309.5v-496q0 -199 117.5 -309.5t339.5 -110.5z" />
    <glyph glyph-name="Ohungarumlaut" unicode="&#x150;" horiz-adv-x="1415" 
d="M440 1589q-22 5 -6 25l207 231q19 22 41 17l31 -9q26 -9 10 -28l-231 -232q-16 -16 -33 -10zM795 1587q-12 3 -13.5 10.5t6.5 14.5l211 233q19 22 41 17l33 -9q27 -9 8 -28l-235 -234q-18 -18 -33 -10zM709 -29q-267 0 -410 134t-143 372v500q0 238 143 372t410 134
q265 0 408 -134t143 -372v-500q0 -238 -143 -372t-408 -134zM709 59q220 0 338 110.5t118 309.5v496q0 199 -118 309.5t-338 110.5q-222 0 -339.5 -110.5t-117.5 -309.5v-496q0 -199 117.5 -309.5t339.5 -110.5z" />
    <glyph glyph-name="Ohungarumlaut" unicode="&#x151;" horiz-adv-x="1415" 
d="M440 1589q-22 5 -6 25l207 231q19 22 41 17l31 -9q26 -9 10 -28l-231 -232q-16 -16 -33 -10zM795 1587q-12 3 -13.5 10.5t6.5 14.5l211 233q19 22 41 17l33 -9q27 -9 8 -28l-235 -234q-18 -18 -33 -10zM709 -29q-267 0 -410 134t-143 372v500q0 238 143 372t410 134
q265 0 408 -134t143 -372v-500q0 -238 -143 -372t-408 -134zM709 59q220 0 338 110.5t118 309.5v496q0 199 -118 309.5t-338 110.5q-222 0 -339.5 -110.5t-117.5 -309.5v-496q0 -199 117.5 -309.5t339.5 -110.5z" />
    <glyph glyph-name="OE" unicode="&#x152;" horiz-adv-x="1779" 
d="M709 -31q-267 0 -410 135t-143 373v500q0 238 143 373t410 135q117 0 225 -31h678q13 0 18.5 -6t5.5 -21v-36q0 -25 -24 -25h-611v-586h521q14 0 20 -5.5t6 -20.5v-37q0 -25 -26 -25h-521v-604h639q25 0 25 -25v-36q0 -27 -25 -27h-704q-114 -31 -227 -31zM709 57
q108 0 198 29v1280q-96 31 -198 31q-221 0 -339 -111.5t-118 -310.5v-496q0 -199 118 -310.5t339 -111.5z" />
    <glyph glyph-name="OE" unicode="&#x153;" horiz-adv-x="1779" 
d="M709 -31q-267 0 -410 135t-143 373v500q0 238 143 373t410 135q117 0 225 -31h678q13 0 18.5 -6t5.5 -21v-36q0 -25 -24 -25h-611v-586h521q14 0 20 -5.5t6 -20.5v-37q0 -25 -26 -25h-521v-604h639q25 0 25 -25v-36q0 -27 -25 -27h-704q-114 -31 -227 -31zM709 57
q108 0 198 29v1280q-96 31 -198 31q-221 0 -339 -111.5t-118 -310.5v-496q0 -199 118 -310.5t339 -111.5z" />
    <glyph glyph-name="Racute" unicode="&#x154;" horiz-adv-x="1376" 
d="M512 1567q-23 -8 -33 2l-14 16q-14 19 4 29l346 219q31 15 45 -4l21 -23q17 -20 -4 -30zM225 0q-13 0 -18.5 6t-5.5 21v1400q0 15 5.5 21t18.5 6h588q196 0 307 -108t111 -302q0 -175 -97.5 -278t-265.5 -117q57 -24 96 -63.5t72 -104.5l232 -454q8 -11 4 -19t-19 -8h-41
q-24 0 -33.5 4.5t-17.5 18.5l-211 421q-53 105 -122.5 150t-194.5 45h-338v-612q0 -27 -25 -27h-45zM805 727q155 0 240 82t85 235q0 154 -84.5 238t-240.5 84h-510v-639h510z" />
    <glyph glyph-name="Racute" unicode="&#x155;" horiz-adv-x="1376" 
d="M512 1567q-23 -8 -33 2l-14 16q-14 19 4 29l346 219q31 15 45 -4l21 -23q17 -20 -4 -30zM225 0q-13 0 -18.5 6t-5.5 21v1400q0 15 5.5 21t18.5 6h588q196 0 307 -108t111 -302q0 -175 -97.5 -278t-265.5 -117q57 -24 96 -63.5t72 -104.5l232 -454q8 -11 4 -19t-19 -8h-41
q-24 0 -33.5 4.5t-17.5 18.5l-211 421q-53 105 -122.5 150t-194.5 45h-338v-612q0 -27 -25 -27h-45zM805 727q155 0 240 82t85 235q0 154 -84.5 238t-240.5 84h-510v-639h510z" />
    <glyph glyph-name="uni0156" unicode="&#x156;" horiz-adv-x="1376" 
d="M225 0q-13 0 -18.5 6t-5.5 21v1400q0 15 5.5 21t18.5 6h588q196 0 307 -108t111 -302q0 -175 -97.5 -278t-265.5 -117q57 -24 96 -63.5t72 -104.5l232 -454q8 -11 4 -19t-19 -8h-41q-24 0 -33.5 4.5t-17.5 18.5l-211 421q-53 105 -122.5 150t-194.5 45h-338v-612
q0 -27 -25 -27h-45zM805 727q155 0 240 82t85 235q0 154 -84.5 238t-240.5 84h-510v-639h510zM627 -504q-22 0 -19 21l82 299q1 14 8 19t23 5h37q31 0 22 -26l-96 -293q-8 -25 -31 -25h-26z" />
    <glyph glyph-name="uni0156" unicode="&#x157;" horiz-adv-x="1376" 
d="M225 0q-13 0 -18.5 6t-5.5 21v1400q0 15 5.5 21t18.5 6h588q196 0 307 -108t111 -302q0 -175 -97.5 -278t-265.5 -117q57 -24 96 -63.5t72 -104.5l232 -454q8 -11 4 -19t-19 -8h-41q-24 0 -33.5 4.5t-17.5 18.5l-211 421q-53 105 -122.5 150t-194.5 45h-338v-612
q0 -27 -25 -27h-45zM805 727q155 0 240 82t85 235q0 154 -84.5 238t-240.5 84h-510v-639h510zM627 -504q-22 0 -19 21l82 299q1 14 8 19t23 5h37q31 0 22 -26l-96 -293q-8 -25 -31 -25h-26z" />
    <glyph glyph-name="Rcaron" unicode="&#x158;" horiz-adv-x="1376" 
d="M664 1565q-18 0 -25.5 3.5t-24.5 20.5l-270 228q-9 6 -7.5 14t17.5 8h37q25 0 41 -14l236 -195l235 195q14 14 41 14h39q16 0 17.5 -7.5t-7.5 -14.5l-270 -228q-17 -17 -24.5 -20.5t-22.5 -3.5h-12zM225 0q-13 0 -18.5 6t-5.5 21v1400q0 15 5.5 21t18.5 6h588
q196 0 307 -108t111 -302q0 -175 -97.5 -278t-265.5 -117q57 -24 96 -63.5t72 -104.5l232 -454q8 -11 4 -19t-19 -8h-41q-24 0 -33.5 4.5t-17.5 18.5l-211 421q-53 105 -122.5 150t-194.5 45h-338v-612q0 -27 -25 -27h-45zM805 727q155 0 240 82t85 235q0 154 -84.5 238
t-240.5 84h-510v-639h510z" />
    <glyph glyph-name="Rcaron" unicode="&#x159;" horiz-adv-x="1376" 
d="M664 1565q-18 0 -25.5 3.5t-24.5 20.5l-270 228q-9 6 -7.5 14t17.5 8h37q25 0 41 -14l236 -195l235 195q14 14 41 14h39q16 0 17.5 -7.5t-7.5 -14.5l-270 -228q-17 -17 -24.5 -20.5t-22.5 -3.5h-12zM225 0q-13 0 -18.5 6t-5.5 21v1400q0 15 5.5 21t18.5 6h588
q196 0 307 -108t111 -302q0 -175 -97.5 -278t-265.5 -117q57 -24 96 -63.5t72 -104.5l232 -454q8 -11 4 -19t-19 -8h-41q-24 0 -33.5 4.5t-17.5 18.5l-211 421q-53 105 -122.5 150t-194.5 45h-338v-612q0 -27 -25 -27h-45zM805 727q155 0 240 82t85 235q0 154 -84.5 238
t-240.5 84h-510v-639h510z" />
    <glyph glyph-name="Sacute" unicode="&#x15a;" horiz-adv-x="1339" 
d="M516 1585q-23 -8 -33 2l-14 17q-8 10 -7 16t11 12l346 219q31 15 45 -4l21 -22q17 -20 -4 -31zM670 -29q-213 0 -345 87t-206 272q-11 26 16 37l39 14q13 5 20 2t13 -18q68 -156 180.5 -230t282.5 -74q446 0 446 324q0 40 -8 73.5t-20.5 59t-35.5 47t-43.5 36t-55 27.5
t-60 20.5t-68 15t-70 11t-73.5 9.5q-52 6 -86.5 11t-84 14.5t-82.5 19.5t-74.5 26.5t-69 36t-56 48t-45 62t-27 77.5t-10.5 96q0 189 136 298.5t379 109.5q203 0 329 -76.5t207 -241.5q14 -26 -14 -35l-39 -18q-13 -5 -20.5 -3t-14.5 15q-71 140 -175.5 204.5t-272.5 64.5
q-198 0 -308 -82t-110 -230q0 -51 14 -92t35.5 -69.5t59 -51.5t71.5 -37t87 -25.5t92 -17t99 -12.5q49 -6 83 -10.5t81 -13.5t79 -19t71 -26.5t65.5 -36t53 -47.5t42 -61.5t25.5 -77.5t10 -95q0 -201 -138.5 -309.5t-403.5 -108.5z" />
    <glyph glyph-name="Sacute" unicode="&#x15b;" horiz-adv-x="1339" 
d="M516 1585q-23 -8 -33 2l-14 17q-8 10 -7 16t11 12l346 219q31 15 45 -4l21 -22q17 -20 -4 -31zM670 -29q-213 0 -345 87t-206 272q-11 26 16 37l39 14q13 5 20 2t13 -18q68 -156 180.5 -230t282.5 -74q446 0 446 324q0 40 -8 73.5t-20.5 59t-35.5 47t-43.5 36t-55 27.5
t-60 20.5t-68 15t-70 11t-73.5 9.5q-52 6 -86.5 11t-84 14.5t-82.5 19.5t-74.5 26.5t-69 36t-56 48t-45 62t-27 77.5t-10.5 96q0 189 136 298.5t379 109.5q203 0 329 -76.5t207 -241.5q14 -26 -14 -35l-39 -18q-13 -5 -20.5 -3t-14.5 15q-71 140 -175.5 204.5t-272.5 64.5
q-198 0 -308 -82t-110 -230q0 -51 14 -92t35.5 -69.5t59 -51.5t71.5 -37t87 -25.5t92 -17t99 -12.5q49 -6 83 -10.5t81 -13.5t79 -19t71 -26.5t65.5 -36t53 -47.5t42 -61.5t25.5 -77.5t10 -95q0 -201 -138.5 -309.5t-403.5 -108.5z" />
    <glyph glyph-name="Scircumflex" unicode="&#x15c;" horiz-adv-x="1339" 
d="M362 1583q-16 0 -18.5 6.5t6.5 14.5l273 229q17 17 24.5 21t24.5 4h12q15 0 22.5 -4t24.5 -21l273 -229q9 -8 6 -14.5t-19 -6.5h-39q-27 0 -41 14l-235 195l-236 -195q-16 -14 -41 -14h-37zM670 -29q-213 0 -345 87t-206 272q-11 26 16 37l39 14q13 5 20 2t13 -18
q68 -156 180.5 -230t282.5 -74q446 0 446 324q0 40 -8 73.5t-20.5 59t-35.5 47t-43.5 36t-55 27.5t-60 20.5t-68 15t-70 11t-73.5 9.5q-52 6 -86.5 11t-84 14.5t-82.5 19.5t-74.5 26.5t-69 36t-56 48t-45 62t-27 77.5t-10.5 96q0 189 136 298.5t379 109.5q203 0 329 -76.5
t207 -241.5q14 -26 -14 -35l-39 -18q-13 -5 -20.5 -3t-14.5 15q-71 140 -175.5 204.5t-272.5 64.5q-198 0 -308 -82t-110 -230q0 -51 14 -92t35.5 -69.5t59 -51.5t71.5 -37t87 -25.5t92 -17t99 -12.5q49 -6 83 -10.5t81 -13.5t79 -19t71 -26.5t65.5 -36t53 -47.5t42 -61.5
t25.5 -77.5t10 -95q0 -201 -138.5 -309.5t-403.5 -108.5z" />
    <glyph glyph-name="Scircumflex" unicode="&#x15d;" horiz-adv-x="1339" 
d="M362 1583q-16 0 -18.5 6.5t6.5 14.5l273 229q17 17 24.5 21t24.5 4h12q15 0 22.5 -4t24.5 -21l273 -229q9 -8 6 -14.5t-19 -6.5h-39q-27 0 -41 14l-235 195l-236 -195q-16 -14 -41 -14h-37zM670 -29q-213 0 -345 87t-206 272q-11 26 16 37l39 14q13 5 20 2t13 -18
q68 -156 180.5 -230t282.5 -74q446 0 446 324q0 40 -8 73.5t-20.5 59t-35.5 47t-43.5 36t-55 27.5t-60 20.5t-68 15t-70 11t-73.5 9.5q-52 6 -86.5 11t-84 14.5t-82.5 19.5t-74.5 26.5t-69 36t-56 48t-45 62t-27 77.5t-10.5 96q0 189 136 298.5t379 109.5q203 0 329 -76.5
t207 -241.5q14 -26 -14 -35l-39 -18q-13 -5 -20.5 -3t-14.5 15q-71 140 -175.5 204.5t-272.5 64.5q-198 0 -308 -82t-110 -230q0 -51 14 -92t35.5 -69.5t59 -51.5t71.5 -37t87 -25.5t92 -17t99 -12.5q49 -6 83 -10.5t81 -13.5t79 -19t71 -26.5t65.5 -36t53 -47.5t42 -61.5
t25.5 -77.5t10 -95q0 -201 -138.5 -309.5t-403.5 -108.5z" />
    <glyph glyph-name="Scedilla" unicode="&#x15e;" horiz-adv-x="1337" 
d="M674 -508q-98 0 -172 45q-19 9 -19 31l-2 26q0 8 4.5 11.5t12.5 -0.5q73 -56 166 -56q76 0 118.5 36.5t42.5 101.5q0 98 -139 98q-49 0 -78 -10q-15 -3 -19.5 4t1.5 22l63 170q-205 3 -332.5 90t-201.5 269q-6 15 -3 23t17 14l41 14q23 9 33 -16q68 -156 180.5 -230
t282.5 -74q446 0 446 324q0 51 -13.5 91.5t-33 68.5t-56 50.5t-67.5 35.5t-83.5 24t-87.5 16.5t-95 12.5q-52 6 -86 11t-83.5 14.5t-82.5 19.5t-75 26.5t-69.5 36t-56 48t-45 62t-27 77.5t-10.5 96q0 189 136.5 298.5t377.5 109.5q204 0 331 -76.5t208 -241.5
q12 -26 -14 -35l-39 -18q-13 -5 -20.5 -3t-14.5 15q-70 139 -176 204t-275 65q-197 0 -306 -82t-109 -230q0 -40 8.5 -73.5t22 -59.5t37 -47.5t46.5 -37t57.5 -28.5t63.5 -21.5t71.5 -16t74 -12t77.5 -9.5q49 -6 83 -10.5t80.5 -13.5t79 -19t71 -26.5t64.5 -36t52.5 -47.5
t42.5 -61.5t25.5 -77.5t9.5 -95q0 -193 -126.5 -301t-370.5 -117l-51 -143q21 8 63 8q83 0 131 -41.5t45 -111.5q-3 -93 -64.5 -142t-162.5 -49z" />
    <glyph glyph-name="Scedilla" unicode="&#x15f;" horiz-adv-x="1337" 
d="M674 -508q-98 0 -172 45q-19 9 -19 31l-2 26q0 8 4.5 11.5t12.5 -0.5q73 -56 166 -56q76 0 118.5 36.5t42.5 101.5q0 98 -139 98q-49 0 -78 -10q-15 -3 -19.5 4t1.5 22l63 170q-205 3 -332.5 90t-201.5 269q-6 15 -3 23t17 14l41 14q23 9 33 -16q68 -156 180.5 -230
t282.5 -74q446 0 446 324q0 51 -13.5 91.5t-33 68.5t-56 50.5t-67.5 35.5t-83.5 24t-87.5 16.5t-95 12.5q-52 6 -86 11t-83.5 14.5t-82.5 19.5t-75 26.5t-69.5 36t-56 48t-45 62t-27 77.5t-10.5 96q0 189 136.5 298.5t377.5 109.5q204 0 331 -76.5t208 -241.5
q12 -26 -14 -35l-39 -18q-13 -5 -20.5 -3t-14.5 15q-70 139 -176 204t-275 65q-197 0 -306 -82t-109 -230q0 -40 8.5 -73.5t22 -59.5t37 -47.5t46.5 -37t57.5 -28.5t63.5 -21.5t71.5 -16t74 -12t77.5 -9.5q49 -6 83 -10.5t80.5 -13.5t79 -19t71 -26.5t64.5 -36t52.5 -47.5
t42.5 -61.5t25.5 -77.5t9.5 -95q0 -193 -126.5 -301t-370.5 -117l-51 -143q21 8 63 8q83 0 131 -41.5t45 -111.5q-3 -93 -64.5 -142t-162.5 -49z" />
    <glyph glyph-name="Scaron" unicode="&#x160;" horiz-adv-x="1339" 
d="M670 1583q-17 0 -24.5 4t-24.5 21l-271 227q-9 6 -7.5 14.5t17.5 8.5h37q23 0 41 -15l236 -194l235 194q15 15 41 15h39q16 0 17.5 -8t-7.5 -15l-270 -227q-17 -17 -24.5 -21t-22.5 -4h-12zM670 -29q-213 0 -345 87t-206 272q-11 26 16 37l39 14q13 5 20 2t13 -18
q68 -156 180.5 -230t282.5 -74q446 0 446 324q0 40 -8 73.5t-20.5 59t-35.5 47t-43.5 36t-55 27.5t-60 20.5t-68 15t-70 11t-73.5 9.5q-52 6 -86.5 11t-84 14.5t-82.5 19.5t-74.5 26.5t-69 36t-56 48t-45 62t-27 77.5t-10.5 96q0 189 136 298.5t379 109.5q203 0 329 -76.5
t207 -241.5q14 -26 -14 -35l-39 -18q-13 -5 -20.5 -3t-14.5 15q-71 140 -175.5 204.5t-272.5 64.5q-198 0 -308 -82t-110 -230q0 -51 14 -92t35.5 -69.5t59 -51.5t71.5 -37t87 -25.5t92 -17t99 -12.5q49 -6 83 -10.5t81 -13.5t79 -19t71 -26.5t65.5 -36t53 -47.5t42 -61.5
t25.5 -77.5t10 -95q0 -201 -138.5 -309.5t-403.5 -108.5z" />
    <glyph glyph-name="Scaron" unicode="&#x161;" horiz-adv-x="1339" 
d="M670 1583q-17 0 -24.5 4t-24.5 21l-271 227q-9 6 -7.5 14.5t17.5 8.5h37q23 0 41 -15l236 -194l235 194q15 15 41 15h39q16 0 17.5 -8t-7.5 -15l-270 -227q-17 -17 -24.5 -21t-22.5 -4h-12zM670 -29q-213 0 -345 87t-206 272q-11 26 16 37l39 14q13 5 20 2t13 -18
q68 -156 180.5 -230t282.5 -74q446 0 446 324q0 40 -8 73.5t-20.5 59t-35.5 47t-43.5 36t-55 27.5t-60 20.5t-68 15t-70 11t-73.5 9.5q-52 6 -86.5 11t-84 14.5t-82.5 19.5t-74.5 26.5t-69 36t-56 48t-45 62t-27 77.5t-10.5 96q0 189 136 298.5t379 109.5q203 0 329 -76.5
t207 -241.5q14 -26 -14 -35l-39 -18q-13 -5 -20.5 -3t-14.5 15q-71 140 -175.5 204.5t-272.5 64.5q-198 0 -308 -82t-110 -230q0 -51 14 -92t35.5 -69.5t59 -51.5t71.5 -37t87 -25.5t92 -17t99 -12.5q49 -6 83 -10.5t81 -13.5t79 -19t71 -26.5t65.5 -36t53 -47.5t42 -61.5
t25.5 -77.5t10 -95q0 -201 -138.5 -309.5t-403.5 -108.5z" />
    <glyph glyph-name="uni0163" unicode="&#x163;" horiz-adv-x="1181" 
d="M569 0q-13 0 -18.5 6t-5.5 21v1339h-461q-25 0 -25 25v36q0 27 25 27h1014q13 0 18.5 -6t5.5 -21v-36q0 -25 -24 -25h-459v-1339q0 -15 -6 -21t-21 -6h-43zM483 -504q-21 0 -18 21l82 299q1 14 8 19t23 5h36q32 0 23 -26l-96 -293q-8 -25 -31 -25h-27z" />
    <glyph glyph-name="uni0163" unicode="&#x21a;" horiz-adv-x="1181" 
d="M569 0q-13 0 -18.5 6t-5.5 21v1339h-461q-25 0 -25 25v36q0 27 25 27h1014q13 0 18.5 -6t5.5 -21v-36q0 -25 -24 -25h-459v-1339q0 -15 -6 -21t-21 -6h-43zM483 -504q-21 0 -18 21l82 299q1 14 8 19t23 5h36q32 0 23 -26l-96 -293q-8 -25 -31 -25h-27z" />
    <glyph glyph-name="Tcaron" unicode="&#x164;" horiz-adv-x="1181" 
d="M586 1565q-17 0 -24.5 3.5t-24.5 20.5l-271 228q-9 6 -7.5 14t17.5 8h37q25 0 41 -14l236 -195l235 195q14 14 41 14h39q16 0 17.5 -7.5t-7.5 -14.5l-270 -228q-17 -17 -24.5 -20.5t-22.5 -3.5h-12zM569 0q-13 0 -18.5 6t-5.5 21v1339h-461q-25 0 -25 25v36q0 27 25 27
h1014q13 0 18.5 -6t5.5 -21v-36q0 -25 -24 -25h-459v-1339q0 -15 -6 -21t-21 -6h-43z" />
    <glyph glyph-name="Tcaron" unicode="&#x165;" horiz-adv-x="1181" 
d="M586 1565q-17 0 -24.5 3.5t-24.5 20.5l-271 228q-9 6 -7.5 14t17.5 8h37q25 0 41 -14l236 -195l235 195q14 14 41 14h39q16 0 17.5 -7.5t-7.5 -14.5l-270 -228q-17 -17 -24.5 -20.5t-22.5 -3.5h-12zM569 0q-13 0 -18.5 6t-5.5 21v1339h-461q-25 0 -25 25v36q0 27 25 27
h1014q13 0 18.5 -6t5.5 -21v-36q0 -25 -24 -25h-459v-1339q0 -15 -6 -21t-21 -6h-43z" />
    <glyph glyph-name="Tbar" unicode="&#x166;" horiz-adv-x="1189" 
d="M573 0q-26 0 -26 27v614h-309q-19 0 -19 21v32q0 19 19 19h309v653h-459q-25 0 -25 25v36q0 27 25 27h1014q13 0 18.5 -6t5.5 -21v-36q0 -25 -24 -25h-459v-653h309q19 0 19 -19v-32q0 -21 -19 -21h-309v-614q0 -15 -6 -21t-21 -6h-43z" />
    <glyph glyph-name="Tbar" unicode="&#x167;" horiz-adv-x="1189" 
d="M573 0q-26 0 -26 27v614h-309q-19 0 -19 21v32q0 19 19 19h309v653h-459q-25 0 -25 25v36q0 27 25 27h1014q13 0 18.5 -6t5.5 -21v-36q0 -25 -24 -25h-459v-653h309q19 0 19 -19v-32q0 -21 -19 -21h-309v-614q0 -15 -6 -21t-21 -6h-43z" />
    <glyph glyph-name="Utilde" unicode="&#x168;" horiz-adv-x="1456" 
d="M424 1583q-16 0 -16 16q0 93 39 143t114 50q41 0 78.5 -15t65.5 -37t54.5 -43.5t57.5 -36.5t64 -15q49 0 73.5 35t24.5 96q0 9 3 12.5t13 3.5h27q16 0 16 -16q0 -193 -151 -193q-40 0 -76.5 15t-64.5 37t-55 44t-59 37t-65 15q-46 0 -72 -36t-26 -96q0 -16 -16 -16h-29z
M727 -31q-265 0 -402 139.5t-137 383.5v935q0 27 25 27h45q25 0 25 -27v-935q0 -203 112.5 -319t331.5 -116q220 0 332 115.5t112 319.5v935q0 27 27 27h43q15 0 21 -6t6 -21v-935q0 -244 -138 -383.5t-403 -139.5z" />
    <glyph glyph-name="Utilde" unicode="&#x169;" horiz-adv-x="1456" 
d="M424 1583q-16 0 -16 16q0 93 39 143t114 50q41 0 78.5 -15t65.5 -37t54.5 -43.5t57.5 -36.5t64 -15q49 0 73.5 35t24.5 96q0 9 3 12.5t13 3.5h27q16 0 16 -16q0 -193 -151 -193q-40 0 -76.5 15t-64.5 37t-55 44t-59 37t-65 15q-46 0 -72 -36t-26 -96q0 -16 -16 -16h-29z
M727 -31q-265 0 -402 139.5t-137 383.5v935q0 27 25 27h45q25 0 25 -27v-935q0 -203 112.5 -319t331.5 -116q220 0 332 115.5t112 319.5v935q0 27 27 27h43q15 0 21 -6t6 -21v-935q0 -244 -138 -383.5t-403 -139.5z" />
    <glyph glyph-name="Umacron" unicode="&#x16a;" horiz-adv-x="1456" 
d="M483 1651q-13 0 -17.5 5t-4.5 19v21q0 13 5 17.5t17 4.5h488q12 0 17 -4.5t5 -17.5v-21q0 -24 -22 -24h-488zM727 -31q-265 0 -402 139.5t-137 383.5v935q0 27 25 27h45q25 0 25 -27v-935q0 -203 112.5 -319t331.5 -116q220 0 332 115.5t112 319.5v935q0 27 27 27h43
q15 0 21 -6t6 -21v-935q0 -244 -138 -383.5t-403 -139.5z" />
    <glyph glyph-name="Umacron" unicode="&#x16b;" horiz-adv-x="1456" 
d="M483 1651q-13 0 -17.5 5t-4.5 19v21q0 13 5 17.5t17 4.5h488q12 0 17 -4.5t5 -17.5v-21q0 -24 -22 -24h-488zM727 -31q-265 0 -402 139.5t-137 383.5v935q0 27 25 27h45q25 0 25 -27v-935q0 -203 112.5 -319t331.5 -116q220 0 332 115.5t112 319.5v935q0 27 27 27h43
q15 0 21 -6t6 -21v-935q0 -244 -138 -383.5t-403 -139.5z" />
    <glyph glyph-name="Ubreve" unicode="&#x16c;" horiz-adv-x="1456" 
d="M729 1565q-244 0 -307 229q-6 17 10 23l35 12q20 6 25 -10q26 -95 83 -140t154 -45q96 0 154 45t84 140q5 15 22 10l35 -12q18 -6 12 -23q-34 -117 -109 -173t-198 -56zM727 -31q-265 0 -402 139.5t-137 383.5v935q0 27 25 27h45q25 0 25 -27v-935q0 -203 112.5 -319
t331.5 -116q220 0 332 115.5t112 319.5v935q0 27 27 27h43q15 0 21 -6t6 -21v-935q0 -244 -138 -383.5t-403 -139.5z" />
    <glyph glyph-name="Ubreve" unicode="&#x16d;" horiz-adv-x="1456" 
d="M729 1565q-244 0 -307 229q-6 17 10 23l35 12q20 6 25 -10q26 -95 83 -140t154 -45q96 0 154 45t84 140q5 15 22 10l35 -12q18 -6 12 -23q-34 -117 -109 -173t-198 -56zM727 -31q-265 0 -402 139.5t-137 383.5v935q0 27 25 27h45q25 0 25 -27v-935q0 -203 112.5 -319
t331.5 -116q220 0 332 115.5t112 319.5v935q0 27 27 27h43q15 0 21 -6t6 -21v-935q0 -244 -138 -383.5t-403 -139.5z" />
    <glyph glyph-name="Uring" unicode="&#x16e;" horiz-adv-x="1456" 
d="M731 1542q-92 0 -147.5 53t-55.5 142t55 140.5t148 51.5q90 0 142.5 -51.5t52.5 -140.5t-53 -142t-142 -53zM731 1593q66 0 104.5 39t38.5 105q0 65 -38.5 104t-104.5 39q-70 0 -110.5 -39t-40.5 -104q0 -66 40.5 -105t110.5 -39zM727 -31q-265 0 -402 139.5t-137 383.5
v935q0 27 25 27h45q25 0 25 -27v-935q0 -203 112.5 -319t331.5 -116q220 0 332 115.5t112 319.5v935q0 27 27 27h43q15 0 21 -6t6 -21v-935q0 -244 -138 -383.5t-403 -139.5z" />
    <glyph glyph-name="Uring" unicode="&#x16f;" horiz-adv-x="1456" 
d="M731 1542q-92 0 -147.5 53t-55.5 142t55 140.5t148 51.5q90 0 142.5 -51.5t52.5 -140.5t-53 -142t-142 -53zM731 1593q66 0 104.5 39t38.5 105q0 65 -38.5 104t-104.5 39q-70 0 -110.5 -39t-40.5 -104q0 -66 40.5 -105t110.5 -39zM727 -31q-265 0 -402 139.5t-137 383.5
v935q0 27 25 27h45q25 0 25 -27v-935q0 -203 112.5 -319t331.5 -116q220 0 332 115.5t112 319.5v935q0 27 27 27h43q15 0 21 -6t6 -21v-935q0 -244 -138 -383.5t-403 -139.5z" />
    <glyph glyph-name="Uhungarumlaut" unicode="&#x170;" horiz-adv-x="1456" 
d="M459 1569q-21 5 -6 24l206 232q18 21 41 16l31 -8q27 -9 10 -29l-231 -231q-16 -16 -33 -10zM813 1567q-24 6 -6 24l211 234q18 21 41 16l33 -8q28 -9 8 -29l-236 -233q-18 -18 -33 -10zM727 -31q-265 0 -402 139.5t-137 383.5v935q0 27 25 27h45q25 0 25 -27v-935
q0 -203 112.5 -319t331.5 -116q220 0 332 115.5t112 319.5v935q0 27 27 27h43q15 0 21 -6t6 -21v-935q0 -244 -138 -383.5t-403 -139.5z" />
    <glyph glyph-name="Uhungarumlaut" unicode="&#x171;" horiz-adv-x="1456" 
d="M459 1569q-21 5 -6 24l206 232q18 21 41 16l31 -8q27 -9 10 -29l-231 -231q-16 -16 -33 -10zM813 1567q-24 6 -6 24l211 234q18 21 41 16l33 -8q28 -9 8 -29l-236 -233q-18 -18 -33 -10zM727 -31q-265 0 -402 139.5t-137 383.5v935q0 27 25 27h45q25 0 25 -27v-935
q0 -203 112.5 -319t331.5 -116q220 0 332 115.5t112 319.5v935q0 27 27 27h43q15 0 21 -6t6 -21v-935q0 -244 -138 -383.5t-403 -139.5z" />
    <glyph glyph-name="Uogonek" unicode="&#x172;" horiz-adv-x="1456" 
d="M877 -506q-117 0 -148 96q-25 76 34 189.5t169 220.5q-88 -31 -205 -31q-265 0 -402 139.5t-137 383.5v935q0 27 25 27h45q25 0 25 -27v-935q0 -203 112.5 -319t331.5 -116q220 0 332 115.5t112 319.5v935q0 27 27 27h43q15 0 21 -6t6 -21v-935q0 -141 -48 -250
t-141 -174q-135 -105 -215 -239t-55 -200q10 -32 35.5 -47.5t56.5 -15.5q75 0 129 57q12 8 17 -6l10 -29q5 -13 -2 -20q-77 -74 -178 -74z" />
    <glyph glyph-name="Uogonek" unicode="&#x173;" horiz-adv-x="1456" 
d="M877 -506q-117 0 -148 96q-25 76 34 189.5t169 220.5q-88 -31 -205 -31q-265 0 -402 139.5t-137 383.5v935q0 27 25 27h45q25 0 25 -27v-935q0 -203 112.5 -319t331.5 -116q220 0 332 115.5t112 319.5v935q0 27 27 27h43q15 0 21 -6t6 -21v-935q0 -141 -48 -250
t-141 -174q-135 -105 -215 -239t-55 -200q10 -32 35.5 -47.5t56.5 -15.5q75 0 129 57q12 8 17 -6l10 -29q5 -13 -2 -20q-77 -74 -178 -74z" />
    <glyph glyph-name="Wcircumflex" unicode="&#x174;" horiz-adv-x="1847" 
d="M614 1565q-32 0 -12 20l272 230q17 17 24.5 20.5t25.5 3.5h12q15 0 22.5 -3.5t24.5 -20.5l272 -230q20 -20 -12 -20h-39q-27 0 -41 14l-235 195l-236 -195q-16 -14 -41 -14h-37zM496 0q-27 0 -35 23l-379 1407q-9 24 16 24h52q17 0 24 -4.5t10 -17.5l293 -1102
q7 -30 21 -100.5t20 -94.5h4q13 68 43 193l305 1071q7 24 37 24h41q30 0 35 -24l303 -1073q20 -66 45 -191h6q7 43 37 189l293 1108q3 13 10 17.5t25 4.5h47q22 0 16 -24l-381 -1405q-5 -25 -34 -25h-41q-27 0 -35 23l-303 1079q-21 76 -43 186h-6q-14 -73 -45 -186
l-306 -1077q-5 -25 -34 -25h-41z" />
    <glyph glyph-name="Wcircumflex" unicode="&#x175;" horiz-adv-x="1847" 
d="M614 1565q-32 0 -12 20l272 230q17 17 24.5 20.5t25.5 3.5h12q15 0 22.5 -3.5t24.5 -20.5l272 -230q20 -20 -12 -20h-39q-27 0 -41 14l-235 195l-236 -195q-16 -14 -41 -14h-37zM496 0q-27 0 -35 23l-379 1407q-9 24 16 24h52q17 0 24 -4.5t10 -17.5l293 -1102
q7 -30 21 -100.5t20 -94.5h4q13 68 43 193l305 1071q7 24 37 24h41q30 0 35 -24l303 -1073q20 -66 45 -191h6q7 43 37 189l293 1108q3 13 10 17.5t25 4.5h47q22 0 16 -24l-381 -1405q-5 -25 -34 -25h-41q-27 0 -35 23l-303 1079q-21 76 -43 186h-6q-14 -73 -45 -186
l-306 -1077q-5 -25 -34 -25h-41z" />
    <glyph glyph-name="Ycircumflex" unicode="&#x176;" horiz-adv-x="1331" 
d="M354 1565q-32 0 -12 20l272 230q17 17 24.5 20.5t25.5 3.5h12q15 0 22.5 -3.5t24.5 -20.5l272 -230q20 -20 -12 -20h-39q-27 0 -41 14l-235 195l-236 -195q-16 -14 -41 -14h-37zM643 0q-25 0 -25 27v573l-552 827q-6 11 -2.5 19t16.5 8h53q24 0 32 -3.5t17 -18.5
l486 -736l485 736q9 15 17 18.5t32 3.5h51q13 0 17 -8t-2 -19l-555 -831v-569q0 -27 -25 -27h-45z" />
    <glyph glyph-name="Ycircumflex" unicode="&#x177;" horiz-adv-x="1331" 
d="M354 1565q-32 0 -12 20l272 230q17 17 24.5 20.5t25.5 3.5h12q15 0 22.5 -3.5t24.5 -20.5l272 -230q20 -20 -12 -20h-39q-27 0 -41 14l-235 195l-236 -195q-16 -14 -41 -14h-37zM643 0q-25 0 -25 27v573l-552 827q-6 11 -2.5 19t16.5 8h53q24 0 32 -3.5t17 -18.5
l486 -736l485 736q9 15 17 18.5t32 3.5h51q13 0 17 -8t-2 -19l-555 -831v-569q0 -27 -25 -27h-45z" />
    <glyph glyph-name="Zacute" unicode="&#x179;" horiz-adv-x="1200" 
d="M449 1567q-23 -8 -33 2l-15 16q-13 19 5 29l346 219q31 15 45 -4l20 -23q17 -20 -4 -30zM123 0q-25 0 -25 27v34q0 19 11 35l860 1270h-838q-25 0 -25 25v36q0 27 25 27h930q15 0 20.5 -6t5.5 -21v-32q0 -21 -10 -33l-862 -1272h870q27 0 27 -27v-36q0 -27 -27 -27h-962z
" />
    <glyph glyph-name="Zacute" unicode="&#x17a;" horiz-adv-x="1200" 
d="M449 1567q-23 -8 -33 2l-15 16q-13 19 5 29l346 219q31 15 45 -4l20 -23q17 -20 -4 -30zM123 0q-25 0 -25 27v34q0 19 11 35l860 1270h-838q-25 0 -25 25v36q0 27 25 27h930q15 0 20.5 -6t5.5 -21v-32q0 -21 -10 -33l-862 -1272h870q27 0 27 -27v-36q0 -27 -27 -27h-962z
" />
    <glyph glyph-name="Zdotaccent" unicode="&#x17b;" horiz-adv-x="1200" 
d="M602 1630q-28 0 -37.5 10t-9.5 39v11q0 29 9.5 39t37.5 10h10q28 0 39 -10t11 -39v-11q0 -28 -11 -38.5t-39 -10.5h-10zM123 0q-25 0 -25 27v34q0 19 11 35l860 1270h-838q-25 0 -25 25v36q0 27 25 27h930q15 0 20.5 -6t5.5 -21v-32q0 -21 -10 -33l-862 -1272h870
q27 0 27 -27v-36q0 -27 -27 -27h-962z" />
    <glyph glyph-name="Zdotaccent" unicode="&#x17c;" horiz-adv-x="1200" 
d="M602 1630q-28 0 -37.5 10t-9.5 39v11q0 29 9.5 39t37.5 10h10q28 0 39 -10t11 -39v-11q0 -28 -11 -38.5t-39 -10.5h-10zM123 0q-25 0 -25 27v34q0 19 11 35l860 1270h-838q-25 0 -25 25v36q0 27 25 27h930q15 0 20.5 -6t5.5 -21v-32q0 -21 -10 -33l-862 -1272h870
q27 0 27 -27v-36q0 -27 -27 -27h-962z" />
    <glyph glyph-name="Zcaron" unicode="&#x17d;" horiz-adv-x="1200" 
d="M602 1565q-17 0 -24.5 3.5t-24.5 20.5l-270 228q-9 6 -7.5 14t17.5 8h37q25 0 41 -14l235 -195l236 195q14 14 41 14h39q16 0 17.5 -7.5t-7.5 -14.5l-270 -228q-17 -17 -24.5 -20.5t-23.5 -3.5h-12zM123 0q-25 0 -25 27v34q0 19 11 35l860 1270h-838q-25 0 -25 25v36
q0 27 25 27h930q15 0 20.5 -6t5.5 -21v-32q0 -21 -10 -33l-862 -1272h870q27 0 27 -27v-36q0 -27 -27 -27h-962z" />
    <glyph glyph-name="Zcaron" unicode="&#x17e;" horiz-adv-x="1200" 
d="M602 1565q-17 0 -24.5 3.5t-24.5 20.5l-270 228q-9 6 -7.5 14t17.5 8h37q25 0 41 -14l235 -195l236 195q14 14 41 14h39q16 0 17.5 -7.5t-7.5 -14.5l-270 -228q-17 -17 -24.5 -20.5t-23.5 -3.5h-12zM123 0q-25 0 -25 27v34q0 19 11 35l860 1270h-838q-25 0 -25 25v36
q0 27 25 27h930q15 0 20.5 -6t5.5 -21v-32q0 -21 -10 -33l-862 -1272h870q27 0 27 -27v-36q0 -27 -27 -27h-962z" />
    <glyph glyph-name="florin" unicode="&#x192;" horiz-adv-x="960" 
d="M-2 -451q-25 0 -25 25v35q0 24 25 24q85 0 147 23t100.5 68t60 103t30.5 136l78 727h-295q-25 0 -25 25v35q0 24 25 24h305l35 336q11 95 38.5 167t76.5 127t127.5 83.5t183.5 28.5q24 0 24 -25v-35q0 -14 -5.5 -19t-18.5 -5q-85 0 -146.5 -22.5t-100 -66.5t-59.5 -101.5
t-30 -135.5l-35 -332h313q13 0 18 -5t5 -19v-35q0 -14 -5 -19.5t-18 -5.5h-323l-78 -733q-22 -195 -123 -301.5t-305 -106.5z" />
    <glyph glyph-name="Aringacute" unicode="&#x1fa;" horiz-adv-x="1357" 
d="M532 1765q-19 -7 -28 2l-12 15q-6 10 -3.5 14.5t13.5 11.5l319 148q29 14 45 -2l17 -21q8 -9 7 -13.5t-11 -8.5zM76 0q-30 0 -19 25l557 1378q-60 14 -96.5 56t-36.5 100q0 82 55.5 134t143.5 52q85 0 139.5 -52t54.5 -134q0 -59 -35.5 -101.5t-95.5 -54.5l557 -1378
q11 -25 -18 -25h-37q-23 0 -32.5 4.5t-14.5 18.5l-180 452h-680l-182 -452q-5 -14 -13.5 -18.5t-31.5 -4.5h-35zM680 1440q60 0 98.5 34t38.5 87q0 58 -38.5 95.5t-98.5 37.5q-63 0 -103 -37t-40 -96q0 -53 40 -87t103 -34zM989 555l-215 543q-18 46 -49.5 141t-44.5 123h-4
q-12 -27 -42.5 -121.5t-49.5 -140.5l-219 -545h624z" />
    <glyph glyph-name="Aringacute" unicode="&#x1fb;" horiz-adv-x="1357" 
d="M532 1765q-19 -7 -28 2l-12 15q-6 10 -3.5 14.5t13.5 11.5l319 148q29 14 45 -2l17 -21q8 -9 7 -13.5t-11 -8.5zM76 0q-30 0 -19 25l557 1378q-60 14 -96.5 56t-36.5 100q0 82 55.5 134t143.5 52q85 0 139.5 -52t54.5 -134q0 -59 -35.5 -101.5t-95.5 -54.5l557 -1378
q11 -25 -18 -25h-37q-23 0 -32.5 4.5t-14.5 18.5l-180 452h-680l-182 -452q-5 -14 -13.5 -18.5t-31.5 -4.5h-35zM680 1440q60 0 98.5 34t38.5 87q0 58 -38.5 95.5t-98.5 37.5q-63 0 -103 -37t-40 -96q0 -53 40 -87t103 -34zM989 555l-215 543q-18 46 -49.5 141t-44.5 123h-4
q-12 -27 -42.5 -121.5t-49.5 -140.5l-219 -545h624z" />
    <glyph glyph-name="AEacute" unicode="&#x1fc;" horiz-adv-x="1738" 
d="M1081 1567q-22 -8 -32 2l-15 16q-14 19 4 29l346 219q31 16 46 -4l20 -23q17 -20 -4 -30zM45 0q-32 0 -18 25l856 1405q7 15 14 19.5t21 4.5h653q13 0 18.5 -6t5.5 -21v-36q0 -25 -24 -25h-580v-586h490q14 0 19 -5.5t5 -20.5v-37q0 -25 -24 -25h-490v-604h606
q27 0 27 -25v-36q0 -15 -6 -21t-21 -6h-671q-15 0 -21 6t-6 21v356h-551l-217 -360q-8 -13 -16.5 -18t-30.5 -5h-39zM899 463v835l-502 -835h502z" />
    <glyph glyph-name="AEacute" unicode="&#x1fd;" horiz-adv-x="1738" 
d="M1081 1567q-22 -8 -32 2l-15 16q-14 19 4 29l346 219q31 16 46 -4l20 -23q17 -20 -4 -30zM45 0q-32 0 -18 25l856 1405q7 15 14 19.5t21 4.5h653q13 0 18.5 -6t5.5 -21v-36q0 -25 -24 -25h-580v-586h490q14 0 19 -5.5t5 -20.5v-37q0 -25 -24 -25h-490v-604h606
q27 0 27 -25v-36q0 -15 -6 -21t-21 -6h-671q-15 0 -21 6t-6 21v356h-551l-217 -360q-8 -13 -16.5 -18t-30.5 -5h-39zM899 463v835l-502 -835h502z" />
    <glyph glyph-name="Oslashacute" unicode="&#x1fe;" horiz-adv-x="1415" 
d="M561 1587q-23 -8 -33 2l-14 17q-8 10 -7 16t11 12l346 219q31 15 45 -4l21 -22q17 -20 -4 -31zM172 -88q-13 0 -6 10l123 193q-133 130 -133 362v500q0 238 143 372t410 134q245 0 381 -115l100 158q6 8 20 8h54q13 0 6 -10l-129 -201q119 -131 119 -346v-500
q0 -238 -143 -372t-408 -134q-229 0 -367 101l-96 -150q-4 -7 -7.5 -8.5t-15.5 -1.5h-51zM1040 1288q-119 107 -331 107q-222 0 -339.5 -110.5t-117.5 -309.5v-496q0 -173 96 -274zM709 59q220 0 338 110.5t118 309.5v496q0 159 -82 256l-690 -1079q120 -93 316 -93z" />
    <glyph glyph-name="Oslashacute" unicode="&#x1ff;" horiz-adv-x="1415" 
d="M561 1587q-23 -8 -33 2l-14 17q-8 10 -7 16t11 12l346 219q31 15 45 -4l21 -22q17 -20 -4 -31zM172 -88q-13 0 -6 10l123 193q-133 130 -133 362v500q0 238 143 372t410 134q245 0 381 -115l100 158q6 8 20 8h54q13 0 6 -10l-129 -201q119 -131 119 -346v-500
q0 -238 -143 -372t-408 -134q-229 0 -367 101l-96 -150q-4 -7 -7.5 -8.5t-15.5 -1.5h-51zM1040 1288q-119 107 -331 107q-222 0 -339.5 -110.5t-117.5 -309.5v-496q0 -173 96 -274zM709 59q220 0 338 110.5t118 309.5v496q0 159 -82 256l-690 -1079q120 -93 316 -93z" />
    <glyph glyph-name="uni0218" unicode="&#x218;" horiz-adv-x="1339" 
d="M670 -29q-213 0 -345 87t-206 272q-11 26 16 37l39 14q13 5 20 2t13 -18q68 -156 180.5 -230t282.5 -74q446 0 446 324q0 40 -8 73.5t-20.5 59t-35.5 47t-43.5 36t-55 27.5t-60 20.5t-68 15t-70 11t-73.5 9.5q-52 6 -86.5 11t-84 14.5t-82.5 19.5t-74.5 26.5t-69 36
t-56 48t-45 62t-27 77.5t-10.5 96q0 189 136 298.5t379 109.5q203 0 329 -76.5t207 -241.5q14 -26 -14 -35l-39 -18q-13 -5 -20.5 -3t-14.5 15q-71 140 -175.5 204.5t-272.5 64.5q-198 0 -308 -82t-110 -230q0 -51 14 -92t35.5 -69.5t59 -51.5t71.5 -37t87 -25.5t92 -17
t99 -12.5q49 -6 83 -10.5t81 -13.5t79 -19t71 -26.5t65.5 -36t53 -47.5t42 -61.5t25.5 -77.5t10 -95q0 -201 -138.5 -309.5t-403.5 -108.5zM608 -518q-21 0 -18 20l82 299q1 15 8 20t22 5h37q32 0 23 -27l-96 -293q-8 -24 -31 -24h-27z" />
    <glyph glyph-name="uni0218" unicode="&#x219;" horiz-adv-x="1339" 
d="M670 -29q-213 0 -345 87t-206 272q-11 26 16 37l39 14q13 5 20 2t13 -18q68 -156 180.5 -230t282.5 -74q446 0 446 324q0 40 -8 73.5t-20.5 59t-35.5 47t-43.5 36t-55 27.5t-60 20.5t-68 15t-70 11t-73.5 9.5q-52 6 -86.5 11t-84 14.5t-82.5 19.5t-74.5 26.5t-69 36
t-56 48t-45 62t-27 77.5t-10.5 96q0 189 136 298.5t379 109.5q203 0 329 -76.5t207 -241.5q14 -26 -14 -35l-39 -18q-13 -5 -20.5 -3t-14.5 15q-71 140 -175.5 204.5t-272.5 64.5q-198 0 -308 -82t-110 -230q0 -51 14 -92t35.5 -69.5t59 -51.5t71.5 -37t87 -25.5t92 -17
t99 -12.5q49 -6 83 -10.5t81 -13.5t79 -19t71 -26.5t65.5 -36t53 -47.5t42 -61.5t25.5 -77.5t10 -95q0 -201 -138.5 -309.5t-403.5 -108.5zM608 -518q-21 0 -18 20l82 299q1 15 8 20t22 5h37q32 0 23 -27l-96 -293q-8 -24 -31 -24h-27z" />
    <glyph glyph-name="circumflex" unicode="&#x2c6;" horiz-adv-x="821" 
d="M94 1200q-16 0 -18.5 7t6.5 14l272 231q18 16 25 19.5t24 3.5h13q15 0 22 -3.5t25 -19.5l272 -231q9 -7 6.5 -14t-18.5 -7h-39q-24 0 -41 14l-235 195l-236 -195q-16 -14 -41 -14h-37z" />
    <glyph glyph-name="caron" unicode="&#x2c7;" horiz-adv-x="743" 
d="M367 1200q-18 0 -25.5 3t-24.5 20l-272 229q-8 8 -6 14.5t16 6.5h39q24 0 41 -15l236 -194l235 194q15 15 41 15h39q31 0 10 -21l-270 -229q-16 -16 -23.5 -19.5t-23.5 -3.5h-12z" />
    <glyph glyph-name="breve" unicode="&#x2d8;" horiz-adv-x="651" 
d="M315 1210q-243 0 -307 228q-5 18 10 24l35 13q19 6 25 -11q26 -95 83 -139.5t154 -44.5q96 0 154 44.5t84 139.5q5 16 22 11l35 -13q10 -5 13 -9.5t0 -14.5q-34 -116 -109.5 -172t-198.5 -56z" />
    <glyph glyph-name="dotaccent" unicode="&#x2d9;" horiz-adv-x="505" 
d="M248 1278q-28 0 -37.5 10t-9.5 39v10q0 28 10 38.5t37 10.5h10q28 0 38.5 -10.5t10.5 -38.5v-10q0 -28 -10.5 -38.5t-38.5 -10.5h-10z" />
    <glyph glyph-name="ring" unicode="&#x2da;" horiz-adv-x="555" 
d="M283 1116q-93 0 -148 52t-55 141t55 141.5t148 52.5q89 0 141.5 -52.5t52.5 -141.5t-52.5 -141t-141.5 -52zM283 1165q66 0 104.5 39.5t38.5 104.5q0 66 -38.5 104.5t-104.5 38.5q-70 0 -111 -38.5t-41 -104.5q0 -65 41 -104.5t111 -39.5z" />
    <glyph glyph-name="ogonek" unicode="&#x2db;" horiz-adv-x="579" 
d="M279 -506q-115 0 -146 96q-29 84 28 197.5t185 212.5h70q-118 -98 -173 -201.5t-30 -169.5q10 -32 35.5 -47.5t56.5 -15.5q75 0 129 57q12 8 17 -6l10 -29q4 -11 -2 -20q-77 -74 -180 -74z" />
    <glyph glyph-name="tilde" unicode="&#x2dc;" horiz-adv-x="688" 
d="M45 1233q-16 0 -16 16q0 93 39 143t114 50q41 0 78.5 -15t65.5 -37t54.5 -44t57.5 -37t64 -15q49 0 73.5 35.5t24.5 95.5q0 10 3 13.5t13 3.5h27q16 0 16 -17q0 -192 -151 -192q-40 0 -76.5 15t-64.5 36.5t-55 43.5t-59 37t-65 15q-47 0 -72.5 -35t-25.5 -96
q0 -16 -16 -16h-29z" />
    <glyph glyph-name="hungarumlaut" unicode="&#x2dd;" horiz-adv-x="872" 
d="M158 1204q-19 7 -6 27l206 229q18 24 41 17l31 -9q25 -8 10 -26l-231 -234q-18 -15 -33 -10zM510 1206q-23 6 -8 25l217 227q18 22 41 17l33 -9q29 -9 10 -28l-244 -228q-18 -18 -31 -10z" />
    <glyph glyph-name="gravecomb" unicode="&#x300;" 
d="M-498 1456q-24 11 -4 31l19 22q17 19 47 2l346 -219q18 -8 2 -26l-14 -17q-10 -12 -33 -2z" />
    <glyph glyph-name="acutecomb" unicode="&#x301;" 
d="M-449 1247q-22 -11 -32 2l-15 17q-8 10 -7 16t11 10l347 219q30 19 45 -2l20 -22q17 -20 -4 -31z" />
    <glyph glyph-name="uni0302" unicode="&#x302;" 
d="M-727 1233q-30 0 -12 18l272 232q18 15 25 18.5t24 3.5h12q12 0 16.5 -0.5t12.5 -5.5t19 -16l272 -232q18 -18 -12 -18h-39q-27 0 -41 14l-236 195l-235 -195q-16 -14 -41 -14h-37z" />
    <glyph glyph-name="tildecomb" unicode="&#x303;" 
d="M-643 1264q-16 0 -16 18q0 93 39 143t114 50q41 0 78.5 -15t65.5 -37t54.5 -44t57.5 -37t64 -15q49 0 73.5 34.5t24.5 94.5q0 19 16 19h27q16 0 16 -19q0 -192 -151 -192q-40 0 -76.5 15t-64.5 37t-55 43.5t-59 36.5t-65 15q-47 0 -72.5 -35t-25.5 -94q0 -18 -16 -18h-29
z" />
    <glyph glyph-name="uni0304" unicode="&#x304;" 
d="M-639 1327q-13 0 -18 5.5t-5 19.5v20q0 13 5.5 18t17.5 5h487q12 0 17.5 -5t5.5 -18v-20q0 -25 -23 -25h-487z" />
    <glyph glyph-name="uni0306" unicode="&#x306;" 
d="M-336 1241q-121 0 -194.5 56t-112.5 173q-6 17 10 23l35 12q20 6 25 -10q31 -96 86.5 -140t150.5 -44q94 0 149.5 44.5t88.5 139.5q5 15 22 10l35 -12q18 -6 12 -23q-39 -117 -112.5 -173t-194.5 -56z" />
    <glyph glyph-name="uni0307" unicode="&#x307;" 
d="M-256 1323q-33 0 -44 10t-11 43v13q0 32 11 42.5t44 10.5h10q33 0 44.5 -10.5t11.5 -42.5v-13q0 -32 -11.5 -42.5t-44.5 -10.5h-10z" />
    <glyph glyph-name="uni0308" unicode="&#x308;" 
d="M-688 1319q-31 0 -41 10t-10 41v10q0 30 10.5 41t40.5 11h8q30 0 41.5 -11t11.5 -41v-10q0 -29 -11 -40t-42 -11h-8zM-297 1319q-31 0 -42 10.5t-11 40.5v10q0 30 11 41t42 11h8q30 0 40.5 -11t10.5 -41v-10q0 -30 -10.5 -40.5t-40.5 -10.5h-8z" />
    <glyph glyph-name="uni030A" unicode="&#x30a;" 
d="M-272 1178q-93 0 -148 52.5t-55 141.5q0 88 55.5 140.5t147.5 52.5q89 0 141.5 -52.5t52.5 -140.5q0 -89 -52.5 -141.5t-141.5 -52.5zM-272 1229q66 0 104.5 38.5t38.5 104.5q0 65 -38.5 103t-104.5 38q-70 0 -111 -38t-41 -103q0 -66 41 -104.5t111 -38.5z" />
    <glyph glyph-name="uni030B" unicode="&#x30b;" 
d="M-715 1237q-19 5 -6 25l207 231q18 21 41 16l31 -10q27 -5 10 -26l-232 -232q-17 -17 -32 -10zM-362 1237q-24 6 -9 25l217 227q17 23 41 16l33 -8q31 -9 10 -27l-243 -229q-16 -16 -31 -10z" />
    <glyph glyph-name="uni030C" unicode="&#x30c;" 
d="M-377 1231q-17 0 -24 3.5t-25 18.5l-272 232q-18 18 10 18h39q25 0 41 -14l235 -195l236 195q14 14 41 14h39q30 0 10 -20l-270 -230q-11 -11 -19 -16t-12.5 -5.5t-16.5 -0.5h-12z" />
    <glyph glyph-name="uni0326" unicode="&#x326;" 
d="M-270 -504q-22 0 -19 21l82 299q1 14 8 19t23 5h37q31 0 22 -26l-96 -293q-8 -25 -31 -25h-26z" />
    <glyph glyph-name="uni0327" unicode="&#x327;" 
d="M-293 -504q-98 0 -172 45q-18 10 -18 33v27q0 7 3.5 10t10.5 -2q69 -53 166 -53q77 0 119.5 35.5t42.5 99.5q0 97 -140 100q-43 0 -77 -12q-15 -3 -20 4t1 24l72 193h59l-59 -166q24 6 63 6q83 0 131.5 -41.5t47.5 -111.5q-4 -93 -66.5 -142t-163.5 -49z" />
    <glyph glyph-name="uni0328" unicode="&#x328;" 
d="M-301 -506q-114 0 -145 96q-29 84 28 197.5t185 212.5h69q-118 -98 -173 -201.5t-30 -169.5q10 -32 36 -47.5t57 -15.5q75 0 129 57q11 7 16 -6l10 -29q4 -11 -2 -20q-77 -74 -180 -74z" />
    <glyph glyph-name="pi" unicode="&#x3c0;" horiz-adv-x="1302" 
d="M1081 -2q-14 -6 -20 -3t-12 17q-40 66 -55 129t-15 158v670h-561v-944q0 -25 -25 -25h-39q-24 0 -24 25v944q-69 -1 -116 -16t-112 -52q-12 -5 -20 -4t-14 12l-15 33q-12 22 13 33q72 42 139.5 58t163.5 16h841q25 0 25 -23v-33q0 -24 -25 -24h-143v-674q0 -84 12 -136
t47 -108q12 -27 -10 -37z" />
    <glyph glyph-name="uni0401" unicode="&#x401;" horiz-adv-x="1230" 
d="M442 1640q-26 0 -36.5 10t-10.5 36v14q0 26 10.5 36.5t36.5 10.5h13q28 0 37.5 -10t9.5 -37v-14q0 -27 -9 -36.5t-38 -9.5h-13zM836 1640q-29 0 -39.5 10t-10.5 36v14q0 27 10.5 37t39.5 10h10q26 0 36.5 -10.5t10.5 -36.5v-14q0 -26 -10.5 -36t-36.5 -10h-10zM225 0
q-13 0 -18.5 6t-5.5 21v1400q0 15 5.5 21t18.5 6h838q27 0 27 -27v-36q0 -25 -27 -25h-768v-584h678q26 0 26 -26v-37q0 -15 -5.5 -21t-20.5 -6h-678v-604h797q24 0 24 -25v-36q0 -15 -5.5 -21t-18.5 -6h-867z" />
    <glyph glyph-name="uni0401" unicode="&#x451;" horiz-adv-x="1230" 
d="M442 1640q-26 0 -36.5 10t-10.5 36v14q0 26 10.5 36.5t36.5 10.5h13q28 0 37.5 -10t9.5 -37v-14q0 -27 -9 -36.5t-38 -9.5h-13zM836 1640q-29 0 -39.5 10t-10.5 36v14q0 27 10.5 37t39.5 10h10q26 0 36.5 -10.5t10.5 -36.5v-14q0 -26 -10.5 -36t-36.5 -10h-10zM225 0
q-13 0 -18.5 6t-5.5 21v1400q0 15 5.5 21t18.5 6h838q27 0 27 -27v-36q0 -25 -27 -25h-768v-584h678q26 0 26 -26v-37q0 -15 -5.5 -21t-20.5 -6h-678v-604h797q24 0 24 -25v-36q0 -15 -5.5 -21t-18.5 -6h-867z" />
    <glyph glyph-name="uni0410" unicode="&#x410;" horiz-adv-x="1359" 
d="M76 0q-30 0 -19 25l568 1415q8 24 34 24h39q27 0 35 -24l567 -1415q14 -25 -18 -25h-37q-23 0 -32.5 4.5t-14.5 18.5l-180 452h-680l-180 -452q-6 -14 -15 -18.5t-32 -4.5h-35zM989 555l-291 725q-5 18 -9 37.5t-6.5 35.5t-2.5 17h-6q0 -2 -2 -17.5t-6 -34.5t-9 -36
l-290 -727h622z" />
    <glyph glyph-name="uni0410" unicode="&#x430;" horiz-adv-x="1359" 
d="M76 0q-30 0 -19 25l568 1415q8 24 34 24h39q27 0 35 -24l567 -1415q14 -25 -18 -25h-37q-23 0 -32.5 4.5t-14.5 18.5l-180 452h-680l-180 -452q-6 -14 -15 -18.5t-32 -4.5h-35zM989 555l-291 725q-5 18 -9 37.5t-6.5 35.5t-2.5 17h-6q0 -2 -2 -17.5t-6 -34.5t-9 -36
l-290 -727h622z" />
    <glyph glyph-name="uni0411" unicode="&#x411;" horiz-adv-x="1343" 
d="M225 0q-24 0 -24 25v1402q0 15 5.5 21t18.5 6h883q15 0 21 -6t6 -21v-36q0 -25 -27 -25h-813v-551h530q194 0 304 -107t110 -300q0 -192 -110.5 -300t-303.5 -108h-600zM815 88q154 0 240 84t86 236q0 153 -85.5 236t-240.5 83h-520v-639h520z" />
    <glyph glyph-name="uni0411" unicode="&#x431;" horiz-adv-x="1343" 
d="M225 0q-24 0 -24 25v1402q0 15 5.5 21t18.5 6h883q15 0 21 -6t6 -21v-36q0 -25 -27 -25h-813v-551h530q194 0 304 -107t110 -300q0 -192 -110.5 -300t-303.5 -108h-600zM815 88q154 0 240 84t86 236q0 153 -85.5 236t-240.5 83h-520v-639h520z" />
    <glyph glyph-name="uni0412" unicode="&#x412;" horiz-adv-x="1374" 
d="M225 0q-13 0 -18.5 6t-5.5 21v1400q0 15 5.5 21t18.5 6h584q183 0 283 -95t100 -272q0 -260 -211 -335v-4q127 -28 194.5 -119.5t67.5 -241.5q0 -185 -108.5 -286t-298.5 -101h-611zM799 784q144 0 220.5 74t76.5 219q0 142 -76 215.5t-221 73.5h-504v-582h504zM831 88
q150 0 231 78.5t81 228.5q0 147 -81 225t-231 78h-536v-610h536z" />
    <glyph glyph-name="uni0412" unicode="&#x432;" horiz-adv-x="1374" 
d="M225 0q-13 0 -18.5 6t-5.5 21v1400q0 15 5.5 21t18.5 6h584q183 0 283 -95t100 -272q0 -260 -211 -335v-4q127 -28 194.5 -119.5t67.5 -241.5q0 -185 -108.5 -286t-298.5 -101h-611zM799 784q144 0 220.5 74t76.5 219q0 142 -76 215.5t-221 73.5h-504v-582h504zM831 88
q150 0 231 78.5t81 228.5q0 147 -81 225t-231 78h-536v-610h536z" />
    <glyph glyph-name="uni0413" unicode="&#x413;" horiz-adv-x="1105" 
d="M225 0q-13 0 -18.5 6t-5.5 21v1400q0 15 5.5 21t18.5 6h789q13 0 18.5 -6t5.5 -21v-36q0 -25 -24 -25h-719v-1339q0 -27 -25 -27h-45z" />
    <glyph glyph-name="uni0413" unicode="&#x433;" horiz-adv-x="1105" 
d="M225 0q-13 0 -18.5 6t-5.5 21v1400q0 15 5.5 21t18.5 6h789q13 0 18.5 -6t5.5 -21v-36q0 -25 -24 -25h-719v-1339q0 -27 -25 -27h-45z" />
    <glyph glyph-name="uni0414" unicode="&#x414;" horiz-adv-x="1495" 
d="M84 -313q-14 0 -19.5 5.5t-5.5 20.5v350q0 25 25 25h86q36 26 61 51.5t59 92.5t54.5 158.5t35.5 253t15 372.5v411q0 27 25 27h807q15 0 20.5 -6t5.5 -21v-1339h140q15 0 20.5 -5.5t5.5 -19.5v-350q0 -15 -5.5 -20.5t-20.5 -5.5h-41q-27 0 -27 26v287h-1173v-287
q0 -15 -5.5 -20.5t-19.5 -5.5h-43zM1159 88v1278h-674v-350q0 -193 -12 -345.5t-30.5 -246.5t-46.5 -165t-52 -106t-55 -65h870z" />
    <glyph glyph-name="uni0414" unicode="&#x434;" horiz-adv-x="1495" 
d="M84 -313q-14 0 -19.5 5.5t-5.5 20.5v350q0 25 25 25h86q36 26 61 51.5t59 92.5t54.5 158.5t35.5 253t15 372.5v411q0 27 25 27h807q15 0 20.5 -6t5.5 -21v-1339h140q15 0 20.5 -5.5t5.5 -19.5v-350q0 -15 -5.5 -20.5t-20.5 -5.5h-41q-27 0 -27 26v287h-1173v-287
q0 -15 -5.5 -20.5t-19.5 -5.5h-43zM1159 88v1278h-674v-350q0 -193 -12 -345.5t-30.5 -246.5t-46.5 -165t-52 -106t-55 -65h870z" />
    <glyph glyph-name="uni0415" unicode="&#x415;" horiz-adv-x="1230" 
d="M225 0q-13 0 -18.5 6t-5.5 21v1400q0 15 5.5 21t18.5 6h838q27 0 27 -27v-36q0 -25 -27 -25h-768v-584h678q26 0 26 -26v-37q0 -15 -5.5 -21t-20.5 -6h-678v-604h797q24 0 24 -25v-36q0 -15 -5.5 -21t-18.5 -6h-867z" />
    <glyph glyph-name="uni0415" unicode="&#x435;" horiz-adv-x="1230" 
d="M225 0q-13 0 -18.5 6t-5.5 21v1400q0 15 5.5 21t18.5 6h838q27 0 27 -27v-36q0 -25 -27 -25h-768v-584h678q26 0 26 -26v-37q0 -15 -5.5 -21t-20.5 -6h-678v-604h797q24 0 24 -25v-36q0 -15 -5.5 -21t-18.5 -6h-867z" />
    <glyph glyph-name="uni0416" unicode="&#x416;" horiz-adv-x="1918" 
d="M92 0q-14 0 -18.5 8t2.5 19l260 510q43 85 94 136t125 75l-457 679q-8 11 -4 19t19 8h45q24 0 34 -4t19 -18l438 -656q29 4 90 4h172v647q0 15 6 21t21 6h43q25 0 25 -27v-647h172q63 0 90 -4l440 656q9 15 18 18.5t33 3.5h47q15 0 19 -8t-4 -19l-459 -679
q74 -24 126 -75t95 -136l258 -510q8 -11 4.5 -19t-18.5 -8h-41q-24 0 -33.5 4.5t-17.5 18.5l-240 477q-53 105 -122.5 149.5t-194.5 44.5h-172v-667q0 -27 -25 -27h-43q-15 0 -21 6t-6 21v667h-172q-85 0 -143.5 -21t-97.5 -61.5t-76 -111.5l-238 -477q-8 -14 -18 -18.5
t-33 -4.5h-41z" />
    <glyph glyph-name="uni0416" unicode="&#x436;" horiz-adv-x="1918" 
d="M92 0q-14 0 -18.5 8t2.5 19l260 510q43 85 94 136t125 75l-457 679q-8 11 -4 19t19 8h45q24 0 34 -4t19 -18l438 -656q29 4 90 4h172v647q0 15 6 21t21 6h43q25 0 25 -27v-647h172q63 0 90 -4l440 656q9 15 18 18.5t33 3.5h47q15 0 19 -8t-4 -19l-459 -679
q74 -24 126 -75t95 -136l258 -510q8 -11 4.5 -19t-18.5 -8h-41q-24 0 -33.5 4.5t-17.5 18.5l-240 477q-53 105 -122.5 149.5t-194.5 44.5h-172v-667q0 -27 -25 -27h-43q-15 0 -21 6t-6 21v667h-172q-85 0 -143.5 -21t-97.5 -61.5t-76 -111.5l-238 -477q-8 -14 -18 -18.5
t-33 -4.5h-41z" />
    <glyph glyph-name="uni0417" unicode="&#x417;" horiz-adv-x="1318" 
d="M678 -29q-245 0 -376.5 91.5t-184.5 273.5q-8 25 16 33l39 14q23 10 35 -16q32 -106 85 -171t148 -101t238 -36q207 0 309.5 87.5t102.5 248.5q0 141 -78 224t-221 83h-385q-27 0 -27 25v35q0 15 6 20.5t21 5.5h374q136 0 203.5 81t67.5 204q0 156 -96 239t-281 83
q-201 0 -304.5 -71t-150.5 -228q-10 -23 -35 -15l-39 13q-24 8 -16 34q35 119 99.5 195.5t176.5 118t273 41.5q228 0 347.5 -105.5t119.5 -298.5q0 -114 -49 -202.5t-148 -124.5q121 -37 180.5 -130.5t59.5 -228.5q0 -200 -127.5 -311t-382.5 -111z" />
    <glyph glyph-name="uni0417" unicode="&#x437;" horiz-adv-x="1318" 
d="M678 -29q-245 0 -376.5 91.5t-184.5 273.5q-8 25 16 33l39 14q23 10 35 -16q32 -106 85 -171t148 -101t238 -36q207 0 309.5 87.5t102.5 248.5q0 141 -78 224t-221 83h-385q-27 0 -27 25v35q0 15 6 20.5t21 5.5h374q136 0 203.5 81t67.5 204q0 156 -96 239t-281 83
q-201 0 -304.5 -71t-150.5 -228q-10 -23 -35 -15l-39 13q-24 8 -16 34q35 119 99.5 195.5t176.5 118t273 41.5q228 0 347.5 -105.5t119.5 -298.5q0 -114 -49 -202.5t-148 -124.5q121 -37 180.5 -130.5t59.5 -228.5q0 -200 -127.5 -311t-382.5 -111z" />
    <glyph glyph-name="uni0418" unicode="&#x418;" horiz-adv-x="1478" 
d="M225 0q-13 0 -18.5 6t-5.5 21v1400q0 15 5.5 21t18.5 6h45q25 0 25 -27v-876q0 -216 -14 -422h4q93 157 241 375l656 936q9 14 28 14h43q25 0 25 -27v-1400q0 -27 -25 -27h-45q-13 0 -18.5 6t-5.5 21v905q0 210 16 393h-4q-64 -107 -225 -346l-672 -963q-11 -16 -31 -16
h-43z" />
    <glyph glyph-name="uni0418" unicode="&#x438;" horiz-adv-x="1478" 
d="M225 0q-13 0 -18.5 6t-5.5 21v1400q0 15 5.5 21t18.5 6h45q25 0 25 -27v-876q0 -216 -14 -422h4q93 157 241 375l656 936q9 14 28 14h43q25 0 25 -27v-1400q0 -27 -25 -27h-45q-13 0 -18.5 6t-5.5 21v905q0 210 16 393h-4q-64 -107 -225 -346l-672 -963q-11 -16 -31 -16
h-43z" />
    <glyph glyph-name="uni0419" unicode="&#x419;" horiz-adv-x="1415" 
d="M748 1577q-129 0 -209 54.5t-115 168.5q-6 17 12 23l35 12q22 5 27 -10q28 -93 88 -136.5t162 -43.5t162.5 43.5t88.5 136.5q5 16 23 10l39 -12q18 -6 12 -23q-35 -114 -114.5 -168.5t-210.5 -54.5zM225 0q-13 0 -18.5 6t-5.5 21v1400q0 15 5.5 21t18.5 6h45q25 0 25 -27
v-876q0 -216 -14 -422h4q93 157 241 375l656 936q9 14 28 14h43q25 0 25 -27v-1400q0 -27 -25 -27h-45q-13 0 -18.5 6t-5.5 21v905q0 210 16 393h-4q-64 -107 -225 -346l-672 -963q-11 -16 -31 -16h-43z" />
    <glyph glyph-name="uni0419" unicode="&#x439;" horiz-adv-x="1415" 
d="M748 1577q-129 0 -209 54.5t-115 168.5q-6 17 12 23l35 12q22 5 27 -10q28 -93 88 -136.5t162 -43.5t162.5 43.5t88.5 136.5q5 16 23 10l39 -12q18 -6 12 -23q-35 -114 -114.5 -168.5t-210.5 -54.5zM225 0q-13 0 -18.5 6t-5.5 21v1400q0 15 5.5 21t18.5 6h45q25 0 25 -27
v-876q0 -216 -14 -422h4q93 157 241 375l656 936q9 14 28 14h43q25 0 25 -27v-1400q0 -27 -25 -27h-45q-13 0 -18.5 6t-5.5 21v905q0 210 16 393h-4q-64 -107 -225 -346l-672 -963q-11 -16 -31 -16h-43z" />
    <glyph glyph-name="uni041A" unicode="&#x41a;" horiz-adv-x="1292" 
d="M225 0q-13 0 -18.5 6t-5.5 21v1400q0 15 5.5 21t18.5 6h45q25 0 25 -27v-647h305l483 652q11 14 21 18t33 4h45q33 0 14 -27l-498 -665q92 -21 152.5 -75t107.5 -150l261 -510q6 -11 2 -19t-17 -8h-41q-24 0 -34.5 4.5t-18.5 18.5l-238 477q-37 71 -76 111.5t-97.5 61.5
t-143.5 21h-260v-667q0 -27 -25 -27h-45z" />
    <glyph glyph-name="uni041A" unicode="&#x43a;" horiz-adv-x="1292" 
d="M225 0q-13 0 -18.5 6t-5.5 21v1400q0 15 5.5 21t18.5 6h45q25 0 25 -27v-647h305l483 652q11 14 21 18t33 4h45q33 0 14 -27l-498 -665q92 -21 152.5 -75t107.5 -150l261 -510q6 -11 2 -19t-17 -8h-41q-24 0 -34.5 4.5t-18.5 18.5l-238 477q-37 71 -76 111.5t-97.5 61.5
t-143.5 21h-260v-667q0 -27 -25 -27h-45z" />
    <glyph glyph-name="uni041B" unicode="&#x41b;" horiz-adv-x="1388" 
d="M96 -25q-21 -12 -35 11l-18 39q-13 23 12 34q35 18 52.5 28t47.5 31.5t45 42t37.5 57.5t34 80t25.5 107t21 141.5t11.5 180t4.5 225.5v475q0 15 5.5 21t20.5 6h803q25 0 25 -27v-1400q0 -27 -25 -27h-45q-13 0 -18.5 6t-5.5 21v1339h-666v-414q0 -236 -18.5 -404.5
t-42.5 -262t-75 -160t-86 -89.5t-106 -59q-3 -1 -4 -2z" />
    <glyph glyph-name="uni041B" unicode="&#x43b;" horiz-adv-x="1388" 
d="M96 -25q-21 -12 -35 11l-18 39q-13 23 12 34q35 18 52.5 28t47.5 31.5t45 42t37.5 57.5t34 80t25.5 107t21 141.5t11.5 180t4.5 225.5v475q0 15 5.5 21t20.5 6h803q25 0 25 -27v-1400q0 -27 -25 -27h-45q-13 0 -18.5 6t-5.5 21v1339h-666v-414q0 -236 -18.5 -404.5
t-42.5 -262t-75 -160t-86 -89.5t-106 -59q-3 -1 -4 -2z" />
    <glyph glyph-name="uni041C" unicode="&#x41c;" horiz-adv-x="1693" 
d="M225 0q-13 0 -18.5 6t-5.5 21v1400q0 15 5.5 21t18.5 6h35q16 0 23.5 -4.5t15.5 -17.5l549 -969l543 967q13 24 39 24h36q15 0 21 -6t6 -21v-1400q0 -15 -6 -21t-21 -6h-39q-15 0 -20.5 6t-5.5 21l2 938q0 175 14 342h-6q-66 -141 -151 -291l-365 -647q-14 -23 -33 -23
h-28q-13 0 -20 4.5t-15 18.5l-369 655q-60 100 -147 285h-4q12 -181 12 -344v-938q0 -15 -6 -21t-21 -6h-39z" />
    <glyph glyph-name="uni041C" unicode="&#x43c;" horiz-adv-x="1693" 
d="M225 0q-13 0 -18.5 6t-5.5 21v1400q0 15 5.5 21t18.5 6h35q16 0 23.5 -4.5t15.5 -17.5l549 -969l543 967q13 24 39 24h36q15 0 21 -6t6 -21v-1400q0 -15 -6 -21t-21 -6h-39q-15 0 -20.5 6t-5.5 21l2 938q0 175 14 342h-6q-66 -141 -151 -291l-365 -647q-14 -23 -33 -23
h-28q-13 0 -20 4.5t-15 18.5l-369 655q-60 100 -147 285h-4q12 -181 12 -344v-938q0 -15 -6 -21t-21 -6h-39z" />
    <glyph glyph-name="uni041D" unicode="&#x41d;" horiz-adv-x="1454" 
d="M225 0q-13 0 -18.5 6t-5.5 21v1400q0 15 5.5 21t18.5 6h45q25 0 25 -27v-645h864v645q0 15 6 21t21 6h43q26 0 26 -27v-1400q0 -27 -26 -27h-43q-15 0 -21 6t-6 21v665h-864v-665q0 -27 -25 -27h-45z" />
    <glyph glyph-name="uni041D" unicode="&#x43d;" horiz-adv-x="1454" 
d="M225 0q-13 0 -18.5 6t-5.5 21v1400q0 15 5.5 21t18.5 6h45q25 0 25 -27v-645h864v645q0 15 6 21t21 6h43q26 0 26 -27v-1400q0 -27 -26 -27h-43q-15 0 -21 6t-6 21v665h-864v-665q0 -27 -25 -27h-45z" />
    <glyph glyph-name="uni041E" unicode="&#x41e;" horiz-adv-x="1415" 
d="M709 -29q-267 0 -410 134t-143 372v500q0 238 143 372t410 134q265 0 408 -134t143 -372v-500q0 -238 -143 -372t-408 -134zM709 59q220 0 338 110.5t118 309.5v496q0 199 -118 309.5t-338 110.5q-222 0 -339.5 -110.5t-117.5 -309.5v-496q0 -199 117.5 -309.5
t339.5 -110.5z" />
    <glyph glyph-name="uni041E" unicode="&#x43e;" horiz-adv-x="1415" 
d="M709 -29q-267 0 -410 134t-143 372v500q0 238 143 372t410 134q265 0 408 -134t143 -372v-500q0 -238 -143 -372t-408 -134zM709 59q220 0 338 110.5t118 309.5v496q0 199 -118 309.5t-338 110.5q-222 0 -339.5 -110.5t-117.5 -309.5v-496q0 -199 117.5 -309.5
t339.5 -110.5z" />
    <glyph glyph-name="uni041F" unicode="&#x41f;" horiz-adv-x="1441" 
d="M225 0q-13 0 -18.5 6t-5.5 21v1400q0 15 5.5 21t18.5 6h989q15 0 21 -6t6 -21v-1400q0 -15 -6 -21t-21 -6h-43q-13 0 -18.5 6t-5.5 21v1339h-852v-1339q0 -27 -25 -27h-45z" />
    <glyph glyph-name="uni041F" unicode="&#x43f;" horiz-adv-x="1441" 
d="M225 0q-13 0 -18.5 6t-5.5 21v1400q0 15 5.5 21t18.5 6h989q15 0 21 -6t6 -21v-1400q0 -15 -6 -21t-21 -6h-43q-13 0 -18.5 6t-5.5 21v1339h-852v-1339q0 -27 -25 -27h-45z" />
    <glyph glyph-name="uni0420" unicode="&#x420;" horiz-adv-x="1329" 
d="M225 0q-13 0 -18.5 6t-5.5 21v1400q0 15 5.5 21t18.5 6h553q209 0 331 -118.5t122 -327.5q0 -206 -122.5 -324.5t-330.5 -118.5h-483v-538q0 -27 -25 -27h-45zM768 655q169 0 265.5 93t96.5 260q0 168 -96.5 263t-265.5 95h-473v-711h473z" />
    <glyph glyph-name="uni0420" unicode="&#x440;" horiz-adv-x="1329" 
d="M225 0q-13 0 -18.5 6t-5.5 21v1400q0 15 5.5 21t18.5 6h553q209 0 331 -118.5t122 -327.5q0 -206 -122.5 -324.5t-330.5 -118.5h-483v-538q0 -27 -25 -27h-45zM768 655q169 0 265.5 93t96.5 260q0 168 -96.5 263t-265.5 95h-473v-711h473z" />
    <glyph glyph-name="uni0421" unicode="&#x421;" horiz-adv-x="1361" 
d="M709 -29q-264 0 -408.5 134.5t-144.5 371.5v502q0 237 142.5 370.5t410.5 133.5q230 0 356.5 -88.5t179.5 -268.5q5 -15 1.5 -21.5t-17.5 -12.5l-39 -13q-13 -4 -21 -0.5t-14 17.5q-45 156 -148.5 227.5t-297.5 71.5q-224 0 -340.5 -109.5t-116.5 -304.5v-506
q0 -195 118 -305.5t339 -110.5q197 0 300.5 75.5t151.5 234.5q8 24 33 16l39 -14q26 -9 18 -35q-55 -182 -181 -273.5t-361 -91.5z" />
    <glyph glyph-name="uni0421" unicode="&#x441;" horiz-adv-x="1361" 
d="M709 -29q-264 0 -408.5 134.5t-144.5 371.5v502q0 237 142.5 370.5t410.5 133.5q230 0 356.5 -88.5t179.5 -268.5q5 -15 1.5 -21.5t-17.5 -12.5l-39 -13q-13 -4 -21 -0.5t-14 17.5q-45 156 -148.5 227.5t-297.5 71.5q-224 0 -340.5 -109.5t-116.5 -304.5v-506
q0 -195 118 -305.5t339 -110.5q197 0 300.5 75.5t151.5 234.5q8 24 33 16l39 -14q26 -9 18 -35q-55 -182 -181 -273.5t-361 -91.5z" />
    <glyph glyph-name="uni0422" unicode="&#x422;" horiz-adv-x="1181" 
d="M569 0q-13 0 -18.5 6t-5.5 21v1339h-461q-25 0 -25 25v36q0 27 25 27h1014q13 0 18.5 -6t5.5 -21v-36q0 -25 -24 -25h-459v-1339q0 -15 -6 -21t-21 -6h-43z" />
    <glyph glyph-name="uni0422" unicode="&#x442;" horiz-adv-x="1181" 
d="M569 0q-13 0 -18.5 6t-5.5 21v1339h-461q-25 0 -25 25v36q0 27 25 27h1014q13 0 18.5 -6t5.5 -21v-36q0 -25 -24 -25h-459v-1339q0 -15 -6 -21t-21 -6h-43z" />
    <glyph glyph-name="uni0423" unicode="&#x423;" horiz-adv-x="1257" 
d="M401 0q-27 0 -14 27l199 385l-539 1015q-6 11 -2.5 19t16.5 8h45q23 0 32 -4t18 -18l481 -918l463 918q7 15 15 18.5t30 3.5h45q26 0 14 -27l-708 -1404q-8 -14 -16.5 -18.5t-28.5 -4.5h-50z" />
    <glyph glyph-name="uni0423" unicode="&#x443;" horiz-adv-x="1257" 
d="M401 0q-27 0 -14 27l199 385l-539 1015q-6 11 -2.5 19t16.5 8h45q23 0 32 -4t18 -18l481 -918l463 918q7 15 15 18.5t30 3.5h45q26 0 14 -27l-708 -1404q-8 -14 -16.5 -18.5t-28.5 -4.5h-50z" />
    <glyph glyph-name="uni0424" unicode="&#x424;" horiz-adv-x="1751" 
d="M854 -41q-27 0 -27 25v149h-139q-267 0 -410 137t-143 383v158q0 246 143 383t410 137h139v148q0 26 27 26h43q15 0 21 -5.5t6 -20.5v-148h139q267 0 410 -137t143 -383v-158q0 -246 -143 -383t-410 -137h-139v-149q0 -25 -27 -25h-43zM827 219v1026h-139
q-224 0 -341.5 -113.5t-117.5 -318.5v-162q0 -205 117.5 -318.5t341.5 -113.5h139zM1063 219q224 0 341.5 113.5t117.5 318.5v162q0 205 -117.5 318.5t-341.5 113.5h-139v-1026h139z" />
    <glyph glyph-name="uni0424" unicode="&#x444;" horiz-adv-x="1751" 
d="M854 -41q-27 0 -27 25v149h-139q-267 0 -410 137t-143 383v158q0 246 143 383t410 137h139v148q0 26 27 26h43q15 0 21 -5.5t6 -20.5v-148h139q267 0 410 -137t143 -383v-158q0 -246 -143 -383t-410 -137h-139v-149q0 -25 -27 -25h-43zM827 219v1026h-139
q-224 0 -341.5 -113.5t-117.5 -318.5v-162q0 -205 117.5 -318.5t341.5 -113.5h139zM1063 219q224 0 341.5 113.5t117.5 318.5v162q0 205 -117.5 318.5t-341.5 113.5h-139v-1026h139z" />
    <glyph glyph-name="uni0425" unicode="&#x425;" horiz-adv-x="1306" 
d="M80 0q-16 0 -19 9.5t7 21.5l524 706l-510 693q-6 9 -2.5 16.5t16.5 7.5h51q22 0 30.5 -4t19.5 -18l456 -619l457 619q11 14 19 18t28 4h53q13 0 17 -7.5t-2 -16.5l-512 -691l526 -708q9 -12 7 -21.5t-17 -9.5h-55q-22 0 -31 4t-19 19l-475 643l-471 -643q-9 -15 -17 -19
t-30 -4h-51z" />
    <glyph glyph-name="uni0425" unicode="&#x445;" horiz-adv-x="1306" 
d="M80 0q-16 0 -19 9.5t7 21.5l524 706l-510 693q-6 9 -2.5 16.5t16.5 7.5h51q22 0 30.5 -4t19.5 -18l456 -619l457 619q11 14 19 18t28 4h53q13 0 17 -7.5t-2 -16.5l-512 -691l526 -708q9 -12 7 -21.5t-17 -9.5h-55q-22 0 -31 4t-19 19l-475 643l-471 -643q-9 -15 -17 -19
t-30 -4h-51z" />
    <glyph glyph-name="uni0426" unicode="&#x426;" horiz-adv-x="1476" 
d="M1333 -313q-15 0 -20.5 5.5t-5.5 20.5v287h-1082q-13 0 -18.5 6t-5.5 21v1400q0 15 5.5 21t18.5 6h45q25 0 25 -27v-1339h844v1339q0 15 5.5 21t20.5 6h43q27 0 27 -27v-1339h137q27 0 27 -25v-350q0 -15 -6 -20.5t-21 -5.5h-39z" />
    <glyph glyph-name="uni0426" unicode="&#x446;" horiz-adv-x="1476" 
d="M1333 -313q-15 0 -20.5 5.5t-5.5 20.5v287h-1082q-13 0 -18.5 6t-5.5 21v1400q0 15 5.5 21t18.5 6h45q25 0 25 -27v-1339h844v1339q0 15 5.5 21t20.5 6h43q27 0 27 -27v-1339h137q27 0 27 -25v-350q0 -15 -6 -20.5t-21 -5.5h-39z" />
    <glyph glyph-name="uni0427" unicode="&#x427;" horiz-adv-x="1339" 
d="M1069 0q-25 0 -25 27v575q-186 -45 -415 -45q-273 0 -391.5 126t-118.5 376v368q0 15 5.5 21t18.5 6h43q15 0 21 -6t6 -21v-368q0 -104 21.5 -178.5t70 -128.5t130 -80.5t198.5 -26.5q217 0 411 47v735q0 27 25 27h45q25 0 25 -27v-1400q0 -27 -25 -27h-45z" />
    <glyph glyph-name="uni0427" unicode="&#x447;" horiz-adv-x="1339" 
d="M1069 0q-25 0 -25 27v575q-186 -45 -415 -45q-273 0 -391.5 126t-118.5 376v368q0 15 5.5 21t18.5 6h43q15 0 21 -6t6 -21v-368q0 -104 21.5 -178.5t70 -128.5t130 -80.5t198.5 -26.5q217 0 411 47v735q0 27 25 27h45q25 0 25 -27v-1400q0 -27 -25 -27h-45z" />
    <glyph glyph-name="uni0428" unicode="&#x428;" horiz-adv-x="1914" 
d="M225 0q-13 0 -18.5 6t-5.5 21v1400q0 15 5.5 21t18.5 6h45q25 0 25 -27v-1339h616v1339q0 27 25 27h43q15 0 21 -6t6 -21v-1339h614v1339q0 15 6 21t21 6h43q15 0 20.5 -6t5.5 -21v-1400q0 -15 -5.5 -21t-20.5 -6h-1465z" />
    <glyph glyph-name="uni0428" unicode="&#x448;" horiz-adv-x="1914" 
d="M225 0q-13 0 -18.5 6t-5.5 21v1400q0 15 5.5 21t18.5 6h45q25 0 25 -27v-1339h616v1339q0 27 25 27h43q15 0 21 -6t6 -21v-1339h614v1339q0 15 6 21t21 6h43q15 0 20.5 -6t5.5 -21v-1400q0 -15 -5.5 -21t-20.5 -6h-1465z" />
    <glyph glyph-name="uni0429" unicode="&#x429;" horiz-adv-x="1957" 
d="M1817 -313q-14 0 -19.5 5.5t-5.5 20.5v287h-1567q-13 0 -18.5 6t-5.5 21v1400q0 15 5.5 21t18.5 6h45q25 0 25 -27v-1339h616v1339q0 27 25 27h43q15 0 21 -6t6 -21v-1339h614v1339q0 15 6 21t21 6h43q15 0 20.5 -6t5.5 -21v-1339h142q15 0 20.5 -5.5t5.5 -19.5v-350
q0 -15 -5.5 -20.5t-20.5 -5.5h-41z" />
    <glyph glyph-name="uni0429" unicode="&#x449;" horiz-adv-x="1957" 
d="M1817 -313q-14 0 -19.5 5.5t-5.5 20.5v287h-1567q-13 0 -18.5 6t-5.5 21v1400q0 15 5.5 21t18.5 6h45q25 0 25 -27v-1339h616v1339q0 27 25 27h43q15 0 21 -6t6 -21v-1339h614v1339q0 15 6 21t21 6h43q15 0 20.5 -6t5.5 -21v-1339h142q15 0 20.5 -5.5t5.5 -19.5v-350
q0 -15 -5.5 -20.5t-20.5 -5.5h-41z" />
    <glyph glyph-name="uni042A" unicode="&#x42a;" horiz-adv-x="1542" 
d="M438 0q-13 0 -18.5 6t-5.5 21v1339h-330q-27 0 -27 25v36q0 27 27 27h399q25 0 25 -27v-538h483q208 0 330.5 -118.5t122.5 -324.5q0 -209 -122 -327.5t-331 -118.5h-553zM983 88q168 0 265.5 95t97.5 263q0 166 -97.5 259.5t-265.5 93.5h-475v-711h475z" />
    <glyph glyph-name="uni042A" unicode="&#x44a;" horiz-adv-x="1542" 
d="M438 0q-13 0 -18.5 6t-5.5 21v1339h-330q-27 0 -27 25v36q0 27 27 27h399q25 0 25 -27v-538h483q208 0 330.5 -118.5t122.5 -324.5q0 -209 -122 -327.5t-331 -118.5h-553zM983 88q168 0 265.5 95t97.5 263q0 166 -97.5 259.5t-265.5 93.5h-475v-711h475z" />
    <glyph glyph-name="uni042B" unicode="&#x42b;" horiz-adv-x="1787" 
d="M225 0q-13 0 -18.5 6t-5.5 21v1400q0 15 5.5 21t18.5 6h45q25 0 25 -27v-538h483q208 0 330.5 -118.5t122.5 -324.5q0 -209 -122 -327.5t-331 -118.5h-553zM1518 0q-25 0 -25 27v1400q0 27 25 27h45q13 0 18.5 -6t5.5 -21v-1400q0 -15 -5.5 -21t-18.5 -6h-45zM768 88
q169 0 265.5 95t96.5 263q0 167 -96.5 260t-265.5 93h-473v-711h473z" />
    <glyph glyph-name="uni042B" unicode="&#x44b;" horiz-adv-x="1787" 
d="M225 0q-13 0 -18.5 6t-5.5 21v1400q0 15 5.5 21t18.5 6h45q25 0 25 -27v-538h483q208 0 330.5 -118.5t122.5 -324.5q0 -209 -122 -327.5t-331 -118.5h-553zM1518 0q-25 0 -25 27v1400q0 27 25 27h45q13 0 18.5 -6t5.5 -21v-1400q0 -15 -5.5 -21t-18.5 -6h-45zM768 88
q169 0 265.5 95t96.5 263q0 167 -96.5 260t-265.5 93h-473v-711h473z" />
    <glyph glyph-name="uni042C" unicode="&#x42c;" horiz-adv-x="1329" 
d="M225 0q-13 0 -18.5 6t-5.5 21v1400q0 15 5.5 21t18.5 6h45q25 0 25 -27v-538h483q208 0 330.5 -118.5t122.5 -324.5q0 -209 -122 -327.5t-331 -118.5h-553zM768 88q169 0 265.5 95t96.5 263q0 167 -96.5 260t-265.5 93h-473v-711h473z" />
    <glyph glyph-name="uni042C" unicode="&#x44c;" horiz-adv-x="1329" 
d="M225 0q-13 0 -18.5 6t-5.5 21v1400q0 15 5.5 21t18.5 6h45q25 0 25 -27v-538h483q208 0 330.5 -118.5t122.5 -324.5q0 -209 -122 -327.5t-331 -118.5h-553zM768 88q169 0 265.5 95t96.5 263q0 167 -96.5 260t-265.5 93h-473v-711h473z" />
    <glyph glyph-name="uni042D" unicode="&#x42d;" horiz-adv-x="1372" 
d="M664 -29q-160 0 -270.5 44t-173.5 122t-99 199q-8 25 16 33l39 14q26 11 35 -16q32 -105 84.5 -171t143.5 -101.5t225 -35.5q220 0 337 109.5t117 304.5v219h-669q-27 0 -27 25v37q0 26 27 26h669v203q0 196 -115.5 304t-338.5 108q-195 0 -298.5 -71.5t-150.5 -227.5
q-8 -23 -33 -15l-39 13q-26 9 -18 34q54 179 181 267t358 88q268 0 410.5 -132.5t142.5 -369.5v-506q0 -237 -144 -370.5t-409 -133.5z" />
    <glyph glyph-name="uni042D" unicode="&#x44d;" horiz-adv-x="1372" 
d="M664 -29q-160 0 -270.5 44t-173.5 122t-99 199q-8 25 16 33l39 14q26 11 35 -16q32 -105 84.5 -171t143.5 -101.5t225 -35.5q220 0 337 109.5t117 304.5v219h-669q-27 0 -27 25v37q0 26 27 26h669v203q0 196 -115.5 304t-338.5 108q-195 0 -298.5 -71.5t-150.5 -227.5
q-8 -23 -33 -15l-39 13q-26 9 -18 34q54 179 181 267t358 88q268 0 410.5 -132.5t142.5 -369.5v-506q0 -237 -144 -370.5t-409 -133.5z" />
    <glyph glyph-name="uni042E" unicode="&#x42e;" horiz-adv-x="1933" 
d="M1233 -29q-264 0 -404.5 133t-140.5 369v219h-393v-665q0 -27 -25 -27h-45q-13 0 -18.5 6t-5.5 21v1400q0 15 5.5 21t18.5 6h45q25 0 25 -27v-645h393v199q0 236 140.5 369t404.5 133q263 0 404 -133t141 -369v-508q0 -236 -141 -369t-404 -133zM1233 59
q217 0 332.5 109.5t115.5 306.5v504q0 197 -115.5 306.5t-332.5 109.5q-219 0 -335 -109.5t-116 -306.5v-504q0 -197 116 -306.5t335 -109.5z" />
    <glyph glyph-name="uni042E" unicode="&#x44e;" horiz-adv-x="1933" 
d="M1233 -29q-264 0 -404.5 133t-140.5 369v219h-393v-665q0 -27 -25 -27h-45q-13 0 -18.5 6t-5.5 21v1400q0 15 5.5 21t18.5 6h45q25 0 25 -27v-645h393v199q0 236 140.5 369t404.5 133q263 0 404 -133t141 -369v-508q0 -236 -141 -369t-404 -133zM1233 59
q217 0 332.5 109.5t115.5 306.5v504q0 197 -115.5 306.5t-332.5 109.5q-219 0 -335 -109.5t-116 -306.5v-504q0 -197 116 -306.5t335 -109.5z" />
    <glyph glyph-name="uni042F" unicode="&#x42f;" horiz-adv-x="1372" 
d="M127 0q-13 0 -16.5 8t2.5 19l219 454q60 127 153 168q-163 19 -252.5 120.5t-89.5 274.5q0 194 110 302t306 108h588q15 0 21 -6t6 -21v-1400q0 -15 -6 -21t-21 -6h-43q-15 0 -21 6t-6 21v612h-344q-126 0 -195 -44.5t-120 -150.5l-197 -421q-8 -14 -18.5 -18.5
t-34.5 -4.5h-41zM1077 727v639h-510q-155 0 -240 -84t-85 -238q0 -153 85 -235t240 -82h510z" />
    <glyph glyph-name="uni042F" unicode="&#x44f;" horiz-adv-x="1372" 
d="M127 0q-13 0 -16.5 8t2.5 19l219 454q60 127 153 168q-163 19 -252.5 120.5t-89.5 274.5q0 194 110 302t306 108h588q15 0 21 -6t6 -21v-1400q0 -15 -6 -21t-21 -6h-43q-15 0 -21 6t-6 21v612h-344q-126 0 -195 -44.5t-120 -150.5l-197 -421q-8 -14 -18.5 -18.5
t-34.5 -4.5h-41zM1077 727v639h-510q-155 0 -240 -84t-85 -238q0 -153 85 -235t240 -82h510z" />
    <glyph glyph-name="Wgrave" unicode="&#x1e80;" horiz-adv-x="1847" 
d="M721 1776q-21 10 -4 30l20 23q16 18 45 4l355 -209q17 -11 2 -29l-15 -16q-10 -13 -32 -2zM496 0q-27 0 -35 23l-379 1407q-9 24 16 24h52q17 0 24 -4.5t10 -17.5l293 -1102q7 -30 21 -100.5t20 -94.5h4q13 68 43 193l305 1071q7 24 37 24h41q30 0 35 -24l303 -1073
q20 -66 45 -191h6q7 43 37 189l293 1108q3 13 10 17.5t25 4.5h47q22 0 16 -24l-381 -1405q-5 -25 -34 -25h-41q-27 0 -35 23l-303 1079q-21 76 -43 186h-6q-14 -73 -45 -186l-306 -1077q-5 -25 -34 -25h-41z" />
    <glyph glyph-name="Wgrave" unicode="&#x1e81;" horiz-adv-x="1847" 
d="M721 1776q-21 10 -4 30l20 23q16 18 45 4l355 -209q17 -11 2 -29l-15 -16q-10 -13 -32 -2zM496 0q-27 0 -35 23l-379 1407q-9 24 16 24h52q17 0 24 -4.5t10 -17.5l293 -1102q7 -30 21 -100.5t20 -94.5h4q13 68 43 193l305 1071q7 24 37 24h41q30 0 35 -24l303 -1073
q20 -66 45 -191h6q7 43 37 189l293 1108q3 13 10 17.5t25 4.5h47q22 0 16 -24l-381 -1405q-5 -25 -34 -25h-41q-27 0 -35 23l-303 1079q-21 76 -43 186h-6q-14 -73 -45 -186l-306 -1077q-5 -25 -34 -25h-41z" />
    <glyph glyph-name="Wacute" unicode="&#x1e82;" horiz-adv-x="1847" 
d="M768 1567q-23 -8 -33 2l-14 16q-14 19 4 29l346 219q31 15 45 -4l21 -23q17 -20 -4 -30zM496 0q-27 0 -35 23l-379 1407q-9 24 16 24h52q17 0 24 -4.5t10 -17.5l293 -1102q7 -30 21 -100.5t20 -94.5h4q13 68 43 193l305 1071q7 24 37 24h41q30 0 35 -24l303 -1073
q20 -66 45 -191h6q7 43 37 189l293 1108q3 13 10 17.5t25 4.5h47q22 0 16 -24l-381 -1405q-5 -25 -34 -25h-41q-27 0 -35 23l-303 1079q-21 76 -43 186h-6q-14 -73 -45 -186l-306 -1077q-5 -25 -34 -25h-41z" />
    <glyph glyph-name="Wacute" unicode="&#x1e83;" horiz-adv-x="1847" 
d="M768 1567q-23 -8 -33 2l-14 16q-14 19 4 29l346 219q31 15 45 -4l21 -23q17 -20 -4 -30zM496 0q-27 0 -35 23l-379 1407q-9 24 16 24h52q17 0 24 -4.5t10 -17.5l293 -1102q7 -30 21 -100.5t20 -94.5h4q13 68 43 193l305 1071q7 24 37 24h41q30 0 35 -24l303 -1073
q20 -66 45 -191h6q7 43 37 189l293 1108q3 13 10 17.5t25 4.5h47q22 0 16 -24l-381 -1405q-5 -25 -34 -25h-41q-27 0 -35 23l-303 1079q-21 76 -43 186h-6q-14 -73 -45 -186l-306 -1077q-5 -25 -34 -25h-41z" />
    <glyph glyph-name="Wdieresis" unicode="&#x1e84;" horiz-adv-x="1847" 
d="M725 1640q-26 0 -36.5 10t-10.5 36v14q0 26 10.5 36.5t36.5 10.5h12q28 0 37.5 -10t9.5 -37v-14q0 -27 -9 -36.5t-38 -9.5h-12zM1118 1640q-29 0 -39 9.5t-10 36.5v14q0 27 10 37t39 10h10q26 0 37 -10.5t11 -36.5v-14q0 -26 -10.5 -36t-37.5 -10h-10zM496 0
q-27 0 -35 23l-379 1407q-9 24 16 24h52q17 0 24 -4.5t10 -17.5l293 -1102q7 -30 21 -100.5t20 -94.5h4q13 68 43 193l305 1071q7 24 37 24h41q30 0 35 -24l303 -1073q20 -66 45 -191h6q7 43 37 189l293 1108q3 13 10 17.5t25 4.5h47q22 0 16 -24l-381 -1405q-5 -25 -34 -25
h-41q-27 0 -35 23l-303 1079q-21 76 -43 186h-6q-14 -73 -45 -186l-306 -1077q-5 -25 -34 -25h-41z" />
    <glyph glyph-name="Wdieresis" unicode="&#x1e85;" horiz-adv-x="1847" 
d="M725 1640q-26 0 -36.5 10t-10.5 36v14q0 26 10.5 36.5t36.5 10.5h12q28 0 37.5 -10t9.5 -37v-14q0 -27 -9 -36.5t-38 -9.5h-12zM1118 1640q-29 0 -39 9.5t-10 36.5v14q0 27 10 37t39 10h10q26 0 37 -10.5t11 -36.5v-14q0 -26 -10.5 -36t-37.5 -10h-10zM496 0
q-27 0 -35 23l-379 1407q-9 24 16 24h52q17 0 24 -4.5t10 -17.5l293 -1102q7 -30 21 -100.5t20 -94.5h4q13 68 43 193l305 1071q7 24 37 24h41q30 0 35 -24l303 -1073q20 -66 45 -191h6q7 43 37 189l293 1108q3 13 10 17.5t25 4.5h47q22 0 16 -24l-381 -1405q-5 -25 -34 -25
h-41q-27 0 -35 23l-303 1079q-21 76 -43 186h-6q-14 -73 -45 -186l-306 -1077q-5 -25 -34 -25h-41z" />
    <glyph glyph-name="Ygrave" unicode="&#x1ef2;" horiz-adv-x="1331" 
d="M461 1776q-21 10 -4 30l20 23q16 18 45 4l355 -209q17 -11 2 -29l-15 -16q-11 -13 -33 -2zM643 0q-25 0 -25 27v573l-552 827q-6 11 -2.5 19t16.5 8h53q24 0 32 -3.5t17 -18.5l486 -736l485 736q9 15 17 18.5t32 3.5h51q13 0 17 -8t-2 -19l-555 -831v-569q0 -27 -25 -27
h-45z" />
    <glyph glyph-name="Ygrave" unicode="&#x1ef3;" horiz-adv-x="1331" 
d="M461 1776q-21 10 -4 30l20 23q16 18 45 4l355 -209q17 -11 2 -29l-15 -16q-11 -13 -33 -2zM643 0q-25 0 -25 27v573l-552 827q-6 11 -2.5 19t16.5 8h53q24 0 32 -3.5t17 -18.5l486 -736l485 736q9 15 17 18.5t32 3.5h51q13 0 17 -8t-2 -19l-555 -831v-569q0 -27 -25 -27
h-45z" />
    <glyph glyph-name="endash" unicode="&#x2013;" horiz-adv-x="1253" 
d="M188 668q-24 0 -24 26v35q0 25 24 25h875q27 0 27 -25v-35q0 -26 -27 -26h-875z" />
    <glyph glyph-name="emdash" unicode="&#x2014;" horiz-adv-x="1662" 
d="M188 668q-14 0 -19 5.5t-5 20.5v35q0 25 24 25h1285q15 0 20.5 -5.5t5.5 -19.5v-35q0 -15 -5.5 -20.5t-20.5 -5.5h-1285z" />
    <glyph glyph-name="quoteleft" unicode="&#x2018;" horiz-adv-x="442" 
d="M291 1454q12 0 15.5 -4t0.5 -14l-78 -322q-3 -18 -12 -24.5t-27 -6.5h-34q-39 0 -27 31l113 316q8 24 28 24h21z" />
    <glyph glyph-name="quoteright" unicode="&#x2019;" horiz-adv-x="434" 
d="M170 1083q-12 0 -16 4t-2 15l77 321q4 18 13 24.5t28 6.5h35q37 0 25 -31l-111 -317q-9 -23 -31 -23h-18z" />
    <glyph glyph-name="quotesinglbase" unicode="&#x201a;" horiz-adv-x="376" 
d="M170 -238q-13 0 -18 5.5t-5 19.5v414q0 14 5 19t18 5h41q14 0 18.5 -5.5t3.5 -18.5l-18 -414q-2 -14 -7 -19.5t-18 -5.5h-20z" />
    <glyph glyph-name="quotedblleft" unicode="&#x201c;" horiz-adv-x="657" 
d="M291 1454q12 0 15.5 -4t0.5 -14l-78 -322q-3 -18 -12 -24.5t-27 -6.5h-34q-39 0 -27 31l113 316q8 24 28 24h21zM506 1454q12 0 15.5 -4t0.5 -14l-78 -322q-3 -18 -11.5 -24.5t-26.5 -6.5h-35q-39 0 -27 31l113 316q8 24 28 24h21z" />
    <glyph glyph-name="quotedblright" unicode="&#x201d;" horiz-adv-x="649" 
d="M147 1083q-12 0 -15.5 4t-0.5 15l78 321q3 18 12 24.5t27 6.5h35q38 0 26 -31l-112 -317q-9 -23 -29 -23h-21zM362 1083q-12 0 -15.5 4t-0.5 15l78 321q3 18 12 24.5t27 6.5h35q38 0 26 -31l-112 -317q-9 -23 -29 -23h-21z" />
    <glyph glyph-name="quotedblbase" unicode="&#x201e;" horiz-adv-x="610" 
d="M98 -248q-19 0 -16 19l78 321q4 18 13 24.5t28 6.5h35q36 0 24 -31l-110 -317q-9 -23 -31 -23h-21zM313 -248q-19 0 -16 19l78 321q4 18 13 24.5t28 6.5h35q36 0 24 -31l-110 -317q-9 -23 -31 -23h-21z" />
    <glyph glyph-name="dagger" unicode="&#x2020;" horiz-adv-x="1161" 
d="M563 -205q-13 0 -18.5 6t-5.5 21v1044h-412q-27 0 -27 25v37q0 15 6 20.5t21 5.5h412v473q0 15 5.5 21t18.5 6h39q27 0 27 -27v-473h407q14 0 19.5 -5.5t5.5 -20.5v-37q0 -25 -25 -25h-407v-1044q0 -27 -27 -27h-39z" />
    <glyph glyph-name="daggerdbl" unicode="&#x2021;" horiz-adv-x="1267" 
d="M616 -205q-15 0 -20.5 6t-5.5 21v471h-410q-15 0 -20.5 5t-5.5 19v37q0 15 5.5 21t20.5 6h410v485h-412q-24 0 -24 25v37q0 15 5 20.5t19 5.5h412v473q0 15 5.5 21t20.5 6h37q15 0 21 -6t6 -21v-473h407q15 0 21 -5.5t6 -20.5v-37q0 -25 -27 -25h-407v-485h407
q15 0 21 -6t6 -21v-37q0 -13 -6 -18.5t-21 -5.5h-407v-471q0 -15 -6 -21t-21 -6h-37z" />
    <glyph glyph-name="bullet" unicode="&#x2022;" horiz-adv-x="622" 
d="M311 430q-47 0 -77.5 31t-30.5 78t30.5 78.5t77.5 31.5t78 -31.5t31 -78.5t-31 -78t-78 -31z" />
    <glyph glyph-name="ellipsis" unicode="&#x2026;" horiz-adv-x="1208" 
d="M197 -12q-36 0 -48 11.5t-12 47.5v10q0 34 12.5 47t47.5 13h10q34 0 46.5 -13t12.5 -47v-10q0 -35 -12.5 -47t-46.5 -12h-10zM598 -12q-35 0 -47 11.5t-12 47.5v10q0 34 12.5 47t46.5 13h10q35 0 47.5 -13t12.5 -47v-10q0 -35 -12.5 -47t-47.5 -12h-10zM1001 -12
q-36 0 -47.5 11.5t-11.5 47.5v10q0 34 12 47t47 13h11q34 0 46.5 -13t12.5 -47v-10q0 -35 -12.5 -47t-46.5 -12h-11z" />
    <glyph glyph-name="perthousand" unicode="&#x2030;" horiz-adv-x="2476" 
d="M428 735q-153 0 -235 78.5t-82 218.5v152q0 140 82 219.5t235 79.5q152 0 233.5 -79.5t81.5 -219.5v-152q0 -140 -81.5 -218.5t-233.5 -78.5zM309 0q-15 0 -18.5 8t4.5 19l1034 1405q10 15 18 18.5t29 3.5h37q15 0 18 -7.5t-6 -19.5l-1032 -1404q-12 -15 -21 -19t-32 -4
h-31zM428 809q115 0 177.5 60t62.5 167v144q0 108 -62.5 168.5t-177.5 60.5q-116 0 -178 -60.5t-62 -168.5v-144q0 -107 62 -167t178 -60zM1292 -29q-153 0 -234 78.5t-81 218.5v150q0 142 81 221.5t234 79.5t235.5 -80t82.5 -221v-150q0 -140 -82.5 -218.5t-235.5 -78.5z
M2054 -29q-153 0 -234 78.5t-81 218.5v150q0 142 81 221.5t234 79.5t235.5 -80t82.5 -221v-150q0 -140 -82.5 -218.5t-235.5 -78.5zM1292 45q116 0 178 59.5t62 167.5v144q0 108 -62 168.5t-178 60.5t-177.5 -60.5t-61.5 -168.5v-144q0 -108 61.5 -167.5t177.5 -59.5z
M2054 45q116 0 178 59.5t62 167.5v144q0 108 -62 168.5t-178 60.5t-177.5 -60.5t-61.5 -168.5v-144q0 -108 61.5 -167.5t177.5 -59.5z" />
    <glyph glyph-name="guilsinglleft" unicode="&#x2039;" horiz-adv-x="735" 
d="M115 717q-13 16 0 31l422 423q15 15 30 0l27 -26q15 -18 0 -33l-377 -379l375 -375q18 -15 0 -30l-27 -29q-17 -17 -33 0z" />
    <glyph glyph-name="guilsinglright" unicode="&#x203a;" horiz-adv-x="735" 
d="M201 299q-18 -15 -33 0l-29 29q-15 15 0 30l377 375l-377 379q-17 16 0 33l25 26q17 14 33 0l421 -423q13 -15 0 -31z" />
    <glyph glyph-name="fraction" unicode="&#x2044;" horiz-adv-x="354" 
d="M-377 0q-15 0 -18 7.5t6 19.5l1032 1403q11 15 19.5 19.5t29.5 4.5h35q31 0 14 -27l-1032 -1402q-13 -16 -21.5 -20.5t-31.5 -4.5h-33z" />
    <glyph glyph-name="Euro" unicode="&#x20ac;" horiz-adv-x="1546" 
d="M889 -31q-260 0 -404 129t-147 361v67h-219q-27 0 -21 25l8 27q7 22 33 22h201v234h-147q-27 0 -19 24l8 27q7 22 31 22h125v84q0 231 143.5 362.5t407.5 131.5q198 0 316.5 -62t180.5 -186q19 -31 -10 -43l-33 -14q-15 -8 -23 -5.5t-17 17.5q-51 101 -147 153t-267 52
q-220 0 -336.5 -106.5t-116.5 -295.5v-88h692q25 0 17 -22l-8 -29q-5 -22 -33 -22h-672v-234h604q27 0 19 -22l-8 -29q-9 -23 -33 -23h-578v-67q2 -188 119.5 -295t333.5 -107q326 0 422 224q9 15 17.5 18t23.5 -4l32 -16q30 -15 13 -43q-41 -88 -103.5 -145.5t-163.5 -89.5
t-241 -32z" />
    <glyph glyph-name="uni20BD" unicode="&#x20bd;" horiz-adv-x="1374" 
d="M264 0q-13 0 -18.5 6t-5.5 21v278h-107q-27 0 -27 25v22q0 15 6 21t21 6h107v1048q0 15 5.5 21t18.5 6h555q209 0 329 -112.5t120 -313.5q0 -198 -120.5 -310t-328.5 -112h-485v-227h753q25 0 25 -27v-22q0 -25 -25 -25h-753v-278q0 -27 -25 -27h-45zM811 696
q168 0 263 87.5t95 244.5q0 159 -95 248.5t-263 89.5h-477v-670h477z" />
    <glyph glyph-name="uni2113" unicode="&#x2113;" horiz-adv-x="923" 
d="M582 -12q-153 0 -221 80t-68 243v144q-30 -24 -84.5 -63t-69.5 -50q-19 -16 -28 6l-23 33q-10 20 6 31q179 128 199 143v606q0 91 21.5 158t60.5 105.5t86 56.5t104 18q119 0 189.5 -77t70.5 -230q0 -94 -34 -186t-98.5 -177t-140.5 -159.5t-177 -153.5v-184
q0 -135 46.5 -199.5t162.5 -64.5q21 0 42 3.5t38 9t32 12.5t26 14t19 12.5t13 9.5l6 4q15 12 24 0l29 -33q14 -14 -2 -26q-7 -7 -22.5 -18t-45 -28t-72.5 -28.5t-89 -11.5zM375 625q111 91 187.5 174t128.5 186.5t52 206.5q0 118 -49.5 174.5t-130.5 56.5q-84 0 -136 -62
t-52 -200v-536z" />
    <glyph glyph-name="uni2116" unicode="&#x2116;" horiz-adv-x="2187" 
d="M1724 735q-153 0 -235 78.5t-82 218.5v152q0 141 82 221t235 80q152 0 234 -80t82 -221v-152q0 -140 -82 -218.5t-234 -78.5zM266 0q-13 0 -18.5 6t-5.5 21v1400q0 15 5.5 21t18.5 6h43q15 0 29 -14l706 -1010q40 -57 102 -158t85 -133h6q0 37 -7 163.5t-7 203.5v924
q0 14 5.5 19t18.5 5h41q15 0 21 -6t6 -21v-1400q0 -15 -6 -21t-21 -6h-41q-19 0 -30 16l-725 1037q-36 51 -91.5 145t-74.5 121h-4q0 -33 6 -150t6 -188v-954q0 -15 -6 -21t-21 -6h-41zM1724 809q115 0 177.5 59.5t62.5 167.5v146q0 108 -62.5 168.5t-177.5 60.5
q-116 0 -177.5 -60.5t-61.5 -168.5v-146q0 -108 61.5 -167.5t177.5 -59.5zM1430 510q-25 0 -25 25v30q0 27 25 27h587q25 0 25 -27v-30q0 -25 -25 -25h-587z" />
    <glyph glyph-name="uni2117" unicode="&#x2117;" horiz-adv-x="1728" 
d="M866 -16q-347 0 -542 194t-195 541t195 541t542 194q346 0 539.5 -194t193.5 -541t-193.5 -541t-539.5 -194zM866 43q316 0 494 179t178 497t-177.5 496t-494.5 178q-318 0 -495.5 -178t-177.5 -496t177.5 -497t495.5 -179zM633 305q-12 0 -16.5 4.5t-4.5 16.5v766
q0 13 4.5 17.5t18.5 4.5h289q132 0 209 -72.5t77 -203.5q0 -129 -77 -201t-209 -72h-246v-239q0 -21 -19 -21h-26zM920 629q104 0 163.5 54.5t59.5 154.5q0 102 -59.5 157.5t-163.5 55.5h-242v-422h242z" />
    <glyph glyph-name="trademark" unicode="&#x2122;" horiz-adv-x="1353" 
d="M567 1423q11 0 15 -3.5t4 -16.5v-17q0 -11 -4 -14.5t-15 -3.5h-182v-440q0 -21 -23 -21h-14q-22 0 -22 21v440h-185q-12 0 -15 3t-3 15v17q0 13 3 16.5t15 3.5h426zM1151 1423q11 0 14.5 -3t3.5 -15v-477q0 -13 -3 -17t-15 -4h-18q-12 0 -16.5 4.5t-4.5 16.5v278
q0 16 1 53t1 56l-45 -74l-133 -201q-10 -12 -25 -12h-8q-14 0 -22 10l-131 197q-49 70 -50 72q2 -35 2 -101v-278q0 -13 -2.5 -17t-15.5 -4h-18q-12 0 -16.5 4.5t-4.5 16.5v475q0 13 4.5 16.5t18.5 3.5h10q14 0 24 -12l205 -315l207 313q10 14 23 14h14z" />
    <glyph glyph-name="uni2126" unicode="&#x2126;" horiz-adv-x="1585" 
d="M152 0q-25 0 -25 27v39q0 15 5.5 20.5t19.5 5.5h372q-181 111 -277.5 286t-96.5 398q0 310 180 508.5t461 198.5q187 0 334.5 -90t229 -250.5t81.5 -364.5q0 -229 -100.5 -405t-274.5 -281h371q15 0 20.5 -5.5t5.5 -20.5v-39q0 -15 -5.5 -21t-20.5 -6h-502q-21 0 -21 23
v32q0 17 17 25q194 100 305.5 276.5t111.5 407.5q0 182 -67 325t-193 224.5t-292 81.5q-163 0 -288.5 -81.5t-193 -224.5t-67.5 -323q0 -227 106 -401t309 -285q17 -7 17 -27v-30q0 -23 -21 -23h-501z" />
    <glyph glyph-name="estimated" unicode="&#x212e;" horiz-adv-x="1751" 
d="M887 -31q-154 0 -294.5 60t-242 161.5t-161.5 242t-60 294.5t60 294.5t161.5 242t242 161.5t294.5 60t294.5 -60t242 -161.5t161.5 -242t60 -294.5v-33q0 -30 -33 -30h-1127v-439q189 -141 402 -141q181 0 338 98t241 269q7 15 17.5 19.5t32.5 4.5h53q19 0 22.5 -5
t-2.5 -24q-84 -211 -274 -344t-428 -133zM1288 776v461q-177 141 -401 141q-220 0 -402 -139v-463h803z" />
    <glyph glyph-name="uni2153" unicode="&#x2153;" horiz-adv-x="1826" 
d="M453 655q-15 0 -21 6t-6 21v690l-281 -155q-23 -13 -34 8l-11 20q-13 23 11 35l319 180q13 8 33 8h14q15 0 21 -5.5t6 -20.5v-760q0 -15 -6 -21t-21 -6h-24zM313 0q-15 0 -18 7.5t6 19.5l1032 1403q11 15 19 19.5t28 4.5h35q15 0 19.5 -7.5t-4.5 -19.5l-1033 -1402
q-11 -16 -20 -20.5t-33 -4.5h-31zM1436 -16q-131 0 -204 55t-108 166q-4 18 -1 24t14 11l26 8q25 8 33 -19q28 -95 81.5 -135.5t158.5 -40.5q98 0 149 45.5t51 120.5q0 68 -38.5 114t-104.5 46h-145q-15 0 -20 4.5t-5 17.5v23q0 15 5 20t22 5h137q65 0 98 41t33 104
q0 75 -47.5 120.5t-132.5 45.5q-97 0 -153 -43.5t-83 -136.5q-6 -17 -15 -21t-24 2l-20 6q-23 10 -15 35q34 117 108 172t200 55q120 0 187 -62.5t67 -166.5q0 -132 -103 -182q127 -58 127 -205q0 -106 -71 -167.5t-207 -61.5z" />
    <glyph glyph-name="uni2154" unicode="&#x2154;" horiz-adv-x="1843" 
d="M160 659q-29 0 -29 27v88q0 94 37.5 152t122.5 90l123 47q10 4 37.5 14t37.5 14t32.5 14.5t31.5 18t24 20.5t21 26.5t11 32t5 40.5q0 77 -49 123.5t-143 46.5q-38 0 -69.5 -9t-52.5 -24.5t-37.5 -33t-26 -37t-15.5 -34t-9 -26.5l-3 -12q-6 -15 -12 -18.5t-21 0.5l-24 8
q-28 7 -17 33l5 14q4 15 8.5 26t13.5 30.5t20.5 35.5t27.5 35t37 33.5t46.5 27t58.5 19t70 6.5q130 0 201 -67t71 -173q0 -33 -7.5 -61.5t-18 -49t-31.5 -39t-38 -30t-47.5 -24.5t-50 -20t-55.5 -19l-122 -46q-119 -44 -119 -161v-68h459q24 0 24 -22v-25q0 -23 -24 -23
h-504zM389 0q-15 0 -18 7.5t6 19.5l1032 1403q11 15 19 19.5t28 4.5h37q14 0 17.5 -7.5t-3.5 -19.5l-1032 -1402q-13 -16 -22 -20.5t-31 -4.5h-33zM1454 -16q-131 0 -204.5 55t-106.5 166q-4 17 -1.5 23.5t13.5 11.5l27 8q14 4 20 0t12 -19q28 -95 81.5 -135.5t158.5 -40.5
q97 0 149 45.5t52 120.5q0 68 -40 114t-104 46h-145q-15 0 -20 4.5t-5 17.5v23q0 15 5 20t20 5h139q65 0 97 41t32 104q0 75 -47 120.5t-131 45.5q-97 0 -152.5 -43.5t-82.5 -136.5q-6 -17 -15 -21t-24 2l-21 6q-22 9 -14 35q34 118 107 172.5t200 54.5q119 0 186.5 -63
t67.5 -166q0 -132 -102 -182q127 -58 127 -205q0 -106 -71.5 -167.5t-207.5 -61.5z" />
    <glyph glyph-name="oneeighth" unicode="&#x215b;" horiz-adv-x="1804" 
d="M455 659q-27 0 -27 25v690l-281 -155q-23 -11 -34 8l-13 20q-10 23 11 35l319 180q16 8 35 8h14q15 0 21 -5.5t6 -20.5v-760q0 -25 -27 -25h-24zM291 0q-15 0 -19 7.5t4 19.5l1033 1403q12 15 20.5 19.5t28.5 4.5h35q15 0 19 -7.5t-5 -19.5l-1032 -1402
q-11 -16 -20 -20.5t-33 -4.5h-31zM1386 -16q-147 0 -227 55.5t-80 159.5q0 148 172 213q-149 52 -149 192q0 106 76 165.5t208 59.5q134 0 208.5 -56t74.5 -152q0 -146 -153 -207q92 -24 135 -69.5t43 -125.5q0 -118 -79.5 -176.5t-228.5 -58.5zM1423 438q23 5 46.5 15
t53.5 29t49 53t19 77q0 69 -53 110.5t-152 41.5q-97 0 -151.5 -42t-54.5 -118q0 -73 53 -109.5t190 -56.5zM1389 47q225 0 225 170q0 76 -56.5 109.5t-209.5 54.5q-87 -22 -128 -55q-61 -47 -61 -121q0 -75 60.5 -116.5t169.5 -41.5z" />
    <glyph glyph-name="threeeighths" unicode="&#x215c;" horiz-adv-x="1869" 
d="M430 643q-131 0 -203.5 54.5t-107.5 166.5q-4 17 -1.5 23.5t13.5 9.5l27 10q13 5 20.5 1t11.5 -19q28 -95 81.5 -135.5t158.5 -40.5q98 0 149.5 45t51.5 121q0 67 -39 112t-105 45h-145q-15 0 -20 5t-5 20v20q0 17 5 22t22 5h137q65 0 98 40.5t33 102.5q0 75 -47.5 120.5
t-132.5 45.5q-98 0 -153.5 -42.5t-81.5 -135.5q-6 -17 -15 -20.5t-24 2.5l-21 6q-22 9 -14 35q34 117 107.5 171t199.5 54q121 0 187.5 -62t66.5 -165q0 -133 -102 -183q127 -58 127 -207q0 -104 -71.5 -165.5t-207.5 -61.5zM371 0q-15 0 -19 7.5t4 19.5l1035 1403
q11 15 19 19.5t28 4.5h35q15 0 19 -7.5t-5 -19.5l-1032 -1402q-10 -17 -19.5 -21t-34.5 -4h-30zM1456 -16q-148 0 -228.5 55.5t-80.5 159.5q0 150 174 213q-80 27 -116 74t-36 118q0 106 77.5 165.5t209.5 59.5t206.5 -56t74.5 -152q0 -146 -154 -207q92 -24 136 -69.5
t44 -125.5q0 -118 -79.5 -176.5t-227.5 -58.5zM1491 438q23 5 46.5 15t53.5 29t49 53t19 77q0 69 -53 110.5t-152 41.5q-97 0 -152 -42t-55 -118q0 -73 53.5 -109.5t190.5 -56.5zM1456 47q225 0 225 170q0 76 -56.5 109.5t-209.5 54.5q-88 -23 -130 -56q-57 -48 -58 -120
q0 -75 60 -116.5t169 -41.5z" />
    <glyph glyph-name="fiveeighths" unicode="&#x215d;" horiz-adv-x="1832" 
d="M408 641q-241 0 -302 221q-9 27 15 33l22 8q15 5 22 2t11 -16q25 -87 79 -132.5t151 -45.5q102 0 154 53.5t52 136.5q0 180 -215 180h-231q-29 0 -23 27l33 336q1 15 7.5 20.5t21.5 5.5h434q11 0 14.5 -4t3.5 -16v-29q0 -12 -3.5 -16t-14.5 -4h-395l-25 -254h180
q146 0 217.5 -64.5t71.5 -181.5q0 -112 -71.5 -186t-208.5 -74zM328 0q-15 0 -18.5 7.5t5.5 19.5l1033 1403q11 15 19.5 19.5t29.5 4.5h35q15 0 19 -7.5t-5 -19.5l-1032 -1402q-13 -16 -21.5 -20.5t-32.5 -4.5h-32zM1417 -16q-148 0 -227.5 55.5t-79.5 159.5q0 148 172 213
q-149 52 -149 192q0 106 76 165.5t208 59.5q134 0 208.5 -56t74.5 -152q0 -146 -154 -207q92 -24 135 -69.5t43 -125.5q0 -118 -79 -176.5t-228 -58.5zM1454 438q23 5 46.5 15t53.5 29t49 53t19 77q0 69 -53 110.5t-152 41.5q-97 0 -152 -42t-55 -118q0 -74 53 -110t191 -56
zM1419 47q109 0 167.5 42t58.5 128q0 76 -57 109.5t-210 54.5q-115 -28 -158 -85q-30 -39 -30 -91q0 -75 60 -116.5t169 -41.5z" />
    <glyph glyph-name="seveneighths" unicode="&#x215e;" horiz-adv-x="1777" 
d="M270 659q-14 0 -17 5t3 20l309 715h-446q-21 0 -21 20v31q0 20 21 20h514q12 0 16 -3.5t4 -14.5v-18q0 -19 -6 -29l-313 -729q-5 -11 -9.5 -14t-21.5 -3h-33zM217 0q-15 0 -18 7.5t6 19.5l1032 1403q11 15 19.5 19.5t29.5 4.5h35q31 0 14 -27l-1032 -1402
q-13 -16 -21.5 -20.5t-31.5 -4.5h-33zM1360 -16q-148 0 -228.5 55.5t-80.5 159.5q0 148 174 213q-80 27 -115 74t-35 118q0 106 76.5 165.5t208.5 59.5t206 -56t74 -152q0 -146 -153 -207q92 -24 136 -69.5t44 -125.5q0 -118 -79.5 -176.5t-227.5 -58.5zM1397 438
q17 4 34.5 10t43 20t44.5 32t32.5 47.5t13.5 64.5q0 69 -53.5 110.5t-151.5 41.5q-99 0 -154 -42t-55 -118q0 -73 54 -109.5t192 -56.5zM1360 47q109 0 168 42t59 128q0 76 -57 109.5t-209 54.5q-115 -28 -158 -85q-30 -39 -30 -91q0 -75 59 -116.5t168 -41.5z" />
    <glyph glyph-name="arrowleft" unicode="&#x2190;" horiz-adv-x="1589" 
d="M633 158q-14 -17 -31 0l-504 504q-22 22 0 45l504 503q16 16 31 2l24 -24q15 -16 0 -31l-434 -436h1221q22 0 22 -21v-32q0 -21 -22 -21h-1221l434 -436q14 -17 0 -31z" />
    <glyph glyph-name="arrowup" unicode="&#x2191;" horiz-adv-x="1589" 
d="M778 -8q-22 0 -22 22v1221l-434 -434q-16 -15 -31 0l-25 24q-14 15 2 31l504 504q22 22 45 0l504 -504q17 -17 0 -31l-23 -22q-15 -18 -30 0l-434 432v-1221q0 -22 -23 -22h-33z" />
    <glyph glyph-name="arrowright" unicode="&#x2192;" horiz-adv-x="1589" 
d="M934 180q-16 16 0 31l432 436h-1221q-22 0 -22 21v32q0 21 22 21h1221l-432 436q-16 15 0 31l22 24q14 14 33 -2l504 -503q23 -23 0 -45l-504 -504q-19 -16 -33 0z" />
    <glyph glyph-name="arrowdown" unicode="&#x2193;" horiz-adv-x="1589" 
d="M268 506q-16 16 -2 33l25 22q15 15 31 0l434 -432v1221q0 20 22 20h33q23 0 23 -20v-1221l434 432q15 15 30 0l23 -22q17 -17 0 -33l-504 -504q-23 -22 -45 0z" />
    <glyph glyph-name="uni2196" unicode="&#x2196;" horiz-adv-x="1589" 
d="M272 205q-16 17 0 33l865 864h-615q-13 0 -17.5 5t-4.5 17v33q0 21 22 21h713q17 0 24 -7t7 -24v-713q0 -13 -4.5 -17.5t-16.5 -4.5h-35q-12 0 -16 5t-4 17v613l-864 -865q-14 -14 -31 0z" />
    <glyph glyph-name="uni2197" unicode="&#x2197;" horiz-adv-x="1589" 
d="M399 1047v-613q0 -12 -4 -17t-16 -5h-33q-12 0 -17 4.5t-5 17.5v713q0 17 6.5 24t23.5 7h713q23 0 23 -21v-33q0 -13 -4 -17.5t-17 -4.5h-614l864 -864q14 -17 0 -33l-25 -23q-14 -14 -30 0z" />
    <glyph glyph-name="uni2198" unicode="&#x2198;" horiz-adv-x="1589" 
d="M524 172q-22 0 -22 21v32q0 23 22 23h615l-865 864q-17 17 0 31l23 22q17 17 33 0l864 -864v614q0 23 20 23h33q21 0 21 -23v-712q0 -19 -6 -25t-25 -6h-713z" />
    <glyph glyph-name="uni2199" unicode="&#x2199;" horiz-adv-x="1589" 
d="M352 172q-18 0 -24 6t-6 25v712q0 23 20 23h35q20 0 20 -23v-614l865 864q14 16 30 0l23 -22q19 -15 0 -31l-864 -864h614q22 0 22 -23v-32q0 -21 -22 -21h-713z" />
    <glyph glyph-name="partialdiff" unicode="&#x2202;" horiz-adv-x="1189" 
d="M584 -31q-218 0 -331.5 102.5t-113.5 286.5v287q0 183 111.5 286t316.5 103q290 0 373 -186q-2 149 -35 255.5t-104 182.5t-189 113t-286 37q-15 0 -20 5t-5 19v33q0 14 5 19.5t18 5.5q192 0 326.5 -43t217 -132.5t119.5 -216.5t37 -305v-463q0 -184 -113 -286.5
t-327 -102.5zM584 49q170 0 261 81.5t91 227.5v289q0 146 -91 226.5t-261 80.5q-175 0 -266 -81t-91 -228v-287q0 -147 91 -228t266 -81z" />
    <glyph glyph-name="uni2206" unicode="&#x2206;" horiz-adv-x="1308" 
d="M117 0q-15 0 -21 6t-6 21v30q0 12 12 52l496 1325q8 20 35 20h45q28 0 35 -20l493 -1325q13 -35 13 -52v-30q0 -27 -25 -27h-1077zM1118 82l-327 891q-27 74 -71 207t-63 184h-6q-21 -55 -64 -189.5t-67 -201.5l-327 -891h925z" />
    <glyph glyph-name="product" unicode="&#x220f;" horiz-adv-x="1409" 
d="M291 -205q-25 0 -25 27v1544h-141q-27 0 -27 25v36q0 15 6 21t21 6h1161q25 0 25 -27v-36q0 -25 -25 -25h-137v-1544q0 -15 -6 -21t-21 -6h-43q-26 0 -26 27v1544h-693v-1544q0 -15 -5.5 -21t-18.5 -6h-45z" />
    <glyph glyph-name="summation" unicode="&#x2211;" horiz-adv-x="1220" 
d="M129 -205q-15 0 -21 6t-6 21v35q0 14 9 26l448 752l-440 727q-10 12 -10 31v34q0 15 5.5 21t20.5 6h924q13 0 18.5 -6t5.5 -21v-36q0 -25 -24 -25h-836l426 -702q11 -15 11 -27t-11 -31l-430 -723h848q25 0 25 -24v-37q0 -27 -25 -27h-938z" />
    <glyph glyph-name="minus" unicode="&#x2212;" horiz-adv-x="1298" 
d="M190 623q-14 0 -19 5.5t-5 20.5v35q0 25 24 25h916q27 0 27 -25v-35q0 -15 -6 -20.5t-21 -5.5h-916z" />
    <glyph glyph-name="uni2215" unicode="&#x2215;" horiz-adv-x="1218" 
d="M57 0q-15 0 -18.5 8.5t4.5 20.5l1032 1401q10 17 18.5 20.5t32.5 3.5h33q16 0 19.5 -9t-4.5 -20l-1031 -1400q-13 -16 -22 -20.5t-33 -4.5h-31z" />
    <glyph glyph-name="uni2219" unicode="&#x2219;" horiz-adv-x="448" 
d="M219 383q-36 0 -47.5 11.5t-11.5 47.5v11q0 34 12 46.5t47 12.5h10q34 0 47 -12.5t13 -46.5v-11q0 -35 -13 -47t-47 -12h-10z" />
    <glyph glyph-name="radical" unicode="&#x221a;" horiz-adv-x="1439" 
d="M799 -217q-15 0 -22 3.5t-11 16.5l-350 1012h-297q-25 0 -25 27v32q0 27 25 27h325q25 0 34.5 -4.5t13.5 -19.5l249 -734q20 -56 45 -148t31 -112h6q6 21 28 113.5t40 148.5l405 1371q4 13 11.5 16.5t31.5 3.5h35q25 0 19 -25l-523 -1708q-3 -13 -9.5 -16.5t-22.5 -3.5
h-39z" />
    <glyph glyph-name="infinity" unicode="&#x221e;" horiz-adv-x="1540" 
d="M442 279q-125 0 -211 86.5t-86 214.5q0 136 86.5 223.5t219.5 87.5q201 0 319 -236q19 38 43.5 73.5t64 75t95.5 63.5t119 24q132 0 217.5 -87t85.5 -222q0 -130 -87 -216.5t-212 -86.5q-65 0 -121.5 22.5t-96 60t-65 72.5t-43.5 72q-18 -36 -42.5 -69.5t-64.5 -72
t-97.5 -62t-123.5 -23.5zM444 358q46 0 87 15.5t68 36.5t52 51.5t37 51.5t24 45.5t13 25.5q-1 1 -13 25.5t-24 46t-36.5 51.5t-51 51.5t-66 37t-83.5 15.5q-101 0 -163.5 -64.5t-62.5 -164.5q0 -95 62.5 -159.5t156.5 -64.5zM1098 358q93 0 155 65t62 159q0 101 -62.5 165
t-162.5 64q-38 0 -72.5 -11t-61 -30t-48 -40t-38.5 -46.5t-27 -43t-18.5 -36.5t-9.5 -20l11 -22q11 -22 20.5 -37.5t27.5 -42.5t39 -46t48.5 -38.5t62.5 -29.5t74 -10z" />
    <glyph glyph-name="integral" unicode="&#x222b;" horiz-adv-x="800" 
d="M72 -451q-25 0 -25 25v35q0 24 25 24q157 0 219.5 69t62.5 216v1231q0 188 86 277.5t289 89.5q13 0 18 -5.5t5 -19.5v-35q0 -14 -5 -19t-18 -5q-158 0 -221.5 -69t-63.5 -216v-1231q0 -188 -85.5 -277.5t-286.5 -89.5z" />
    <glyph glyph-name="approxequal" unicode="&#x2248;" horiz-adv-x="1218" 
d="M811 780q-68 -1 -135 21.5t-130 45.5t-122 23q-98 0 -186 -82q-17 -15 -35 3l-27 24q-20 20 0 37q56 50 112 75.5t126 26.5q65 0 132.5 -23t131.5 -46t121 -23q100 3 186 82q11 9 17.5 9.5t17.5 -9.5l27 -26q19 -18 0 -37q-56 -49 -112 -74.5t-124 -26.5zM813 406
q-67 -1 -134 21.5t-130.5 45.5t-122.5 23q-98 0 -186 -82q-19 -16 -35 2l-27 24q-20 20 0 37q55 50 111 75.5t125 25.5q66 1 133 -22t130.5 -46t121.5 -23q99 0 188 82q10 9 17.5 8.5t17.5 -10.5l25 -24q22 -19 0 -37q-111 -100 -234 -100z" />
    <glyph glyph-name="notequal" unicode="&#x2260;" horiz-adv-x="1333" 
d="M371 141q-10 0 -6 11l139 272h-295q-25 0 -25 27v32q0 27 25 27h340l162 319h-502q-25 0 -25 25v35q0 15 5.5 20.5t19.5 5.5h547l137 271q4 8 20 8h39q11 0 4 -10l-137 -269h305q27 0 27 -26v-35q0 -25 -27 -25h-348l-164 -319h512q27 0 27 -27v-32q0 -27 -27 -27h-555
l-141 -274q-4 -9 -20 -9h-37z" />
    <glyph glyph-name="lessequal" unicode="&#x2264;" horiz-adv-x="1247" 
d="M221 817q-13 6 -17.5 12.5t-4.5 20.5v24q0 26 22 33l783 359q15 6 21.5 2t6.5 -21v-33q0 -22 -4.5 -29.5t-19.5 -13.5l-693 -305v-4l691 -307q17 -6 21.5 -14t4.5 -31v-35q0 -18 -5.5 -21.5t-22.5 3.5zM225 182q-26 0 -26 29v31q0 15 5.5 20.5t20.5 5.5h781
q15 0 20.5 -4.5t5.5 -19.5v-35q0 -15 -5.5 -21t-20.5 -6h-781z" />
    <glyph glyph-name="greaterequal" unicode="&#x2265;" horiz-adv-x="1247" 
d="M244 457q-29 -15 -29 18v35q0 22 5.5 30.5t21.5 14.5l692 307v4l-692 305q-16 6 -21.5 14t-5.5 29v33q0 31 29 19l784 -359q21 -8 21 -33v-24q0 -22 -21 -33zM244 178q-16 0 -22.5 5.5t-6.5 21.5v33q0 26 29 26h778q15 0 21 -5.5t6 -22.5v-31q0 -15 -6 -21t-21 -6h-778z
" />
    <glyph glyph-name="lozenge" unicode="&#x25ca;" horiz-adv-x="1118" 
d="M547 0q-21 0 -33 20l-408 685q-12 20 0 45l406 682q14 22 33 22h28q21 0 33 -20l406 -684q14 -22 0 -45l-406 -685q-12 -20 -35 -20h-24zM561 106l363 621l-361 623h-4l-362 -623l360 -621h4z" />
    <glyph glyph-name="uni1E9E.calt" horiz-adv-x="1374" 
d="M813 831q216 0 323 -100t107 -321q0 -217 -119.5 -321.5t-365.5 -104.5q-90 0 -161 10t-153 43q-26 0 -26 26v41q0 10 7.5 17t18.5 6q60 -26 119.5 -38t91 -13.5t99.5 -1.5q206 0 297.5 81.5t91.5 262.5q0 170 -82.5 251t-255.5 81q-95 0 -166 -11q-12 -1 -19.5 6
t-7.5 19v37q0 17 13 33l417 532h-747v-1339q0 -27 -25 -27h-45q-13 0 -18.5 6t-5.5 21v1400q0 15 5.5 21t18.5 6h908q24 0 24 -27v-41q0 -17 -12 -32l-416 -527q27 4 84 4z" />
    <glyph glyph-name="uni0414.loclBGR" horiz-adv-x="1492" 
d="M88 -313q-14 0 -19.5 5.5t-5.5 20.5v350q0 25 25 25h86l516 1342q8 24 35 24h39q27 0 35 -22l516 -1344h90q25 0 25 -25v-350q0 -15 -5.5 -20.5t-19.5 -5.5h-43q-14 0 -19.5 5.5t-5.5 20.5v287h-1179v-287q0 -26 -27 -26h-43zM1212 88l-362 952q-24 65 -57 174.5
t-45 143.5h-7q-14 -36 -47 -145t-57 -173l-363 -952h938z" />
    <glyph glyph-name="uni041B.loclBGR" horiz-adv-x="1318" 
d="M76 0q-30 0 -19 25l547 1405q8 24 35 24h39q27 0 35 -22l547 -1407q14 -25 -19 -25h-35q-23 0 -32.5 4.5t-14.5 18.5l-391 1017q-22 60 -56.5 169t-49.5 149h-7q-15 -40 -49.5 -148.5t-56.5 -167.5l-391 -1019q-4 -13 -13.5 -18t-31.5 -5h-37z" />
    <glyph glyph-name="uni0424.loclBGR" horiz-adv-x="1785" 
d="M870 -178q-14 0 -19 5t-5 19v152h-141q-267 0 -410 137t-143 383v418q0 246 143 383t410 137h141v152q0 14 5 19t19 5h45q25 0 25 -24v-152h141q267 0 410 -137t143 -383v-418q0 -246 -143 -383t-410 -137h-141v-152q0 -24 -25 -24h-45zM846 84v1286h-141
q-223 0 -340 -113.5t-117 -318.5v-422q0 -205 117 -318.5t340 -113.5h141zM1081 84q223 0 340 113.5t117 318.5v422q0 205 -117 318.5t-340 113.5h-141v-1286h141z" />
    <glyph glyph-name="uni0414.ss01" horiz-adv-x="1492" 
d="M88 -313q-14 0 -19.5 5.5t-5.5 20.5v350q0 25 25 25h86l516 1342q8 24 35 24h39q27 0 35 -22l516 -1344h90q25 0 25 -25v-350q0 -15 -5.5 -20.5t-19.5 -5.5h-43q-14 0 -19.5 5.5t-5.5 20.5v287h-1179v-287q0 -26 -27 -26h-43zM1212 88l-362 952q-24 65 -57 174.5
t-45 143.5h-7q-14 -36 -47 -145t-57 -173l-363 -952h938z" />
    <glyph glyph-name="uni041B.ss01" horiz-adv-x="1318" 
d="M76 0q-30 0 -19 25l547 1405q8 24 35 24h39q27 0 35 -22l547 -1407q14 -25 -19 -25h-35q-23 0 -32.5 4.5t-14.5 18.5l-391 1017q-22 60 -56.5 169t-49.5 149h-7q-15 -40 -49.5 -148.5t-56.5 -167.5l-391 -1019q-4 -13 -13.5 -18t-31.5 -5h-37z" />
    <glyph glyph-name="uni0424.ss01" horiz-adv-x="1785" 
d="M870 -178q-14 0 -19 5t-5 19v152h-141q-267 0 -410 137t-143 383v418q0 246 143 383t410 137h141v152q0 14 5 19t19 5h45q25 0 25 -24v-152h141q267 0 410 -137t143 -383v-418q0 -246 -143 -383t-410 -137h-141v-152q0 -24 -25 -24h-45zM846 84v1286h-141
q-223 0 -340 -113.5t-117 -318.5v-422q0 -205 117 -318.5t340 -113.5h141zM1081 84q223 0 340 113.5t117 318.5v422q0 205 -117 318.5t-340 113.5h-141v-1286h141z" />
    <glyph glyph-name="zero.sinf" horiz-adv-x="827" 
d="M416 -260q-141 0 -219 72.5t-78 199.5v293q0 126 78 200.5t219 74.5q137 0 215 -74.5t78 -200.5v-293q0 -127 -78 -199.5t-215 -72.5zM416 -186q102 0 158.5 52.5t56.5 145.5v293q0 93 -56.5 147t-158.5 54q-104 0 -161.5 -54t-57.5 -147v-293q0 -93 57 -145.5t162 -52.5
z" />
    <glyph glyph-name="one.sinf" horiz-adv-x="634" 
d="M428 -244q-15 0 -21 6t-6 21v684l-280 -156q-24 -14 -35 8l-10 21q-12 22 10 35l320 180q13 8 32 8h17q14 0 19 -5.5t5 -20.5v-754q0 -15 -5.5 -21t-18.5 -6h-27z" />
    <glyph glyph-name="two.sinf" horiz-adv-x="782" 
d="M137 -244q-28 0 -28 27v88q0 93 37.5 151.5t121.5 90.5l125 47q10 4 37.5 14t37.5 14t32.5 14.5t32 18t24 21t21 27t11.5 32.5t5 41q0 76 -50.5 121t-144.5 45q-60 0 -105 -23t-65.5 -57.5t-29 -55.5t-11.5 -36v-2q-6 -14 -12.5 -18t-19.5 -1l-27 9q-25 6 -16 32
q20 59 33 83q79 141 255 141q130 0 200.5 -65t70.5 -171q0 -39 -8 -70t-28 -55t-37 -39.5t-53 -32t-56 -24.5t-64 -23l-125 -45q-117 -41 -117 -161v-66h457q25 0 25 -25v-24q0 -23 -25 -23h-504z" />
    <glyph glyph-name="three.sinf" horiz-adv-x="802" 
d="M416 -260q-130 0 -203.5 55t-108.5 166q-4 17 -1 23.5t16 11.5l24 8q25 8 33 -18q28 -94 82 -135t158 -41q98 0 150 45t52 120q0 68 -39.5 114t-105.5 46h-145q-14 0 -18.5 4.5t-4.5 18.5v22q0 16 4 20.5t21 4.5h139q64 0 96.5 41t32.5 104q0 74 -47.5 117t-132.5 43
q-98 0 -154 -41t-82 -133q-6 -17 -14 -21t-25 2l-20 7q-21 9 -14 34q34 117 107.5 169.5t201.5 52.5q120 0 187 -60.5t67 -163.5q0 -131 -105 -182q127 -58 127 -205q0 -106 -71 -167.5t-207 -61.5z" />
    <glyph glyph-name="four.sinf" horiz-adv-x="786" 
d="M528 -244q-12 0 -16 4.5t-4 18.5v207h-412q-14 0 -18 4t-4 18v19q0 20 8 30l405 490q14 16 37 16h33q15 0 20 -4.5t5 -19.5v-488h100q15 0 20 -4t5 -16v-23q0 -13 -5 -17.5t-20 -4.5h-100v-207q0 -13 -5 -18t-18 -5h-31zM508 51v416l-344 -416h344z" />
    <glyph glyph-name="five.sinf" horiz-adv-x="776" 
d="M397 -260q-240 0 -301 219q-9 30 13 35l22 8q15 4 21.5 1t11.5 -17q25 -87 78.5 -131.5t150.5 -44.5q103 0 156 53t53 135q0 180 -217 180h-229q-25 0 -25 25l33 336q3 24 31 24h432q20 0 20 -18v-31q0 -11 -4 -14.5t-16 -3.5h-396l-24 -252h180q146 0 217.5 -64.5
t71.5 -179.5q0 -113 -70.5 -186.5t-208.5 -73.5z" />
    <glyph glyph-name="six.sinf" horiz-adv-x="825" 
d="M414 -260q-295 0 -295 311v221q0 149 76.5 228.5t228.5 79.5q107 0 174 -41.5t98 -108.5q10 -17 -8 -24l-33 -17q-17 -10 -26 6q-59 115 -205 115q-114 0 -171.5 -60.5t-57.5 -175.5v-102q125 55 254 55q272 0 272 -237q0 -250 -307 -250zM414 -188q231 0 231 178
q0 82 -51 127t-154 45q-124 0 -245 -58v-55q0 -237 219 -237z" />
    <glyph glyph-name="seven.sinf" horiz-adv-x="694" 
d="M250 -244q-25 0 -14 27l309 709h-447q-20 0 -20 20v31q0 12 4.5 16t15.5 4h514q12 0 16.5 -4t4.5 -14v-19q0 -18 -6 -28l-314 -725q-3 -6 -4 -8.5t-4.5 -5t-8 -3t-13.5 -0.5h-33z" />
    <glyph glyph-name="eight.sinf" horiz-adv-x="827" 
d="M414 -260q-148 0 -228 55.5t-80 159.5q0 148 173 213q-150 52 -150 192q0 103 76.5 161.5t208.5 58.5q133 0 207.5 -55.5t74.5 -147.5q0 -146 -153 -207q92 -24 135 -69.5t43 -125.5q0 -118 -79 -176.5t-228 -58.5zM451 195q22 5 45 15t53.5 29t49.5 53t19 77
q0 67 -53 107t-151 40q-97 0 -152 -41.5t-55 -114.5t53 -109t191 -56zM416 -197q225 0 225 170q0 76 -56.5 109.5t-209.5 54.5q-189 -46 -189 -176q0 -75 60.5 -116.5t169.5 -41.5z" />
    <glyph glyph-name="nine.sinf" horiz-adv-x="825" 
d="M401 -260q-106 0 -173.5 43.5t-98.5 110.5q-8 14 8 24l33 16q16 9 27 -6q57 -116 204 -116q230 0 230 239v101q-138 -54 -254 -54q-275 0 -275 236q0 123 79.5 184.5t230.5 61.5q295 0 295 -306v-221q0 -151 -77 -232t-229 -81zM385 164q127 0 246 57v53q0 236 -219 236
q-113 0 -172.5 -44.5t-59.5 -131.5q0 -82 51 -126t154 -44z" />
    <glyph glyph-name="zero.tf" horiz-adv-x="1320" 
d="M659 -29q-250 0 -386 123.5t-136 341.5v582q0 216 136.5 340.5t385.5 124.5t386 -124.5t137 -340.5v-582q0 -217 -136.5 -341t-386.5 -124zM659 59q205 0 315.5 99t110.5 278v582q0 177 -110.5 277t-315.5 100t-315.5 -100t-110.5 -277v-582q0 -179 110.5 -278t315.5 -99
z" />
    <glyph glyph-name="one.tf" horiz-adv-x="1320" 
d="M166 0q-25 0 -25 27v36q0 25 25 25h459v1251l-381 -217q-26 -15 -39 6l-21 37q-14 20 11 33l426 246q18 10 36 10h37q25 0 25 -27v-1339h438q27 0 27 -25v-36q0 -15 -6 -21t-21 -6h-991z" />
    </font>
</defs>
</svg>
