<?xml version="1.0" standalone="no"?>
<!DOCTYPE svg PUBLIC "-//W3C//DTD SVG 1.1//EN" "http://www.w3.org/Graphics/SVG/1.1/DTD/svg11.dtd" >
<svg xmlns="http://www.w3.org/2000/svg" xmlns:xlink="http://www.w3.org/1999/xlink" version="1.1">
<metadata>
Created by FontForge 20170731 at Wed Jul 15 02:04:51 2020
 By Aleksey,,,
Copyright (c) 2018 by Fontfabric LLC. All rights reserved.
</metadata>
<defs>
<font id="PantonNarrowDemo-Light" horiz-adv-x="0" >
  <font-face 
    font-family="Panton Narrow Light Caps"
    font-weight="290"
    font-stretch="semi-condensed"
    units-per-em="2048"
    panose-1="0 0 3 6 0 0 0 0 0 0"
    ascent="1638"
    descent="-410"
    cap-height="1454"
    bbox="-723 -518 2333 1978.32"
    underline-thickness="102"
    underline-position="-307"
    unicode-range="U+0020-F6C3"
  />
<missing-glyph horiz-adv-x="1447" 
d="M244 0q-25 0 -25 27v1400q0 27 25 27h970q25 0 25 -27v-1400q0 -27 -25 -27h-970zM1145 86v1282h-832v-1282h832z" />
    <glyph glyph-name=".notdef" horiz-adv-x="1447" 
d="M244 0q-25 0 -25 27v1400q0 27 25 27h970q25 0 25 -27v-1400q0 -27 -25 -27h-970zM1145 86v1282h-832v-1282h832z" />
    <glyph glyph-name=".null" horiz-adv-x="356" 
 />
    <glyph glyph-name="nonmarkingreturn" horiz-adv-x="682" 
 />
    <glyph glyph-name="space" unicode=" " horiz-adv-x="499" 
 />
    <glyph glyph-name="exclam" unicode="!" horiz-adv-x="452" 
d="M215 309q-25 0 -25 25l-12 1157q0 25 25 25h47q24 0 24 -25l-12 -1157q-2 -14 -6.5 -19.5t-17.5 -5.5h-23zM221 -12q-34 0 -46.5 11.5t-12.5 47.5v10q0 34 12.5 47t46.5 13h10q34 0 47 -13t13 -47v-10q0 -34 -13 -46.5t-47 -12.5h-10z" />
    <glyph glyph-name="quotedbl" unicode="&#x22;" horiz-adv-x="614" 
d="M190 991q-13 0 -17.5 4.5t-4.5 16.5v420q0 14 4 18t18 4h41q13 0 18 -4.5t5 -17.5l-16 -420q-2 -12 -7 -16.5t-18 -4.5h-23zM391 991q-13 0 -17.5 4.5t-4.5 16.5v420q0 14 4.5 18t17.5 4h39q14 0 19 -4.5t4 -17.5l-17 -420q0 -12 -4.5 -16.5t-17.5 -4.5h-23z" />
    <glyph glyph-name="numbersign" unicode="#" horiz-adv-x="1398" 
d="M256 0q-22 0 -16 23l114 393h-231q-23 0 -17 22l13 35q8 21 28 21h230l115 387h-232q-24 0 -16 22l12 35q8 20 29 20h229l98 342q6 25 27 25h45q22 0 16 -25l-100 -342h352l99 342q5 15 10 20t16 5h43q25 0 17 -25l-97 -342h234q22 0 16 -22l-12 -35q-5 -20 -27 -20h-235
l-113 -387h234q25 0 16 -23l-12 -35q-5 -20 -27 -20h-233l-115 -393q-5 -13 -10.5 -18t-16.5 -5h-45q-22 0 -16 23l115 393h-353l-112 -393q-6 -23 -27 -23h-45zM815 494l115 387h-352l-115 -387h352z" />
    <glyph glyph-name="dollar" unicode="$" horiz-adv-x="1251" 
d="M594 -160q-23 0 -23 25v145q-92 5 -164 31.5t-125 75t-91 108t-70 140.5q-9 28 14 36l43 15q23 9 33 -17q25 -60 51 -104.5t61 -83.5t77 -63.5t98.5 -38t126.5 -13.5q202 0 299.5 76.5t97.5 230.5q0 40 -7.5 73t-18.5 58t-32 45.5t-39.5 34.5t-50 25.5t-54 18t-62 12.5
t-64 9t-67.5 7q-60 7 -99 12.5t-94.5 18t-91 28t-75.5 42.5t-63 62t-38.5 85.5t-15.5 112.5q0 186 105.5 288.5t315.5 108.5v145q0 25 23 25h47q23 0 23 -25v-145q116 -7 199.5 -48t137.5 -106.5t105 -171.5q12 -26 -14 -35l-39 -16q-12 -6 -19 -3.5t-14 15.5
q-48 98 -97.5 155t-129 90.5t-193.5 33.5q-354 0 -354 -311q0 -42 8 -76.5t25.5 -60t36.5 -45t51 -33.5t58 -23t67.5 -16t70.5 -10.5t76 -8.5q62 -7 99.5 -12t94.5 -17.5t92 -28.5t75.5 -43.5t63.5 -63t38.5 -87.5t15.5 -116q0 -185 -114.5 -286t-339.5 -110v-145
q0 -25 -23 -25h-47z" />
    <glyph glyph-name="percent" unicode="%" horiz-adv-x="1695" 
d="M420 735q-149 0 -229 78.5t-80 218.5v152q0 141 80 221t229 80t229 -80t80 -221v-152q0 -140 -80 -218.5t-229 -78.5zM309 0q-13 0 -16.5 8t2.5 19l1010 1405q11 15 18 18.5t27 3.5h39q13 0 16.5 -7.5t-4.5 -19.5l-1008 -1404q-11 -15 -19 -19t-30 -4h-35zM420 809
q113 0 173 60t60 167v146q0 108 -60 168.5t-173 60.5t-173.5 -60.5t-60.5 -168.5v-146q0 -107 60.5 -167t173.5 -60zM1274 -31q-148 0 -228.5 79t-80.5 218v152q0 141 80.5 221t228.5 80q149 0 230 -80t81 -221v-152q0 -139 -81 -218t-230 -79zM1276 43q112 0 172.5 60
t60.5 167v146q0 108 -60.5 168.5t-172.5 60.5q-113 0 -173.5 -60.5t-60.5 -168.5v-146q0 -107 60.5 -167t173.5 -60z" />
    <glyph glyph-name="ampersand" unicode="&#x26;" horiz-adv-x="1382" 
d="M500 -29q-159 0 -269 108t-110 271q0 69 18.5 127.5t47 100.5t74 80t88.5 63t102 53q-94 92 -147.5 178t-53.5 191q0 138 97 239t255 101q150 0 248 -99.5t98 -236.5q0 -74 -20.5 -130t-67 -101.5t-105.5 -80.5t-151 -75l-20 -10l415 -408l146 141q14 17 31 0l30 -26
q13 -13 -2 -31l-147 -147l258 -254q19 -25 -12 -25h-58q-25 0 -39 16l-209 205q-163 -152 -268.5 -201t-228.5 -49zM563 829q140 63 187 96q100 70 114 180q2 20 2 42q0 103 -75.5 180.5t-190.5 77.5q-119 0 -193.5 -78t-74.5 -184q0 -50 15 -95.5t48.5 -90.5t59 -73
t73.5 -75zM502 55q104 0 196 44.5t244 183.5l-436 430q-71 -32 -119.5 -61.5t-91 -72t-63.5 -99t-21 -128.5q0 -125 85.5 -211t205.5 -86z" />
    <glyph glyph-name="quotesingle" unicode="'" horiz-adv-x="415" 
d="M193 991q-23 0 -23 21v420q0 13 5 17.5t18 4.5h40q14 0 18.5 -4.5t4.5 -17.5l-16 -420q0 -21 -23 -21h-24z" />
    <glyph glyph-name="parenleft" unicode="(" horiz-adv-x="552" 
d="M436 -283q-56 34 -94 63.5t-75 69.5t-59 84t-35 104.5t-13 133.5v1055q0 91 18 160t58 122t84.5 90t115.5 82q17 10 29 -12l20 -31q9 -15 -12 -30q-57 -38 -92.5 -69.5t-68.5 -76t-48.5 -102t-15.5 -131.5v-1059q0 -75 15 -132t48 -101.5t69 -76t93 -69.5q20 -14 10 -31
l-18 -30q-13 -22 -29 -13z" />
    <glyph glyph-name="parenright" unicode=")" horiz-adv-x="548" 
d="M113 -283q-16 -9 -29 13l-18 30q-10 17 10 31q57 38 93.5 69.5t69.5 76t48.5 101.5t15.5 132v1059q0 74 -15.5 131.5t-49.5 102.5t-69.5 75.5t-92.5 69.5q-12 9 -14.5 13.5t1.5 16.5l21 31q12 22 29 12q71 -45 115.5 -82t84.5 -90t58 -122t18 -160v-1055
q0 -73 -13 -133.5t-35 -104.5t-59 -84t-75 -69.5t-94 -63.5z" />
    <glyph glyph-name="asterisk" unicode="*" horiz-adv-x="843" 
d="M248 883q-15 10 -4 24l141 183l-213 59q-19 6 -14 22l10 31q6 18 25 8l206 -77l-8 229q-1 9 2.5 12.5t14.5 3.5h28q17 0 17 -16l-9 -229l209 77q19 8 27 -10l8 -29q6 -19 -14 -22l-217 -59l141 -185q12 -12 -2 -24l-25 -19q-9 -6 -13.5 -4.5t-10.5 10.5l-125 189
l-127 -189q-9 -17 -23 -6z" />
    <glyph glyph-name="plus" unicode="+" horiz-adv-x="1228" 
d="M596 186q-25 0 -25 27v416h-405q-25 0 -25 24v33q0 27 25 27h405v413q0 27 25 27h35q13 0 18.5 -6t5.5 -21v-413h408q24 0 24 -27v-33q0 -13 -5.5 -18.5t-18.5 -5.5h-408v-416q0 -15 -5.5 -21t-18.5 -6h-35z" />
    <glyph glyph-name="comma" unicode="," horiz-adv-x="395" 
d="M90 -248q-12 0 -15 4t-1 15l78 321q3 18 10.5 24.5t25.5 6.5h39q37 0 25 -31l-113 -317q-6 -23 -28 -23h-21z" />
    <glyph glyph-name="hyphen" unicode="-" horiz-adv-x="923" 
d="M186 649q-22 0 -22 25v35q0 26 22 26h549q25 0 25 -26v-35q0 -25 -25 -25h-549z" />
    <glyph glyph-name="period" unicode="." horiz-adv-x="403" 
d="M197 -12q-34 0 -47 12t-13 47v10q0 34 13 47t47 13h10q33 0 46 -13.5t13 -46.5v-10q0 -33 -13 -46t-46 -13h-10z" />
    <glyph glyph-name="slash" unicode="/" horiz-adv-x="866" 
d="M121 -123q-27 0 -17 23l568 1532q7 22 33 22h43q25 0 16 -22l-567 -1532q-8 -23 -33 -23h-43z" />
    <glyph glyph-name="zero" unicode="0" horiz-adv-x="1255" 
d="M629 -29q-224 0 -348.5 124t-124.5 341v582q0 216 124.5 340.5t348.5 124.5q222 0 346.5 -124.5t124.5 -340.5v-582q0 -217 -124 -341t-347 -124zM629 59q180 0 277.5 99.5t97.5 277.5v582q0 177 -97.5 277t-277.5 100q-181 0 -279 -100t-98 -277v-582
q0 -178 97.5 -277.5t279.5 -99.5z" />
    <glyph glyph-name="one" unicode="1" horiz-adv-x="794" 
d="M504 0q-15 0 -21 6t-6 21v1312l-327 -186q-13 -7 -21.5 -6t-15.5 14l-19 35q-15 21 10 33l369 215q17 10 37 10h37q13 0 18.5 -6t5.5 -21v-1400q0 -15 -5.5 -21t-18.5 -6h-43z" />
    <glyph glyph-name="two" unicode="2" horiz-adv-x="1181" 
d="M166 0q-25 0 -25 27v168q0 79 23 145.5t57 111.5t90.5 86t105.5 66t120 55q26 11 74.5 30.5t75.5 30t67.5 31t63 37.5t50.5 45t42 58t24 71.5t10 90.5q0 156 -89 249t-237 93q-147 0 -239 -65t-148 -204q-8 -22 -28 -14l-43 14q-25 9 -15 31q64 166 178 246t300 80
q191 0 304 -119t113 -309q0 -60 -11.5 -110t-28.5 -87.5t-48 -70.5t-60 -55.5t-75 -46.5t-81.5 -39.5t-90.5 -38.5l-51 -21q-67 -28 -109.5 -48.5t-93.5 -55t-80 -70.5t-49 -88.5t-20 -116.5v-119h772q24 0 24 -25v-36q0 -15 -5.5 -21t-18.5 -6h-848z" />
    <glyph glyph-name="three" unicode="3" horiz-adv-x="1196" 
d="M614 -29q-142 0 -239.5 44t-152 121.5t-87.5 199.5q-9 27 17 33l41 12q24 9 32 -16q37 -157 125.5 -231.5t261.5 -74.5q178 0 265.5 88t87.5 248q0 138 -74 224t-207 86h-299q-14 0 -19.5 5.5t-5.5 20.5v35q0 25 25 25h293q125 0 187.5 80t62.5 202q0 155 -80.5 238.5
t-237.5 83.5q-167 0 -251.5 -69t-125.5 -228q-4 -13 -11.5 -16.5t-20.5 1.5l-37 11q-25 8 -17 34q48 179 156 267t311 88q198 0 303 -106t105 -298q0 -112 -46.5 -199t-137.5 -124q107 -39 164 -135.5t57 -225.5q0 -200 -110.5 -312t-334.5 -112z" />
    <glyph glyph-name="four" unicode="4" horiz-adv-x="1208" 
d="M831 0q-13 0 -18.5 6t-5.5 21v397h-696q-25 0 -25 27v26q0 23 10 35l692 944q18 21 35 21h47q15 0 21 -6t6 -23v-938h195q13 0 18.5 -6t5.5 -21v-32q0 -15 -5.5 -21t-18.5 -6h-195v-397q0 -27 -25 -27h-41zM807 510v833l-612 -833h612z" />
    <glyph glyph-name="five" unicode="5" horiz-adv-x="1169" 
d="M598 -29q-193 0 -307 80.5t-168 239.5q-8 24 12 33l43 14q23 10 33 -16q82 -263 387 -263q160 0 256 104.5t96 262.5q0 154 -89 250t-255 96h-401q-35 0 -29 35l55 602q3 26 13 35.5t35 9.5h694q13 0 18.5 -6t5.5 -21v-36q0 -25 -24 -25h-654l-47 -506h340
q110 0 194.5 -34t136.5 -94t78 -137.5t26 -168.5q0 -195 -120.5 -325t-328.5 -130z" />
    <glyph glyph-name="six" unicode="6" horiz-adv-x="1241" 
d="M631 -29q-231 0 -354 135t-123 375v496q0 250 121.5 378t355.5 128q179 0 289.5 -77t164.5 -230q5 -13 2 -20t-16 -11l-39 -15q-20 -8 -31 17q-45 125 -134 186.5t-236 61.5q-384 0 -381 -414v-225q175 78 397 78q236 0 348.5 -106t112.5 -325q0 -203 -127 -317.5
t-350 -114.5zM631 59q183 0 282 89t99 255q0 175 -89.5 260t-279.5 85q-214 0 -393 -82v-187q0 -199 97.5 -309.5t283.5 -110.5z" />
    <glyph glyph-name="seven" unicode="7" horiz-adv-x="1026" 
d="M324 0q-26 0 -13 27l553 1339h-749q-25 0 -25 25v36q0 27 25 27h831q25 0 25 -27v-24q0 -21 -6 -37l-553 -1343q-8 -15 -14 -19t-25 -4h-49z" />
    <glyph glyph-name="eight" unicode="8" horiz-adv-x="1230" 
d="M614 -29q-248 0 -363.5 97t-115.5 268q0 79 25.5 145.5t61.5 109.5t85.5 77t87.5 51t78 29q-68 27 -116 54.5t-93 70t-67.5 103.5t-22.5 140q0 177 117 272t325 95q217 0 330 -92t113 -269q0 -74 -21.5 -135.5t-52 -100.5t-74 -70.5t-76 -47t-69.5 -27.5
q59 -21 102 -40.5t88.5 -52t74 -71t47 -96t18.5 -127.5q0 -177 -117 -280t-365 -103zM655 774q114 30 178 76q134 94 134 264q0 139 -90.5 212t-262.5 73q-163 0 -253.5 -73.5t-90.5 -211.5q0 -78 25 -133t88 -93.5t103 -54.5t135 -46q5 -2 8 -3zM614 55q198 0 290.5 79.5
t92.5 219.5q0 56 -12.5 100t-39.5 76.5t-58 56t-78 43.5t-88.5 34t-101.5 32q-29 8 -44 13q-21 -5 -36 -9t-54 -18.5t-68 -31t-66 -46.5t-61.5 -64.5t-41.5 -85.5t-17 -110q0 -289 383 -289z" />
    <glyph glyph-name="nine" unicode="9" horiz-adv-x="1241" 
d="M610 -29q-179 0 -289.5 77.5t-164.5 230.5q-5 13 -2 19.5t16 10.5l39 15q22 8 33 -17q43 -125 132 -186.5t236 -61.5q381 0 381 408v231q-173 -77 -397 -77q-236 0 -348.5 105.5t-112.5 324.5q0 203 127 317.5t350 114.5q231 0 354 -135t123 -375v-502
q0 -248 -121.5 -374t-355.5 -126zM598 707q216 0 393 81v187q0 203 -97 311.5t-284 108.5q-183 0 -282 -89t-99 -255q0 -178 89 -261t280 -83z" />
    <glyph glyph-name="colon" unicode=":" horiz-adv-x="450" 
d="M225 1063q-33 0 -46 12.5t-13 46.5v13q0 33 13 46t46 13h11q32 0 45.5 -13.5t13.5 -45.5v-13q0 -33 -13 -46t-46 -13h-11zM225 190q-33 0 -46 12.5t-13 47.5v10q0 34 12.5 46.5t46.5 12.5h11q33 0 46 -13t13 -46v-10q0 -34 -13.5 -47t-45.5 -13h-11z" />
    <glyph glyph-name="semicolon" unicode=";" horiz-adv-x="526" 
d="M279 860q-33 0 -46.5 13t-13.5 47v10q0 33 13.5 46t46.5 13h10q34 0 46.5 -12.5t12.5 -46.5v-10q0 -34 -12.5 -47t-46.5 -13h-10zM164 -248q-20 0 -17 19l78 321q4 19 12 25t25 6h39q37 0 25 -31l-111 -317q-9 -23 -31 -23h-20z" />
    <glyph glyph-name="less" unicode="&#x3c;" horiz-adv-x="1071" 
d="M133 621q-20 12 -20 34v25q0 15 4 21t16 14l746 415q15 8 21.5 3.5t6.5 -23.5v-37q0 -22 -4.5 -28.5t-21.5 -16.5l-652 -358v-4l654 -361q15 -10 19.5 -17.5t4.5 -27.5v-35q0 -35 -28 -18z" />
    <glyph glyph-name="equal" unicode="=" horiz-adv-x="1267" 
d="M190 829q-24 0 -24 25v35q0 15 5 20.5t19 5.5h887q14 0 19.5 -5.5t5.5 -20.5v-35q0 -25 -25 -25h-887zM190 424q-13 0 -18.5 6t-5.5 21v32q0 15 5.5 21t18.5 6h887q25 0 25 -27v-32q0 -27 -25 -27h-887z" />
    <glyph glyph-name="greater" unicode="&#x3e;" horiz-adv-x="1071" 
d="M193 207q-29 -17 -29 18v35q0 20 5 27.5t21 17.5l654 359v4l-654 360q-17 10 -21.5 16.5t-4.5 28.5v37q0 34 29 20l745 -415q14 -8 18.5 -14.5t4.5 -20.5v-25q0 -20 -23 -34z" />
    <glyph glyph-name="question" unicode="?" horiz-adv-x="1177" 
d="M520 289q-14 0 -19 4.5t-5 19.5q0 62 14 114t32.5 87t54 71t60.5 56t70 51q40 27 62 43.5t56 46t53 57t39 66t29 85.5t9 102q0 148 -99.5 243t-275.5 95q-306 0 -414 -281q-6 -14 -12 -17t-18 1l-41 12q-23 8 -15 33q128 338 500 338q219 0 346 -120.5t127 -301.5
q0 -54 -9.5 -102t-21 -83t-37.5 -72.5t-43 -58.5t-54 -52.5t-54 -44t-59 -42.5q-7 -5 -11 -8q-47 -33 -76 -58t-61.5 -64t-48.5 -88t-16 -108q0 -14 -5 -19t-18 -5h-39zM535 -12q-34 0 -47 12t-13 47v10q0 34 13 47t47 13h10q34 0 46.5 -13t12.5 -47v-10q0 -34 -12.5 -46.5
t-46.5 -12.5h-10z" />
    <glyph glyph-name="at" unicode="@" horiz-adv-x="1882" 
d="M938 -270q-381 0 -592 207.5t-211 588.5v142q0 379 213 597t590 218q192 0 344.5 -59t252 -166.5t152 -257.5t52.5 -332v-142q0 -105 -29.5 -189t-79 -135.5t-112 -78.5t-132.5 -27q-53 0 -82.5 21t-43.5 67q-155 -82 -373 -82q-174 0 -260 86t-86 246v324
q0 159 86.5 247.5t259.5 88.5q198 0 350 -62q41 -18 55.5 -37t14.5 -61v-688q0 -80 79 -80q54 0 103 21t89.5 62.5t64.5 113t24 163.5v144q0 226 -82.5 392.5t-248 259.5t-398.5 93q-342 0 -535.5 -198.5t-193.5 -546.5v-144q0 -351 192 -540t537 -189q115 0 233 18t195 40
q18 3 18 -9v-39q0 -11 -4 -15t-14 -7q-182 -55 -428 -55zM895 174q199 0 334 80v659q0 26 -8.5 37.5t-34.5 22.5q-117 49 -291 49q-140 0 -208.5 -68.5t-68.5 -197.5v-320q0 -262 277 -262z" />
    <glyph glyph-name="A" unicode="A" horiz-adv-x="1277" 
d="M76 0q-30 0 -19 25l525 1415q8 24 34 24h46q24 0 32 -24l525 -1415q11 -25 -19 -25h-41q-21 0 -29.5 4.5t-13.5 18.5l-164 452h-628l-166 -452q-4 -13 -13.5 -18t-29.5 -5h-39zM922 557l-263 723q-17 53 -20 86h-6q-3 -30 -17 -86l-264 -723h570z" />
    <glyph glyph-name="A" unicode="a" horiz-adv-x="1277" 
d="M76 0q-30 0 -19 25l525 1415q8 24 34 24h46q24 0 32 -24l525 -1415q11 -25 -19 -25h-41q-21 0 -29.5 4.5t-13.5 18.5l-164 452h-628l-166 -452q-4 -13 -13.5 -18t-29.5 -5h-39zM922 557l-263 723q-17 53 -20 86h-6q-3 -30 -17 -86l-264 -723h570z" />
    <glyph glyph-name="B" unicode="B" horiz-adv-x="1292" 
d="M225 0q-13 0 -18.5 6t-5.5 21v1400q0 15 5.5 21t18.5 6h518q170 0 270.5 -96.5t100.5 -272.5q0 -256 -199 -333v-4q118 -30 182 -121.5t64 -239.5q0 -185 -104.5 -286t-284.5 -101h-547zM745 782q131 0 204 75.5t73 219.5q0 142 -75 215.5t-208 73.5h-444v-584h450z
M768 88q138 0 218.5 79.5t80.5 227.5t-77.5 226.5t-213.5 78.5h-481v-612h473z" />
    <glyph glyph-name="B" unicode="b" horiz-adv-x="1292" 
d="M225 0q-13 0 -18.5 6t-5.5 21v1400q0 15 5.5 21t18.5 6h518q170 0 270.5 -96.5t100.5 -272.5q0 -256 -199 -333v-4q118 -30 182 -121.5t64 -239.5q0 -185 -104.5 -286t-284.5 -101h-547zM745 782q131 0 204 75.5t73 219.5q0 142 -75 215.5t-208 73.5h-444v-584h450z
M768 88q138 0 218.5 79.5t80.5 227.5t-77.5 226.5t-213.5 78.5h-481v-612h473z" />
    <glyph glyph-name="C" unicode="C" horiz-adv-x="1280" 
d="M666 -29q-244 0 -377 134.5t-133 371.5v502q0 237 131.5 370.5t378.5 133.5q215 0 331.5 -88t165.5 -269q10 -26 -14 -32l-41 -13q-25 -8 -33 15q-42 156 -135.5 227.5t-271.5 71.5q-204 0 -310 -109.5t-106 -304.5v-506q0 -195 106.5 -304.5t307.5 -109.5
q179 0 272.5 75t138.5 231q8 26 33 18l43 -14q24 -9 16 -35q-57 -184 -172 -274.5t-331 -90.5z" />
    <glyph glyph-name="C" unicode="c" horiz-adv-x="1280" 
d="M666 -29q-244 0 -377 134.5t-133 371.5v502q0 237 131.5 370.5t378.5 133.5q215 0 331.5 -88t165.5 -269q10 -26 -14 -32l-41 -13q-25 -8 -33 15q-42 156 -135.5 227.5t-271.5 71.5q-204 0 -310 -109.5t-106 -304.5v-506q0 -195 106.5 -304.5t307.5 -109.5
q179 0 272.5 75t138.5 231q8 26 33 18l43 -14q24 -9 16 -35q-57 -184 -172 -274.5t-331 -90.5z" />
    <glyph glyph-name="D" unicode="D" horiz-adv-x="1304" 
d="M225 0q-13 0 -18.5 6t-5.5 21v1400q0 15 5.5 21t18.5 6h385q261 0 404 -144t143 -397v-372q0 -253 -143 -397t-404 -144h-385zM612 88q217 0 334 119t117 334v372q0 215 -116.5 334t-334.5 119h-317v-1278h317z" />
    <glyph glyph-name="D" unicode="d" horiz-adv-x="1304" 
d="M225 0q-13 0 -18.5 6t-5.5 21v1400q0 15 5.5 21t18.5 6h385q261 0 404 -144t143 -397v-372q0 -253 -143 -397t-404 -144h-385zM612 88q217 0 334 119t117 334v372q0 215 -116.5 334t-334.5 119h-317v-1278h317z" />
    <glyph glyph-name="E" unicode="E" horiz-adv-x="1148" 
d="M225 0q-13 0 -18.5 6t-5.5 21v1400q0 15 5.5 21t18.5 6h760q25 0 25 -27v-36q0 -25 -25 -25h-690v-584h608q25 0 25 -26v-37q0 -27 -25 -27h-608v-604h715q24 0 24 -25v-36q0 -15 -5.5 -21t-18.5 -6h-785z" />
    <glyph glyph-name="E" unicode="e" horiz-adv-x="1148" 
d="M225 0q-13 0 -18.5 6t-5.5 21v1400q0 15 5.5 21t18.5 6h760q25 0 25 -27v-36q0 -25 -25 -25h-690v-584h608q25 0 25 -26v-37q0 -27 -25 -27h-608v-604h715q24 0 24 -25v-36q0 -15 -5.5 -21t-18.5 -6h-785z" />
    <glyph glyph-name="F" unicode="F" horiz-adv-x="1105" 
d="M225 0q-13 0 -18.5 6t-5.5 21v1400q0 15 5.5 21t18.5 6h752q13 0 18.5 -6t5.5 -21v-36q0 -25 -24 -25h-680v-606h590q13 0 18.5 -6t5.5 -21v-37q0 -14 -5.5 -19t-18.5 -5h-590v-645q0 -27 -25 -27h-47z" />
    <glyph glyph-name="F" unicode="f" horiz-adv-x="1105" 
d="M225 0q-13 0 -18.5 6t-5.5 21v1400q0 15 5.5 21t18.5 6h752q13 0 18.5 -6t5.5 -21v-36q0 -25 -24 -25h-680v-606h590q13 0 18.5 -6t5.5 -21v-37q0 -14 -5.5 -19t-18.5 -5h-590v-645q0 -27 -25 -27h-47z" />
    <glyph glyph-name="G" unicode="G" horiz-adv-x="1314" 
d="M668 -29q-247 0 -379.5 135t-132.5 373v500q0 237 132 370.5t380 133.5q213 0 329.5 -88.5t165.5 -268.5q8 -25 -16 -34l-41 -13q-25 -8 -33 17q-42 156 -135.5 227.5t-269.5 71.5q-206 0 -311 -109t-105 -305v-502q0 -199 106.5 -309.5t309.5 -110.5q202 0 309.5 106.5
t107.5 297.5v184h-401q-25 0 -25 25v37q0 15 5.5 20.5t19.5 5.5h467q15 0 21 -5.5t6 -22.5v-242q0 -228 -133 -361t-377 -133z" />
    <glyph glyph-name="G" unicode="g" horiz-adv-x="1314" 
d="M668 -29q-247 0 -379.5 135t-132.5 373v500q0 237 132 370.5t380 133.5q213 0 329.5 -88.5t165.5 -268.5q8 -25 -16 -34l-41 -13q-25 -8 -33 17q-42 156 -135.5 227.5t-269.5 71.5q-206 0 -311 -109t-105 -305v-502q0 -199 106.5 -309.5t309.5 -110.5q202 0 309.5 106.5
t107.5 297.5v184h-401q-25 0 -25 25v37q0 15 5.5 20.5t19.5 5.5h467q15 0 21 -5.5t6 -22.5v-242q0 -228 -133 -361t-377 -133z" />
    <glyph glyph-name="H" unicode="H" horiz-adv-x="1372" 
d="M225 0q-13 0 -18.5 6t-5.5 21v1400q0 15 5.5 21t18.5 6h45q25 0 25 -27v-645h782v645q0 27 25 27h47q25 0 25 -27v-1400q0 -27 -25 -27h-47q-25 0 -25 27v665h-782v-665q0 -27 -25 -27h-45z" />
    <glyph glyph-name="H" unicode="h" horiz-adv-x="1372" 
d="M225 0q-13 0 -18.5 6t-5.5 21v1400q0 15 5.5 21t18.5 6h45q25 0 25 -27v-645h782v645q0 27 25 27h47q25 0 25 -27v-1400q0 -27 -25 -27h-47q-25 0 -25 27v665h-782v-665q0 -27 -25 -27h-45z" />
    <glyph glyph-name="I" unicode="I" horiz-adv-x="495" 
d="M223 0q-22 0 -22 25v1407q0 22 22 22h49q23 0 23 -22v-1407q0 -25 -23 -25h-49z" />
    <glyph glyph-name="I" unicode="i" horiz-adv-x="495" 
d="M223 0q-22 0 -22 25v1407q0 22 22 22h49q23 0 23 -22v-1407q0 -25 -23 -25h-49z" />
    <glyph glyph-name="J" unicode="J" horiz-adv-x="1142" 
d="M512 -29q-362 0 -434 404q-9 27 16 35l39 12q27 9 33 -21q29 -169 112 -254.5t236 -85.5q167 0 255.5 101t88.5 282v986q0 24 25 24h47q14 0 19 -5t5 -19v-984q0 -221 -115 -348t-327 -127z" />
    <glyph glyph-name="J" unicode="j" horiz-adv-x="1142" 
d="M512 -29q-362 0 -434 404q-9 27 16 35l39 12q27 9 33 -21q29 -169 112 -254.5t236 -85.5q167 0 255.5 101t88.5 282v986q0 24 25 24h47q14 0 19 -5t5 -19v-984q0 -221 -115 -348t-327 -127z" />
    <glyph glyph-name="K" unicode="K" horiz-adv-x="1210" 
d="M225 0q-13 0 -18.5 6t-5.5 21v1400q0 15 5.5 21t18.5 6h45q25 0 25 -27v-647h287l426 652q9 14 17 18t28 4h51q13 0 16.5 -8t-2.5 -19l-444 -665q79 -21 130.5 -74.5t96.5 -150.5l236 -510q7 -11 2 -19t-19 -8h-45q-20 0 -27.5 4.5t-13.5 18.5l-217 477
q-48 105 -107.5 149.5t-168.5 44.5h-246v-667q0 -27 -25 -27h-45z" />
    <glyph glyph-name="K" unicode="k" horiz-adv-x="1210" 
d="M225 0q-13 0 -18.5 6t-5.5 21v1400q0 15 5.5 21t18.5 6h45q25 0 25 -27v-647h287l426 652q9 14 17 18t28 4h51q13 0 16.5 -8t-2.5 -19l-444 -665q79 -21 130.5 -74.5t96.5 -150.5l236 -510q7 -11 2 -19t-19 -8h-45q-20 0 -27.5 4.5t-13.5 18.5l-217 477
q-48 105 -107.5 149.5t-168.5 44.5h-246v-667q0 -27 -25 -27h-45z" />
    <glyph glyph-name="L" unicode="L" horiz-adv-x="1042" 
d="M223 0q-22 0 -22 27v1400q0 27 22 27h47q25 0 25 -27v-1339h666q22 0 22 -25v-36q0 -27 -22 -27h-738z" />
    <glyph glyph-name="L" unicode="l" horiz-adv-x="1042" 
d="M223 0q-22 0 -22 27v1400q0 27 22 27h47q25 0 25 -27v-1339h666q22 0 22 -25v-36q0 -27 -22 -27h-738z" />
    <glyph glyph-name="M" unicode="M" horiz-adv-x="1611" 
d="M225 0q-13 0 -18.5 6t-5.5 21v1400q0 15 5.5 21t18.5 6h39q28 0 39 -22l504 -975l500 973q8 15 14 19.5t22 4.5h43q25 0 25 -27v-1400q0 -27 -25 -27h-43q-13 0 -18.5 6t-5.5 21v938q0 197 12 342h-4q-83 -183 -139 -291l-334 -645q-12 -23 -31 -23h-30q-23 0 -33 23
l-340 653q-62 117 -135 285h-6q12 -148 12 -344v-938q0 -27 -25 -27h-41z" />
    <glyph glyph-name="M" unicode="m" horiz-adv-x="1611" 
d="M225 0q-13 0 -18.5 6t-5.5 21v1400q0 15 5.5 21t18.5 6h39q28 0 39 -22l504 -975l500 973q8 15 14 19.5t22 4.5h43q25 0 25 -27v-1400q0 -27 -25 -27h-43q-13 0 -18.5 6t-5.5 21v938q0 197 12 342h-4q-83 -183 -139 -291l-334 -645q-12 -23 -31 -23h-30q-23 0 -33 23
l-340 653q-62 117 -135 285h-6q12 -148 12 -344v-938q0 -27 -25 -27h-41z" />
    <glyph glyph-name="N" unicode="N" horiz-adv-x="1390" 
d="M225 0q-13 0 -18.5 6t-5.5 21v1400q0 15 5.5 21t18.5 6h51q20 0 27 -14l635 -1010q28 -45 54.5 -90.5t66 -117t49.5 -89.5h6q-14 212 -14 373v924q0 14 5 19t19 5h43q25 0 25 -27v-1400q0 -27 -25 -27h-51q-20 0 -29 16l-653 1037q-31 52 -82.5 147.5t-64.5 118.5h-4
q1 -36 5.5 -153t4.5 -185v-954q0 -15 -6 -21t-21 -6h-41z" />
    <glyph glyph-name="N" unicode="n" horiz-adv-x="1390" 
d="M225 0q-13 0 -18.5 6t-5.5 21v1400q0 15 5.5 21t18.5 6h51q20 0 27 -14l635 -1010q28 -45 54.5 -90.5t66 -117t49.5 -89.5h6q-14 212 -14 373v924q0 14 5 19t19 5h43q25 0 25 -27v-1400q0 -27 -25 -27h-51q-20 0 -29 16l-653 1037q-31 52 -82.5 147.5t-64.5 118.5h-4
q1 -36 5.5 -153t4.5 -185v-954q0 -15 -6 -21t-21 -6h-41z" />
    <glyph glyph-name="O" unicode="O" horiz-adv-x="1333" 
d="M668 -29q-247 0 -379.5 134t-132.5 372v500q0 238 132.5 372t379.5 134q246 0 378 -134t132 -372v-500q0 -238 -132 -372t-378 -134zM668 59q200 0 307.5 110.5t107.5 309.5v496q0 199 -107.5 309.5t-307.5 110.5q-201 0 -308.5 -111t-107.5 -309v-496q0 -198 107.5 -309
t308.5 -111z" />
    <glyph glyph-name="O" unicode="o" horiz-adv-x="1333" 
d="M668 -29q-247 0 -379.5 134t-132.5 372v500q0 238 132.5 372t379.5 134q246 0 378 -134t132 -372v-500q0 -238 -132 -372t-378 -134zM668 59q200 0 307.5 110.5t107.5 309.5v496q0 199 -107.5 309.5t-307.5 110.5q-201 0 -308.5 -111t-107.5 -309v-496q0 -198 107.5 -309
t308.5 -111z" />
    <glyph glyph-name="P" unicode="P" horiz-adv-x="1247" 
d="M225 0q-13 0 -18.5 6t-5.5 21v1400q0 15 5.5 21t18.5 6h504q194 0 307 -118.5t113 -327.5q0 -206 -113 -324.5t-307 -118.5h-434v-538q0 -27 -25 -27h-45zM725 655q152 0 240 93.5t88 259.5q0 168 -88 263t-240 95h-430v-711h430z" />
    <glyph glyph-name="P" unicode="p" horiz-adv-x="1247" 
d="M225 0q-13 0 -18.5 6t-5.5 21v1400q0 15 5.5 21t18.5 6h504q194 0 307 -118.5t113 -327.5q0 -206 -113 -324.5t-307 -118.5h-434v-538q0 -27 -25 -27h-45zM725 655q152 0 240 93.5t88 259.5q0 168 -88 263t-240 95h-430v-711h430z" />
    <glyph glyph-name="Q" unicode="Q" horiz-adv-x="1417" 
d="M1047 63q-122 -92 -316 -92q-247 0 -379.5 134t-132.5 372v500q0 238 132.5 372t379.5 134q246 0 378 -134t132 -372v-500q0 -227 -121 -360l168 -183q17 -20 -2 -34l-33 -27q-19 -14 -34 4zM731 59q200 0 308 111t106 309v496q0 198 -107.5 309t-306.5 111
q-202 0 -310 -110.5t-108 -309.5v-496q0 -199 108 -309.5t310 -110.5z" />
    <glyph glyph-name="Q" unicode="q" horiz-adv-x="1417" 
d="M1047 63q-122 -92 -316 -92q-247 0 -379.5 134t-132.5 372v500q0 238 132.5 372t379.5 134q246 0 378 -134t132 -372v-500q0 -227 -121 -360l168 -183q17 -20 -2 -34l-33 -27q-19 -14 -34 4zM731 59q200 0 308 111t106 309v496q0 198 -107.5 309t-306.5 111
q-202 0 -310 -110.5t-108 -309.5v-496q0 -199 108 -309.5t310 -110.5z" />
    <glyph glyph-name="R" unicode="R" horiz-adv-x="1294" 
d="M225 0q-13 0 -18.5 6t-5.5 21v1400q0 15 5.5 21t18.5 6h537q181 0 285 -108t104 -302q0 -175 -89 -276t-245 -113q56 -24 93.5 -65.5t68.5 -108.5l209 -454q6 -11 2.5 -19t-16.5 -8h-46q-22 0 -30.5 4.5t-14.5 18.5l-192 421q-49 107 -110.5 152t-170.5 45h-315v-614
q0 -27 -25 -27h-45zM758 725q138 0 217.5 83.5t79.5 235.5q0 153 -78.5 237.5t-218.5 84.5h-463v-641h463z" />
    <glyph glyph-name="R" unicode="r" horiz-adv-x="1294" 
d="M225 0q-13 0 -18.5 6t-5.5 21v1400q0 15 5.5 21t18.5 6h537q181 0 285 -108t104 -302q0 -175 -89 -276t-245 -113q56 -24 93.5 -65.5t68.5 -108.5l209 -454q6 -11 2.5 -19t-16.5 -8h-46q-22 0 -30.5 4.5t-14.5 18.5l-192 421q-49 107 -110.5 152t-170.5 45h-315v-614
q0 -27 -25 -27h-45zM758 725q138 0 217.5 83.5t79.5 235.5q0 153 -78.5 237.5t-218.5 84.5h-463v-641h463z" />
    <glyph glyph-name="S" unicode="S" horiz-adv-x="1257" 
d="M629 -29q-196 0 -320 85t-190 268q-9 26 14 34l43 15q13 5 20 1.5t13 -16.5q59 -156 161 -226.5t259 -70.5q405 0 405 324q0 51 -12 91.5t-30.5 69t-51 51t-61.5 35.5t-76 24t-80.5 16t-87.5 12q-46 6 -78 11t-76.5 14.5t-76 20t-69.5 27.5t-63.5 37t-51.5 48.5t-42 62.5
t-25.5 78t-9.5 96q0 187 127 295.5t351 108.5q188 0 303.5 -74.5t189.5 -239.5q16 -25 -12 -34l-41 -15q-12 -6 -19 -4t-14 14q-62 137 -158 200t-249 63q-181 0 -281 -82t-100 -230q0 -51 12.5 -92t32 -70t53.5 -52t65.5 -37t79 -25.5t84.5 -17.5t92 -13q58 -7 98.5 -14
t93.5 -21.5t89.5 -32t75 -47t61.5 -67t38 -91t15 -118.5q0 -201 -127.5 -306.5t-373.5 -105.5z" />
    <glyph glyph-name="S" unicode="s" horiz-adv-x="1257" 
d="M629 -29q-196 0 -320 85t-190 268q-9 26 14 34l43 15q13 5 20 1.5t13 -16.5q59 -156 161 -226.5t259 -70.5q405 0 405 324q0 51 -12 91.5t-30.5 69t-51 51t-61.5 35.5t-76 24t-80.5 16t-87.5 12q-46 6 -78 11t-76.5 14.5t-76 20t-69.5 27.5t-63.5 37t-51.5 48.5t-42 62.5
t-25.5 78t-9.5 96q0 187 127 295.5t351 108.5q188 0 303.5 -74.5t189.5 -239.5q16 -25 -12 -34l-41 -15q-12 -6 -19 -4t-14 14q-62 137 -158 200t-249 63q-181 0 -281 -82t-100 -230q0 -51 12.5 -92t32 -70t53.5 -52t65.5 -37t79 -25.5t84.5 -17.5t92 -13q58 -7 98.5 -14
t93.5 -21.5t89.5 -32t75 -47t61.5 -67t38 -91t15 -118.5q0 -201 -127.5 -306.5t-373.5 -105.5z" />
    <glyph glyph-name="T" unicode="T" horiz-adv-x="1081" 
d="M518 0q-24 0 -24 25v1341h-412q-25 0 -25 25v36q0 27 25 27h917q25 0 25 -27v-36q0 -25 -25 -25h-411v-1341q0 -25 -25 -25h-45z" />
    <glyph glyph-name="T" unicode="t" horiz-adv-x="1081" 
d="M518 0q-24 0 -24 25v1341h-412q-25 0 -25 25v36q0 27 25 27h917q25 0 25 -27v-36q0 -25 -25 -25h-411v-1341q0 -25 -25 -25h-45z" />
    <glyph glyph-name="U" unicode="U" horiz-adv-x="1374" 
d="M686 -29q-245 0 -371.5 139.5t-126.5 383.5v936q0 24 25 24h45q25 0 25 -24v-936q0 -204 102 -319.5t301 -115.5q200 0 302 115.5t102 319.5v936q0 14 5 19t19 5h47q25 0 25 -24v-936q0 -244 -127.5 -383.5t-372.5 -139.5z" />
    <glyph glyph-name="U" unicode="u" horiz-adv-x="1374" 
d="M686 -29q-245 0 -371.5 139.5t-126.5 383.5v936q0 24 25 24h45q25 0 25 -24v-936q0 -204 102 -319.5t301 -115.5q200 0 302 115.5t102 319.5v936q0 14 5 19t19 5h47q25 0 25 -24v-936q0 -244 -127.5 -383.5t-372.5 -139.5z" />
    <glyph glyph-name="V" unicode="V" horiz-adv-x="1236" 
d="M594 0q-24 0 -33 23l-504 1407q-7 24 19 24h47q19 0 25.5 -4t11.5 -18l415 -1178q35 -113 41 -137h7q36 123 41 137l413 1178q5 14 12.5 18t28.5 4h47q25 0 15 -24l-504 -1405q-6 -25 -33 -25h-49z" />
    <glyph glyph-name="V" unicode="v" horiz-adv-x="1236" 
d="M594 0q-24 0 -33 23l-504 1407q-7 24 19 24h47q19 0 25.5 -4t11.5 -18l415 -1178q35 -113 41 -137h7q36 123 41 137l413 1178q5 14 12.5 18t28.5 4h47q25 0 15 -24l-504 -1405q-6 -25 -33 -25h-49z" />
    <glyph glyph-name="W" unicode="W" horiz-adv-x="1796" 
d="M483 0q-29 0 -34 23l-367 1407q-9 24 16 24h54q17 0 22.5 -4t7.5 -18l283 -1102q26 -110 39 -195h4q5 31 13 64t18 72t14 57l295 1071q5 24 33 24h41q29 0 34 -24l291 -1073q4 -14 43 -191h4q24 125 39 189l283 1108q3 14 9.5 18t23.5 4h49q24 0 18 -24l-368 -1405
q-5 -25 -33 -25h-47q-27 0 -35 23l-289 1079q-2 6 -43 186h-4q-14 -73 -45 -186l-291 -1077q-3 -25 -33 -25h-45z" />
    <glyph glyph-name="W" unicode="w" horiz-adv-x="1796" 
d="M483 0q-29 0 -34 23l-367 1407q-9 24 16 24h54q17 0 22.5 -4t7.5 -18l283 -1102q26 -110 39 -195h4q5 31 13 64t18 72t14 57l295 1071q5 24 33 24h41q29 0 34 -24l291 -1073q4 -14 43 -191h4q24 125 39 189l283 1108q3 14 9.5 18t23.5 4h49q24 0 18 -24l-368 -1405
q-5 -25 -33 -25h-47q-27 0 -35 23l-289 1079q-2 6 -43 186h-4q-14 -73 -45 -186l-291 -1077q-3 -25 -33 -25h-45z" />
    <glyph glyph-name="X" unicode="X" horiz-adv-x="1216" 
d="M78 0q-29 0 -10 31l477 708l-465 691q-6 9 -3 16.5t15 7.5h55q21 0 29 -3.5t17 -18.5l415 -619l414 619q7 15 14.5 18.5t28.5 3.5h57q12 0 16 -7.5t-1 -16.5l-469 -689l481 -710q8 -12 5 -21.5t-17 -9.5h-56q-20 0 -27 4t-16 19l-432 645l-428 -645q-7 -15 -15 -19
t-26 -4h-59z" />
    <glyph glyph-name="X" unicode="x" horiz-adv-x="1216" 
d="M78 0q-29 0 -10 31l477 708l-465 691q-6 9 -3 16.5t15 7.5h55q21 0 29 -3.5t17 -18.5l415 -619l414 619q7 15 14.5 18.5t28.5 3.5h57q12 0 16 -7.5t-1 -16.5l-469 -689l481 -710q8 -12 5 -21.5t-17 -9.5h-56q-20 0 -27 4t-16 19l-432 645l-428 -645q-7 -15 -15 -19
t-26 -4h-59z" />
    <glyph glyph-name="Y" unicode="Y" horiz-adv-x="1249" 
d="M602 0q-13 0 -18.5 6t-5.5 21v573l-512 827q-6 11 -2.5 19t16.5 8h53q21 0 28 -4t15 -18l451 -742l450 742q8 14 15 18t28 4h51q13 0 17 -8t-2 -19l-514 -831v-569q0 -27 -25 -27h-45z" />
    <glyph glyph-name="Y" unicode="y" horiz-adv-x="1249" 
d="M602 0q-13 0 -18.5 6t-5.5 21v573l-512 827q-6 11 -2.5 19t16.5 8h53q21 0 28 -4t15 -18l451 -742l450 742q8 14 15 18t28 4h51q13 0 17 -8t-2 -19l-514 -831v-569q0 -27 -25 -27h-45z" />
    <glyph glyph-name="Z" unicode="Z" horiz-adv-x="1118" 
d="M121 0q-23 0 -23 27v34q0 19 11 35l784 1270h-764q-23 0 -23 27v34q0 27 23 27h854q25 0 25 -27v-32q0 -19 -11 -33l-786 -1272h795q13 0 18.5 -6t5.5 -21v-36q0 -15 -5.5 -21t-18.5 -6h-885z" />
    <glyph glyph-name="Z" unicode="z" horiz-adv-x="1118" 
d="M121 0q-23 0 -23 27v34q0 19 11 35l784 1270h-764q-23 0 -23 27v34q0 27 23 27h854q25 0 25 -27v-32q0 -19 -11 -33l-786 -1272h795q13 0 18.5 -6t5.5 -21v-36q0 -15 -5.5 -21t-18.5 -6h-885z" />
    <glyph glyph-name="bracketleft" unicode="[" horiz-adv-x="581" 
d="M199 -326q-14 0 -18.5 5t-4.5 20v2003q0 15 4.5 19.5t18.5 4.5h299q15 0 19.5 -4t4.5 -18v-35q0 -14 -4.5 -18t-19.5 -4h-236v-1891h236q15 0 19.5 -4.5t4.5 -19.5v-35q0 -14 -4.5 -18.5t-19.5 -4.5h-299z" />
    <glyph glyph-name="backslash" unicode="\" horiz-adv-x="837" 
d="M670 -123q-22 0 -27 21l-543 1536q-7 20 15 20h53q22 0 27 -20l542 -1536q7 -21 -14 -21h-53z" />
    <glyph glyph-name="bracketright" unicode="]" horiz-adv-x="581" 
d="M82 -326q-14 0 -18.5 5t-4.5 18v35q0 15 4.5 19.5t18.5 4.5h237v1891h-237q-14 0 -18.5 4.5t-4.5 17.5v35q0 13 4.5 17.5t18.5 4.5h299q15 0 20 -4.5t5 -19.5v-2003q0 -15 -5 -20t-20 -5h-299z" />
    <glyph glyph-name="asciicircum" unicode="^" horiz-adv-x="1271" 
d="M162 1065q-37 0 -12 31l434 538q15 21 34 21h29q4 0 8 -1l6 -1.5t5 -3t4 -3.5t5 -5.5t5 -6.5l442 -538q10 -15 6.5 -23t-18.5 -8h-45q-21 0 -28.5 4t-18.5 18l-385 476h-4l-377 -476q-12 -15 -19.5 -18.5t-29.5 -3.5h-41z" />
    <glyph glyph-name="underscore" unicode="_" horiz-adv-x="1099" 
d="M117 -86q-25 0 -25 27v32q0 27 25 27h866q25 0 25 -27v-32q0 -27 -25 -27h-866z" />
    <glyph glyph-name="grave" unicode="`" horiz-adv-x="589" 
d="M119 1425q-19 11 -2 31l20 23q17 19 45 2l281 -215q21 -14 4 -31l-12 -16q-12 -12 -33 0z" />
    <glyph glyph-name="braceleft" unicode="{" horiz-adv-x="675" 
d="M516 -328q-137 0 -194.5 61.5t-57.5 196.5v514q0 107 -40 158t-140 51h-23q-20 0 -20 25v41q0 24 20 24h23q100 0 140 51.5t40 157.5v516q0 134 58 196t194 62h80q25 0 25 -24v-33q0 -24 -25 -24h-78q-90 0 -129 -44t-39 -137v-522q0 -190 -135 -244q72 -24 103.5 -83.5
t31.5 -159.5v-521q0 -92 39 -136t129 -44h78q25 0 25 -24v-33q0 -25 -25 -25h-80z" />
    <glyph glyph-name="bar" unicode="|" horiz-adv-x="434" 
d="M199 -301q-13 0 -18 5.5t-5 19.5v2005q0 14 5 19t18 5h37q22 0 22 -24v-2005q0 -25 -22 -25h-37z" />
    <glyph glyph-name="braceright" unicode="}" horiz-adv-x="675" 
d="M80 -328q-25 0 -25 25v33q0 24 25 24h78q90 0 129 44t39 136v521q0 197 135 243q-135 54 -135 244v522q0 93 -39 137t-129 44h-78q-25 0 -25 24v33q0 24 25 24h80q136 0 194 -62t58 -196v-516q0 -106 40.5 -157.5t141.5 -51.5h20q21 0 21 -24v-41q0 -25 -21 -25h-20
q-101 0 -141.5 -51t-40.5 -158v-514q0 -135 -57.5 -196.5t-194.5 -61.5h-80z" />
    <glyph glyph-name="asciitilde" unicode="~" horiz-adv-x="1196" 
d="M793 573q-53 0 -105 14t-87.5 31.5t-83.5 31.5t-93 14q-100 0 -188 -82q-15 -15 -33 0l-25 26q-20 17 -2 35q55 51 109.5 76.5t122.5 25.5q66 0 129 -23t122.5 -46t116.5 -23q102 0 191 82q9 9 15 9.5t17 -9.5l25 -24q18 -18 2 -37q-109 -101 -233 -101z" />
    <glyph glyph-name="uni00A0" unicode="&#xa0;" horiz-adv-x="499" 
 />
    <glyph glyph-name="exclamdown" unicode="&#xa1;" horiz-adv-x="430" 
d="M221 1057q32 0 46 -14t14 -46v-12q0 -32 -14 -45.5t-46 -13.5h-10q-33 0 -46 13t-13 46v12q0 35 13 47.5t46 12.5h10zM225 733q14 0 19.5 -4.5t5.5 -17.5l12 -1160q0 -24 -22 -24h-50q-22 0 -22 24l12 1160q0 13 5 17.5t18 4.5h22z" />
    <glyph glyph-name="cent" unicode="&#xa2;" horiz-adv-x="1136" 
d="M551 -172q-23 0 -23 25v120q-184 10 -281 113.5t-97 280.5v319q0 176 96 277.5t282 111.5v150q0 24 23 24h45q22 0 22 -24v-150q160 -7 247 -76.5t124 -199.5q8 -26 -14 -35l-35 -12q-22 -7 -31 16q-36 121 -113.5 176t-222.5 55q-165 0 -250 -82.5t-85 -230.5v-319
q0 -149 86 -232.5t249 -83.5q139 0 220.5 59t115.5 183q8 24 31 18l41 -12q26 -6 14 -33q-40 -139 -131.5 -211.5t-245.5 -81.5v-120q0 -25 -22 -25h-45z" />
    <glyph glyph-name="sterling" unicode="&#xa3;" horiz-adv-x="1333" 
d="M133 0q-22 0 -22 27v36q0 23 14 23h45q55 0 92 36t50.5 83t13.5 100v346h-168q-25 0 -25 27v33q0 24 25 24h170v375q0 80 24.5 146t74 117.5t131.5 80.5t190 29q169 0 274 -73.5t162 -244.5q10 -23 -15 -32l-39 -15q-14 -5 -20 -1.5t-12 18.5q-51 145 -132 202.5
t-216 57.5q-166 0 -245 -79t-79 -208v-373h551q13 0 18.5 -5.5t5.5 -18.5v-33q0 -15 -5.5 -21t-18.5 -6h-553v-344q0 -150 -98 -221v-4q183 6 227 6h610q25 0 25 -25v-36q0 -27 -25 -27h-1030z" />
    <glyph glyph-name="currency" unicode="&#xa4;" horiz-adv-x="1261" 
d="M195 244q-16 16 0 32l112 115q-102 124 -102 297q0 166 98 295l-113 115q-13 16 3 32l32 29q17 17 31 0l109 -110q117 102 266 102q146 0 262 -98l108 108q12 17 31 2l33 -30q18 -15 0 -33l-111 -113q103 -131 103 -299q0 -163 -99 -293l113 -112q16 -19 0 -35l-33 -29
q-16 -16 -32 0l-109 111q-109 -103 -266 -103q-148 0 -262 99l-109 -111q-16 -17 -33 0zM631 307q146 0 244 110t98 273t-98 271t-244 108q-148 0 -245 -108t-97 -271t97.5 -273t244.5 -110z" />
    <glyph glyph-name="yen" unicode="&#xa5;" horiz-adv-x="1333" 
d="M643 0q-25 0 -25 27v303h-333q-21 0 -21 22v25q0 14 4.5 19t16.5 5h336v222h-336q-21 0 -21 22v25q0 14 4.5 19t16.5 5h303l-492 733q-5 11 -1 19t16 8h55q21 0 28.5 -3.5t14.5 -20.5l461 -705l458 707q7 15 14.5 18.5t28.5 3.5h54q26 0 14 -27l-491 -733h296
q23 0 23 -24v-25q0 -22 -23 -22h-331v-222h331q23 0 23 -24v-25q0 -22 -23 -22h-329v-303q0 -27 -25 -27h-47z" />
    <glyph glyph-name="brokenbar" unicode="&#xa6;" horiz-adv-x="454" 
d="M209 883q-25 0 -25 24v822q0 24 25 24h37q22 0 22 -24v-822q0 -24 -22 -24h-37zM209 -299q-25 0 -25 25v821q0 24 25 24h37q22 0 22 -24v-821q0 -25 -22 -25h-37z" />
    <glyph glyph-name="section" unicode="&#xa7;" horiz-adv-x="1191" 
d="M604 -457q-351 0 -467 348q-9 26 19 35l41 15q13 5 19.5 1.5t12.5 -20.5q89 -291 373 -291q178 0 265 72t87 199q0 47 -11.5 84.5t-27.5 63t-47 45.5t-56 31t-69.5 20t-72.5 12.5t-80 9.5q-55 6 -92 11.5t-87.5 17.5t-84.5 27t-70.5 40.5t-58.5 58.5t-36 80.5t-14 106.5
q0 55 14.5 103.5t36 81.5t51.5 61.5t55.5 44.5t53.5 30q-200 70 -200 306q0 165 105.5 261.5t322.5 96.5q169 0 281 -84.5t173 -259.5q5 -13 1.5 -21t-17.5 -14l-35 -14q-14 -7 -20.5 -3.5t-12.5 17.5q-97 289 -370 289q-171 0 -251.5 -71t-80.5 -197q0 -47 11.5 -84.5
t27.5 -63t46.5 -45.5t55.5 -31.5t69 -21.5t72 -14.5t78 -10.5q71 -9 123 -20t112 -35.5t98 -59.5t63.5 -93.5t25.5 -135.5q0 -199 -186 -315q95 -34 148 -105t53 -200q0 -164 -113 -261.5t-334 -97.5zM756 233q186 101 186 283q0 59 -21 103.5t-51 70.5t-80.5 45.5t-93 28
t-104.5 16.5q-104 13 -137 21q-213 -76 -213 -281q0 -45 11.5 -81.5t28.5 -61.5t46 -45t56 -31.5t68.5 -21t73 -14t78.5 -9.5q98 -12 152 -23z" />
    <glyph glyph-name="dieresis" unicode="&#xa8;" horiz-adv-x="958" 
d="M289 1278q-27 0 -37 9.5t-10 35.5v14q0 26 10.5 36.5t36.5 10.5h12q27 0 37 -10t10 -37v-14q0 -26 -9.5 -35.5t-37.5 -9.5h-12zM645 1278q-29 0 -39 9.5t-10 35.5v14q0 27 10 37t39 10h10q26 0 36.5 -10.5t10.5 -36.5v-14q0 -26 -10 -35.5t-37 -9.5h-10z" />
    <glyph glyph-name="copyright" unicode="&#xa9;" horiz-adv-x="1705" 
d="M856 -16q-344 0 -535.5 194t-191.5 541t191.5 541t535.5 194q340 0 530.5 -194t190.5 -541t-190.5 -541t-530.5 -194zM856 43q312 0 487 179t175 497t-175 496t-487 178q-315 0 -490.5 -178t-175.5 -496t175.5 -497t490.5 -179zM846 293q-152 0 -235 79t-83 216v243
q0 138 82.5 216.5t235.5 78.5q135 0 207.5 -52t103.5 -156q8 -18 -10 -27l-27 -8q-19 -5 -24 10q-27 92 -82.5 131t-167.5 39q-125 0 -187.5 -59t-62.5 -170v-246q0 -109 63 -169.5t187 -60.5q107 0 166 43t86 136q5 11 9.5 13t16.5 -1l25 -8q20 -6 12 -25
q-64 -223 -315 -223z" />
    <glyph glyph-name="ordfeminine" unicode="&#xaa;" horiz-adv-x="755" 
d="M369 727q-120 0 -171 44.5t-51 131.5q0 92 52.5 139.5t173.5 47.5q86 0 151 -13v45q0 93 -33.5 140t-113.5 47q-55 0 -92 -21t-68 -69q-8 -13 -24 -7l-21 13q-18 9 -6 28q71 119 213 119q118 0 167.5 -65t49.5 -189v-254q0 -46 -11.5 -66.5t-45.5 -39.5q-60 -31 -170 -31
zM367 786q73 0 125 23q19 11 25.5 23t6.5 42v146q-69 12 -153 12q-86 0 -120 -32t-34 -95q0 -119 150 -119z" />
    <glyph glyph-name="guillemotleft" unicode="&#xab;" horiz-adv-x="1175" 
d="M115 717q-13 16 0 31l415 419q14 17 29 2l25 -24q15 -18 0 -33l-371 -379l369 -375q16 -16 0 -30l-25 -25q-9 -9 -15.5 -9t-15.5 9zM565 717q-13 16 0 31l416 419q16 16 29 0l24 -22q16 -17 0 -33l-372 -379l372 -375q15 -15 -2 -30l-24 -25q-9 -9 -15.5 -9t-15.5 9z" />
    <glyph glyph-name="logicalnot" unicode="&#xac;" horiz-adv-x="1214" 
d="M981 287q-25 0 -25 22v381h-759q-25 0 -25 25v35q0 24 25 24h825q25 0 25 -24v-441q0 -22 -25 -22h-41z" />
    <glyph glyph-name="registered" unicode="&#xae;" horiz-adv-x="1048" 
d="M526 659q-175 0 -273.5 105.5t-98.5 292.5t98.5 292t273.5 105q173 0 271 -105t98 -292t-98 -292.5t-271 -105.5zM528 702q153 0 238.5 93.5t85.5 261.5q0 167 -85 259.5t-239 92.5q-155 0 -241 -92.5t-86 -259.5q0 -168 86 -261.5t241 -93.5zM397 846q-12 0 -12 12v391
q0 19 21 19h143q66 0 103.5 -35.5t37.5 -99.5q0 -106 -94 -125l80 -144q12 -18 -10 -18h-15q-15 0 -22 10l-80 145h-117v-143q0 -12 -12 -12h-23zM549 1044q96 0 96 89q0 43 -25 66.5t-71 23.5h-117v-179h117z" />
    <glyph glyph-name="macron" unicode="&#xaf;" horiz-adv-x="784" 
d="M162 1296q-23 0 -23 23v22q0 13 5.5 18t17.5 5h454q14 0 18.5 -5t4.5 -18v-22q0 -23 -23 -23h-454z" />
    <glyph glyph-name="degree" unicode="&#xb0;" horiz-adv-x="837" 
d="M420 838q-124 0 -200.5 84t-76.5 215q0 132 76 214.5t201 82.5q124 0 200 -83t76 -214q0 -128 -76.5 -213.5t-199.5 -85.5zM420 907q90 0 146.5 66.5t56.5 163.5q0 98 -56 162.5t-147 64.5t-148 -64.5t-57 -162.5t57 -164t148 -66z" />
    <glyph glyph-name="plusminus" unicode="&#xb1;" horiz-adv-x="1363" 
d="M668 479q-25 0 -25 27v266h-403q-27 0 -27 25v26q0 15 6 21t21 6h403v272q0 27 25 27h30q27 0 27 -27v-272h399q15 0 21 -6t6 -21v-26q0 -25 -27 -25h-399v-266q0 -27 -27 -27h-30zM240 262q-27 0 -27 27v26q0 27 27 27h884q27 0 27 -27v-26q0 -27 -27 -27h-884z" />
    <glyph glyph-name="acute" unicode="&#xb4;" horiz-adv-x="528" 
d="M141 1219q-23 -12 -35 0l-12 16q-15 18 4 31l283 215q27 19 43 -2l22 -23q17 -19 -4 -31z" />
    <glyph glyph-name="uni00B5" unicode="&#xb5;" horiz-adv-x="1155" 
d="M186 -451q-20 0 -20 25v1452q0 23 22 23h43q23 0 23 -23v-657q0 -320 309 -320q169 0 297 55q27 12 35 27.5t8 42.5v852q0 23 23 23h43q22 0 22 -23v-879q0 -46 -15 -68.5t-58 -41.5q-157 -68 -343 -68q-244 0 -323 174l2 -569q0 -25 -23 -25h-45z" />
    <glyph glyph-name="paragraph" unicode="&#xb6;" horiz-adv-x="784" 
d="M344 -182q-12 0 -16 5t-4 19v1200q-84 2 -136.5 58t-52.5 145q0 95 53.5 152t141.5 57h245q12 0 16.5 -5t4.5 -19v-1588q0 -14 -4.5 -19t-16.5 -5h-45q-22 0 -22 24v1520h-98v-1520q0 -24 -21 -24h-45z" />
    <glyph glyph-name="periodcentered" unicode="&#xb7;" horiz-adv-x="456" 
d="M223 481q-33 0 -46 12.5t-13 47.5v12q0 33 13 46t46 13h10q33 0 46.5 -13t13.5 -46v-12q0 -34 -13 -47t-47 -13h-10z" />
    <glyph glyph-name="cedilla" unicode="&#xb8;" horiz-adv-x="524" 
d="M252 -500q-72 0 -141 43q-17 11 -17 33v27q0 19 15 10q59 -55 133 -55q143 0 143 131q0 50 -33.5 77t-87.5 27q-39 0 -63 -12q-12 -2 -18 5.5t-3 20.5l62 193h59l-47 -164q24 8 49 8q71 0 117 -44t43 -115q-3 -94 -59.5 -139.5t-151.5 -45.5z" />
    <glyph glyph-name="ordmasculine" unicode="&#xba;" horiz-adv-x="763" 
d="M381 729q-114 0 -174 63.5t-60 178.5v159q0 114 60 178t174 64q115 0 175 -64t60 -178v-159q0 -116 -60 -179t-175 -63zM381 797q81 0 122.5 44.5t41.5 127.5v164q0 81 -42 126.5t-122 45.5q-77 0 -119.5 -46t-42.5 -126v-164q0 -82 42 -127t120 -45z" />
    <glyph glyph-name="guillemotright" unicode="&#xbb;" horiz-adv-x="1175" 
d="M647 303q-9 -9 -15.5 -9t-15.5 9l-24 25q-15 12 0 30l369 375l-371 379q-15 15 0 33l24 24q14 15 31 -2l414 -419q13 -15 0 -31zM197 303q-9 -9 -15.5 -9t-15.5 9l-25 25q-16 13 -2 30l373 375l-373 379q-17 16 0 33l25 22q13 16 29 0l415 -419q13 -15 0 -31z" />
    <glyph glyph-name="onequarter" unicode="&#xbc;" horiz-adv-x="1531" 
d="M371 653q-27 0 -27 25v686l-194 -111q-25 -15 -37 9l-13 18q-12 21 13 35l235 139q13 8 33 8h14q15 0 21 -5.5t6 -20.5v-758q0 -25 -27 -25h-24zM317 0q-13 0 -16.5 7.5t4.5 19.5l866 1403q9 17 15.5 20.5t25.5 3.5h31q13 0 16.5 -7.5t-4.5 -19.5l-862 -1402
q-11 -16 -18.5 -20.5t-26.5 -4.5h-31zM1268 0q-11 0 -15 5t-4 18v206h-366q-13 0 -18 4.5t-5 18.5v18q0 21 8 31l363 492q7 11 14 13.5t23 2.5h30q15 0 20 -5t5 -22v-487h88q12 0 16.5 -4.5t4.5 -16.5v-22q0 -13 -4.5 -18t-16.5 -5h-88v-206q0 -23 -20 -23h-35zM1249 295
v418l-305 -418h305z" />
    <glyph glyph-name="onehalf" unicode="&#xbd;" horiz-adv-x="1644" 
d="M369 655q-25 0 -25 27v684l-197 -111q-22 -14 -36 11l-11 16q-12 21 13 37l233 137q13 8 33 8h16q14 0 19.5 -5.5t5.5 -20.5v-756q0 -27 -25 -27h-26zM297 0q-13 0 -16.5 7.5t4.5 19.5l866 1403q9 17 15.5 20.5t25.5 3.5h31q13 0 16.5 -7.5t-4.5 -19.5l-862 -1402
q-11 -16 -18.5 -20.5t-26.5 -4.5h-31zM1044 0q-26 0 -26 27v88q0 93 34.5 153t110.5 92l109 48q11 5 36.5 15.5t37 16t31.5 16.5t29 21.5t20 26t15.5 35.5t4.5 45q0 80 -41.5 124t-124.5 44q-81 0 -128.5 -48t-59.5 -112q-8 -24 -27 -19l-29 9q-22 6 -14 30q17 87 83 150
t179 63q117 0 178.5 -63.5t61.5 -173.5q0 -54 -14.5 -92t-49 -65.5t-59.5 -41t-78 -35.5q-9 -4 -14 -6l-107 -45q-51 -24 -75.5 -62t-24.5 -102v-67h393q23 0 23 -25v-24q0 -23 -23 -23h-451z" />
    <glyph glyph-name="threequarters" unicode="&#xbe;" horiz-adv-x="1624" 
d="M399 641q-119 0 -186 54t-92 165q-4 17 -2 23.5t12 9.5l27 8q13 5 18.5 2t9.5 -18q22 -92 71 -133t140 -41q85 0 130.5 45.5t45.5 120.5q0 67 -37 114t-94 47h-127q-12 0 -16 4.5t-4 18.5v22q0 15 4 20t16 5h123q57 0 87 41.5t30 101.5q0 73 -43.5 117.5t-116.5 44.5
q-86 0 -134.5 -36t-72.5 -126q-4 -17 -10.5 -20t-21.5 2l-21 8q-17 7 -10 31q30 115 93.5 163t178.5 48q106 0 169 -62.5t63 -163.5q0 -132 -99 -180q58 -29 88.5 -82t30.5 -123q0 -106 -64 -168.5t-186 -62.5zM410 0q-13 0 -17 7.5t4 19.5l867 1403q9 17 15.5 20.5
t25.5 3.5h30q13 0 17 -7.5t-4 -19.5l-863 -1402q-11 -16 -18.5 -20.5t-26.5 -4.5h-30zM1362 0q-12 0 -16.5 5t-4.5 18v206h-366q-12 0 -17.5 5t-5.5 18v18q0 16 9 31l362 492q8 11 15 13.5t22 2.5h31q15 0 19.5 -5t4.5 -22v-487h88q13 0 17 -4.5t4 -16.5v-22q0 -14 -4 -18.5
t-17 -4.5h-88v-206q0 -14 -4 -18.5t-16 -4.5h-33zM1341 295v418l-305 -418h305z" />
    <glyph glyph-name="questiondown" unicode="&#xbf;" horiz-adv-x="1185" 
d="M653 1057q34 0 47 -12t13 -48v-10q0 -34 -13 -46.5t-47 -12.5h-10q-33 0 -46 13t-13 46v10q0 33 13 46.5t46 13.5h10zM670 756q12 0 17 -5t5 -20q0 -62 -13.5 -114t-32.5 -87t-53.5 -71t-61 -56t-70.5 -51q-33 -23 -41 -29t-38 -29t-40 -33.5t-33.5 -34.5t-32.5 -41
t-24.5 -45t-21.5 -54.5t-11.5 -61t-5.5 -71.5q0 -148 100.5 -244t276.5 -96q305 0 414 283q5 14 10.5 17t19.5 -1l41 -12q23 -9 15 -33q-127 -338 -500 -338q-220 0 -347.5 120.5t-127.5 301.5q0 74 19 139t38 104t69 87.5t71 64.5t85 61q6 5 9 7q46 31 75.5 57t61.5 64.5
t47.5 87.5t15.5 108q0 15 5.5 20t19.5 5h39z" />
    <glyph glyph-name="Agrave" unicode="&#xc0;" horiz-adv-x="1277" 
d="M463 1769q-22 9 -2 29l20 25q17 17 45 0l281 -215q19 -13 4 -31l-12 -16q-12 -12 -33 0zM76 0q-30 0 -19 25l525 1415q8 24 34 24h46q24 0 32 -24l525 -1415q11 -25 -19 -25h-41q-21 0 -29.5 4.5t-13.5 18.5l-164 452h-628l-166 -452q-4 -13 -13.5 -18t-29.5 -5h-39z
M922 557l-263 723q-17 53 -20 86h-6q-3 -30 -17 -86l-264 -723h570z" />
    <glyph glyph-name="Agrave" unicode="&#xe0;" horiz-adv-x="1277" 
d="M463 1769q-22 9 -2 29l20 25q17 17 45 0l281 -215q19 -13 4 -31l-12 -16q-12 -12 -33 0zM76 0q-30 0 -19 25l525 1415q8 24 34 24h46q24 0 32 -24l525 -1415q11 -25 -19 -25h-41q-21 0 -29.5 4.5t-13.5 18.5l-164 452h-628l-166 -452q-4 -13 -13.5 -18t-29.5 -5h-39z
M922 557l-263 723q-17 53 -20 86h-6q-3 -30 -17 -86l-264 -723h570z" />
    <glyph glyph-name="Aacute" unicode="&#xc1;" horiz-adv-x="1277" 
d="M512 1563q-23 -12 -35 0l-12 16q-15 18 4 31l283 215q28 16 43 -2l22 -23q17 -19 -4 -31zM76 0q-30 0 -19 25l525 1415q8 24 34 24h46q24 0 32 -24l525 -1415q11 -25 -19 -25h-41q-21 0 -29.5 4.5t-13.5 18.5l-164 452h-628l-166 -452q-4 -13 -13.5 -18t-29.5 -5h-39z
M922 557l-263 723q-17 53 -20 86h-6q-3 -30 -17 -86l-264 -723h570z" />
    <glyph glyph-name="Aacute" unicode="&#xe1;" horiz-adv-x="1277" 
d="M512 1563q-23 -12 -35 0l-12 16q-15 18 4 31l283 215q28 16 43 -2l22 -23q17 -19 -4 -31zM76 0q-30 0 -19 25l525 1415q8 24 34 24h46q24 0 32 -24l525 -1415q11 -25 -19 -25h-41q-21 0 -29.5 4.5t-13.5 18.5l-164 452h-628l-166 -452q-4 -13 -13.5 -18t-29.5 -5h-39z
M922 557l-263 723q-17 53 -20 86h-6q-3 -30 -17 -86l-264 -723h570z" />
    <glyph glyph-name="Acircumflex" unicode="&#xc2;" horiz-adv-x="1277" 
d="M360 1556q-33 0 -14 19l238 231q18 16 25.5 19.5t25.5 3.5h8q12 0 17 -1t13 -6t19 -16l236 -231q8 -7 4.5 -13t-19.5 -6h-36q-28 0 -41 15l-199 194l-203 -194q-12 -15 -37 -15h-37zM76 0q-30 0 -19 25l525 1415q8 24 34 24h46q24 0 32 -24l525 -1415q11 -25 -19 -25h-41
q-21 0 -29.5 4.5t-13.5 18.5l-164 452h-628l-166 -452q-4 -13 -13.5 -18t-29.5 -5h-39zM922 557l-263 723q-17 53 -20 86h-6q-3 -30 -17 -86l-264 -723h570z" />
    <glyph glyph-name="Acircumflex" unicode="&#xe2;" horiz-adv-x="1277" 
d="M360 1556q-33 0 -14 19l238 231q18 16 25.5 19.5t25.5 3.5h8q12 0 17 -1t13 -6t19 -16l236 -231q8 -7 4.5 -13t-19.5 -6h-36q-28 0 -41 15l-199 194l-203 -194q-12 -15 -37 -15h-37zM76 0q-30 0 -19 25l525 1415q8 24 34 24h46q24 0 32 -24l525 -1415q11 -25 -19 -25h-41
q-21 0 -29.5 4.5t-13.5 18.5l-164 452h-628l-166 -452q-4 -13 -13.5 -18t-29.5 -5h-39zM922 557l-263 723q-17 53 -20 86h-6q-3 -30 -17 -86l-264 -723h570z" />
    <glyph glyph-name="Atilde" unicode="&#xc3;" horiz-adv-x="1277" 
d="M371 1585q-17 0 -17 19q0 91 38.5 141.5t103.5 50.5q37 0 69 -15t55 -37t45 -43.5t49 -36.5t56 -15q42 0 64 35t22 94q0 18 16 18h27q19 0 19 -18q0 -92 -37 -142.5t-107 -50.5q-36 0 -67 15t-54 37t-45 44t-48.5 37t-55.5 15q-41 0 -64.5 -35t-23.5 -94q0 -19 -17 -19
h-28zM76 0q-30 0 -19 25l525 1415q8 24 34 24h46q24 0 32 -24l525 -1415q11 -25 -19 -25h-41q-21 0 -29.5 4.5t-13.5 18.5l-164 452h-628l-166 -452q-4 -13 -13.5 -18t-29.5 -5h-39zM922 557l-263 723q-17 53 -20 86h-6q-3 -30 -17 -86l-264 -723h570z" />
    <glyph glyph-name="Atilde" unicode="&#xe3;" horiz-adv-x="1277" 
d="M371 1585q-17 0 -17 19q0 91 38.5 141.5t103.5 50.5q37 0 69 -15t55 -37t45 -43.5t49 -36.5t56 -15q42 0 64 35t22 94q0 18 16 18h27q19 0 19 -18q0 -92 -37 -142.5t-107 -50.5q-36 0 -67 15t-54 37t-45 44t-48.5 37t-55.5 15q-41 0 -64.5 -35t-23.5 -94q0 -19 -17 -19
h-28zM76 0q-30 0 -19 25l525 1415q8 24 34 24h46q24 0 32 -24l525 -1415q11 -25 -19 -25h-41q-21 0 -29.5 4.5t-13.5 18.5l-164 452h-628l-166 -452q-4 -13 -13.5 -18t-29.5 -5h-39zM922 557l-263 723q-17 53 -20 86h-6q-3 -30 -17 -86l-264 -723h570z" />
    <glyph glyph-name="Adieresis" unicode="&#xc4;" horiz-adv-x="1277" 
d="M453 1640q-26 0 -36.5 10t-10.5 36v14q0 26 10.5 36.5t36.5 10.5h12q27 0 37 -10t10 -37v-14q0 -26 -10 -36t-37 -10h-12zM813 1640q-29 0 -39 9.5t-10 36.5v14q0 27 10 37t39 10h10q27 0 38 -10.5t11 -36.5v-14q0 -26 -11 -36t-38 -10h-10zM76 0q-30 0 -19 25l525 1415
q8 24 34 24h46q24 0 32 -24l525 -1415q11 -25 -19 -25h-41q-21 0 -29.5 4.5t-13.5 18.5l-164 452h-628l-166 -452q-4 -13 -13.5 -18t-29.5 -5h-39zM922 557l-263 723q-17 53 -20 86h-6q-3 -30 -17 -86l-264 -723h570z" />
    <glyph glyph-name="Adieresis" unicode="&#xe4;" horiz-adv-x="1277" 
d="M453 1640q-26 0 -36.5 10t-10.5 36v14q0 26 10.5 36.5t36.5 10.5h12q27 0 37 -10t10 -37v-14q0 -26 -10 -36t-37 -10h-12zM813 1640q-29 0 -39 9.5t-10 36.5v14q0 27 10 37t39 10h10q27 0 38 -10.5t11 -36.5v-14q0 -26 -11 -36t-38 -10h-10zM76 0q-30 0 -19 25l525 1415
q8 24 34 24h46q24 0 32 -24l525 -1415q11 -25 -19 -25h-41q-21 0 -29.5 4.5t-13.5 18.5l-164 452h-628l-166 -452q-4 -13 -13.5 -18t-29.5 -5h-39zM922 557l-263 723q-17 53 -20 86h-6q-3 -30 -17 -86l-264 -723h570z" />
    <glyph glyph-name="Aring" unicode="&#xc5;" horiz-adv-x="1277" 
d="M76 0q-30 0 -19 25l518 1392q-60 15 -95.5 63.5t-35.5 118.5q0 90 54 145.5t141 55.5q84 0 136 -55.5t52 -145.5q0 -71 -33.5 -119t-91.5 -61l517 -1394q11 -25 -19 -25h-41q-21 0 -29.5 4.5t-13.5 18.5l-164 452h-628l-166 -452q-4 -13 -13.5 -18t-29.5 -5h-39z
M639 1458q59 0 95 39t36 102q0 64 -36 104t-95 40q-61 0 -99 -39.5t-38 -104.5q0 -63 38 -102t99 -39zM922 557l-263 723q-17 53 -20 86h-6q-3 -30 -17 -86l-264 -723h570z" />
    <glyph glyph-name="Aring" unicode="&#xe5;" horiz-adv-x="1277" 
d="M76 0q-30 0 -19 25l518 1392q-60 15 -95.5 63.5t-35.5 118.5q0 90 54 145.5t141 55.5q84 0 136 -55.5t52 -145.5q0 -71 -33.5 -119t-91.5 -61l517 -1394q11 -25 -19 -25h-41q-21 0 -29.5 4.5t-13.5 18.5l-164 452h-628l-166 -452q-4 -13 -13.5 -18t-29.5 -5h-39z
M639 1458q59 0 95 39t36 102q0 64 -36 104t-95 40q-61 0 -99 -39.5t-38 -104.5q0 -63 38 -102t99 -39zM922 557l-263 723q-17 53 -20 86h-6q-3 -30 -17 -86l-264 -723h570z" />
    <glyph glyph-name="AE" unicode="&#xc6;" horiz-adv-x="1656" 
d="M43 0q-30 0 -16 25l809 1405q9 15 15 19.5t19 4.5h621q25 0 25 -27v-36q0 -25 -25 -25h-541v-586h455q14 0 19.5 -5.5t5.5 -20.5v-37q0 -25 -25 -25h-455v-604h568q24 0 24 -25v-36q0 -15 -5.5 -21t-18.5 -6h-637q-25 0 -25 27v356h-520l-203 -360q-7 -13 -15 -18t-30 -5
h-45zM856 463l2 844l-473 -844h471z" />
    <glyph glyph-name="AE" unicode="&#xe6;" horiz-adv-x="1656" 
d="M43 0q-30 0 -16 25l809 1405q9 15 15 19.5t19 4.5h621q25 0 25 -27v-36q0 -25 -25 -25h-541v-586h455q14 0 19.5 -5.5t5.5 -20.5v-37q0 -25 -25 -25h-455v-604h568q24 0 24 -25v-36q0 -15 -5.5 -21t-18.5 -6h-637q-25 0 -25 27v356h-520l-203 -360q-7 -13 -15 -18t-30 -5
h-45zM856 463l2 844l-473 -844h471z" />
    <glyph glyph-name="Ccedilla" unicode="&#xc7;" horiz-adv-x="1280" 
d="M670 -504q-72 0 -144 45q-16 11 -16 33v27q0 7 3 10t11 -2q57 -53 135 -53q142 0 142 131q0 48 -33 75t-88 29q-28 0 -64 -12q-12 -3 -17.5 4.5t-0.5 19.5l51 168q-237 4 -365 138.5t-128 367.5v502q0 237 131.5 370.5t378.5 133.5q215 0 331.5 -88t165.5 -269
q10 -26 -14 -32l-41 -13q-25 -8 -33 15q-42 156 -135.5 227.5t-271.5 71.5q-204 0 -310 -109.5t-106 -304.5v-506q0 -195 106.5 -304.5t307.5 -109.5q179 0 272.5 75t138.5 231q8 26 33 18l43 -14q24 -9 16 -35q-54 -176 -159.5 -266t-300.5 -99l-39 -137q18 6 49 6
q70 0 116.5 -44t43.5 -113q-3 -96 -59 -141.5t-150 -45.5z" />
    <glyph glyph-name="Ccedilla" unicode="&#xe7;" horiz-adv-x="1280" 
d="M670 -504q-72 0 -144 45q-16 11 -16 33v27q0 7 3 10t11 -2q57 -53 135 -53q142 0 142 131q0 48 -33 75t-88 29q-28 0 -64 -12q-12 -3 -17.5 4.5t-0.5 19.5l51 168q-237 4 -365 138.5t-128 367.5v502q0 237 131.5 370.5t378.5 133.5q215 0 331.5 -88t165.5 -269
q10 -26 -14 -32l-41 -13q-25 -8 -33 15q-42 156 -135.5 227.5t-271.5 71.5q-204 0 -310 -109.5t-106 -304.5v-506q0 -195 106.5 -304.5t307.5 -109.5q179 0 272.5 75t138.5 231q8 26 33 18l43 -14q24 -9 16 -35q-54 -176 -159.5 -266t-300.5 -99l-39 -137q18 6 49 6
q70 0 116.5 -44t43.5 -113q-3 -96 -59 -141.5t-150 -45.5z" />
    <glyph glyph-name="Egrave" unicode="&#xc8;" horiz-adv-x="1148" 
d="M430 1769q-22 9 -2 29l21 25q17 17 45 0l280 -215q19 -13 4 -31l-12 -16q-12 -12 -33 0zM225 0q-13 0 -18.5 6t-5.5 21v1400q0 15 5.5 21t18.5 6h760q25 0 25 -27v-36q0 -25 -25 -25h-690v-584h608q25 0 25 -26v-37q0 -27 -25 -27h-608v-604h715q24 0 24 -25v-36
q0 -15 -5.5 -21t-18.5 -6h-785z" />
    <glyph glyph-name="Egrave" unicode="&#xe8;" horiz-adv-x="1148" 
d="M430 1769q-22 9 -2 29l21 25q17 17 45 0l280 -215q19 -13 4 -31l-12 -16q-12 -12 -33 0zM225 0q-13 0 -18.5 6t-5.5 21v1400q0 15 5.5 21t18.5 6h760q25 0 25 -27v-36q0 -25 -25 -25h-690v-584h608q25 0 25 -26v-37q0 -27 -25 -27h-608v-604h715q24 0 24 -25v-36
q0 -15 -5.5 -21t-18.5 -6h-785z" />
    <glyph glyph-name="Eacute" unicode="&#xc9;" horiz-adv-x="1148" 
d="M479 1563q-23 -12 -35 0l-12 16q-15 18 4 31l283 215q28 16 43 -2l22 -23q17 -19 -4 -31zM225 0q-13 0 -18.5 6t-5.5 21v1400q0 15 5.5 21t18.5 6h760q25 0 25 -27v-36q0 -25 -25 -25h-690v-584h608q25 0 25 -26v-37q0 -27 -25 -27h-608v-604h715q24 0 24 -25v-36
q0 -15 -5.5 -21t-18.5 -6h-785z" />
    <glyph glyph-name="Eacute" unicode="&#xe9;" horiz-adv-x="1148" 
d="M479 1563q-23 -12 -35 0l-12 16q-15 18 4 31l283 215q28 16 43 -2l22 -23q17 -19 -4 -31zM225 0q-13 0 -18.5 6t-5.5 21v1400q0 15 5.5 21t18.5 6h760q25 0 25 -27v-36q0 -25 -25 -25h-690v-584h608q25 0 25 -26v-37q0 -27 -25 -27h-608v-604h715q24 0 24 -25v-36
q0 -15 -5.5 -21t-18.5 -6h-785z" />
    <glyph glyph-name="Ecircumflex" unicode="&#xca;" horiz-adv-x="1148" 
d="M330 1556q-16 0 -19.5 6t4.5 13l238 231q18 16 25.5 19.5t25.5 3.5h8q17 0 25.5 -3.5t24.5 -19.5l235 -231q19 -19 -14 -19h-37q-28 0 -41 15l-199 194l-203 -194q-13 -15 -36 -15h-37zM225 0q-13 0 -18.5 6t-5.5 21v1400q0 15 5.5 21t18.5 6h760q25 0 25 -27v-36
q0 -25 -25 -25h-690v-584h608q25 0 25 -26v-37q0 -27 -25 -27h-608v-604h715q24 0 24 -25v-36q0 -15 -5.5 -21t-18.5 -6h-785z" />
    <glyph glyph-name="Ecircumflex" unicode="&#xea;" horiz-adv-x="1148" 
d="M330 1556q-16 0 -19.5 6t4.5 13l238 231q18 16 25.5 19.5t25.5 3.5h8q17 0 25.5 -3.5t24.5 -19.5l235 -231q19 -19 -14 -19h-37q-28 0 -41 15l-199 194l-203 -194q-13 -15 -36 -15h-37zM225 0q-13 0 -18.5 6t-5.5 21v1400q0 15 5.5 21t18.5 6h760q25 0 25 -27v-36
q0 -25 -25 -25h-690v-584h608q25 0 25 -26v-37q0 -27 -25 -27h-608v-604h715q24 0 24 -25v-36q0 -15 -5.5 -21t-18.5 -6h-785z" />
    <glyph glyph-name="Edieresis" unicode="&#xcb;" horiz-adv-x="1148" 
d="M420 1640q-26 0 -36.5 10t-10.5 36v14q0 26 10.5 36.5t36.5 10.5h12q27 0 37 -10t10 -37v-14q0 -26 -9.5 -36t-37.5 -10h-12zM780 1640q-29 0 -39 9.5t-10 36.5v14q0 27 10 37t39 10h11q27 0 38 -10.5t11 -36.5v-14q0 -26 -11 -36t-38 -10h-11zM225 0q-13 0 -18.5 6
t-5.5 21v1400q0 15 5.5 21t18.5 6h760q25 0 25 -27v-36q0 -25 -25 -25h-690v-584h608q25 0 25 -26v-37q0 -27 -25 -27h-608v-604h715q24 0 24 -25v-36q0 -15 -5.5 -21t-18.5 -6h-785z" />
    <glyph glyph-name="Edieresis" unicode="&#xeb;" horiz-adv-x="1148" 
d="M420 1640q-26 0 -36.5 10t-10.5 36v14q0 26 10.5 36.5t36.5 10.5h12q27 0 37 -10t10 -37v-14q0 -26 -9.5 -36t-37.5 -10h-12zM780 1640q-29 0 -39 9.5t-10 36.5v14q0 27 10 37t39 10h11q27 0 38 -10.5t11 -36.5v-14q0 -26 -11 -36t-38 -10h-11zM225 0q-13 0 -18.5 6
t-5.5 21v1400q0 15 5.5 21t18.5 6h760q25 0 25 -27v-36q0 -25 -25 -25h-690v-584h608q25 0 25 -26v-37q0 -27 -25 -27h-608v-604h715q24 0 24 -25v-36q0 -15 -5.5 -21t-18.5 -6h-785z" />
    <glyph glyph-name="Igrave" unicode="&#xcc;" horiz-adv-x="495" 
d="M72 1769q-22 9 -2 29l20 25q17 17 45 0l281 -215q19 -13 4 -31l-12 -16q-12 -12 -33 0zM223 0q-22 0 -22 25v1407q0 22 22 22h49q23 0 23 -22v-1407q0 -25 -23 -25h-49z" />
    <glyph glyph-name="Igrave" unicode="&#xec;" horiz-adv-x="495" 
d="M72 1769q-22 9 -2 29l20 25q17 17 45 0l281 -215q19 -13 4 -31l-12 -16q-12 -12 -33 0zM223 0q-22 0 -22 25v1407q0 22 22 22h49q23 0 23 -22v-1407q0 -25 -23 -25h-49z" />
    <glyph glyph-name="Iacute" unicode="&#xcd;" horiz-adv-x="495" 
d="M121 1563q-23 -12 -35 0l-12 16q-15 18 4 31l282 215q28 16 43 -2l23 -23q17 -19 -4 -31zM223 0q-22 0 -22 25v1407q0 22 22 22h49q23 0 23 -22v-1407q0 -25 -23 -25h-49z" />
    <glyph glyph-name="Iacute" unicode="&#xed;" horiz-adv-x="495" 
d="M121 1563q-23 -12 -35 0l-12 16q-15 18 4 31l282 215q28 16 43 -2l23 -23q17 -19 -4 -31zM223 0q-22 0 -22 25v1407q0 22 22 22h49q23 0 23 -22v-1407q0 -25 -23 -25h-49z" />
    <glyph glyph-name="Icircumflex" unicode="&#xce;" horiz-adv-x="495" 
d="M-31 1556q-33 0 -14 19l238 231q18 16 25.5 19.5t25.5 3.5h8q16 0 24.5 -3.5t24.5 -19.5l236 -231q8 -7 4.5 -13t-19.5 -6h-37q-28 0 -41 15l-198 194l-203 -194q-13 -15 -37 -15h-37zM223 0q-22 0 -22 25v1407q0 22 22 22h49q23 0 23 -22v-1407q0 -25 -23 -25h-49z" />
    <glyph glyph-name="Icircumflex" unicode="&#xee;" horiz-adv-x="495" 
d="M-31 1556q-33 0 -14 19l238 231q18 16 25.5 19.5t25.5 3.5h8q16 0 24.5 -3.5t24.5 -19.5l236 -231q8 -7 4.5 -13t-19.5 -6h-37q-28 0 -41 15l-198 194l-203 -194q-13 -15 -37 -15h-37zM223 0q-22 0 -22 25v1407q0 22 22 22h49q23 0 23 -22v-1407q0 -25 -23 -25h-49z" />
    <glyph glyph-name="Idieresis" unicode="&#xcf;" horiz-adv-x="495" 
d="M61 1640q-26 0 -36.5 10t-10.5 36v14q0 26 10.5 36.5t36.5 10.5h13q27 0 37 -10t10 -37v-14q0 -26 -9.5 -36t-37.5 -10h-13zM422 1640q-29 0 -39 9.5t-10 36.5v14q0 27 10 37t39 10h10q27 0 38 -10.5t11 -36.5v-14q0 -26 -11 -36t-38 -10h-10zM223 0q-22 0 -22 25v1407
q0 22 22 22h49q23 0 23 -22v-1407q0 -25 -23 -25h-49z" />
    <glyph glyph-name="Idieresis" unicode="&#xef;" horiz-adv-x="495" 
d="M61 1640q-26 0 -36.5 10t-10.5 36v14q0 26 10.5 36.5t36.5 10.5h13q27 0 37 -10t10 -37v-14q0 -26 -9.5 -36t-37.5 -10h-13zM422 1640q-29 0 -39 9.5t-10 36.5v14q0 27 10 37t39 10h10q27 0 38 -10.5t11 -36.5v-14q0 -26 -11 -36t-38 -10h-10zM223 0q-22 0 -22 25v1407
q0 22 22 22h49q23 0 23 -22v-1407q0 -25 -23 -25h-49z" />
    <glyph glyph-name="Eth" unicode="&#xd0;" horiz-adv-x="1300" 
d="M219 0q-13 0 -18.5 6t-5.5 21v667h-140q-20 0 -20 19v32q0 21 20 21h140v661q0 15 5.5 21t18.5 6h387q261 0 404 -144t143 -397v-372q0 -253 -143 -397t-404 -144h-387zM608 88q217 0 333 119t116 334v372q0 215 -116 334t-333 119h-317v-600h334q10 0 14 -4.5t4 -16.5
v-32q0 -19 -18 -19h-334v-606h317z" />
    <glyph glyph-name="Eth" unicode="&#xf0;" horiz-adv-x="1300" 
d="M219 0q-13 0 -18.5 6t-5.5 21v667h-140q-20 0 -20 19v32q0 21 20 21h140v661q0 15 5.5 21t18.5 6h387q261 0 404 -144t143 -397v-372q0 -253 -143 -397t-404 -144h-387zM608 88q217 0 333 119t116 334v372q0 215 -116 334t-333 119h-317v-600h334q10 0 14 -4.5t4 -16.5
v-32q0 -19 -18 -19h-334v-606h317z" />
    <glyph glyph-name="Ntilde" unicode="&#xd1;" horiz-adv-x="1390" 
d="M430 1585q-16 0 -16 19q0 91 38 141.5t103 50.5q37 0 69 -15t55 -37t45 -43.5t49 -36.5t56 -15q42 0 64 35t22 94q0 18 17 18h26q19 0 19 -18q0 -92 -36.5 -142.5t-106.5 -50.5q-36 0 -67 15t-54 37t-45 44t-49 37t-56 15q-41 0 -64.5 -35t-23.5 -94q0 -19 -16 -19h-29z
M225 0q-13 0 -18.5 6t-5.5 21v1400q0 15 5.5 21t18.5 6h51q20 0 27 -14l635 -1010q28 -45 54.5 -90.5t66 -117t49.5 -89.5h6q-14 212 -14 373v924q0 14 5 19t19 5h43q25 0 25 -27v-1400q0 -27 -25 -27h-51q-20 0 -29 16l-653 1037q-31 52 -82.5 147.5t-64.5 118.5h-4
q1 -36 5.5 -153t4.5 -185v-954q0 -15 -6 -21t-21 -6h-41z" />
    <glyph glyph-name="Ntilde" unicode="&#xf1;" horiz-adv-x="1390" 
d="M430 1585q-16 0 -16 19q0 91 38 141.5t103 50.5q37 0 69 -15t55 -37t45 -43.5t49 -36.5t56 -15q42 0 64 35t22 94q0 18 17 18h26q19 0 19 -18q0 -92 -36.5 -142.5t-106.5 -50.5q-36 0 -67 15t-54 37t-45 44t-49 37t-56 15q-41 0 -64.5 -35t-23.5 -94q0 -19 -16 -19h-29z
M225 0q-13 0 -18.5 6t-5.5 21v1400q0 15 5.5 21t18.5 6h51q20 0 27 -14l635 -1010q28 -45 54.5 -90.5t66 -117t49.5 -89.5h6q-14 212 -14 373v924q0 14 5 19t19 5h43q25 0 25 -27v-1400q0 -27 -25 -27h-51q-20 0 -29 16l-653 1037q-31 52 -82.5 147.5t-64.5 118.5h-4
q1 -36 5.5 -153t4.5 -185v-954q0 -15 -6 -21t-21 -6h-41z" />
    <glyph glyph-name="Ograve" unicode="&#xd2;" horiz-adv-x="1333" 
d="M492 1790q-22 10 -3 29l21 24q17 17 45 0l281 -215q19 -13 4 -31l-13 -16q-12 -12 -32 0zM668 -29q-247 0 -379.5 134t-132.5 372v500q0 238 132.5 372t379.5 134q246 0 378 -134t132 -372v-500q0 -238 -132 -372t-378 -134zM668 59q200 0 307.5 110.5t107.5 309.5v496
q0 199 -107.5 309.5t-307.5 110.5q-201 0 -308.5 -111t-107.5 -309v-496q0 -198 107.5 -309t308.5 -111z" />
    <glyph glyph-name="Ograve" unicode="&#xf2;" horiz-adv-x="1333" 
d="M492 1790q-22 10 -3 29l21 24q17 17 45 0l281 -215q19 -13 4 -31l-13 -16q-12 -12 -32 0zM668 -29q-247 0 -379.5 134t-132.5 372v500q0 238 132.5 372t379.5 134q246 0 378 -134t132 -372v-500q0 -238 -132 -372t-378 -134zM668 59q200 0 307.5 110.5t107.5 309.5v496
q0 199 -107.5 309.5t-307.5 110.5q-201 0 -308.5 -111t-107.5 -309v-496q0 -198 107.5 -309t308.5 -111z" />
    <glyph glyph-name="Oacute" unicode="&#xd3;" horiz-adv-x="1333" 
d="M541 1583q-23 -12 -35 0l-12 16q-15 18 4 31l282 215q28 16 43 -2l23 -22q17 -19 -4 -31zM668 -29q-247 0 -379.5 134t-132.5 372v500q0 238 132.5 372t379.5 134q246 0 378 -134t132 -372v-500q0 -238 -132 -372t-378 -134zM668 59q200 0 307.5 110.5t107.5 309.5v496
q0 199 -107.5 309.5t-307.5 110.5q-201 0 -308.5 -111t-107.5 -309v-496q0 -198 107.5 -309t308.5 -111z" />
    <glyph glyph-name="Oacute" unicode="&#xf3;" horiz-adv-x="1333" 
d="M541 1583q-23 -12 -35 0l-12 16q-15 18 4 31l282 215q28 16 43 -2l23 -22q17 -19 -4 -31zM668 -29q-247 0 -379.5 134t-132.5 372v500q0 238 132.5 372t379.5 134q246 0 378 -134t132 -372v-500q0 -238 -132 -372t-378 -134zM668 59q200 0 307.5 110.5t107.5 309.5v496
q0 199 -107.5 309.5t-307.5 110.5q-201 0 -308.5 -111t-107.5 -309v-496q0 -198 107.5 -309t308.5 -111z" />
    <glyph glyph-name="Ocircumflex" unicode="&#xd4;" horiz-adv-x="1333" 
d="M391 1577q-32 0 -14 18l237 232q17 15 25 18.5t27 3.5h8h13.5t9.5 -2t11.5 -6.5t14.5 -13.5l235 -232q18 -18 -14 -18h-37q-29 0 -41 14l-198 195l-203 -195q-12 -14 -37 -14h-37zM668 -29q-247 0 -379.5 134t-132.5 372v500q0 238 132.5 372t379.5 134q246 0 378 -134
t132 -372v-500q0 -238 -132 -372t-378 -134zM668 59q200 0 307.5 110.5t107.5 309.5v496q0 199 -107.5 309.5t-307.5 110.5q-201 0 -308.5 -111t-107.5 -309v-496q0 -198 107.5 -309t308.5 -111z" />
    <glyph glyph-name="Ocircumflex" unicode="&#xf4;" horiz-adv-x="1333" 
d="M391 1577q-32 0 -14 18l237 232q17 15 25 18.5t27 3.5h8h13.5t9.5 -2t11.5 -6.5t14.5 -13.5l235 -232q18 -18 -14 -18h-37q-29 0 -41 14l-198 195l-203 -195q-12 -14 -37 -14h-37zM668 -29q-247 0 -379.5 134t-132.5 372v500q0 238 132.5 372t379.5 134q246 0 378 -134
t132 -372v-500q0 -238 -132 -372t-378 -134zM668 59q200 0 307.5 110.5t107.5 309.5v496q0 199 -107.5 309.5t-307.5 110.5q-201 0 -308.5 -111t-107.5 -309v-496q0 -198 107.5 -309t308.5 -111z" />
    <glyph glyph-name="Otilde" unicode="&#xd5;" horiz-adv-x="1333" 
d="M399 1606q-16 0 -16 18q0 91 38 142t103 51q37 0 69 -15t55.5 -37t45.5 -44t49 -37t56 -15q42 0 64 35t22 94q0 19 16 19h27q18 0 18 -19q0 -92 -36.5 -142t-106.5 -50q-36 0 -67 15t-54 37t-45 43.5t-49 36.5t-56 15q-41 0 -64.5 -35t-23.5 -94q0 -18 -16 -18h-29z
M668 -29q-247 0 -379.5 134t-132.5 372v500q0 238 132.5 372t379.5 134q246 0 378 -134t132 -372v-500q0 -238 -132 -372t-378 -134zM668 59q200 0 307.5 110.5t107.5 309.5v496q0 199 -107.5 309.5t-307.5 110.5q-201 0 -308.5 -111t-107.5 -309v-496q0 -198 107.5 -309
t308.5 -111z" />
    <glyph glyph-name="Otilde" unicode="&#xf5;" horiz-adv-x="1333" 
d="M399 1606q-16 0 -16 18q0 91 38 142t103 51q37 0 69 -15t55.5 -37t45.5 -44t49 -37t56 -15q42 0 64 35t22 94q0 19 16 19h27q18 0 18 -19q0 -92 -36.5 -142t-106.5 -50q-36 0 -67 15t-54 37t-45 43.5t-49 36.5t-56 15q-41 0 -64.5 -35t-23.5 -94q0 -18 -16 -18h-29z
M668 -29q-247 0 -379.5 134t-132.5 372v500q0 238 132.5 372t379.5 134q246 0 378 -134t132 -372v-500q0 -238 -132 -372t-378 -134zM668 59q200 0 307.5 110.5t107.5 309.5v496q0 199 -107.5 309.5t-307.5 110.5q-201 0 -308.5 -111t-107.5 -309v-496q0 -198 107.5 -309
t308.5 -111z" />
    <glyph glyph-name="Odieresis" unicode="&#xd6;" horiz-adv-x="1333" 
d="M481 1661q-27 0 -37 9.5t-10 35.5v14q0 26 10.5 36.5t36.5 10.5h13q27 0 37 -10t10 -37v-14q0 -26 -9.5 -35.5t-37.5 -9.5h-13zM842 1661q-29 0 -39 9.5t-10 35.5v14q0 27 10 37t39 10h10q27 0 38 -10.5t11 -36.5v-14q0 -26 -11 -35.5t-38 -9.5h-10zM668 -29
q-247 0 -379.5 134t-132.5 372v500q0 238 132.5 372t379.5 134q246 0 378 -134t132 -372v-500q0 -238 -132 -372t-378 -134zM668 59q200 0 307.5 110.5t107.5 309.5v496q0 199 -107.5 309.5t-307.5 110.5q-201 0 -308.5 -111t-107.5 -309v-496q0 -198 107.5 -309t308.5 -111
z" />
    <glyph glyph-name="Odieresis" unicode="&#xf6;" horiz-adv-x="1333" 
d="M481 1661q-27 0 -37 9.5t-10 35.5v14q0 26 10.5 36.5t36.5 10.5h13q27 0 37 -10t10 -37v-14q0 -26 -9.5 -35.5t-37.5 -9.5h-13zM842 1661q-29 0 -39 9.5t-10 35.5v14q0 27 10 37t39 10h10q27 0 38 -10.5t11 -36.5v-14q0 -26 -11 -35.5t-38 -9.5h-10zM668 -29
q-247 0 -379.5 134t-132.5 372v500q0 238 132.5 372t379.5 134q246 0 378 -134t132 -372v-500q0 -238 -132 -372t-378 -134zM668 59q200 0 307.5 110.5t107.5 309.5v496q0 199 -107.5 309.5t-307.5 110.5q-201 0 -308.5 -111t-107.5 -309v-496q0 -198 107.5 -309t308.5 -111
z" />
    <glyph glyph-name="multiply" unicode="&#xd7;" horiz-adv-x="1081" 
d="M541 606l-318 -319q-16 -19 -35 0l-20 20q-20 17 0 37l317 320l-315 323q-10 11 -10 19t10 18l18 20q20 17 35 0l318 -323l317 323q16 19 35 0l20 -22q20 -17 0 -37l-319 -321l319 -320q11 -12 11 -20t-11 -19l-20 -20q-20 -17 -35 0z" />
    <glyph glyph-name="Oslash" unicode="&#xd8;" horiz-adv-x="1333" 
d="M168 -88q-13 0 -6 10l112 195q-118 133 -118 360v500q0 238 132.5 372t379.5 134q217 0 344 -109l88 152q6 8 20 8h54q9 0 6 -10l-115 -195q113 -134 113 -352v-500q0 -238 -132 -372t-378 -134q-203 0 -338 101l-88 -150q-4 -7 -7.5 -8.5t-15.5 -1.5h-51zM965 1294
q-107 101 -297 101q-201 0 -308.5 -111t-107.5 -309v-488q0 -168 84 -268zM668 59q200 0 307.5 110.5t107.5 309.5v496q0 158 -75 254l-631 -1075q106 -95 291 -95z" />
    <glyph glyph-name="Oslash" unicode="&#xf8;" horiz-adv-x="1333" 
d="M168 -88q-13 0 -6 10l112 195q-118 133 -118 360v500q0 238 132.5 372t379.5 134q217 0 344 -109l88 152q6 8 20 8h54q9 0 6 -10l-115 -195q113 -134 113 -352v-500q0 -238 -132 -372t-378 -134q-203 0 -338 101l-88 -150q-4 -7 -7.5 -8.5t-15.5 -1.5h-51zM965 1294
q-107 101 -297 101q-201 0 -308.5 -111t-107.5 -309v-488q0 -168 84 -268zM668 59q200 0 307.5 110.5t107.5 309.5v496q0 158 -75 254l-631 -1075q106 -95 291 -95z" />
    <glyph glyph-name="Ugrave" unicode="&#xd9;" horiz-adv-x="1374" 
d="M510 1769q-22 9 -2 29l20 25q17 17 45 0l281 -215q19 -13 4 -31l-12 -16q-12 -12 -33 0zM686 -29q-245 0 -371.5 139.5t-126.5 383.5v936q0 24 25 24h45q25 0 25 -24v-936q0 -204 102 -319.5t301 -115.5q200 0 302 115.5t102 319.5v936q0 14 5 19t19 5h47q25 0 25 -24
v-936q0 -244 -127.5 -383.5t-372.5 -139.5z" />
    <glyph glyph-name="Ugrave" unicode="&#xf9;" horiz-adv-x="1374" 
d="M510 1769q-22 9 -2 29l20 25q17 17 45 0l281 -215q19 -13 4 -31l-12 -16q-12 -12 -33 0zM686 -29q-245 0 -371.5 139.5t-126.5 383.5v936q0 24 25 24h45q25 0 25 -24v-936q0 -204 102 -319.5t301 -115.5q200 0 302 115.5t102 319.5v936q0 14 5 19t19 5h47q25 0 25 -24
v-936q0 -244 -127.5 -383.5t-372.5 -139.5z" />
    <glyph glyph-name="Uacute" unicode="&#xda;" horiz-adv-x="1374" 
d="M559 1563q-23 -12 -35 0l-12 16q-15 18 4 31l283 215q28 16 43 -2l22 -23q17 -19 -4 -31zM686 -29q-245 0 -371.5 139.5t-126.5 383.5v936q0 24 25 24h45q25 0 25 -24v-936q0 -204 102 -319.5t301 -115.5q200 0 302 115.5t102 319.5v936q0 14 5 19t19 5h47q25 0 25 -24
v-936q0 -244 -127.5 -383.5t-372.5 -139.5z" />
    <glyph glyph-name="Uacute" unicode="&#xfa;" horiz-adv-x="1374" 
d="M559 1563q-23 -12 -35 0l-12 16q-15 18 4 31l283 215q28 16 43 -2l22 -23q17 -19 -4 -31zM686 -29q-245 0 -371.5 139.5t-126.5 383.5v936q0 24 25 24h45q25 0 25 -24v-936q0 -204 102 -319.5t301 -115.5q200 0 302 115.5t102 319.5v936q0 14 5 19t19 5h47q25 0 25 -24
v-936q0 -244 -127.5 -383.5t-372.5 -139.5z" />
    <glyph glyph-name="Ucircumflex" unicode="&#xdb;" horiz-adv-x="1374" 
d="M410 1556q-16 0 -19.5 6t4.5 13l238 231q18 16 25.5 19.5t25.5 3.5h8q16 0 24.5 -3.5t24.5 -19.5l236 -231q19 -19 -14 -19h-37q-28 0 -41 15l-199 194l-203 -194q-12 -15 -37 -15h-36zM686 -29q-245 0 -371.5 139.5t-126.5 383.5v936q0 24 25 24h45q25 0 25 -24v-936
q0 -204 102 -319.5t301 -115.5q200 0 302 115.5t102 319.5v936q0 14 5 19t19 5h47q25 0 25 -24v-936q0 -244 -127.5 -383.5t-372.5 -139.5z" />
    <glyph glyph-name="Ucircumflex" unicode="&#xfb;" horiz-adv-x="1374" 
d="M410 1556q-16 0 -19.5 6t4.5 13l238 231q18 16 25.5 19.5t25.5 3.5h8q16 0 24.5 -3.5t24.5 -19.5l236 -231q19 -19 -14 -19h-37q-28 0 -41 15l-199 194l-203 -194q-12 -15 -37 -15h-36zM686 -29q-245 0 -371.5 139.5t-126.5 383.5v936q0 24 25 24h45q25 0 25 -24v-936
q0 -204 102 -319.5t301 -115.5q200 0 302 115.5t102 319.5v936q0 14 5 19t19 5h47q25 0 25 -24v-936q0 -244 -127.5 -383.5t-372.5 -139.5z" />
    <glyph glyph-name="Udieresis" unicode="&#xdc;" horiz-adv-x="1374" 
d="M500 1640q-26 0 -36.5 10t-10.5 36v14q0 26 10.5 36.5t36.5 10.5h12q27 0 37 -10t10 -37v-14q0 -26 -9.5 -36t-37.5 -10h-12zM860 1640q-29 0 -39 9.5t-10 36.5v14q0 27 10 37t39 10h10q27 0 38.5 -10.5t11.5 -36.5v-14q0 -26 -11.5 -36t-38.5 -10h-10zM686 -29
q-245 0 -371.5 139.5t-126.5 383.5v936q0 24 25 24h45q25 0 25 -24v-936q0 -204 102 -319.5t301 -115.5q200 0 302 115.5t102 319.5v936q0 14 5 19t19 5h47q25 0 25 -24v-936q0 -244 -127.5 -383.5t-372.5 -139.5z" />
    <glyph glyph-name="Udieresis" unicode="&#xfc;" horiz-adv-x="1374" 
d="M500 1640q-26 0 -36.5 10t-10.5 36v14q0 26 10.5 36.5t36.5 10.5h12q27 0 37 -10t10 -37v-14q0 -26 -9.5 -36t-37.5 -10h-12zM860 1640q-29 0 -39 9.5t-10 36.5v14q0 27 10 37t39 10h10q27 0 38.5 -10.5t11.5 -36.5v-14q0 -26 -11.5 -36t-38.5 -10h-10zM686 -29
q-245 0 -371.5 139.5t-126.5 383.5v936q0 24 25 24h45q25 0 25 -24v-936q0 -204 102 -319.5t301 -115.5q200 0 302 115.5t102 319.5v936q0 14 5 19t19 5h47q25 0 25 -24v-936q0 -244 -127.5 -383.5t-372.5 -139.5z" />
    <glyph glyph-name="Yacute" unicode="&#xdd;" horiz-adv-x="1249" 
d="M500 1563q-23 -12 -35 0l-12 16q-15 18 4 31l282 215q28 16 43 -2l23 -23q17 -19 -4 -31zM602 0q-13 0 -18.5 6t-5.5 21v573l-512 827q-6 11 -2.5 19t16.5 8h53q21 0 28 -4t15 -18l451 -742l450 742q8 14 15 18t28 4h51q13 0 17 -8t-2 -19l-514 -831v-569q0 -27 -25 -27
h-45z" />
    <glyph glyph-name="Yacute" unicode="&#xfd;" horiz-adv-x="1249" 
d="M500 1563q-23 -12 -35 0l-12 16q-15 18 4 31l282 215q28 16 43 -2l23 -23q17 -19 -4 -31zM602 0q-13 0 -18.5 6t-5.5 21v573l-512 827q-6 11 -2.5 19t16.5 8h53q21 0 28 -4t15 -18l451 -742l450 742q8 14 15 18t28 4h51q13 0 17 -8t-2 -19l-514 -831v-569q0 -27 -25 -27
h-45z" />
    <glyph glyph-name="Thorn" unicode="&#xde;" horiz-adv-x="1236" 
d="M225 0q-13 0 -18.5 6t-5.5 21v1400q0 15 5.5 21t18.5 6h45q25 0 25 -27v-227h416q195 0 312.5 -125t117.5 -340t-117 -338t-313 -123h-416v-247q0 -27 -25 -27h-45zM700 360q159 0 253 101t94 274q0 174 -94 275.5t-253 101.5h-405v-752h405z" />
    <glyph glyph-name="Thorn" unicode="&#xfe;" horiz-adv-x="1236" 
d="M225 0q-13 0 -18.5 6t-5.5 21v1400q0 15 5.5 21t18.5 6h45q25 0 25 -27v-227h416q195 0 312.5 -125t117.5 -340t-117 -338t-313 -123h-416v-247q0 -27 -25 -27h-45zM700 360q159 0 253 101t94 274q0 174 -94 275.5t-253 101.5h-405v-752h405z" />
    <glyph glyph-name="uni00DF" unicode="&#xdf;" horiz-adv-x="1292" 
d="M809 834q161 0 256.5 -104t95.5 -318q0 -218 -111.5 -323t-336.5 -105q-131 0 -269 53q-26 0 -26 26v41q0 10 7.5 17t18.5 4q80 -33 138 -43t127 -10q182 0 269 82t87 260q0 171 -72.5 254.5t-197.5 83.5q-94 0 -162 -11q-27 -3 -27 23v39q0 15 12 33l345 530h-668v-1339
q0 -27 -25 -27h-45q-13 0 -18.5 6t-5.5 21v1400q0 15 5.5 21t18.5 6h828q26 0 26 -27v-41q0 -12 -12 -32l-356 -525q83 5 98 5z" />
    <glyph glyph-name="uni00DF" unicode="&#x1e9e;" horiz-adv-x="1292" 
d="M809 834q161 0 256.5 -104t95.5 -318q0 -218 -111.5 -323t-336.5 -105q-131 0 -269 53q-26 0 -26 26v41q0 10 7.5 17t18.5 4q80 -33 138 -43t127 -10q182 0 269 82t87 260q0 171 -72.5 254.5t-197.5 83.5q-94 0 -162 -11q-27 -3 -27 23v39q0 15 12 33l345 530h-668v-1339
q0 -27 -25 -27h-45q-13 0 -18.5 6t-5.5 21v1400q0 15 5.5 21t18.5 6h828q26 0 26 -27v-41q0 -12 -12 -32l-356 -525q83 5 98 5z" />
    <glyph glyph-name="divide" unicode="&#xf7;" horiz-adv-x="1255" 
d="M623 1016q-33 0 -45.5 11t-12.5 44v12q0 31 13 43.5t45 12.5h10q32 0 43.5 -12.5t11.5 -43.5v-12q0 -32 -11.5 -43.5t-43.5 -11.5h-10zM180 621q-24 0 -24 26v35q0 25 24 25h893q27 0 27 -25v-35q0 -26 -27 -26h-893zM623 195q-33 0 -45.5 11.5t-12.5 43.5v12
q0 32 12.5 43.5t45.5 11.5h10q32 0 43.5 -11.5t11.5 -43.5v-12q0 -31 -11.5 -43t-43.5 -12h-10z" />
    <glyph glyph-name="Ydieresis" unicode="&#xff;" horiz-adv-x="1249" 
d="M440 1640q-26 0 -36.5 10t-10.5 36v14q0 26 10.5 36.5t36.5 10.5h13q27 0 37 -10t10 -37v-14q0 -26 -10 -36t-37 -10h-13zM801 1640q-29 0 -39 9.5t-10 36.5v14q0 27 10 37t39 10h10q27 0 38 -10.5t11 -36.5v-14q0 -26 -11 -36t-38 -10h-10zM602 0q-13 0 -18.5 6t-5.5 21
v573l-512 827q-6 11 -2.5 19t16.5 8h53q21 0 28 -4t15 -18l451 -742l450 742q8 14 15 18t28 4h51q13 0 17 -8t-2 -19l-514 -831v-569q0 -27 -25 -27h-45z" />
    <glyph glyph-name="Ydieresis" unicode="&#x178;" horiz-adv-x="1249" 
d="M440 1640q-26 0 -36.5 10t-10.5 36v14q0 26 10.5 36.5t36.5 10.5h13q27 0 37 -10t10 -37v-14q0 -26 -10 -36t-37 -10h-13zM801 1640q-29 0 -39 9.5t-10 36.5v14q0 27 10 37t39 10h10q27 0 38 -10.5t11 -36.5v-14q0 -26 -11 -36t-38 -10h-10zM602 0q-13 0 -18.5 6t-5.5 21
v573l-512 827q-6 11 -2.5 19t16.5 8h53q21 0 28 -4t15 -18l451 -742l450 742q8 14 15 18t28 4h51q13 0 17 -8t-2 -19l-514 -831v-569q0 -27 -25 -27h-45z" />
    <glyph glyph-name="Amacron" unicode="&#x100;" horiz-adv-x="1277" 
d="M412 1651q-13 0 -18 5t-5 19v21q0 13 5 17.5t18 4.5h454q14 0 18.5 -4.5t4.5 -17.5v-21q0 -14 -5 -19t-18 -5h-454zM76 0q-30 0 -19 25l525 1415q8 24 34 24h46q24 0 32 -24l525 -1415q11 -25 -19 -25h-41q-21 0 -29.5 4.5t-13.5 18.5l-164 452h-628l-166 -452
q-4 -13 -13.5 -18t-29.5 -5h-39zM922 557l-263 723q-17 53 -20 86h-6q-3 -30 -17 -86l-264 -723h570z" />
    <glyph glyph-name="Amacron" unicode="&#x101;" horiz-adv-x="1277" 
d="M412 1651q-13 0 -18 5t-5 19v21q0 13 5 17.5t18 4.5h454q14 0 18.5 -4.5t4.5 -17.5v-21q0 -14 -5 -19t-18 -5h-454zM76 0q-30 0 -19 25l525 1415q8 24 34 24h46q24 0 32 -24l525 -1415q11 -25 -19 -25h-41q-21 0 -29.5 4.5t-13.5 18.5l-164 452h-628l-166 -452
q-4 -13 -13.5 -18t-29.5 -5h-39zM922 557l-263 723q-17 53 -20 86h-6q-3 -30 -17 -86l-264 -723h570z" />
    <glyph glyph-name="Abreve" unicode="&#x102;" horiz-adv-x="1277" 
d="M639 1563q-107 0 -172.5 55.5t-104.5 171.5q-5 19 13 25l31 10q19 5 24 -10q32 -96 79.5 -139.5t129.5 -43.5t128 42t79 141q6 13 20 10l37 -10q17 -6 12 -25q-41 -117 -105 -172t-171 -55zM76 0q-30 0 -19 25l525 1415q8 24 34 24h46q24 0 32 -24l525 -1415
q11 -25 -19 -25h-41q-21 0 -29.5 4.5t-13.5 18.5l-164 452h-628l-166 -452q-4 -13 -13.5 -18t-29.5 -5h-39zM922 557l-263 723q-17 53 -20 86h-6q-3 -30 -17 -86l-264 -723h570z" />
    <glyph glyph-name="Abreve" unicode="&#x103;" horiz-adv-x="1277" 
d="M639 1563q-107 0 -172.5 55.5t-104.5 171.5q-5 19 13 25l31 10q19 5 24 -10q32 -96 79.5 -139.5t129.5 -43.5t128 42t79 141q6 13 20 10l37 -10q17 -6 12 -25q-41 -117 -105 -172t-171 -55zM76 0q-30 0 -19 25l525 1415q8 24 34 24h46q24 0 32 -24l525 -1415
q11 -25 -19 -25h-41q-21 0 -29.5 4.5t-13.5 18.5l-164 452h-628l-166 -452q-4 -13 -13.5 -18t-29.5 -5h-39zM922 557l-263 723q-17 53 -20 86h-6q-3 -30 -17 -86l-264 -723h570z" />
    <glyph glyph-name="Aogonek" unicode="&#x104;" horiz-adv-x="1277" 
d="M1083 -506q-108 0 -135 96q-25 75 29 184.5t166 231.5q-21 0 -27 19l-164 450h-628l-166 -452q-4 -13 -13.5 -18t-29.5 -5h-39q-30 0 -19 25l525 1415q8 24 34 24h46q24 0 32 -24l525 -1415q5 -14 -2 -21q-234 -263 -193 -379q22 -61 82 -61q59 0 108 59q14 7 17 -6
l12 -31q5 -13 -2 -20q-72 -72 -158 -72zM922 557l-263 723q-17 53 -20 86h-6q-3 -30 -17 -86l-264 -723h570z" />
    <glyph glyph-name="Aogonek" unicode="&#x105;" horiz-adv-x="1277" 
d="M1083 -506q-108 0 -135 96q-25 75 29 184.5t166 231.5q-21 0 -27 19l-164 450h-628l-166 -452q-4 -13 -13.5 -18t-29.5 -5h-39q-30 0 -19 25l525 1415q8 24 34 24h46q24 0 32 -24l525 -1415q5 -14 -2 -21q-234 -263 -193 -379q22 -61 82 -61q59 0 108 59q14 7 17 -6
l12 -31q5 -13 -2 -20q-72 -72 -158 -72zM922 557l-263 723q-17 53 -20 86h-6q-3 -30 -17 -86l-264 -723h570z" />
    <glyph glyph-name="Cacute" unicode="&#x106;" horiz-adv-x="1280" 
d="M541 1563q-23 -12 -35 0l-12 16q-15 18 4 31l282 215q28 16 43 -2l23 -23q17 -19 -4 -31zM666 -29q-244 0 -377 134.5t-133 371.5v502q0 237 131.5 370.5t378.5 133.5q215 0 331.5 -88t165.5 -269q10 -26 -14 -32l-41 -13q-25 -8 -33 15q-42 156 -135.5 227.5
t-271.5 71.5q-204 0 -310 -109.5t-106 -304.5v-506q0 -195 106.5 -304.5t307.5 -109.5q179 0 272.5 75t138.5 231q8 26 33 18l43 -14q24 -9 16 -35q-57 -184 -172 -274.5t-331 -90.5z" />
    <glyph glyph-name="Cacute" unicode="&#x107;" horiz-adv-x="1280" 
d="M541 1563q-23 -12 -35 0l-12 16q-15 18 4 31l282 215q28 16 43 -2l23 -23q17 -19 -4 -31zM666 -29q-244 0 -377 134.5t-133 371.5v502q0 237 131.5 370.5t378.5 133.5q215 0 331.5 -88t165.5 -269q10 -26 -14 -32l-41 -13q-25 -8 -33 15q-42 156 -135.5 227.5
t-271.5 71.5q-204 0 -310 -109.5t-106 -304.5v-506q0 -195 106.5 -304.5t307.5 -109.5q179 0 272.5 75t138.5 231q8 26 33 18l43 -14q24 -9 16 -35q-57 -184 -172 -274.5t-331 -90.5z" />
    <glyph glyph-name="Ccircumflex" unicode="&#x108;" horiz-adv-x="1280" 
d="M391 1556q-33 0 -14 19l237 231q18 16 26 19.5t26 3.5h8q16 0 24.5 -3.5t24.5 -19.5l235 -231q19 -19 -14 -19h-37q-28 0 -41 15l-198 194l-203 -194q-13 -15 -37 -15h-37zM666 -29q-244 0 -377 134.5t-133 371.5v502q0 237 131.5 370.5t378.5 133.5q215 0 331.5 -88
t165.5 -269q10 -26 -14 -32l-41 -13q-25 -8 -33 15q-42 156 -135.5 227.5t-271.5 71.5q-204 0 -310 -109.5t-106 -304.5v-506q0 -195 106.5 -304.5t307.5 -109.5q179 0 272.5 75t138.5 231q8 26 33 18l43 -14q24 -9 16 -35q-57 -184 -172 -274.5t-331 -90.5z" />
    <glyph glyph-name="Ccircumflex" unicode="&#x109;" horiz-adv-x="1280" 
d="M391 1556q-33 0 -14 19l237 231q18 16 26 19.5t26 3.5h8q16 0 24.5 -3.5t24.5 -19.5l235 -231q19 -19 -14 -19h-37q-28 0 -41 15l-198 194l-203 -194q-13 -15 -37 -15h-37zM666 -29q-244 0 -377 134.5t-133 371.5v502q0 237 131.5 370.5t378.5 133.5q215 0 331.5 -88
t165.5 -269q10 -26 -14 -32l-41 -13q-25 -8 -33 15q-42 156 -135.5 227.5t-271.5 71.5q-204 0 -310 -109.5t-106 -304.5v-506q0 -195 106.5 -304.5t307.5 -109.5q179 0 272.5 75t138.5 231q8 26 33 18l43 -14q24 -9 16 -35q-57 -184 -172 -274.5t-331 -90.5z" />
    <glyph glyph-name="Cdotaccent" unicode="&#x10a;" horiz-adv-x="1280" 
d="M664 1630q-28 0 -38 10t-10 39v11q0 29 10 39t38 10h10q28 0 38.5 -10t10.5 -39v-11q0 -28 -10.5 -38.5t-38.5 -10.5h-10zM666 -29q-244 0 -377 134.5t-133 371.5v502q0 237 131.5 370.5t378.5 133.5q215 0 331.5 -88t165.5 -269q10 -26 -14 -32l-41 -13q-25 -8 -33 15
q-42 156 -135.5 227.5t-271.5 71.5q-204 0 -310 -109.5t-106 -304.5v-506q0 -195 106.5 -304.5t307.5 -109.5q179 0 272.5 75t138.5 231q8 26 33 18l43 -14q24 -9 16 -35q-57 -184 -172 -274.5t-331 -90.5z" />
    <glyph glyph-name="Cdotaccent" unicode="&#x10b;" horiz-adv-x="1280" 
d="M664 1630q-28 0 -38 10t-10 39v11q0 29 10 39t38 10h10q28 0 38.5 -10t10.5 -39v-11q0 -28 -10.5 -38.5t-38.5 -10.5h-10zM666 -29q-244 0 -377 134.5t-133 371.5v502q0 237 131.5 370.5t378.5 133.5q215 0 331.5 -88t165.5 -269q10 -26 -14 -32l-41 -13q-25 -8 -33 15
q-42 156 -135.5 227.5t-271.5 71.5q-204 0 -310 -109.5t-106 -304.5v-506q0 -195 106.5 -304.5t307.5 -109.5q179 0 272.5 75t138.5 231q8 26 33 18l43 -14q24 -9 16 -35q-57 -184 -172 -274.5t-331 -90.5z" />
    <glyph glyph-name="Ccaron" unicode="&#x10c;" horiz-adv-x="1280" 
d="M666 1554q-19 0 -28 4t-24 19l-235 231q-19 19 12 19h37q16 0 22.5 -2.5t16.5 -12.5l199 -194l202 194q12 15 39 15h39q31 0 12 -19l-237 -231q-18 -17 -24.5 -20t-22.5 -3h-8zM666 -29q-244 0 -377 134.5t-133 371.5v502q0 237 131.5 370.5t378.5 133.5q215 0 331.5 -88
t165.5 -269q10 -26 -14 -32l-41 -13q-25 -8 -33 15q-42 156 -135.5 227.5t-271.5 71.5q-204 0 -310 -109.5t-106 -304.5v-506q0 -195 106.5 -304.5t307.5 -109.5q179 0 272.5 75t138.5 231q8 26 33 18l43 -14q24 -9 16 -35q-57 -184 -172 -274.5t-331 -90.5z" />
    <glyph glyph-name="Ccaron" unicode="&#x10d;" horiz-adv-x="1280" 
d="M666 1554q-19 0 -28 4t-24 19l-235 231q-19 19 12 19h37q16 0 22.5 -2.5t16.5 -12.5l199 -194l202 194q12 15 39 15h39q31 0 12 -19l-237 -231q-18 -17 -24.5 -20t-22.5 -3h-8zM666 -29q-244 0 -377 134.5t-133 371.5v502q0 237 131.5 370.5t378.5 133.5q215 0 331.5 -88
t165.5 -269q10 -26 -14 -32l-41 -13q-25 -8 -33 15q-42 156 -135.5 227.5t-271.5 71.5q-204 0 -310 -109.5t-106 -304.5v-506q0 -195 106.5 -304.5t307.5 -109.5q179 0 272.5 75t138.5 231q8 26 33 18l43 -14q24 -9 16 -35q-57 -184 -172 -274.5t-331 -90.5z" />
    <glyph glyph-name="Dcaron" unicode="&#x10e;" horiz-adv-x="1304" 
d="M625 1554q-19 0 -28 4t-24 19l-235 231q-19 19 12 19h37q16 0 22.5 -2.5t16.5 -12.5l199 -194l202 194q13 15 39 15h39q32 0 13 -19l-238 -231q-18 -17 -25 -20t-22 -3h-8zM225 0q-13 0 -18.5 6t-5.5 21v1400q0 15 5.5 21t18.5 6h385q261 0 404 -144t143 -397v-372
q0 -253 -143 -397t-404 -144h-385zM612 88q217 0 334 119t117 334v372q0 215 -116.5 334t-334.5 119h-317v-1278h317z" />
    <glyph glyph-name="Dcaron" unicode="&#x10f;" horiz-adv-x="1304" 
d="M625 1554q-19 0 -28 4t-24 19l-235 231q-19 19 12 19h37q16 0 22.5 -2.5t16.5 -12.5l199 -194l202 194q13 15 39 15h39q32 0 13 -19l-238 -231q-18 -17 -25 -20t-22 -3h-8zM225 0q-13 0 -18.5 6t-5.5 21v1400q0 15 5.5 21t18.5 6h385q261 0 404 -144t143 -397v-372
q0 -253 -143 -397t-404 -144h-385zM612 88q217 0 334 119t117 334v372q0 215 -116.5 334t-334.5 119h-317v-1278h317z" />
    <glyph glyph-name="Dcroat" unicode="&#x110;" horiz-adv-x="1300" 
d="M219 0q-13 0 -18.5 6t-5.5 21v667h-140q-20 0 -20 19v32q0 21 20 21h140v661q0 15 5.5 21t18.5 6h387q261 0 404 -144t143 -397v-372q0 -253 -143 -397t-404 -144h-387zM608 88q217 0 333 119t116 334v372q0 215 -116 334t-333 119h-317v-600h334q10 0 14 -4.5t4 -16.5
v-32q0 -19 -18 -19h-334v-606h317z" />
    <glyph glyph-name="Dcroat" unicode="&#x111;" horiz-adv-x="1300" 
d="M219 0q-13 0 -18.5 6t-5.5 21v667h-140q-20 0 -20 19v32q0 21 20 21h140v661q0 15 5.5 21t18.5 6h387q261 0 404 -144t143 -397v-372q0 -253 -143 -397t-404 -144h-387zM608 88q217 0 333 119t116 334v372q0 215 -116 334t-333 119h-317v-600h334q10 0 14 -4.5t4 -16.5
v-32q0 -19 -18 -19h-334v-606h317z" />
    <glyph glyph-name="Emacron" unicode="&#x112;" horiz-adv-x="1148" 
d="M379 1651q-13 0 -18 5t-5 19v21q0 13 5 17.5t18 4.5h455q14 0 18 -4t4 -18v-21q0 -14 -4.5 -19t-17.5 -5h-455zM225 0q-13 0 -18.5 6t-5.5 21v1400q0 15 5.5 21t18.5 6h760q25 0 25 -27v-36q0 -25 -25 -25h-690v-584h608q25 0 25 -26v-37q0 -27 -25 -27h-608v-604h715
q24 0 24 -25v-36q0 -15 -5.5 -21t-18.5 -6h-785z" />
    <glyph glyph-name="Emacron" unicode="&#x113;" horiz-adv-x="1148" 
d="M379 1651q-13 0 -18 5t-5 19v21q0 13 5 17.5t18 4.5h455q14 0 18 -4t4 -18v-21q0 -14 -4.5 -19t-17.5 -5h-455zM225 0q-13 0 -18.5 6t-5.5 21v1400q0 15 5.5 21t18.5 6h760q25 0 25 -27v-36q0 -25 -25 -25h-690v-584h608q25 0 25 -26v-37q0 -27 -25 -27h-608v-604h715
q24 0 24 -25v-36q0 -15 -5.5 -21t-18.5 -6h-785z" />
    <glyph glyph-name="Ebreve" unicode="&#x114;" horiz-adv-x="1148" 
d="M606 1563q-107 0 -172 55.5t-104 171.5q-5 19 12 25l31 10q19 5 24 -10q32 -96 79.5 -139.5t129.5 -43.5t128 42t79 141q6 13 21 10l36 -10q18 -6 13 -25q-41 -117 -105 -172t-172 -55zM225 0q-13 0 -18.5 6t-5.5 21v1400q0 15 5.5 21t18.5 6h760q25 0 25 -27v-36
q0 -25 -25 -25h-690v-584h608q25 0 25 -26v-37q0 -27 -25 -27h-608v-604h715q24 0 24 -25v-36q0 -15 -5.5 -21t-18.5 -6h-785z" />
    <glyph glyph-name="Ebreve" unicode="&#x115;" horiz-adv-x="1148" 
d="M606 1563q-107 0 -172 55.5t-104 171.5q-5 19 12 25l31 10q19 5 24 -10q32 -96 79.5 -139.5t129.5 -43.5t128 42t79 141q6 13 21 10l36 -10q18 -6 13 -25q-41 -117 -105 -172t-172 -55zM225 0q-13 0 -18.5 6t-5.5 21v1400q0 15 5.5 21t18.5 6h760q25 0 25 -27v-36
q0 -25 -25 -25h-690v-584h608q25 0 25 -26v-37q0 -27 -25 -27h-608v-604h715q24 0 24 -25v-36q0 -15 -5.5 -21t-18.5 -6h-785z" />
    <glyph glyph-name="Edotaccent" unicode="&#x116;" horiz-adv-x="1148" 
d="M600 1630q-28 0 -37.5 10t-9.5 39v11q0 29 9.5 39t37.5 10h10q28 0 38.5 -10t10.5 -39v-11q0 -28 -10.5 -38.5t-38.5 -10.5h-10zM225 0q-13 0 -18.5 6t-5.5 21v1400q0 15 5.5 21t18.5 6h760q25 0 25 -27v-36q0 -25 -25 -25h-690v-584h608q25 0 25 -26v-37q0 -27 -25 -27
h-608v-604h715q24 0 24 -25v-36q0 -15 -5.5 -21t-18.5 -6h-785z" />
    <glyph glyph-name="Edotaccent" unicode="&#x117;" horiz-adv-x="1148" 
d="M600 1630q-28 0 -37.5 10t-9.5 39v11q0 29 9.5 39t37.5 10h10q28 0 38.5 -10t10.5 -39v-11q0 -28 -10.5 -38.5t-38.5 -10.5h-10zM225 0q-13 0 -18.5 6t-5.5 21v1400q0 15 5.5 21t18.5 6h760q25 0 25 -27v-36q0 -25 -25 -25h-690v-584h608q25 0 25 -26v-37q0 -27 -25 -27
h-608v-604h715q24 0 24 -25v-36q0 -15 -5.5 -21t-18.5 -6h-785z" />
    <glyph glyph-name="Eogonek" unicode="&#x118;" horiz-adv-x="1148" 
d="M893 -506q-106 0 -137 96q-46 147 196 410h-727q-13 0 -18.5 6t-5.5 21v1400q0 15 5.5 21t18.5 6h760q25 0 25 -27v-36q0 -25 -25 -25h-690v-584h608q25 0 25 -26v-37q0 -27 -25 -27h-608v-604h715q24 0 24 -25v-36q0 -17 -6 -23q-110 -114 -163 -216t-31 -163
q19 -61 81 -61q56 0 109 59q11 7 16 -6l13 -31q5 -11 -4 -20q-72 -72 -156 -72z" />
    <glyph glyph-name="Eogonek" unicode="&#x119;" horiz-adv-x="1148" 
d="M893 -506q-106 0 -137 96q-46 147 196 410h-727q-13 0 -18.5 6t-5.5 21v1400q0 15 5.5 21t18.5 6h760q25 0 25 -27v-36q0 -25 -25 -25h-690v-584h608q25 0 25 -26v-37q0 -27 -25 -27h-608v-604h715q24 0 24 -25v-36q0 -17 -6 -23q-110 -114 -163 -216t-31 -163
q19 -61 81 -61q56 0 109 59q11 7 16 -6l13 -31q5 -11 -4 -20q-72 -72 -156 -72z" />
    <glyph glyph-name="Ecaron" unicode="&#x11a;" horiz-adv-x="1148" 
d="M604 1554q-19 0 -27.5 4t-23.5 19l-236 231q-19 19 13 19h37q16 0 22.5 -2.5t16.5 -12.5l198 -194l203 194q13 15 39 15h39q31 0 12 -19l-238 -231q-18 -17 -24.5 -20t-22.5 -3h-8zM225 0q-13 0 -18.5 6t-5.5 21v1400q0 15 5.5 21t18.5 6h760q25 0 25 -27v-36
q0 -25 -25 -25h-690v-584h608q25 0 25 -26v-37q0 -27 -25 -27h-608v-604h715q24 0 24 -25v-36q0 -15 -5.5 -21t-18.5 -6h-785z" />
    <glyph glyph-name="Ecaron" unicode="&#x11b;" horiz-adv-x="1148" 
d="M604 1554q-19 0 -27.5 4t-23.5 19l-236 231q-19 19 13 19h37q16 0 22.5 -2.5t16.5 -12.5l198 -194l203 194q13 15 39 15h39q31 0 12 -19l-238 -231q-18 -17 -24.5 -20t-22.5 -3h-8zM225 0q-13 0 -18.5 6t-5.5 21v1400q0 15 5.5 21t18.5 6h760q25 0 25 -27v-36
q0 -25 -25 -25h-690v-584h608q25 0 25 -26v-37q0 -27 -25 -27h-608v-604h715q24 0 24 -25v-36q0 -15 -5.5 -21t-18.5 -6h-785z" />
    <glyph glyph-name="Gcircumflex" unicode="&#x11c;" horiz-adv-x="1314" 
d="M389 1577q-32 0 -14 18l237 232q17 15 25 18.5t27 3.5h8h13.5t9.5 -2t11.5 -6.5t14.5 -13.5l235 -232q18 -18 -14 -18h-37q-29 0 -41 14l-198 195l-203 -195q-12 -14 -37 -14h-37zM668 -29q-247 0 -379.5 135t-132.5 373v500q0 237 132 370.5t380 133.5
q213 0 329.5 -88.5t165.5 -268.5q8 -25 -16 -34l-41 -13q-25 -8 -33 17q-42 156 -135.5 227.5t-269.5 71.5q-206 0 -311 -109t-105 -305v-502q0 -199 106.5 -309.5t309.5 -110.5q202 0 309.5 106.5t107.5 297.5v184h-401q-25 0 -25 25v37q0 15 5.5 20.5t19.5 5.5h467
q15 0 21 -5.5t6 -22.5v-242q0 -228 -133 -361t-377 -133z" />
    <glyph glyph-name="Gcircumflex" unicode="&#x11d;" horiz-adv-x="1314" 
d="M389 1577q-32 0 -14 18l237 232q17 15 25 18.5t27 3.5h8h13.5t9.5 -2t11.5 -6.5t14.5 -13.5l235 -232q18 -18 -14 -18h-37q-29 0 -41 14l-198 195l-203 -195q-12 -14 -37 -14h-37zM668 -29q-247 0 -379.5 135t-132.5 373v500q0 237 132 370.5t380 133.5
q213 0 329.5 -88.5t165.5 -268.5q8 -25 -16 -34l-41 -13q-25 -8 -33 17q-42 156 -135.5 227.5t-269.5 71.5q-206 0 -311 -109t-105 -305v-502q0 -199 106.5 -309.5t309.5 -110.5q202 0 309.5 106.5t107.5 297.5v184h-401q-25 0 -25 25v37q0 15 5.5 20.5t19.5 5.5h467
q15 0 21 -5.5t6 -22.5v-242q0 -228 -133 -361t-377 -133z" />
    <glyph glyph-name="Gbreve" unicode="&#x11e;" horiz-adv-x="1314" 
d="M668 1583q-107 0 -172.5 55.5t-104.5 171.5q-5 19 12 25l31 10q20 6 25 -10q32 -95 79.5 -138.5t129.5 -43.5t127.5 41.5t78.5 140.5q6 13 21 10l37 -10q17 -6 12 -25q-41 -117 -105 -172t-171 -55zM668 -29q-247 0 -379.5 135t-132.5 373v500q0 237 132 370.5t380 133.5
q213 0 329.5 -88.5t165.5 -268.5q8 -25 -16 -34l-41 -13q-25 -8 -33 17q-42 156 -135.5 227.5t-269.5 71.5q-206 0 -311 -109t-105 -305v-502q0 -199 106.5 -309.5t309.5 -110.5q202 0 309.5 106.5t107.5 297.5v184h-401q-25 0 -25 25v37q0 15 5.5 20.5t19.5 5.5h467
q15 0 21 -5.5t6 -22.5v-242q0 -228 -133 -361t-377 -133z" />
    <glyph glyph-name="Gbreve" unicode="&#x11f;" horiz-adv-x="1314" 
d="M668 1583q-107 0 -172.5 55.5t-104.5 171.5q-5 19 12 25l31 10q20 6 25 -10q32 -95 79.5 -138.5t129.5 -43.5t127.5 41.5t78.5 140.5q6 13 21 10l37 -10q17 -6 12 -25q-41 -117 -105 -172t-171 -55zM668 -29q-247 0 -379.5 135t-132.5 373v500q0 237 132 370.5t380 133.5
q213 0 329.5 -88.5t165.5 -268.5q8 -25 -16 -34l-41 -13q-25 -8 -33 17q-42 156 -135.5 227.5t-269.5 71.5q-206 0 -311 -109t-105 -305v-502q0 -199 106.5 -309.5t309.5 -110.5q202 0 309.5 106.5t107.5 297.5v184h-401q-25 0 -25 25v37q0 15 5.5 20.5t19.5 5.5h467
q15 0 21 -5.5t6 -22.5v-242q0 -228 -133 -361t-377 -133z" />
    <glyph glyph-name="Gdotaccent" unicode="&#x120;" horiz-adv-x="1314" 
d="M662 1651q-28 0 -38 10t-10 39v10q0 29 10 39t38 10h10q28 0 38.5 -10t10.5 -39v-10q0 -28 -10.5 -38.5t-38.5 -10.5h-10zM668 -29q-247 0 -379.5 135t-132.5 373v500q0 237 132 370.5t380 133.5q213 0 329.5 -88.5t165.5 -268.5q8 -25 -16 -34l-41 -13q-25 -8 -33 17
q-42 156 -135.5 227.5t-269.5 71.5q-206 0 -311 -109t-105 -305v-502q0 -199 106.5 -309.5t309.5 -110.5q202 0 309.5 106.5t107.5 297.5v184h-401q-25 0 -25 25v37q0 15 5.5 20.5t19.5 5.5h467q15 0 21 -5.5t6 -22.5v-242q0 -228 -133 -361t-377 -133z" />
    <glyph glyph-name="Gdotaccent" unicode="&#x121;" horiz-adv-x="1314" 
d="M662 1651q-28 0 -38 10t-10 39v10q0 29 10 39t38 10h10q28 0 38.5 -10t10.5 -39v-10q0 -28 -10.5 -38.5t-38.5 -10.5h-10zM668 -29q-247 0 -379.5 135t-132.5 373v500q0 237 132 370.5t380 133.5q213 0 329.5 -88.5t165.5 -268.5q8 -25 -16 -34l-41 -13q-25 -8 -33 17
q-42 156 -135.5 227.5t-269.5 71.5q-206 0 -311 -109t-105 -305v-502q0 -199 106.5 -309.5t309.5 -110.5q202 0 309.5 106.5t107.5 297.5v184h-401q-25 0 -25 25v37q0 15 5.5 20.5t19.5 5.5h467q15 0 21 -5.5t6 -22.5v-242q0 -228 -133 -361t-377 -133z" />
    <glyph glyph-name="uni0122" unicode="&#x122;" horiz-adv-x="1314" 
d="M668 -29q-247 0 -379.5 135t-132.5 373v500q0 237 132 370.5t380 133.5q213 0 329.5 -88.5t165.5 -268.5q8 -25 -16 -34l-41 -13q-25 -8 -33 17q-42 156 -135.5 227.5t-269.5 71.5q-206 0 -311 -109t-105 -305v-502q0 -199 106.5 -309.5t309.5 -110.5q202 0 309.5 106.5
t107.5 297.5v184h-401q-25 0 -25 25v37q0 15 5.5 20.5t19.5 5.5h467q15 0 21 -5.5t6 -22.5v-242q0 -228 -133 -361t-377 -133zM569 -504q-21 0 -18 21l82 299q1 14 8 19t23 5h36q32 0 23 -26l-96 -293q-8 -25 -31 -25h-27z" />
    <glyph glyph-name="uni0122" unicode="&#x123;" horiz-adv-x="1314" 
d="M668 -29q-247 0 -379.5 135t-132.5 373v500q0 237 132 370.5t380 133.5q213 0 329.5 -88.5t165.5 -268.5q8 -25 -16 -34l-41 -13q-25 -8 -33 17q-42 156 -135.5 227.5t-269.5 71.5q-206 0 -311 -109t-105 -305v-502q0 -199 106.5 -309.5t309.5 -110.5q202 0 309.5 106.5
t107.5 297.5v184h-401q-25 0 -25 25v37q0 15 5.5 20.5t19.5 5.5h467q15 0 21 -5.5t6 -22.5v-242q0 -228 -133 -361t-377 -133zM569 -504q-21 0 -18 21l82 299q1 14 8 19t23 5h36q32 0 23 -26l-96 -293q-8 -25 -31 -25h-27z" />
    <glyph glyph-name="Hcircumflex" unicode="&#x124;" horiz-adv-x="1372" 
d="M410 1556q-16 0 -19.5 6t4.5 13l238 231q18 16 25.5 19.5t25.5 3.5h8q16 0 24.5 -3.5t24.5 -19.5l236 -231q19 -19 -14 -19h-37q-28 0 -41 15l-199 194l-203 -194q-12 -15 -37 -15h-36zM225 0q-13 0 -18.5 6t-5.5 21v1400q0 15 5.5 21t18.5 6h45q25 0 25 -27v-645h782
v645q0 27 25 27h47q25 0 25 -27v-1400q0 -27 -25 -27h-47q-25 0 -25 27v665h-782v-665q0 -27 -25 -27h-45z" />
    <glyph glyph-name="Hcircumflex" unicode="&#x125;" horiz-adv-x="1372" 
d="M410 1556q-16 0 -19.5 6t4.5 13l238 231q18 16 25.5 19.5t25.5 3.5h8q16 0 24.5 -3.5t24.5 -19.5l236 -231q19 -19 -14 -19h-37q-28 0 -41 15l-199 194l-203 -194q-12 -15 -37 -15h-36zM225 0q-13 0 -18.5 6t-5.5 21v1400q0 15 5.5 21t18.5 6h45q25 0 25 -27v-645h782
v645q0 27 25 27h47q25 0 25 -27v-1400q0 -27 -25 -27h-47q-25 0 -25 27v665h-782v-665q0 -27 -25 -27h-45z" />
    <glyph glyph-name="Hbar" unicode="&#x126;" horiz-adv-x="1376" 
d="M225 0q-13 0 -18.5 6t-5.5 21v1106h-131q-11 0 -15 4t-4 16v23q0 20 19 20h131v231q0 15 5.5 21t18.5 6h47q25 0 25 -27v-231h782v231q0 27 25 27h45q25 0 25 -27v-231h135q18 0 18 -20v-23q0 -12 -3.5 -16t-14.5 -4h-135v-1106q0 -27 -25 -27h-45q-25 0 -25 27v665h-782
v-665q0 -27 -25 -27h-47zM1079 782v351h-782v-351h782z" />
    <glyph glyph-name="Hbar" unicode="&#x127;" horiz-adv-x="1376" 
d="M225 0q-13 0 -18.5 6t-5.5 21v1106h-131q-11 0 -15 4t-4 16v23q0 20 19 20h131v231q0 15 5.5 21t18.5 6h47q25 0 25 -27v-231h782v231q0 27 25 27h45q25 0 25 -27v-231h135q18 0 18 -20v-23q0 -12 -3.5 -16t-14.5 -4h-135v-1106q0 -27 -25 -27h-45q-25 0 -25 27v665h-782
v-665q0 -27 -25 -27h-47zM1079 782v351h-782v-351h782z" />
    <glyph glyph-name="Itilde" unicode="&#x128;" horiz-adv-x="495" 
d="M-20 1585q-17 0 -17 19q0 91 38 141.5t103 50.5q37 0 69 -15t55.5 -37t45.5 -43.5t49 -36.5t56 -15q42 0 64 35t22 94q0 18 16 18h27q18 0 18 -18q0 -92 -36.5 -142.5t-106.5 -50.5q-36 0 -67 15t-54 37t-45 44t-48.5 37t-55.5 15q-41 0 -64.5 -35t-23.5 -94
q0 -19 -17 -19h-28zM223 0q-22 0 -22 25v1407q0 22 22 22h49q23 0 23 -22v-1407q0 -25 -23 -25h-49z" />
    <glyph glyph-name="Itilde" unicode="&#x129;" horiz-adv-x="495" 
d="M-20 1585q-17 0 -17 19q0 91 38 141.5t103 50.5q37 0 69 -15t55.5 -37t45.5 -43.5t49 -36.5t56 -15q42 0 64 35t22 94q0 18 16 18h27q18 0 18 -18q0 -92 -36.5 -142.5t-106.5 -50.5q-36 0 -67 15t-54 37t-45 44t-48.5 37t-55.5 15q-41 0 -64.5 -35t-23.5 -94
q0 -19 -17 -19h-28zM223 0q-22 0 -22 25v1407q0 22 22 22h49q23 0 23 -22v-1407q0 -25 -23 -25h-49z" />
    <glyph glyph-name="Imacron" unicode="&#x12a;" horiz-adv-x="495" 
d="M20 1651q-13 0 -17.5 5t-4.5 19v21q0 13 5 17.5t17 4.5h455q14 0 18.5 -4.5t4.5 -17.5v-21q0 -14 -5 -19t-18 -5h-455zM223 0q-22 0 -22 25v1407q0 22 22 22h49q23 0 23 -22v-1407q0 -25 -23 -25h-49z" />
    <glyph glyph-name="Imacron" unicode="&#x12b;" horiz-adv-x="495" 
d="M20 1651q-13 0 -17.5 5t-4.5 19v21q0 13 5 17.5t17 4.5h455q14 0 18.5 -4.5t4.5 -17.5v-21q0 -14 -5 -19t-18 -5h-455zM223 0q-22 0 -22 25v1407q0 22 22 22h49q23 0 23 -22v-1407q0 -25 -23 -25h-49z" />
    <glyph glyph-name="Ibreve" unicode="&#x12c;" horiz-adv-x="495" 
d="M248 1563q-107 0 -172.5 55.5t-104.5 171.5q-5 19 13 25l30 10q20 6 25 -10q32 -96 79.5 -139.5t129.5 -43.5t128 42t79 141q6 13 20 10l37 -10q17 -6 12 -25q-41 -117 -105 -172t-171 -55zM223 0q-22 0 -22 25v1407q0 22 22 22h49q23 0 23 -22v-1407q0 -25 -23 -25h-49z
" />
    <glyph glyph-name="Ibreve" unicode="&#x12d;" horiz-adv-x="495" 
d="M248 1563q-107 0 -172.5 55.5t-104.5 171.5q-5 19 13 25l30 10q20 6 25 -10q32 -96 79.5 -139.5t129.5 -43.5t128 42t79 141q6 13 20 10l37 -10q17 -6 12 -25q-41 -117 -105 -172t-171 -55zM223 0q-22 0 -22 25v1407q0 22 22 22h49q23 0 23 -22v-1407q0 -25 -23 -25h-49z
" />
    <glyph glyph-name="Iogonek" unicode="&#x12e;" horiz-adv-x="495" 
d="M233 -506q-114 0 -145 96q-53 157 135 414q-22 0 -22 25v1398q0 15 5.5 21t18.5 6h45q25 0 25 -27v-1400q0 -14 -6 -23q-173 -246 -123 -377q10 -31 36.5 -46t57.5 -15q75 0 129 57q12 8 17 -6l10 -29q5 -13 -2 -20q-77 -74 -181 -74z" />
    <glyph glyph-name="Iogonek" unicode="&#x12f;" horiz-adv-x="495" 
d="M233 -506q-114 0 -145 96q-53 157 135 414q-22 0 -22 25v1398q0 15 5.5 21t18.5 6h45q25 0 25 -27v-1400q0 -14 -6 -23q-173 -246 -123 -377q10 -31 36.5 -46t57.5 -15q75 0 129 57q12 8 17 -6l10 -29q5 -13 -2 -20q-77 -74 -181 -74z" />
    <glyph glyph-name="Idotaccent" unicode="&#x130;" horiz-adv-x="495" 
d="M242 1630q-28 0 -37.5 10t-9.5 39v11q0 29 9.5 39t37.5 10h10q28 0 38.5 -10t10.5 -39v-11q0 -28 -10.5 -38.5t-38.5 -10.5h-10zM223 0q-22 0 -22 25v1407q0 22 22 22h49q23 0 23 -22v-1407q0 -25 -23 -25h-49z" />
    <glyph glyph-name="IJ" unicode="&#x132;" horiz-adv-x="1579" 
d="M223 0q-22 0 -22 25v1407q0 22 22 22h49q23 0 23 -22v-1407q0 -25 -23 -25h-49zM946 -29q-362 0 -434 404q-9 27 16 35l39 14q27 6 33 -21q29 -171 112 -256.5t236 -85.5q167 0 255.5 102t88.5 283v984q0 24 25 24h47q25 0 25 -24v-984q0 -221 -115.5 -348t-327.5 -127z
" />
    <glyph glyph-name="IJ" unicode="&#x133;" horiz-adv-x="1579" 
d="M223 0q-22 0 -22 25v1407q0 22 22 22h49q23 0 23 -22v-1407q0 -25 -23 -25h-49zM946 -29q-362 0 -434 404q-9 27 16 35l39 14q27 6 33 -21q29 -171 112 -256.5t236 -85.5q167 0 255.5 102t88.5 283v984q0 24 25 24h47q25 0 25 -24v-984q0 -221 -115.5 -348t-327.5 -127z
" />
    <glyph glyph-name="Jcircumflex" unicode="&#x134;" horiz-adv-x="1142" 
d="M629 1556q-16 0 -19.5 6t4.5 13l238 231q18 16 25.5 19.5t25.5 3.5h8q17 0 25.5 -3.5t24.5 -19.5l235 -231q19 -19 -14 -19h-37q-28 0 -41 15l-199 194l-203 -194q-12 -15 -36 -15h-37zM512 -29q-362 0 -434 404q-9 27 16 35l39 12q27 9 33 -21q29 -169 112 -254.5
t236 -85.5q167 0 255.5 101t88.5 282v986q0 24 25 24h47q14 0 19 -5t5 -19v-984q0 -221 -115 -348t-327 -127z" />
    <glyph glyph-name="Jcircumflex" unicode="&#x135;" horiz-adv-x="1142" 
d="M629 1556q-16 0 -19.5 6t4.5 13l238 231q18 16 25.5 19.5t25.5 3.5h8q17 0 25.5 -3.5t24.5 -19.5l235 -231q19 -19 -14 -19h-37q-28 0 -41 15l-199 194l-203 -194q-12 -15 -36 -15h-37zM512 -29q-362 0 -434 404q-9 27 16 35l39 12q27 9 33 -21q29 -169 112 -254.5
t236 -85.5q167 0 255.5 101t88.5 282v986q0 24 25 24h47q14 0 19 -5t5 -19v-984q0 -221 -115 -348t-327 -127z" />
    <glyph glyph-name="uni0136" unicode="&#x136;" horiz-adv-x="1210" 
d="M225 0q-13 0 -18.5 6t-5.5 21v1400q0 15 5.5 21t18.5 6h45q25 0 25 -27v-647h287l426 652q9 14 17 18t28 4h51q13 0 16.5 -8t-2.5 -19l-444 -665q79 -21 130.5 -74.5t96.5 -150.5l236 -510q7 -11 2 -19t-19 -8h-45q-20 0 -27.5 4.5t-13.5 18.5l-217 477
q-48 105 -107.5 149.5t-168.5 44.5h-246v-667q0 -27 -25 -27h-45zM561 -504q-21 0 -18 21l82 299q1 14 7.5 19t22.5 5h37q32 0 23 -26l-97 -293q-8 -25 -30 -25h-27z" />
    <glyph glyph-name="uni0136" unicode="&#x137;" horiz-adv-x="1210" 
d="M225 0q-13 0 -18.5 6t-5.5 21v1400q0 15 5.5 21t18.5 6h45q25 0 25 -27v-647h287l426 652q9 14 17 18t28 4h51q13 0 16.5 -8t-2.5 -19l-444 -665q79 -21 130.5 -74.5t96.5 -150.5l236 -510q7 -11 2 -19t-19 -8h-45q-20 0 -27.5 4.5t-13.5 18.5l-217 477
q-48 105 -107.5 149.5t-168.5 44.5h-246v-667q0 -27 -25 -27h-45zM561 -504q-21 0 -18 21l82 299q1 14 7.5 19t22.5 5h37q32 0 23 -26l-97 -293q-8 -25 -30 -25h-27z" />
    <glyph glyph-name="Lacute" unicode="&#x139;" horiz-adv-x="1042" 
d="M121 1563q-23 -12 -35 0l-12 16q-15 18 4 31l282 215q28 16 43 -2l23 -23q17 -19 -4 -31zM223 0q-22 0 -22 27v1400q0 27 22 27h47q25 0 25 -27v-1339h666q22 0 22 -25v-36q0 -27 -22 -27h-738z" />
    <glyph glyph-name="Lacute" unicode="&#x13a;" horiz-adv-x="1042" 
d="M121 1563q-23 -12 -35 0l-12 16q-15 18 4 31l282 215q28 16 43 -2l23 -23q17 -19 -4 -31zM223 0q-22 0 -22 27v1400q0 27 22 27h47q25 0 25 -27v-1339h666q22 0 22 -25v-36q0 -27 -22 -27h-738z" />
    <glyph glyph-name="uni013B" unicode="&#x13b;" horiz-adv-x="1042" 
d="M223 0q-22 0 -22 27v1400q0 27 22 27h47q25 0 25 -27v-1339h666q22 0 22 -25v-36q0 -27 -22 -27h-738zM489 -504q-21 0 -18 21l82 299q1 14 8 19t23 5h37q31 0 22 -26l-96 -293q-8 -25 -31 -25h-27z" />
    <glyph glyph-name="uni013B" unicode="&#x13c;" horiz-adv-x="1042" 
d="M223 0q-22 0 -22 27v1400q0 27 22 27h47q25 0 25 -27v-1339h666q22 0 22 -25v-36q0 -27 -22 -27h-738zM489 -504q-21 0 -18 21l82 299q1 14 8 19t23 5h37q31 0 22 -26l-96 -293q-8 -25 -31 -25h-27z" />
    <glyph glyph-name="Lcaron" unicode="&#x13d;" horiz-adv-x="1042" 
d="M223 0q-13 0 -18.5 6t-5.5 21v1400q0 15 5.5 21t18.5 6h45q25 0 25 -27v-1339h665q13 0 18 -5.5t5 -19.5v-36q0 -15 -5 -21t-18 -6h-735zM725 1030q-12 0 -15 4.5t-1 16.5l82 379q3 15 9 19.5t21 4.5h37q30 0 21 -27l-101 -372q-8 -25 -28 -25h-25z" />
    <glyph glyph-name="Lcaron" unicode="&#x13e;" horiz-adv-x="1042" 
d="M223 0q-13 0 -18.5 6t-5.5 21v1400q0 15 5.5 21t18.5 6h45q25 0 25 -27v-1339h665q13 0 18 -5.5t5 -19.5v-36q0 -15 -5 -21t-18 -6h-735zM725 1030q-12 0 -15 4.5t-1 16.5l82 379q3 15 9 19.5t21 4.5h37q30 0 21 -27l-101 -372q-8 -25 -28 -25h-25z" />
    <glyph glyph-name="Ldot" unicode="&#x13f;" horiz-adv-x="1042" 
d="M223 0q-22 0 -22 27v1400q0 27 22 27h47q25 0 25 -27v-1339h666q22 0 22 -25v-36q0 -27 -22 -27h-738zM696 659q-33 0 -46 12t-13 48v10q0 34 12.5 46.5t46.5 12.5h11q33 0 46 -13t13 -46v-10q0 -33 -13 -46.5t-46 -13.5h-11z" />
    <glyph glyph-name="Ldot" unicode="&#x140;" horiz-adv-x="1042" 
d="M223 0q-22 0 -22 27v1400q0 27 22 27h47q25 0 25 -27v-1339h666q22 0 22 -25v-36q0 -27 -22 -27h-738zM696 659q-33 0 -46 12t-13 48v10q0 34 12.5 46.5t46.5 12.5h11q33 0 46 -13t13 -46v-10q0 -33 -13 -46.5t-46 -13.5h-11z" />
    <glyph glyph-name="Lslash" unicode="&#x141;" horiz-adv-x="1087" 
d="M258 0q-15 0 -21 6t-6 21v583l-163 -88q-17 -9 -27 8l-14 31q-9 17 8 27l196 104v735q0 15 6 21t21 6h41q15 0 21 -6t6 -21v-692l436 230q20 10 29 -9l14 -30q11 -17 -8 -25l-471 -246v-567h675q27 0 27 -25v-36q0 -15 -6 -21t-21 -6h-743z" />
    <glyph glyph-name="Lslash" unicode="&#x142;" horiz-adv-x="1087" 
d="M258 0q-15 0 -21 6t-6 21v583l-163 -88q-17 -9 -27 8l-14 31q-9 17 8 27l196 104v735q0 15 6 21t21 6h41q15 0 21 -6t6 -21v-692l436 230q20 10 29 -9l14 -30q11 -17 -8 -25l-471 -246v-567h675q27 0 27 -25v-36q0 -15 -6 -21t-21 -6h-743z" />
    <glyph glyph-name="Nacute" unicode="&#x143;" horiz-adv-x="1390" 
d="M569 1563q-23 -11 -34 0l-13 16q-15 18 4 31l283 215q28 16 43 -2l22 -23q17 -19 -4 -31zM225 0q-13 0 -18.5 6t-5.5 21v1400q0 15 5.5 21t18.5 6h51q20 0 27 -14l635 -1010q28 -45 54.5 -90.5t66 -117t49.5 -89.5h6q-14 212 -14 373v924q0 14 5 19t19 5h43q25 0 25 -27
v-1400q0 -27 -25 -27h-51q-20 0 -29 16l-653 1037q-31 52 -82.5 147.5t-64.5 118.5h-4q1 -36 5.5 -153t4.5 -185v-954q0 -15 -6 -21t-21 -6h-41z" />
    <glyph glyph-name="Nacute" unicode="&#x144;" horiz-adv-x="1390" 
d="M569 1563q-23 -11 -34 0l-13 16q-15 18 4 31l283 215q28 16 43 -2l22 -23q17 -19 -4 -31zM225 0q-13 0 -18.5 6t-5.5 21v1400q0 15 5.5 21t18.5 6h51q20 0 27 -14l635 -1010q28 -45 54.5 -90.5t66 -117t49.5 -89.5h6q-14 212 -14 373v924q0 14 5 19t19 5h43q25 0 25 -27
v-1400q0 -27 -25 -27h-51q-20 0 -29 16l-653 1037q-31 52 -82.5 147.5t-64.5 118.5h-4q1 -36 5.5 -153t4.5 -185v-954q0 -15 -6 -21t-21 -6h-41z" />
    <glyph glyph-name="uni0145" unicode="&#x145;" horiz-adv-x="1390" 
d="M225 0q-13 0 -18.5 6t-5.5 21v1400q0 15 5.5 21t18.5 6h51q20 0 27 -14l635 -1010q28 -45 54.5 -90.5t66 -117t49.5 -89.5h6q-14 212 -14 373v924q0 14 5 19t19 5h43q25 0 25 -27v-1400q0 -27 -25 -27h-51q-20 0 -29 16l-653 1037q-31 52 -82.5 147.5t-64.5 118.5h-4
q1 -36 5.5 -153t4.5 -185v-954q0 -15 -6 -21t-21 -6h-41zM598 -504q-21 0 -18 21l82 299q1 14 7.5 19t22.5 5h37q32 0 23 -26l-97 -293q-8 -25 -30 -25h-27z" />
    <glyph glyph-name="uni0145" unicode="&#x146;" horiz-adv-x="1390" 
d="M225 0q-13 0 -18.5 6t-5.5 21v1400q0 15 5.5 21t18.5 6h51q20 0 27 -14l635 -1010q28 -45 54.5 -90.5t66 -117t49.5 -89.5h6q-14 212 -14 373v924q0 14 5 19t19 5h43q25 0 25 -27v-1400q0 -27 -25 -27h-51q-20 0 -29 16l-653 1037q-31 52 -82.5 147.5t-64.5 118.5h-4
q1 -36 5.5 -153t4.5 -185v-954q0 -15 -6 -21t-21 -6h-41zM598 -504q-21 0 -18 21l82 299q1 14 7.5 19t22.5 5h37q32 0 23 -26l-97 -293q-8 -25 -30 -25h-27z" />
    <glyph glyph-name="Ncaron" unicode="&#x147;" horiz-adv-x="1390" 
d="M694 1554q-19 0 -27.5 4t-23.5 19l-235 231q-19 19 12 19h37q16 0 22.5 -2.5t16.5 -12.5l198 -194l203 194q12 15 39 15h39q31 0 12 -19l-237 -231q-18 -17 -25 -20t-23 -3h-8zM225 0q-13 0 -18.5 6t-5.5 21v1400q0 15 5.5 21t18.5 6h51q20 0 27 -14l635 -1010
q28 -45 54.5 -90.5t66 -117t49.5 -89.5h6q-14 212 -14 373v924q0 14 5 19t19 5h43q25 0 25 -27v-1400q0 -27 -25 -27h-51q-20 0 -29 16l-653 1037q-31 52 -82.5 147.5t-64.5 118.5h-4q1 -36 5.5 -153t4.5 -185v-954q0 -15 -6 -21t-21 -6h-41z" />
    <glyph glyph-name="Ncaron" unicode="&#x148;" horiz-adv-x="1390" 
d="M694 1554q-19 0 -27.5 4t-23.5 19l-235 231q-19 19 12 19h37q16 0 22.5 -2.5t16.5 -12.5l198 -194l203 194q12 15 39 15h39q31 0 12 -19l-237 -231q-18 -17 -25 -20t-23 -3h-8zM225 0q-13 0 -18.5 6t-5.5 21v1400q0 15 5.5 21t18.5 6h51q20 0 27 -14l635 -1010
q28 -45 54.5 -90.5t66 -117t49.5 -89.5h6q-14 212 -14 373v924q0 14 5 19t19 5h43q25 0 25 -27v-1400q0 -27 -25 -27h-51q-20 0 -29 16l-653 1037q-31 52 -82.5 147.5t-64.5 118.5h-4q1 -36 5.5 -153t4.5 -185v-954q0 -15 -6 -21t-21 -6h-41z" />
    <glyph glyph-name="Eng" unicode="&#x14a;" horiz-adv-x="1390" 
d="M799 -471q-25 0 -25 25v34q0 25 25 25q168 0 233.5 85t65.5 265v41l-664 1049q-31 52 -82.5 147.5t-64.5 118.5h-4q1 -36 5.5 -153t4.5 -185v-954q0 -15 -6 -21t-21 -6h-41q-13 0 -18.5 6t-5.5 21v1400q0 15 5.5 21t18.5 6h51q20 0 27 -14l635 -1010q28 -45 54.5 -90.5
t66 -117t49.5 -89.5h6q-14 212 -14 373v924q0 14 5 19t19 5h43q25 0 25 -27v-1478q-1 -107 -21 -182.5t-65.5 -130t-121 -81t-185.5 -26.5z" />
    <glyph glyph-name="Eng" unicode="&#x14b;" horiz-adv-x="1390" 
d="M799 -471q-25 0 -25 25v34q0 25 25 25q168 0 233.5 85t65.5 265v41l-664 1049q-31 52 -82.5 147.5t-64.5 118.5h-4q1 -36 5.5 -153t4.5 -185v-954q0 -15 -6 -21t-21 -6h-41q-13 0 -18.5 6t-5.5 21v1400q0 15 5.5 21t18.5 6h51q20 0 27 -14l635 -1010q28 -45 54.5 -90.5
t66 -117t49.5 -89.5h6q-14 212 -14 373v924q0 14 5 19t19 5h43q25 0 25 -27v-1478q-1 -107 -21 -182.5t-65.5 -130t-121 -81t-185.5 -26.5z" />
    <glyph glyph-name="Omacron" unicode="&#x14c;" horiz-adv-x="1333" 
d="M440 1671q-13 0 -17.5 5.5t-4.5 19.5v20q0 13 5 18t17 5h455q13 0 18 -4.5t5 -18.5v-20q0 -14 -5 -19.5t-18 -5.5h-455zM668 -29q-247 0 -379.5 134t-132.5 372v500q0 238 132.5 372t379.5 134q246 0 378 -134t132 -372v-500q0 -238 -132 -372t-378 -134zM668 59
q200 0 307.5 110.5t107.5 309.5v496q0 199 -107.5 309.5t-307.5 110.5q-201 0 -308.5 -111t-107.5 -309v-496q0 -198 107.5 -309t308.5 -111z" />
    <glyph glyph-name="Omacron" unicode="&#x14d;" horiz-adv-x="1333" 
d="M440 1671q-13 0 -17.5 5.5t-4.5 19.5v20q0 13 5 18t17 5h455q13 0 18 -4.5t5 -18.5v-20q0 -14 -5 -19.5t-18 -5.5h-455zM668 -29q-247 0 -379.5 134t-132.5 372v500q0 238 132.5 372t379.5 134q246 0 378 -134t132 -372v-500q0 -238 -132 -372t-378 -134zM668 59
q200 0 307.5 110.5t107.5 309.5v496q0 199 -107.5 309.5t-307.5 110.5q-201 0 -308.5 -111t-107.5 -309v-496q0 -198 107.5 -309t308.5 -111z" />
    <glyph glyph-name="Obreve" unicode="&#x14e;" horiz-adv-x="1333" 
d="M670 1583q-107 0 -172.5 55.5t-104.5 171.5q-5 19 13 25l30 10q20 6 25 -10q32 -95 79.5 -138.5t129.5 -43.5t128 41.5t79 140.5q6 13 20 10l37 -10q17 -6 12 -25q-41 -117 -105 -172t-171 -55zM668 -29q-247 0 -379.5 134t-132.5 372v500q0 238 132.5 372t379.5 134
q246 0 378 -134t132 -372v-500q0 -238 -132 -372t-378 -134zM668 59q200 0 307.5 110.5t107.5 309.5v496q0 199 -107.5 309.5t-307.5 110.5q-201 0 -308.5 -111t-107.5 -309v-496q0 -198 107.5 -309t308.5 -111z" />
    <glyph glyph-name="Obreve" unicode="&#x14f;" horiz-adv-x="1333" 
d="M670 1583q-107 0 -172.5 55.5t-104.5 171.5q-5 19 13 25l30 10q20 6 25 -10q32 -95 79.5 -138.5t129.5 -43.5t128 41.5t79 140.5q6 13 20 10l37 -10q17 -6 12 -25q-41 -117 -105 -172t-171 -55zM668 -29q-247 0 -379.5 134t-132.5 372v500q0 238 132.5 372t379.5 134
q246 0 378 -134t132 -372v-500q0 -238 -132 -372t-378 -134zM668 59q200 0 307.5 110.5t107.5 309.5v496q0 199 -107.5 309.5t-307.5 110.5q-201 0 -308.5 -111t-107.5 -309v-496q0 -198 107.5 -309t308.5 -111z" />
    <glyph glyph-name="Ohungarumlaut" unicode="&#x150;" horiz-adv-x="1333" 
d="M426 1585q-21 8 -8 27l182 229q15 25 41 17l29 -11q25 -9 8 -26l-205 -232q-16 -16 -33 -10zM739 1587q-23 6 -8 25l191 227q20 23 43 16l30 -10q27 -10 9 -28l-218 -226q-16 -19 -30 -10zM668 -29q-247 0 -379.5 134t-132.5 372v500q0 238 132.5 372t379.5 134
q246 0 378 -134t132 -372v-500q0 -238 -132 -372t-378 -134zM668 59q200 0 307.5 110.5t107.5 309.5v496q0 199 -107.5 309.5t-307.5 110.5q-201 0 -308.5 -111t-107.5 -309v-496q0 -198 107.5 -309t308.5 -111z" />
    <glyph glyph-name="Ohungarumlaut" unicode="&#x151;" horiz-adv-x="1333" 
d="M426 1585q-21 8 -8 27l182 229q15 25 41 17l29 -11q25 -9 8 -26l-205 -232q-16 -16 -33 -10zM739 1587q-23 6 -8 25l191 227q20 23 43 16l30 -10q27 -10 9 -28l-218 -226q-16 -19 -30 -10zM668 -29q-247 0 -379.5 134t-132.5 372v500q0 238 132.5 372t379.5 134
q246 0 378 -134t132 -372v-500q0 -238 -132 -372t-378 -134zM668 59q200 0 307.5 110.5t107.5 309.5v496q0 199 -107.5 309.5t-307.5 110.5q-201 0 -308.5 -111t-107.5 -309v-496q0 -198 107.5 -309t308.5 -111z" />
    <glyph glyph-name="OE" unicode="&#x152;" horiz-adv-x="1724" 
d="M686 -31q-253 0 -391.5 135.5t-138.5 372.5v500q0 237 138.5 372.5t391.5 135.5q115 0 223 -31h647q25 0 25 -27v-36q0 -25 -25 -25h-583v-586h495q14 0 19.5 -5.5t5.5 -20.5v-37q0 -25 -25 -25h-495v-604h612q25 0 25 -25v-36q0 -27 -25 -27h-674q-114 -31 -225 -31z
M686 57q111 0 195 29v1282q-101 29 -195 29q-208 0 -321 -112t-113 -310v-496q0 -198 113 -310t321 -112z" />
    <glyph glyph-name="OE" unicode="&#x153;" horiz-adv-x="1724" 
d="M686 -31q-253 0 -391.5 135.5t-138.5 372.5v500q0 237 138.5 372.5t391.5 135.5q115 0 223 -31h647q25 0 25 -27v-36q0 -25 -25 -25h-583v-586h495q14 0 19.5 -5.5t5.5 -20.5v-37q0 -25 -25 -25h-495v-604h612q25 0 25 -25v-36q0 -27 -25 -27h-674q-114 -31 -225 -31z
M686 57q111 0 195 29v1282q-101 29 -195 29q-208 0 -321 -112t-113 -310v-496q0 -198 113 -310t321 -112z" />
    <glyph glyph-name="Racute" unicode="&#x154;" horiz-adv-x="1294" 
d="M506 1563q-23 -12 -35 0l-12 16q-15 18 4 31l282 215q28 16 43 -2l23 -23q17 -19 -4 -31zM225 0q-13 0 -18.5 6t-5.5 21v1400q0 15 5.5 21t18.5 6h537q181 0 285 -108t104 -302q0 -175 -89 -276t-245 -113q56 -24 93.5 -65.5t68.5 -108.5l209 -454q6 -11 2.5 -19
t-16.5 -8h-46q-22 0 -30.5 4.5t-14.5 18.5l-192 421q-49 107 -110.5 152t-170.5 45h-315v-614q0 -27 -25 -27h-45zM758 725q138 0 217.5 83.5t79.5 235.5q0 153 -78.5 237.5t-218.5 84.5h-463v-641h463z" />
    <glyph glyph-name="Racute" unicode="&#x155;" horiz-adv-x="1294" 
d="M506 1563q-23 -12 -35 0l-12 16q-15 18 4 31l282 215q28 16 43 -2l23 -23q17 -19 -4 -31zM225 0q-13 0 -18.5 6t-5.5 21v1400q0 15 5.5 21t18.5 6h537q181 0 285 -108t104 -302q0 -175 -89 -276t-245 -113q56 -24 93.5 -65.5t68.5 -108.5l209 -454q6 -11 2.5 -19
t-16.5 -8h-46q-22 0 -30.5 4.5t-14.5 18.5l-192 421q-49 107 -110.5 152t-170.5 45h-315v-614q0 -27 -25 -27h-45zM758 725q138 0 217.5 83.5t79.5 235.5q0 153 -78.5 237.5t-218.5 84.5h-463v-641h463z" />
    <glyph glyph-name="uni0156" unicode="&#x156;" horiz-adv-x="1294" 
d="M225 0q-13 0 -18.5 6t-5.5 21v1400q0 15 5.5 21t18.5 6h537q181 0 285 -108t104 -302q0 -175 -89 -276t-245 -113q56 -24 93.5 -65.5t68.5 -108.5l209 -454q6 -11 2.5 -19t-16.5 -8h-46q-22 0 -30.5 4.5t-14.5 18.5l-192 421q-49 107 -110.5 152t-170.5 45h-315v-614
q0 -27 -25 -27h-45zM758 725q138 0 217.5 83.5t79.5 235.5q0 153 -78.5 237.5t-218.5 84.5h-463v-641h463zM588 -504q-22 0 -19 21l82 299q1 14 8 19t23 5h37q31 0 22 -26l-96 -293q-8 -25 -31 -25h-26z" />
    <glyph glyph-name="uni0156" unicode="&#x157;" horiz-adv-x="1294" 
d="M225 0q-13 0 -18.5 6t-5.5 21v1400q0 15 5.5 21t18.5 6h537q181 0 285 -108t104 -302q0 -175 -89 -276t-245 -113q56 -24 93.5 -65.5t68.5 -108.5l209 -454q6 -11 2.5 -19t-16.5 -8h-46q-22 0 -30.5 4.5t-14.5 18.5l-192 421q-49 107 -110.5 152t-170.5 45h-315v-614
q0 -27 -25 -27h-45zM758 725q138 0 217.5 83.5t79.5 235.5q0 153 -78.5 237.5t-218.5 84.5h-463v-641h463zM588 -504q-22 0 -19 21l82 299q1 14 8 19t23 5h37q31 0 22 -26l-96 -293q-8 -25 -31 -25h-26z" />
    <glyph glyph-name="Rcaron" unicode="&#x158;" horiz-adv-x="1294" 
d="M631 1554q-19 0 -27.5 4t-23.5 19l-236 231q-19 19 12 19h37q16 0 22.5 -2.5t16.5 -12.5l199 -194l203 194q12 15 38 15h39q32 0 13 -19l-238 -231q-18 -17 -25 -20t-22 -3h-8zM225 0q-13 0 -18.5 6t-5.5 21v1400q0 15 5.5 21t18.5 6h537q181 0 285 -108t104 -302
q0 -175 -89 -276t-245 -113q56 -24 93.5 -65.5t68.5 -108.5l209 -454q6 -11 2.5 -19t-16.5 -8h-46q-22 0 -30.5 4.5t-14.5 18.5l-192 421q-49 107 -110.5 152t-170.5 45h-315v-614q0 -27 -25 -27h-45zM758 725q138 0 217.5 83.5t79.5 235.5q0 153 -78.5 237.5t-218.5 84.5
h-463v-641h463z" />
    <glyph glyph-name="Rcaron" unicode="&#x159;" horiz-adv-x="1294" 
d="M631 1554q-19 0 -27.5 4t-23.5 19l-236 231q-19 19 12 19h37q16 0 22.5 -2.5t16.5 -12.5l199 -194l203 194q12 15 38 15h39q32 0 13 -19l-238 -231q-18 -17 -25 -20t-22 -3h-8zM225 0q-13 0 -18.5 6t-5.5 21v1400q0 15 5.5 21t18.5 6h537q181 0 285 -108t104 -302
q0 -175 -89 -276t-245 -113q56 -24 93.5 -65.5t68.5 -108.5l209 -454q6 -11 2.5 -19t-16.5 -8h-46q-22 0 -30.5 4.5t-14.5 18.5l-192 421q-49 107 -110.5 152t-170.5 45h-315v-614q0 -27 -25 -27h-45zM758 725q138 0 217.5 83.5t79.5 235.5q0 153 -78.5 237.5t-218.5 84.5
h-463v-641h463z" />
    <glyph glyph-name="Sacute" unicode="&#x15a;" horiz-adv-x="1257" 
d="M506 1581q-23 -12 -35 0l-12 16q-15 18 4 31l282 215q28 16 43 -2l23 -22q17 -19 -4 -31zM629 -29q-196 0 -320 85t-190 268q-9 26 14 34l43 15q13 5 20 1.5t13 -16.5q59 -156 161 -226.5t259 -70.5q405 0 405 324q0 51 -12 91.5t-30.5 69t-51 51t-61.5 35.5t-76 24
t-80.5 16t-87.5 12q-46 6 -78 11t-76.5 14.5t-76 20t-69.5 27.5t-63.5 37t-51.5 48.5t-42 62.5t-25.5 78t-9.5 96q0 187 127 295.5t351 108.5q188 0 303.5 -74.5t189.5 -239.5q16 -25 -12 -34l-41 -15q-12 -6 -19 -4t-14 14q-62 137 -158 200t-249 63q-181 0 -281 -82
t-100 -230q0 -51 12.5 -92t32 -70t53.5 -52t65.5 -37t79 -25.5t84.5 -17.5t92 -13q58 -7 98.5 -14t93.5 -21.5t89.5 -32t75 -47t61.5 -67t38 -91t15 -118.5q0 -201 -127.5 -306.5t-373.5 -105.5z" />
    <glyph glyph-name="Sacute" unicode="&#x15b;" horiz-adv-x="1257" 
d="M506 1581q-23 -12 -35 0l-12 16q-15 18 4 31l282 215q28 16 43 -2l23 -22q17 -19 -4 -31zM629 -29q-196 0 -320 85t-190 268q-9 26 14 34l43 15q13 5 20 1.5t13 -16.5q59 -156 161 -226.5t259 -70.5q405 0 405 324q0 51 -12 91.5t-30.5 69t-51 51t-61.5 35.5t-76 24
t-80.5 16t-87.5 12q-46 6 -78 11t-76.5 14.5t-76 20t-69.5 27.5t-63.5 37t-51.5 48.5t-42 62.5t-25.5 78t-9.5 96q0 187 127 295.5t351 108.5q188 0 303.5 -74.5t189.5 -239.5q16 -25 -12 -34l-41 -15q-12 -6 -19 -4t-14 14q-62 137 -158 200t-249 63q-181 0 -281 -82
t-100 -230q0 -51 12.5 -92t32 -70t53.5 -52t65.5 -37t79 -25.5t84.5 -17.5t92 -13q58 -7 98.5 -14t93.5 -21.5t89.5 -32t75 -47t61.5 -67t38 -91t15 -118.5q0 -201 -127.5 -306.5t-373.5 -105.5z" />
    <glyph glyph-name="Scircumflex" unicode="&#x15c;" horiz-adv-x="1257" 
d="M356 1575q-32 0 -14 18l238 232q18 15 25.5 18.5t25.5 3.5h8h13.5t9.5 -2t11.5 -6.5t14.5 -13.5l236 -232q18 -18 -15 -18h-37q-29 0 -41 14l-198 195l-203 -195q-12 -14 -37 -14h-37zM629 -29q-196 0 -320 85t-190 268q-9 26 14 34l43 15q13 5 20 1.5t13 -16.5
q59 -156 161 -226.5t259 -70.5q405 0 405 324q0 51 -12 91.5t-30.5 69t-51 51t-61.5 35.5t-76 24t-80.5 16t-87.5 12q-46 6 -78 11t-76.5 14.5t-76 20t-69.5 27.5t-63.5 37t-51.5 48.5t-42 62.5t-25.5 78t-9.5 96q0 187 127 295.5t351 108.5q188 0 303.5 -74.5t189.5 -239.5
q16 -25 -12 -34l-41 -15q-12 -6 -19 -4t-14 14q-62 137 -158 200t-249 63q-181 0 -281 -82t-100 -230q0 -51 12.5 -92t32 -70t53.5 -52t65.5 -37t79 -25.5t84.5 -17.5t92 -13q58 -7 98.5 -14t93.5 -21.5t89.5 -32t75 -47t61.5 -67t38 -91t15 -118.5q0 -201 -127.5 -306.5
t-373.5 -105.5z" />
    <glyph glyph-name="Scircumflex" unicode="&#x15d;" horiz-adv-x="1257" 
d="M356 1575q-32 0 -14 18l238 232q18 15 25.5 18.5t25.5 3.5h8h13.5t9.5 -2t11.5 -6.5t14.5 -13.5l236 -232q18 -18 -15 -18h-37q-29 0 -41 14l-198 195l-203 -195q-12 -14 -37 -14h-37zM629 -29q-196 0 -320 85t-190 268q-9 26 14 34l43 15q13 5 20 1.5t13 -16.5
q59 -156 161 -226.5t259 -70.5q405 0 405 324q0 51 -12 91.5t-30.5 69t-51 51t-61.5 35.5t-76 24t-80.5 16t-87.5 12q-46 6 -78 11t-76.5 14.5t-76 20t-69.5 27.5t-63.5 37t-51.5 48.5t-42 62.5t-25.5 78t-9.5 96q0 187 127 295.5t351 108.5q188 0 303.5 -74.5t189.5 -239.5
q16 -25 -12 -34l-41 -15q-12 -6 -19 -4t-14 14q-62 137 -158 200t-249 63q-181 0 -281 -82t-100 -230q0 -51 12.5 -92t32 -70t53.5 -52t65.5 -37t79 -25.5t84.5 -17.5t92 -13q58 -7 98.5 -14t93.5 -21.5t89.5 -32t75 -47t61.5 -67t38 -91t15 -118.5q0 -201 -127.5 -306.5
t-373.5 -105.5z" />
    <glyph glyph-name="Scedilla" unicode="&#x15e;" horiz-adv-x="1257" 
d="M637 -504q-69 0 -141 45q-17 10 -17 33v27q0 7 3.5 10t11.5 -2q27 -25 56.5 -39t76.5 -14q145 0 145 131q0 48 -34 75t-89 29q-31 0 -63 -12q-13 -3 -19.5 4.5t-1.5 19.5l53 168q-188 1 -309.5 89t-189.5 270q-5 15 -2 23t16 14l43 14q13 5 20 2t13 -18
q62 -157 163.5 -230.5t256.5 -73.5q405 0 405 324q0 51 -12 91.5t-30.5 69t-51 51t-61.5 35.5t-76 24t-80.5 16t-87.5 12q-46 6 -78 11t-76.5 14.5t-76 20t-69.5 27.5t-63.5 37t-51.5 48.5t-42 62.5t-25.5 78t-9.5 96q0 187 127 295.5t351 108.5q188 0 303.5 -74.5
t189.5 -239.5q16 -25 -12 -34l-41 -15q-12 -6 -19 -4t-14 14q-62 137 -158 200t-249 63q-181 0 -281 -82t-100 -230q0 -51 12.5 -92t32 -70t53.5 -52t65.5 -37t79 -25.5t84.5 -17.5t92 -13q58 -7 98.5 -14t93.5 -21.5t89.5 -32t75 -47t61.5 -67t38 -91t15 -118.5
q0 -190 -115 -295t-337 -117l-39 -137q18 6 49 6q72 0 118.5 -44t45.5 -113q-4 -96 -61.5 -141.5t-153.5 -45.5z" />
    <glyph glyph-name="Scedilla" unicode="&#x15f;" horiz-adv-x="1257" 
d="M637 -504q-69 0 -141 45q-17 10 -17 33v27q0 7 3.5 10t11.5 -2q27 -25 56.5 -39t76.5 -14q145 0 145 131q0 48 -34 75t-89 29q-31 0 -63 -12q-13 -3 -19.5 4.5t-1.5 19.5l53 168q-188 1 -309.5 89t-189.5 270q-5 15 -2 23t16 14l43 14q13 5 20 2t13 -18
q62 -157 163.5 -230.5t256.5 -73.5q405 0 405 324q0 51 -12 91.5t-30.5 69t-51 51t-61.5 35.5t-76 24t-80.5 16t-87.5 12q-46 6 -78 11t-76.5 14.5t-76 20t-69.5 27.5t-63.5 37t-51.5 48.5t-42 62.5t-25.5 78t-9.5 96q0 187 127 295.5t351 108.5q188 0 303.5 -74.5
t189.5 -239.5q16 -25 -12 -34l-41 -15q-12 -6 -19 -4t-14 14q-62 137 -158 200t-249 63q-181 0 -281 -82t-100 -230q0 -51 12.5 -92t32 -70t53.5 -52t65.5 -37t79 -25.5t84.5 -17.5t92 -13q58 -7 98.5 -14t93.5 -21.5t89.5 -32t75 -47t61.5 -67t38 -91t15 -118.5
q0 -190 -115 -295t-337 -117l-39 -137q18 6 49 6q72 0 118.5 -44t45.5 -113q-4 -96 -61.5 -141.5t-153.5 -45.5z" />
    <glyph glyph-name="Scaron" unicode="&#x160;" horiz-adv-x="1257" 
d="M631 1573q-19 0 -27.5 3.5t-23.5 18.5l-236 232q-18 18 12 18h37q16 0 22.5 -2t16.5 -12l199 -195l203 195q12 14 38 14h39q31 0 13 -18l-238 -232q-18 -16 -24.5 -19t-22.5 -3h-8zM629 -29q-196 0 -320 85t-190 268q-9 26 14 34l43 15q13 5 20 1.5t13 -16.5
q59 -156 161 -226.5t259 -70.5q405 0 405 324q0 51 -12 91.5t-30.5 69t-51 51t-61.5 35.5t-76 24t-80.5 16t-87.5 12q-46 6 -78 11t-76.5 14.5t-76 20t-69.5 27.5t-63.5 37t-51.5 48.5t-42 62.5t-25.5 78t-9.5 96q0 187 127 295.5t351 108.5q188 0 303.5 -74.5t189.5 -239.5
q16 -25 -12 -34l-41 -15q-12 -6 -19 -4t-14 14q-62 137 -158 200t-249 63q-181 0 -281 -82t-100 -230q0 -51 12.5 -92t32 -70t53.5 -52t65.5 -37t79 -25.5t84.5 -17.5t92 -13q58 -7 98.5 -14t93.5 -21.5t89.5 -32t75 -47t61.5 -67t38 -91t15 -118.5q0 -201 -127.5 -306.5
t-373.5 -105.5z" />
    <glyph glyph-name="Scaron" unicode="&#x161;" horiz-adv-x="1257" 
d="M631 1573q-19 0 -27.5 3.5t-23.5 18.5l-236 232q-18 18 12 18h37q16 0 22.5 -2t16.5 -12l199 -195l203 195q12 14 38 14h39q31 0 13 -18l-238 -232q-18 -16 -24.5 -19t-22.5 -3h-8zM629 -29q-196 0 -320 85t-190 268q-9 26 14 34l43 15q13 5 20 1.5t13 -16.5
q59 -156 161 -226.5t259 -70.5q405 0 405 324q0 51 -12 91.5t-30.5 69t-51 51t-61.5 35.5t-76 24t-80.5 16t-87.5 12q-46 6 -78 11t-76.5 14.5t-76 20t-69.5 27.5t-63.5 37t-51.5 48.5t-42 62.5t-25.5 78t-9.5 96q0 187 127 295.5t351 108.5q188 0 303.5 -74.5t189.5 -239.5
q16 -25 -12 -34l-41 -15q-12 -6 -19 -4t-14 14q-62 137 -158 200t-249 63q-181 0 -281 -82t-100 -230q0 -51 12.5 -92t32 -70t53.5 -52t65.5 -37t79 -25.5t84.5 -17.5t92 -13q58 -7 98.5 -14t93.5 -21.5t89.5 -32t75 -47t61.5 -67t38 -91t15 -118.5q0 -201 -127.5 -306.5
t-373.5 -105.5z" />
    <glyph glyph-name="uni0163" unicode="&#x163;" horiz-adv-x="1081" 
d="M518 0q-24 0 -24 25v1341h-412q-25 0 -25 25v36q0 27 25 27h917q25 0 25 -27v-36q0 -25 -25 -25h-411v-1341q0 -25 -25 -25h-45zM438 -504q-21 0 -18 21l82 299q1 14 7.5 19t22.5 5h37q32 0 23 -26l-96 -293q-8 -25 -31 -25h-27z" />
    <glyph glyph-name="uni0163" unicode="&#x21a;" horiz-adv-x="1081" 
d="M518 0q-24 0 -24 25v1341h-412q-25 0 -25 25v36q0 27 25 27h917q25 0 25 -27v-36q0 -25 -25 -25h-411v-1341q0 -25 -25 -25h-45zM438 -504q-21 0 -18 21l82 299q1 14 7.5 19t22.5 5h37q32 0 23 -26l-96 -293q-8 -25 -31 -25h-27z" />
    <glyph glyph-name="Tcaron" unicode="&#x164;" horiz-adv-x="1081" 
d="M539 1554q-19 0 -28 4t-24 19l-235 231q-19 19 12 19h37q16 0 22.5 -2.5t16.5 -12.5l199 -194l202 194q13 15 39 15h39q31 0 12 -19l-237 -231q-18 -17 -25 -20t-22 -3h-8zM518 0q-24 0 -24 25v1341h-412q-25 0 -25 25v36q0 27 25 27h917q25 0 25 -27v-36q0 -25 -25 -25
h-411v-1341q0 -25 -25 -25h-45z" />
    <glyph glyph-name="Tcaron" unicode="&#x165;" horiz-adv-x="1081" 
d="M539 1554q-19 0 -28 4t-24 19l-235 231q-19 19 12 19h37q16 0 22.5 -2.5t16.5 -12.5l199 -194l202 194q13 15 39 15h39q31 0 12 -19l-237 -231q-18 -17 -25 -20t-22 -3h-8zM518 0q-24 0 -24 25v1341h-412q-25 0 -25 25v36q0 27 25 27h917q25 0 25 -27v-36q0 -25 -25 -25
h-411v-1341q0 -25 -25 -25h-45z" />
    <glyph glyph-name="Tbar" unicode="&#x166;" horiz-adv-x="1079" 
d="M518 0q-24 0 -24 25v616h-283q-12 0 -16.5 4.5t-4.5 16.5v32q0 19 21 19h283v653h-412q-25 0 -25 25v36q0 27 25 27h915q25 0 25 -27v-36q0 -25 -25 -25h-409v-653h282q21 0 21 -19v-32q0 -12 -4.5 -16.5t-16.5 -4.5h-282v-616q0 -25 -25 -25h-45z" />
    <glyph glyph-name="Tbar" unicode="&#x167;" horiz-adv-x="1079" 
d="M518 0q-24 0 -24 25v616h-283q-12 0 -16.5 4.5t-4.5 16.5v32q0 19 21 19h283v653h-412q-25 0 -25 25v36q0 27 25 27h915q25 0 25 -27v-36q0 -25 -25 -25h-409v-653h282q21 0 21 -19v-32q0 -12 -4.5 -16.5t-16.5 -4.5h-282v-616q0 -25 -25 -25h-45z" />
    <glyph glyph-name="Utilde" unicode="&#x168;" horiz-adv-x="1374" 
d="M418 1585q-17 0 -17 19q0 91 38.5 141.5t103.5 50.5q37 0 69 -15t55 -37t45 -43.5t49 -36.5t56 -15q42 0 64 35t22 94q0 18 17 18h26q19 0 19 -18q0 -92 -37 -142.5t-107 -50.5q-36 0 -67 15t-54 37t-45 44t-48.5 37t-55.5 15q-41 0 -64.5 -35t-23.5 -94q0 -19 -17 -19
h-28zM686 -29q-245 0 -371.5 139.5t-126.5 383.5v936q0 24 25 24h45q25 0 25 -24v-936q0 -204 102 -319.5t301 -115.5q200 0 302 115.5t102 319.5v936q0 14 5 19t19 5h47q25 0 25 -24v-936q0 -244 -127.5 -383.5t-372.5 -139.5z" />
    <glyph glyph-name="Utilde" unicode="&#x169;" horiz-adv-x="1374" 
d="M418 1585q-17 0 -17 19q0 91 38.5 141.5t103.5 50.5q37 0 69 -15t55 -37t45 -43.5t49 -36.5t56 -15q42 0 64 35t22 94q0 18 17 18h26q19 0 19 -18q0 -92 -37 -142.5t-107 -50.5q-36 0 -67 15t-54 37t-45 44t-48.5 37t-55.5 15q-41 0 -64.5 -35t-23.5 -94q0 -19 -17 -19
h-28zM686 -29q-245 0 -371.5 139.5t-126.5 383.5v936q0 24 25 24h45q25 0 25 -24v-936q0 -204 102 -319.5t301 -115.5q200 0 302 115.5t102 319.5v936q0 14 5 19t19 5h47q25 0 25 -24v-936q0 -244 -127.5 -383.5t-372.5 -139.5z" />
    <glyph glyph-name="Umacron" unicode="&#x16a;" horiz-adv-x="1374" 
d="M459 1651q-13 0 -18 5t-5 19v21q0 13 5 17.5t18 4.5h454q14 0 18.5 -4.5t4.5 -17.5v-21q0 -14 -5 -19t-18 -5h-454zM686 -29q-245 0 -371.5 139.5t-126.5 383.5v936q0 24 25 24h45q25 0 25 -24v-936q0 -204 102 -319.5t301 -115.5q200 0 302 115.5t102 319.5v936
q0 14 5 19t19 5h47q25 0 25 -24v-936q0 -244 -127.5 -383.5t-372.5 -139.5z" />
    <glyph glyph-name="Umacron" unicode="&#x16b;" horiz-adv-x="1374" 
d="M459 1651q-13 0 -18 5t-5 19v21q0 13 5 17.5t18 4.5h454q14 0 18.5 -4.5t4.5 -17.5v-21q0 -14 -5 -19t-18 -5h-454zM686 -29q-245 0 -371.5 139.5t-126.5 383.5v936q0 24 25 24h45q25 0 25 -24v-936q0 -204 102 -319.5t301 -115.5q200 0 302 115.5t102 319.5v936
q0 14 5 19t19 5h47q25 0 25 -24v-936q0 -244 -127.5 -383.5t-372.5 -139.5z" />
    <glyph glyph-name="Ubreve" unicode="&#x16c;" horiz-adv-x="1374" 
d="M688 1563q-107 0 -172 55.5t-104 171.5q-5 19 12 25l31 10q19 5 24 -10q32 -96 79.5 -139.5t129.5 -43.5t128 42t79 141q6 13 20 10l37 -10q18 -6 13 -25q-41 -117 -105 -172t-172 -55zM686 -29q-245 0 -371.5 139.5t-126.5 383.5v936q0 24 25 24h45q25 0 25 -24v-936
q0 -204 102 -319.5t301 -115.5q200 0 302 115.5t102 319.5v936q0 14 5 19t19 5h47q25 0 25 -24v-936q0 -244 -127.5 -383.5t-372.5 -139.5z" />
    <glyph glyph-name="Ubreve" unicode="&#x16d;" horiz-adv-x="1374" 
d="M688 1563q-107 0 -172 55.5t-104 171.5q-5 19 12 25l31 10q19 5 24 -10q32 -96 79.5 -139.5t129.5 -43.5t128 42t79 141q6 13 20 10l37 -10q18 -6 13 -25q-41 -117 -105 -172t-172 -55zM686 -29q-245 0 -371.5 139.5t-126.5 383.5v936q0 24 25 24h45q25 0 25 -24v-936
q0 -204 102 -319.5t301 -115.5q200 0 302 115.5t102 319.5v936q0 14 5 19t19 5h47q25 0 25 -24v-936q0 -244 -127.5 -383.5t-372.5 -139.5z" />
    <glyph glyph-name="Uring" unicode="&#x16e;" horiz-adv-x="1374" 
d="M690 1546q-83 0 -134.5 52.5t-51.5 138.5q0 85 51.5 137.5t134.5 52.5q80 0 130 -52.5t50 -137.5q0 -86 -50 -138.5t-130 -52.5zM690 1595q57 0 92 39.5t35 102.5t-35 101t-92 38q-61 0 -98 -38t-37 -101t37 -102.5t98 -39.5zM686 -29q-245 0 -371.5 139.5t-126.5 383.5
v936q0 24 25 24h45q25 0 25 -24v-936q0 -204 102 -319.5t301 -115.5q200 0 302 115.5t102 319.5v936q0 14 5 19t19 5h47q25 0 25 -24v-936q0 -244 -127.5 -383.5t-372.5 -139.5z" />
    <glyph glyph-name="Uring" unicode="&#x16f;" horiz-adv-x="1374" 
d="M690 1546q-83 0 -134.5 52.5t-51.5 138.5q0 85 51.5 137.5t134.5 52.5q80 0 130 -52.5t50 -137.5q0 -86 -50 -138.5t-130 -52.5zM690 1595q57 0 92 39.5t35 102.5t-35 101t-92 38q-61 0 -98 -38t-37 -101t37 -102.5t98 -39.5zM686 -29q-245 0 -371.5 139.5t-126.5 383.5
v936q0 24 25 24h45q25 0 25 -24v-936q0 -204 102 -319.5t301 -115.5q200 0 302 115.5t102 319.5v936q0 14 5 19t19 5h47q25 0 25 -24v-936q0 -244 -127.5 -383.5t-372.5 -139.5z" />
    <glyph glyph-name="Uhungarumlaut" unicode="&#x170;" horiz-adv-x="1374" 
d="M444 1565q-20 8 -8 26l182 230q15 24 41 16l29 -10q25 -10 8 -27l-204 -231q-16 -16 -33 -10zM758 1567q-23 6 -8 24l190 228q20 23 43 16l31 -10q27 -10 8 -29l-217 -225q-16 -19 -31 -10zM686 -29q-245 0 -371.5 139.5t-126.5 383.5v936q0 24 25 24h45q25 0 25 -24
v-936q0 -204 102 -319.5t301 -115.5q200 0 302 115.5t102 319.5v936q0 14 5 19t19 5h47q25 0 25 -24v-936q0 -244 -127.5 -383.5t-372.5 -139.5z" />
    <glyph glyph-name="Uhungarumlaut" unicode="&#x171;" horiz-adv-x="1374" 
d="M444 1565q-20 8 -8 26l182 230q15 24 41 16l29 -10q25 -10 8 -27l-204 -231q-16 -16 -33 -10zM758 1567q-23 6 -8 24l190 228q20 23 43 16l31 -10q27 -10 8 -29l-217 -225q-16 -19 -31 -10zM686 -29q-245 0 -371.5 139.5t-126.5 383.5v936q0 24 25 24h45q25 0 25 -24
v-936q0 -204 102 -319.5t301 -115.5q200 0 302 115.5t102 319.5v936q0 14 5 19t19 5h47q25 0 25 -24v-936q0 -244 -127.5 -383.5t-372.5 -139.5z" />
    <glyph glyph-name="Uogonek" unicode="&#x172;" horiz-adv-x="1374" 
d="M858 -506q-106 0 -137 96q-24 75 24.5 185t153.5 237q-90 -41 -213 -41q-245 0 -371.5 139.5t-126.5 383.5v936q0 24 25 24h45q25 0 25 -24v-936q0 -204 102 -319.5t301 -115.5q200 0 302 115.5t102 319.5v936q0 14 5 19t19 5h47q25 0 25 -24v-936q0 -278 -160 -414
q-125 -140 -188 -264t-39 -191q19 -61 82 -61q31 0 68 16t59 43q11 7 16 -6l12 -31q5 -11 -4 -20q-33 -34 -80.5 -53t-93.5 -19z" />
    <glyph glyph-name="Uogonek" unicode="&#x173;" horiz-adv-x="1374" 
d="M858 -506q-106 0 -137 96q-24 75 24.5 185t153.5 237q-90 -41 -213 -41q-245 0 -371.5 139.5t-126.5 383.5v936q0 24 25 24h45q25 0 25 -24v-936q0 -204 102 -319.5t301 -115.5q200 0 302 115.5t102 319.5v936q0 14 5 19t19 5h47q25 0 25 -24v-936q0 -278 -160 -414
q-125 -140 -188 -264t-39 -191q19 -61 82 -61q31 0 68 16t59 43q11 7 16 -6l12 -31q5 -11 -4 -20q-33 -34 -80.5 -53t-93.5 -19z" />
    <glyph glyph-name="Wcircumflex" unicode="&#x174;" horiz-adv-x="1796" 
d="M625 1556q-16 0 -19.5 6t4.5 13l238 231q18 16 25.5 19.5t25.5 3.5h8q12 0 17 -1t13 -6t19 -16l236 -231q19 -19 -14 -19h-37q-28 0 -41 15l-199 194l-203 -194q-12 -15 -36 -15h-37zM483 0q-29 0 -34 23l-367 1407q-9 24 16 24h54q17 0 22.5 -4t7.5 -18l283 -1102
q26 -110 39 -195h4q5 31 13 64t18 72t14 57l295 1071q5 24 33 24h41q29 0 34 -24l291 -1073q4 -14 43 -191h4q24 125 39 189l283 1108q3 14 9.5 18t23.5 4h49q24 0 18 -24l-368 -1405q-5 -25 -33 -25h-47q-27 0 -35 23l-289 1079q-2 6 -43 186h-4q-14 -73 -45 -186
l-291 -1077q-3 -25 -33 -25h-45z" />
    <glyph glyph-name="Wcircumflex" unicode="&#x175;" horiz-adv-x="1796" 
d="M625 1556q-16 0 -19.5 6t4.5 13l238 231q18 16 25.5 19.5t25.5 3.5h8q12 0 17 -1t13 -6t19 -16l236 -231q19 -19 -14 -19h-37q-28 0 -41 15l-199 194l-203 -194q-12 -15 -36 -15h-37zM483 0q-29 0 -34 23l-367 1407q-9 24 16 24h54q17 0 22.5 -4t7.5 -18l283 -1102
q26 -110 39 -195h4q5 31 13 64t18 72t14 57l295 1071q5 24 33 24h41q29 0 34 -24l291 -1073q4 -14 43 -191h4q24 125 39 189l283 1108q3 14 9.5 18t23.5 4h49q24 0 18 -24l-368 -1405q-5 -25 -33 -25h-47q-27 0 -35 23l-289 1079q-2 6 -43 186h-4q-14 -73 -45 -186
l-291 -1077q-3 -25 -33 -25h-45z" />
    <glyph glyph-name="Ycircumflex" unicode="&#x176;" horiz-adv-x="1249" 
d="M350 1556q-33 0 -14 19l237 231q18 16 26 19.5t26 3.5h8q16 0 24.5 -3.5t24.5 -19.5l236 -231q8 -7 4.5 -13t-19.5 -6h-37q-28 0 -41 15l-198 194l-203 -194q-12 -15 -37 -15h-37zM602 0q-13 0 -18.5 6t-5.5 21v573l-512 827q-6 11 -2.5 19t16.5 8h53q21 0 28 -4t15 -18
l451 -742l450 742q8 14 15 18t28 4h51q13 0 17 -8t-2 -19l-514 -831v-569q0 -27 -25 -27h-45z" />
    <glyph glyph-name="Ycircumflex" unicode="&#x177;" horiz-adv-x="1249" 
d="M350 1556q-33 0 -14 19l237 231q18 16 26 19.5t26 3.5h8q16 0 24.5 -3.5t24.5 -19.5l236 -231q8 -7 4.5 -13t-19.5 -6h-37q-28 0 -41 15l-198 194l-203 -194q-12 -15 -37 -15h-37zM602 0q-13 0 -18.5 6t-5.5 21v573l-512 827q-6 11 -2.5 19t16.5 8h53q21 0 28 -4t15 -18
l451 -742l450 742q8 14 15 18t28 4h51q13 0 17 -8t-2 -19l-514 -831v-569q0 -27 -25 -27h-45z" />
    <glyph glyph-name="Zacute" unicode="&#x179;" horiz-adv-x="1118" 
d="M440 1563q-23 -11 -34 0l-13 16q-15 18 4 31l283 215q28 16 43 -2l22 -23q17 -19 -4 -31zM121 0q-23 0 -23 27v34q0 19 11 35l784 1270h-764q-23 0 -23 27v34q0 27 23 27h854q25 0 25 -27v-32q0 -19 -11 -33l-786 -1272h795q13 0 18.5 -6t5.5 -21v-36q0 -15 -5.5 -21
t-18.5 -6h-885z" />
    <glyph glyph-name="Zacute" unicode="&#x17a;" horiz-adv-x="1118" 
d="M440 1563q-23 -11 -34 0l-13 16q-15 18 4 31l283 215q28 16 43 -2l22 -23q17 -19 -4 -31zM121 0q-23 0 -23 27v34q0 19 11 35l784 1270h-764q-23 0 -23 27v34q0 27 23 27h854q25 0 25 -27v-32q0 -19 -11 -33l-786 -1272h795q13 0 18.5 -6t5.5 -21v-36q0 -15 -5.5 -21
t-18.5 -6h-885z" />
    <glyph glyph-name="Zdotaccent" unicode="&#x17b;" horiz-adv-x="1118" 
d="M561 1630q-28 0 -37.5 10t-9.5 39v11q0 29 9.5 39t37.5 10h10q28 0 39 -10t11 -39v-11q0 -28 -11 -38.5t-39 -10.5h-10zM121 0q-23 0 -23 27v34q0 19 11 35l784 1270h-764q-23 0 -23 27v34q0 27 23 27h854q25 0 25 -27v-32q0 -19 -11 -33l-786 -1272h795q13 0 18.5 -6
t5.5 -21v-36q0 -15 -5.5 -21t-18.5 -6h-885z" />
    <glyph glyph-name="Zdotaccent" unicode="&#x17c;" horiz-adv-x="1118" 
d="M561 1630q-28 0 -37.5 10t-9.5 39v11q0 29 9.5 39t37.5 10h10q28 0 39 -10t11 -39v-11q0 -28 -11 -38.5t-39 -10.5h-10zM121 0q-23 0 -23 27v34q0 19 11 35l784 1270h-764q-23 0 -23 27v34q0 27 23 27h854q25 0 25 -27v-32q0 -19 -11 -33l-786 -1272h795q13 0 18.5 -6
t5.5 -21v-36q0 -15 -5.5 -21t-18.5 -6h-885z" />
    <glyph glyph-name="Zcaron" unicode="&#x17d;" horiz-adv-x="1118" 
d="M563 1554q-19 0 -27.5 4t-23.5 19l-236 231q-19 19 13 19h37q16 0 22.5 -2.5t16.5 -12.5l198 -194l203 194q12 15 39 15h39q31 0 12 -19l-238 -231q-18 -17 -25 -20t-22 -3h-8zM121 0q-23 0 -23 27v34q0 19 11 35l784 1270h-764q-23 0 -23 27v34q0 27 23 27h854
q25 0 25 -27v-32q0 -19 -11 -33l-786 -1272h795q13 0 18.5 -6t5.5 -21v-36q0 -15 -5.5 -21t-18.5 -6h-885z" />
    <glyph glyph-name="Zcaron" unicode="&#x17e;" horiz-adv-x="1118" 
d="M563 1554q-19 0 -27.5 4t-23.5 19l-236 231q-19 19 13 19h37q16 0 22.5 -2.5t16.5 -12.5l198 -194l203 194q12 15 39 15h39q31 0 12 -19l-238 -231q-18 -17 -25 -20t-22 -3h-8zM121 0q-23 0 -23 27v34q0 19 11 35l784 1270h-764q-23 0 -23 27v34q0 27 23 27h854
q25 0 25 -27v-32q0 -19 -11 -33l-786 -1272h795q13 0 18.5 -6t5.5 -21v-36q0 -15 -5.5 -21t-18.5 -6h-885z" />
    <glyph glyph-name="florin" unicode="&#x192;" horiz-adv-x="940" 
d="M-4 -451q-23 0 -23 25v35q0 24 23 24q82 0 143 23t99 68t59.5 103t30.5 136l75 727h-288q-23 0 -23 25v35q0 24 23 24h299l35 336q20 195 118.5 300.5t300.5 105.5q23 0 23 -25v-35q0 -24 -23 -24q-162 0 -237.5 -83t-91.5 -243l-35 -332h305q22 0 22 -24v-35
q0 -25 -22 -25h-315l-76 -733q-42 -408 -422 -408z" />
    <glyph glyph-name="Aringacute" unicode="&#x1fa;" horiz-adv-x="1277" 
d="M510 1780q-17 -6 -27 4l-12 14q-12 15 12 25l295 151q22 11 37 -6l16 -18q9 -9 8.5 -14t-12.5 -9zM76 0q-30 0 -19 25l518 1390q-59 14 -91.5 54.5t-32.5 101.5q0 74 52 123t136 49q81 0 131.5 -49t50.5 -123q0 -61 -31.5 -101.5t-87.5 -54.5l517 -1390q11 -25 -19 -25
h-41q-21 0 -29.5 4.5t-13.5 18.5l-164 452h-628l-166 -452q-4 -13 -13.5 -18t-29.5 -5h-39zM639 1448q58 0 93.5 33.5t35.5 91.5q0 50 -36.5 84.5t-92.5 34.5q-59 0 -97 -34.5t-38 -84.5q0 -58 37 -91.5t98 -33.5zM922 557l-263 723q-17 53 -20 86h-4q-7 -38 -19 -86
l-264 -723h570z" />
    <glyph glyph-name="Aringacute" unicode="&#x1fb;" horiz-adv-x="1277" 
d="M510 1780q-17 -6 -27 4l-12 14q-12 15 12 25l295 151q22 11 37 -6l16 -18q9 -9 8.5 -14t-12.5 -9zM76 0q-30 0 -19 25l518 1390q-59 14 -91.5 54.5t-32.5 101.5q0 74 52 123t136 49q81 0 131.5 -49t50.5 -123q0 -61 -31.5 -101.5t-87.5 -54.5l517 -1390q11 -25 -19 -25
h-41q-21 0 -29.5 4.5t-13.5 18.5l-164 452h-628l-166 -452q-4 -13 -13.5 -18t-29.5 -5h-39zM639 1448q58 0 93.5 33.5t35.5 91.5q0 50 -36.5 84.5t-92.5 34.5q-59 0 -97 -34.5t-38 -84.5q0 -58 37 -91.5t98 -33.5zM922 557l-263 723q-17 53 -20 86h-4q-7 -38 -19 -86
l-264 -723h570z" />
    <glyph glyph-name="AEacute" unicode="&#x1fc;" horiz-adv-x="1656" 
d="M1051 1563q-23 -12 -35 0l-12 16q-15 18 4 31l282 215q28 16 43 -2l23 -23q17 -19 -4 -31zM43 0q-30 0 -16 25l809 1405q9 15 15 19.5t19 4.5h621q25 0 25 -27v-36q0 -25 -25 -25h-541v-586h455q14 0 19.5 -5.5t5.5 -20.5v-37q0 -25 -25 -25h-455v-604h568q24 0 24 -25
v-36q0 -15 -5.5 -21t-18.5 -6h-637q-25 0 -25 27v356h-520l-203 -360q-7 -13 -15 -18t-30 -5h-45zM856 463l2 844l-473 -844h471z" />
    <glyph glyph-name="AEacute" unicode="&#x1fd;" horiz-adv-x="1656" 
d="M1051 1563q-23 -12 -35 0l-12 16q-15 18 4 31l282 215q28 16 43 -2l23 -23q17 -19 -4 -31zM43 0q-30 0 -16 25l809 1405q9 15 15 19.5t19 4.5h621q25 0 25 -27v-36q0 -25 -25 -25h-541v-586h455q14 0 19.5 -5.5t5.5 -20.5v-37q0 -25 -25 -25h-455v-604h568q24 0 24 -25
v-36q0 -15 -5.5 -21t-18.5 -6h-637q-25 0 -25 27v356h-520l-203 -360q-7 -13 -15 -18t-30 -5h-45zM856 463l2 844l-473 -844h471z" />
    <glyph glyph-name="Oslashacute" unicode="&#x1fe;" horiz-adv-x="1333" 
d="M547 1583q-23 -12 -35 0l-12 16q-15 18 4 31l282 215q28 16 43 -2l23 -22q17 -19 -4 -31zM168 -88q-13 0 -6 10l112 195q-118 133 -118 360v500q0 238 132.5 372t379.5 134q217 0 344 -109l88 152q6 8 20 8h54q9 0 6 -10l-115 -195q113 -134 113 -352v-500
q0 -238 -132 -372t-378 -134q-203 0 -338 101l-88 -150q-4 -7 -7.5 -8.5t-15.5 -1.5h-51zM965 1294q-107 101 -297 101q-201 0 -308.5 -111t-107.5 -309v-488q0 -168 84 -268zM668 59q200 0 307.5 110.5t107.5 309.5v496q0 158 -75 254l-631 -1075q106 -95 291 -95z" />
    <glyph glyph-name="Oslashacute" unicode="&#x1ff;" horiz-adv-x="1333" 
d="M547 1583q-23 -12 -35 0l-12 16q-15 18 4 31l282 215q28 16 43 -2l23 -22q17 -19 -4 -31zM168 -88q-13 0 -6 10l112 195q-118 133 -118 360v500q0 238 132.5 372t379.5 134q217 0 344 -109l88 152q6 8 20 8h54q9 0 6 -10l-115 -195q113 -134 113 -352v-500
q0 -238 -132 -372t-378 -134q-203 0 -338 101l-88 -150q-4 -7 -7.5 -8.5t-15.5 -1.5h-51zM965 1294q-107 101 -297 101q-201 0 -308.5 -111t-107.5 -309v-488q0 -168 84 -268zM668 59q200 0 307.5 110.5t107.5 309.5v496q0 158 -75 254l-631 -1075q106 -95 291 -95z" />
    <glyph glyph-name="uni0218" unicode="&#x218;" horiz-adv-x="1257" 
d="M629 -29q-196 0 -320 85t-190 268q-9 26 14 34l43 15q13 5 20 1.5t13 -16.5q59 -156 161 -226.5t259 -70.5q405 0 405 324q0 51 -12 91.5t-30.5 69t-51 51t-61.5 35.5t-76 24t-80.5 16t-87.5 12q-46 6 -78 11t-76.5 14.5t-76 20t-69.5 27.5t-63.5 37t-51.5 48.5t-42 62.5
t-25.5 78t-9.5 96q0 187 127 295.5t351 108.5q188 0 303.5 -74.5t189.5 -239.5q16 -25 -12 -34l-41 -15q-12 -6 -19 -4t-14 14q-62 137 -158 200t-249 63q-181 0 -281 -82t-100 -230q0 -51 12.5 -92t32 -70t53.5 -52t65.5 -37t79 -25.5t84.5 -17.5t92 -13q58 -7 98.5 -14
t93.5 -21.5t89.5 -32t75 -47t61.5 -67t38 -91t15 -118.5q0 -201 -127.5 -306.5t-373.5 -105.5zM565 -518q-21 0 -18 20l82 299q1 15 8 20t22 5h37q32 0 23 -27l-96 -293q-8 -24 -31 -24h-27z" />
    <glyph glyph-name="uni0218" unicode="&#x219;" horiz-adv-x="1257" 
d="M629 -29q-196 0 -320 85t-190 268q-9 26 14 34l43 15q13 5 20 1.5t13 -16.5q59 -156 161 -226.5t259 -70.5q405 0 405 324q0 51 -12 91.5t-30.5 69t-51 51t-61.5 35.5t-76 24t-80.5 16t-87.5 12q-46 6 -78 11t-76.5 14.5t-76 20t-69.5 27.5t-63.5 37t-51.5 48.5t-42 62.5
t-25.5 78t-9.5 96q0 187 127 295.5t351 108.5q188 0 303.5 -74.5t189.5 -239.5q16 -25 -12 -34l-41 -15q-12 -6 -19 -4t-14 14q-62 137 -158 200t-249 63q-181 0 -281 -82t-100 -230q0 -51 12.5 -92t32 -70t53.5 -52t65.5 -37t79 -25.5t84.5 -17.5t92 -13q58 -7 98.5 -14
t93.5 -21.5t89.5 -32t75 -47t61.5 -67t38 -91t15 -118.5q0 -201 -127.5 -306.5t-373.5 -105.5zM565 -518q-21 0 -18 20l82 299q1 15 8 20t22 5h37q32 0 23 -27l-96 -293q-8 -24 -31 -24h-27z" />
    <glyph glyph-name="circumflex" unicode="&#x2c6;" horiz-adv-x="757" 
d="M98 1200q-16 0 -19 7t7 14l238 231q18 16 25.5 19.5t25.5 3.5h8q15 0 23.5 -4t23.5 -19l238 -231q7 -7 4 -14t-19 -7h-37q-27 0 -41 14l-198 197l-203 -197q-14 -14 -39 -14h-37z" />
    <glyph glyph-name="caron" unicode="&#x2c7;" horiz-adv-x="743" 
d="M371 1200q-21 0 -29.5 3.5t-22.5 19.5l-235 229q-9 8 -6.5 14.5t18.5 6.5h37q16 0 22.5 -2.5t16.5 -12.5l199 -196l202 196q15 15 41 15h39q16 0 18.5 -6.5t-7.5 -14.5l-238 -229q-18 -17 -25 -20t-22 -3h-8z" />
    <glyph glyph-name="breve" unicode="&#x2d8;" horiz-adv-x="589" 
d="M283 1210q-214 0 -275 228q-3 11 -0.5 16t12.5 10l31 11q20 3 25 -13q25 -94 74.5 -138t132.5 -44q84 0 134 44t75 138q5 16 22 13l33 -11q11 -5 13.5 -9.5t-1.5 -16.5q-31 -116 -98.5 -172t-177.5 -56z" />
    <glyph glyph-name="dotaccent" unicode="&#x2d9;" horiz-adv-x="505" 
d="M248 1278q-28 0 -37.5 10t-9.5 39v10q0 28 10 38.5t37 10.5h10q28 0 38.5 -10.5t10.5 -38.5v-10q0 -28 -10.5 -38.5t-38.5 -10.5h-10z" />
    <glyph glyph-name="ring" unicode="&#x2da;" horiz-adv-x="524" 
d="M266 1124q-83 0 -134.5 53t-51.5 138q0 86 51 138t135 52q82 0 131 -52t49 -138q0 -85 -49.5 -138t-130.5 -53zM266 1176q57 0 93 38t36 101t-36 101t-93 38q-60 0 -97.5 -38t-37.5 -101t37.5 -101t97.5 -38z" />
    <glyph glyph-name="ogonek" unicode="&#x2db;" horiz-adv-x="579" 
d="M287 -506q-108 0 -135 96q-48 146 194 410h70q-230 -259 -189 -375q22 -61 82 -61t109 59q13 7 16 -6l12 -31q5 -13 -2 -20q-72 -72 -157 -72z" />
    <glyph glyph-name="tilde" unicode="&#x2dc;" horiz-adv-x="626" 
d="M49 1233q-18 0 -18 16q0 91 38 142t105 51q37 0 69 -15t55.5 -37t45.5 -44t49 -37t56 -15q40 0 63 36.5t23 94.5q0 10 3 13.5t13 3.5h27q16 0 16 -17q0 -92 -35.5 -142t-105.5 -50q-43 0 -81.5 23t-62.5 50.5t-58.5 50.5t-70.5 23q-40 0 -64 -35.5t-24 -95.5
q0 -16 -16 -16h-27z" />
    <glyph glyph-name="hungarumlaut" unicode="&#x2dd;" horiz-adv-x="811" 
d="M158 1204q-20 8 -4 27l180 229q16 25 41 17l28 -11q25 -6 9 -26l-205 -232q-20 -14 -33 -10zM471 1202q-21 9 -6 27l188 227q18 25 41 17l31 -11q25 -9 8 -26l-215 -230q-16 -16 -33 -10z" />
    <glyph glyph-name="gravecomb" unicode="&#x300;" 
d="M-471 1454q-20 11 -2 29l20 24q17 19 45 2l281 -217q21 -10 4 -30l-12 -15q-12 -15 -33 0z" />
    <glyph glyph-name="acutecomb" unicode="&#x301;" 
d="M-387 1247q-24 -12 -35 2l-12 15q-13 19 4 30l283 215q26 22 43 0l22 -22q17 -19 -4 -31z" />
    <glyph glyph-name="uni0302" unicode="&#x302;" 
d="M-659 1233q-17 0 -20 5.5t7 12.5l238 232q18 15 25.5 18.5t25.5 3.5h8q17 0 25 -3t22 -19l238 -232q14 -18 -14 -18h-37q-29 0 -41 14l-199 195l-203 -195q-14 -14 -39 -14h-36z" />
    <glyph glyph-name="tildecomb" unicode="&#x303;" 
d="M-578 1264q-18 0 -18 18q0 91 38 142t105 51q37 0 69 -15t55.5 -37t45.5 -44t49 -37t56 -15q40 0 63 35.5t23 93.5q0 19 16 19h27q16 0 16 -19q0 -92 -35.5 -142t-105.5 -50q-36 0 -67 15t-54 37t-45 43.5t-49 36.5t-57 15q-40 0 -64.5 -35.5t-24.5 -93.5q0 -18 -16 -18
h-27z" />
    <glyph glyph-name="uni0304" unicode="&#x304;" 
d="M-623 1327q-13 0 -17.5 5.5t-4.5 19.5v20q0 13 5 18t17 5h455q14 0 18.5 -4.5t4.5 -18.5v-20q0 -14 -5 -19.5t-18 -5.5h-455z" />
    <glyph glyph-name="uni0306" unicode="&#x306;" 
d="M-307 1241q-109 0 -176.5 56t-98.5 173q-5 19 13 25l30 10q20 3 25 -12q25 -94 74.5 -138t132.5 -44q84 0 134 44t75 138q5 15 22 12l33 -10q19 -8 12 -25q-31 -117 -98.5 -173t-177.5 -56z" />
    <glyph glyph-name="uni0307" unicode="&#x307;" 
d="M-266 1317q-26 0 -35.5 10.5t-9.5 40.5v16q0 28 10 40t35 12h28q26 0 37 -12t11 -40v-16q0 -29 -10.5 -40t-37.5 -11h-28z" />
    <glyph glyph-name="uni0308" unicode="&#x308;" 
d="M-670 1319q-30 0 -41.5 10.5t-11.5 40.5v12q0 30 11.5 41t41.5 11h8q31 0 42.5 -11.5t11.5 -40.5v-12q0 -29 -11.5 -40t-42.5 -11h-8zM-299 1319q-29 0 -41 10.5t-12 40.5v12q0 29 12 40.5t41 11.5h10q29 0 41 -11.5t12 -40.5v-12q0 -29 -11.5 -40t-41.5 -11h-10z" />
    <glyph glyph-name="uni030A" unicode="&#x30a;" 
d="M-258 1178q-83 0 -134.5 52.5t-51.5 137.5q0 86 51.5 138.5t134.5 52.5q82 0 131 -52.5t49 -138.5q0 -85 -49.5 -137.5t-130.5 -52.5zM-258 1229q57 0 93 38t36 101t-36 101t-93 38q-60 0 -97.5 -38t-37.5 -101t37.5 -101t97.5 -38z" />
    <glyph glyph-name="uni030B" unicode="&#x30b;" 
d="M-653 1239q-20 8 -4 27l180 229q15 25 41 16l28 -10q23 -9 9 -26l-205 -232q-18 -15 -33 -10zM-340 1237q-23 7 -6 27l188 227q18 21 41 16l31 -10q25 -10 8 -27l-215 -229q-16 -16 -33 -10z" />
    <glyph glyph-name="uni030C" unicode="&#x30c;" 
d="M-373 1231q-19 0 -27.5 3.5t-23.5 18.5l-235 232q-18 18 12 18h37q16 0 22.5 -2t16.5 -12l198 -195l203 195q14 14 41 14h39q32 0 10 -18l-237 -232q-18 -16 -25 -19t-23 -3h-8z" />
    <glyph glyph-name="uni0327" unicode="&#x327;" 
d="M-272 -500q-73 0 -142 43q-16 11 -16 33v27q0 18 14 10q59 -55 133 -55q144 0 144 131q0 50 -33.5 77t-87.5 27q-40 0 -64 -12q-12 -2 -17.5 5.5t-2.5 20.5l61 193h60l-47 -164q24 8 49 8q71 0 117 -44t43 -115q-3 -94 -59.5 -139.5t-151.5 -45.5z" />
    <glyph glyph-name="uni0328" unicode="&#x328;" 
d="M-293 -506q-108 0 -135 96q-48 145 195 410h69q-229 -258 -188 -375q22 -61 82 -61q59 0 108 59q14 7 17 -6l12 -31q5 -13 -2 -20q-72 -72 -158 -72z" />
    <glyph glyph-name="pi" unicode="&#x3c0;" horiz-adv-x="1220" 
d="M1006 -2q-22 -11 -33 14q-37 65 -49.5 127.5t-12.5 159.5v670h-512v-944q0 -25 -22 -25h-43q-23 0 -23 25v944q-63 -1 -106 -16t-103 -52q-12 -5 -19 -4t-13 12l-17 33q-9 22 10 33q68 42 131.5 58t153.5 16h782q23 0 23 -23v-33q0 -24 -23 -24h-131v-674
q0 -88 10.5 -139t43.5 -105q11 -26 -11 -37z" />
    <glyph glyph-name="uni0401" unicode="&#x401;" horiz-adv-x="1148" 
d="M420 1640q-26 0 -36.5 10t-10.5 36v14q0 26 10.5 36.5t36.5 10.5h12q27 0 37 -10t10 -37v-14q0 -26 -9.5 -36t-37.5 -10h-12zM780 1640q-29 0 -39 9.5t-10 36.5v14q0 27 10 37t39 10h11q27 0 38 -10.5t11 -36.5v-14q0 -26 -11 -36t-38 -10h-11zM225 0q-13 0 -18.5 6
t-5.5 21v1400q0 15 5.5 21t18.5 6h760q25 0 25 -27v-36q0 -25 -25 -25h-690v-584h608q25 0 25 -26v-37q0 -27 -25 -27h-608v-604h715q24 0 24 -25v-36q0 -15 -5.5 -21t-18.5 -6h-785z" />
    <glyph glyph-name="uni0401" unicode="&#x451;" horiz-adv-x="1148" 
d="M420 1640q-26 0 -36.5 10t-10.5 36v14q0 26 10.5 36.5t36.5 10.5h12q27 0 37 -10t10 -37v-14q0 -26 -9.5 -36t-37.5 -10h-12zM780 1640q-29 0 -39 9.5t-10 36.5v14q0 27 10 37t39 10h11q27 0 38 -10.5t11 -36.5v-14q0 -26 -11 -36t-38 -10h-11zM225 0q-13 0 -18.5 6
t-5.5 21v1400q0 15 5.5 21t18.5 6h760q25 0 25 -27v-36q0 -25 -25 -25h-690v-584h608q25 0 25 -26v-37q0 -27 -25 -27h-608v-604h715q24 0 24 -25v-36q0 -15 -5.5 -21t-18.5 -6h-785z" />
    <glyph glyph-name="uni0410" unicode="&#x410;" horiz-adv-x="1277" 
d="M76 0q-30 0 -19 25l525 1415q8 24 34 24h46q24 0 32 -24l525 -1415q11 -25 -19 -25h-41q-21 0 -29.5 4.5t-13.5 18.5l-164 452h-628l-166 -452q-4 -13 -13.5 -18t-29.5 -5h-39zM922 557l-263 723q-17 53 -20 86h-6q-3 -30 -17 -86l-264 -723h570z" />
    <glyph glyph-name="uni0410" unicode="&#x430;" horiz-adv-x="1277" 
d="M76 0q-30 0 -19 25l525 1415q8 24 34 24h46q24 0 32 -24l525 -1415q11 -25 -19 -25h-41q-21 0 -29.5 4.5t-13.5 18.5l-164 452h-628l-166 -452q-4 -13 -13.5 -18t-29.5 -5h-39zM922 557l-263 723q-17 53 -20 86h-6q-3 -30 -17 -86l-264 -723h570z" />
    <glyph glyph-name="uni0411" unicode="&#x411;" horiz-adv-x="1261" 
d="M223 0q-22 0 -22 25v1402q0 15 5.5 21t18.5 6h811q25 0 25 -27v-36q0 -25 -25 -25h-741v-555h467q183 0 289 -105.5t106 -297.5t-106.5 -300t-288.5 -108h-539zM756 88q140 0 223.5 84.5t83.5 235.5t-83.5 236t-223.5 85h-461v-641h461z" />
    <glyph glyph-name="uni0411" unicode="&#x431;" horiz-adv-x="1261" 
d="M223 0q-22 0 -22 25v1402q0 15 5.5 21t18.5 6h811q25 0 25 -27v-36q0 -25 -25 -25h-741v-555h467q183 0 289 -105.5t106 -297.5t-106.5 -300t-288.5 -108h-539zM756 88q140 0 223.5 84.5t83.5 235.5t-83.5 236t-223.5 85h-461v-641h461z" />
    <glyph glyph-name="uni0412" unicode="&#x412;" horiz-adv-x="1292" 
d="M225 0q-13 0 -18.5 6t-5.5 21v1400q0 15 5.5 21t18.5 6h518q170 0 270.5 -96.5t100.5 -272.5q0 -256 -199 -333v-4q118 -30 182 -121.5t64 -239.5q0 -185 -104.5 -286t-284.5 -101h-547zM745 782q131 0 204 75.5t73 219.5q0 142 -75 215.5t-208 73.5h-444v-584h450z
M768 88q138 0 218.5 79.5t80.5 227.5t-77.5 226.5t-213.5 78.5h-481v-612h473z" />
    <glyph glyph-name="uni0412" unicode="&#x432;" horiz-adv-x="1292" 
d="M225 0q-13 0 -18.5 6t-5.5 21v1400q0 15 5.5 21t18.5 6h518q170 0 270.5 -96.5t100.5 -272.5q0 -256 -199 -333v-4q118 -30 182 -121.5t64 -239.5q0 -185 -104.5 -286t-284.5 -101h-547zM745 782q131 0 204 75.5t73 219.5q0 142 -75 215.5t-208 73.5h-444v-584h450z
M768 88q138 0 218.5 79.5t80.5 227.5t-77.5 226.5t-213.5 78.5h-481v-612h473z" />
    <glyph glyph-name="uni0413" unicode="&#x413;" horiz-adv-x="1024" 
d="M223 0q-22 0 -22 27v1400q0 27 22 27h711q22 0 22 -27v-34q0 -27 -22 -27h-639v-1339q0 -27 -25 -27h-47z" />
    <glyph glyph-name="uni0413" unicode="&#x433;" horiz-adv-x="1024" 
d="M223 0q-22 0 -22 27v1400q0 27 22 27h711q22 0 22 -27v-34q0 -27 -22 -27h-639v-1339q0 -27 -25 -27h-47z" />
    <glyph glyph-name="uni0414" unicode="&#x414;" horiz-adv-x="1404" 
d="M84 -313q-14 0 -19.5 5.5t-5.5 20.5v350q0 25 25 25h80q34 26 57 52t54 92t50 158t32.5 253t13.5 373v411q0 15 5.5 21t18.5 6h756q25 0 25 -27v-1339h127q24 0 24 -25v-350q0 -15 -5 -20.5t-19 -5.5h-43q-14 0 -19.5 5.5t-5.5 20.5v287h-1083v-287q0 -15 -5.5 -20.5
t-19.5 -5.5h-43zM1081 88v1278h-620v-350q0 -193 -11.5 -345t-29 -246t-44.5 -165t-50 -106t-54 -66h809z" />
    <glyph glyph-name="uni0414" unicode="&#x434;" horiz-adv-x="1404" 
d="M84 -313q-14 0 -19.5 5.5t-5.5 20.5v350q0 25 25 25h80q34 26 57 52t54 92t50 158t32.5 253t13.5 373v411q0 15 5.5 21t18.5 6h756q25 0 25 -27v-1339h127q24 0 24 -25v-350q0 -15 -5 -20.5t-19 -5.5h-43q-14 0 -19.5 5.5t-5.5 20.5v287h-1083v-287q0 -15 -5.5 -20.5
t-19.5 -5.5h-43zM1081 88v1278h-620v-350q0 -193 -11.5 -345t-29 -246t-44.5 -165t-50 -106t-54 -66h809z" />
    <glyph glyph-name="uni0415" unicode="&#x415;" horiz-adv-x="1148" 
d="M225 0q-13 0 -18.5 6t-5.5 21v1400q0 15 5.5 21t18.5 6h760q25 0 25 -27v-36q0 -25 -25 -25h-690v-584h608q25 0 25 -26v-37q0 -27 -25 -27h-608v-604h715q24 0 24 -25v-36q0 -15 -5.5 -21t-18.5 -6h-785z" />
    <glyph glyph-name="uni0415" unicode="&#x435;" horiz-adv-x="1148" 
d="M225 0q-13 0 -18.5 6t-5.5 21v1400q0 15 5.5 21t18.5 6h760q25 0 25 -27v-36q0 -25 -25 -25h-690v-584h608q25 0 25 -26v-37q0 -27 -25 -27h-608v-604h715q24 0 24 -25v-36q0 -15 -5.5 -21t-18.5 -6h-785z" />
    <glyph glyph-name="uni0416" unicode="&#x416;" horiz-adv-x="1822" 
d="M90 0q-13 0 -16.5 8t2.5 19l243 510q40 85 88 136t117 75l-428 679q-8 11 -4 19t19 8h45q24 0 34 -4t17 -18l409 -656q25 4 86 4h162v647q0 27 25 27h45q13 0 18.5 -6t5.5 -21v-647h164q59 0 86 -4l408 656q7 14 17 18t34 4h45q29 0 14 -27l-428 -679q69 -24 117 -74.5
t90 -136.5l242 -510q15 -27 -14 -27h-41q-23 0 -32.5 4.5t-17.5 18.5l-223 477q-51 105 -115.5 149.5t-179.5 44.5h-166v-667q0 -15 -5.5 -21t-18.5 -6h-45q-25 0 -25 27v667h-164q-116 0 -180.5 -44.5t-113.5 -149.5l-226 -477q-6 -14 -15 -18.5t-32 -4.5h-43z" />
    <glyph glyph-name="uni0416" unicode="&#x436;" horiz-adv-x="1822" 
d="M90 0q-13 0 -16.5 8t2.5 19l243 510q40 85 88 136t117 75l-428 679q-8 11 -4 19t19 8h45q24 0 34 -4t17 -18l409 -656q25 4 86 4h162v647q0 27 25 27h45q13 0 18.5 -6t5.5 -21v-647h164q59 0 86 -4l408 656q7 14 17 18t34 4h45q29 0 14 -27l-428 -679q69 -24 117 -74.5
t90 -136.5l242 -510q15 -27 -14 -27h-41q-23 0 -32.5 4.5t-17.5 18.5l-223 477q-51 105 -115.5 149.5t-179.5 44.5h-166v-667q0 -15 -5.5 -21t-18.5 -6h-45q-25 0 -25 27v667h-164q-116 0 -180.5 -44.5t-113.5 -149.5l-226 -477q-6 -14 -15 -18.5t-32 -4.5h-43z" />
    <glyph glyph-name="uni0417" unicode="&#x417;" horiz-adv-x="1236" 
d="M633 -29q-226 0 -346.5 91t-169.5 274q-9 27 16 33l39 14q25 8 33 -16q38 -157 138 -232.5t290 -75.5q188 0 281.5 89t93.5 249q0 139 -73 222t-206 83h-340q-24 0 -24 25v35q0 15 5 20.5t19 5.5h338q123 0 183.5 80.5t60.5 204.5q0 156 -88 239t-256 83
q-181 0 -274.5 -69.5t-137.5 -227.5q-6 -14 -12.5 -17.5t-20.5 0.5l-37 13q-24 8 -16 34q52 181 167 268t333 87q212 0 324 -106t112 -298q0 -114 -44.5 -202.5t-135.5 -126.5q111 -37 166 -130t55 -227q0 -200 -118.5 -311t-354.5 -111z" />
    <glyph glyph-name="uni0417" unicode="&#x437;" horiz-adv-x="1236" 
d="M633 -29q-226 0 -346.5 91t-169.5 274q-9 27 16 33l39 14q25 8 33 -16q38 -157 138 -232.5t290 -75.5q188 0 281.5 89t93.5 249q0 139 -73 222t-206 83h-340q-24 0 -24 25v35q0 15 5 20.5t19 5.5h338q123 0 183.5 80.5t60.5 204.5q0 156 -88 239t-256 83
q-181 0 -274.5 -69.5t-137.5 -227.5q-6 -14 -12.5 -17.5t-20.5 0.5l-37 13q-24 8 -16 34q52 181 167 268t333 87q212 0 324 -106t112 -298q0 -114 -44.5 -202.5t-135.5 -126.5q111 -37 166 -130t55 -227q0 -200 -118.5 -311t-354.5 -111z" />
    <glyph glyph-name="uni0418" unicode="&#x418;" horiz-adv-x="1396" 
d="M227 0q-13 0 -18.5 6t-5.5 21l-2 1400q0 15 4.5 21t17.5 6h49q13 0 18 -6t5 -21l2 -874q0 -273 -10 -416h6q108 202 213 373l584 930q10 14 24 14h53q27 0 27 -27l2 -1400q0 -27 -25 -27h-47q-22 0 -22 27l-2 903q0 190 12 387h-6q-98 -179 -199 -346l-602 -955
q-9 -16 -26 -16h-52z" />
    <glyph glyph-name="uni0418" unicode="&#x438;" horiz-adv-x="1396" 
d="M227 0q-13 0 -18.5 6t-5.5 21l-2 1400q0 15 4.5 21t17.5 6h49q13 0 18 -6t5 -21l2 -874q0 -273 -10 -416h6q108 202 213 373l584 930q10 14 24 14h53q27 0 27 -27l2 -1400q0 -27 -25 -27h-47q-22 0 -22 27l-2 903q0 190 12 387h-6q-98 -179 -199 -346l-602 -955
q-9 -16 -26 -16h-52z" />
    <glyph glyph-name="uni0419" unicode="&#x419;" horiz-adv-x="1333" 
d="M715 1608q-226 0 -289 223q-8 18 12 24l33 11q18 6 27 -11q25 -93 77.5 -136.5t139.5 -43.5q89 0 142 43.5t79 136.5q5 16 22 13l35 -13q20 -6 15 -24q-34 -114 -105 -168.5t-188 -54.5zM227 0q-13 0 -18.5 6t-5.5 21l-2 1400q0 15 4.5 21t17.5 6h49q13 0 18 -6t5 -21
l2 -874q0 -273 -10 -416h6q108 202 213 373l584 930q10 14 24 14h53q27 0 27 -27l2 -1400q0 -27 -25 -27h-47q-22 0 -22 27l-2 903q0 190 12 387h-6q-98 -179 -199 -346l-602 -955q-9 -16 -26 -16h-52z" />
    <glyph glyph-name="uni0419" unicode="&#x439;" horiz-adv-x="1333" 
d="M715 1608q-226 0 -289 223q-8 18 12 24l33 11q18 6 27 -11q25 -93 77.5 -136.5t139.5 -43.5q89 0 142 43.5t79 136.5q5 16 22 13l35 -13q20 -6 15 -24q-34 -114 -105 -168.5t-188 -54.5zM227 0q-13 0 -18.5 6t-5.5 21l-2 1400q0 15 4.5 21t17.5 6h49q13 0 18 -6t5 -21
l2 -874q0 -273 -10 -416h6q108 202 213 373l584 930q10 14 24 14h53q27 0 27 -27l2 -1400q0 -27 -25 -27h-47q-22 0 -22 27l-2 903q0 190 12 387h-6q-98 -179 -199 -346l-602 -955q-9 -16 -26 -16h-52z" />
    <glyph glyph-name="uni041A" unicode="&#x41a;" horiz-adv-x="1210" 
d="M225 0q-13 0 -18.5 6t-5.5 21v1400q0 15 5.5 21t18.5 6h45q25 0 25 -27v-647h287l426 652q9 14 17 18t28 4h51q13 0 16.5 -8t-2.5 -19l-444 -665q79 -21 130.5 -74.5t96.5 -150.5l236 -510q7 -11 2 -19t-19 -8h-45q-20 0 -27.5 4.5t-13.5 18.5l-217 477
q-48 105 -107.5 149.5t-168.5 44.5h-246v-667q0 -27 -25 -27h-45z" />
    <glyph glyph-name="uni041A" unicode="&#x43a;" horiz-adv-x="1210" 
d="M225 0q-13 0 -18.5 6t-5.5 21v1400q0 15 5.5 21t18.5 6h45q25 0 25 -27v-647h287l426 652q9 14 17 18t28 4h51q13 0 16.5 -8t-2.5 -19l-444 -665q79 -21 130.5 -74.5t96.5 -150.5l236 -510q7 -11 2 -19t-19 -8h-45q-20 0 -27.5 4.5t-13.5 18.5l-217 477
q-48 105 -107.5 149.5t-168.5 44.5h-246v-667q0 -27 -25 -27h-45z" />
    <glyph glyph-name="uni041B" unicode="&#x41b;" horiz-adv-x="1302" 
d="M100 -25q-21 -10 -34 11l-23 39q-13 23 12 34q86 47 119 79q74 73 104 245q32 183 33 563v481q0 27 25 27h743q25 0 25 -27v-1400q0 -27 -25 -27h-47q-13 0 -18.5 6t-5.5 21v1339h-605v-420q0 -237 -16 -403.5t-37 -260.5t-67.5 -159t-80.5 -89t-102 -59z" />
    <glyph glyph-name="uni041B" unicode="&#x43b;" horiz-adv-x="1302" 
d="M100 -25q-21 -10 -34 11l-23 39q-13 23 12 34q86 47 119 79q74 73 104 245q32 183 33 563v481q0 27 25 27h743q25 0 25 -27v-1400q0 -27 -25 -27h-47q-13 0 -18.5 6t-5.5 21v1339h-605v-420q0 -237 -16 -403.5t-37 -260.5t-67.5 -159t-80.5 -89t-102 -59z" />
    <glyph glyph-name="uni041C" unicode="&#x41c;" horiz-adv-x="1611" 
d="M225 0q-13 0 -18.5 6t-5.5 21v1400q0 15 5.5 21t18.5 6h39q28 0 39 -22l504 -975l500 973q8 15 14 19.5t22 4.5h43q25 0 25 -27v-1400q0 -27 -25 -27h-43q-13 0 -18.5 6t-5.5 21v938q0 197 12 342h-4q-83 -183 -139 -291l-334 -645q-12 -23 -31 -23h-30q-23 0 -33 23
l-340 653q-62 117 -135 285h-6q12 -148 12 -344v-938q0 -27 -25 -27h-41z" />
    <glyph glyph-name="uni041C" unicode="&#x43c;" horiz-adv-x="1611" 
d="M225 0q-13 0 -18.5 6t-5.5 21v1400q0 15 5.5 21t18.5 6h39q28 0 39 -22l504 -975l500 973q8 15 14 19.5t22 4.5h43q25 0 25 -27v-1400q0 -27 -25 -27h-43q-13 0 -18.5 6t-5.5 21v938q0 197 12 342h-4q-83 -183 -139 -291l-334 -645q-12 -23 -31 -23h-30q-23 0 -33 23
l-340 653q-62 117 -135 285h-6q12 -148 12 -344v-938q0 -27 -25 -27h-41z" />
    <glyph glyph-name="uni041D" unicode="&#x41d;" horiz-adv-x="1372" 
d="M225 0q-13 0 -18.5 6t-5.5 21v1400q0 15 5.5 21t18.5 6h45q25 0 25 -27v-645h782v645q0 27 25 27h47q25 0 25 -27v-1400q0 -27 -25 -27h-47q-25 0 -25 27v665h-782v-665q0 -27 -25 -27h-45z" />
    <glyph glyph-name="uni041D" unicode="&#x43d;" horiz-adv-x="1372" 
d="M225 0q-13 0 -18.5 6t-5.5 21v1400q0 15 5.5 21t18.5 6h45q25 0 25 -27v-645h782v645q0 27 25 27h47q25 0 25 -27v-1400q0 -27 -25 -27h-47q-25 0 -25 27v665h-782v-665q0 -27 -25 -27h-45z" />
    <glyph glyph-name="uni041E" unicode="&#x41e;" horiz-adv-x="1333" 
d="M668 -29q-247 0 -379.5 134t-132.5 372v500q0 238 132.5 372t379.5 134q246 0 378 -134t132 -372v-500q0 -238 -132 -372t-378 -134zM668 59q200 0 307.5 110.5t107.5 309.5v496q0 199 -107.5 309.5t-307.5 110.5q-201 0 -308.5 -111t-107.5 -309v-496q0 -198 107.5 -309
t308.5 -111z" />
    <glyph glyph-name="uni041E" unicode="&#x43e;" horiz-adv-x="1333" 
d="M668 -29q-247 0 -379.5 134t-132.5 372v500q0 238 132.5 372t379.5 134q246 0 378 -134t132 -372v-500q0 -238 -132 -372t-378 -134zM668 59q200 0 307.5 110.5t107.5 309.5v496q0 199 -107.5 309.5t-307.5 110.5q-201 0 -308.5 -111t-107.5 -309v-496q0 -198 107.5 -309
t308.5 -111z" />
    <glyph glyph-name="uni041F" unicode="&#x41f;" horiz-adv-x="1359" 
d="M225 0q-13 0 -18.5 6t-5.5 21v1400q0 15 5.5 21t18.5 6h910q13 0 18.5 -6t5.5 -21v-1400q0 -15 -5.5 -21t-18.5 -6h-48q-22 0 -22 27v1339h-770v-1339q0 -27 -25 -27h-45z" />
    <glyph glyph-name="uni041F" unicode="&#x43f;" horiz-adv-x="1359" 
d="M225 0q-13 0 -18.5 6t-5.5 21v1400q0 15 5.5 21t18.5 6h910q13 0 18.5 -6t5.5 -21v-1400q0 -15 -5.5 -21t-18.5 -6h-48q-22 0 -22 27v1339h-770v-1339q0 -27 -25 -27h-45z" />
    <glyph glyph-name="uni0420" unicode="&#x420;" horiz-adv-x="1247" 
d="M225 0q-13 0 -18.5 6t-5.5 21v1400q0 15 5.5 21t18.5 6h504q194 0 307 -118.5t113 -327.5q0 -206 -113 -324.5t-307 -118.5h-434v-538q0 -27 -25 -27h-45zM725 655q152 0 240 93.5t88 259.5q0 168 -88 263t-240 95h-430v-711h430z" />
    <glyph glyph-name="uni0420" unicode="&#x440;" horiz-adv-x="1247" 
d="M225 0q-13 0 -18.5 6t-5.5 21v1400q0 15 5.5 21t18.5 6h504q194 0 307 -118.5t113 -327.5q0 -206 -113 -324.5t-307 -118.5h-434v-538q0 -27 -25 -27h-45zM725 655q152 0 240 93.5t88 259.5q0 168 -88 263t-240 95h-430v-711h430z" />
    <glyph glyph-name="uni0421" unicode="&#x421;" horiz-adv-x="1280" 
d="M666 -29q-244 0 -377 134.5t-133 371.5v502q0 237 131.5 370.5t378.5 133.5q215 0 331.5 -88t165.5 -269q10 -26 -14 -32l-41 -13q-25 -8 -33 15q-42 156 -135.5 227.5t-271.5 71.5q-204 0 -310 -109.5t-106 -304.5v-506q0 -195 106.5 -304.5t307.5 -109.5
q179 0 272.5 75t138.5 231q8 26 33 18l43 -14q24 -9 16 -35q-57 -184 -172 -274.5t-331 -90.5z" />
    <glyph glyph-name="uni0421" unicode="&#x441;" horiz-adv-x="1280" 
d="M666 -29q-244 0 -377 134.5t-133 371.5v502q0 237 131.5 370.5t378.5 133.5q215 0 331.5 -88t165.5 -269q10 -26 -14 -32l-41 -13q-25 -8 -33 15q-42 156 -135.5 227.5t-271.5 71.5q-204 0 -310 -109.5t-106 -304.5v-506q0 -195 106.5 -304.5t307.5 -109.5
q179 0 272.5 75t138.5 231q8 26 33 18l43 -14q24 -9 16 -35q-57 -184 -172 -274.5t-331 -90.5z" />
    <glyph glyph-name="uni0422" unicode="&#x422;" horiz-adv-x="1081" 
d="M518 0q-24 0 -24 25v1341h-412q-25 0 -25 25v36q0 27 25 27h917q25 0 25 -27v-36q0 -25 -25 -25h-411v-1341q0 -25 -25 -25h-45z" />
    <glyph glyph-name="uni0422" unicode="&#x442;" horiz-adv-x="1081" 
d="M518 0q-24 0 -24 25v1341h-412q-25 0 -25 25v36q0 27 25 27h917q25 0 25 -27v-36q0 -25 -25 -25h-411v-1341q0 -25 -25 -25h-45z" />
    <glyph glyph-name="uni0423" unicode="&#x423;" horiz-adv-x="1173" 
d="M371 0q-13 0 -17 7.5t2 19.5l183 385l-492 1015q-12 27 16 27h46q21 0 29 -4t14 -18l436 -920l434 920q6 14 12 18t25 4h49q24 0 12 -27l-657 -1404q-8 -14 -15.5 -18.5t-27.5 -4.5h-49z" />
    <glyph glyph-name="uni0423" unicode="&#x443;" horiz-adv-x="1173" 
d="M371 0q-13 0 -17 7.5t2 19.5l183 385l-492 1015q-12 27 16 27h46q21 0 29 -4t14 -18l436 -920l434 920q6 14 12 18t25 4h49q24 0 12 -27l-657 -1404q-8 -14 -15.5 -18.5t-27.5 -4.5h-49z" />
    <glyph glyph-name="uni0424" unicode="&#x424;" horiz-adv-x="1665" 
d="M809 -41q-25 0 -25 25v149h-129q-251 0 -385.5 137t-134.5 383v158q0 246 134.5 383t385.5 137h129v148q0 15 5.5 20.5t19.5 5.5h45q14 0 19.5 -5.5t5.5 -20.5v-148h131q251 0 385.5 -137t134.5 -383v-158q0 -246 -134.5 -383t-385.5 -137h-131v-149q0 -25 -25 -25h-45z
M784 219v1026h-129q-208 0 -317 -113.5t-109 -318.5v-162q0 -205 109 -318.5t317 -113.5h129zM1008 219q209 0 318.5 113.5t109.5 318.5v162q0 205 -109.5 318.5t-318.5 113.5h-129v-1026h129z" />
    <glyph glyph-name="uni0424" unicode="&#x444;" horiz-adv-x="1665" 
d="M809 -41q-25 0 -25 25v149h-129q-251 0 -385.5 137t-134.5 383v158q0 246 134.5 383t385.5 137h129v148q0 15 5.5 20.5t19.5 5.5h45q14 0 19.5 -5.5t5.5 -20.5v-148h131q251 0 385.5 -137t134.5 -383v-158q0 -246 -134.5 -383t-385.5 -137h-131v-149q0 -25 -25 -25h-45z
M784 219v1026h-129q-208 0 -317 -113.5t-109 -318.5v-162q0 -205 109 -318.5t317 -113.5h129zM1008 219q209 0 318.5 113.5t109.5 318.5v162q0 205 -109.5 318.5t-318.5 113.5h-129v-1026h129z" />
    <glyph glyph-name="uni0425" unicode="&#x425;" horiz-adv-x="1216" 
d="M78 0q-29 0 -10 31l477 708l-465 691q-6 9 -3 16.5t15 7.5h55q21 0 29 -3.5t17 -18.5l415 -619l414 619q7 15 14.5 18.5t28.5 3.5h57q12 0 16 -7.5t-1 -16.5l-469 -689l481 -710q8 -12 5 -21.5t-17 -9.5h-56q-20 0 -27 4t-16 19l-432 645l-428 -645q-7 -15 -15 -19
t-26 -4h-59z" />
    <glyph glyph-name="uni0425" unicode="&#x445;" horiz-adv-x="1216" 
d="M78 0q-29 0 -10 31l477 708l-465 691q-6 9 -3 16.5t15 7.5h55q21 0 29 -3.5t17 -18.5l415 -619l414 619q7 15 14.5 18.5t28.5 3.5h57q12 0 16 -7.5t-1 -16.5l-469 -689l481 -710q8 -12 5 -21.5t-17 -9.5h-56q-20 0 -27 4t-16 19l-432 645l-428 -645q-7 -15 -15 -19
t-26 -4h-59z" />
    <glyph glyph-name="uni0426" unicode="&#x426;" horiz-adv-x="1392" 
d="M1249 -313q-15 0 -19.5 5.5t-4.5 20.5v287h-1000q-13 0 -18.5 6t-5.5 21v1400q0 15 5.5 21t18.5 6h43q15 0 21 -6t6 -21v-1339h774v1339q0 27 25 27h43q15 0 20.5 -6t5.5 -21v-1339h127q15 0 20 -5.5t5 -19.5v-350q0 -15 -5 -20.5t-20 -5.5h-41z" />
    <glyph glyph-name="uni0426" unicode="&#x446;" horiz-adv-x="1392" 
d="M1249 -313q-15 0 -19.5 5.5t-4.5 20.5v287h-1000q-13 0 -18.5 6t-5.5 21v1400q0 15 5.5 21t18.5 6h43q15 0 21 -6t6 -21v-1339h774v1339q0 27 25 27h43q15 0 20.5 -6t5.5 -21v-1339h127q15 0 20 -5.5t5 -19.5v-350q0 -15 -5 -20.5t-20 -5.5h-41z" />
    <glyph glyph-name="uni0427" unicode="&#x427;" horiz-adv-x="1257" 
d="M987 0q-13 0 -18.5 6t-5.5 21v577q-187 -49 -375 -49q-251 0 -360 127t-109 377v368q0 15 4.5 21t17.5 6h47q25 0 25 -27v-368q0 -213 86.5 -313.5t296.5 -100.5q179 0 367 51v731q0 15 5.5 21t18.5 6h45q25 0 25 -27v-1400q0 -27 -25 -27h-45z" />
    <glyph glyph-name="uni0427" unicode="&#x447;" horiz-adv-x="1257" 
d="M987 0q-13 0 -18.5 6t-5.5 21v577q-187 -49 -375 -49q-251 0 -360 127t-109 377v368q0 15 4.5 21t17.5 6h47q25 0 25 -27v-368q0 -213 86.5 -313.5t296.5 -100.5q179 0 367 51v731q0 15 5.5 21t18.5 6h45q25 0 25 -27v-1400q0 -27 -25 -27h-45z" />
    <glyph glyph-name="uni0428" unicode="&#x428;" horiz-adv-x="1832" 
d="M225 0q-13 0 -18.5 6t-5.5 21v1400q0 15 5.5 21t18.5 6h43q27 0 27 -27v-1339h575v1339q0 27 25 27h45q25 0 25 -27v-1339h573v1339q0 27 27 27h45q13 0 18.5 -6t5.5 -21v-1400q0 -15 -5.5 -21t-18.5 -6h-1385z" />
    <glyph glyph-name="uni0428" unicode="&#x448;" horiz-adv-x="1832" 
d="M225 0q-13 0 -18.5 6t-5.5 21v1400q0 15 5.5 21t18.5 6h43q27 0 27 -27v-1339h575v1339q0 27 25 27h45q25 0 25 -27v-1339h573v1339q0 27 27 27h45q13 0 18.5 -6t5.5 -21v-1400q0 -15 -5.5 -21t-18.5 -6h-1385z" />
    <glyph glyph-name="uni0429" unicode="&#x429;" horiz-adv-x="1875" 
d="M1733 -313q-14 0 -19.5 5.5t-5.5 20.5v287h-1483q-13 0 -18.5 6t-5.5 21v1400q0 15 5.5 21t18.5 6h45q25 0 25 -27v-1339h579v1339q0 27 25 27h45q25 0 25 -27v-1339h579v1339q0 27 25 27h45q13 0 18.5 -6t5.5 -21v-1339h132q24 0 24 -25v-350q0 -15 -5 -20.5t-19 -5.5
h-41z" />
    <glyph glyph-name="uni0429" unicode="&#x449;" horiz-adv-x="1875" 
d="M1733 -313q-14 0 -19.5 5.5t-5.5 20.5v287h-1483q-13 0 -18.5 6t-5.5 21v1400q0 15 5.5 21t18.5 6h45q25 0 25 -27v-1339h579v1339q0 27 25 27h45q25 0 25 -27v-1339h579v1339q0 27 25 27h45q13 0 18.5 -6t5.5 -21v-1339h132q24 0 24 -25v-350q0 -15 -5 -20.5t-19 -5.5
h-41z" />
    <glyph glyph-name="uni042A" unicode="&#x42a;" horiz-adv-x="1456" 
d="M412 0q-25 0 -25 27v1339h-305q-25 0 -25 25v36q0 27 25 27h377q13 0 18.5 -6t5.5 -21v-538h447q197 0 311.5 -118.5t114.5 -324.5q0 -210 -114 -328t-312 -118h-518zM926 88q157 0 246.5 95t89.5 263q0 167 -89.5 260t-246.5 93h-443v-711h443z" />
    <glyph glyph-name="uni042A" unicode="&#x44a;" horiz-adv-x="1456" 
d="M412 0q-25 0 -25 27v1339h-305q-25 0 -25 25v36q0 27 25 27h377q13 0 18.5 -6t5.5 -21v-538h447q197 0 311.5 -118.5t114.5 -324.5q0 -210 -114 -328t-312 -118h-518zM926 88q157 0 246.5 95t89.5 263q0 167 -89.5 260t-246.5 93h-443v-711h443z" />
    <glyph glyph-name="uni042B" unicode="&#x42b;" horiz-adv-x="1703" 
d="M225 0q-13 0 -18.5 6t-5.5 21v1400q0 15 5.5 21t18.5 6h45q25 0 25 -27v-540h440q195 0 307.5 -116.5t112.5 -324.5t-113.5 -327t-306.5 -119h-510zM1432 0q-13 0 -18 6t-5 21v1400q0 15 5 21t18 6h47q13 0 18.5 -6t5.5 -21v-1400q0 -15 -5.5 -21t-18.5 -6h-47zM731 88
q153 0 240.5 95t87.5 263q0 167 -87.5 261t-240.5 94h-436v-713h436z" />
    <glyph glyph-name="uni042B" unicode="&#x44b;" horiz-adv-x="1703" 
d="M225 0q-13 0 -18.5 6t-5.5 21v1400q0 15 5.5 21t18.5 6h45q25 0 25 -27v-540h440q195 0 307.5 -116.5t112.5 -324.5t-113.5 -327t-306.5 -119h-510zM1432 0q-13 0 -18 6t-5 21v1400q0 15 5 21t18 6h47q13 0 18.5 -6t5.5 -21v-1400q0 -15 -5.5 -21t-18.5 -6h-47zM731 88
q153 0 240.5 95t87.5 263q0 167 -87.5 261t-240.5 94h-436v-713h436z" />
    <glyph glyph-name="uni042C" unicode="&#x42c;" horiz-adv-x="1247" 
d="M225 0q-13 0 -18.5 6t-5.5 21v1400q0 15 5.5 21t18.5 6h45q25 0 25 -27v-538h436q193 0 305.5 -118.5t112.5 -324.5q0 -209 -112.5 -327.5t-305.5 -118.5h-506zM727 88q151 0 238.5 95t87.5 263q0 166 -87 259.5t-239 93.5h-432v-711h432z" />
    <glyph glyph-name="uni042C" unicode="&#x44c;" horiz-adv-x="1247" 
d="M225 0q-13 0 -18.5 6t-5.5 21v1400q0 15 5.5 21t18.5 6h45q25 0 25 -27v-538h436q193 0 305.5 -118.5t112.5 -324.5q0 -209 -112.5 -327.5t-305.5 -118.5h-506zM727 88q151 0 238.5 95t87.5 263q0 166 -87 259.5t-239 93.5h-432v-711h432z" />
    <glyph glyph-name="uni042D" unicode="&#x42d;" horiz-adv-x="1288" 
d="M623 -29q-218 0 -336 91.5t-166 273.5q-9 27 16 33l39 14q25 8 33 -16q43 -157 139 -232.5t275 -75.5q201 0 308 109.5t107 304.5v219h-608q-24 0 -24 25v37q0 15 5 20.5t19 5.5h608v203q0 195 -105.5 303.5t-309.5 108.5q-177 0 -272.5 -71t-137.5 -226q-10 -23 -33 -17
l-39 13q-24 9 -16 34q51 179 168.5 267t329.5 88q248 0 379 -132.5t131 -369.5v-506q0 -237 -132.5 -370.5t-377.5 -133.5z" />
    <glyph glyph-name="uni042D" unicode="&#x44d;" horiz-adv-x="1288" 
d="M623 -29q-218 0 -336 91.5t-166 273.5q-9 27 16 33l39 14q25 8 33 -16q43 -157 139 -232.5t275 -75.5q201 0 308 109.5t107 304.5v219h-608q-24 0 -24 25v37q0 15 5 20.5t19 5.5h608v203q0 195 -105.5 303.5t-309.5 108.5q-177 0 -272.5 -71t-137.5 -226q-10 -23 -33 -17
l-39 13q-24 9 -16 34q51 179 168.5 267t329.5 88q248 0 379 -132.5t131 -369.5v-506q0 -237 -132.5 -370.5t-377.5 -133.5z" />
    <glyph glyph-name="uni042E" unicode="&#x42e;" horiz-adv-x="1849" 
d="M1178 -29q-251 0 -385 133t-134 369v219h-364v-665q0 -27 -25 -27h-45q-13 0 -18.5 6t-5.5 21v1400q0 15 5.5 21t18.5 6h45q25 0 25 -27v-645h364v199q0 236 134 369t385 133q249 0 381.5 -133t132.5 -369v-508q0 -236 -132.5 -369t-381.5 -133zM1178 59q203 0 311 109.5
t108 306.5v504q0 197 -108 306.5t-311 109.5q-207 0 -315.5 -109t-108.5 -307v-504q0 -198 108.5 -307t315.5 -109z" />
    <glyph glyph-name="uni042E" unicode="&#x44e;" horiz-adv-x="1849" 
d="M1178 -29q-251 0 -385 133t-134 369v219h-364v-665q0 -27 -25 -27h-45q-13 0 -18.5 6t-5.5 21v1400q0 15 5.5 21t18.5 6h45q25 0 25 -27v-645h364v199q0 236 134 369t385 133q249 0 381.5 -133t132.5 -369v-508q0 -236 -132.5 -369t-381.5 -133zM1178 59q203 0 311 109.5
t108 306.5v504q0 197 -108 306.5t-311 109.5q-207 0 -315.5 -109t-108.5 -307v-504q0 -198 108.5 -307t315.5 -109z" />
    <glyph glyph-name="uni042F" unicode="&#x42f;" horiz-adv-x="1290" 
d="M129 0q-14 0 -18.5 8t2.5 19l200 454q28 65 63.5 106.5t88.5 63.5q-153 19 -236.5 119.5t-83.5 273.5q0 194 103 302t284 108h535q25 0 25 -27v-1400q0 -27 -25 -27h-47q-25 0 -25 27v612h-315q-110 0 -173 -45t-108 -150l-182 -421q-8 -14 -17 -18.5t-32 -4.5h-39z
M995 727v639h-460q-138 0 -215.5 -84.5t-77.5 -237.5q0 -152 77.5 -234.5t215.5 -82.5h460z" />
    <glyph glyph-name="uni042F" unicode="&#x44f;" horiz-adv-x="1290" 
d="M129 0q-14 0 -18.5 8t2.5 19l200 454q28 65 63.5 106.5t88.5 63.5q-153 19 -236.5 119.5t-83.5 273.5q0 194 103 302t284 108h535q25 0 25 -27v-1400q0 -27 -25 -27h-47q-25 0 -25 27v612h-315q-110 0 -173 -45t-108 -150l-182 -421q-8 -14 -17 -18.5t-32 -4.5h-39z
M995 727v639h-460q-138 0 -215.5 -84.5t-77.5 -237.5q0 -152 77.5 -234.5t215.5 -82.5h460z" />
    <glyph glyph-name="Wgrave" unicode="&#x1e80;" horiz-adv-x="1796" 
d="M727 1769q-22 9 -2 29l20 25q18 18 46 0l280 -215q19 -13 4 -31l-12 -16q-12 -12 -33 0zM483 0q-29 0 -34 23l-367 1407q-9 24 16 24h54q17 0 22.5 -4t7.5 -18l283 -1102q26 -110 39 -195h4q5 31 13 64t18 72t14 57l295 1071q5 24 33 24h41q29 0 34 -24l291 -1073
q4 -14 43 -191h4q24 125 39 189l283 1108q3 14 9.5 18t23.5 4h49q24 0 18 -24l-368 -1405q-5 -25 -33 -25h-47q-27 0 -35 23l-289 1079q-2 6 -43 186h-4q-14 -73 -45 -186l-291 -1077q-3 -25 -33 -25h-45z" />
    <glyph glyph-name="Wgrave" unicode="&#x1e81;" horiz-adv-x="1796" 
d="M727 1769q-22 9 -2 29l20 25q18 18 46 0l280 -215q19 -13 4 -31l-12 -16q-12 -12 -33 0zM483 0q-29 0 -34 23l-367 1407q-9 24 16 24h54q17 0 22.5 -4t7.5 -18l283 -1102q26 -110 39 -195h4q5 31 13 64t18 72t14 57l295 1071q5 24 33 24h41q29 0 34 -24l291 -1073
q4 -14 43 -191h4q24 125 39 189l283 1108q3 14 9.5 18t23.5 4h49q24 0 18 -24l-368 -1405q-5 -25 -33 -25h-47q-27 0 -35 23l-289 1079q-2 6 -43 186h-4q-14 -73 -45 -186l-291 -1077q-3 -25 -33 -25h-45z" />
    <glyph glyph-name="Wacute" unicode="&#x1e82;" horiz-adv-x="1796" 
d="M776 1563q-23 -12 -35 0l-12 16q-15 18 4 31l283 215q28 16 43 -2l22 -23q17 -19 -4 -31zM483 0q-29 0 -34 23l-367 1407q-9 24 16 24h54q17 0 22.5 -4t7.5 -18l283 -1102q26 -110 39 -195h4q5 31 13 64t18 72t14 57l295 1071q5 24 33 24h41q29 0 34 -24l291 -1073
q4 -14 43 -191h4q24 125 39 189l283 1108q3 14 9.5 18t23.5 4h49q24 0 18 -24l-368 -1405q-5 -25 -33 -25h-47q-27 0 -35 23l-289 1079q-2 6 -43 186h-4q-14 -73 -45 -186l-291 -1077q-3 -25 -33 -25h-45z" />
    <glyph glyph-name="Wacute" unicode="&#x1e83;" horiz-adv-x="1796" 
d="M776 1563q-23 -12 -35 0l-12 16q-15 18 4 31l283 215q28 16 43 -2l22 -23q17 -19 -4 -31zM483 0q-29 0 -34 23l-367 1407q-9 24 16 24h54q17 0 22.5 -4t7.5 -18l283 -1102q26 -110 39 -195h4q5 31 13 64t18 72t14 57l295 1071q5 24 33 24h41q29 0 34 -24l291 -1073
q4 -14 43 -191h4q24 125 39 189l283 1108q3 14 9.5 18t23.5 4h49q24 0 18 -24l-368 -1405q-5 -25 -33 -25h-47q-27 0 -35 23l-289 1079q-2 6 -43 186h-4q-14 -73 -45 -186l-291 -1077q-3 -25 -33 -25h-45z" />
    <glyph glyph-name="Wdieresis" unicode="&#x1e84;" horiz-adv-x="1796" 
d="M717 1640q-26 0 -36.5 10t-10.5 36v14q0 26 10.5 36.5t36.5 10.5h12q27 0 37 -10t10 -37v-14q0 -26 -10 -36t-37 -10h-12zM1077 1640q-29 0 -39 9.5t-10 36.5v14q0 27 10 37t39 10h10q27 0 38.5 -10.5t11.5 -36.5v-14q0 -26 -11.5 -36t-38.5 -10h-10zM483 0q-29 0 -34 23
l-367 1407q-9 24 16 24h54q17 0 22.5 -4t7.5 -18l283 -1102q26 -110 39 -195h4q5 31 13 64t18 72t14 57l295 1071q5 24 33 24h41q29 0 34 -24l291 -1073q4 -14 43 -191h4q24 125 39 189l283 1108q3 14 9.5 18t23.5 4h49q24 0 18 -24l-368 -1405q-5 -25 -33 -25h-47
q-27 0 -35 23l-289 1079q-2 6 -43 186h-4q-14 -73 -45 -186l-291 -1077q-3 -25 -33 -25h-45z" />
    <glyph glyph-name="Wdieresis" unicode="&#x1e85;" horiz-adv-x="1796" 
d="M717 1640q-26 0 -36.5 10t-10.5 36v14q0 26 10.5 36.5t36.5 10.5h12q27 0 37 -10t10 -37v-14q0 -26 -10 -36t-37 -10h-12zM1077 1640q-29 0 -39 9.5t-10 36.5v14q0 27 10 37t39 10h10q27 0 38.5 -10.5t11.5 -36.5v-14q0 -26 -11.5 -36t-38.5 -10h-10zM483 0q-29 0 -34 23
l-367 1407q-9 24 16 24h54q17 0 22.5 -4t7.5 -18l283 -1102q26 -110 39 -195h4q5 31 13 64t18 72t14 57l295 1071q5 24 33 24h41q29 0 34 -24l291 -1073q4 -14 43 -191h4q24 125 39 189l283 1108q3 14 9.5 18t23.5 4h49q24 0 18 -24l-368 -1405q-5 -25 -33 -25h-47
q-27 0 -35 23l-289 1079q-2 6 -43 186h-4q-14 -73 -45 -186l-291 -1077q-3 -25 -33 -25h-45z" />
    <glyph glyph-name="Ygrave" unicode="&#x1ef2;" horiz-adv-x="1249" 
d="M451 1769q-22 9 -2 29l20 25q17 17 45 0l281 -215q19 -13 4 -31l-13 -16q-12 -12 -32 0zM602 0q-13 0 -18.5 6t-5.5 21v573l-512 827q-6 11 -2.5 19t16.5 8h53q21 0 28 -4t15 -18l451 -742l450 742q8 14 15 18t28 4h51q13 0 17 -8t-2 -19l-514 -831v-569q0 -27 -25 -27
h-45z" />
    <glyph glyph-name="Ygrave" unicode="&#x1ef3;" horiz-adv-x="1249" 
d="M451 1769q-22 9 -2 29l20 25q17 17 45 0l281 -215q19 -13 4 -31l-13 -16q-12 -12 -32 0zM602 0q-13 0 -18.5 6t-5.5 21v573l-512 827q-6 11 -2.5 19t16.5 8h53q21 0 28 -4t15 -18l451 -742l450 742q8 14 15 18t28 4h51q13 0 17 -8t-2 -19l-514 -831v-569q0 -27 -25 -27
h-45z" />
    <glyph glyph-name="endash" unicode="&#x2013;" horiz-adv-x="1232" 
d="M186 668q-22 0 -22 26v35q0 25 22 25h861q22 0 22 -25v-35q0 -26 -22 -26h-861z" />
    <glyph glyph-name="emdash" unicode="&#x2014;" horiz-adv-x="1642" 
d="M188 668q-14 0 -19 5.5t-5 20.5v35q0 25 24 25h1266q25 0 25 -25v-35q0 -15 -5.5 -20.5t-19.5 -5.5h-1266z" />
    <glyph glyph-name="quoteleft" unicode="&#x2018;" horiz-adv-x="442" 
d="M301 1454q12 0 15 -3.5t1 -14.5l-77 -322q-3 -18 -11 -24.5t-26 -6.5h-37q-39 0 -27 31l113 316q5 24 29 24h20z" />
    <glyph glyph-name="quoteright" unicode="&#x2019;" horiz-adv-x="434" 
d="M164 1083q-22 0 -19 19l78 321q4 19 12 25t25 6h39q37 0 25 -31l-111 -317q-9 -23 -31 -23h-18z" />
    <glyph glyph-name="quotesinglbase" unicode="&#x201a;" horiz-adv-x="382" 
d="M174 -238q-24 0 -24 25v414q0 13 5 18.5t19 5.5h39q26 0 23 -24l-19 -414q-3 -25 -24 -25h-19z" />
    <glyph glyph-name="quotedblleft" unicode="&#x201c;" horiz-adv-x="657" 
d="M303 1454q12 0 16 -4t3 -14l-78 -322q-4 -19 -12 -25t-25 -6h-39q-36 0 -27 31l113 316q8 24 31 24h18zM518 1454q12 0 16 -4t3 -14l-78 -322q-4 -19 -12 -25t-25 -6h-39q-36 0 -27 31l113 316q8 24 31 24h18z" />
    <glyph glyph-name="quotedblright" unicode="&#x201d;" horiz-adv-x="649" 
d="M164 1083q-22 0 -19 19l78 321q4 19 12 25t25 6h39q37 0 25 -31l-111 -317q-9 -23 -31 -23h-18zM379 1083q-22 0 -19 19l78 321q4 19 12 25t25 6h39q37 0 25 -31l-111 -317q-9 -23 -31 -23h-18z" />
    <glyph glyph-name="quotedblbase" unicode="&#x201e;" horiz-adv-x="610" 
d="M88 -248q-19 0 -16 19l78 321q4 19 11.5 25t24.5 6h39q37 0 25 -31l-111 -317q-5 -13 -11 -18t-19 -5h-21zM303 -248q-19 0 -16 19l78 321q4 19 11.5 25t24.5 6h39q37 0 25 -31l-111 -317q-5 -13 -11 -18t-19 -5h-21z" />
    <glyph glyph-name="dagger" unicode="&#x2020;" horiz-adv-x="1140" 
d="M553 -205q-25 0 -25 27v1044h-401q-27 0 -27 25v37q0 15 6 20.5t21 5.5h401v473q0 27 25 27h39q15 0 20.5 -6t5.5 -21v-473h398q15 0 20.5 -5.5t5.5 -20.5v-37q0 -14 -5.5 -19.5t-20.5 -5.5h-398v-1044q0 -15 -5.5 -21t-20.5 -6h-39z" />
    <glyph glyph-name="daggerdbl" unicode="&#x2021;" horiz-adv-x="1236" 
d="M600 -205q-25 0 -25 27v471h-401q-14 0 -19 5.5t-5 18.5v37q0 15 5.5 21t18.5 6h401v485h-401q-27 0 -27 25v37q0 15 6 20.5t21 5.5h401v473q0 27 25 27h39q15 0 21 -6t6 -21v-473h397q15 0 21 -5.5t6 -20.5v-37q0 -25 -27 -25h-397v-485h399q25 0 25 -27v-37
q0 -24 -25 -24h-399v-471q0 -15 -6 -21t-21 -6h-39z" />
    <glyph glyph-name="bullet" unicode="&#x2022;" horiz-adv-x="622" 
d="M311 430q-46 0 -77 31t-31 78t31 78.5t77 31.5t77.5 -31.5t31.5 -78.5t-31.5 -78t-77.5 -31z" />
    <glyph glyph-name="ellipsis" unicode="&#x2026;" horiz-adv-x="1208" 
d="M199 -12q-34 0 -47 12t-13 47v10q0 34 13 47t47 13h10q34 0 46.5 -13t12.5 -47v-10q0 -34 -12.5 -46.5t-46.5 -12.5h-10zM602 -12q-34 0 -46.5 11.5t-12.5 47.5v10q0 34 12.5 47t46.5 13h10q33 0 46.5 -13.5t13.5 -46.5v-10q0 -33 -13.5 -46t-46.5 -13h-10zM1004 -12
q-34 0 -47 12t-13 47v10q0 33 13.5 46.5t46.5 13.5h10q34 0 46.5 -13t12.5 -47v-10q0 -34 -12.5 -46.5t-46.5 -12.5h-10z" />
    <glyph glyph-name="perthousand" unicode="&#x2030;" horiz-adv-x="2437" 
d="M420 735q-149 0 -229 78.5t-80 218.5v152q0 140 80 219.5t229 79.5t229 -79.5t80 -219.5v-152q0 -140 -80 -218.5t-229 -78.5zM309 0q-13 0 -16.5 8t2.5 19l1010 1405q11 15 18 18.5t27 3.5h39q13 0 16.5 -7.5t-4.5 -19.5l-1008 -1404q-11 -15 -19 -19t-30 -4h-35z
M420 809q113 0 173 60t60 167v144q0 108 -60 168.5t-173 60.5t-173.5 -60.5t-60.5 -168.5v-144q0 -107 60.5 -167t173.5 -60zM1274 -29q-148 0 -228.5 79t-80.5 218v150q0 141 80.5 221t228.5 80q149 0 230 -80t81 -221v-150q0 -139 -81 -218t-230 -79zM2023 -29
q-149 0 -229 78.5t-80 218.5v150q0 141 80 221t229 80t229.5 -80t80.5 -221v-150q0 -140 -80.5 -218.5t-229.5 -78.5zM1276 45q112 0 172.5 59.5t60.5 167.5v144q0 108 -60.5 168.5t-172.5 60.5q-113 0 -173.5 -60.5t-60.5 -168.5v-144q0 -108 60.5 -167.5t173.5 -59.5z
M2023 45q113 0 173.5 59.5t60.5 167.5v144q0 108 -60.5 168.5t-173.5 60.5t-173 -60.5t-60 -168.5v-144q0 -108 60 -167.5t173 -59.5z" />
    <glyph glyph-name="guilsinglleft" unicode="&#x2039;" horiz-adv-x="714" 
d="M115 717q-13 16 0 31l409 417q13 13 29 0l20 -20q15 -15 2 -31l-374 -381l372 -377q15 -15 0 -30l-24 -23q-13 -13 -29 2z" />
    <glyph glyph-name="guilsinglright" unicode="&#x203a;" horiz-adv-x="712" 
d="M193 305q-14 -17 -29 -2l-25 23q-15 15 0 30l373 377l-375 381q-13 16 2 31l21 20q15 13 28 0l410 -417q13 -15 0 -31z" />
    <glyph glyph-name="fraction" unicode="&#x2044;" horiz-adv-x="333" 
d="M-295 0q-13 0 -16.5 7.5t4.5 19.5l866 1403q9 17 15.5 20.5t25.5 3.5h31q13 0 16.5 -7.5t-4.5 -19.5l-862 -1402q-11 -16 -18.5 -20.5t-26.5 -4.5h-31z" />
    <glyph glyph-name="Euro" unicode="&#x20ac;" horiz-adv-x="1525" 
d="M877 -31q-255 0 -395.5 128.5t-145.5 361.5v67h-219q-25 0 -19 25l8 27q7 22 29 22h201v234h-148q-24 0 -16 24l8 27q5 22 29 22h125v84q2 232 143 363t400 131q194 0 310 -63t177 -187q9 -17 6.5 -26t-16.5 -17l-33 -14q-26 -10 -39 14q-35 67 -83.5 110.5t-129.5 69
t-192 25.5q-216 0 -330.5 -106.5t-114.5 -295.5v-88h674q24 0 16 -22l-8 -29q-6 -22 -31 -22h-655v-234h590q24 0 16 -22l-8 -29q-9 -23 -31 -23h-563v-67q2 -188 118 -295t327 -107q170 0 264 55.5t147 168.5q12 24 37 14l39 -19q29 -12 12 -40q-59 -133 -178 -200
t-321 -67z" />
    <glyph glyph-name="uni20BD" unicode="&#x20bd;" horiz-adv-x="1355" 
d="M264 0q-13 0 -18.5 6t-5.5 21v278h-107q-27 0 -27 25v22q0 25 27 25h107v1050q0 15 5.5 21t18.5 6h539q206 0 326 -113t120 -315q0 -200 -120 -311t-326 -111h-469v-227h729q24 0 24 -25v-22q0 -25 -24 -25h-729v-278q0 -15 -5 -21t-18 -6h-47zM799 690q166 0 260 87.5
t94 248.5q0 162 -94 251t-260 89h-465v-676h465z" />
    <glyph glyph-name="uni2113" unicode="&#x2113;" horiz-adv-x="923" 
d="M582 -16q-153 0 -221 80.5t-68 244.5v142q-19 -14 -50.5 -36.5t-57 -41.5t-46.5 -35q-19 -12 -28 6l-23 35q-12 20 6 29q179 128 199 143v606q0 177 76 257.5t196 80.5q119 0 189.5 -77t70.5 -230q0 -94 -34 -185t-98.5 -176.5t-140.5 -160t-177 -154.5v-182
q0 -136 46.5 -200t162.5 -64q53 0 100.5 19.5t75.5 43.5q15 12 24 0l29 -37q13 -13 -2 -26q-34 -32 -95.5 -57t-133.5 -25zM375 623q172 139 270 277.5t98 289.5q0 117 -49.5 173t-130.5 56q-84 0 -136 -62t-52 -200v-534z" />
    <glyph glyph-name="uni2116" unicode="&#x2116;" horiz-adv-x="2164" 
d="M1706 735q-149 0 -230 79t-81 218v152q0 141 81 221t230 80q151 0 232 -80t81 -221v-152q0 -140 -81 -218.5t-232 -78.5zM201 0q-25 0 -25 27v1400q0 27 25 27h53q16 0 27 -14l634 -1010q28 -45 54.5 -90.5t66 -117t49.5 -89.5h5q-15 302 -15 373v924q0 13 6 18.5t21 5.5
h43q13 0 17.5 -6t4.5 -21v-1400q0 -15 -4.5 -21t-17.5 -6h-51q-20 0 -29 16l-653 1037q-45 73 -148 266h-4q1 -36 5.5 -153t4.5 -185v-954q0 -27 -26 -27h-43zM1706 809q113 0 174.5 59.5t61.5 167.5v146q0 108 -61.5 168.5t-174.5 60.5q-112 0 -172.5 -60.5t-60.5 -168.5
v-146q0 -108 60.5 -167.5t172.5 -59.5zM1419 506q-15 0 -20.5 5t-5.5 19v31q0 14 5.5 19.5t20.5 5.5h576q15 0 20.5 -5.5t5.5 -19.5v-31q0 -14 -5.5 -19t-20.5 -5h-576z" />
    <glyph glyph-name="uni2117" unicode="&#x2117;" horiz-adv-x="1646" 
d="M825 -16q-327 0 -511.5 194t-184.5 541t184.5 541t511.5 194q326 0 509.5 -194t183.5 -541t-183.5 -541t-509.5 -194zM825 43q298 0 464.5 179t166.5 497t-166.5 496t-464.5 178q-299 0 -467 -178t-168 -496t168 -497t467 -179zM604 305q-12 0 -15 4t-3 17v766
q0 14 3.5 18t16.5 4h273q126 0 199 -72.5t73 -203.5q0 -129 -73 -200t-199 -71h-228v-241q0 -12 -4 -16.5t-14 -4.5h-29zM879 627q98 0 153 54.5t55 156.5t-55 157.5t-153 55.5h-228v-424h228z" />
    <glyph glyph-name="trademark" unicode="&#x2122;" horiz-adv-x="1251" 
d="M512 1423q12 0 16 -3.5t4 -16.5v-17q0 -12 -4 -15t-16 -3h-154v-440q0 -21 -22 -21h-17q-12 0 -16 4.5t-4 16.5v440h-158q-12 0 -15 3t-3 15v17q0 13 3 16.5t15 3.5h371zM1049 1423q12 0 16 -3t4 -15v-477q0 -12 -4 -16.5t-16 -4.5h-17q-12 0 -15 4t-3 17v278q0 72 2 107
q-6 -14 -22 -38t-17 -26l-125 -209q-4 -9 -8 -10.5t-15 -1.5h-6q-16 0 -22 10l-125 209q-7 11 -19.5 34t-19.5 34q4 -82 4 -109v-278q0 -13 -3 -17t-15 -4h-19q-12 0 -15 4t-3 17v475q0 13 3 16.5t17 3.5h10q15 0 25 -12l186 -315l185 313q10 14 24 14h13z" />
    <glyph glyph-name="uni2126" unicode="&#x2126;" horiz-adv-x="1564" 
d="M152 0q-25 0 -25 27v39q0 15 5.5 20.5t19.5 5.5h374q-181 112 -278.5 287t-97.5 397q0 315 175 511t457 196q284 0 458.5 -195t174.5 -510q0 -229 -100.5 -405t-274.5 -281h373q14 0 19.5 -5.5t5.5 -20.5v-39q0 -27 -25 -27h-495q-21 0 -21 23v32q0 18 14 25
q190 100 301 277t111 407q0 280 -150 455.5t-391 175.5t-390.5 -174.5t-149.5 -454.5q0 -225 105 -400t304 -286q17 -8 17 -27v-30q0 -23 -21 -23h-495z" />
    <glyph glyph-name="estimated" unicode="&#x212e;" horiz-adv-x="1751" 
d="M887 -31q-154 0 -294.5 60t-242 161.5t-161.5 242t-60 294.5t60 294.5t161.5 242t242 161.5t294.5 60t294.5 -60t242 -161.5t161.5 -242t60 -294.5v-33q0 -30 -33 -30h-1127v-439q189 -141 402 -141q181 0 338 98t241 269q7 15 17.5 19.5t32.5 4.5h53q19 0 22.5 -5
t-2.5 -24q-84 -211 -274 -344t-428 -133zM1288 776v461q-177 141 -401 141q-220 0 -402 -139v-463h803z" />
    <glyph glyph-name="uni2153" unicode="&#x2153;" horiz-adv-x="1685" 
d="M369 655q-25 0 -25 27v684l-197 -111q-22 -14 -36 11l-11 16q-12 21 13 37l233 137q13 8 33 8h16q14 0 19.5 -5.5t5.5 -20.5v-756q0 -27 -25 -27h-26zM319 0q-13 0 -16.5 7.5t4.5 19.5l864 1403q10 17 17 20.5t26 3.5h31q13 0 16.5 -7.5t-4.5 -19.5l-862 -1402
q-11 -16 -19 -20.5t-26 -4.5h-31zM1321 -16q-118 0 -186 54.5t-93 164.5q-4 15 -1 21t14 9l24 11q13 3 18.5 0t10.5 -17q22 -92 71 -133t140 -41q85 0 130.5 45.5t45.5 120.5q0 67 -37 113.5t-94 46.5h-127q-12 0 -15 4.5t-3 19.5v21q0 18 3.5 22.5t16.5 4.5h121q57 0 87 41
t30 102q0 73 -43.5 117.5t-116.5 44.5q-87 0 -134.5 -36.5t-70.5 -127.5q-6 -15 -13 -19t-22 2l-18 7q-19 9 -12 30q30 117 93.5 165t180.5 48q107 0 168 -62t61 -163q0 -132 -98 -180q119 -60 119 -205q0 -106 -64 -168.5t-186 -62.5z" />
    <glyph glyph-name="uni2154" unicode="&#x2154;" horiz-adv-x="1732" 
d="M158 655q-27 0 -27 27v88q0 95 34 155t109 93l111 47q10 5 36.5 15.5t37 16t30.5 16.5t29 21.5t20 26t15 35.5t4 45q0 80 -41.5 124t-124.5 44q-81 0 -128.5 -49t-57.5 -113q-4 -13 -10.5 -16t-18.5 0l-26 8q-23 6 -15 31q16 85 82 149t178 64q117 0 178.5 -64t61.5 -174
q0 -43 -11 -77t-27.5 -56t-45 -41t-52.5 -31t-60 -27q-11 -5 -17 -7l-107 -48q-52 -22 -76 -59.5t-24 -103.5v-68h393q23 0 23 -25v-24q0 -23 -23 -23h-450zM424 0q-15 0 -18 7.5t6 19.5l864 1403q9 17 15.5 20.5t27.5 3.5h29q14 0 17.5 -7.5t-3.5 -19.5l-864 -1402
q-9 -16 -17 -20.5t-28 -4.5h-29zM1370 -16q-118 0 -185.5 54.5t-92.5 164.5q-7 24 10 30l26 11q13 3 18.5 0t10.5 -17q22 -92 71 -133t140 -41q85 0 130.5 45.5t45.5 120.5q0 67 -37 113.5t-94 46.5h-127q-12 0 -15 4.5t-3 19.5v21q0 17 3 22t15 5h123q57 0 87 41t30 102
q0 73 -43.5 117.5t-116.5 44.5q-87 0 -135 -36.5t-72 -127.5q-5 -15 -11.5 -19t-21.5 2l-20 7q-17 10 -10 30q30 117 93.5 165t180.5 48q107 0 168 -62t61 -163q0 -132 -98 -180q119 -60 119 -205q0 -106 -64 -168.5t-186 -62.5z" />
    <glyph glyph-name="oneeighth" unicode="&#x215b;" horiz-adv-x="1687" 
d="M371 655q-15 0 -21 6t-6 21v684l-194 -111q-25 -16 -37 11l-13 16q-11 20 13 37l235 137q13 8 33 8h14q15 0 21 -5.5t6 -20.5v-756q0 -15 -6 -21t-21 -6h-24zM317 0q-13 0 -16.5 7.5t4.5 19.5l864 1403q10 17 17 20.5t26 3.5h31q13 0 16.5 -7.5t-4.5 -19.5l-862 -1402
q-11 -16 -19 -20.5t-26 -4.5h-31zM1300 -16q-134 0 -206 55.5t-72 159.5q0 146 156 213q-70 27 -102 74t-32 118q0 105 68.5 163t187.5 58t185.5 -55.5t66.5 -151.5q0 -143 -135 -204q160 -48 160 -195q0 -118 -72 -176.5t-205 -58.5zM1331 438q20 5 40 14.5t46.5 28.5
t43 52.5t16.5 76.5q0 70 -46 111t-131 41q-86 0 -134 -41.5t-48 -118.5q0 -73 46 -108.5t167 -55.5zM1300 47q95 0 147 42t52 128q0 73 -51 108.5t-182 55.5q-74 -22 -110 -52q-56 -48 -56 -124q0 -75 52.5 -116.5t147.5 -41.5z" />
    <glyph glyph-name="threeeighths" unicode="&#x215c;" horiz-adv-x="1759" 
d="M395 641q-118 0 -184.5 54t-93.5 165q-7 25 12 31l27 10q12 3 17 0t11 -16q20 -92 69.5 -133t141.5 -41q85 0 130.5 45.5t45.5 120.5q0 67 -37 113t-96 46h-127q-11 0 -14.5 5t-3.5 20v20q0 18 3.5 22.5t16.5 4.5h121q57 0 88 41t31 102q0 73 -44 117.5t-118 44.5
q-86 0 -134 -36.5t-71 -127.5q-6 -16 -11.5 -18.5t-20.5 2.5l-21 6q-19 10 -12 31q30 117 94 165t180 48q105 0 167.5 -62.5t64.5 -163.5q-3 -132 -99 -180q57 -29 88 -82.5t31 -122.5q0 -106 -64.5 -168.5t-187.5 -62.5zM414 0q-15 0 -18.5 7.5t5.5 19.5l865 1403
q10 17 17 20.5t26 3.5h30q13 0 17 -7.5t-4 -19.5l-863 -1402q-11 -16 -19 -20.5t-28 -4.5h-28zM1376 -16q-134 0 -206 55.5t-72 159.5q0 147 155 213q-70 27 -101.5 74t-31.5 118q0 105 68.5 163t187.5 58t185.5 -55.5t66.5 -151.5q0 -143 -135 -204q160 -48 160 -195
q0 -118 -72 -176.5t-205 -58.5zM1407 438q20 5 40.5 14.5t47 28.5t43 52.5t16.5 76.5q0 70 -46.5 111t-131.5 41q-86 0 -134 -41.5t-48 -118.5q0 -73 46 -108.5t167 -55.5zM1376 47q95 0 147 42t52 128q0 73 -51 108.5t-183 55.5q-74 -22 -110 -53q-55 -48 -55 -123
t52.5 -116.5t147.5 -41.5z" />
    <glyph glyph-name="fiveeighths" unicode="&#x215d;" horiz-adv-x="1712" 
d="M375 645q-115 0 -178 54.5t-91 162.5q-8 26 11 35l28 8q20 8 31 -14q18 -88 64.5 -132t132.5 -44q90 0 136 53t46 135q0 178 -190 178h-205q-23 0 -23 27l31 336q0 26 29 26h387q18 0 18 -20v-29q0 -12 -3.5 -16t-14.5 -4h-348l-25 -252h158q129 0 194.5 -65t65.5 -179
q0 -116 -64.5 -188t-189.5 -72zM369 0q-15 0 -18.5 7.5t5.5 19.5l865 1403q10 17 16.5 20.5t26.5 3.5h28q14 0 18 -7.5t-3 -19.5l-863 -1402q-11 -16 -19 -20.5t-28 -4.5h-28zM1327 -16q-133 0 -205.5 55.5t-72.5 159.5q0 147 155 213q-70 27 -101.5 74t-31.5 118
q0 105 68.5 163t187.5 58t185.5 -55.5t66.5 -151.5q0 -143 -135 -204q160 -48 160 -195q0 -118 -72 -176.5t-205 -58.5zM1358 438q20 5 40.5 14.5t47 28.5t43 52.5t16.5 76.5q0 70 -46.5 111t-131.5 41q-86 0 -134 -41.5t-48 -118.5q0 -73 46 -108.5t167 -55.5zM1327 47
q95 0 147 42t52 128q0 73 -51 108.5t-183 55.5q-74 -22 -110 -52q-56 -48 -56 -124q0 -75 53 -116.5t148 -41.5z" />
    <glyph glyph-name="seveneighths" unicode="&#x215e;" horiz-adv-x="1654" 
d="M221 657q-25 0 -14 27l301 711h-391q-19 0 -19 18v33q0 12 4.5 16t16.5 4h454q12 0 16.5 -4t4.5 -16v-19q0 -16 -4 -26l-305 -727q-5 -11 -10.5 -14t-22.5 -3h-31zM248 0q-13 0 -16.5 7.5t4.5 19.5l866 1403q9 17 15.5 20.5t27.5 3.5h29q14 0 17.5 -7.5t-5.5 -19.5
l-862 -1402q-11 -16 -18.5 -20.5t-26.5 -4.5h-31zM1270 -16q-133 0 -205 55.5t-72 159.5q0 147 154 213q-70 27 -101.5 74t-31.5 118q0 105 68.5 163t187.5 58t185.5 -55.5t66.5 -151.5q0 -142 -136 -204q160 -48 160 -195q0 -118 -71.5 -176.5t-204.5 -58.5zM1300 438
q20 5 40.5 14.5t47.5 28.5t43.5 52.5t16.5 76.5q0 70 -46.5 111t-131.5 41q-86 0 -134.5 -41.5t-48.5 -118.5q0 -73 46.5 -108.5t166.5 -55.5zM1272 47q93 0 144.5 42t51.5 128q0 73 -51 108.5t-182 55.5q-76 -22 -112 -55q-52 -47 -52 -121q0 -75 53 -116.5t148 -41.5z" />
    <glyph glyph-name="arrowleft" unicode="&#x2190;" horiz-adv-x="1583" 
d="M633 158q-14 -17 -31 0l-498 504q-20 22 0 45l498 503q16 16 31 2l24 -24q17 -14 0 -31l-430 -436h1205q20 0 20 -21v-32q0 -12 -4 -16.5t-16 -4.5h-1205l430 -436q15 -15 0 -31z" />
    <glyph glyph-name="arrowup" unicode="&#x2191;" horiz-adv-x="1509" 
d="M735 2q-20 0 -20 23v1210l-426 -432q-12 -14 -29 0l-24 22q-14 15 2 31l495 504q22 22 41 0l496 -504q16 -16 2 -31l-23 -22q-15 -15 -28 0l-428 432v-1210q0 -23 -21 -23h-37z" />
    <glyph glyph-name="arrowright" unicode="&#x2192;" horiz-adv-x="1570" 
d="M920 180q-16 14 -2 31l432 436h-1205q-22 0 -22 21v32q0 21 22 21h1205l-432 436q-16 15 0 31l24 24q17 14 31 -2l500 -503q20 -22 -3 -45l-497 -504q-15 -17 -29 0z" />
    <glyph glyph-name="arrowdown" unicode="&#x2193;" horiz-adv-x="1509" 
d="M238 520q-16 16 -2 31l24 22q17 14 29 0l426 -432v1211q0 22 20 22h37q21 0 21 -22v-1211l428 432q13 15 28 0l23 -22q14 -15 -2 -31l-496 -504q-19 -22 -41 0z" />
    <glyph glyph-name="uni2196" unicode="&#x2196;" horiz-adv-x="1507" 
d="M248 203q-16 17 0 33l848 868h-609q-13 0 -17.5 5t-4.5 17v31q0 21 22 21h703q17 0 23 -6.5t6 -24.5v-713q0 -13 -4 -17.5t-15 -4.5h-35q-12 0 -16 5t-4 17v619l-848 -869q-14 -17 -31 0z" />
    <glyph glyph-name="uni2197" unicode="&#x2197;" horiz-adv-x="1501" 
d="M358 1053v-619q0 -12 -4 -17t-16 -5h-35q-11 0 -14.5 4.5t-3.5 17.5v713q0 18 5.5 24.5t22.5 6.5h703q22 0 22 -21v-31q0 -12 -4.5 -17t-17.5 -5h-608l849 -868q14 -16 0 -33l-20 -19q-15 -16 -31 0z" />
    <glyph glyph-name="uni2198" unicode="&#x2198;" horiz-adv-x="1501" 
d="M487 174q-20 0 -20 23v30q0 8 1 12.5t5.5 7.5t13.5 3h611l-850 868q-16 16 0 31l18 20q17 14 31 0l848 -870v621q0 12 4 17t16 5h35q21 0 21 -22v-713q0 -19 -7 -26t-24 -7h-703z" />
    <glyph glyph-name="uni2199" unicode="&#x2199;" horiz-adv-x="1507" 
d="M313 174q-17 0 -22.5 7t-5.5 26v713q0 22 18 22h35q12 0 16 -5t4 -17v-621l848 870q16 15 31 0l18 -20q17 -14 0 -31l-847 -868h608q22 0 22 -23v-30q0 -23 -22 -23h-703z" />
    <glyph glyph-name="partialdiff" unicode="&#x2202;" horiz-adv-x="1107" 
d="M543 -29q-199 0 -301.5 101t-102.5 286v295q0 186 101 288.5t290 102.5q123 0 207.5 -50t120.5 -138q-3 151 -33 257t-94.5 180t-168.5 108.5t-255 34.5q-15 0 -19.5 5t-4.5 19v33q0 14 4.5 19.5t17.5 5.5q176 0 298 -42t197 -130t108.5 -214.5t33.5 -304.5v-469
q0 -185 -102 -286t-297 -101zM543 53q152 0 231.5 80t79.5 225v295q0 148 -79.5 229t-231.5 81q-155 0 -235.5 -81.5t-80.5 -228.5v-295q0 -145 80.5 -225t235.5 -80z" />
    <glyph glyph-name="uni2206" unicode="&#x2206;" horiz-adv-x="1290" 
d="M115 0q-25 0 -25 27v30q0 20 12 52l488 1325q8 20 35 20h41q26 0 34 -20l488 -1325q12 -32 12 -52v-30q0 -15 -5.5 -21t-18.5 -6h-1061zM1100 82l-322 887q-25 73 -69 204.5t-62 184.5h-6q-99 -303 -131 -389l-320 -887h910z" />
    <glyph glyph-name="product" unicode="&#x220f;" horiz-adv-x="1390" 
d="M287 -205q-25 0 -25 27v1544h-139q-25 0 -25 25v36q0 27 25 27h1145q13 0 18.5 -6t5.5 -21v-36q0 -25 -24 -25h-135v-1544q0 -27 -25 -27h-45q-25 0 -25 27v1544h-682v-1544q0 -15 -5.5 -21t-18.5 -6h-45z" />
    <glyph glyph-name="summation" unicode="&#x2211;" horiz-adv-x="1191" 
d="M127 -205q-25 0 -25 27v35q0 14 9 26l442 752l-436 727q-8 13 -8 31v34q0 15 5.5 21t18.5 6h899q23 0 23 -27v-36q0 -25 -23 -25h-813l420 -702q11 -15 11 -27t-11 -31l-422 -723h821q25 0 25 -24v-37q0 -27 -25 -27h-911z" />
    <glyph glyph-name="minus" unicode="&#x2212;" horiz-adv-x="1277" 
d="M190 623q-14 0 -19 5.5t-5 20.5v35q0 25 24 25h897q25 0 25 -25v-35q0 -15 -5.5 -20.5t-19.5 -5.5h-897z" />
    <glyph glyph-name="uni2215" unicode="&#x2215;" horiz-adv-x="1196" 
d="M57 0q-15 0 -18 8.5t6 20.5l1008 1401q10 17 17.5 20.5t29.5 3.5h37q14 0 17.5 -9t-3.5 -20l-1008 -1400q-11 -15 -20.5 -20t-32.5 -5h-33z" />
    <glyph glyph-name="uni2219" unicode="&#x2219;" horiz-adv-x="448" 
d="M223 383q-34 0 -46.5 11.5t-12.5 47.5v11q0 34 12.5 46.5t46.5 12.5h10q34 0 47 -12.5t13 -46.5v-11q0 -34 -13 -46.5t-47 -12.5h-10z" />
    <glyph glyph-name="radical" unicode="&#x221a;" horiz-adv-x="1406" 
d="M766 -217q-25 0 -29 20l-344 1012h-274q-25 0 -25 27v32q0 27 25 27h309q24 0 32 -4.5t11 -19.5l246 -732q33 -100 74 -260h4q6 24 28.5 117t36.5 145l397 1364q3 14 10.5 19.5t26.5 5.5h45q27 0 19 -25l-510 -1708q-3 -13 -9.5 -16.5t-21.5 -3.5h-51z" />
    <glyph glyph-name="infinity" unicode="&#x221e;" horiz-adv-x="1519" 
d="M438 279q-128 0 -210.5 84.5t-82.5 216.5q0 139 83.5 225t217.5 86q61 0 115.5 -23.5t93 -63.5t63 -75t44.5 -74q17 38 42 73.5t63 75t93 63.5t117 24q132 0 214.5 -85.5t82.5 -223.5q0 -133 -82.5 -218t-210.5 -85q-64 0 -119.5 22.5t-94.5 60.5t-64 72.5t-43 71.5
q-16 -35 -41.5 -69.5t-65 -72.5t-96 -61.5t-119.5 -23.5zM436 358q181 2 277 226q-1 1 -8.5 17t-14.5 30t-21 36.5t-28.5 40.5t-36 38t-44.5 33.5t-53.5 22.5t-62.5 9q-98 0 -159.5 -64.5t-61.5 -164.5q0 -95 61 -159.5t152 -64.5zM1083 358q92 0 152.5 64.5t60.5 159.5
q0 100 -60.5 164.5t-158.5 64.5q-30 0 -57.5 -6.5t-49.5 -19.5t-41.5 -27.5t-35.5 -33.5t-28 -35t-22.5 -35.5t-16 -31t-11.5 -24.5t-6 -14q96 -226 274 -226z" />
    <glyph glyph-name="integral" unicode="&#x222b;" horiz-adv-x="780" 
d="M70 -451q-23 0 -23 25v35q0 24 23 24q150 0 212 69.5t62 215.5v1231q0 187 85.5 277t281.5 90q22 0 22 -25v-35q0 -24 -22 -24q-151 0 -214 -69.5t-63 -215.5v-1231q0 -187 -84 -277t-280 -90z" />
    <glyph glyph-name="approxequal" unicode="&#x2248;" horiz-adv-x="1200" 
d="M795 780q-52 -1 -105 13t-89.5 31t-86 31.5t-94.5 14.5q-57 0 -101 -20.5t-90 -61.5q-15 -14 -32 3l-21 24q-14 23 0 37q54 50 108.5 75.5t123.5 26.5q64 0 130 -23.5t128 -46.5t120 -22q99 3 185 82q17 16 33 0l22 -26q18 -18 2 -37q-55 -49 -110 -74.5t-123 -26.5z
M797 406q-66 -1 -131 21.5t-127 45.5t-119 23q-56 0 -98 -20t-89 -62q-16 -16 -32 0l-23 26q-20 20 -2 37q56 50 110.5 75.5t123.5 25.5q65 1 129.5 -22t126.5 -46t118 -23q100 0 189 82q10 9 17 8.5t16 -10.5l22 -24q15 -22 0 -37q-55 -50 -109 -75t-122 -25z" />
    <glyph glyph-name="notequal" unicode="&#x2260;" horiz-adv-x="1314" 
d="M365 141q-12 0 -5 11l136 272h-289q-13 0 -18 6t-5 21v32q0 15 5 21t18 6h332l159 319h-491q-13 0 -18 5.5t-5 19.5v35q0 15 5 20.5t18 5.5h532l138 271q4 8 18 8h43q11 0 4 -10l-135 -269h299q14 0 19 -5.5t5 -20.5v-35q0 -25 -24 -25h-340l-162 -319h502q13 0 18.5 -6
t5.5 -21v-32q0 -15 -5.5 -21t-18.5 -6h-543l-137 -274q-4 -9 -20 -9h-41z" />
    <glyph glyph-name="lessequal" unicode="&#x2264;" horiz-adv-x="1220" 
d="M219 817q-20 10 -20 33v24q0 26 20 33l762 359q27 12 27 -19v-35q0 -21 -4.5 -28t-18.5 -13l-670 -305v-4l670 -307q14 -6 18.5 -14.5t4.5 -30.5v-35q0 -17 -6 -21t-21 3zM223 178q-13 0 -18.5 6t-5.5 21v31q0 17 5 22.5t19 5.5h760q14 0 19.5 -5.5t5.5 -20.5v-33
q0 -17 -5.5 -22t-19.5 -5h-760z" />
    <glyph glyph-name="greaterequal" unicode="&#x2265;" horiz-adv-x="1216" 
d="M242 457q-15 -7 -21 -3t-6 21v35q0 22 5 30.5t20 14.5l669 307v4l-669 305q-15 6 -20 14t-5 29v33q0 31 27 19l764 -359q20 -9 20 -33v-24q0 -22 -20 -33zM242 178q-16 0 -21.5 5t-5.5 22v33q0 15 6 20.5t21 5.5h757q15 0 21 -5.5t6 -22.5v-31q0 -15 -6 -21t-21 -6h-757z
" />
    <glyph glyph-name="lozenge" unicode="&#x25ca;" horiz-adv-x="1099" 
d="M535 0q-19 0 -31 20l-398 685q-11 23 0 45l396 682q8 13 13.5 17.5t16.5 4.5h35q19 0 31 -20l393 -684q14 -22 2 -45l-397 -685q-12 -20 -31 -20h-30zM551 106l358 621l-356 623h-4l-359 -623l359 -621h2z" />
    <glyph glyph-name="uniF6C3" unicode="&#xf6c3;" 
d="M-270 -504q-22 0 -19 21l82 299q1 14 8 19t23 5h37q31 0 22 -26l-96 -293q-8 -25 -31 -25h-26z" />
    <glyph glyph-name="uni0414.loclBGR" horiz-adv-x="1394" 
d="M88 -313q-14 0 -19.5 5.5t-5.5 20.5v350q0 25 25 25h90l457 1352q8 24 33 24h53q28 0 33 -24l456 -1352h97q24 0 24 -25v-350q0 -15 -5 -20.5t-19 -5.5h-43q-14 0 -19.5 5.5t-5.5 20.5v287h-1081v-287q0 -26 -27 -26h-43zM1110 88l-395 1192q-2 11 -10 42t-9 44h-6
q-1 -6 -16 -86l-398 -1192h834z" />
    <glyph glyph-name="uni041B.loclBGR" horiz-adv-x="1234" 
d="M643 1454q25 0 33 -22l502 -1407q5 -11 0.5 -18t-17.5 -7h-47q-18 0 -25 4.5t-12 18.5l-415 1177q-35 113 -41 137h-7q-36 -123 -41 -137l-413 -1177q-5 -14 -12.5 -18.5t-28.5 -4.5h-47q-26 0 -15 25l502 1405q8 24 35 24h49z" />
    <glyph glyph-name="uni0424.loclBGR" horiz-adv-x="1697" 
d="M827 -176q-13 0 -18.5 5t-5.5 19v150h-131q-251 0 -385.5 137t-134.5 383v416q0 246 134.5 383t385.5 137h131v148q0 15 5 20.5t19 5.5h45q14 0 19.5 -5.5t5.5 -20.5v-148h129q251 0 385.5 -137t134.5 -383v-416q0 -246 -134.5 -383t-385.5 -137h-129v-150q0 -24 -25 -24
h-45zM803 84v1284h-129q-209 0 -318.5 -113.5t-109.5 -318.5v-420q0 -205 109.5 -318.5t318.5 -113.5h129zM1026 84q208 0 317 113.5t109 318.5v420q0 205 -109 318.5t-317 113.5h-129v-1284h129z" />
    <glyph glyph-name="uni0414.ss01" horiz-adv-x="1394" 
d="M88 -313q-14 0 -19.5 5.5t-5.5 20.5v350q0 25 25 25h90l457 1352q8 24 33 24h53q28 0 33 -24l456 -1352h97q24 0 24 -25v-350q0 -15 -5 -20.5t-19 -5.5h-43q-14 0 -19.5 5.5t-5.5 20.5v287h-1081v-287q0 -26 -27 -26h-43zM1110 88l-395 1192q-2 11 -10 42t-9 44h-6
q-1 -6 -16 -86l-398 -1192h834z" />
    <glyph glyph-name="uni041B.ss01" horiz-adv-x="1234" 
d="M643 1454q25 0 33 -22l502 -1407q5 -11 0.5 -18t-17.5 -7h-47q-18 0 -25 4.5t-12 18.5l-415 1177q-35 113 -41 137h-7q-36 -123 -41 -137l-413 -1177q-5 -14 -12.5 -18.5t-28.5 -4.5h-47q-26 0 -15 25l502 1405q8 24 35 24h49z" />
    <glyph glyph-name="uni0424.ss01" horiz-adv-x="1697" 
d="M827 -176q-13 0 -18.5 5t-5.5 19v150h-131q-251 0 -385.5 137t-134.5 383v416q0 246 134.5 383t385.5 137h131v148q0 15 5 20.5t19 5.5h45q14 0 19.5 -5.5t5.5 -20.5v-148h129q251 0 385.5 -137t134.5 -383v-416q0 -246 -134.5 -383t-385.5 -137h-129v-150q0 -24 -25 -24
h-45zM803 84v1284h-129q-209 0 -318.5 -113.5t-109.5 -318.5v-420q0 -205 109.5 -318.5t318.5 -113.5h129zM1026 84q208 0 317 113.5t109 318.5v420q0 205 -109 318.5t-317 113.5h-129v-1284h129z" />
    <glyph glyph-name="zero.sinf" horiz-adv-x="768" 
d="M385 -260q-126 0 -196 72.5t-70 199.5v293q0 126 70 200.5t196 74.5q124 0 194 -74.5t70 -200.5v-293q0 -127 -69.5 -199.5t-194.5 -72.5zM385 -186q89 0 138.5 52.5t49.5 145.5v293q0 93 -49.5 147t-138.5 54q-90 0 -139 -54t-49 -147v-293q0 -93 49 -145.5t139 -52.5z
" />
    <glyph glyph-name="one.sinf" horiz-adv-x="552" 
d="M344 -246q-25 0 -25 27v684l-196 -111q-25 -16 -37 11l-10 16q-14 21 12 37l234 137q13 8 32 8h17q14 0 19 -5.5t5 -20.5v-756q0 -15 -5.5 -21t-18.5 -6h-27z" />
    <glyph glyph-name="two.sinf" horiz-adv-x="724" 
d="M135 -244q-26 0 -26 27v88q0 185 145 246l108 47q9 4 42 18t43.5 19t33.5 20.5t31.5 29.5t16.5 37t8 52q0 80 -41.5 124t-124.5 44q-82 0 -129.5 -48t-59.5 -112q-4 -13 -9.5 -17t-16.5 -1l-29 8q-22 6 -14 31q17 86 83 148.5t179 62.5q117 0 178 -63t61 -173
q0 -54 -14.5 -92t-49 -65.5t-59.5 -41t-78 -35.5q-9 -4 -14 -6l-106 -45q-51 -24 -75.5 -61.5t-24.5 -101.5v-68h393q22 0 22 -25v-24q0 -13 -4.5 -18t-17.5 -5h-451z" />
    <glyph glyph-name="three.sinf" horiz-adv-x="741" 
d="M383 -262q-118 0 -186 54.5t-93 164.5q-7 24 13 31l26 10q12 3 17.5 0t11.5 -16q20 -93 69.5 -134t141.5 -41q85 0 130.5 45.5t45.5 120.5q0 67 -37 113.5t-96 46.5h-127q-11 0 -14.5 5t-3.5 20v20q0 18 3.5 22.5t16.5 4.5h121q57 0 88 41t31 102q0 73 -44 117.5
t-118 44.5q-87 0 -134.5 -36.5t-70.5 -127.5q-6 -15 -12.5 -18.5t-20.5 2.5l-20 6q-19 10 -12 31q30 117 93.5 165t180.5 48q107 0 168 -62t63 -164q-3 -133 -98 -180q57 -29 88 -82.5t31 -122.5q0 -106 -64.5 -168.5t-187.5 -62.5z" />
    <glyph glyph-name="four.sinf" horiz-adv-x="724" 
d="M481 -246q-18 0 -18 23v207h-369q-12 0 -16 4.5t-4 17.5v19q0 20 8 30l362 492q7 11 14 13.5t23 2.5h31q14 0 18.5 -4.5t4.5 -21.5v-488h90q12 0 16 -4t4 -16v-23q0 -13 -4 -17.5t-16 -4.5h-90v-207q0 -23 -19 -23h-35zM463 49v418l-305 -418h305z" />
    <glyph glyph-name="five.sinf" horiz-adv-x="716" 
d="M365 -260q-117 0 -179 54.5t-90 162.5q-8 28 10 33l27 8q13 5 20 2t11 -16q20 -89 65 -131.5t133 -42.5q91 0 137 52.5t46 135.5q0 85 -48 131.5t-145 46.5h-202q-26 0 -23 27l31 336q0 24 28 24h385q21 0 21 -18v-31q0 -12 -4 -15t-17 -3h-348l-22 -254h157
q129 0 194.5 -65t65.5 -179q0 -116 -64.5 -187t-188.5 -71z" />
    <glyph glyph-name="six.sinf" horiz-adv-x="765" 
d="M389 -260q-270 0 -270 309v221q0 150 69 230t205 80q178 0 252 -148q9 -15 -10 -24l-31 -17q-15 -7 -24 8q-55 109 -187 109q-98 0 -148 -60t-50 -176v-102q120 55 221 55q248 0 248 -237q0 -124 -70.5 -186t-204.5 -62zM389 -190q197 0 197 178q0 82 -44 127t-134 45
q-116 0 -213 -58v-55q0 -237 194 -237z" />
    <glyph glyph-name="seven.sinf" horiz-adv-x="632" 
d="M199 -246q-15 0 -18 6t3 21l301 711h-391q-11 0 -14.5 4.5t-3.5 15.5v31q0 12 3.5 16t14.5 4h457q12 0 16 -3.5t4 -14.5v-19q0 -18 -4 -28l-305 -727q-5 -11 -10.5 -14t-22.5 -3h-30z" />
    <glyph glyph-name="eight.sinf" horiz-adv-x="765" 
d="M383 -260q-132 0 -204.5 55.5t-72.5 157.5q0 149 156 213q-135 53 -135 192q0 106 68 164t188 58t187 -55.5t67 -151.5q0 -143 -137 -205q159 -47 159 -195q0 -116 -71.5 -174.5t-204.5 -58.5zM416 190q145 47 145 175q0 69 -46 110t-132 41q-84 0 -132 -42t-48 -118
q0 -73 46 -108.5t167 -57.5zM385 -195q94 0 145.5 41t51.5 125q0 74 -50.5 108.5t-181.5 55.5q-98 -27 -137 -80q-29 -40 -29 -94q0 -75 52.5 -115.5t148.5 -40.5z" />
    <glyph glyph-name="nine.sinf" horiz-adv-x="765" 
d="M373 -260q-179 0 -246 151q-10 17 6 25l33 16q17 7 24 -6q21 -50 66.5 -83t116.5 -33q101 0 149.5 58t48.5 177v105q-118 -54 -221 -54q-248 0 -248 234q0 125 72 187.5t207 62.5q133 0 200.5 -80t67.5 -228v-225q0 -307 -276 -307zM360 162q101 0 211 55v55
q0 236 -190 236q-201 0 -201 -176q0 -170 180 -170z" />
    <glyph glyph-name="zero.tf" horiz-adv-x="1302" 
d="M649 -29q-223 0 -347 124t-124 341v582q0 216 124.5 340.5t346.5 124.5t346.5 -124.5t124.5 -340.5v-582q0 -217 -124 -341t-347 -124zM649 59q180 0 278.5 99.5t98.5 277.5v582q0 176 -98.5 276.5t-278.5 100.5q-181 0 -279 -100t-98 -277v-582q0 -178 97.5 -277.5
t279.5 -99.5z" />
    <glyph glyph-name="one.tf" horiz-adv-x="1302" 
d="M176 0q-26 0 -26 27v36q0 25 26 25h436v1251l-327 -186q-13 -7 -21.5 -6t-15.5 14l-19 35q-14 19 11 33l368 215q17 10 39 10h35q25 0 25 -27v-1339h432q24 0 24 -25v-36q0 -15 -5.5 -21t-18.5 -6h-963z" />
    <glyph glyph-name="two.tf" horiz-adv-x="1302" 
d="M227 0q-24 0 -24 27v168q0 67 14.5 123t43.5 100.5t62.5 78.5t83 64.5t91 51.5t100.5 46q27 11 75 30t75 30t67.5 31.5t63.5 37.5t50.5 45t42 58t24.5 71.5t10 90.5q0 156 -89 249t-237 93q-143 0 -231 -65t-156 -204q-9 -23 -29 -14l-43 14q-24 9 -14 31
q59 116 118 183.5t147 105t212 37.5q191 0 304.5 -119t113.5 -309q0 -69 -14 -125.5t-41 -97.5t-62 -74t-80.5 -58.5t-93.5 -47.5t-104 -45q-35 -14 -52 -21q-67 -28 -109.5 -48.5t-93.5 -55t-80 -70.5t-49 -88.5t-20 -116.5v-119h772q25 0 25 -25v-36q0 -27 -25 -27h-848z
" />
    <glyph glyph-name="three.tf" horiz-adv-x="1302" 
d="M674 -29q-210 0 -320.5 90.5t-158.5 274.5q-9 27 16 33l41 12q25 9 33 -16q37 -157 125 -231.5t262 -74.5q178 0 265 88t87 248q0 138 -74 224t-207 86h-299q-14 0 -19 5.5t-5 20.5v35q0 25 24 25h293q125 0 187.5 80t62.5 202q0 155 -80 238.5t-237 83.5
q-167 0 -251.5 -69t-125.5 -228q-8 -23 -33 -15l-39 11q-22 8 -14 34q48 179 155 267t310 88q199 0 303 -105.5t104 -298.5q0 -112 -45.5 -199t-136.5 -124q107 -39 164 -135.5t57 -225.5q0 -200 -110 -312t-334 -112z" />
    <glyph glyph-name="four.tf" horiz-adv-x="1302" 
d="M901 0q-13 0 -18.5 6t-5.5 21v397h-684q-23 0 -23 27v26q0 23 10 35l678 944q15 21 35 21h47q15 0 21 -6t6 -23v-938h137q13 0 18.5 -6t5.5 -21v-32q0 -15 -5.5 -21t-18.5 -6h-137v-397q0 -27 -25 -27h-41zM877 510v829l-598 -829h598z" />
    <glyph glyph-name="five.tf" horiz-adv-x="1302" 
d="M668 -29q-193 0 -307 80.5t-168 239.5q-8 24 12 33l43 14q23 10 33 -16q68 -263 387 -263q159 0 255.5 104.5t96.5 262.5q0 154 -89 250t-255 96h-402q-19 0 -25 8t-3 27l55 602q3 26 12.5 35.5t34.5 9.5h694q25 0 25 -27v-36q0 -25 -25 -25h-653l-47 -506h340
q110 0 194.5 -34t136 -94t77.5 -137.5t26 -168.5q0 -195 -120 -325t-328 -130z" />
    <glyph glyph-name="six.tf" horiz-adv-x="1302" 
d="M647 -29q-231 0 -353 135t-122 375v496q0 250 120.5 378t354.5 128q180 0 291 -77t166 -230q8 -23 -14 -31l-39 -15q-23 -8 -31 17q-47 125 -136.5 186.5t-234.5 61.5q-383 0 -383 -414v-225q175 78 400 78q234 0 346 -106t112 -325q0 -204 -126.5 -318t-350.5 -114z
M647 59q185 0 284 89t99 255q0 175 -89.5 260t-281.5 85q-214 0 -393 -82v-187q0 -199 97.5 -309.5t283.5 -110.5z" />
    <glyph glyph-name="seven.tf" horiz-adv-x="1302" 
d="M477 0q-24 0 -14 27l549 1339h-797q-25 0 -25 25v36q0 27 25 27h877q13 0 18.5 -6t5.5 -21v-24q0 -21 -6 -37l-547 -1343q-6 -15 -12.5 -19t-26.5 -4h-47z" />
    <glyph glyph-name="eight.tf" horiz-adv-x="1302" 
d="M645 -29q-248 0 -362.5 97t-114.5 268q0 79 25 145.5t61 109.5t85.5 77t87.5 51t77 29q-68 27 -116 54.5t-93 70t-67.5 103.5t-22.5 140q0 176 117.5 271.5t324.5 95.5q218 0 330.5 -92t112.5 -269q0 -74 -21.5 -135.5t-52 -100.5t-73 -70.5t-76 -47t-70.5 -27.5
q59 -21 102.5 -40.5t88.5 -52t73.5 -71.5t46.5 -96t18 -127q0 -178 -116 -280.5t-365 -102.5zM688 774q117 31 183 80q126 94 126 260q0 139 -89.5 212t-260.5 73q-163 0 -254.5 -73.5t-91.5 -211.5q0 -45 10.5 -82.5t26.5 -65t43.5 -52t53 -40.5t64.5 -32.5t69.5 -27
t74.5 -24.5q13 -4 19 -6zM645 55q198 0 290.5 79.5t92.5 219.5q0 56 -12.5 100t-39.5 76.5t-58 56t-78 43.5t-88.5 34t-101.5 32q-29 8 -44 13q-21 -5 -36 -9t-54 -18.5t-68 -31t-66 -46.5t-61.5 -64.5t-41.5 -85.5t-17 -110q0 -289 383 -289z" />
    <glyph glyph-name="nine.tf" horiz-adv-x="1302" 
d="M647 -29q-179 0 -289.5 77.5t-164.5 230.5q-4 14 -1 19.5t15 10.5l39 15q22 8 33 -17q43 -125 132 -186.5t236 -61.5q379 0 379 408v231q-173 -77 -395 -77q-235 0 -347 105.5t-112 324.5q0 204 126 318t349 114q231 0 352 -135t121 -375v-502q0 -248 -119.5 -374
t-353.5 -126zM635 707q204 0 391 81v187q0 203 -96 311.5t-283 108.5q-183 0 -282 -89t-99 -255q0 -178 89 -261t280 -83z" />
    <glyph glyph-name="zero.dnom" horiz-adv-x="768" 
d="M385 -20q-126 0 -196 73.5t-70 200.5v297q0 126 70 200t196 74q125 0 194.5 -74t69.5 -200v-297q0 -127 -69.5 -200.5t-194.5 -73.5zM385 53q89 0 138.5 53.5t49.5 147.5v297q0 93 -49.5 147t-138.5 54q-90 0 -139 -54t-49 -147v-297q0 -95 49 -148t139 -53z" />
    <glyph glyph-name="one.dnom" horiz-adv-x="550" 
d="M342 0q-25 0 -25 27v684l-196 -111q-23 -15 -37 10l-10 17q-11 20 12 37l233 137q13 8 33 8h17q26 0 26 -27v-755q0 -27 -26 -27h-27z" />
    <glyph glyph-name="two.dnom" horiz-adv-x="724" 
d="M137 0q-26 0 -26 27v88q0 94 34 153.5t109 91.5l111 48q10 5 36.5 15.5t37 16t30.5 16.5t29 21.5t20 26t15 35.5t4 45q0 80 -40.5 124t-123.5 44q-82 0 -130.5 -48.5t-58.5 -111.5q-5 -14 -10.5 -18t-17.5 -1l-27 9q-22 6 -14 30q15 86 82 149.5t180 63.5
q116 0 176.5 -63.5t60.5 -173.5q0 -37 -7 -66.5t-22.5 -52t-30.5 -38.5t-42 -31t-46 -24t-53 -23q-8 -3 -12 -5l-106 -45q-52 -24 -76 -61.5t-24 -102.5v-67h393q22 0 22 -25v-24q0 -13 -4.5 -18t-17.5 -5h-451z" />
    <glyph glyph-name="three.dnom" horiz-adv-x="741" 
d="M383 -16q-118 0 -186 54.5t-93 164.5q-7 23 13 30l26 11q12 3 17.5 0t11.5 -17q20 -92 69.5 -133t141.5 -41q85 0 130.5 45.5t45.5 120.5q0 67 -37 113.5t-96 46.5h-127q-11 0 -14.5 4.5t-3.5 19.5v21q0 18 3.5 22.5t16.5 4.5h121q57 0 88 41t31 102q0 73 -44 117.5
t-118 44.5q-87 0 -134.5 -36.5t-70.5 -127.5q-6 -15 -12.5 -19t-20.5 2l-20 7q-19 9 -12 30q30 117 93.5 165t180.5 48q107 0 168 -61.5t63 -163.5q-3 -133 -98 -180q57 -29 88 -82.5t31 -122.5q0 -106 -64.5 -168.5t-187.5 -62.5z" />
    <glyph glyph-name="four.dnom" horiz-adv-x="724" 
d="M481 0q-11 0 -14.5 5t-3.5 18v206h-369q-12 0 -16 4.5t-4 18.5v18q0 21 8 31l362 492q7 11 14 13.5t23 2.5h31q14 0 18.5 -5t4.5 -22v-487h90q12 0 16 -4.5t4 -16.5v-22q0 -14 -4 -18.5t-16 -4.5h-90v-206q0 -13 -4 -18t-15 -5h-35zM463 295v418l-305 -418h305z" />
    </font>
</defs>
</svg>
